<?xml version="1.0" standalone="no"?><!DOCTYPE svg PUBLIC "-//W3C//DTD SVG 1.1//EN" "http://www.w3.org/Graphics/SVG/1.1/DTD/svg11.dtd"><svg height="1024" node-id="1" sillyvg="true" template-height="1024" template-width="1024" version="1.1" viewBox="0 0 1024 1024" width="1024" xmlns="http://www.w3.org/2000/svg" xmlns:xlink="http://www.w3.org/1999/xlink"><defs node-id="32"></defs><path d="M 0.00 0.00 L 1024.00 0.00 L 1024.00 1024.00 L 0.00 1024.00 Z" fill="#ffffff" fill-rule="nonzero" node-id="34" stroke="none" target-height="1024" target-width="1024" target-x="0" target-y="0"></path><path d="M 706.50 189.60 L 715.80 185.70 L 724.80 181.40 L 733.50 176.60 L 750.30 166.10 L 758.50 160.40 L 770.40 151.40 L 782.00 141.90 L 804.60 122.40 L 803.40 133.80 L 801.60 145.10 L 799.20 156.40 L 797.10 164.90 L 791.70 181.20 L 788.60 189.20 L 785.00 197.00 L 781.00 204.50 L 776.60 211.90 L 771.80 219.00 L 766.60 225.70 L 760.90 232.20 L 754.70 238.30 L 748.10 244.20 L 760.30 265.10 L 771.30 286.90 L 776.20 298.10 L 780.60 309.40 L 784.60 320.90 L 788.20 332.50 L 791.30 344.20 L 793.90 356.10 L 795.90 368.00 L 797.30 380.10 L 798.20 392.20 L 798.50 404.30 L 798.10 416.50 L 797.10 428.80 L 819.70 441.70 L 842.10 455.90 L 852.90 463.50 L 863.40 471.50 L 878.40 484.40 L 892.30 498.30 L 898.70 505.70 L 904.70 513.40 L 910.40 521.40 L 915.60 529.80 L 908.10 536.00 L 899.50 525.80 L 890.60 515.90 L 881.40 506.30 L 871.90 497.10 L 862.10 488.20 L 852.10 479.50 L 841.80 471.20 L 831.20 463.20 L 816.80 453.00 L 802.00 443.30 L 786.90 434.10 L 786.80 422.20 L 786.30 410.30 L 785.30 398.40 L 784.00 386.40 L 782.30 374.50 L 780.10 362.70 L 777.50 350.90 L 774.50 339.20 L 771.10 327.60 L 767.20 316.30 L 762.90 305.10 L 758.20 294.10 L 753.00 283.20 L 747.40 272.70 L 741.30 262.50 L 734.90 252.50 L 727.90 242.90 L 720.50 233.60 L 712.60 224.70 L 704.30 216.20 L 697.30 209.70 L 690.10 203.50 L 682.50 197.50 L 674.60 191.90 L 660.10 182.30 L 653.60 178.50 L 646.90 175.00 L 636.60 170.40 L 604.80 158.30 L 594.30 154.00 L 584.20 149.20 L 577.70 145.60 L 571.40 141.50 L 565.30 137.00 L 573.00 136.50 L 580.70 136.50 L 588.20 136.90 L 595.70 137.90 L 610.40 141.10 L 624.90 145.80 L 634.40 149.60 L 643.90 153.80 L 653.20 158.50 L 666.90 166.00 L 706.50 189.60 Z M 718.00 203.80 L 727.10 213.10 L 731.30 218.10 L 737.40 227.10 L 741.40 235.00 L 748.90 225.80 L 756.10 216.30 L 762.80 206.50 L 769.20 196.60 L 775.20 186.30 L 780.70 175.80 L 733.80 197.00 L 718.00 203.80 Z" fill="#37384d" fill-rule="nonzero" node-id="36" stroke="none" target-height="413.6" target-width="350.3" target-x="565.3" target-y="122.4"></path><path d="M 599.40 322.10 L 615.80 320.70 L 624.10 320.50 L 632.40 320.80 L 637.90 321.40 L 648.60 323.60 L 653.80 325.20 L 658.80 327.40 L 668.60 332.70 L 673.20 335.70 L 677.30 339.10 L 681.20 342.90 L 684.70 347.00 L 687.80 351.30 L 690.60 355.80 L 693.10 360.70 L 695.10 365.70 L 696.80 370.80 L 698.10 376.00 L 698.90 381.30 L 699.40 386.70 L 699.40 392.10 L 699.00 397.50 L 698.20 402.80 L 697.00 408.10 L 695.20 413.20 L 693.00 418.20 L 687.00 429.20 L 683.20 434.80 L 679.00 440.00 L 674.40 444.90 L 669.50 449.40 L 664.20 453.40 L 658.70 457.10 L 652.90 460.40 L 646.80 463.30 L 640.60 465.70 L 634.20 467.80 L 627.60 469.50 L 621.00 470.80 L 614.30 471.70 L 607.50 472.10 L 600.80 472.20 L 594.00 471.80 L 587.30 471.10 L 580.80 469.90 L 574.30 468.30 L 567.90 466.30 L 561.80 463.90 L 555.90 461.00 L 550.20 457.80 L 544.80 454.10 L 539.70 450.00 L 534.90 445.50 L 530.50 440.60 L 526.50 435.30 L 523.00 429.50 L 519.90 423.30 L 517.20 416.50 L 515.70 410.20 L 514.80 404.20 L 514.60 398.30 L 515.00 392.70 L 516.00 387.00 L 517.50 381.60 L 519.40 376.30 L 522.00 371.10 L 524.90 366.20 L 528.20 361.50 L 531.90 357.00 L 536.00 352.70 L 541.90 347.30 L 548.20 342.40 L 555.00 337.90 L 562.20 333.90 L 569.40 330.40 L 576.90 327.50 L 584.50 325.10 L 592.00 323.30 L 599.40 322.10 Z M 580.00 341.90 L 569.50 346.30 L 564.40 349.10 L 559.40 352.30 L 554.70 355.80 L 550.30 359.50 L 546.20 363.70 L 542.50 368.10 L 539.20 372.70 L 536.40 377.70 L 534.30 382.90 L 532.60 388.30 L 531.90 392.50 L 531.50 396.80 L 531.60 401.30 L 532.10 405.90 L 533.30 411.70 L 535.00 417.00 L 537.10 422.00 L 539.70 426.60 L 542.70 431.00 L 546.00 435.00 L 549.70 438.70 L 553.70 442.10 L 558.00 445.20 L 567.20 450.40 L 572.30 452.50 L 579.10 454.90 L 586.20 456.70 L 593.50 457.90 L 600.90 458.60 L 608.20 458.80 L 615.50 458.40 L 622.70 457.40 L 629.60 455.90 L 641.10 452.40 L 645.80 450.50 L 650.20 448.20 L 658.50 442.60 L 665.90 435.80 L 669.20 432.00 L 673.20 426.60 L 676.60 420.80 L 679.50 414.80 L 682.70 405.30 L 684.50 395.60 L 684.80 390.70 L 684.70 385.80 L 684.10 380.90 L 683.10 376.10 L 681.70 371.40 L 679.80 366.80 L 677.30 362.30 L 671.10 353.20 L 667.50 349.20 L 663.70 345.80 L 659.70 342.90 L 655.40 340.40 L 650.90 338.30 L 646.20 336.70 L 641.20 335.40 L 634.50 334.40 L 627.70 333.80 L 620.60 333.90 L 613.60 334.40 L 599.70 336.60 L 589.40 339.00 L 580.00 341.90 Z" fill="#37384d" fill-rule="nonzero" node-id="38" stroke="none" target-height="151.70001" target-width="184.80005" target-x="514.6" target-y="320.5"></path><path d="M 304.80 783.60 L 308.70 769.30 L 313.10 755.00 L 316.30 745.60 L 324.00 727.30 L 328.40 718.50 L 333.30 710.00 L 338.70 701.80 L 343.10 695.90 L 347.90 690.30 L 353.10 684.80 L 358.60 679.70 L 333.10 741.40 L 322.70 769.10 L 319.00 783.10 L 316.90 793.70 L 310.70 836.70 L 308.70 847.30 L 305.00 861.30 L 302.70 868.20 L 302.20 849.30 L 302.20 830.40 L 302.90 811.60 L 304.80 783.60 Z" fill="#c2e4e7" fill-rule="nonzero" node-id="40" stroke="none" target-height="188.5" target-width="56.399994" target-x="302.2" target-y="679.7"></path><path d="M 342.30 322.00 L 349.90 320.80 L 357.80 320.10 L 366.00 320.10 L 374.30 320.50 L 382.60 321.60 L 391.00 323.10 L 399.30 325.20 L 407.40 327.90 L 415.30 331.00 L 421.00 333.80 L 431.80 340.00 L 441.60 347.40 L 446.00 351.50 L 450.00 355.80 L 453.60 360.40 L 456.90 365.30 L 459.70 370.50 L 462.00 375.90 L 463.80 381.50 L 465.10 387.30 L 465.80 393.40 L 465.90 399.80 L 465.30 406.60 L 464.10 412.50 L 462.40 418.00 L 460.40 423.30 L 458.10 428.20 L 455.40 432.80 L 451.50 438.40 L 447.20 443.50 L 442.50 448.10 L 437.40 452.40 L 431.90 456.20 L 426.20 459.60 L 420.10 462.50 L 413.80 465.10 L 407.30 467.20 L 400.70 468.80 L 393.90 470.00 L 387.00 470.70 L 380.10 471.00 L 373.20 470.80 L 366.30 470.20 L 359.50 469.10 L 352.80 467.50 L 346.30 465.40 L 339.90 462.90 L 333.80 459.90 L 327.90 456.50 L 322.30 452.50 L 317.10 448.10 L 308.10 439.20 L 304.50 435.10 L 301.30 430.70 L 298.60 426.10 L 296.20 421.20 L 294.20 416.10 L 292.60 411.00 L 291.40 405.60 L 290.60 400.20 L 290.10 389.30 L 290.40 383.80 L 292.10 372.90 L 295.30 362.50 L 297.40 357.50 L 299.90 352.70 L 302.60 348.10 L 305.80 343.80 L 309.20 339.70 L 313.00 336.00 L 317.10 332.70 L 321.60 329.60 L 326.20 327.10 L 331.20 324.90 L 336.60 323.20 L 342.30 322.00 Z M 331.90 341.60 L 327.70 344.20 L 323.90 347.20 L 320.50 350.40 L 317.40 353.90 L 314.70 357.60 L 310.30 365.70 L 308.70 370.00 L 307.00 376.00 L 306.00 382.00 L 305.50 388.20 L 305.70 394.50 L 306.40 400.60 L 307.80 406.70 L 309.80 412.70 L 312.30 418.40 L 315.40 423.80 L 318.20 427.60 L 321.20 431.20 L 324.60 434.60 L 332.60 441.30 L 337.10 444.60 L 342.00 447.50 L 347.20 449.90 L 352.60 452.00 L 358.10 453.70 L 363.80 455.00 L 375.60 456.50 L 387.30 456.40 L 393.20 455.80 L 404.70 453.40 L 415.50 449.60 L 420.60 447.10 L 425.50 444.30 L 429.90 441.10 L 434.10 437.50 L 437.90 433.60 L 441.30 429.40 L 444.20 424.70 L 446.70 419.70 L 448.30 415.60 L 449.50 411.20 L 450.30 406.60 L 450.80 401.60 L 450.80 396.30 L 449.40 390.10 L 447.50 384.20 L 445.00 378.70 L 442.10 373.40 L 438.60 368.40 L 434.70 363.70 L 430.50 359.30 L 425.80 355.30 L 420.90 351.60 L 415.60 348.20 L 410.20 345.20 L 404.40 342.50 L 392.50 338.30 L 380.10 335.60 L 373.80 334.80 L 367.50 334.50 L 361.40 334.60 L 355.20 335.10 L 349.10 336.00 L 343.20 337.40 L 337.50 339.30 L 331.90 341.60 Z" fill="#293e5b" fill-rule="nonzero" node-id="42" stroke="none" target-height="150.9" target-width="175.79999" target-x="290.1" target-y="320.1"></path><path d="M 313.80 709.50 L 327.30 693.60 L 334.50 685.80 L 342.00 678.40 L 352.80 669.40 L 358.40 665.40 L 364.30 661.80 L 370.50 658.80 L 376.90 656.20 L 381.80 654.70 L 392.20 652.70 L 411.00 651.90 L 437.50 652.30 L 457.40 653.40 L 497.20 656.20 L 530.40 657.80 L 602.00 657.50 L 613.50 657.70 L 624.80 658.40 L 632.40 659.20 L 647.00 661.90 L 654.10 663.90 L 661.00 666.40 L 667.70 669.50 L 672.50 672.10 L 677.10 675.20 L 681.70 678.70 L 686.10 682.60 L 691.00 689.80 L 695.40 697.10 L 699.40 704.60 L 703.10 712.20 L 706.30 719.90 L 709.80 729.80 L 712.90 739.80 L 715.40 750.00 L 717.40 760.40 L 718.90 770.90 L 720.00 781.40 L 720.70 792.00 L 721.00 802.70 L 720.80 817.00 L 720.10 831.20 L 718.70 845.50 L 717.00 859.60 L 714.80 873.60 L 712.30 887.20 L 708.30 904.40 L 706.70 883.40 L 706.40 872.70 L 706.60 807.30 L 706.20 790.90 L 705.20 774.80 L 704.10 764.20 L 702.50 753.70 L 700.40 743.30 L 698.40 735.70 L 693.40 720.70 L 690.40 713.40 L 686.90 706.30 L 682.90 699.30 L 678.40 692.40 L 673.40 685.60 L 666.80 681.80 L 660.20 678.50 L 653.50 675.70 L 646.60 673.40 L 637.30 671.00 L 627.80 669.10 L 618.10 667.80 L 608.40 667.00 L 588.50 666.60 L 543.30 668.00 L 518.50 668.10 L 499.10 666.70 L 483.60 666.40 L 438.60 662.30 L 418.10 661.40 L 410.10 661.70 L 402.20 662.30 L 396.30 663.10 L 384.90 665.80 L 379.40 667.60 L 374.00 669.90 L 368.80 672.60 L 363.70 675.90 L 358.60 679.70 L 353.10 684.80 L 347.90 690.30 L 343.10 695.90 L 338.70 701.80 L 333.30 710.00 L 328.40 718.50 L 323.90 727.30 L 320.00 736.40 L 313.10 755.00 L 308.70 769.30 L 304.80 783.60 L 302.50 779.80 L 300.70 776.10 L 299.40 772.40 L 298.60 768.80 L 298.00 763.80 L 298.00 758.80 L 298.60 753.80 L 301.00 743.90 L 302.60 738.80 L 311.30 716.70 L 313.80 709.50 Z" fill="#293e5b" fill-rule="nonzero" node-id="44" stroke="none" target-height="252.5" target-width="423" target-x="298" target-y="651.9"></path><path d="M 718.00 203.80 L 733.80 197.00 L 780.70 175.80 L 775.20 186.30 L 769.20 196.60 L 762.80 206.50 L 756.10 216.30 L 748.90 225.80 L 741.40 235.00 L 737.40 227.10 L 731.30 218.10 L 727.10 213.10 L 718.00 203.80 Z" fill="#fabd5d" fill-rule="nonzero" node-id="46" stroke="none" target-height="59.199997" target-width="62.700012" target-x="718" target-y="175.8"></path><path d="M 489.20 167.00 L 484.50 162.50 L 482.50 159.00 L 482.10 157.10 L 482.40 153.80 L 483.20 152.30 L 484.60 150.50 L 486.60 148.70 L 489.10 147.10 L 493.20 145.20 L 497.90 143.60 L 502.80 142.40 L 507.50 141.70 L 512.10 141.50 L 515.60 141.80 L 516.60 147.60 L 516.50 150.70 L 515.50 156.90 L 513.40 162.80 L 512.00 165.40 L 508.50 169.90 L 506.60 171.50 L 504.40 172.70 L 502.20 173.40 L 499.80 173.50 L 497.20 173.00 L 494.80 171.90 L 492.20 170.00 L 489.20 167.00 Z" fill="#f4ad27" fill-rule="nonzero" node-id="48" stroke="none" target-height="32" target-width="34.49997" target-x="482.1" target-y="141.5"></path><path d="M 551.20 73.60 L 554.10 72.60 L 556.80 72.10 L 559.50 72.10 L 562.20 72.50 L 564.70 73.30 L 569.20 76.10 L 572.70 80.10 L 573.90 82.40 L 574.80 84.90 L 575.20 87.60 L 575.10 90.30 L 574.50 93.10 L 573.30 96.10 L 550.40 109.50 L 543.00 114.30 L 538.30 117.80 L 533.80 121.70 L 529.50 125.80 L 558.20 131.40 L 556.30 136.20 L 532.10 145.40 L 522.40 178.60 L 487.60 181.50 L 481.50 172.20 L 475.90 162.80 L 465.30 143.70 L 451.80 147.00 L 438.40 151.00 L 425.10 155.60 L 411.90 160.80 L 401.60 165.30 L 391.50 170.30 L 381.50 175.50 L 371.70 181.20 L 362.20 187.20 L 352.80 193.60 L 343.80 200.30 L 335.00 207.30 L 326.60 214.70 L 318.40 222.40 L 310.50 230.40 L 303.10 238.80 L 296.00 247.40 L 289.30 256.40 L 283.00 265.60 L 277.10 275.20 L 271.70 285.00 L 266.80 295.10 L 262.30 305.50 L 255.30 323.70 L 252.70 331.20 L 250.70 338.80 L 247.70 354.30 L 241.30 409.50 L 239.90 417.30 L 236.20 432.50 L 197.30 460.30 L 184.40 469.90 L 176.00 476.40 L 159.80 490.10 L 152.00 497.30 L 144.60 504.80 L 137.50 512.70 L 130.80 520.90 L 124.50 529.50 L 118.70 538.60 L 129.90 543.80 L 140.90 549.60 L 151.70 556.00 L 153.10 577.90 L 153.00 622.00 L 164.90 622.90 L 166.80 592.80 L 167.60 585.30 L 168.80 577.90 L 169.80 573.00 L 173.00 563.70 L 175.00 559.20 L 177.60 554.90 L 180.60 550.60 L 182.20 569.00 L 183.30 587.50 L 184.00 624.50 L 185.60 616.60 L 187.70 608.90 L 190.30 601.50 L 193.20 594.30 L 196.60 587.30 L 204.40 573.90 L 214.90 559.00 L 221.40 550.70 L 228.20 542.70 L 249.40 519.40 L 254.80 532.60 L 260.60 545.60 L 266.90 558.30 L 273.70 570.80 L 281.00 583.00 L 288.80 594.80 L 301.50 611.90 L 308.30 620.20 L 318.00 630.60 L 321.40 635.40 L 322.50 637.80 L 323.40 641.10 L 323.80 644.60 L 323.60 648.10 L 322.10 655.20 L 318.50 664.30 L 310.70 680.70 L 308.50 686.10 L 306.90 691.20 L 301.40 703.00 L 296.30 715.10 L 291.80 727.30 L 287.80 739.70 L 284.40 752.20 L 281.40 764.90 L 279.10 777.70 L 277.20 790.50 L 276.00 803.50 L 275.30 816.40 L 275.20 829.40 L 275.60 842.40 L 276.70 855.40 L 278.40 868.30 L 280.60 881.10 L 283.50 894.00 L 254.20 921.60 L 297.60 926.10 L 312.10 927.40 L 341.20 928.80 L 355.70 928.80 L 370.30 928.30 L 384.80 927.10 L 394.80 915.30 L 404.30 903.30 L 418.10 907.20 L 432.00 910.60 L 445.90 913.40 L 459.80 915.60 L 473.90 917.40 L 487.90 918.60 L 502.00 919.40 L 516.20 919.70 L 530.30 919.50 L 544.50 918.90 L 558.60 917.90 L 572.70 916.40 L 586.80 914.60 L 614.80 909.70 L 628.80 906.70 L 632.20 910.40 L 635.80 913.70 L 639.40 916.40 L 643.10 918.70 L 648.50 921.20 L 653.90 923.10 L 659.70 924.50 L 671.50 925.80 L 677.60 925.90 L 686.90 925.60 L 715.10 923.10 L 724.30 922.60 L 733.10 922.50 L 728.80 903.80 L 727.10 894.50 L 725.90 885.20 L 729.70 873.50 L 732.80 861.80 L 735.40 850.10 L 737.30 838.20 L 738.60 826.30 L 739.40 814.40 L 739.60 802.40 L 739.20 790.40 L 738.40 778.40 L 737.10 766.50 L 735.30 754.60 L 733.00 742.70 L 730.30 731.00 L 727.10 719.30 L 723.60 707.80 L 719.60 696.40 L 710.70 673.90 L 700.40 652.30 L 669.00 634.60 L 686.50 631.60 L 697.10 625.60 L 702.70 622.10 L 707.90 618.10 L 712.70 613.70 L 717.20 609.10 L 721.40 604.10 L 729.10 593.50 L 737.50 579.30 L 751.00 552.90 L 770.90 544.10 L 760.70 566.20 L 755.10 577.20 L 749.20 587.90 L 742.90 598.30 L 736.20 608.50 L 730.80 615.90 L 719.10 630.10 L 712.80 636.80 L 720.20 652.80 L 727.10 669.10 L 733.50 685.70 L 737.80 698.40 L 741.80 711.10 L 745.30 724.00 L 748.50 737.00 L 751.20 750.00 L 753.40 763.20 L 755.00 776.30 L 756.10 789.50 L 756.70 802.70 L 756.60 815.90 L 756.00 829.10 L 754.60 842.30 L 753.10 852.70 L 751.10 863.10 L 748.60 873.50 L 745.70 883.90 L 742.20 894.30 L 750.70 902.80 L 758.80 911.60 L 766.70 920.80 L 774.30 930.50 L 757.40 931.60 L 748.70 932.60 L 709.00 939.10 L 686.80 942.40 L 669.30 943.90 L 660.60 944.10 L 652.00 943.90 L 643.60 943.10 L 637.30 942.10 L 625.00 939.00 L 619.00 936.80 L 613.20 934.30 L 607.40 931.20 L 601.70 927.60 L 596.00 923.30 L 584.00 925.80 L 571.90 927.80 L 559.80 929.40 L 547.50 930.60 L 535.30 931.30 L 519.90 931.60 L 504.60 931.30 L 489.20 930.40 L 473.90 928.90 L 458.70 926.70 L 443.70 923.90 L 428.70 920.50 L 414.00 916.60 L 407.50 925.80 L 399.90 934.30 L 395.70 938.10 L 391.30 941.60 L 386.60 944.60 L 381.70 947.20 L 376.50 949.30 L 368.40 951.30 L 364.10 951.70 L 344.50 952.00 L 313.30 951.50 L 297.70 950.40 L 277.00 948.00 L 266.80 946.30 L 256.70 944.10 L 246.80 941.40 L 237.10 938.20 L 223.00 932.40 L 209.50 925.10 L 214.60 920.40 L 217.80 918.30 L 222.70 915.40 L 244.80 904.50 L 249.70 901.50 L 252.80 899.30 L 257.80 894.60 L 259.80 891.90 L 261.30 889.00 L 262.20 885.80 L 262.60 880.60 L 259.30 862.00 L 257.90 849.80 L 257.00 837.70 L 256.80 825.70 L 257.10 813.60 L 258.00 801.60 L 259.30 789.60 L 261.20 777.70 L 263.60 765.90 L 266.30 754.10 L 269.60 742.50 L 273.20 730.90 L 278.60 715.60 L 284.60 700.60 L 291.20 685.80 L 298.30 671.20 L 305.80 656.90 L 313.70 642.90 L 307.40 637.50 L 301.40 631.90 L 295.80 626.10 L 290.50 620.00 L 283.80 611.50 L 277.60 602.80 L 271.80 593.70 L 261.10 574.90 L 249.20 550.60 L 242.50 535.90 L 238.10 549.90 L 236.40 557.00 L 232.40 578.60 L 227.40 611.30 L 225.50 622.00 L 223.00 632.50 L 220.10 642.90 L 214.80 645.30 L 209.40 647.30 L 204.00 648.90 L 198.60 650.00 L 193.00 650.60 L 181.90 650.80 L 176.20 650.20 L 168.80 649.00 L 161.40 647.20 L 154.10 644.80 L 146.90 641.80 L 139.90 638.40 L 133.10 634.60 L 126.50 630.30 L 120.30 625.60 L 114.30 620.70 L 108.70 615.40 L 103.50 609.90 L 98.80 604.20 L 98.20 592.50 L 98.00 580.50 L 98.30 572.50 L 99.90 556.60 L 101.40 548.80 L 103.50 541.20 L 106.10 533.80 L 108.40 528.40 L 111.20 523.20 L 114.40 518.10 L 118.00 513.20 L 125.70 504.50 L 142.00 487.70 L 150.50 479.70 L 168.40 464.70 L 177.60 457.60 L 196.80 444.20 L 216.80 432.20 L 227.10 426.70 L 226.80 414.30 L 227.10 402.00 L 227.80 389.70 L 229.00 377.50 L 230.60 365.30 L 232.80 353.20 L 235.40 341.20 L 238.50 329.30 L 242.10 317.60 L 246.20 306.00 L 250.70 294.60 L 255.70 283.50 L 261.30 272.50 L 267.20 261.80 L 273.70 251.20 L 267.30 249.70 L 261.30 247.80 L 255.80 245.40 L 250.50 242.50 L 245.60 239.10 L 240.90 235.40 L 236.60 231.40 L 232.60 226.90 L 228.90 222.20 L 222.40 212.00 L 219.60 206.60 L 216.30 199.00 L 213.60 191.30 L 211.40 183.40 L 209.70 175.30 L 208.50 167.30 L 207.90 159.40 L 225.50 172.50 L 244.00 185.30 L 250.30 189.20 L 263.30 196.20 L 270.10 199.20 L 276.90 201.80 L 283.90 203.90 L 291.00 205.50 L 298.30 206.60 L 305.90 207.10 L 329.00 189.10 L 340.90 180.60 L 353.10 172.40 L 365.60 164.80 L 378.30 157.60 L 388.00 152.50 L 407.90 143.50 L 418.10 139.50 L 428.40 135.90 L 438.90 132.80 L 449.60 130.10 L 460.60 127.80 L 449.80 122.10 L 438.90 116.80 L 416.60 107.50 L 419.00 99.30 L 422.50 91.20 L 425.70 86.50 L 429.60 83.00 L 431.90 81.80 L 434.40 81.10 L 437.00 81.00 L 440.00 81.40 L 443.50 82.50 L 447.20 84.70 L 450.60 87.30 L 453.80 90.10 L 458.20 94.90 L 474.40 115.30 L 478.50 119.80 L 481.50 122.50 L 484.70 124.80 L 488.00 126.80 L 491.50 128.30 L 495.40 129.30 L 499.70 129.70 L 502.90 129.70 L 510.30 128.40 L 514.60 127.00 L 524.80 102.20 L 527.80 96.10 L 531.20 90.40 L 533.80 86.80 L 539.70 80.40 L 543.10 77.80 L 546.90 75.50 L 551.20 73.60 Z M 489.20 167.00 L 492.20 170.00 L 494.80 171.90 L 497.20 173.00 L 499.80 173.50 L 502.20 173.40 L 504.40 172.70 L 506.60 171.50 L 508.50 169.90 L 512.00 165.40 L 513.40 162.80 L 515.50 156.90 L 516.50 150.70 L 516.60 147.60 L 515.60 141.80 L 512.10 141.50 L 507.50 141.70 L 502.80 142.40 L 497.90 143.60 L 493.20 145.20 L 489.10 147.10 L 486.60 148.70 L 484.60 150.50 L 483.20 152.30 L 482.40 153.80 L 482.10 157.10 L 482.50 159.00 L 484.50 162.50 L 489.20 167.00 Z" fill="#224c65" fill-rule="nonzero" node-id="50" stroke="none" target-height="879.9" target-width="676.3" target-x="98" target-y="72.1"></path><path d="M 532.10 145.40 L 556.30 136.20 L 565.30 137.00 L 571.40 141.50 L 577.70 145.60 L 584.20 149.20 L 594.30 154.00 L 604.80 158.30 L 636.60 170.40 L 646.90 175.00 L 653.60 178.50 L 660.10 182.30 L 674.60 191.90 L 682.50 197.50 L 690.10 203.50 L 697.30 209.70 L 704.30 216.20 L 712.60 224.70 L 720.50 233.60 L 727.90 242.90 L 734.90 252.50 L 741.30 262.50 L 747.40 272.70 L 753.00 283.20 L 758.20 294.10 L 762.90 305.10 L 767.20 316.30 L 771.10 327.60 L 774.50 339.20 L 777.50 350.90 L 780.10 362.70 L 782.30 374.50 L 784.00 386.40 L 785.30 398.40 L 786.30 410.30 L 786.80 422.20 L 786.90 434.10 L 802.00 443.30 L 816.80 453.00 L 831.20 463.20 L 852.10 479.50 L 862.10 488.20 L 871.90 497.10 L 881.40 506.30 L 890.60 515.90 L 899.50 525.80 L 908.10 536.00 L 870.80 555.40 L 870.30 591.70 L 869.60 609.90 L 868.50 628.10 L 865.50 624.20 L 863.20 620.20 L 861.40 616.10 L 860.10 611.80 L 858.50 602.70 L 856.60 574.80 L 854.80 565.90 L 853.30 561.70 L 851.30 557.70 L 848.80 553.80 L 845.50 550.10 L 844.30 559.90 L 841.70 589.60 L 840.50 599.40 L 838.60 609.10 L 837.00 615.50 L 834.90 621.70 L 832.30 627.90 L 829.50 610.20 L 827.10 592.40 L 823.30 557.00 L 800.50 559.60 L 798.50 552.00 L 796.10 544.70 L 794.10 540.00 L 789.40 531.40 L 786.50 527.50 L 783.30 523.90 L 779.60 520.60 L 775.60 517.80 L 771.10 515.30 L 766.00 513.10 L 770.90 544.10 L 745.00 555.50 L 739.40 558.50 L 734.20 561.80 L 729.30 565.60 L 720.30 574.00 L 716.20 578.70 L 712.40 583.70 L 707.80 590.60 L 703.60 597.80 L 699.90 605.40 L 696.50 613.10 L 691.10 628.80 L 686.50 631.60 L 688.10 625.90 L 688.00 621.90 L 687.20 619.60 L 686.10 617.80 L 684.50 616.40 L 682.60 615.40 L 680.50 614.80 L 678.10 614.50 L 673.50 615.00 L 669.10 616.90 L 665.90 619.90 L 664.90 621.80 L 664.40 623.90 L 664.40 626.30 L 665.70 630.00 L 669.00 634.60 L 700.40 652.30 L 710.70 673.90 L 715.30 685.00 L 723.60 707.80 L 727.10 719.30 L 730.30 731.00 L 733.00 742.70 L 735.30 754.60 L 737.10 766.50 L 738.40 778.40 L 739.20 790.40 L 739.60 802.40 L 739.40 814.40 L 738.60 826.30 L 737.30 838.20 L 735.40 850.10 L 732.80 861.80 L 729.70 873.50 L 725.90 885.20 L 712.30 887.20 L 714.80 873.60 L 717.00 859.60 L 718.70 845.50 L 720.10 831.20 L 720.80 817.00 L 721.00 802.70 L 720.70 792.00 L 720.00 781.40 L 718.90 770.90 L 717.40 760.40 L 715.40 750.00 L 712.90 739.80 L 709.80 729.80 L 706.30 719.90 L 703.10 712.20 L 699.40 704.60 L 695.40 697.10 L 691.00 689.80 L 686.10 682.60 L 681.70 678.70 L 677.10 675.20 L 672.50 672.10 L 667.70 669.50 L 661.00 666.40 L 654.10 663.90 L 647.00 661.90 L 632.40 659.20 L 624.80 658.40 L 613.50 657.70 L 602.00 657.50 L 530.40 657.80 L 497.20 656.20 L 457.40 653.40 L 437.50 652.30 L 411.00 651.90 L 392.20 652.70 L 386.90 653.50 L 381.80 654.70 L 376.90 656.20 L 370.50 658.80 L 364.30 661.80 L 358.40 665.40 L 352.80 669.40 L 342.00 678.40 L 334.50 685.80 L 327.30 693.60 L 313.80 709.50 L 306.90 691.20 L 308.50 686.10 L 310.70 680.70 L 318.50 664.30 L 322.10 655.20 L 323.60 648.10 L 323.80 644.60 L 323.40 641.10 L 322.50 637.80 L 319.90 633.00 L 308.30 620.20 L 295.00 603.50 L 288.80 594.80 L 281.00 583.00 L 273.70 570.80 L 266.90 558.30 L 260.60 545.60 L 254.80 532.60 L 249.40 519.40 L 228.20 542.70 L 221.40 550.70 L 214.90 559.00 L 204.40 573.90 L 196.60 587.30 L 193.20 594.30 L 190.30 601.50 L 187.70 608.90 L 185.60 616.60 L 184.00 624.50 L 183.30 587.50 L 182.20 569.00 L 180.60 550.60 L 177.60 554.90 L 175.00 559.20 L 173.00 563.70 L 169.80 573.00 L 168.80 577.90 L 167.60 585.30 L 166.80 592.80 L 164.90 622.90 L 153.00 622.00 L 153.10 577.90 L 151.70 556.00 L 140.90 549.60 L 129.90 543.80 L 118.70 538.60 L 124.50 529.50 L 130.80 520.90 L 137.50 512.70 L 144.60 504.80 L 152.00 497.30 L 159.80 490.10 L 176.00 476.40 L 184.40 469.90 L 197.30 460.30 L 236.20 432.50 L 239.90 417.30 L 241.30 409.50 L 247.70 354.30 L 250.70 338.80 L 252.70 331.20 L 255.30 323.70 L 262.30 305.50 L 266.80 295.10 L 271.70 285.00 L 277.10 275.20 L 283.00 265.60 L 289.30 256.40 L 296.00 247.40 L 303.10 238.80 L 310.50 230.40 L 318.40 222.40 L 326.60 214.70 L 335.00 207.30 L 343.80 200.30 L 352.80 193.60 L 362.20 187.20 L 371.70 181.20 L 381.50 175.50 L 391.50 170.30 L 401.60 165.30 L 411.90 160.80 L 425.10 155.60 L 438.40 151.00 L 451.80 147.00 L 465.30 143.70 L 475.90 162.80 L 481.50 172.20 L 487.60 181.50 L 522.40 178.60 L 532.10 145.40 Z M 342.30 322.00 L 336.60 323.20 L 331.20 324.90 L 326.20 327.10 L 321.60 329.60 L 317.10 332.70 L 313.00 336.00 L 309.20 339.70 L 305.80 343.80 L 302.60 348.10 L 299.90 352.70 L 297.40 357.50 L 295.30 362.50 L 292.10 372.90 L 290.40 383.80 L 290.10 389.30 L 290.60 400.20 L 291.40 405.60 L 292.60 411.00 L 294.20 416.10 L 296.20 421.20 L 298.60 426.10 L 301.30 430.70 L 304.50 435.10 L 308.10 439.20 L 317.10 448.10 L 322.30 452.50 L 327.90 456.50 L 333.80 459.90 L 339.90 462.90 L 346.30 465.40 L 352.80 467.50 L 359.50 469.10 L 366.30 470.20 L 373.20 470.80 L 380.10 471.00 L 387.00 470.70 L 393.90 470.00 L 400.70 468.80 L 407.30 467.20 L 413.80 465.10 L 420.10 462.50 L 426.20 459.60 L 431.90 456.20 L 437.40 452.40 L 442.50 448.10 L 447.20 443.50 L 451.50 438.40 L 455.40 432.80 L 458.10 428.20 L 460.40 423.30 L 462.40 418.00 L 464.10 412.50 L 465.30 406.60 L 465.90 399.80 L 465.80 393.40 L 465.10 387.30 L 463.80 381.50 L 462.00 375.90 L 459.70 370.50 L 456.90 365.30 L 453.60 360.40 L 450.00 355.80 L 446.00 351.50 L 441.60 347.40 L 431.80 340.00 L 421.00 333.80 L 415.30 331.00 L 407.40 327.90 L 399.30 325.20 L 391.00 323.10 L 382.60 321.60 L 374.30 320.50 L 366.00 320.10 L 357.80 320.10 L 349.90 320.80 L 342.30 322.00 Z M 599.40 322.10 L 592.00 323.30 L 584.50 325.10 L 576.90 327.50 L 569.40 330.40 L 562.20 333.90 L 555.00 337.90 L 548.20 342.40 L 541.90 347.30 L 536.00 352.70 L 531.90 357.00 L 528.20 361.50 L 524.90 366.20 L 522.00 371.10 L 519.40 376.30 L 517.50 381.60 L 516.00 387.00 L 515.00 392.70 L 514.60 398.30 L 514.80 404.20 L 515.70 410.20 L 517.20 416.50 L 519.90 423.30 L 523.00 429.50 L 526.50 435.30 L 530.50 440.60 L 534.90 445.50 L 539.70 450.00 L 544.80 454.10 L 550.20 457.80 L 555.90 461.00 L 561.80 463.90 L 567.90 466.30 L 574.30 468.30 L 580.80 469.90 L 587.30 471.10 L 594.00 471.80 L 600.80 472.20 L 607.50 472.10 L 614.30 471.70 L 621.00 470.80 L 627.60 469.50 L 634.20 467.80 L 640.60 465.70 L 646.80 463.30 L 652.90 460.40 L 658.70 457.10 L 664.20 453.40 L 669.50 449.40 L 674.40 444.90 L 679.00 440.00 L 683.20 434.80 L 687.00 429.20 L 693.00 418.20 L 695.20 413.20 L 697.00 408.10 L 698.20 402.80 L 699.00 397.50 L 699.40 392.10 L 699.40 386.70 L 698.90 381.30 L 698.10 376.00 L 696.80 370.80 L 695.10 365.70 L 693.10 360.70 L 690.60 355.80 L 687.80 351.30 L 684.70 346.90 L 681.20 342.90 L 677.30 339.10 L 673.20 335.70 L 668.70 332.70 L 658.80 327.40 L 653.80 325.20 L 648.60 323.60 L 637.90 321.40 L 632.40 320.80 L 624.10 320.50 L 615.80 320.70 L 599.40 322.10 Z M 480.40 439.90 L 477.40 441.50 L 474.80 443.30 L 472.40 445.50 L 470.40 448.00 L 468.70 450.60 L 467.40 453.40 L 466.60 456.30 L 466.20 459.10 L 466.30 461.90 L 466.90 464.60 L 468.10 467.10 L 469.80 469.50 L 471.40 471.00 L 473.40 472.30 L 478.80 474.60 L 482.20 476.70 L 485.10 478.10 L 487.60 478.90 L 489.80 479.20 L 492.20 479.00 L 494.30 478.50 L 496.10 477.60 L 497.80 476.40 L 499.80 474.20 L 501.40 471.70 L 502.80 468.60 L 503.70 465.30 L 504.30 461.90 L 504.50 454.60 L 503.30 447.70 L 502.10 444.50 L 500.70 441.80 L 498.90 439.60 L 497.30 438.20 L 495.50 437.10 L 493.50 436.50 L 491.20 436.20 L 489.10 436.30 L 486.60 436.90 L 483.70 438.10 L 480.40 439.90 Z M 441.80 513.30 L 449.00 522.70 L 453.10 527.10 L 457.50 531.30 L 462.10 535.10 L 466.90 538.50 L 472.00 541.60 L 477.20 544.20 L 482.70 546.30 L 488.20 547.80 L 494.00 548.70 L 499.80 549.00 L 504.20 548.80 L 508.60 548.20 L 513.20 547.10 L 517.80 545.60 L 525.50 543.90 L 529.70 542.60 L 538.00 539.00 L 546.00 534.20 L 553.00 528.60 L 556.00 525.40 L 558.40 522.10 L 560.40 518.60 L 561.50 515.90 L 562.50 510.30 L 562.40 507.30 L 561.90 504.40 L 560.90 501.50 L 559.40 498.40 L 557.20 495.10 L 513.40 499.20 L 498.80 500.90 L 484.30 502.90 L 469.90 505.50 L 460.50 507.70 L 451.10 510.30 L 441.80 513.30 Z M 597.80 536.40 L 586.80 547.50 L 589.10 553.00 L 591.70 556.20 L 593.80 557.70 L 596.00 558.50 L 598.20 558.80 L 600.50 558.50 L 602.80 557.90 L 605.00 556.80 L 609.10 553.80 L 612.40 550.00 L 613.60 547.90 L 614.80 543.80 L 614.80 541.90 L 614.30 540.20 L 613.30 538.80 L 611.70 537.50 L 609.20 536.50 L 606.50 536.00 L 602.80 536.00 L 597.80 536.40 Z M 492.00 607.10 L 492.20 611.00 L 493.70 613.80 L 495.30 615.20 L 497.30 616.40 L 502.30 617.70 L 508.00 617.70 L 512.30 617.10 L 516.20 615.90 L 518.70 614.70 L 522.30 612.00 L 522.00 608.00 L 520.50 605.10 L 518.90 603.50 L 516.80 602.30 L 511.70 600.90 L 506.10 600.80 L 500.40 601.90 L 495.40 604.10 L 493.50 605.50 L 492.00 607.10 Z M 411.50 615.20 L 409.60 619.20 L 409.40 622.80 L 410.10 625.10 L 411.30 627.20 L 413.00 629.20 L 415.00 630.80 L 420.00 633.30 L 422.70 634.00 L 425.40 634.20 L 428.10 634.10 L 430.70 633.40 L 433.10 632.30 L 435.20 630.60 L 436.70 628.20 L 437.50 626.00 L 437.70 623.90 L 437.50 621.80 L 436.80 619.80 L 435.80 617.90 L 432.70 614.70 L 430.70 613.40 L 426.40 611.50 L 424.10 611.00 L 419.40 610.80 L 417.20 611.30 L 415.10 612.20 L 413.20 613.40 L 411.50 615.20 Z" fill="#00949c" fill-rule="nonzero" node-id="52" stroke="none" target-height="751" target-width="789.39996" target-x="118.7" target-y="136.2"></path><path d="M 331.90 341.60 L 337.50 339.30 L 343.20 337.40 L 349.10 336.00 L 355.20 335.10 L 361.40 334.60 L 367.50 334.50 L 373.80 334.80 L 380.10 335.60 L 386.40 336.70 L 398.50 340.20 L 404.40 342.50 L 410.20 345.20 L 415.60 348.20 L 420.90 351.60 L 425.80 355.30 L 430.50 359.30 L 434.70 363.70 L 438.60 368.40 L 442.10 373.40 L 445.00 378.70 L 447.50 384.20 L 449.40 390.10 L 450.90 396.30 L 450.80 401.60 L 450.30 406.60 L 449.50 411.20 L 448.30 415.60 L 446.70 419.70 L 444.20 424.70 L 441.30 429.40 L 437.90 433.60 L 434.10 437.50 L 429.90 441.10 L 425.50 444.30 L 420.60 447.10 L 415.50 449.60 L 404.70 453.40 L 399.10 454.80 L 387.30 456.40 L 375.60 456.50 L 369.70 455.90 L 363.80 455.00 L 358.10 453.70 L 352.60 452.00 L 347.20 449.90 L 342.00 447.50 L 337.10 444.60 L 332.60 441.30 L 324.60 434.60 L 321.20 431.20 L 318.20 427.60 L 315.40 423.80 L 312.30 418.40 L 309.80 412.70 L 307.80 406.70 L 306.40 400.60 L 305.70 394.50 L 305.50 388.20 L 306.00 382.00 L 307.00 376.00 L 308.70 370.00 L 310.30 365.70 L 314.70 357.60 L 317.40 353.90 L 320.50 350.40 L 323.90 347.20 L 327.70 344.20 L 331.90 341.60 Z M 381.30 369.80 L 378.80 373.00 L 376.50 376.50 L 374.60 380.60 L 373.10 384.80 L 372.00 389.20 L 371.40 393.70 L 371.20 398.20 L 371.50 402.60 L 372.30 406.80 L 373.30 409.80 L 376.20 415.20 L 378.20 417.50 L 380.40 419.60 L 383.10 421.30 L 386.20 422.60 L 389.80 423.70 L 393.40 424.60 L 396.80 425.00 L 400.00 425.00 L 403.00 424.50 L 408.70 422.50 L 413.70 419.10 L 416.70 416.30 L 419.30 413.00 L 421.60 409.30 L 423.50 405.40 L 425.00 401.30 L 426.10 396.90 L 426.90 392.50 L 427.10 388.10 L 427.00 383.70 L 426.40 379.40 L 425.30 375.40 L 423.80 371.60 L 419.50 366.70 L 414.50 363.20 L 410.80 361.60 L 407.00 360.60 L 403.00 360.20 L 399.00 360.30 L 395.10 361.10 L 391.20 362.40 L 385.90 365.40 L 381.30 369.80 Z" fill="#f9ede4" fill-rule="nonzero" node-id="54" stroke="none" target-height="122" target-width="145.4" target-x="305.5" target-y="334.5"></path><path d="M 580.00 341.90 L 589.40 339.00 L 599.70 336.60 L 613.60 334.40 L 620.60 333.90 L 627.70 333.80 L 634.50 334.40 L 641.20 335.40 L 646.20 336.70 L 650.90 338.30 L 655.40 340.40 L 659.70 342.90 L 663.80 345.80 L 667.50 349.20 L 671.10 353.20 L 677.30 362.30 L 679.80 366.80 L 681.70 371.40 L 683.10 376.10 L 684.10 380.90 L 684.70 385.80 L 684.80 390.70 L 683.80 400.50 L 681.30 410.10 L 679.50 414.80 L 676.60 420.80 L 673.20 426.60 L 669.20 432.00 L 662.30 439.40 L 654.50 445.60 L 650.20 448.20 L 645.80 450.50 L 641.10 452.40 L 629.60 455.90 L 622.70 457.40 L 615.50 458.40 L 608.20 458.80 L 600.90 458.60 L 593.50 457.90 L 586.20 456.70 L 579.10 454.90 L 572.30 452.50 L 567.20 450.40 L 562.50 447.90 L 553.70 442.10 L 549.70 438.70 L 546.00 435.00 L 542.70 431.00 L 539.70 426.60 L 537.10 422.00 L 535.00 417.00 L 533.30 411.70 L 532.10 405.90 L 531.60 401.30 L 531.50 396.80 L 531.90 392.50 L 532.70 388.30 L 534.30 382.90 L 536.40 377.70 L 539.20 372.70 L 542.50 368.10 L 546.20 363.70 L 550.30 359.50 L 554.70 355.80 L 559.40 352.30 L 564.40 349.10 L 569.50 346.30 L 580.00 341.90 Z M 580.60 361.50 L 576.80 363.30 L 573.60 365.40 L 570.90 367.80 L 568.50 370.40 L 566.50 373.40 L 564.90 376.40 L 563.70 379.70 L 562.80 383.20 L 562.10 387.90 L 562.10 392.60 L 562.60 397.40 L 563.70 402.20 L 565.30 406.70 L 567.30 410.90 L 569.90 414.90 L 572.90 418.40 L 576.30 421.40 L 579.10 423.30 L 582.10 424.80 L 585.30 425.90 L 588.70 426.60 L 592.20 426.80 L 595.90 426.40 L 599.80 425.60 L 604.10 424.10 L 607.80 422.30 L 611.00 420.30 L 613.70 418.10 L 615.90 415.60 L 617.80 412.70 L 619.30 409.80 L 620.40 406.70 L 621.10 403.30 L 621.60 398.80 L 621.40 394.20 L 620.70 389.60 L 619.40 385.00 L 617.70 380.60 L 615.50 376.30 L 612.80 372.40 L 609.80 368.90 L 606.50 365.80 L 603.70 363.80 L 597.70 361.00 L 594.50 360.20 L 591.20 359.70 L 587.90 359.80 L 584.30 360.40 L 580.60 361.50 Z" fill="#faf1ee" fill-rule="nonzero" node-id="56" stroke="none" target-height="125" target-width="153.29999" target-x="531.5" target-y="333.8"></path><path d="M 580.60 361.50 L 584.30 360.40 L 587.90 359.80 L 591.20 359.70 L 594.50 360.20 L 600.80 362.30 L 606.50 365.80 L 609.80 368.90 L 612.80 372.40 L 615.50 376.30 L 617.70 380.60 L 619.40 385.00 L 620.70 389.60 L 621.40 394.20 L 621.60 398.80 L 621.10 403.30 L 620.40 406.70 L 619.30 409.80 L 617.80 412.70 L 615.90 415.60 L 613.70 418.10 L 611.00 420.30 L 607.80 422.30 L 604.10 424.10 L 599.80 425.60 L 595.90 426.40 L 592.20 426.80 L 588.70 426.60 L 585.30 425.90 L 582.10 424.80 L 579.10 423.30 L 576.30 421.40 L 572.90 418.40 L 569.90 414.90 L 567.30 410.90 L 565.20 406.70 L 563.70 402.20 L 562.60 397.40 L 562.10 392.60 L 562.10 387.90 L 562.80 383.20 L 563.70 379.70 L 564.90 376.40 L 566.50 373.40 L 568.50 370.40 L 570.90 367.80 L 573.60 365.40 L 576.80 363.30 L 580.60 361.50 Z" fill="#354658" fill-rule="nonzero" node-id="58" stroke="none" target-height="67.099976" target-width="59.5" target-x="562.1" target-y="359.7"></path><path d="M 381.30 369.80 L 385.90 365.40 L 391.20 362.40 L 395.10 361.10 L 399.00 360.30 L 403.00 360.20 L 407.00 360.60 L 410.80 361.60 L 414.50 363.20 L 419.50 366.70 L 423.80 371.60 L 425.30 375.40 L 426.40 379.40 L 427.00 383.70 L 427.10 388.10 L 426.90 392.50 L 426.10 396.90 L 425.00 401.30 L 423.50 405.40 L 421.60 409.30 L 419.30 413.00 L 416.70 416.30 L 413.70 419.10 L 408.70 422.50 L 403.00 424.50 L 400.00 425.00 L 396.80 425.00 L 393.40 424.60 L 389.80 423.70 L 386.20 422.60 L 383.10 421.30 L 380.40 419.60 L 378.20 417.50 L 376.20 415.20 L 373.30 409.80 L 372.30 406.80 L 371.50 402.60 L 371.20 398.20 L 371.40 393.70 L 372.00 389.20 L 373.10 384.80 L 374.60 380.60 L 376.50 376.50 L 378.80 373.00 L 381.30 369.80 Z" fill="#29476b" fill-rule="nonzero" node-id="60" stroke="none" target-height="64.79999" target-width="55.899994" target-x="371.2" target-y="360.2"></path><path d="M 480.40 439.90 L 483.70 438.10 L 486.60 436.90 L 489.10 436.30 L 491.20 436.20 L 493.50 436.50 L 495.50 437.10 L 497.30 438.20 L 498.90 439.60 L 500.70 441.80 L 502.10 444.50 L 503.30 447.70 L 504.50 454.60 L 504.30 461.90 L 503.70 465.30 L 502.80 468.60 L 501.40 471.70 L 499.80 474.20 L 497.80 476.40 L 496.10 477.60 L 494.30 478.50 L 492.20 479.00 L 489.80 479.20 L 487.60 478.90 L 485.10 478.10 L 482.20 476.70 L 478.80 474.60 L 473.40 472.30 L 471.40 471.00 L 469.80 469.50 L 468.10 467.10 L 466.90 464.60 L 466.30 461.90 L 466.20 459.10 L 466.60 456.30 L 467.40 453.40 L 468.70 450.60 L 470.40 448.00 L 472.40 445.50 L 474.80 443.30 L 477.40 441.50 L 480.40 439.90 Z" fill="#246274" fill-rule="nonzero" node-id="62" stroke="none" target-height="43" target-width="38.299988" target-x="466.2" target-y="436.2"></path><path d="M 441.80 513.30 L 451.10 510.30 L 460.50 507.70 L 469.90 505.50 L 484.30 502.90 L 498.80 500.90 L 513.40 499.20 L 557.20 495.10 L 559.40 498.40 L 560.90 501.50 L 561.90 504.40 L 562.40 507.30 L 562.50 510.30 L 562.20 513.10 L 561.50 515.90 L 560.40 518.60 L 558.40 522.10 L 556.00 525.40 L 553.00 528.60 L 549.60 531.50 L 546.00 534.20 L 538.00 539.00 L 533.90 540.90 L 525.50 543.90 L 517.80 545.60 L 513.20 547.10 L 508.60 548.20 L 504.20 548.80 L 499.80 549.00 L 494.00 548.70 L 488.20 547.80 L 482.70 546.30 L 477.20 544.20 L 472.00 541.60 L 466.90 538.50 L 462.10 535.10 L 457.50 531.30 L 449.00 522.70 L 441.80 513.30 Z M 481.10 525.40 L 481.20 528.00 L 482.50 532.00 L 483.60 533.60 L 485.60 535.50 L 487.90 536.90 L 490.60 538.00 L 496.80 539.10 L 500.20 539.20 L 505.30 538.80 L 510.20 537.80 L 516.40 535.60 L 521.30 532.60 L 523.10 531.00 L 524.30 529.30 L 525.10 526.50 L 525.00 525.00 L 523.60 522.10 L 522.20 520.60 L 517.30 517.30 L 513.70 514.20 L 511.40 512.90 L 507.50 511.50 L 503.30 510.70 L 498.90 510.40 L 494.70 510.70 L 491.90 511.20 L 487.00 513.10 L 485.00 514.40 L 483.30 516.10 L 482.00 517.90 L 481.20 520.10 L 480.90 522.50 L 481.10 525.40 Z" fill="#305069" fill-rule="nonzero" node-id="64" stroke="none" target-height="53.899994" target-width="120.70001" target-x="441.8" target-y="495.1"></path><path d="M 481.10 525.40 L 480.90 522.50 L 481.20 520.10 L 482.00 517.90 L 483.30 516.10 L 485.00 514.40 L 487.00 513.10 L 491.90 511.20 L 494.70 510.70 L 498.90 510.40 L 503.30 510.70 L 507.50 511.50 L 511.40 512.90 L 513.70 514.20 L 517.30 517.30 L 513.90 519.80 L 510.20 521.80 L 506.30 523.30 L 502.20 524.40 L 493.70 525.60 L 487.30 525.70 L 481.10 525.40 Z" fill="#a75f83" fill-rule="nonzero" node-id="66" stroke="none" target-height="15.300018" target-width="36.399994" target-x="480.9" target-y="510.4"></path><path d="M 517.30 517.30 L 520.10 519.00 L 523.60 522.10 L 525.00 525.00 L 524.90 527.90 L 523.10 531.00 L 521.30 532.70 L 518.90 534.30 L 513.50 536.80 L 510.20 537.80 L 505.30 538.80 L 500.20 539.20 L 496.80 539.10 L 490.60 538.00 L 487.90 536.90 L 485.60 535.50 L 483.60 533.60 L 482.50 532.00 L 481.20 528.00 L 481.10 525.40 L 487.30 525.70 L 493.70 525.60 L 502.20 524.40 L 506.30 523.30 L 510.20 521.80 L 513.90 519.80 L 517.30 517.30 Z" fill="#723963" fill-rule="nonzero" node-id="68" stroke="none" target-height="21.900024" target-width="43.899994" target-x="481.1" target-y="517.3"></path><path d="M 766.00 513.10 L 771.10 515.30 L 775.60 517.80 L 779.60 520.60 L 783.30 523.90 L 786.50 527.50 L 789.40 531.40 L 794.10 540.00 L 796.10 544.70 L 798.50 552.00 L 800.50 559.60 L 823.30 557.00 L 827.10 592.40 L 829.50 610.20 L 832.30 627.90 L 834.90 621.70 L 837.00 615.50 L 838.60 609.10 L 840.50 599.40 L 841.70 589.60 L 844.30 559.90 L 845.50 550.10 L 848.80 553.80 L 851.30 557.70 L 853.30 561.70 L 854.80 565.90 L 856.60 574.80 L 858.50 602.70 L 860.10 611.80 L 861.40 616.10 L 863.20 620.20 L 865.50 624.20 L 868.50 628.10 L 869.60 609.90 L 870.30 591.70 L 870.80 555.40 L 908.10 536.00 L 918.40 527.30 L 920.60 536.40 L 924.20 554.80 L 925.50 564.10 L 926.20 573.50 L 926.50 582.80 L 925.90 596.80 L 923.80 610.90 L 915.20 617.60 L 905.80 624.10 L 892.60 632.10 L 878.60 639.20 L 871.40 642.10 L 864.20 644.70 L 856.80 646.80 L 849.40 648.30 L 842.00 649.40 L 836.40 649.80 L 825.30 649.40 L 819.80 648.70 L 814.40 647.50 L 809.10 645.90 L 803.80 643.80 L 798.50 641.30 L 797.40 634.60 L 797.00 627.70 L 796.90 599.50 L 796.60 595.00 L 795.00 586.30 L 793.60 582.20 L 791.80 578.20 L 789.50 574.50 L 785.10 569.40 L 778.90 564.80 L 780.60 543.40 L 769.80 537.00 L 766.00 513.10 Z" fill="#1a4d6a" fill-rule="nonzero" node-id="70" stroke="none" target-height="136.70001" target-width="160.5" target-x="766" target-y="513.1"></path><path d="M 597.80 536.40 L 602.80 536.00 L 606.50 536.00 L 609.20 536.50 L 611.70 537.50 L 613.30 538.80 L 614.30 540.20 L 614.80 542.00 L 614.80 543.80 L 614.40 545.90 L 612.40 550.00 L 609.10 553.80 L 605.00 556.80 L 602.80 557.90 L 598.20 558.80 L 596.00 558.50 L 593.80 557.70 L 591.70 556.20 L 589.10 553.00 L 586.80 547.50 L 597.80 536.40 Z" fill="#10757f" fill-rule="nonzero" node-id="72" stroke="none" target-height="22.799988" target-width="28" target-x="586.8" target-y="536"></path><path d="M 691.10 628.80 L 696.50 613.10 L 699.90 605.40 L 703.60 597.80 L 707.80 590.60 L 712.40 583.70 L 720.30 574.00 L 724.60 569.70 L 729.30 565.60 L 734.20 561.80 L 739.40 558.50 L 745.00 555.50 L 751.00 552.90 L 737.50 579.30 L 732.60 587.90 L 725.40 598.90 L 717.20 609.10 L 712.70 613.70 L 707.90 618.10 L 702.70 622.10 L 697.10 625.60 L 691.10 628.80 Z" fill="#70c5c8" fill-rule="nonzero" node-id="74" stroke="none" target-height="75.89996" target-width="59.900024" target-x="691.1" target-y="552.9"></path><path d="M 492.00 607.10 L 493.50 605.50 L 495.40 604.10 L 500.40 601.90 L 506.10 600.80 L 511.70 600.90 L 516.80 602.30 L 518.90 603.50 L 520.50 605.10 L 522.00 608.00 L 522.30 612.00 L 518.70 614.70 L 516.20 615.90 L 512.30 617.10 L 508.00 617.70 L 502.30 617.70 L 497.30 616.40 L 495.30 615.20 L 493.70 613.80 L 492.20 611.00 L 492.00 607.10 Z" fill="#166676" fill-rule="nonzero" node-id="76" stroke="none" target-height="16.900024" target-width="30.299988" target-x="492" target-y="600.8"></path><path d="M 411.50 615.20 L 413.20 613.40 L 415.10 612.20 L 417.20 611.30 L 419.40 610.80 L 424.10 611.00 L 426.40 611.50 L 430.70 613.40 L 434.40 616.20 L 436.80 619.80 L 437.50 621.80 L 437.70 623.90 L 437.50 626.00 L 436.70 628.20 L 435.20 630.60 L 433.10 632.30 L 430.70 633.40 L 428.10 634.10 L 425.40 634.20 L 422.70 634.00 L 417.40 632.20 L 413.00 629.20 L 411.30 627.20 L 410.10 625.10 L 409.40 622.80 L 409.30 621.10 L 410.30 617.30 L 411.50 615.20 Z" fill="#12747e" fill-rule="nonzero" node-id="78" stroke="none" target-height="23.400024" target-width="28.400024" target-x="409.3" target-y="610.8"></path><path d="M 669.00 634.60 L 667.10 632.20 L 664.90 628.10 L 664.40 626.30 L 664.40 623.90 L 664.90 621.80 L 665.90 619.90 L 667.30 618.30 L 669.10 616.90 L 671.20 615.80 L 675.80 614.60 L 680.50 614.80 L 682.60 615.40 L 684.50 616.40 L 686.10 617.80 L 687.20 619.60 L 688.00 621.90 L 688.20 623.70 L 687.50 628.50 L 686.50 631.60 L 669.00 634.60 Z" fill="#58c8ce" fill-rule="nonzero" node-id="80" stroke="none" target-height="20" target-width="23.799988" target-x="664.4" target-y="614.6"></path><path d="M 358.60 679.70 L 363.70 675.90 L 368.80 672.60 L 374.00 669.90 L 379.40 667.60 L 384.90 665.80 L 396.30 663.10 L 402.20 662.30 L 410.10 661.70 L 418.10 661.40 L 438.60 662.30 L 483.60 666.40 L 499.10 666.70 L 518.50 668.10 L 543.30 668.00 L 588.50 666.60 L 598.50 666.60 L 618.10 667.80 L 627.80 669.10 L 637.30 671.00 L 646.60 673.40 L 653.50 675.70 L 660.20 678.50 L 666.80 681.80 L 673.40 685.60 L 678.40 692.40 L 682.90 699.30 L 686.90 706.30 L 690.40 713.40 L 693.40 720.70 L 698.40 735.70 L 700.40 743.30 L 702.50 753.70 L 704.10 764.20 L 705.20 774.80 L 706.20 790.90 L 706.60 807.30 L 706.40 872.70 L 706.70 883.40 L 708.30 904.40 L 712.30 887.20 L 725.90 885.20 L 727.10 894.50 L 728.80 903.80 L 733.10 922.50 L 724.30 922.60 L 715.10 923.10 L 686.90 925.60 L 677.60 925.90 L 671.50 925.80 L 659.70 924.50 L 653.90 923.10 L 648.50 921.20 L 643.10 918.70 L 639.40 916.40 L 635.80 913.70 L 632.20 910.40 L 628.80 906.70 L 614.80 909.70 L 586.80 914.60 L 572.70 916.40 L 558.60 917.90 L 544.50 918.90 L 530.30 919.50 L 516.20 919.70 L 502.00 919.40 L 487.90 918.60 L 473.90 917.40 L 459.80 915.60 L 445.90 913.40 L 432.00 910.60 L 418.10 907.20 L 404.30 903.30 L 394.80 915.30 L 384.80 927.10 L 370.30 928.30 L 355.70 928.80 L 341.20 928.80 L 326.60 928.20 L 297.60 926.10 L 254.20 921.60 L 283.50 894.00 L 280.60 881.10 L 278.40 868.30 L 276.70 855.40 L 275.60 842.40 L 275.20 829.40 L 275.30 816.40 L 276.00 803.50 L 277.20 790.50 L 279.10 777.70 L 281.40 764.90 L 284.40 752.20 L 287.80 739.70 L 291.80 727.30 L 296.30 715.10 L 301.40 703.00 L 306.90 691.20 L 313.80 709.50 L 311.30 716.70 L 302.60 738.80 L 301.00 743.90 L 298.60 753.80 L 298.00 758.80 L 298.00 763.80 L 298.60 768.80 L 299.40 772.40 L 300.70 776.10 L 302.50 779.80 L 304.80 783.60 L 304.20 792.90 L 289.30 778.30 L 288.00 793.10 L 287.20 807.80 L 286.90 822.50 L 287.00 837.30 L 287.60 852.00 L 288.60 866.70 L 290.10 881.40 L 292.10 896.10 L 302.70 868.20 L 307.00 854.40 L 310.70 836.70 L 316.90 793.70 L 319.00 783.10 L 322.70 769.10 L 333.10 741.40 L 358.60 679.70 Z M 578.30 794.40 L 584.90 791.60 L 586.90 791.20 L 589.00 791.20 L 590.30 791.60 L 591.20 792.20 L 592.00 794.40 L 591.30 798.20 L 590.20 800.50 L 588.70 802.70 L 585.70 805.20 L 583.30 805.80 L 582.20 805.50 L 581.20 804.60 L 580.10 803.00 L 578.70 798.40 L 578.30 794.40 Z M 339.90 873.30 L 339.10 916.20 L 342.80 915.10 L 346.10 913.70 L 349.00 912.10 L 351.60 910.20 L 354.60 907.20 L 357.30 903.80 L 359.50 900.00 L 363.00 891.90 L 367.70 874.40 L 339.90 873.30 Z M 659.40 883.40 L 658.40 887.90 L 658.10 891.30 L 658.30 893.90 L 659.00 895.80 L 660.10 897.30 L 661.50 898.30 L 663.50 899.00 L 666.10 899.30 L 669.60 899.00 L 674.20 897.90 L 675.20 893.30 L 675.50 889.70 L 675.20 887.10 L 674.50 885.10 L 673.40 883.60 L 671.90 882.60 L 670.00 882.00 L 667.40 881.80 L 663.90 882.20 L 659.40 883.40 Z" fill="#5798aa" fill-rule="nonzero" node-id="82" stroke="none" target-height="267.39996" target-width="478.89996" target-x="254.2" target-y="661.4"></path><path d="M 289.30 778.30 L 304.20 792.90 L 302.90 811.60 L 302.20 830.40 L 302.20 849.30 L 302.70 868.20 L 292.10 896.10 L 290.10 881.40 L 288.60 866.70 L 287.60 852.00 L 287.00 837.30 L 286.90 822.50 L 287.20 807.80 L 288.00 793.10 L 289.30 778.30 Z" fill="#184959" fill-rule="nonzero" node-id="84" stroke="none" target-height="117.79999" target-width="17.300018" target-x="286.9" target-y="778.3"></path><path d="M 578.30 794.40 L 584.90 791.60 L 586.90 791.20 L 589.00 791.20 L 590.30 791.60 L 591.20 792.20 L 592.00 794.40 L 591.30 798.20 L 590.20 800.50 L 588.70 802.70 L 585.70 805.20 L 583.30 805.80 L 582.20 805.50 L 581.20 804.60 L 580.10 803.00 L 578.70 798.40 L 578.30 794.40 Z" fill="#306077" fill-rule="nonzero" node-id="86" stroke="none" target-height="14.599976" target-width="13.700012" target-x="578.3" target-y="791.2"></path><path d="M 339.90 873.30 L 367.70 874.40 L 363.00 891.90 L 359.50 900.00 L 357.30 903.80 L 354.60 907.20 L 351.60 910.20 L 349.00 912.10 L 346.10 913.70 L 342.80 915.10 L 339.10 916.20 L 339.90 873.30 Z" fill="#487b8e" fill-rule="nonzero" node-id="88" stroke="none" target-height="42.900024" target-width="28.600006" target-x="339.1" target-y="873.3"></path><path d="M 659.40 883.40 L 663.90 882.20 L 667.40 881.80 L 670.00 882.00 L 671.90 882.60 L 673.40 883.60 L 674.50 885.10 L 675.20 887.10 L 675.50 889.70 L 675.20 893.30 L 674.20 897.90 L 669.60 899.00 L 666.10 899.30 L 663.50 899.00 L 661.50 898.30 L 660.10 897.30 L 659.00 895.80 L 658.30 893.90 L 658.10 891.30 L 658.40 887.90 L 659.40 883.40 Z" fill="#335d75" fill-rule="nonzero" node-id="90" stroke="none" target-height="17.5" target-width="17.400024" target-x="658.1" target-y="881.8"></path></svg>