<?xml version="1.0" standalone="no"?><!DOCTYPE svg PUBLIC "-//W3C//DTD SVG 1.1//EN" "http://www.w3.org/Graphics/SVG/1.1/DTD/svg11.dtd"><svg height="1024" node-id="1" sillyvg="true" template-height="1024" template-width="1024" version="1.1" viewBox="0 0 1024 1024" width="1024" xmlns="http://www.w3.org/2000/svg" xmlns:xlink="http://www.w3.org/1999/xlink"><defs node-id="30"></defs><path d="M 0.00 0.00 L 1024.00 0.00 L 1024.00 1024.00 L 0.00 1024.00 Z" fill="#ffffff" fill-rule="nonzero" node-id="32" stroke="none" target-height="1024" target-width="1024" target-x="0" target-y="0"></path><path d="M 356.40 373.80 L 363.10 372.00 L 369.80 370.90 L 376.40 370.30 L 383.00 370.20 L 389.50 370.60 L 396.00 371.60 L 402.40 373.00 L 408.70 374.80 L 414.80 377.10 L 420.80 379.80 L 426.50 382.90 L 432.10 386.40 L 437.50 390.30 L 442.60 394.50 L 447.40 399.00 L 451.90 403.80 L 456.10 408.90 L 459.90 414.20 L 463.40 419.70 L 466.50 425.50 L 469.20 431.50 L 471.50 437.60 L 473.20 443.90 L 474.60 450.40 L 475.40 457.00 L 475.70 463.60 L 475.40 470.40 L 473.80 484.80 L 472.40 492.00 L 470.50 498.90 L 468.00 505.60 L 464.90 512.10 L 461.40 518.30 L 457.50 524.30 L 453.10 529.90 L 448.30 535.20 L 443.20 540.10 L 437.70 544.70 L 431.90 549.00 L 425.80 552.80 L 419.50 556.30 L 413.00 559.30 L 406.40 561.80 L 399.50 563.90 L 392.60 565.60 L 385.60 566.70 L 378.50 567.30 L 371.40 567.40 L 364.30 567.00 L 357.30 566.00 L 350.30 564.40 L 344.80 562.70 L 339.50 560.70 L 334.20 558.20 L 329.00 555.30 L 317.60 547.60 L 312.00 543.00 L 307.00 538.10 L 302.50 532.80 L 298.50 527.10 L 295.00 521.20 L 292.00 515.00 L 289.50 508.60 L 287.40 502.10 L 285.90 495.40 L 284.80 488.60 L 284.10 481.60 L 284.00 474.60 L 284.20 467.60 L 284.90 460.70 L 286.10 453.70 L 287.60 446.80 L 289.60 440.00 L 291.90 433.40 L 294.70 426.90 L 297.90 420.60 L 301.50 414.50 L 305.40 408.80 L 309.70 403.30 L 314.30 398.10 L 319.30 393.30 L 324.70 388.90 L 330.40 384.90 L 336.40 381.40 L 342.70 378.30 L 349.40 375.80 L 356.40 373.80 Z M 321.90 488.70 L 323.20 493.20 L 325.00 497.50 L 327.00 501.60 L 332.30 509.00 L 338.60 515.30 L 342.20 518.10 L 347.20 521.40 L 352.60 524.20 L 358.20 526.40 L 364.00 528.00 L 369.90 529.00 L 375.90 529.40 L 380.40 529.30 L 389.30 528.00 L 393.70 526.70 L 397.90 525.10 L 402.00 523.10 L 405.90 520.60 L 413.30 514.80 L 416.60 511.70 L 419.40 508.40 L 421.90 504.90 L 424.80 499.80 L 427.10 494.50 L 428.80 489.00 L 430.00 483.30 L 430.50 477.50 L 430.60 471.60 L 430.00 465.80 L 429.00 460.10 L 427.30 454.60 L 425.20 449.20 L 422.50 444.20 L 419.30 439.60 L 416.60 436.30 L 413.60 433.40 L 410.30 430.70 L 406.70 428.30 L 402.90 426.20 L 398.80 424.60 L 394.30 423.30 L 389.50 422.40 L 385.10 430.40 L 380.30 438.20 L 375.10 445.80 L 369.50 453.20 L 347.90 428.10 L 339.10 435.70 L 335.00 440.00 L 331.20 444.60 L 327.90 449.50 L 325.10 454.50 L 323.20 458.50 L 320.70 466.70 L 320.00 471.00 L 319.80 475.30 L 320.00 479.60 L 320.70 484.10 L 321.90 488.70 Z" fill="#fefefd" fill-rule="nonzero" node-id="34" stroke="none" target-height="197.20001" target-width="191.70001" target-x="284" target-y="370.2"></path><path d="M 596.90 379.90 L 602.50 377.60 L 608.10 375.70 L 613.80 374.30 L 619.60 373.20 L 631.40 372.30 L 637.30 372.40 L 649.10 373.90 L 660.50 376.70 L 666.20 378.70 L 671.60 381.00 L 682.00 386.60 L 691.70 393.40 L 696.10 397.30 L 704.20 405.80 L 707.80 410.50 L 711.00 415.50 L 713.80 420.70 L 716.30 426.20 L 720.50 437.30 L 722.20 443.10 L 723.40 449.00 L 724.60 457.00 L 725.20 465.00 L 725.10 473.10 L 724.50 481.20 L 723.20 489.10 L 721.40 497.00 L 719.60 502.80 L 717.50 508.40 L 712.30 519.10 L 709.20 524.20 L 705.70 529.10 L 702.00 533.70 L 697.90 538.00 L 693.50 542.10 L 688.70 545.80 L 683.70 549.10 L 672.50 555.00 L 666.70 557.30 L 660.80 559.20 L 654.80 560.50 L 648.70 561.50 L 642.60 562.00 L 636.50 562.10 L 630.30 561.70 L 618.20 559.90 L 612.20 558.40 L 600.50 554.30 L 589.40 548.90 L 584.10 545.70 L 579.00 542.20 L 569.50 534.30 L 561.10 525.30 L 557.50 520.40 L 554.10 515.30 L 551.10 509.90 L 548.50 504.30 L 546.30 498.60 L 544.60 492.60 L 543.30 486.40 L 542.20 479.90 L 541.50 473.50 L 541.30 467.10 L 541.60 460.60 L 542.20 454.20 L 543.30 447.90 L 544.80 441.70 L 546.70 435.50 L 549.00 429.50 L 551.70 423.60 L 554.70 418.00 L 558.10 412.50 L 561.80 407.30 L 565.90 402.40 L 570.30 397.80 L 575.00 393.50 L 580.10 389.50 L 585.40 385.90 L 591.00 382.80 L 596.90 379.90 Z M 599.10 430.40 L 594.20 434.40 L 589.60 438.80 L 585.50 443.70 L 581.80 449.00 L 578.70 454.50 L 576.20 460.30 L 574.70 464.90 L 573.60 469.40 L 573.00 474.10 L 572.80 478.80 L 573.00 483.40 L 573.80 488.10 L 575.10 492.80 L 576.90 497.50 L 579.10 502.30 L 581.70 506.60 L 584.60 510.50 L 587.90 514.00 L 591.60 517.20 L 595.50 520.10 L 599.60 522.60 L 604.00 524.70 L 613.30 527.80 L 618.10 528.80 L 627.90 529.60 L 637.70 528.90 L 642.50 528.00 L 647.30 526.70 L 651.80 525.00 L 656.20 522.90 L 660.40 520.40 L 664.30 517.50 L 667.90 514.20 L 671.30 510.50 L 676.80 502.70 L 680.60 495.20 L 682.00 491.30 L 683.30 485.90 L 684.10 480.50 L 684.30 475.00 L 683.90 469.50 L 683.00 464.20 L 681.60 458.90 L 679.70 453.70 L 677.20 448.90 L 674.30 444.20 L 671.00 440.00 L 667.20 436.10 L 662.90 432.60 L 655.70 428.40 L 647.60 425.40 L 627.40 454.10 L 623.90 451.10 L 611.00 436.70 L 607.50 433.80 L 604.90 432.20 L 602.10 431.10 L 599.10 430.40 Z" fill="#fefefd" fill-rule="nonzero" node-id="36" stroke="none" target-height="189.79999" target-width="183.90002" target-x="541.3" target-y="372.3"></path><path d="M 349.00 365.60 L 356.10 363.60 L 363.30 362.30 L 370.50 361.40 L 377.70 361.20 L 385.00 361.40 L 392.20 362.20 L 399.40 363.40 L 406.50 365.20 L 413.50 367.40 L 420.30 370.00 L 426.90 373.10 L 433.30 376.60 L 439.50 380.50 L 445.40 384.80 L 451.00 389.40 L 456.30 394.50 L 461.20 399.80 L 465.80 405.50 L 469.90 411.40 L 473.50 417.70 L 476.70 424.20 L 479.40 431.00 L 481.50 438.00 L 484.50 452.80 L 485.30 460.40 L 485.70 468.00 L 485.40 475.60 L 484.70 483.20 L 483.50 490.70 L 481.80 498.10 L 479.50 505.50 L 476.90 512.60 L 473.70 519.60 L 470.20 526.30 L 466.10 532.80 L 461.70 538.90 L 456.90 544.80 L 451.70 550.20 L 446.00 555.30 L 440.00 560.00 L 433.70 564.20 L 427.00 567.80 L 413.10 573.80 L 406.10 576.00 L 398.90 577.70 L 391.60 579.00 L 384.20 579.80 L 376.80 580.10 L 369.50 579.90 L 362.00 579.20 L 354.70 578.10 L 347.50 576.50 L 340.40 574.40 L 333.50 571.90 L 326.80 568.90 L 320.30 565.40 L 314.10 561.50 L 308.20 557.20 L 302.70 552.40 L 297.60 547.10 L 292.80 541.40 L 288.50 535.30 L 284.50 528.90 L 281.10 522.30 L 278.30 515.50 L 275.90 508.50 L 274.10 501.40 L 272.70 494.20 L 271.80 486.90 L 271.40 479.50 L 271.40 472.10 L 271.90 464.80 L 272.90 457.40 L 274.30 450.10 L 276.10 442.80 L 278.40 435.80 L 281.00 428.90 L 284.10 422.10 L 287.60 415.50 L 291.40 409.20 L 295.60 403.20 L 300.20 397.40 L 305.10 392.00 L 310.40 386.90 L 316.00 382.20 L 322.00 378.00 L 328.30 374.10 L 334.80 370.80 L 341.70 368.00 L 349.00 365.60 Z M 356.40 373.80 L 349.40 375.80 L 342.70 378.30 L 336.40 381.40 L 330.40 384.90 L 324.70 388.90 L 319.30 393.30 L 314.30 398.10 L 309.70 403.30 L 305.40 408.80 L 301.50 414.50 L 297.90 420.60 L 294.70 426.90 L 291.90 433.40 L 289.60 440.00 L 287.60 446.80 L 286.10 453.70 L 284.90 460.70 L 284.20 467.60 L 284.00 474.60 L 284.10 481.60 L 284.80 488.60 L 285.90 495.40 L 287.40 502.10 L 289.50 508.60 L 292.00 515.00 L 295.00 521.20 L 298.50 527.10 L 302.50 532.80 L 307.00 538.10 L 312.00 543.00 L 317.60 547.60 L 329.00 555.30 L 334.20 558.20 L 339.50 560.70 L 344.80 562.70 L 350.30 564.40 L 357.30 566.00 L 364.30 567.00 L 371.40 567.40 L 378.50 567.30 L 385.60 566.70 L 392.60 565.60 L 399.50 563.90 L 406.30 561.80 L 413.00 559.30 L 419.50 556.30 L 425.80 552.80 L 431.90 549.00 L 437.70 544.70 L 443.10 540.10 L 448.30 535.20 L 453.10 529.90 L 457.50 524.30 L 461.40 518.30 L 464.90 512.10 L 468.00 505.60 L 470.50 498.90 L 472.40 492.00 L 473.80 484.80 L 475.40 470.40 L 475.70 463.60 L 475.40 457.00 L 474.60 450.40 L 473.20 443.90 L 471.50 437.60 L 469.20 431.50 L 466.50 425.50 L 463.40 419.70 L 459.90 414.20 L 456.10 408.80 L 451.90 403.80 L 447.40 399.00 L 442.60 394.50 L 437.50 390.30 L 432.10 386.40 L 426.50 382.90 L 420.80 379.80 L 414.80 377.10 L 408.70 374.80 L 402.40 373.00 L 396.00 371.60 L 389.50 370.60 L 383.00 370.20 L 376.40 370.30 L 369.80 370.90 L 363.10 372.00 L 356.40 373.80 Z" fill="#37384d" fill-rule="nonzero" node-id="38" stroke="none" target-height="218.89996" target-width="214.30002" target-x="271.4" target-y="361.2"></path><path d="M 608.80 366.50 L 616.00 364.60 L 623.20 363.20 L 630.40 362.50 L 637.60 362.40 L 644.80 362.90 L 651.90 363.90 L 658.90 365.40 L 665.90 367.50 L 672.70 370.00 L 679.30 373.00 L 685.60 376.40 L 691.80 380.30 L 697.70 384.60 L 703.30 389.30 L 708.50 394.30 L 713.40 399.60 L 717.90 405.30 L 722.00 411.30 L 725.60 417.60 L 728.70 424.10 L 731.40 430.80 L 733.40 437.80 L 734.90 444.90 L 737.00 459.00 L 737.60 465.80 L 737.70 472.50 L 737.40 479.30 L 736.60 486.10 L 735.40 492.80 L 733.80 499.40 L 731.80 505.90 L 729.30 512.30 L 726.50 518.40 L 723.40 524.40 L 719.80 530.20 L 715.90 535.70 L 711.70 541.00 L 707.10 545.90 L 702.20 550.50 L 697.10 554.80 L 691.60 558.60 L 685.90 562.10 L 679.90 565.10 L 673.70 567.70 L 667.20 569.70 L 660.50 571.30 L 653.50 572.30 L 645.90 573.30 L 638.40 573.70 L 631.00 573.40 L 623.60 572.60 L 616.20 571.30 L 609.00 569.40 L 602.00 567.10 L 595.00 564.20 L 588.30 560.90 L 581.90 557.10 L 575.80 552.90 L 569.90 548.30 L 564.30 543.40 L 559.20 538.00 L 554.40 532.40 L 550.10 526.40 L 546.10 520.20 L 542.70 513.60 L 539.80 506.90 L 537.40 499.80 L 535.90 494.10 L 534.80 488.30 L 534.10 482.30 L 533.70 462.80 L 534.10 455.90 L 534.90 449.10 L 536.20 442.40 L 538.10 435.80 L 540.30 429.30 L 543.00 423.10 L 546.10 417.00 L 549.70 411.10 L 553.50 405.50 L 557.80 400.20 L 562.40 395.00 L 567.30 390.20 L 572.50 385.70 L 577.90 381.60 L 583.70 377.80 L 589.70 374.40 L 595.80 371.30 L 602.20 368.70 L 608.80 366.50 Z M 596.90 380.00 L 591.00 382.80 L 585.40 385.90 L 580.10 389.50 L 575.00 393.50 L 570.30 397.80 L 565.90 402.40 L 561.80 407.30 L 558.10 412.50 L 554.70 418.00 L 551.70 423.60 L 549.00 429.50 L 546.70 435.50 L 544.80 441.70 L 543.30 447.90 L 542.20 454.20 L 541.60 460.60 L 541.30 467.10 L 541.50 473.50 L 542.20 479.90 L 543.30 486.40 L 544.60 492.60 L 546.30 498.60 L 548.50 504.30 L 551.10 509.90 L 554.10 515.30 L 557.50 520.40 L 561.10 525.30 L 565.20 529.90 L 569.50 534.30 L 579.00 542.20 L 584.10 545.70 L 589.40 548.90 L 600.50 554.30 L 612.20 558.40 L 618.20 559.90 L 630.30 561.70 L 636.50 562.10 L 642.60 562.00 L 648.70 561.50 L 654.80 560.50 L 660.80 559.20 L 666.70 557.30 L 672.50 555.00 L 683.70 549.10 L 688.70 545.80 L 693.50 542.10 L 697.90 538.00 L 702.00 533.70 L 705.70 529.10 L 709.20 524.20 L 712.30 519.10 L 717.50 508.40 L 719.60 502.80 L 721.40 497.00 L 723.20 489.10 L 724.50 481.20 L 725.10 473.10 L 725.20 465.00 L 724.60 457.00 L 723.40 449.00 L 722.20 443.10 L 720.50 437.30 L 716.30 426.20 L 713.80 420.70 L 711.00 415.50 L 707.80 410.50 L 704.20 405.80 L 696.10 397.30 L 691.70 393.40 L 682.00 386.60 L 671.60 381.00 L 666.10 378.70 L 660.50 376.70 L 649.10 373.90 L 637.30 372.40 L 631.40 372.30 L 619.60 373.20 L 613.80 374.30 L 608.10 375.70 L 602.50 377.60 L 596.90 380.00 Z" fill="#37384d" fill-rule="nonzero" node-id="40" stroke="none" target-height="211.30002" target-width="204" target-x="533.7" target-y="362.4"></path><path d="M 357.00 678.30 L 362.30 685.90 L 364.50 690.10 L 367.40 696.70 L 375.10 717.30 L 378.00 723.90 L 381.30 730.10 L 383.90 734.00 L 386.90 737.60 L 390.30 740.90 L 396.20 745.00 L 399.70 746.80 L 403.70 748.30 L 416.20 752.20 L 441.80 759.00 L 454.80 761.90 L 467.90 764.40 L 481.10 766.40 L 494.30 767.90 L 507.50 768.90 L 520.80 769.40 L 534.10 769.30 L 547.20 768.70 L 560.40 767.40 L 575.20 779.70 L 556.10 780.40 L 536.80 780.50 L 517.50 780.00 L 503.00 779.30 L 488.60 778.00 L 474.30 776.40 L 460.00 774.30 L 445.80 771.70 L 431.70 768.50 L 417.80 764.80 L 404.10 760.50 L 399.10 758.60 L 394.40 756.30 L 390.00 753.70 L 386.00 750.80 L 382.10 747.50 L 375.30 740.30 L 372.30 736.20 L 368.70 730.60 L 365.60 724.60 L 363.00 718.30 L 360.80 711.80 L 359.10 705.20 L 357.90 698.50 L 357.10 691.70 L 356.80 685.00 L 357.00 678.30 Z" fill="#37384d" fill-rule="nonzero" node-id="42" stroke="none" target-height="102.20001" target-width="218.40002" target-x="356.8" target-y="678.3"></path><path d="M 640.10 219.00 L 655.90 201.80 L 663.50 192.80 L 697.00 151.30 L 708.40 137.60 L 716.20 128.70 L 732.40 111.90 L 741.00 103.90 L 749.90 96.50 L 759.20 89.50 L 766.40 84.60 L 774.00 80.00 L 781.80 75.90 L 790.00 72.00 L 791.70 79.30 L 792.80 86.60 L 793.50 94.00 L 793.80 105.10 L 792.30 149.80 L 792.60 160.90 L 794.70 191.80 L 797.30 222.60 L 800.60 253.50 L 804.40 284.20 L 808.80 314.90 L 813.80 345.60 L 833.20 351.20 L 845.90 356.00 L 858.00 361.80 L 863.80 365.40 L 869.40 369.40 L 865.30 377.40 L 858.70 386.50 L 840.20 406.70 L 833.40 415.50 L 829.20 423.20 L 827.70 427.20 L 826.50 431.60 L 825.90 436.20 L 837.00 444.40 L 834.70 449.30 L 833.20 454.20 L 832.20 459.10 L 831.90 464.10 L 831.90 469.10 L 832.40 474.10 L 833.80 481.70 L 835.80 489.20 L 840.80 503.80 L 869.80 455.80 L 874.60 460.70 L 876.00 462.90 L 877.50 467.30 L 877.60 471.70 L 877.10 473.90 L 874.40 479.70 L 872.40 482.60 L 868.90 486.80 L 853.00 502.60 L 850.00 506.10 L 846.70 508.60 L 844.10 511.40 L 842.00 514.50 L 840.40 518.00 L 839.30 521.60 L 838.70 525.30 L 838.50 529.20 L 838.90 533.00 L 839.80 536.70 L 841.10 540.30 L 842.80 543.70 L 845.00 546.90 L 847.70 549.70 L 850.70 552.00 L 854.20 554.00 L 858.70 557.40 L 863.80 560.60 L 879.70 570.10 L 884.40 573.60 L 887.40 576.20 L 889.90 579.00 L 893.40 584.60 L 895.10 590.20 L 895.50 593.40 L 892.40 598.20 L 885.50 606.80 L 879.70 612.80 L 854.70 635.20 L 848.80 641.10 L 841.80 649.60 L 838.60 654.20 L 848.30 666.90 L 863.80 685.50 L 871.50 696.30 L 876.50 705.60 L 878.60 710.40 L 880.20 715.60 L 881.40 720.90 L 879.80 725.10 L 878.00 728.70 L 875.90 731.70 L 873.60 734.30 L 868.00 738.60 L 861.50 741.60 L 852.00 744.10 L 846.80 744.90 L 815.00 747.10 L 810.00 747.80 L 801.00 750.00 L 793.10 759.30 L 784.90 768.20 L 776.40 776.70 L 767.50 784.80 L 758.20 792.50 L 748.70 800.00 L 738.90 807.10 L 728.80 813.90 L 720.70 917.50 L 735.90 920.10 L 738.20 920.90 L 742.10 922.90 L 743.60 924.30 L 744.70 926.00 L 745.50 928.10 L 745.80 930.30 L 745.60 933.10 L 744.80 936.60 L 739.30 938.70 L 733.70 940.40 L 728.00 941.50 L 716.30 942.90 L 701.40 943.00 L 674.40 941.70 L 665.40 941.50 L 656.70 941.80 L 652.30 930.30 L 650.70 924.50 L 648.70 915.60 L 646.20 897.40 L 643.50 870.20 L 546.40 875.50 L 492.50 877.60 L 449.30 878.10 L 427.70 877.90 L 406.10 877.20 L 384.50 876.00 L 383.80 884.20 L 383.30 909.70 L 382.80 918.10 L 381.70 926.30 L 380.50 931.70 L 378.80 936.90 L 376.60 942.00 L 364.80 942.70 L 358.80 943.50 L 323.20 950.30 L 311.50 951.80 L 305.70 952.00 L 300.00 951.80 L 294.20 951.20 L 288.60 950.00 L 284.40 948.80 L 276.10 945.00 L 271.90 942.50 L 274.80 925.70 L 318.20 925.60 L 308.20 878.60 L 299.40 831.40 L 292.80 830.10 L 286.50 828.40 L 280.40 826.20 L 274.60 823.80 L 268.90 820.90 L 262.10 816.90 L 255.60 812.40 L 249.40 807.50 L 243.60 802.10 L 238.10 796.30 L 233.00 790.20 L 228.20 783.80 L 223.80 777.00 L 219.70 770.00 L 216.00 762.90 L 212.70 755.60 L 209.80 748.10 L 202.90 745.70 L 180.00 739.30 L 172.40 736.70 L 165.30 733.70 L 160.80 731.30 L 156.70 728.50 L 152.90 725.30 L 150.40 722.70 L 148.10 719.70 L 146.10 716.30 L 144.40 712.60 L 144.60 708.50 L 145.20 704.60 L 146.10 701.10 L 147.50 697.80 L 149.80 693.60 L 152.60 689.60 L 156.00 686.00 L 163.60 679.40 L 167.80 676.40 L 193.80 660.40 L 192.80 625.20 L 192.40 590.20 L 185.60 585.60 L 163.40 572.40 L 156.20 567.70 L 149.30 562.70 L 145.00 559.10 L 141.00 555.20 L 137.30 551.10 L 134.10 546.60 L 131.30 541.80 L 129.00 536.50 L 129.70 532.40 L 130.70 528.80 L 132.10 525.50 L 133.80 522.50 L 136.60 518.80 L 139.80 515.50 L 143.60 512.50 L 152.00 507.50 L 156.60 505.40 L 163.90 502.50 L 186.20 494.90 L 193.20 492.20 L 199.40 489.30 L 201.70 455.40 L 195.30 450.00 L 168.50 429.30 L 158.20 419.80 L 150.90 411.20 L 152.40 407.40 L 154.30 404.00 L 156.40 401.10 L 159.00 398.50 L 161.80 396.20 L 165.10 394.30 L 168.80 392.70 L 173.00 391.50 L 172.60 395.70 L 172.60 399.70 L 173.10 403.40 L 174.00 406.80 L 175.80 411.30 L 178.10 415.50 L 181.00 419.40 L 187.70 426.70 L 191.60 430.10 L 203.80 439.50 L 207.40 402.10 L 193.90 387.20 L 208.90 384.10 L 211.30 361.20 L 213.30 338.20 L 216.20 292.10 L 217.90 246.00 L 218.80 176.80 L 218.80 101.80 L 219.30 98.80 L 221.30 93.00 L 224.40 88.10 L 226.30 86.10 L 228.40 84.60 L 230.60 83.50 L 233.10 83.00 L 235.70 83.10 L 237.50 83.60 L 241.70 86.00 L 267.60 107.90 L 290.30 129.00 L 304.80 143.70 L 319.00 158.70 L 332.90 174.00 L 353.30 197.40 L 373.10 221.10 L 376.30 211.50 L 382.00 192.00 L 385.50 177.20 L 388.50 162.40 L 393.70 165.50 L 398.50 169.00 L 403.00 172.80 L 409.40 179.10 L 415.30 185.80 L 432.30 207.00 L 438.20 213.70 L 446.10 225.10 L 418.20 225.60 L 390.30 225.60 L 419.40 214.50 L 398.20 186.70 L 396.20 192.50 L 395.50 195.90 L 392.10 217.50 L 391.20 220.80 L 388.80 226.40 L 387.10 228.70 L 385.10 230.50 L 382.60 231.90 L 378.30 232.80 L 372.20 232.20 L 355.90 215.80 L 307.40 165.80 L 285.20 144.30 L 273.80 133.90 L 262.10 123.80 L 250.00 114.10 L 237.50 104.80 L 232.90 229.20 L 229.10 298.20 L 224.80 353.40 L 222.10 380.90 L 219.10 408.40 L 215.50 435.90 L 205.60 538.60 L 203.30 573.10 L 202.60 590.40 L 202.30 607.60 L 202.50 624.80 L 203.30 641.90 L 204.30 654.70 L 205.70 667.40 L 207.40 680.10 L 209.60 692.70 L 212.30 705.30 L 215.50 717.70 L 219.20 730.20 L 226.10 749.70 L 229.20 756.60 L 232.80 763.20 L 236.70 769.60 L 241.00 775.70 L 245.60 781.50 L 250.60 787.00 L 255.90 792.20 L 261.40 797.10 L 273.30 806.00 L 279.70 810.00 L 292.90 817.00 L 306.90 822.70 L 307.70 834.50 L 308.80 846.20 L 310.40 857.90 L 313.40 875.40 L 317.10 892.70 L 325.50 927.20 L 363.30 922.90 L 365.00 918.20 L 367.30 908.60 L 368.50 901.30 L 370.90 878.90 L 372.20 871.60 L 374.00 864.40 L 376.80 862.60 L 379.70 861.20 L 382.80 860.30 L 387.50 859.50 L 392.40 859.30 L 407.30 859.80 L 460.00 860.50 L 484.10 860.20 L 508.10 859.60 L 532.10 858.50 L 556.10 857.00 L 580.00 855.20 L 603.90 852.90 L 620.50 851.70 L 628.90 851.40 L 637.10 851.60 L 642.60 852.20 L 648.00 853.10 L 653.40 854.60 L 655.70 859.90 L 657.50 865.30 L 659.00 870.80 L 660.60 879.20 L 661.70 887.70 L 664.00 913.70 L 665.00 922.20 L 712.80 923.50 L 715.00 894.40 L 717.90 865.30 L 720.20 846.00 L 723.00 826.80 L 726.10 807.60 L 733.80 802.40 L 741.20 796.90 L 748.20 791.20 L 754.90 785.10 L 761.30 778.80 L 768.90 770.50 L 776.00 761.90 L 782.60 752.90 L 788.80 743.60 L 794.50 733.90 L 799.80 724.00 L 804.60 713.90 L 809.00 703.40 L 812.90 692.80 L 816.40 682.10 L 819.40 671.20 L 822.00 660.10 L 824.20 648.90 L 826.00 637.70 L 827.30 626.40 L 828.20 615.10 L 828.70 603.70 L 828.80 592.50 L 828.40 581.30 L 827.70 570.10 L 825.20 543.70 L 819.20 490.80 L 813.90 451.20 L 797.00 332.40 L 791.80 292.80 L 787.10 253.20 L 784.40 226.70 L 782.20 200.20 L 780.50 173.60 L 779.60 153.70 L 778.80 113.70 L 779.00 93.70 L 769.80 99.80 L 760.90 106.20 L 752.50 113.10 L 736.50 127.90 L 717.80 147.80 L 685.40 184.90 L 674.30 197.00 L 662.80 208.60 L 654.90 216.00 L 646.60 223.00 L 638.00 229.70 L 617.20 226.90 L 596.30 224.60 L 575.50 222.60 L 554.50 221.30 L 533.60 220.50 L 512.70 220.20 L 497.00 220.50 L 481.30 221.20 L 465.50 222.20 L 449.80 223.70 L 449.30 217.10 L 454.60 207.00 L 459.50 196.70 L 464.00 186.30 L 470.30 170.50 L 487.90 122.50 L 492.60 127.30 L 496.90 132.40 L 500.80 137.90 L 504.30 143.60 L 510.60 155.50 L 523.30 183.70 L 527.80 192.90 L 531.10 198.90 L 538.60 210.20 L 561.30 211.20 L 574.20 196.10 L 592.80 172.50 L 603.80 160.10 L 613.40 151.10 L 618.60 147.00 L 624.00 143.20 L 629.80 139.80 L 632.20 152.90 L 636.00 179.20 L 640.10 219.00 Z M 491.00 151.40 L 484.40 166.70 L 478.10 182.10 L 472.30 197.80 L 466.70 213.60 L 486.20 213.30 L 524.90 211.80 L 520.10 201.20 L 509.60 180.60 L 503.80 170.60 L 497.60 160.90 L 491.00 151.40 Z M 576.80 211.60 L 624.10 220.30 L 624.30 210.90 L 623.70 192.20 L 623.00 182.90 L 620.70 164.40 L 612.50 171.40 L 604.70 178.80 L 597.20 186.50 L 590.10 194.60 L 583.30 203.00 L 576.80 211.60 Z M 816.80 356.30 L 820.80 389.70 L 823.30 406.40 L 836.80 391.50 L 840.10 387.40 L 842.80 383.30 L 844.20 380.30 L 845.10 377.40 L 845.50 374.50 L 845.50 372.40 L 844.20 367.80 L 842.90 365.40 L 816.80 356.30 Z M 145.40 529.30 L 146.00 532.80 L 148.10 539.10 L 149.60 542.10 L 152.10 545.70 L 155.00 549.20 L 158.40 552.60 L 163.80 557.20 L 187.70 574.40 L 192.80 578.70 L 194.70 559.70 L 196.10 540.90 L 197.00 521.90 L 197.40 503.00 L 179.40 510.50 L 170.50 514.50 L 161.80 518.80 L 150.70 525.50 L 145.40 529.30 Z M 846.00 558.00 L 845.40 580.10 L 845.30 602.40 L 845.80 624.70 L 852.90 619.20 L 859.70 613.30 L 866.20 607.20 L 872.40 600.70 L 878.20 593.90 L 883.80 586.90 L 874.80 579.00 L 865.60 571.60 L 856.00 564.60 L 846.00 558.00 Z M 156.50 713.20 L 172.40 721.10 L 180.60 724.50 L 197.30 730.60 L 205.80 733.10 L 201.90 711.70 L 193.10 669.20 L 187.80 673.00 L 177.80 681.20 L 173.20 685.70 L 168.90 690.50 L 165.10 695.60 L 162.50 699.70 L 158.20 708.40 L 156.50 713.20 Z M 813.00 734.30 L 818.40 733.60 L 841.40 732.20 L 850.60 730.60 L 857.30 728.10 L 860.50 726.30 L 863.40 724.10 L 866.20 721.40 L 866.50 717.60 L 866.30 714.00 L 865.70 710.50 L 863.50 703.80 L 859.30 695.70 L 847.00 677.10 L 844.40 672.50 L 837.20 681.70 L 834.10 686.60 L 829.90 694.10 L 822.70 710.00 L 813.00 734.30 Z" fill="#313e46" fill-rule="nonzero" node-id="44" stroke="none" target-height="880" target-width="766.5" target-x="129" target-y="72"></path><path d="M 638.00 229.70 L 646.60 223.00 L 654.90 216.00 L 662.80 208.60 L 674.30 197.00 L 685.40 184.90 L 717.80 147.80 L 736.50 127.90 L 752.50 113.10 L 760.90 106.20 L 769.80 99.80 L 779.00 93.70 L 778.80 113.70 L 779.60 153.70 L 780.50 173.60 L 782.20 200.20 L 784.40 226.70 L 787.10 253.20 L 791.80 292.80 L 797.00 332.40 L 813.90 451.20 L 819.20 490.80 L 825.20 543.70 L 827.70 570.10 L 828.40 581.30 L 828.80 592.50 L 828.70 603.70 L 828.20 615.10 L 827.30 626.40 L 826.00 637.70 L 824.20 648.90 L 822.00 660.10 L 819.40 671.20 L 816.40 682.10 L 812.90 692.80 L 809.00 703.40 L 804.60 713.90 L 799.80 724.00 L 794.50 733.90 L 788.80 743.60 L 782.60 752.90 L 776.00 761.90 L 768.90 770.50 L 761.30 778.80 L 754.90 785.10 L 748.20 791.20 L 741.20 796.90 L 733.80 802.40 L 726.10 807.60 L 723.00 826.80 L 720.20 846.00 L 717.90 865.30 L 715.00 894.40 L 712.80 923.50 L 665.00 922.20 L 664.00 913.70 L 661.70 887.70 L 660.60 879.20 L 659.00 870.80 L 657.50 865.30 L 655.70 859.90 L 653.40 854.60 L 648.00 853.10 L 642.60 852.20 L 637.10 851.60 L 628.90 851.40 L 620.50 851.70 L 603.90 852.90 L 580.00 855.20 L 556.10 857.00 L 532.10 858.50 L 508.10 859.60 L 484.10 860.20 L 460.00 860.50 L 407.30 859.80 L 392.40 859.30 L 387.50 859.50 L 382.80 860.30 L 379.70 861.20 L 376.80 862.60 L 374.00 864.40 L 372.20 871.60 L 370.90 878.90 L 368.50 901.30 L 367.30 908.60 L 365.00 918.20 L 363.30 922.90 L 325.50 927.20 L 317.10 892.70 L 313.40 875.40 L 310.40 857.90 L 308.80 846.20 L 307.70 834.50 L 306.90 822.70 L 292.90 817.00 L 279.70 810.00 L 273.30 806.00 L 267.30 801.70 L 261.40 797.10 L 255.90 792.20 L 250.60 787.00 L 245.60 781.50 L 241.00 775.70 L 236.70 769.60 L 232.80 763.20 L 229.20 756.60 L 226.10 749.70 L 223.40 742.60 L 219.20 730.20 L 215.50 717.70 L 212.30 705.30 L 209.60 692.70 L 207.40 680.10 L 205.70 667.40 L 204.30 654.70 L 203.30 641.90 L 202.50 624.80 L 202.30 607.60 L 202.60 590.40 L 204.30 555.90 L 207.90 512.70 L 215.50 435.90 L 219.10 408.40 L 222.10 380.90 L 227.10 325.80 L 230.80 270.60 L 232.90 229.20 L 237.50 104.80 L 250.00 114.10 L 262.10 123.80 L 273.80 133.90 L 285.20 144.30 L 307.40 165.80 L 355.90 215.80 L 372.20 232.20 L 378.30 232.80 L 382.60 231.90 L 385.10 230.50 L 387.10 228.70 L 388.80 226.40 L 391.20 220.80 L 392.10 217.50 L 395.50 195.90 L 396.20 192.50 L 398.20 186.70 L 419.40 214.50 L 390.30 225.60 L 418.20 225.60 L 446.10 225.10 L 438.20 213.70 L 449.30 217.10 L 449.80 223.70 L 465.50 222.20 L 481.30 221.20 L 497.00 220.50 L 512.70 220.20 L 533.60 220.50 L 554.50 221.30 L 575.50 222.60 L 596.30 224.60 L 617.20 226.90 L 638.00 229.70 Z M 475.10 304.70 L 474.40 306.70 L 474.20 308.70 L 474.90 313.10 L 476.90 317.30 L 479.10 320.30 L 481.70 322.70 L 485.70 325.20 L 489.90 326.30 L 492.00 326.20 L 494.00 325.60 L 495.20 323.40 L 495.70 321.10 L 495.80 318.80 L 495.40 316.40 L 493.60 311.70 L 490.40 307.70 L 486.40 304.60 L 484.20 303.70 L 482.00 303.20 L 479.70 303.10 L 477.40 303.60 L 475.10 304.70 Z M 522.20 306.40 L 520.10 310.30 L 518.90 313.60 L 518.40 316.20 L 518.50 318.50 L 519.20 320.40 L 520.40 322.10 L 522.20 323.60 L 524.70 324.90 L 528.30 326.00 L 530.50 321.90 L 531.70 318.70 L 532.10 316.00 L 532.00 313.70 L 531.30 311.80 L 530.10 310.20 L 528.30 308.70 L 525.80 307.40 L 522.20 306.40 Z M 557.00 313.40 L 555.40 318.20 L 554.80 321.50 L 554.80 323.70 L 555.30 325.10 L 556.20 326.10 L 557.60 326.60 L 559.60 326.70 L 562.50 326.10 L 566.80 324.50 L 568.50 319.60 L 569.10 316.30 L 569.10 314.10 L 568.60 312.60 L 567.70 311.70 L 566.30 311.20 L 564.30 311.10 L 561.30 311.80 L 557.00 313.40 Z M 349.00 365.60 L 341.70 368.00 L 334.80 370.80 L 328.30 374.10 L 322.00 378.00 L 316.00 382.20 L 310.40 386.90 L 305.10 392.00 L 300.20 397.40 L 295.60 403.20 L 291.40 409.20 L 287.60 415.50 L 284.10 422.10 L 281.00 428.90 L 278.40 435.80 L 276.10 442.80 L 274.30 450.10 L 272.90 457.40 L 271.90 464.80 L 271.40 472.10 L 271.40 479.50 L 271.80 486.90 L 272.70 494.20 L 274.10 501.40 L 275.90 508.50 L 278.30 515.50 L 281.10 522.30 L 284.50 528.90 L 288.50 535.30 L 292.80 541.40 L 297.60 547.10 L 302.70 552.40 L 308.20 557.20 L 314.10 561.50 L 320.30 565.40 L 326.80 568.90 L 333.50 571.90 L 340.40 574.40 L 347.50 576.50 L 354.70 578.10 L 362.00 579.20 L 369.50 579.90 L 376.80 580.10 L 384.20 579.80 L 391.60 579.00 L 398.90 577.70 L 406.10 576.00 L 413.10 573.80 L 427.00 567.80 L 433.70 564.20 L 440.00 560.00 L 446.00 555.30 L 451.70 550.20 L 456.90 544.80 L 461.70 538.90 L 466.10 532.80 L 470.20 526.30 L 473.70 519.60 L 476.90 512.60 L 479.50 505.50 L 481.80 498.10 L 483.50 490.70 L 484.70 483.20 L 485.40 475.60 L 485.70 468.00 L 485.30 460.40 L 484.50 452.80 L 481.50 438.00 L 479.40 431.00 L 476.70 424.20 L 473.50 417.70 L 469.90 411.40 L 465.80 405.50 L 461.30 399.80 L 456.30 394.50 L 451.00 389.40 L 445.40 384.80 L 439.50 380.50 L 433.30 376.60 L 426.90 373.10 L 420.30 370.00 L 413.50 367.40 L 406.50 365.20 L 399.40 363.40 L 392.20 362.20 L 385.00 361.40 L 377.70 361.20 L 370.50 361.40 L 363.30 362.30 L 356.10 363.60 L 349.00 365.60 Z M 608.80 366.50 L 602.20 368.70 L 595.80 371.30 L 589.70 374.30 L 583.70 377.80 L 577.90 381.60 L 572.50 385.70 L 567.30 390.20 L 562.40 395.00 L 557.80 400.20 L 553.50 405.50 L 549.70 411.10 L 546.10 417.00 L 543.00 423.10 L 540.30 429.30 L 538.10 435.80 L 536.20 442.40 L 534.90 449.10 L 534.10 455.90 L 533.70 462.80 L 534.10 482.30 L 534.80 488.30 L 535.90 494.10 L 537.40 499.80 L 539.80 506.90 L 542.70 513.60 L 546.10 520.20 L 550.10 526.40 L 554.40 532.40 L 559.20 538.00 L 564.30 543.40 L 569.90 548.30 L 575.80 552.90 L 581.90 557.10 L 588.30 560.90 L 595.00 564.20 L 602.00 567.10 L 609.00 569.40 L 616.20 571.30 L 623.60 572.60 L 631.00 573.40 L 638.40 573.70 L 645.90 573.30 L 660.50 571.30 L 667.20 569.70 L 673.70 567.70 L 679.90 565.10 L 685.90 562.10 L 691.60 558.60 L 697.10 554.80 L 702.20 550.50 L 707.10 545.90 L 711.70 541.00 L 715.90 535.70 L 719.80 530.20 L 723.40 524.40 L 726.50 518.40 L 729.30 512.30 L 731.80 505.90 L 733.80 499.40 L 735.40 492.80 L 736.60 486.10 L 737.40 479.30 L 737.70 472.50 L 737.60 465.80 L 737.00 459.00 L 734.90 444.90 L 733.40 437.80 L 731.40 430.80 L 728.70 424.10 L 725.60 417.60 L 722.00 411.30 L 717.90 405.30 L 713.40 399.60 L 708.50 394.30 L 703.30 389.30 L 697.70 384.60 L 691.80 380.30 L 685.60 376.40 L 679.30 373.00 L 672.70 370.00 L 665.90 367.50 L 658.90 365.40 L 651.90 363.90 L 644.80 362.90 L 637.60 362.40 L 630.40 362.50 L 623.20 363.20 L 616.00 364.60 L 608.80 366.50 Z M 495.80 538.20 L 494.60 542.50 L 494.20 545.80 L 494.30 548.30 L 494.90 550.10 L 495.90 551.50 L 497.30 552.60 L 499.30 553.30 L 501.90 553.60 L 505.40 553.30 L 510.00 552.40 L 511.10 548.00 L 511.50 544.70 L 511.30 542.20 L 510.70 540.30 L 509.70 538.90 L 508.30 537.90 L 506.40 537.20 L 503.80 536.90 L 500.40 537.20 L 495.80 538.20 Z M 530.20 540.00 L 534.00 540.50 L 536.60 541.20 L 538.10 542.00 L 539.30 543.10 L 539.80 544.20 L 539.40 546.40 L 537.50 548.70 L 535.50 550.10 L 533.20 551.10 L 530.30 551.50 L 529.20 551.20 L 528.20 550.60 L 527.70 549.60 L 527.40 547.90 L 527.60 546.20 L 528.50 543.60 L 530.20 540.00 Z M 531.30 587.20 L 535.00 585.60 L 539.30 584.80 L 541.00 585.10 L 542.00 585.70 L 542.50 586.60 L 542.70 587.80 L 542.20 590.70 L 541.10 592.90 L 539.60 594.90 L 537.20 596.70 L 536.00 597.00 L 534.90 597.00 L 533.80 596.40 L 532.80 595.20 L 532.10 593.60 L 531.60 591.10 L 531.30 587.20 Z M 357.00 678.30 L 356.80 685.00 L 357.10 691.70 L 357.90 698.50 L 359.10 705.20 L 360.80 711.80 L 363.00 718.30 L 365.60 724.60 L 368.70 730.60 L 372.30 736.20 L 375.30 740.30 L 382.10 747.50 L 386.00 750.80 L 390.00 753.70 L 394.40 756.30 L 399.10 758.60 L 404.10 760.50 L 417.80 764.80 L 431.70 768.50 L 445.80 771.70 L 460.00 774.30 L 474.30 776.40 L 488.60 778.10 L 503.00 779.30 L 517.50 780.00 L 536.80 780.50 L 556.10 780.40 L 575.20 779.70 L 560.40 767.40 L 547.20 768.70 L 534.10 769.30 L 520.80 769.40 L 507.50 768.90 L 494.30 767.90 L 481.10 766.40 L 467.90 764.40 L 454.80 761.90 L 441.80 759.00 L 416.20 752.20 L 403.70 748.30 L 399.70 746.80 L 396.20 745.00 L 390.30 740.90 L 386.90 737.60 L 383.90 734.00 L 381.30 730.10 L 378.00 723.90 L 375.10 717.30 L 367.40 696.70 L 364.50 690.10 L 362.30 685.90 L 357.00 678.30 Z M 659.10 726.50 L 650.50 733.00 L 635.20 743.30 L 622.30 750.30 L 615.60 753.20 L 608.80 755.60 L 601.80 757.50 L 596.50 758.40 L 591.10 758.90 L 585.60 759.00 L 580.00 758.70 L 578.20 776.50 L 590.70 773.30 L 603.80 769.30 L 621.20 762.90 L 629.80 759.20 L 638.20 755.10 L 646.40 750.70 L 654.20 745.80 L 659.80 741.90 L 670.20 733.20 L 674.90 728.60 L 679.20 723.60 L 683.20 718.30 L 686.70 712.80 L 689.80 706.90 L 692.40 700.90 L 694.50 694.50 L 696.00 687.60 L 697.00 680.40 L 693.60 682.70 L 690.60 685.40 L 688.00 688.20 L 684.30 692.90 L 671.60 713.50 L 668.00 718.30 L 662.40 724.00 L 659.10 726.50 Z" fill="#80c1b6" fill-rule="nonzero" node-id="46" stroke="none" target-height="833.5" target-width="626.5" target-x="202.3" target-y="93.7"></path><path d="M 491.00 151.40 L 497.60 160.90 L 503.80 170.60 L 509.60 180.60 L 520.10 201.20 L 524.90 211.80 L 486.20 213.30 L 466.70 213.60 L 472.30 197.80 L 478.10 182.10 L 484.40 166.70 L 491.00 151.40 Z" fill="#58838a" fill-rule="nonzero" node-id="48" stroke="none" target-height="62.200012" target-width="58.200012" target-x="466.7" target-y="151.4"></path><path d="M 576.80 211.60 L 583.30 203.00 L 590.10 194.60 L 597.20 186.50 L 604.70 178.80 L 612.50 171.40 L 620.70 164.40 L 623.00 182.90 L 623.70 192.20 L 624.30 210.90 L 624.10 220.30 L 576.80 211.60 Z" fill="#657f8e" fill-rule="nonzero" node-id="50" stroke="none" target-height="55.90001" target-width="47.5" target-x="576.8" target-y="164.4"></path><path d="M 475.10 304.70 L 477.40 303.60 L 479.70 303.10 L 482.00 303.20 L 484.20 303.70 L 486.40 304.60 L 490.40 307.70 L 493.60 311.70 L 495.40 316.40 L 495.80 318.80 L 495.70 321.10 L 495.20 323.40 L 494.00 325.60 L 492.00 326.20 L 489.90 326.30 L 485.70 325.20 L 481.70 322.70 L 479.10 320.20 L 476.90 317.30 L 474.90 313.10 L 474.20 308.70 L 474.40 306.70 L 475.10 304.70 Z" fill="#375f62" fill-rule="nonzero" node-id="52" stroke="none" target-height="23.199982" target-width="21.599976" target-x="474.2" target-y="303.1"></path><path d="M 522.20 306.40 L 525.80 307.40 L 528.30 308.70 L 530.10 310.20 L 531.30 311.80 L 532.00 313.70 L 532.10 316.00 L 531.70 318.70 L 530.50 321.90 L 528.30 326.00 L 524.70 324.90 L 522.20 323.60 L 520.40 322.10 L 519.20 320.40 L 518.50 318.50 L 518.40 316.20 L 518.90 313.60 L 520.10 310.30 L 522.20 306.40 Z" fill="#2a5256" fill-rule="nonzero" node-id="54" stroke="none" target-height="19.600006" target-width="13.699951" target-x="518.4" target-y="306.4"></path><path d="M 557.00 313.40 L 561.30 311.80 L 564.30 311.10 L 566.30 311.20 L 567.70 311.70 L 568.60 312.60 L 569.10 314.10 L 569.10 316.30 L 568.50 319.60 L 566.80 324.50 L 562.50 326.10 L 559.60 326.70 L 557.60 326.60 L 556.20 326.10 L 555.30 325.10 L 554.80 323.70 L 554.80 321.50 L 555.40 318.20 L 557.00 313.40 Z" fill="#2a4c53" fill-rule="nonzero" node-id="56" stroke="none" target-height="15.600006" target-width="14.299988" target-x="554.8" target-y="311.1"></path><path d="M 816.80 356.30 L 842.90 365.40 L 844.20 367.80 L 845.50 372.40 L 845.50 374.50 L 845.10 377.40 L 844.20 380.30 L 842.80 383.30 L 840.10 387.40 L 836.80 391.50 L 823.30 406.40 L 820.80 389.70 L 816.80 356.30 Z" fill="#648998" fill-rule="nonzero" node-id="58" stroke="none" target-height="50.100006" target-width="28.700012" target-x="816.8" target-y="356.3"></path><path d="M 172.80 389.40 L 193.90 387.20 L 207.40 402.10 L 203.80 439.50 L 191.60 430.10 L 187.70 426.70 L 181.00 419.40 L 178.10 415.50 L 175.80 411.30 L 174.00 406.80 L 173.10 403.40 L 172.60 399.70 L 172.60 395.70 L 173.00 391.50 L 172.80 389.40 Z" fill="#698290" fill-rule="nonzero" node-id="60" stroke="none" target-height="52.299988" target-width="34.799988" target-x="172.6" target-y="387.2"></path><path d="M 321.90 488.70 L 320.70 484.10 L 320.00 479.60 L 319.80 475.30 L 320.00 471.00 L 320.70 466.70 L 323.20 458.50 L 325.10 454.50 L 327.90 449.50 L 331.20 444.60 L 335.00 440.00 L 339.10 435.70 L 347.90 428.10 L 369.50 453.20 L 375.10 445.80 L 380.30 438.20 L 385.10 430.40 L 389.50 422.40 L 394.30 423.30 L 398.80 424.60 L 402.90 426.20 L 406.70 428.30 L 410.30 430.70 L 413.60 433.40 L 416.60 436.30 L 419.30 439.60 L 422.50 444.20 L 425.20 449.20 L 427.30 454.60 L 429.00 460.10 L 430.00 465.80 L 430.60 471.60 L 430.50 477.50 L 430.00 483.30 L 428.80 489.00 L 427.10 494.50 L 424.80 499.80 L 421.90 504.90 L 419.40 508.40 L 416.60 511.70 L 413.30 514.80 L 405.90 520.60 L 402.00 523.10 L 397.90 525.10 L 393.70 526.70 L 389.30 528.00 L 380.40 529.30 L 375.90 529.40 L 369.90 529.00 L 364.00 528.00 L 358.20 526.40 L 352.60 524.20 L 347.20 521.40 L 342.20 518.10 L 338.60 515.30 L 332.30 509.00 L 327.00 501.60 L 325.00 497.50 L 323.20 493.20 L 321.90 488.70 Z" fill="#3b3547" fill-rule="nonzero" node-id="62" stroke="none" target-height="107.00003" target-width="110.80002" target-x="319.8" target-y="422.4"></path><path d="M 599.10 430.40 L 602.10 431.10 L 604.90 432.20 L 607.50 433.80 L 611.00 436.70 L 623.90 451.10 L 627.40 454.10 L 647.60 425.40 L 655.70 428.40 L 662.90 432.60 L 667.20 436.10 L 671.00 440.00 L 674.30 444.20 L 677.20 448.90 L 679.70 453.70 L 681.60 458.90 L 683.00 464.20 L 683.90 469.50 L 684.30 475.00 L 684.10 480.50 L 683.30 485.90 L 682.00 491.30 L 678.80 499.00 L 676.80 502.70 L 671.30 510.50 L 667.90 514.20 L 664.30 517.50 L 660.40 520.40 L 656.20 522.90 L 651.80 525.00 L 647.30 526.70 L 642.50 528.00 L 632.80 529.50 L 623.00 529.40 L 618.10 528.80 L 613.30 527.80 L 604.00 524.70 L 599.60 522.60 L 595.50 520.10 L 591.60 517.20 L 587.90 514.00 L 584.60 510.50 L 581.70 506.60 L 579.10 502.30 L 576.90 497.50 L 575.10 492.80 L 573.80 488.10 L 573.00 483.40 L 572.80 478.80 L 573.00 474.10 L 573.60 469.40 L 574.70 464.90 L 576.20 460.30 L 578.70 454.50 L 581.80 449.00 L 585.50 443.70 L 589.60 438.80 L 594.20 434.40 L 599.10 430.40 Z" fill="#3b3546" fill-rule="nonzero" node-id="64" stroke="none" target-height="104.100006" target-width="111.5" target-x="572.8" target-y="425.4"></path><path d="M 837.00 444.40 L 870.60 454.60 L 840.80 503.80 L 835.80 489.20 L 833.80 481.70 L 832.40 474.10 L 831.90 469.10 L 831.90 464.10 L 832.20 459.10 L 833.20 454.20 L 834.70 449.30 L 837.00 444.40 Z" fill="#5c848d" fill-rule="nonzero" node-id="66" stroke="none" target-height="59.399994" target-width="38.69995" target-x="831.9" target-y="444.4"></path><path d="M 145.40 529.30 L 150.70 525.50 L 161.80 518.80 L 170.50 514.50 L 179.40 510.50 L 197.40 503.00 L 197.00 521.90 L 196.10 540.90 L 194.70 559.70 L 192.80 578.70 L 187.70 574.40 L 163.80 557.20 L 158.40 552.60 L 155.00 549.20 L 152.10 545.70 L 148.10 539.10 L 146.00 532.80 L 145.40 529.30 Z" fill="#59898e" fill-rule="nonzero" node-id="68" stroke="none" target-height="75.70001" target-width="52" target-x="145.4" target-y="503"></path><path d="M 495.80 538.20 L 500.40 537.20 L 503.80 536.90 L 506.40 537.20 L 508.30 537.90 L 509.70 538.90 L 510.70 540.30 L 511.30 542.20 L 511.50 544.70 L 511.10 548.00 L 510.00 552.40 L 505.40 553.30 L 501.90 553.60 L 499.30 553.30 L 497.30 552.60 L 495.90 551.50 L 494.90 550.10 L 494.30 548.30 L 494.20 545.80 L 494.60 542.50 L 495.80 538.20 Z" fill="#547e7a" fill-rule="nonzero" node-id="70" stroke="none" target-height="16.699951" target-width="17.299988" target-x="494.2" target-y="536.9"></path><path d="M 530.20 540.00 L 534.00 540.50 L 538.10 542.00 L 539.30 543.10 L 539.80 544.20 L 539.80 545.30 L 539.40 546.40 L 537.50 548.70 L 535.50 550.10 L 533.20 551.10 L 530.30 551.50 L 529.20 551.20 L 528.20 550.60 L 527.70 549.60 L 527.40 547.90 L 527.60 546.20 L 530.20 540.00 Z" fill="#3e6968" fill-rule="nonzero" node-id="72" stroke="none" target-height="11.5" target-width="12.399963" target-x="527.4" target-y="540"></path><path d="M 846.00 558.00 L 856.00 564.60 L 865.60 571.60 L 874.80 579.00 L 883.80 586.90 L 878.20 593.90 L 872.40 600.70 L 866.20 607.20 L 859.70 613.30 L 852.90 619.20 L 845.80 624.70 L 845.30 602.40 L 845.40 580.10 L 846.00 558.00 Z" fill="#60818b" fill-rule="nonzero" node-id="74" stroke="none" target-height="66.70001" target-width="38.5" target-x="845.3" target-y="558"></path><path d="M 531.30 587.20 L 535.00 585.60 L 539.30 584.80 L 541.00 585.10 L 542.00 585.70 L 542.50 586.60 L 542.70 587.80 L 542.20 590.70 L 541.10 592.90 L 539.60 594.90 L 537.20 596.70 L 536.00 597.00 L 534.90 597.00 L 533.80 596.40 L 532.80 595.20 L 532.10 593.60 L 531.60 591.10 L 531.30 587.20 Z" fill="#44696c" fill-rule="nonzero" node-id="78" stroke="none" target-height="12.200012" target-width="11.400024" target-x="531.3" target-y="584.8"></path><path d="M 156.50 713.20 L 158.20 708.40 L 162.50 699.70 L 165.10 695.60 L 168.90 690.50 L 173.20 685.70 L 177.80 681.20 L 187.80 673.00 L 193.10 669.20 L 201.90 711.70 L 205.80 733.10 L 197.30 730.60 L 180.60 724.50 L 172.40 721.10 L 156.50 713.20 Z" fill="#598c8f" fill-rule="nonzero" node-id="80" stroke="none" target-height="63.899963" target-width="49.300003" target-x="156.5" target-y="669.2"></path><path d="M 813.00 734.30 L 822.70 710.00 L 829.90 694.10 L 834.10 686.60 L 837.20 681.70 L 844.40 672.50 L 847.00 677.10 L 859.30 695.70 L 863.50 703.80 L 865.70 710.50 L 866.30 714.00 L 866.50 717.60 L 866.20 721.40 L 863.40 724.10 L 860.50 726.30 L 857.30 728.10 L 850.60 730.60 L 841.40 732.20 L 818.40 733.60 L 813.00 734.30 Z" fill="#5a8788" fill-rule="nonzero" node-id="82" stroke="none" target-height="61.799988" target-width="53.5" target-x="813" target-y="672.5"></path><path d="M 659.10 726.50 L 662.40 724.00 L 668.00 718.30 L 671.60 713.50 L 684.30 692.90 L 688.00 688.20 L 690.60 685.40 L 693.60 682.70 L 697.00 680.40 L 696.00 687.60 L 694.50 694.50 L 692.40 700.90 L 689.80 706.90 L 686.70 712.80 L 683.20 718.30 L 679.20 723.60 L 674.90 728.60 L 670.20 733.20 L 659.80 741.90 L 654.20 745.80 L 646.40 750.70 L 638.20 755.10 L 629.80 759.20 L 621.20 762.90 L 603.80 769.30 L 590.70 773.30 L 578.20 776.50 L 580.00 758.70 L 585.60 759.00 L 591.10 758.90 L 596.50 758.40 L 601.80 757.50 L 608.80 755.60 L 615.60 753.20 L 622.30 750.30 L 635.20 743.30 L 650.50 733.00 L 659.10 726.50 Z" fill="#416164" fill-rule="nonzero" node-id="84" stroke="none" target-height="96.099976" target-width="118.79999" target-x="578.2" target-y="680.4"></path></svg>