<?xml version="1.0" standalone="no"?><!DOCTYPE svg PUBLIC "-//W3C//DTD SVG 1.1//EN" "http://www.w3.org/Graphics/SVG/1.1/DTD/svg11.dtd"><svg height="1024" node-id="1" sillyvg="true" template-height="1024" template-width="1024" version="1.1" viewBox="0 0 1024 1024" width="1024" xmlns="http://www.w3.org/2000/svg" xmlns:xlink="http://www.w3.org/1999/xlink"><defs node-id="43"></defs><path d="M 0.00 0.00 L 1024.00 0.00 L 1024.00 1024.00 L 0.00 1024.00 Z" fill="#ffffff" fill-rule="nonzero" node-id="45" stroke="none" target-height="1024" target-width="1024" target-x="0" target-y="0"></path><path d="M 575.00 424.90 L 581.40 424.40 L 583.10 424.60 L 584.70 425.30 L 585.60 426.20 L 585.90 427.30 L 585.50 430.00 L 584.60 431.70 L 582.80 434.20 L 580.30 436.70 L 577.40 439.00 L 574.20 441.00 L 570.80 442.60 L 567.40 443.50 L 565.20 443.70 L 563.10 443.50 L 561.20 442.90 L 558.80 441.70 L 557.30 440.60 L 556.50 439.50 L 556.00 438.20 L 556.00 436.90 L 556.40 435.60 L 557.60 433.60 L 559.60 431.60 L 564.70 428.20 L 570.30 425.80 L 575.00 424.90 Z" fill="#ffffff" fill-rule="nonzero" node-id="47" stroke="none" target-height="19.300018" target-width="29.900024" target-x="556" target-y="424.4"></path><path d="M 276.20 286.80 L 278.20 297.50 L 279.70 308.40 L 284.30 352.00 L 285.90 362.80 L 288.10 373.50 L 289.90 380.60 L 294.70 394.40 L 304.40 417.10 L 326.50 461.30 L 307.00 442.90 L 300.70 436.60 L 294.80 430.00 L 289.40 423.00 L 286.10 418.10 L 283.20 413.00 L 280.60 407.60 L 277.70 400.30 L 275.20 393.00 L 273.10 385.60 L 271.40 378.10 L 269.70 368.00 L 268.70 357.90 L 268.20 347.70 L 268.30 337.40 L 268.90 327.20 L 270.10 316.90 L 271.70 306.80 L 273.70 296.70 L 276.20 286.80 Z" fill="#f0eedb" fill-rule="nonzero" node-id="49" stroke="none" target-height="174.5" target-width="58.299988" target-x="268.2" target-y="286.8"></path><path d="M 171.20 637.40 L 174.70 628.50 L 182.40 611.40 L 186.80 603.00 L 193.20 592.10 L 200.00 581.60 L 207.30 571.30 L 215.00 561.40 L 223.20 551.80 L 231.70 542.60 L 229.00 549.70 L 222.50 563.30 L 217.00 573.10 L 211.10 582.70 L 192.50 611.10 L 186.60 620.70 L 179.50 634.00 L 176.40 640.90 L 171.20 637.40 Z" fill="#f0eedb" fill-rule="nonzero" node-id="51" stroke="none" target-height="98.30005" target-width="60.5" target-x="171.2" target-y="542.6"></path><path d="M 258.90 171.20 L 281.90 180.60 L 298.30 185.30 L 314.90 190.70 L 287.90 190.60 L 284.50 206.70 L 277.10 200.10 L 273.80 196.40 L 269.50 190.50 L 265.60 184.30 L 258.90 171.20 Z" fill="#3d3a4f" fill-rule="nonzero" node-id="53" stroke="none" target-height="35.5" target-width="56" target-x="258.9" target-y="171.2"></path><path d="M 233.20 133.90 L 235.40 135.90 L 237.30 138.00 L 238.70 140.30 L 240.30 144.10 L 241.50 148.20 L 244.10 160.90 L 249.40 180.60 L 252.00 188.10 L 255.10 195.50 L 259.60 205.20 L 264.80 214.60 L 270.40 223.70 L 276.60 232.50 L 283.10 241.00 L 290.00 249.30 L 284.20 245.90 L 278.80 242.10 L 273.70 238.00 L 269.00 233.40 L 264.70 228.40 L 260.70 223.20 L 257.00 217.70 L 253.60 211.90 L 249.50 203.80 L 246.00 195.40 L 242.90 186.80 L 240.30 177.90 L 238.10 169.00 L 234.90 151.10 L 233.20 133.90 Z" fill="#37384d" fill-rule="nonzero" node-id="55" stroke="none" target-height="115.40001" target-width="56.800003" target-x="233.2" target-y="133.9"></path><path d="M 242.50 136.10 L 255.30 141.20 L 267.90 146.80 L 280.40 152.70 L 292.70 159.20 L 304.70 166.10 L 316.50 173.30 L 327.90 181.00 L 339.20 189.10 L 336.30 190.20 L 333.70 190.70 L 331.20 190.80 L 326.30 189.90 L 320.50 187.10 L 310.50 180.30 L 303.90 176.40 L 296.20 171.40 L 263.80 153.40 L 256.10 148.40 L 251.30 144.70 L 246.80 140.60 L 242.50 136.10 Z" fill="#37384d" fill-rule="nonzero" node-id="57" stroke="none" target-height="54.699997" target-width="96.70001" target-x="242.5" target-y="136.1"></path><path d="M 707.80 177.80 L 737.60 161.40 L 752.70 153.50 L 768.00 146.00 L 788.90 137.10 L 799.60 133.10 L 799.20 141.80 L 798.50 150.70 L 797.30 159.70 L 795.60 168.70 L 793.60 177.60 L 791.00 186.40 L 787.90 195.10 L 784.40 203.50 L 780.30 211.60 L 776.90 217.40 L 773.20 223.10 L 764.90 233.50 L 760.30 238.30 L 755.30 242.80 L 750.00 246.90 L 744.30 250.60 L 757.90 231.70 L 764.50 221.80 L 770.70 211.80 L 774.50 204.90 L 781.10 190.80 L 783.80 183.50 L 785.90 176.10 L 787.60 168.50 L 789.00 157.00 L 788.90 144.90 L 776.60 150.80 L 764.50 157.00 L 716.70 183.10 L 704.60 189.30 L 692.30 195.20 L 693.90 191.30 L 695.90 187.90 L 698.20 184.90 L 701.00 182.20 L 704.20 179.90 L 707.80 177.80 Z" fill="#37384d" fill-rule="nonzero" node-id="59" stroke="none" target-height="117.5" target-width="107.29999" target-x="692.3" target-y="133.1"></path><path d="M 600.10 244.40 L 605.90 241.90 L 611.70 240.10 L 617.40 238.80 L 623.10 238.10 L 628.90 237.90 L 634.60 238.10 L 640.20 238.80 L 645.70 240.00 L 651.20 241.60 L 656.50 243.60 L 661.60 246.00 L 666.60 248.90 L 676.00 255.50 L 684.40 263.30 L 688.10 267.70 L 691.60 272.20 L 694.70 277.00 L 697.40 282.10 L 699.80 287.30 L 701.80 292.60 L 703.30 298.10 L 704.50 303.80 L 705.10 309.50 L 705.20 315.40 L 704.90 321.30 L 702.90 333.30 L 701.40 339.00 L 699.40 344.40 L 697.00 349.50 L 694.20 354.40 L 691.00 359.00 L 687.50 363.40 L 683.60 367.50 L 679.40 371.30 L 670.30 378.00 L 665.40 380.90 L 658.50 384.20 L 651.50 387.00 L 644.10 389.20 L 636.60 390.80 L 629.00 391.70 L 621.40 392.00 L 615.70 391.80 L 604.50 390.20 L 599.10 388.90 L 593.70 387.10 L 588.50 385.00 L 583.60 382.40 L 578.70 379.40 L 574.20 376.00 L 569.90 372.20 L 565.90 367.90 L 558.00 358.00 L 554.60 352.70 L 551.80 347.30 L 549.60 341.70 L 547.90 336.00 L 546.80 330.10 L 546.20 324.30 L 546.10 318.30 L 546.50 312.30 L 547.40 306.40 L 548.70 300.60 L 550.50 294.80 L 552.70 289.10 L 555.30 283.60 L 558.30 278.30 L 561.70 273.20 L 565.50 268.40 L 569.60 263.80 L 573.90 259.60 L 578.60 255.70 L 583.60 252.20 L 588.90 249.20 L 594.40 246.60 L 600.10 244.40 Z M 598.60 259.40 L 594.10 261.60 L 590.00 264.10 L 586.00 266.90 L 582.30 270.00 L 577.80 274.70 L 573.70 279.70 L 570.20 285.10 L 567.10 290.90 L 564.70 296.80 L 562.80 303.00 L 561.90 307.70 L 561.20 312.40 L 561.10 321.90 L 561.70 326.60 L 562.60 331.20 L 564.00 335.70 L 565.80 340.10 L 568.00 344.30 L 570.70 348.40 L 573.90 352.20 L 581.40 360.00 L 585.50 363.50 L 589.90 366.50 L 594.50 369.10 L 599.30 371.30 L 604.30 373.00 L 609.30 374.30 L 614.60 375.20 L 619.90 375.70 L 630.50 375.60 L 641.20 373.90 L 646.30 372.50 L 656.20 368.60 L 660.90 366.10 L 665.40 363.40 L 669.60 360.30 L 673.50 356.90 L 677.10 353.10 L 680.30 349.10 L 683.20 344.80 L 685.70 340.20 L 687.60 335.30 L 689.10 330.20 L 690.10 324.80 L 690.70 313.20 L 690.30 307.50 L 689.30 302.10 L 687.90 296.80 L 685.90 291.60 L 683.50 286.70 L 680.70 282.00 L 677.50 277.60 L 673.90 273.40 L 670.00 269.50 L 665.80 266.00 L 661.40 262.80 L 656.70 260.00 L 651.80 257.50 L 646.80 255.50 L 641.60 253.90 L 636.20 252.80 L 630.90 252.10 L 625.50 252.00 L 620.00 252.30 L 614.60 253.20 L 609.20 254.70 L 603.90 256.70 L 598.60 259.40 Z" fill="#37384d" fill-rule="nonzero" node-id="61" stroke="none" target-height="154.1" target-width="159.10004" target-x="546.1" target-y="237.9"></path><path d="M 365.40 254.20 L 371.10 251.90 L 376.80 250.20 L 382.50 249.00 L 388.30 248.30 L 394.10 248.10 L 399.90 248.40 L 405.60 249.00 L 411.40 250.20 L 422.50 253.60 L 427.90 255.90 L 433.20 258.60 L 443.10 264.90 L 452.20 272.40 L 456.30 276.60 L 460.20 281.00 L 466.90 290.50 L 469.80 295.60 L 472.30 300.90 L 474.30 306.30 L 476.00 311.90 L 477.20 317.50 L 477.90 323.30 L 478.10 329.20 L 477.80 335.20 L 476.30 341.30 L 474.40 347.10 L 472.00 352.50 L 469.20 357.80 L 465.90 362.80 L 462.40 367.50 L 458.40 371.90 L 454.10 376.00 L 449.60 379.80 L 444.80 383.30 L 439.80 386.50 L 429.00 391.80 L 417.80 395.60 L 412.00 396.90 L 406.10 397.90 L 400.20 398.40 L 394.30 398.60 L 388.40 398.30 L 382.60 397.60 L 376.80 396.40 L 371.20 394.80 L 365.60 392.70 L 360.20 390.20 L 355.10 387.10 L 350.10 383.60 L 340.90 375.80 L 337.00 371.80 L 333.50 367.70 L 330.40 363.20 L 327.70 358.50 L 325.40 353.70 L 323.50 348.70 L 322.00 343.60 L 320.90 338.30 L 319.70 327.60 L 319.70 322.20 L 320.30 314.90 L 321.40 307.80 L 323.20 300.80 L 325.00 295.60 L 329.50 285.80 L 332.20 281.20 L 335.30 276.70 L 338.70 272.60 L 342.30 268.70 L 346.40 265.10 L 350.60 261.80 L 355.20 258.90 L 360.10 256.40 L 365.40 254.20 Z M 382.50 261.80 L 377.60 262.90 L 372.90 264.50 L 368.40 266.50 L 364.10 268.80 L 360.00 271.60 L 352.60 277.90 L 349.20 281.60 L 343.40 289.50 L 338.90 298.30 L 337.10 302.90 L 334.60 312.30 L 334.00 317.10 L 333.70 321.90 L 333.90 326.70 L 334.50 331.50 L 335.50 336.30 L 337.00 340.90 L 339.00 345.40 L 341.50 349.80 L 347.80 358.90 L 351.40 363.10 L 355.40 367.00 L 359.70 370.40 L 364.30 373.40 L 369.10 375.90 L 374.00 378.10 L 379.30 379.80 L 384.60 381.20 L 390.00 382.10 L 395.40 382.60 L 401.00 382.70 L 406.50 382.30 L 412.00 381.60 L 417.30 380.50 L 422.60 378.90 L 427.80 377.00 L 432.70 374.60 L 437.40 371.80 L 441.90 368.70 L 446.10 365.10 L 449.90 361.20 L 453.40 356.80 L 456.60 352.00 L 459.00 347.20 L 460.80 342.30 L 462.10 337.40 L 462.80 332.50 L 463.10 327.50 L 462.90 322.60 L 462.20 317.70 L 461.10 312.80 L 457.70 303.30 L 455.40 298.70 L 452.70 294.30 L 448.80 288.60 L 444.30 283.40 L 439.30 278.50 L 433.90 274.00 L 428.20 270.20 L 422.20 266.80 L 417.40 264.70 L 412.60 263.00 L 407.80 261.70 L 402.80 260.80 L 397.70 260.30 L 392.70 260.30 L 387.60 260.80 L 382.50 261.80 Z" fill="#37384d" fill-rule="nonzero" node-id="63" stroke="none" target-height="150.5" target-width="158.4" target-x="319.7" target-y="248.1"></path><path d="M 562.80 169.50 L 596.80 122.10 L 597.00 169.90 L 562.80 169.50 Z" fill="#fde977" fill-rule="nonzero" node-id="65" stroke="none" target-height="47.799995" target-width="34.200012" target-x="562.8" target-y="122.1"></path><path d="M 443.00 129.70 L 446.10 127.00 L 448.80 124.00 L 451.00 120.70 L 453.90 115.40 L 456.40 109.70 L 462.80 92.30 L 465.20 87.00 L 467.20 83.70 L 469.40 80.60 L 471.90 77.90 L 474.80 75.60 L 478.20 73.60 L 482.30 72.00 L 494.40 103.20 L 506.10 134.70 L 511.40 150.50 L 516.20 166.60 L 530.30 181.70 L 531.80 176.90 L 532.70 172.30 L 533.00 167.80 L 532.70 163.20 L 532.00 158.70 L 530.90 154.20 L 528.70 147.60 L 526.10 141.10 L 531.10 146.40 L 534.20 150.40 L 536.90 154.50 L 539.20 158.90 L 541.10 163.60 L 542.60 168.40 L 543.60 173.60 L 544.30 179.00 L 573.50 137.20 L 543.00 96.00 L 541.40 106.80 L 539.30 117.50 L 536.70 128.20 L 533.60 138.70 L 530.50 107.70 L 528.30 76.70 L 533.80 78.50 L 538.90 80.60 L 543.80 83.10 L 548.30 86.00 L 554.00 90.50 L 559.30 95.40 L 564.30 100.80 L 573.10 112.60 L 577.10 118.90 L 592.50 94.20 L 596.00 97.20 L 598.90 100.30 L 601.40 103.50 L 603.50 106.80 L 605.80 111.60 L 607.40 116.60 L 608.60 121.80 L 609.20 127.10 L 609.40 138.20 L 608.90 146.60 L 605.80 171.20 L 620.60 168.40 L 635.10 165.00 L 649.60 161.10 L 663.80 156.70 L 677.90 151.80 L 691.80 146.30 L 705.50 140.30 L 718.90 133.80 L 732.10 126.70 L 745.10 119.10 L 752.20 115.80 L 767.30 107.90 L 775.10 104.10 L 785.70 99.90 L 790.90 98.30 L 796.30 97.10 L 801.60 96.60 L 806.90 96.70 L 810.80 97.20 L 814.70 98.20 L 818.70 99.70 L 822.80 101.80 L 825.30 106.00 L 827.30 110.30 L 828.80 114.70 L 830.50 123.80 L 830.80 128.50 L 830.70 135.60 L 829.20 150.00 L 825.80 171.10 L 823.40 182.10 L 820.50 192.90 L 817.20 203.60 L 813.40 214.10 L 804.70 234.70 L 799.80 244.70 L 794.50 254.70 L 787.10 267.70 L 779.40 280.50 L 771.30 293.00 L 774.30 312.20 L 775.30 321.90 L 775.90 331.70 L 776.10 341.60 L 775.90 351.40 L 775.20 361.20 L 774.10 370.90 L 772.60 380.60 L 770.50 390.00 L 768.00 399.40 L 764.90 408.50 L 761.40 417.50 L 757.20 426.10 L 752.60 434.50 L 747.30 442.70 L 742.80 448.90 L 737.80 454.90 L 732.50 460.60 L 726.70 466.10 L 720.40 471.40 L 730.70 477.90 L 740.70 484.70 L 750.30 491.90 L 759.70 499.50 L 768.70 507.40 L 777.40 515.70 L 785.90 524.20 L 794.10 533.10 L 804.50 545.40 L 814.50 558.10 L 824.00 571.10 L 833.00 584.60 L 841.60 598.20 L 849.80 612.20 L 857.50 626.40 L 864.90 640.60 L 871.80 655.00 L 877.40 668.60 L 882.70 682.30 L 887.60 696.30 L 892.00 710.50 L 895.80 724.80 L 899.00 739.20 L 901.10 750.00 L 902.70 761.00 L 903.80 771.90 L 904.60 782.90 L 904.90 794.00 L 904.70 805.00 L 903.90 816.10 L 902.60 827.30 L 878.30 825.60 L 877.70 829.80 L 876.60 833.40 L 875.10 836.60 L 873.00 839.60 L 870.60 842.30 L 867.90 844.80 L 863.40 848.10 L 848.60 856.60 L 838.70 836.90 L 829.40 817.20 L 811.30 830.80 L 797.20 821.70 L 792.70 818.20 L 788.50 814.40 L 784.90 810.40 L 782.80 807.40 L 781.10 804.30 L 779.80 801.00 L 779.00 797.50 L 778.70 793.70 L 778.70 779.80 L 780.90 739.50 L 780.90 729.60 L 780.40 723.00 L 779.50 716.50 L 778.20 710.20 L 776.70 705.60 L 774.90 701.00 L 772.70 696.50 L 770.10 692.00 L 765.10 700.60 L 760.60 709.60 L 758.00 715.70 L 755.70 721.90 L 751.50 736.60 L 745.90 752.60 L 742.50 760.40 L 737.60 770.60 L 732.20 780.50 L 726.30 790.20 L 713.50 808.90 L 706.50 817.90 L 695.70 831.10 L 684.40 843.70 L 686.70 865.80 L 689.40 888.10 L 699.00 888.10 L 704.20 887.70 L 728.60 884.90 L 736.70 884.30 L 747.20 884.40 L 752.20 885.10 L 757.00 886.20 L 761.50 887.80 L 765.80 890.10 L 768.70 892.20 L 771.40 894.70 L 774.00 897.70 L 776.40 901.30 L 750.40 912.50 L 752.90 918.10 L 760.60 930.50 L 762.10 933.70 L 763.00 936.60 L 763.20 938.50 L 763.00 940.40 L 762.40 942.10 L 761.40 943.70 L 759.80 945.20 L 757.40 946.80 L 729.50 950.00 L 715.40 951.00 L 701.20 951.60 L 687.10 951.90 L 673.00 951.60 L 658.90 950.90 L 644.90 949.70 L 631.00 948.00 L 627.50 945.50 L 624.60 942.70 L 622.20 939.70 L 620.30 936.40 L 618.60 932.90 L 617.30 929.20 L 615.90 923.30 L 614.90 917.10 L 612.50 891.80 L 611.40 885.80 L 609.90 880.20 L 578.40 885.60 L 562.50 887.80 L 546.60 889.50 L 530.60 890.60 L 514.60 891.20 L 502.70 891.30 L 478.80 890.30 L 466.90 889.20 L 455.00 887.70 L 443.20 885.80 L 431.40 883.40 L 419.70 880.50 L 418.50 887.00 L 417.70 893.90 L 416.20 915.10 L 414.50 926.60 L 411.90 935.10 L 410.00 939.10 L 407.60 942.90 L 404.80 946.40 L 393.10 948.50 L 381.30 950.20 L 369.50 951.20 L 357.60 951.80 L 345.70 952.00 L 333.70 951.80 L 315.80 950.80 L 297.90 949.20 L 262.40 944.80 L 265.50 938.00 L 269.00 931.40 L 272.80 925.20 L 277.10 919.20 L 281.70 913.40 L 255.00 899.80 L 257.60 896.50 L 260.20 893.70 L 263.00 891.40 L 266.00 889.40 L 270.30 887.30 L 274.80 885.70 L 279.60 884.60 L 284.50 884.00 L 294.80 883.70 L 302.80 884.30 L 326.80 887.30 L 334.50 888.20 L 341.50 888.60 L 341.20 882.50 L 343.00 856.20 L 342.80 849.90 L 342.30 845.70 L 341.30 841.90 L 339.80 838.20 L 338.30 835.60 L 336.50 833.20 L 334.20 830.90 L 324.00 822.50 L 309.80 809.30 L 303.40 802.30 L 299.30 797.30 L 292.30 786.80 L 289.30 781.20 L 286.70 775.20 L 284.60 769.00 L 266.60 761.80 L 273.40 745.60 L 252.30 693.30 L 248.90 696.90 L 246.10 700.60 L 243.70 704.40 L 241.90 708.20 L 240.00 713.70 L 238.70 719.20 L 238.00 725.00 L 237.80 736.80 L 238.30 743.00 L 242.10 770.80 L 243.50 786.10 L 243.60 792.10 L 242.60 802.20 L 240.40 810.60 L 238.80 814.60 L 236.90 818.40 L 234.40 822.10 L 231.40 825.80 L 227.80 829.40 L 224.50 834.00 L 222.80 835.40 L 221.10 836.40 L 218.70 837.30 L 216.10 837.60 L 213.40 837.30 L 209.30 836.20 L 205.00 834.40 L 192.50 827.60 L 188.80 825.90 L 186.40 833.00 L 183.50 839.90 L 181.30 844.30 L 178.80 848.40 L 175.90 852.30 L 173.40 854.90 L 167.70 859.60 L 164.30 861.60 L 144.60 830.90 L 140.10 831.60 L 132.80 831.80 L 127.70 830.70 L 125.50 829.50 L 123.60 828.00 L 122.10 826.00 L 121.10 823.80 L 120.50 820.80 L 119.50 804.40 L 119.00 791.80 L 119.10 779.30 L 119.60 766.70 L 120.70 754.20 L 122.10 741.70 L 124.10 729.30 L 126.40 716.90 L 129.20 704.70 L 132.40 692.50 L 136.10 680.40 L 140.10 668.50 L 144.60 656.70 L 149.40 645.10 L 154.60 633.60 L 161.70 619.40 L 169.20 605.60 L 177.30 592.10 L 186.00 578.90 L 195.20 566.10 L 204.80 553.60 L 214.90 541.60 L 231.70 523.60 L 238.10 517.50 L 244.80 511.80 L 255.40 503.80 L 266.30 496.30 L 311.00 467.80 L 306.40 461.20 L 301.50 455.00 L 285.80 436.90 L 278.10 426.30 L 273.10 416.90 L 269.70 409.70 L 266.90 402.40 L 264.50 394.90 L 262.50 387.40 L 260.50 377.20 L 259.10 366.90 L 258.30 356.40 L 258.00 345.90 L 258.20 335.40 L 258.80 324.90 L 259.80 314.40 L 262.60 293.80 L 252.50 277.50 L 242.50 260.80 L 230.20 237.90 L 224.50 226.20 L 219.20 214.30 L 214.50 202.20 L 210.40 190.10 L 207.60 180.80 L 205.30 171.50 L 203.40 162.10 L 201.90 152.60 L 200.90 143.10 L 200.40 133.40 L 200.50 123.70 L 201.00 113.90 L 202.60 109.40 L 204.40 105.70 L 206.30 102.80 L 208.50 100.40 L 211.10 98.30 L 213.80 96.70 L 216.70 95.50 L 219.80 94.70 L 224.10 94.20 L 228.60 94.30 L 233.50 94.90 L 243.20 97.30 L 255.50 102.00 L 262.40 105.20 L 274.80 111.30 L 300.00 125.70 L 312.80 132.50 L 325.80 138.90 L 339.00 144.90 L 352.40 150.40 L 365.90 155.50 L 379.70 160.00 L 393.60 163.90 L 404.10 166.40 L 414.80 168.50 L 425.60 170.20 L 436.60 171.50 L 430.80 161.70 L 425.40 151.60 L 422.10 144.70 L 416.70 130.70 L 414.60 123.40 L 413.10 116.10 L 412.20 108.70 L 411.90 103.10 L 412.10 97.50 L 412.60 91.70 L 413.60 85.80 L 445.00 110.10 L 427.80 124.40 L 435.70 121.10 L 438.60 145.10 L 446.70 157.90 L 455.50 170.40 L 472.00 166.30 L 492.10 174.30 L 482.90 176.10 L 473.70 177.40 L 464.50 178.30 L 455.30 178.80 L 446.10 178.90 L 434.60 178.50 L 423.10 177.60 L 411.70 176.10 L 400.30 174.10 L 389.00 171.60 L 377.80 168.80 L 366.70 165.50 L 355.60 161.70 L 341.00 156.20 L 326.70 150.20 L 312.60 143.60 L 298.70 136.60 L 285.20 129.20 L 272.00 121.60 L 266.60 119.00 L 249.30 110.00 L 243.30 107.30 L 237.40 105.20 L 233.40 104.20 L 229.40 103.70 L 225.40 103.60 L 221.40 104.10 L 217.40 105.20 L 213.30 107.00 L 212.10 115.30 L 211.40 123.40 L 211.20 131.50 L 211.40 139.50 L 212.10 147.50 L 214.60 163.30 L 216.40 171.20 L 219.40 181.50 L 222.90 191.80 L 226.90 202.00 L 231.40 212.00 L 241.40 231.60 L 249.60 246.00 L 258.30 259.90 L 276.20 286.80 L 273.70 296.70 L 271.70 306.80 L 270.10 316.90 L 268.90 327.20 L 268.30 337.40 L 268.20 347.70 L 268.70 357.90 L 269.80 368.00 L 271.40 378.10 L 273.10 385.60 L 275.20 393.00 L 277.70 400.30 L 280.60 407.60 L 283.20 413.00 L 286.10 418.10 L 289.40 423.00 L 294.80 430.00 L 300.70 436.60 L 307.00 442.90 L 326.50 461.30 L 334.60 473.60 L 320.20 479.70 L 306.00 486.40 L 287.60 496.40 L 278.70 501.80 L 270.10 507.60 L 261.70 513.70 L 253.70 520.30 L 246.00 527.30 L 238.60 534.70 L 223.20 551.80 L 215.00 561.40 L 207.30 571.30 L 200.00 581.60 L 193.20 592.10 L 186.80 603.00 L 182.40 611.40 L 174.70 628.50 L 171.20 637.40 L 189.90 649.70 L 206.90 665.90 L 223.90 649.50 L 235.50 662.20 L 237.00 664.50 L 242.40 652.90 L 257.40 618.50 L 262.70 607.10 L 268.50 596.10 L 277.10 582.00 L 281.80 575.30 L 286.90 569.00 L 292.40 563.00 L 298.30 557.30 L 308.10 549.70 L 319.10 543.00 L 314.40 549.90 L 293.20 577.00 L 288.30 584.00 L 282.80 593.70 L 280.60 598.80 L 278.80 604.10 L 277.40 609.60 L 276.60 615.30 L 275.70 639.30 L 276.00 663.50 L 276.90 675.50 L 278.20 687.40 L 279.60 696.40 L 283.40 713.90 L 285.80 722.60 L 288.60 731.10 L 291.90 739.50 L 295.60 747.70 L 303.30 762.80 L 307.10 769.40 L 311.40 775.80 L 318.20 785.10 L 325.60 794.00 L 333.30 802.60 L 357.30 827.80 L 354.00 861.20 L 352.40 881.00 L 351.10 900.90 L 323.90 905.60 L 302.90 938.80 L 322.10 939.90 L 341.30 940.40 L 360.60 940.50 L 379.90 940.10 L 399.20 939.20 L 404.40 897.40 L 410.70 855.90 L 422.20 859.60 L 433.90 862.90 L 445.70 865.70 L 457.60 868.10 L 469.50 869.90 L 481.60 871.30 L 493.60 872.10 L 505.70 872.30 L 515.40 872.10 L 525.00 871.50 L 534.60 870.40 L 544.20 869.00 L 561.10 865.70 L 583.00 860.20 L 597.70 857.10 L 602.70 856.50 L 612.50 856.30 L 617.40 856.80 L 622.30 857.70 L 627.30 859.10 L 627.30 866.60 L 625.80 897.80 L 626.40 910.60 L 628.20 920.50 L 629.70 925.30 L 631.70 929.90 L 634.20 934.40 L 639.40 936.50 L 644.70 938.20 L 650.00 939.30 L 661.10 940.60 L 675.30 940.70 L 701.20 939.10 L 718.10 938.70 L 712.70 908.00 L 679.30 906.10 L 676.20 893.20 L 673.70 880.30 L 671.60 867.30 L 670.00 854.20 L 668.90 841.00 L 668.20 827.90 L 675.90 819.70 L 683.20 811.30 L 690.10 802.60 L 696.70 793.50 L 702.90 784.20 L 708.70 774.70 L 714.10 765.00 L 719.10 755.00 L 723.60 744.80 L 727.70 734.50 L 731.30 724.00 L 734.50 713.40 L 737.10 702.60 L 739.20 691.70 L 740.90 680.70 L 742.00 669.70 L 742.50 658.50 L 742.50 647.40 L 741.90 636.20 L 739.70 616.00 L 738.10 607.40 L 735.90 599.10 L 733.20 590.90 L 730.00 582.80 L 726.40 574.90 L 720.50 563.40 L 713.90 552.00 L 685.60 508.00 L 691.50 511.60 L 697.00 515.40 L 702.10 519.50 L 706.80 523.80 L 712.80 529.90 L 718.40 536.30 L 723.50 543.10 L 732.70 557.40 L 736.90 564.90 L 743.00 576.40 L 760.40 611.50 L 766.60 623.00 L 773.40 634.00 L 778.20 641.20 L 783.50 648.00 L 789.10 654.50 L 802.20 646.60 L 809.10 643.20 L 816.00 640.40 L 820.80 638.90 L 825.70 637.80 L 830.60 637.10 L 835.60 636.90 L 840.70 637.10 L 846.00 638.00 L 831.80 613.40 L 824.20 601.40 L 816.20 589.60 L 807.90 578.00 L 799.30 566.70 L 790.30 555.70 L 780.90 545.00 L 771.20 534.70 L 761.00 524.80 L 750.50 515.30 L 739.60 506.30 L 730.60 499.40 L 721.40 492.80 L 711.90 486.60 L 702.10 480.70 L 692.00 475.20 L 701.00 467.40 L 709.70 459.20 L 718.10 450.50 L 724.00 443.60 L 729.60 436.60 L 734.90 429.30 L 739.80 421.80 L 744.30 414.10 L 748.30 406.10 L 751.80 398.00 L 754.80 389.60 L 756.80 382.80 L 758.40 375.90 L 759.60 368.80 L 761.20 348.60 L 761.20 337.40 L 759.20 311.90 L 759.00 303.50 L 759.30 298.00 L 760.00 292.60 L 761.20 287.30 L 764.00 279.70 L 766.10 276.00 L 775.10 262.30 L 781.30 252.10 L 793.00 231.00 L 798.20 220.10 L 803.00 209.10 L 807.30 197.90 L 811.00 186.60 L 814.20 175.10 L 816.10 166.40 L 817.70 157.70 L 818.80 148.90 L 819.50 140.00 L 819.80 131.10 L 819.60 122.10 L 818.90 113.00 L 817.70 103.90 L 810.40 104.60 L 803.20 105.80 L 796.30 107.50 L 782.80 112.00 L 766.40 119.30 L 728.20 139.70 L 709.00 149.20 L 699.30 153.40 L 689.50 157.30 L 679.50 160.80 L 666.00 164.90 L 652.40 168.60 L 638.60 171.80 L 617.80 176.00 L 596.90 179.60 L 584.80 181.20 L 572.50 182.60 L 560.20 183.60 L 547.90 184.00 L 539.70 183.90 L 523.50 182.50 L 515.50 181.10 L 507.50 179.30 L 499.60 177.00 L 500.10 166.20 L 499.90 155.30 L 499.50 148.10 L 497.50 133.80 L 495.90 126.80 L 493.90 120.00 L 491.40 113.30 L 488.40 106.80 L 484.90 100.50 L 480.70 94.50 L 478.30 90.30 L 475.20 98.40 L 473.20 104.60 L 471.70 110.90 L 470.10 120.40 L 469.00 130.10 L 467.60 149.70 L 443.00 129.70 Z M 562.80 169.50 L 597.00 169.90 L 596.80 122.10 L 562.80 169.50 Z M 164.90 650.60 L 159.40 661.80 L 154.40 673.10 L 149.90 684.60 L 145.70 696.20 L 142.00 708.00 L 138.90 719.90 L 136.20 731.90 L 134.10 744.00 L 132.50 756.20 L 131.50 768.50 L 131.10 780.90 L 131.30 793.40 L 156.90 781.30 L 168.50 806.70 L 170.50 804.80 L 172.80 801.90 L 179.90 791.30 L 185.10 784.90 L 187.70 782.80 L 189.60 781.80 L 191.50 781.40 L 193.40 781.50 L 195.20 782.20 L 197.20 783.70 L 199.50 786.20 L 205.30 794.60 L 210.50 801.00 L 213.20 803.60 L 217.00 806.10 L 218.70 806.80 L 220.50 807.00 L 222.20 806.60 L 223.90 805.70 L 225.30 804.20 L 226.80 801.90 L 228.20 798.40 L 226.50 757.70 L 225.90 737.30 L 225.90 716.90 L 226.90 689.70 L 228.00 676.10 L 221.50 680.00 L 215.30 684.30 L 203.50 693.80 L 192.10 703.80 L 190.80 666.50 L 164.90 650.60 Z M 811.50 648.30 L 812.80 654.10 L 819.60 678.40 L 821.10 688.50 L 820.80 696.50 L 820.00 700.40 L 818.70 704.30 L 816.70 708.30 L 814.90 705.80 L 806.90 691.50 L 804.60 688.60 L 802.90 686.90 L 801.00 685.90 L 799.00 685.30 L 797.50 685.30 L 793.90 686.40 L 791.70 687.80 L 791.10 723.80 L 791.10 795.90 L 793.90 798.30 L 796.20 799.70 L 798.40 800.30 L 800.60 800.40 L 802.70 800.00 L 804.80 799.00 L 808.60 796.00 L 810.50 793.90 L 813.10 790.60 L 820.50 779.70 L 823.00 776.60 L 825.20 774.30 L 850.30 798.80 L 867.60 784.70 L 891.60 798.00 L 891.80 788.60 L 891.50 779.30 L 890.80 770.10 L 889.70 761.00 L 887.60 748.90 L 885.00 736.90 L 881.90 725.00 L 876.50 707.30 L 858.30 655.00 L 853.80 657.80 L 849.40 660.00 L 845.30 661.50 L 841.30 662.50 L 837.20 662.90 L 833.20 662.70 L 829.30 661.80 L 825.50 660.40 L 822.00 658.40 L 818.50 655.80 L 815.00 652.40 L 811.50 648.30 Z M 791.00 667.60 L 796.70 665.30 L 800.10 665.00 L 801.20 665.40 L 802.00 666.10 L 802.60 668.10 L 801.90 671.50 L 799.60 675.50 L 797.00 677.70 L 794.90 678.10 L 794.00 677.80 L 793.10 677.00 L 792.20 675.50 L 791.20 671.30 L 791.00 667.60 Z" fill="#363c60" fill-rule="nonzero" node-id="67" stroke="none" target-height="880" target-width="785.9" target-x="119" target-y="72"></path><path d="M 478.30 90.30 L 480.70 94.50 L 477.60 92.30 L 478.30 90.30 Z" fill="#f9f7b2" fill-rule="nonzero" node-id="69" stroke="none" target-height="4.199997" target-width="3.100006" target-x="477.6" target-y="90.3"></path><path d="M 467.60 149.70 L 469.00 130.10 L 470.10 120.40 L 471.70 110.90 L 473.20 104.60 L 475.20 98.40 L 477.60 92.30 L 480.70 94.50 L 484.90 100.50 L 488.40 106.80 L 491.40 113.30 L 493.90 120.00 L 495.90 126.80 L 497.50 133.80 L 499.50 148.10 L 499.90 155.30 L 500.10 166.20 L 499.60 177.00 L 492.10 174.30 L 472.00 166.30 L 455.50 170.40 L 446.70 157.90 L 438.60 145.10 L 443.00 129.70 L 467.60 149.70 Z" fill="#fced4e" fill-rule="nonzero" node-id="71" stroke="none" target-height="84.7" target-width="61.5" target-x="438.6" target-y="92.3"></path><path d="M 213.30 107.00 L 217.40 105.20 L 221.40 104.10 L 225.40 103.60 L 229.40 103.70 L 233.40 104.20 L 237.40 105.20 L 243.30 107.30 L 249.30 110.00 L 266.60 119.00 L 272.00 121.60 L 285.20 129.20 L 298.70 136.60 L 312.60 143.60 L 326.70 150.20 L 341.00 156.20 L 355.60 161.70 L 366.70 165.50 L 377.80 168.80 L 389.00 171.60 L 400.30 174.10 L 411.70 176.10 L 423.10 177.60 L 434.60 178.50 L 446.10 178.90 L 455.30 178.80 L 464.50 178.30 L 473.70 177.40 L 482.90 176.10 L 492.10 174.30 L 507.50 179.30 L 515.50 181.10 L 523.50 182.50 L 531.60 183.40 L 547.90 184.00 L 560.20 183.60 L 572.50 182.60 L 596.90 179.60 L 617.80 176.00 L 638.60 171.80 L 652.40 168.60 L 666.00 164.90 L 679.50 160.80 L 689.50 157.30 L 699.30 153.40 L 709.00 149.20 L 728.20 139.70 L 766.40 119.30 L 782.80 112.00 L 796.30 107.50 L 803.20 105.80 L 810.40 104.60 L 817.70 103.90 L 818.90 113.00 L 819.60 122.10 L 819.80 131.10 L 819.50 140.00 L 818.80 148.90 L 817.70 157.70 L 816.10 166.40 L 814.20 175.10 L 811.00 186.60 L 807.30 197.90 L 803.00 209.10 L 798.20 220.10 L 793.00 231.00 L 781.30 252.10 L 775.10 262.30 L 766.10 276.00 L 764.00 279.70 L 762.40 283.50 L 761.20 287.30 L 760.00 292.60 L 759.30 298.00 L 759.00 303.50 L 759.20 311.90 L 761.20 337.40 L 761.20 348.60 L 759.60 368.80 L 758.40 375.90 L 756.80 382.80 L 754.80 389.60 L 751.80 398.00 L 748.30 406.10 L 744.30 414.10 L 739.80 421.80 L 734.90 429.30 L 729.60 436.60 L 724.00 443.60 L 718.10 450.50 L 709.70 459.20 L 701.00 467.40 L 692.00 475.20 L 702.10 480.70 L 711.90 486.60 L 721.40 492.80 L 730.60 499.40 L 739.60 506.30 L 750.50 515.30 L 761.00 524.80 L 771.20 534.70 L 780.90 545.00 L 790.30 555.70 L 799.30 566.70 L 807.90 578.00 L 816.20 589.60 L 824.20 601.40 L 831.80 613.40 L 846.00 638.00 L 840.70 637.10 L 835.60 636.90 L 830.60 637.10 L 825.70 637.80 L 820.80 638.90 L 816.00 640.40 L 809.10 643.20 L 802.20 646.60 L 789.10 654.50 L 783.50 648.00 L 778.20 641.20 L 773.40 634.00 L 766.60 623.00 L 760.40 611.50 L 743.00 576.40 L 736.90 564.90 L 732.70 557.40 L 723.50 543.10 L 718.40 536.30 L 712.80 529.90 L 706.80 523.80 L 702.10 519.50 L 697.00 515.40 L 691.50 511.60 L 685.60 508.00 L 706.90 540.90 L 713.90 552.00 L 720.50 563.40 L 726.40 574.90 L 730.00 582.80 L 733.20 590.90 L 735.90 599.10 L 738.10 607.40 L 739.70 616.00 L 740.70 624.90 L 741.90 636.20 L 742.50 647.40 L 742.50 658.50 L 742.00 669.70 L 740.90 680.70 L 739.20 691.70 L 737.10 702.60 L 734.50 713.40 L 731.30 724.00 L 727.70 734.50 L 723.60 744.80 L 719.10 755.00 L 714.10 765.00 L 708.70 774.70 L 702.90 784.20 L 696.70 793.50 L 690.10 802.60 L 683.20 811.30 L 675.90 819.70 L 668.20 827.90 L 655.10 842.70 L 647.00 850.00 L 639.80 854.70 L 635.90 856.50 L 631.70 858.00 L 627.30 859.10 L 622.30 857.70 L 617.40 856.80 L 612.50 856.30 L 602.70 856.50 L 590.40 858.50 L 561.10 865.70 L 544.20 869.00 L 534.60 870.40 L 525.00 871.50 L 515.40 872.10 L 505.70 872.30 L 493.60 872.10 L 481.60 871.30 L 469.50 869.90 L 457.60 868.10 L 445.70 865.70 L 433.90 862.90 L 422.20 859.60 L 410.70 855.90 L 397.10 852.00 L 356.10 841.50 L 357.30 827.80 L 333.30 802.60 L 325.60 794.00 L 318.20 785.10 L 311.40 775.80 L 307.10 769.40 L 303.30 762.80 L 295.60 747.70 L 291.90 739.50 L 288.60 731.10 L 285.80 722.60 L 281.30 705.20 L 278.20 687.40 L 276.90 675.50 L 276.00 663.50 L 275.70 639.30 L 276.60 615.30 L 277.40 609.60 L 278.80 604.10 L 280.60 598.80 L 282.80 593.70 L 288.30 584.00 L 293.20 577.00 L 314.40 549.90 L 319.10 543.00 L 308.10 549.70 L 298.30 557.30 L 292.40 563.00 L 286.90 569.00 L 281.80 575.30 L 277.10 582.00 L 268.50 596.10 L 262.70 607.10 L 257.40 618.50 L 237.40 664.00 L 223.90 649.50 L 206.90 665.90 L 189.90 649.70 L 176.40 640.90 L 179.50 634.00 L 186.60 620.70 L 192.50 611.10 L 211.10 582.70 L 217.00 573.10 L 222.50 563.30 L 229.00 549.70 L 231.70 542.60 L 238.60 534.70 L 246.00 527.30 L 253.70 520.30 L 261.70 513.70 L 270.10 507.60 L 278.70 501.80 L 296.70 491.20 L 306.00 486.40 L 320.20 479.70 L 334.60 473.60 L 326.50 461.30 L 309.80 428.20 L 299.40 405.80 L 294.70 394.40 L 289.90 380.60 L 288.10 373.50 L 285.90 362.80 L 284.30 352.00 L 279.70 308.40 L 278.20 297.50 L 276.20 286.80 L 258.30 259.90 L 249.60 246.00 L 241.40 231.60 L 236.20 221.80 L 226.90 202.00 L 222.90 191.80 L 219.40 181.50 L 216.40 171.20 L 214.60 163.30 L 212.10 147.50 L 211.40 139.50 L 211.20 131.50 L 211.40 123.40 L 212.10 115.30 L 213.30 107.00 Z M 233.20 133.90 L 234.90 151.10 L 238.10 169.00 L 240.30 177.90 L 242.90 186.80 L 246.00 195.40 L 249.50 203.80 L 253.60 211.90 L 257.00 217.70 L 260.70 223.20 L 264.70 228.40 L 269.00 233.40 L 273.70 238.00 L 278.80 242.10 L 284.20 245.90 L 290.00 249.30 L 283.10 241.00 L 276.60 232.50 L 270.40 223.70 L 264.80 214.60 L 259.60 205.20 L 255.10 195.50 L 252.00 188.10 L 249.40 180.60 L 244.10 160.90 L 241.50 148.20 L 240.30 144.10 L 238.70 140.30 L 237.30 138.00 L 235.40 135.90 L 233.20 133.90 Z M 242.50 136.10 L 246.80 140.60 L 251.30 144.70 L 256.10 148.40 L 263.80 153.40 L 296.20 171.40 L 303.90 176.40 L 310.50 180.30 L 320.50 187.10 L 326.30 189.90 L 331.20 190.80 L 333.70 190.70 L 336.30 190.20 L 339.20 189.10 L 327.90 181.00 L 316.50 173.30 L 304.70 166.10 L 292.70 159.20 L 280.40 152.70 L 267.90 146.80 L 255.30 141.20 L 242.50 136.10 Z M 707.80 177.80 L 704.20 179.90 L 701.00 182.20 L 698.20 184.90 L 695.90 187.90 L 693.90 191.30 L 692.30 195.20 L 704.60 189.30 L 716.70 183.10 L 764.50 157.00 L 776.60 150.80 L 788.90 144.90 L 789.00 157.00 L 787.60 168.50 L 785.90 176.10 L 783.80 183.50 L 781.10 190.80 L 774.50 204.90 L 770.70 211.80 L 764.50 221.80 L 757.90 231.70 L 744.30 250.60 L 750.00 246.90 L 755.30 242.80 L 760.30 238.30 L 764.90 233.50 L 773.20 223.10 L 776.90 217.40 L 780.30 211.60 L 784.40 203.50 L 787.90 195.10 L 791.00 186.40 L 793.60 177.60 L 795.60 168.70 L 797.30 159.70 L 798.50 150.70 L 799.20 141.80 L 799.60 133.10 L 788.90 137.10 L 768.00 146.00 L 752.70 153.50 L 737.60 161.40 L 707.80 177.80 Z M 258.90 171.20 L 265.60 184.30 L 269.50 190.50 L 273.80 196.40 L 277.10 200.10 L 284.50 206.70 L 287.90 190.60 L 314.90 190.70 L 298.30 185.30 L 281.90 180.60 L 258.90 171.20 Z M 752.60 205.00 L 755.30 203.90 L 757.90 202.20 L 760.30 200.10 L 764.30 194.90 L 765.90 191.80 L 767.30 188.60 L 769.00 182.10 L 769.40 178.70 L 769.00 172.80 L 766.10 172.60 L 763.50 173.00 L 761.10 174.00 L 758.90 175.50 L 757.00 177.40 L 753.90 182.30 L 751.90 188.00 L 750.90 194.10 L 751.20 200.00 L 752.60 205.00 Z M 730.50 190.10 L 726.10 191.60 L 724.50 192.70 L 722.00 195.70 L 720.90 199.00 L 720.90 202.20 L 721.30 203.80 L 723.00 206.10 L 724.20 206.90 L 725.70 207.40 L 727.50 207.50 L 729.40 207.20 L 731.60 206.40 L 734.30 204.80 L 737.10 204.00 L 739.40 202.80 L 741.10 201.40 L 742.40 199.60 L 743.30 197.70 L 743.80 195.80 L 743.80 193.80 L 743.50 192.00 L 742.70 190.40 L 741.60 189.10 L 740.20 188.20 L 738.20 187.70 L 736.20 187.80 L 733.70 188.50 L 730.50 190.10 Z M 286.40 216.70 L 286.30 220.20 L 286.70 223.00 L 287.60 225.10 L 288.90 226.90 L 290.60 228.20 L 292.70 229.20 L 295.50 229.70 L 299.10 229.80 L 302.10 227.50 L 304.50 225.20 L 306.20 222.80 L 307.50 220.20 L 308.20 217.60 L 308.50 214.70 L 308.30 211.70 L 307.50 208.30 L 303.70 207.70 L 300.30 207.70 L 297.20 208.30 L 294.20 209.50 L 291.50 211.20 L 288.90 213.60 L 286.40 216.70 Z M 504.00 234.40 L 502.20 235.90 L 500.90 237.70 L 499.30 241.90 L 499.00 246.50 L 499.50 250.00 L 500.60 253.30 L 502.90 257.00 L 506.00 259.50 L 507.80 260.10 L 509.80 260.30 L 511.80 260.00 L 513.90 259.10 L 516.40 257.40 L 517.90 255.90 L 519.10 254.20 L 519.90 252.20 L 520.70 247.90 L 520.70 245.60 L 520.10 242.20 L 519.00 239.10 L 518.00 237.10 L 515.40 234.10 L 513.80 233.00 L 512.10 232.30 L 510.20 232.10 L 508.40 232.30 L 506.30 233.00 L 504.00 234.40 Z M 600.10 244.40 L 594.40 246.60 L 588.90 249.20 L 583.60 252.20 L 578.60 255.70 L 573.90 259.60 L 569.60 263.80 L 565.50 268.40 L 561.70 273.20 L 558.30 278.30 L 555.30 283.60 L 552.70 289.10 L 550.50 294.80 L 548.70 300.60 L 547.40 306.40 L 546.50 312.30 L 546.10 318.30 L 546.20 324.30 L 546.80 330.10 L 547.90 336.00 L 549.60 341.70 L 551.80 347.30 L 554.60 352.70 L 558.00 358.00 L 565.90 367.90 L 569.90 372.20 L 574.20 376.00 L 578.70 379.40 L 583.60 382.40 L 588.50 385.00 L 593.70 387.10 L 599.10 388.90 L 610.10 391.20 L 621.40 392.00 L 629.00 391.70 L 636.60 390.80 L 644.10 389.20 L 651.50 387.00 L 658.50 384.20 L 665.40 380.90 L 670.30 378.00 L 675.00 374.80 L 683.60 367.50 L 687.50 363.40 L 691.00 359.00 L 694.20 354.40 L 697.00 349.50 L 699.40 344.40 L 701.40 339.00 L 702.90 333.30 L 704.90 321.30 L 705.20 315.40 L 705.10 309.50 L 704.50 303.80 L 703.30 298.10 L 701.80 292.60 L 699.80 287.30 L 697.40 282.10 L 694.70 277.00 L 691.60 272.20 L 688.10 267.70 L 684.40 263.30 L 680.30 259.20 L 671.40 252.00 L 666.60 248.90 L 661.60 246.00 L 656.50 243.60 L 651.20 241.60 L 645.70 240.00 L 640.20 238.80 L 634.60 238.10 L 628.90 237.90 L 623.10 238.10 L 617.40 238.80 L 611.70 240.10 L 605.90 241.90 L 600.10 244.40 Z M 365.40 254.20 L 360.10 256.40 L 355.20 258.90 L 350.70 261.80 L 346.40 265.10 L 342.30 268.70 L 338.70 272.60 L 335.30 276.70 L 332.20 281.20 L 329.50 285.80 L 325.00 295.60 L 323.20 300.80 L 321.40 307.80 L 320.30 314.90 L 319.70 322.20 L 319.70 327.60 L 320.10 333.00 L 322.00 343.60 L 323.50 348.70 L 325.50 353.70 L 327.70 358.50 L 330.40 363.20 L 333.50 367.70 L 337.00 371.80 L 340.90 375.80 L 350.10 383.60 L 355.10 387.10 L 360.20 390.20 L 365.60 392.70 L 371.20 394.80 L 376.80 396.40 L 382.60 397.60 L 388.40 398.30 L 394.30 398.60 L 400.20 398.40 L 406.10 397.90 L 412.00 396.90 L 417.80 395.60 L 429.00 391.80 L 439.80 386.50 L 444.80 383.30 L 449.60 379.80 L 454.10 376.00 L 458.40 371.90 L 462.40 367.50 L 465.90 362.80 L 469.20 357.80 L 472.00 352.50 L 474.40 347.10 L 476.30 341.30 L 477.80 335.20 L 478.10 329.20 L 477.90 323.30 L 477.20 317.50 L 476.00 311.90 L 474.30 306.30 L 472.30 300.90 L 469.80 295.60 L 466.90 290.50 L 460.20 281.00 L 456.30 276.60 L 452.20 272.40 L 443.10 264.90 L 433.20 258.60 L 427.90 255.90 L 422.50 253.60 L 411.40 250.20 L 405.60 249.00 L 399.90 248.40 L 394.10 248.10 L 388.30 248.30 L 382.50 249.00 L 376.80 250.20 L 371.10 251.90 L 365.40 254.20 Z M 495.70 374.40 L 492.00 376.30 L 490.20 378.00 L 487.90 381.00 L 486.10 384.40 L 485.20 386.80 L 484.40 391.40 L 484.60 393.70 L 485.20 395.50 L 486.20 397.10 L 487.30 398.00 L 490.40 399.20 L 502.00 400.60 L 512.60 401.30 L 518.00 401.20 L 523.00 400.60 L 526.30 399.90 L 531.60 397.50 L 533.90 395.90 L 535.60 393.80 L 536.90 391.20 L 537.80 386.90 L 537.20 380.80 L 532.70 377.60 L 524.20 373.00 L 517.00 370.40 L 513.30 369.70 L 509.70 369.50 L 506.10 369.80 L 503.40 370.40 L 498.30 372.60 L 495.70 374.40 Z M 571.30 418.50 L 552.50 421.50 L 533.70 423.90 L 521.00 425.10 L 508.40 425.80 L 495.70 426.00 L 486.30 425.80 L 467.40 424.20 L 435.50 419.30 L 427.90 418.40 L 420.40 417.80 L 412.90 417.90 L 407.90 418.30 L 402.90 419.20 L 398.00 420.40 L 401.90 426.50 L 406.10 432.10 L 410.50 437.40 L 415.20 442.30 L 420.10 446.80 L 426.70 452.10 L 433.60 456.90 L 440.80 461.10 L 448.30 464.80 L 456.00 468.00 L 464.00 470.70 L 472.10 473.00 L 480.40 474.70 L 488.90 475.90 L 497.30 476.70 L 505.90 476.90 L 514.50 476.70 L 523.10 476.00 L 531.60 474.90 L 540.10 473.30 L 548.50 471.20 L 556.80 468.70 L 564.80 465.70 L 572.70 462.30 L 580.30 458.50 L 587.70 454.20 L 594.80 449.50 L 601.50 444.40 L 607.90 438.90 L 614.00 433.00 L 619.50 426.60 L 624.60 419.90 L 629.30 412.70 L 624.40 411.50 L 619.50 410.80 L 614.70 410.70 L 605.00 411.40 L 600.10 412.20 L 578.40 417.20 L 571.30 418.50 Z M 416.40 572.50 L 422.10 569.80 L 425.60 569.30 L 426.80 569.60 L 427.60 570.20 L 428.40 572.10 L 428.00 575.40 L 425.90 579.50 L 423.30 581.80 L 421.30 582.40 L 420.30 582.10 L 419.30 581.40 L 418.30 580.00 L 417.00 576.00 L 416.40 572.50 Z M 437.70 684.70 L 438.00 690.80 L 438.80 696.60 L 440.00 702.30 L 441.60 707.70 L 445.80 718.10 L 451.40 728.00 L 455.80 734.20 L 460.50 740.20 L 465.70 745.90 L 476.90 756.70 L 482.80 761.80 L 500.90 775.90 L 519.10 774.60 L 537.50 773.80 L 535.70 777.00 L 533.60 779.80 L 531.20 782.20 L 525.60 786.20 L 522.50 787.90 L 517.70 790.10 L 502.50 795.70 L 497.50 797.80 L 493.00 800.20 L 485.20 798.80 L 477.40 797.10 L 469.80 794.90 L 462.20 792.30 L 454.80 789.30 L 447.70 785.90 L 440.80 782.10 L 434.10 777.80 L 427.70 773.10 L 421.80 768.10 L 416.20 762.60 L 411.00 756.70 L 407.20 751.70 L 403.80 746.50 L 400.60 741.00 L 397.80 735.20 L 395.40 729.10 L 392.80 724.30 L 390.80 719.50 L 389.20 714.50 L 387.50 706.80 L 383.40 675.50 L 381.60 668.00 L 380.00 663.10 L 377.90 658.40 L 375.30 653.70 L 384.60 652.20 L 387.20 640.90 L 390.20 629.80 L 393.50 618.80 L 404.80 586.30 L 399.20 589.90 L 393.90 593.80 L 388.90 598.00 L 384.30 602.70 L 380.00 607.70 L 376.10 612.90 L 372.60 618.40 L 369.50 624.20 L 366.70 630.20 L 364.30 636.30 L 362.40 642.60 L 360.80 649.00 L 359.60 655.50 L 358.90 662.10 L 358.60 668.70 L 358.80 675.30 L 359.20 684.20 L 360.20 692.90 L 361.80 701.50 L 363.90 710.00 L 366.60 718.30 L 369.80 726.40 L 373.50 734.30 L 377.70 742.00 L 382.30 749.40 L 387.30 756.60 L 392.70 763.40 L 398.60 770.00 L 404.80 776.30 L 411.30 782.20 L 418.10 787.70 L 425.20 792.80 L 432.60 797.50 L 440.30 801.80 L 448.10 805.70 L 456.20 809.00 L 464.10 811.90 L 472.10 814.20 L 480.10 815.90 L 488.30 817.10 L 496.50 817.80 L 504.70 817.90 L 512.90 817.60 L 521.10 816.70 L 529.30 815.40 L 537.30 813.70 L 545.30 811.50 L 553.20 808.90 L 561.00 805.90 L 568.60 802.50 L 576.00 798.70 L 583.20 794.60 L 590.20 790.10 L 596.90 785.30 L 603.30 780.10 L 609.40 774.70 L 614.60 769.10 L 624.00 757.10 L 632.20 744.10 L 639.10 730.30 L 644.60 715.80 L 648.70 700.90 L 651.20 685.70 L 651.80 678.10 L 652.10 670.50 L 651.90 662.80 L 651.30 655.20 L 650.20 647.70 L 648.70 640.20 L 646.70 632.90 L 644.20 625.60 L 641.30 618.60 L 637.80 611.70 L 633.80 604.90 L 629.80 599.60 L 625.50 594.90 L 621.10 590.60 L 616.50 586.70 L 611.70 583.30 L 605.30 579.50 L 598.80 576.30 L 592.00 573.70 L 585.00 571.60 L 577.90 570.10 L 570.60 569.20 L 563.30 568.70 L 555.70 568.80 L 548.30 569.40 L 540.80 570.40 L 533.40 571.90 L 525.90 573.90 L 518.60 576.30 L 511.40 579.10 L 504.40 582.40 L 497.50 586.00 L 490.80 590.00 L 484.40 594.40 L 478.30 599.10 L 472.50 604.10 L 466.90 609.50 L 461.80 615.10 L 457.10 621.00 L 452.80 627.20 L 449.00 633.70 L 445.60 640.40 L 442.80 647.30 L 440.60 654.40 L 439.20 660.20 L 438.20 666.10 L 437.60 672.10 L 437.40 678.30 L 437.70 684.70 Z" fill="#f4ad27" fill-rule="nonzero" node-id="73" stroke="none" target-height="768.7" target-width="669.6" target-x="176.4" target-y="103.6"></path><path d="M 543.00 96.00 L 573.50 137.20 L 544.30 179.00 L 543.60 173.60 L 542.60 168.40 L 541.10 163.60 L 539.20 158.90 L 536.90 154.50 L 534.20 150.40 L 531.10 146.40 L 536.70 128.20 L 539.30 117.50 L 541.40 106.80 L 543.00 96.00 Z" fill="#f1e775" fill-rule="nonzero" node-id="75" stroke="none" target-height="83" target-width="42.400024" target-x="531.1" target-y="96"></path><path d="M 752.60 205.00 L 751.20 200.00 L 750.90 197.10 L 751.20 191.10 L 751.90 188.00 L 752.80 185.00 L 755.30 179.70 L 757.00 177.40 L 758.90 175.50 L 761.10 174.00 L 763.50 173.00 L 766.10 172.60 L 769.00 172.80 L 769.40 178.70 L 768.30 185.30 L 765.90 191.80 L 762.40 197.60 L 760.30 200.10 L 757.90 202.20 L 755.30 203.90 L 752.60 205.00 Z" fill="#734e25" fill-rule="nonzero" node-id="77" stroke="none" target-height="32.399994" target-width="18.5" target-x="750.9" target-y="172.6"></path><path d="M 730.50 190.10 L 733.70 188.50 L 736.20 187.80 L 738.20 187.70 L 740.20 188.20 L 741.60 189.10 L 742.70 190.40 L 743.50 192.00 L 743.80 193.80 L 743.80 195.80 L 743.30 197.70 L 742.40 199.60 L 741.10 201.40 L 739.40 202.80 L 737.10 204.00 L 734.30 204.80 L 731.60 206.40 L 729.40 207.20 L 727.50 207.50 L 725.70 207.40 L 724.20 206.90 L 723.00 206.10 L 721.30 203.80 L 720.70 200.60 L 721.30 197.30 L 723.10 194.10 L 726.10 191.60 L 730.50 190.10 Z" fill="#7c5c30" fill-rule="nonzero" node-id="79" stroke="none" target-height="19.800003" target-width="23.099976" target-x="720.7" target-y="187.7"></path><path d="M 286.40 216.70 L 288.90 213.60 L 291.50 211.20 L 294.20 209.50 L 297.20 208.30 L 300.30 207.70 L 303.70 207.70 L 307.50 208.30 L 308.30 211.70 L 308.50 214.70 L 308.20 217.60 L 307.50 220.20 L 306.20 222.80 L 304.50 225.20 L 302.10 227.50 L 299.10 229.80 L 295.50 229.70 L 292.70 229.20 L 290.60 228.20 L 288.90 226.90 L 287.60 225.10 L 286.70 223.00 L 286.30 220.20 L 286.40 216.70 Z" fill="#8c5825" fill-rule="nonzero" node-id="81" stroke="none" target-height="22.100006" target-width="22.200012" target-x="286.3" target-y="207.7"></path><path d="M 504.00 234.40 L 506.30 233.00 L 508.40 232.30 L 510.20 232.10 L 512.10 232.30 L 513.80 233.00 L 515.40 234.10 L 518.00 237.10 L 519.00 239.10 L 520.10 242.20 L 520.70 247.90 L 519.90 252.20 L 519.10 254.20 L 516.40 257.40 L 513.90 259.10 L 511.80 260.00 L 509.80 260.30 L 507.80 260.10 L 506.00 259.50 L 504.40 258.40 L 501.70 255.30 L 500.60 253.30 L 499.50 250.00 L 498.90 246.50 L 499.00 244.10 L 499.90 239.70 L 500.90 237.70 L 502.20 235.90 L 504.00 234.40 Z" fill="#7d6440" fill-rule="nonzero" node-id="85" stroke="none" target-height="28.199982" target-width="21.800018" target-x="498.9" target-y="232.1"></path><path d="M 382.50 261.80 L 387.60 260.80 L 392.70 260.30 L 397.70 260.30 L 402.80 260.80 L 407.80 261.70 L 412.60 263.00 L 417.40 264.70 L 422.20 266.80 L 428.20 270.20 L 433.90 274.00 L 439.30 278.50 L 444.30 283.40 L 448.80 288.60 L 452.80 294.30 L 455.40 298.70 L 457.70 303.30 L 461.10 312.80 L 462.20 317.70 L 462.90 322.60 L 463.10 327.50 L 462.80 332.50 L 462.10 337.40 L 460.80 342.30 L 459.00 347.20 L 456.60 352.00 L 453.40 356.80 L 449.90 361.20 L 446.10 365.10 L 441.90 368.70 L 437.40 371.80 L 432.70 374.60 L 427.80 377.00 L 422.60 378.90 L 417.30 380.50 L 412.00 381.60 L 406.50 382.30 L 401.00 382.70 L 395.40 382.60 L 390.00 382.10 L 384.60 381.20 L 379.30 379.80 L 374.00 378.10 L 369.10 375.90 L 364.30 373.40 L 359.70 370.40 L 355.40 367.00 L 351.40 363.10 L 347.80 358.90 L 341.50 349.80 L 339.00 345.40 L 337.00 340.90 L 335.50 336.30 L 334.50 331.50 L 333.90 326.70 L 333.70 321.90 L 334.00 317.10 L 334.60 312.30 L 337.10 302.90 L 338.90 298.30 L 343.40 289.50 L 349.20 281.60 L 352.60 277.90 L 360.00 271.60 L 364.10 268.80 L 368.40 266.50 L 372.90 264.50 L 377.60 262.90 L 382.50 261.80 Z M 365.50 326.90 L 370.90 335.60 L 374.10 339.70 L 377.60 343.30 L 380.20 345.40 L 383.00 347.00 L 386.10 348.10 L 390.90 348.80 L 393.70 348.70 L 400.00 347.30 L 402.70 346.00 L 405.10 344.30 L 407.10 342.20 L 408.80 339.90 L 410.00 337.30 L 410.90 334.50 L 411.50 328.60 L 410.70 322.80 L 408.40 317.30 L 406.70 314.90 L 404.70 312.70 L 402.40 311.00 L 399.70 309.60 L 393.60 307.40 L 391.00 306.90 L 388.60 306.90 L 386.20 307.40 L 383.90 308.30 L 381.70 309.60 L 378.70 312.00 L 375.80 315.00 L 365.50 326.90 Z" fill="#fefca1" fill-rule="nonzero" node-id="87" stroke="none" target-height="122.400024" target-width="129.4" target-x="333.7" target-y="260.3"></path><path d="M 598.60 259.40 L 603.90 256.70 L 609.20 254.70 L 614.60 253.20 L 620.00 252.30 L 625.50 252.00 L 630.90 252.10 L 636.20 252.80 L 641.60 253.90 L 646.80 255.50 L 651.80 257.50 L 656.70 260.00 L 661.40 262.80 L 665.80 266.00 L 670.00 269.50 L 673.90 273.40 L 677.50 277.60 L 680.70 282.00 L 683.50 286.70 L 685.90 291.60 L 687.90 296.80 L 689.30 302.10 L 690.30 307.50 L 690.70 313.20 L 690.10 324.80 L 689.10 330.20 L 687.60 335.30 L 685.70 340.20 L 683.20 344.80 L 680.30 349.10 L 677.10 353.10 L 673.50 356.90 L 669.60 360.30 L 665.40 363.40 L 660.90 366.10 L 656.20 368.60 L 646.30 372.50 L 641.20 373.90 L 630.50 375.60 L 619.90 375.70 L 614.60 375.20 L 609.30 374.30 L 604.30 373.00 L 599.30 371.30 L 594.50 369.10 L 589.90 366.50 L 585.50 363.50 L 581.40 360.00 L 573.90 352.20 L 570.70 348.40 L 568.00 344.30 L 565.80 340.10 L 564.00 335.70 L 562.60 331.20 L 561.70 326.60 L 561.10 321.90 L 561.20 312.40 L 561.90 307.70 L 562.80 303.00 L 564.70 296.80 L 567.10 290.90 L 570.20 285.10 L 573.70 279.70 L 577.80 274.70 L 582.30 270.00 L 586.00 266.90 L 590.00 264.10 L 594.10 261.60 L 598.60 259.40 Z M 610.80 306.70 L 608.60 309.20 L 605.80 313.90 L 605.10 316.10 L 604.60 319.30 L 604.70 322.30 L 605.40 325.20 L 606.60 328.00 L 608.20 330.50 L 610.30 332.90 L 612.60 335.10 L 618.10 338.40 L 621.10 339.60 L 624.20 340.30 L 627.30 340.60 L 630.40 340.50 L 633.40 339.80 L 636.40 338.60 L 640.30 335.80 L 642.10 333.80 L 645.70 328.80 L 647.00 326.20 L 647.80 323.80 L 648.10 321.40 L 648.00 318.10 L 647.30 314.90 L 645.90 311.90 L 644.10 309.10 L 641.80 306.60 L 639.20 304.30 L 636.20 302.40 L 633.10 301.00 L 629.80 300.00 L 626.40 299.50 L 623.00 299.60 L 619.70 300.40 L 617.30 301.30 L 615.00 302.60 L 612.90 304.40 L 610.80 306.70 Z" fill="#fefba5" fill-rule="nonzero" node-id="89" stroke="none" target-height="123.70001" target-width="129.60004" target-x="561.1" target-y="252"></path><path d="M 610.80 306.70 L 612.90 304.40 L 615.00 302.60 L 617.30 301.30 L 619.70 300.40 L 623.00 299.60 L 626.40 299.50 L 629.80 300.00 L 633.10 301.00 L 636.20 302.40 L 639.20 304.30 L 641.80 306.60 L 644.10 309.10 L 645.90 311.90 L 647.30 314.90 L 648.00 318.10 L 648.10 321.40 L 647.80 323.80 L 647.00 326.20 L 645.70 328.80 L 642.10 333.80 L 640.30 335.80 L 636.40 338.60 L 633.40 339.80 L 630.40 340.50 L 627.30 340.60 L 624.20 340.30 L 621.10 339.60 L 618.10 338.40 L 612.60 335.10 L 610.30 332.90 L 608.20 330.50 L 606.60 328.00 L 605.40 325.20 L 604.70 322.30 L 604.60 319.30 L 605.10 316.10 L 605.80 313.90 L 608.60 309.20 L 610.80 306.70 Z" fill="#29395b" fill-rule="nonzero" node-id="91" stroke="none" target-height="41.100006" target-width="43.5" target-x="604.6" target-y="299.5"></path><path d="M 365.50 326.90 L 375.80 315.00 L 378.70 312.00 L 381.70 309.60 L 383.90 308.30 L 386.20 307.40 L 388.60 306.90 L 391.00 306.90 L 393.60 307.40 L 399.70 309.60 L 402.40 311.00 L 404.70 312.70 L 406.70 314.90 L 408.40 317.30 L 409.70 319.90 L 411.30 325.70 L 411.40 331.60 L 410.00 337.30 L 408.80 339.90 L 407.10 342.20 L 405.10 344.30 L 402.70 346.00 L 400.00 347.30 L 396.70 348.10 L 393.70 348.70 L 388.40 348.70 L 386.10 348.10 L 383.00 347.00 L 380.20 345.40 L 377.60 343.30 L 374.10 339.70 L 370.90 335.60 L 365.50 326.90 Z" fill="#2d3960" fill-rule="nonzero" node-id="93" stroke="none" target-height="41.80002" target-width="45.899994" target-x="365.5" target-y="306.9"></path><path d="M 495.70 374.40 L 498.30 372.60 L 503.40 370.40 L 506.10 369.80 L 509.70 369.50 L 513.30 369.70 L 517.00 370.40 L 524.20 373.00 L 532.70 377.60 L 537.20 380.80 L 537.80 386.90 L 536.90 391.20 L 535.60 393.80 L 533.90 395.90 L 531.60 397.50 L 529.10 398.80 L 523.00 400.60 L 518.00 401.20 L 512.60 401.30 L 502.00 400.60 L 490.40 399.20 L 487.30 398.00 L 486.20 397.10 L 485.20 395.50 L 484.60 393.70 L 484.40 391.40 L 485.20 386.80 L 486.10 384.40 L 487.90 381.00 L 490.20 378.00 L 492.00 376.30 L 495.70 374.40 Z" fill="#7c6167" fill-rule="nonzero" node-id="95" stroke="none" target-height="31.799988" target-width="53.399994" target-x="484.4" target-y="369.5"></path><path d="M 571.30 418.50 L 578.40 417.20 L 600.10 412.30 L 605.00 411.40 L 614.70 410.70 L 619.50 410.80 L 624.40 411.50 L 629.30 412.70 L 624.60 419.90 L 619.50 426.60 L 613.90 433.00 L 607.90 438.90 L 601.50 444.40 L 594.80 449.50 L 587.70 454.20 L 580.30 458.50 L 572.70 462.30 L 564.80 465.70 L 556.80 468.70 L 548.50 471.20 L 540.10 473.30 L 531.60 474.90 L 523.10 476.00 L 514.50 476.70 L 505.90 476.90 L 497.30 476.70 L 488.90 475.90 L 480.40 474.70 L 472.10 473.00 L 464.00 470.70 L 456.00 468.00 L 448.30 464.80 L 440.80 461.10 L 433.60 456.90 L 426.70 452.10 L 420.10 446.80 L 415.20 442.30 L 410.50 437.40 L 406.10 432.10 L 401.90 426.50 L 398.00 420.40 L 402.90 419.20 L 407.90 418.30 L 412.90 417.90 L 420.40 417.80 L 427.90 418.40 L 435.50 419.30 L 467.40 424.20 L 476.80 425.20 L 495.70 426.00 L 508.40 425.80 L 521.00 425.10 L 533.70 423.90 L 552.50 421.50 L 571.30 418.50 Z M 575.00 424.90 L 570.30 425.80 L 564.70 428.20 L 559.60 431.60 L 557.60 433.60 L 556.40 435.60 L 556.00 436.90 L 556.00 438.20 L 556.50 439.50 L 557.30 440.60 L 558.80 441.70 L 563.10 443.50 L 565.20 443.70 L 567.40 443.50 L 570.80 442.60 L 574.20 441.00 L 577.40 439.00 L 580.30 436.70 L 582.80 434.20 L 585.50 430.00 L 585.90 427.30 L 585.60 426.20 L 584.70 425.30 L 583.10 424.60 L 581.40 424.40 L 575.00 424.90 Z M 452.10 433.80 L 451.60 436.20 L 451.70 438.50 L 452.50 440.60 L 453.70 442.60 L 455.30 444.50 L 459.70 447.70 L 465.00 449.90 L 470.50 451.00 L 475.70 450.70 L 477.90 450.00 L 481.10 447.90 L 482.90 444.90 L 483.40 443.00 L 481.90 440.40 L 480.00 438.10 L 477.70 436.00 L 475.20 434.30 L 469.50 431.90 L 463.50 430.90 L 460.40 431.00 L 457.40 431.50 L 454.70 432.40 L 452.10 433.80 Z M 521.10 433.80 L 510.60 443.00 L 511.70 446.40 L 513.10 448.90 L 514.50 450.60 L 516.40 452.00 L 518.20 452.70 L 520.20 453.00 L 522.30 452.90 L 526.40 451.50 L 529.30 449.70 L 531.90 447.40 L 533.90 444.80 L 535.30 442.30 L 535.80 440.50 L 535.80 438.80 L 535.50 437.30 L 534.70 436.10 L 533.30 435.00 L 531.20 434.10 L 528.80 433.60 L 525.60 433.50 L 521.10 433.80 Z" fill="#543674" fill-rule="nonzero" node-id="97" stroke="none" target-height="66.19998" target-width="231.29999" target-x="398" target-y="410.7"></path><path d="M 452.10 433.80 L 454.70 432.40 L 457.40 431.50 L 460.40 431.00 L 466.50 431.20 L 469.50 431.90 L 472.50 432.90 L 477.70 436.00 L 480.00 438.10 L 481.90 440.40 L 483.40 443.00 L 482.90 444.90 L 481.10 447.90 L 477.90 450.00 L 475.70 450.70 L 473.10 451.10 L 467.80 450.60 L 465.00 449.90 L 462.20 448.90 L 457.40 446.20 L 455.30 444.50 L 453.70 442.60 L 452.50 440.60 L 451.70 438.50 L 451.60 436.20 L 452.10 433.80 Z" fill="#b08a9b" fill-rule="nonzero" node-id="99" stroke="none" target-height="20.100006" target-width="31.799988" target-x="451.6" target-y="431"></path><path d="M 521.10 433.80 L 525.60 433.50 L 528.80 433.60 L 531.20 434.10 L 533.30 435.00 L 534.70 436.10 L 535.50 437.30 L 535.80 438.80 L 535.80 440.50 L 535.30 442.30 L 533.90 444.90 L 531.90 447.40 L 529.30 449.70 L 526.40 451.50 L 524.30 452.40 L 520.20 453.00 L 518.20 452.70 L 516.40 452.00 L 514.50 450.60 L 513.10 448.90 L 511.70 446.40 L 510.60 443.00 L 521.10 433.80 Z" fill="#b66c97" fill-rule="nonzero" node-id="101" stroke="none" target-height="19.5" target-width="25.199982" target-x="510.6" target-y="433.5"></path><path d="M 416.40 572.50 L 422.10 569.80 L 425.60 569.30 L 426.80 569.60 L 427.60 570.20 L 428.40 572.10 L 428.00 575.40 L 425.90 579.50 L 423.30 581.80 L 421.30 582.40 L 420.30 582.10 L 419.30 581.40 L 418.30 580.00 L 417.00 576.00 L 416.40 572.50 Z" fill="#91641e" fill-rule="nonzero" node-id="103" stroke="none" target-height="13.100037" target-width="12" target-x="416.4" target-y="569.3"></path><path d="M 437.70 684.70 L 437.40 678.30 L 437.60 672.10 L 438.20 666.10 L 439.20 660.20 L 440.60 654.40 L 442.80 647.30 L 445.60 640.40 L 449.00 633.70 L 452.80 627.20 L 457.10 621.00 L 461.80 615.10 L 466.90 609.50 L 472.50 604.10 L 478.30 599.10 L 484.40 594.40 L 490.80 590.00 L 497.50 586.00 L 504.40 582.40 L 511.40 579.10 L 518.60 576.30 L 525.90 573.90 L 533.40 571.90 L 540.80 570.40 L 548.30 569.40 L 555.70 568.80 L 563.30 568.70 L 570.60 569.20 L 577.90 570.10 L 585.00 571.60 L 592.00 573.70 L 598.80 576.30 L 605.30 579.50 L 611.70 583.30 L 616.50 586.70 L 621.10 590.60 L 625.50 594.90 L 629.80 599.60 L 633.80 604.90 L 637.80 611.70 L 641.30 618.60 L 644.20 625.60 L 646.70 632.90 L 648.70 640.20 L 650.20 647.70 L 651.30 655.20 L 651.90 662.80 L 652.10 670.50 L 651.80 678.10 L 651.20 685.70 L 650.10 693.40 L 648.70 700.90 L 644.60 715.80 L 639.10 730.30 L 632.20 744.10 L 624.00 757.10 L 614.60 769.10 L 609.40 774.70 L 603.30 780.10 L 596.90 785.30 L 590.20 790.10 L 583.20 794.60 L 576.00 798.70 L 568.60 802.50 L 561.00 805.90 L 553.20 808.90 L 545.30 811.50 L 537.30 813.70 L 529.30 815.40 L 521.10 816.70 L 512.90 817.60 L 504.70 817.90 L 496.50 817.80 L 488.30 817.10 L 480.10 815.90 L 472.10 814.20 L 464.10 811.90 L 456.20 809.00 L 448.10 805.70 L 440.30 801.80 L 432.60 797.50 L 425.20 792.80 L 418.10 787.70 L 411.30 782.20 L 404.80 776.30 L 398.60 770.00 L 392.70 763.40 L 387.30 756.60 L 382.30 749.40 L 377.70 742.00 L 373.50 734.30 L 369.80 726.40 L 366.60 718.30 L 363.90 710.00 L 361.80 701.50 L 360.20 692.90 L 359.20 684.20 L 358.80 675.30 L 358.60 668.70 L 358.90 662.10 L 359.60 655.50 L 360.80 649.00 L 362.40 642.60 L 364.30 636.30 L 366.70 630.20 L 369.50 624.20 L 372.60 618.40 L 376.10 612.90 L 380.00 607.70 L 384.30 602.70 L 388.90 598.00 L 393.90 593.80 L 399.20 589.90 L 404.80 586.30 L 393.50 618.80 L 390.10 629.80 L 387.20 640.90 L 384.60 652.20 L 375.30 653.70 L 377.90 658.40 L 380.00 663.10 L 381.60 668.00 L 383.40 675.50 L 387.50 706.80 L 389.20 714.50 L 390.80 719.50 L 392.80 724.30 L 395.40 729.10 L 397.80 735.20 L 400.60 741.00 L 403.80 746.50 L 407.20 751.70 L 411.00 756.70 L 416.20 762.60 L 421.80 768.10 L 427.70 773.10 L 434.10 777.80 L 440.80 782.10 L 447.70 785.90 L 454.80 789.30 L 462.20 792.30 L 469.80 794.90 L 477.40 797.10 L 485.20 798.80 L 493.00 800.20 L 497.50 797.80 L 502.50 795.70 L 517.70 790.10 L 522.50 787.90 L 525.60 786.20 L 531.20 782.20 L 533.60 779.80 L 535.70 777.00 L 537.50 773.80 L 519.10 774.60 L 500.90 775.90 L 482.80 761.80 L 476.90 756.70 L 465.70 745.90 L 460.50 740.20 L 455.80 734.20 L 451.40 728.00 L 445.80 718.10 L 441.50 707.70 L 440.00 702.30 L 438.80 696.60 L 438.00 690.80 L 437.70 684.70 Z M 458.80 649.80 L 456.80 655.40 L 455.20 661.00 L 454.10 666.70 L 453.60 672.40 L 453.40 678.20 L 453.70 683.90 L 454.50 689.60 L 455.60 695.30 L 459.10 706.40 L 464.00 716.90 L 470.30 726.80 L 477.70 735.80 L 481.90 739.90 L 486.30 743.70 L 495.70 750.30 L 508.80 751.90 L 515.50 752.20 L 555.50 752.50 L 555.90 789.90 L 563.20 786.90 L 570.30 783.50 L 577.00 779.60 L 583.50 775.20 L 589.70 770.50 L 595.60 765.30 L 601.10 759.90 L 606.20 754.00 L 611.10 747.90 L 615.50 741.50 L 619.50 734.90 L 623.10 727.90 L 626.30 720.80 L 629.00 713.50 L 631.30 706.10 L 633.10 698.50 L 634.40 690.80 L 635.20 683.00 L 635.50 675.20 L 634.90 660.40 L 634.00 653.40 L 632.70 646.30 L 630.90 639.40 L 628.70 632.60 L 626.00 625.90 L 622.80 619.50 L 619.10 613.50 L 615.00 607.80 L 611.50 603.80 L 607.80 600.20 L 603.90 596.80 L 599.60 593.80 L 595.20 591.20 L 590.40 588.90 L 585.30 587.10 L 579.80 585.70 L 572.60 584.60 L 565.30 584.00 L 557.90 584.00 L 550.50 584.40 L 543.20 585.40 L 535.90 586.80 L 528.70 588.60 L 521.60 591.00 L 514.70 593.70 L 508.00 596.90 L 501.60 600.50 L 495.30 604.60 L 489.40 609.00 L 483.80 613.80 L 478.60 618.90 L 473.70 624.50 L 469.30 630.30 L 465.30 636.50 L 461.80 643.00 L 458.80 649.80 Z" fill="#533a77" fill-rule="nonzero" node-id="105" stroke="none" target-height="249.20001" target-width="293.49997" target-x="358.6" target-y="568.7"></path><path d="M 458.80 649.80 L 461.80 643.00 L 465.30 636.50 L 469.30 630.30 L 473.70 624.50 L 478.60 618.90 L 483.80 613.80 L 489.40 609.00 L 495.30 604.60 L 501.60 600.50 L 508.00 596.90 L 514.70 593.70 L 521.60 591.00 L 528.70 588.60 L 535.90 586.80 L 543.20 585.40 L 550.50 584.40 L 557.90 584.00 L 565.30 584.00 L 572.60 584.60 L 579.80 585.70 L 585.30 587.10 L 590.40 588.90 L 595.20 591.20 L 599.60 593.80 L 603.90 596.80 L 607.80 600.20 L 611.50 603.80 L 615.00 607.80 L 619.10 613.50 L 622.80 619.50 L 626.00 625.90 L 628.70 632.60 L 630.90 639.40 L 632.70 646.30 L 634.00 653.40 L 634.90 660.40 L 635.50 675.20 L 635.20 683.00 L 634.40 690.80 L 633.10 698.50 L 631.30 706.10 L 629.00 713.50 L 626.30 720.80 L 623.10 727.90 L 619.50 734.90 L 615.50 741.50 L 611.10 747.90 L 606.20 754.00 L 601.10 759.90 L 595.60 765.30 L 589.70 770.50 L 583.50 775.20 L 577.00 779.60 L 570.30 783.50 L 563.20 786.90 L 555.90 789.90 L 555.50 752.50 L 515.50 752.20 L 508.80 751.90 L 495.70 750.30 L 486.30 743.70 L 481.90 739.90 L 477.70 735.80 L 470.30 726.80 L 464.00 716.90 L 459.10 706.40 L 455.60 695.30 L 454.50 689.60 L 453.70 683.90 L 453.40 678.20 L 453.60 672.40 L 454.10 666.70 L 455.20 661.00 L 456.80 655.40 L 458.80 649.80 Z" fill="#ec6d3d" fill-rule="nonzero" node-id="107" stroke="none" target-height="205.90002" target-width="182.1" target-x="453.4" target-y="584"></path><path d="M 164.90 650.60 L 190.80 666.50 L 192.10 703.80 L 203.50 693.80 L 215.30 684.30 L 221.50 680.00 L 228.00 676.10 L 226.90 689.70 L 225.90 716.90 L 225.90 737.30 L 226.50 757.70 L 228.20 798.40 L 226.70 801.90 L 225.30 804.20 L 223.90 805.70 L 222.20 806.60 L 220.50 807.00 L 218.70 806.80 L 215.10 805.10 L 210.50 801.00 L 207.80 797.90 L 199.50 786.20 L 197.20 783.70 L 195.20 782.20 L 193.40 781.50 L 191.50 781.40 L 189.60 781.80 L 187.70 782.80 L 185.10 784.90 L 179.90 791.30 L 172.80 801.90 L 170.50 804.80 L 168.50 806.70 L 156.90 781.30 L 131.30 793.40 L 131.10 780.90 L 131.50 768.50 L 132.50 756.20 L 134.10 744.00 L 136.20 731.90 L 138.90 719.90 L 142.00 708.00 L 145.70 696.20 L 149.90 684.60 L 154.40 673.10 L 159.40 661.80 L 164.90 650.60 Z M 164.90 676.70 L 162.20 679.90 L 159.70 683.70 L 157.60 687.80 L 156.00 692.10 L 154.90 698.10 L 155.20 703.90 L 155.90 706.80 L 157.00 709.50 L 159.40 709.80 L 161.60 709.40 L 163.90 708.50 L 165.90 707.10 L 169.90 703.10 L 172.40 699.30 L 174.50 695.10 L 176.00 690.70 L 176.90 686.60 L 177.20 683.80 L 176.60 679.40 L 175.70 677.50 L 174.50 676.30 L 172.80 675.40 L 169.70 675.20 L 164.90 676.70 Z" fill="#ef6c3d" fill-rule="nonzero" node-id="109" stroke="none" target-height="156.40002" target-width="97.09999" target-x="131.1" target-y="650.6"></path><path d="M 811.50 648.30 L 815.00 652.40 L 818.50 655.80 L 822.00 658.40 L 825.50 660.40 L 829.30 661.80 L 833.20 662.70 L 837.20 662.90 L 841.30 662.50 L 845.30 661.50 L 849.40 660.00 L 853.80 657.80 L 858.30 655.00 L 876.50 707.30 L 881.90 725.00 L 885.00 736.90 L 887.60 748.90 L 889.70 761.00 L 890.80 770.10 L 891.50 779.30 L 891.80 788.60 L 891.60 798.00 L 867.60 784.70 L 850.30 798.80 L 825.20 774.30 L 823.00 776.60 L 820.50 779.70 L 813.10 790.60 L 810.50 793.90 L 808.60 796.00 L 804.80 799.00 L 802.70 800.00 L 800.60 800.40 L 798.40 800.30 L 796.20 799.70 L 793.90 798.30 L 791.10 795.90 L 791.10 723.80 L 791.70 687.80 L 793.90 686.40 L 797.50 685.30 L 799.00 685.30 L 801.00 685.90 L 802.90 686.90 L 804.60 688.60 L 806.90 691.50 L 814.90 705.80 L 816.70 708.30 L 818.70 704.30 L 820.00 700.40 L 820.80 696.50 L 821.10 688.50 L 819.60 678.40 L 812.80 654.10 L 811.50 648.30 Z M 844.60 676.50 L 843.50 678.40 L 842.70 680.50 L 842.50 685.30 L 843.60 690.10 L 845.90 694.50 L 849.10 698.10 L 851.00 699.40 L 853.10 700.30 L 855.20 700.70 L 857.50 700.60 L 860.00 699.90 L 861.30 697.90 L 862.20 695.70 L 862.70 693.30 L 862.70 690.70 L 861.60 685.60 L 859.20 680.80 L 857.60 678.80 L 855.80 677.10 L 853.80 675.90 L 851.70 675.10 L 848.30 675.00 L 844.60 676.50 Z" fill="#ee6442" fill-rule="nonzero" node-id="111" stroke="none" target-height="152.10004" target-width="100.70001" target-x="791.1" target-y="648.3"></path><path d="M 235.50 662.20 L 237.40 664.00 L 237.00 664.50 L 235.50 662.20 Z" fill="#c5a97e" fill-rule="nonzero" node-id="113" stroke="none" target-height="2.2999878" target-width="1.8999939" target-x="235.5" target-y="662.2"></path><path d="M 791.00 667.60 L 796.70 665.30 L 800.10 665.00 L 801.20 665.40 L 802.00 666.10 L 802.60 668.10 L 801.90 671.50 L 799.60 675.50 L 797.00 677.70 L 794.90 678.10 L 794.00 677.80 L 793.10 677.00 L 792.20 675.50 L 791.20 671.30 L 791.00 667.60 Z" fill="#cb5a55" fill-rule="nonzero" node-id="115" stroke="none" target-height="13.099976" target-width="11.599976" target-x="791" target-y="665"></path><path d="M 164.90 676.70 L 169.70 675.20 L 172.80 675.40 L 174.50 676.30 L 175.80 677.50 L 176.60 679.40 L 177.10 681.40 L 176.90 686.60 L 176.00 690.70 L 174.50 695.10 L 172.40 699.30 L 169.90 703.10 L 167.90 705.30 L 163.90 708.50 L 161.60 709.40 L 159.40 709.80 L 157.00 709.50 L 155.90 706.80 L 155.20 703.90 L 154.90 698.10 L 156.00 692.10 L 157.60 687.80 L 159.70 683.70 L 162.20 679.90 L 164.90 676.70 Z" fill="#6a3543" fill-rule="nonzero" node-id="117" stroke="none" target-height="34.599976" target-width="22.200012" target-x="154.9" target-y="675.2"></path><path d="M 844.60 676.50 L 848.30 675.00 L 851.70 675.10 L 853.80 675.90 L 855.80 677.10 L 859.20 680.80 L 861.60 685.60 L 862.70 690.70 L 862.70 693.30 L 862.20 695.70 L 861.30 697.90 L 859.90 699.90 L 857.50 700.60 L 855.20 700.70 L 853.10 700.30 L 851.00 699.40 L 849.10 698.10 L 845.90 694.50 L 843.60 690.10 L 842.50 685.30 L 842.70 680.50 L 843.50 678.40 L 844.60 676.50 Z" fill="#513b50" fill-rule="nonzero" node-id="119" stroke="none" target-height="25.700012" target-width="20.200012" target-x="842.5" target-y="675"></path><path d="M 627.30 859.10 L 631.70 858.00 L 635.90 856.50 L 639.80 854.70 L 647.00 850.00 L 655.10 842.70 L 668.20 827.90 L 668.90 841.00 L 670.00 854.20 L 671.60 867.30 L 673.70 880.30 L 676.20 893.20 L 679.30 906.10 L 712.70 908.00 L 718.10 938.70 L 701.20 939.10 L 675.30 940.70 L 661.10 940.60 L 650.00 939.30 L 644.70 938.20 L 639.40 936.50 L 634.20 934.40 L 631.70 929.90 L 629.70 925.30 L 628.20 920.50 L 626.40 910.60 L 625.80 897.80 L 627.30 866.60 L 627.30 859.10 Z" fill="#f28032" fill-rule="nonzero" node-id="121" stroke="none" target-height="112.79999" target-width="92.29999" target-x="625.8" target-y="827.9"></path><path d="M 351.10 900.90 L 352.40 881.00 L 354.00 861.20 L 356.10 841.50 L 383.40 848.40 L 410.70 855.90 L 404.40 897.40 L 399.20 939.20 L 379.90 940.10 L 360.60 940.50 L 341.30 940.40 L 322.10 939.90 L 302.90 938.80 L 323.90 905.60 L 351.10 900.90 Z" fill="#ec822e" fill-rule="nonzero" node-id="123" stroke="none" target-height="99" target-width="107.80002" target-x="302.9" target-y="841.5"></path></svg>