<?xml version="1.0" standalone="no"?><!DOCTYPE svg PUBLIC "-//W3C//DTD SVG 1.1//EN" "http://www.w3.org/Graphics/SVG/1.1/DTD/svg11.dtd"><svg height="1024" node-id="1" sillyvg="true" template-height="1024" template-width="1024" version="1.1" viewBox="0 0 1024 1024" width="1024" xmlns="http://www.w3.org/2000/svg" xmlns:xlink="http://www.w3.org/1999/xlink"><defs node-id="36"></defs><path d="M 0.00 0.00 L 1024.00 0.00 L 1024.00 1024.00 L 0.00 1024.00 Z" fill="#ffffff" fill-rule="nonzero" node-id="38" stroke="none" target-height="1024" target-width="1024" target-x="0" target-y="0"></path><path d="M 414.70 479.10 L 417.50 477.70 L 422.00 476.40 L 423.90 476.40 L 426.40 476.80 L 428.60 477.80 L 430.50 479.30 L 432.10 481.10 L 433.50 483.30 L 435.10 488.50 L 435.50 494.20 L 435.20 497.00 L 433.40 502.40 L 432.00 504.80 L 430.20 506.80 L 428.10 508.50 L 425.60 509.70 L 422.70 510.50 L 416.40 510.70 L 414.10 510.30 L 412.10 509.70 L 410.40 508.70 L 408.50 506.90 L 407.00 504.80 L 406.00 502.20 L 405.40 499.50 L 405.20 496.60 L 406.20 490.60 L 408.60 485.10 L 410.40 482.60 L 412.40 480.70 L 414.70 479.10 Z" fill="#ffffff" fill-rule="nonzero" node-id="40" stroke="none" target-height="34.30002" target-width="30.299988" target-x="405.2" target-y="476.4"></path><path d="M 622.20 477.70 L 625.10 477.50 L 629.60 478.10 L 631.30 478.80 L 633.40 480.30 L 635.10 482.10 L 636.30 484.30 L 637.60 489.30 L 637.30 495.00 L 635.70 500.80 L 634.40 503.50 L 631.00 508.20 L 628.80 510.20 L 626.50 511.70 L 623.90 512.80 L 621.20 513.40 L 618.30 513.40 L 615.00 512.70 L 612.20 510.70 L 610.10 508.50 L 608.50 506.00 L 607.40 503.30 L 606.70 500.50 L 606.60 497.50 L 606.80 494.60 L 607.50 491.80 L 608.60 489.00 L 610.00 486.30 L 611.80 484.00 L 614.00 481.80 L 616.40 480.00 L 619.20 478.60 L 622.20 477.70 Z" fill="#ffffff" fill-rule="nonzero" node-id="42" stroke="none" target-height="35.900024" target-width="31" target-x="606.6" target-y="477.5"></path><path d="M 602.90 257.30 L 630.60 229.50 L 646.60 214.80 L 660.40 204.30 L 667.60 199.60 L 675.30 195.40 L 683.20 191.70 L 685.00 212.40 L 685.20 233.20 L 684.50 247.00 L 683.20 260.80 L 681.30 274.60 L 655.40 267.90 L 629.30 261.80 L 616.20 259.30 L 602.90 257.30 Z" fill="#fefefd" fill-rule="nonzero" node-id="44" stroke="none" target-height="82.90001" target-width="82.29999" target-x="602.9" target-y="191.7"></path><path d="M 246.30 391.70 L 249.80 387.90 L 265.00 367.30 L 269.00 362.60 L 271.90 359.80 L 274.90 357.50 L 277.80 355.70 L 280.20 354.70 L 282.60 354.10 L 285.10 353.90 L 287.70 354.20 L 290.10 354.80 L 292.70 356.10 L 295.60 357.90 L 298.80 360.50 L 287.40 377.10 L 280.30 385.60 L 273.90 391.60 L 270.30 394.20 L 266.50 396.50 L 262.40 398.40 L 241.50 400.10 L 246.30 391.70 Z" fill="#f0eedb" fill-rule="nonzero" node-id="46" stroke="none" target-height="46.200012" target-width="57.299988" target-x="241.5" target-y="353.9"></path><path d="M 366.10 296.60 L 376.70 293.40 L 387.40 290.60 L 398.20 288.20 L 409.10 286.40 L 420.10 284.90 L 431.10 283.90 L 398.30 305.60 L 381.20 315.40 L 366.10 296.60 Z" fill="#ffdbc2" fill-rule="nonzero" node-id="48" stroke="none" target-height="31.5" target-width="65" target-x="366.1" target-y="283.9"></path><path d="M 344.60 734.50 L 348.50 735.80 L 351.50 737.30 L 353.80 739.20 L 355.80 741.40 L 357.20 743.80 L 358.20 746.50 L 358.90 752.20 L 358.70 755.40 L 357.90 760.10 L 356.40 764.80 L 363.80 772.10 L 367.10 776.10 L 369.80 780.30 L 371.30 783.30 L 372.40 786.60 L 373.10 790.10 L 369.00 786.50 L 365.30 782.60 L 361.90 778.50 L 358.90 774.20 L 355.40 768.20 L 352.40 761.80 L 349.80 755.20 L 346.00 741.50 L 344.60 734.50 Z" fill="#ffdbc2" fill-rule="nonzero" node-id="50" stroke="none" target-height="55.599976" target-width="28.5" target-x="344.6" target-y="734.5"></path><path d="M 657.90 747.40 L 678.50 739.90 L 679.30 744.90 L 679.50 749.60 L 679.10 754.00 L 678.20 758.40 L 676.90 762.60 L 675.20 766.70 L 672.00 772.50 L 668.10 778.30 L 663.90 783.80 L 650.60 799.60 L 647.80 785.80 L 673.20 762.50 L 657.90 747.40 Z" fill="#ffdbc2" fill-rule="nonzero" node-id="52" stroke="none" target-height="59.69995" target-width="31.700012" target-x="647.8" target-y="739.9"></path><path d="M 413.00 653.60 L 497.70 661.30 L 491.60 679.90 L 484.10 698.00 L 475.30 715.50 L 465.20 732.30 L 458.60 727.50 L 452.50 722.20 L 446.90 716.60 L 441.60 710.60 L 436.70 704.30 L 432.30 697.70 L 428.20 690.80 L 424.40 683.60 L 420.00 673.80 L 416.20 663.80 L 413.00 653.60 Z" fill="#fefefe" fill-rule="nonzero" node-id="54" stroke="none" target-height="78.70001" target-width="84.70001" target-x="413" target-y="653.6"></path><path d="M 354.40 279.00 L 350.90 275.60 L 348.00 272.20 L 345.60 268.60 L 343.70 264.90 L 341.70 259.70 L 340.30 254.20 L 339.50 248.50 L 339.20 236.80 L 339.60 230.70 L 340.70 221.70 L 344.80 195.60 L 352.30 199.80 L 359.50 204.50 L 366.40 209.50 L 379.50 220.40 L 395.00 235.10 L 421.80 262.70 L 398.90 266.30 L 387.50 268.60 L 376.30 271.40 L 368.90 273.60 L 354.40 279.00 Z" fill="#fdfdfd" fill-rule="nonzero" node-id="56" stroke="none" target-height="83.399994" target-width="82.599976" target-x="339.2" target-y="195.6"></path><path d="M 621.10 655.60 L 632.60 651.80 L 655.30 643.20 L 672.10 636.00 L 688.60 628.30 L 679.50 650.30 L 674.50 661.10 L 669.20 671.70 L 663.40 682.10 L 657.20 692.10 L 652.10 699.40 L 646.70 706.50 L 640.90 713.30 L 634.60 719.80 L 631.70 709.20 L 626.80 687.90 L 621.10 655.60 Z" fill="#fdfdfd" fill-rule="nonzero" node-id="58" stroke="none" target-height="91.5" target-width="67.5" target-x="621.1" target-y="628.3"></path><path d="M 766.30 75.20 L 769.20 73.60 L 774.20 72.10 L 776.20 72.00 L 779.00 72.40 L 781.50 73.30 L 783.80 74.90 L 787.60 79.10 L 789.30 81.90 L 791.50 86.40 L 793.30 91.40 L 795.90 101.50 L 797.70 110.40 L 800.00 124.40 L 801.60 138.50 L 802.60 152.70 L 803.00 167.00 L 802.80 181.20 L 802.10 195.40 L 800.70 209.60 L 798.70 223.70 L 796.00 237.70 L 792.80 251.60 L 789.00 265.30 L 784.60 278.80 L 780.60 289.50 L 776.30 300.00 L 771.50 310.40 L 766.40 320.50 L 760.80 330.50 L 770.30 340.20 L 779.20 350.30 L 787.60 360.70 L 795.40 371.50 L 802.90 382.60 L 809.80 394.00 L 816.30 405.70 L 822.30 417.60 L 827.80 429.80 L 832.90 442.20 L 837.60 454.80 L 841.80 467.50 L 845.60 480.50 L 848.90 493.50 L 851.90 506.60 L 854.40 519.80 L 858.40 546.30 L 860.70 572.80 L 861.30 586.30 L 861.50 599.70 L 861.30 613.10 L 860.60 626.60 L 859.50 640.00 L 858.00 653.40 L 856.00 666.80 L 853.70 680.00 L 850.90 693.20 L 847.60 706.30 L 844.00 719.30 L 839.90 732.10 L 835.40 744.80 L 830.40 757.30 L 825.00 769.60 L 819.20 781.80 L 813.00 793.70 L 806.30 805.30 L 799.20 816.70 L 791.70 827.90 L 785.00 836.80 L 777.90 845.20 L 770.60 853.40 L 763.00 861.10 L 755.10 868.60 L 746.80 875.70 L 738.30 882.50 L 729.60 888.90 L 720.60 895.10 L 711.40 900.90 L 699.50 907.70 L 687.40 914.00 L 675.10 919.80 L 662.40 925.10 L 649.60 929.90 L 636.60 934.30 L 623.40 938.10 L 610.10 941.50 L 596.70 944.40 L 583.20 946.80 L 569.80 948.80 L 556.30 950.30 L 541.90 951.40 L 527.40 951.90 L 512.90 952.00 L 498.40 951.50 L 483.80 950.60 L 469.40 949.10 L 455.00 947.20 L 440.60 944.70 L 426.30 941.80 L 412.20 938.30 L 398.30 934.30 L 384.50 929.80 L 370.80 924.70 L 357.40 919.20 L 344.30 913.10 L 331.40 906.50 L 318.70 899.40 L 306.40 891.70 L 294.40 883.50 L 282.80 874.80 L 273.50 866.90 L 264.80 858.70 L 256.40 850.10 L 248.40 841.30 L 240.80 832.10 L 233.60 822.60 L 226.70 812.90 L 220.20 803.00 L 214.10 792.70 L 208.40 782.30 L 201.70 768.90 L 195.50 755.30 L 189.90 741.40 L 184.90 727.30 L 180.30 712.90 L 176.30 698.50 L 172.70 683.90 L 169.70 669.20 L 167.20 654.30 L 165.10 639.50 L 163.50 624.80 L 162.40 610.00 L 162.00 594.90 L 162.20 579.80 L 162.90 564.60 L 164.20 549.30 L 166.00 534.10 L 168.40 519.00 L 171.40 504.00 L 174.90 489.10 L 178.20 477.30 L 181.90 465.60 L 185.90 454.20 L 190.30 442.80 L 195.10 431.60 L 200.40 420.60 L 206.00 409.90 L 212.00 399.30 L 218.40 389.10 L 225.30 379.00 L 232.50 369.30 L 240.20 359.90 L 248.30 350.70 L 256.80 341.90 L 265.80 333.40 L 259.70 323.00 L 254.30 312.40 L 249.40 301.60 L 245.00 290.50 L 241.10 279.30 L 237.80 267.90 L 234.90 256.40 L 232.60 244.80 L 230.70 233.00 L 229.30 221.20 L 228.30 209.30 L 227.80 197.40 L 227.60 185.40 L 228.60 161.50 L 229.70 149.60 L 231.70 133.80 L 234.40 118.20 L 238.80 96.30 L 240.20 93.20 L 241.90 90.20 L 243.90 87.60 L 246.30 85.20 L 248.90 83.10 L 251.70 81.50 L 254.60 80.30 L 257.60 79.70 L 260.50 79.70 L 263.50 80.30 L 265.50 81.20 L 267.60 82.50 L 269.60 84.40 L 271.60 86.90 L 274.40 94.50 L 276.80 102.30 L 278.80 110.20 L 281.30 122.20 L 283.30 134.50 L 288.10 171.60 L 290.10 183.80 L 291.60 191.90 L 295.50 207.60 L 298.00 215.30 L 301.00 222.80 L 304.50 230.20 L 310.70 240.70 L 318.50 250.90 L 317.60 237.30 L 317.50 222.20 L 318.40 212.00 L 320.40 202.50 L 322.10 198.20 L 324.10 194.30 L 325.90 191.50 L 328.00 189.10 L 330.50 187.00 L 333.20 185.20 L 336.10 183.80 L 339.50 182.80 L 343.40 182.10 L 347.80 181.90 L 359.80 186.10 L 365.40 188.70 L 370.80 191.70 L 377.80 196.10 L 384.60 201.00 L 391.10 206.30 L 403.50 217.80 L 418.20 233.30 L 443.70 261.20 L 474.00 258.10 L 489.20 257.00 L 512.00 256.00 L 534.80 255.50 L 580.50 255.70 L 602.60 231.90 L 613.90 220.30 L 625.60 209.10 L 641.90 194.90 L 650.30 188.10 L 655.00 184.80 L 660.30 181.70 L 664.00 179.90 L 671.60 177.30 L 675.50 176.60 L 679.30 176.30 L 683.20 176.70 L 686.00 177.30 L 691.40 179.70 L 694.00 181.50 L 697.00 184.40 L 699.50 187.30 L 701.70 190.40 L 703.40 193.60 L 705.30 198.20 L 706.70 202.90 L 707.60 207.90 L 708.30 215.50 L 708.50 223.30 L 707.80 246.70 L 708.00 254.00 L 717.00 243.20 L 724.50 231.90 L 728.80 223.90 L 732.60 215.80 L 735.80 207.50 L 738.70 199.00 L 743.40 181.60 L 746.30 168.20 L 755.90 114.10 L 758.70 100.90 L 760.90 92.10 L 766.30 75.20 Z M 778.30 103.10 L 770.60 151.80 L 765.10 178.90 L 759.40 200.10 L 755.90 210.50 L 752.00 220.70 L 747.60 230.60 L 743.90 237.90 L 739.80 245.00 L 735.40 252.00 L 730.60 258.80 L 724.10 266.40 L 714.80 274.60 L 690.50 292.40 L 684.80 297.10 L 677.80 304.00 L 674.80 307.70 L 672.00 311.70 L 669.70 316.10 L 667.60 320.80 L 667.40 327.70 L 667.90 330.70 L 668.70 333.60 L 670.30 337.20 L 672.50 340.40 L 675.10 343.40 L 678.20 346.00 L 681.60 348.20 L 685.30 350.00 L 689.30 351.50 L 693.30 352.50 L 697.60 353.20 L 701.90 353.40 L 706.10 353.20 L 710.20 352.50 L 714.30 351.40 L 718.10 349.80 L 721.60 347.80 L 726.30 343.80 L 728.30 341.40 L 741.80 322.40 L 747.00 314.00 L 751.80 305.40 L 756.20 296.70 L 761.20 285.40 L 765.60 274.00 L 769.50 262.40 L 772.80 250.50 L 775.60 238.50 L 777.90 226.40 L 779.80 214.10 L 781.10 201.70 L 782.10 189.30 L 782.80 164.50 L 782.50 152.00 L 781.70 135.50 L 780.30 119.20 L 778.30 103.10 Z M 249.80 174.50 L 249.70 196.30 L 251.00 218.80 L 252.30 230.00 L 254.00 241.20 L 256.10 252.30 L 258.80 263.20 L 262.00 273.90 L 267.90 289.50 L 275.20 304.40 L 279.40 311.50 L 283.90 318.30 L 288.90 324.80 L 294.30 331.10 L 300.00 337.00 L 306.20 342.60 L 312.90 347.80 L 320.10 352.70 L 337.30 343.20 L 341.50 340.40 L 345.30 337.40 L 347.60 335.10 L 349.50 332.70 L 351.00 330.00 L 352.20 327.20 L 352.80 324.00 L 352.80 315.60 L 352.20 311.30 L 351.10 307.30 L 349.50 303.40 L 347.50 299.80 L 345.20 296.40 L 341.10 291.60 L 336.40 287.10 L 310.50 266.50 L 301.30 257.50 L 296.90 252.60 L 293.00 247.60 L 289.60 242.40 L 285.40 235.10 L 281.80 227.60 L 278.70 219.80 L 276.00 211.80 L 271.80 195.30 L 269.40 182.60 L 262.20 131.40 L 260.00 119.10 L 257.40 122.20 L 255.30 125.30 L 253.70 128.70 L 251.50 135.80 L 250.50 145.40 L 250.50 163.20 L 249.80 174.50 Z M 602.90 257.30 L 616.20 259.30 L 629.30 261.80 L 655.40 267.90 L 681.30 274.60 L 683.20 260.80 L 684.50 247.00 L 685.20 233.20 L 685.00 212.40 L 683.20 191.70 L 675.30 195.40 L 667.60 199.60 L 660.40 204.30 L 646.60 214.80 L 630.60 229.50 L 602.90 257.30 Z M 354.40 279.00 L 368.90 273.60 L 376.30 271.40 L 387.50 268.60 L 398.90 266.30 L 421.80 262.70 L 395.00 235.10 L 385.80 226.20 L 379.50 220.40 L 366.40 209.50 L 359.50 204.50 L 352.30 199.80 L 344.80 195.60 L 340.70 221.70 L 339.60 230.70 L 339.20 236.80 L 339.50 248.50 L 340.30 254.20 L 341.70 259.70 L 343.70 264.90 L 345.60 268.60 L 348.00 272.20 L 350.90 275.60 L 354.40 279.00 Z M 431.10 283.90 L 420.10 284.90 L 409.10 286.40 L 398.20 288.20 L 387.40 290.60 L 376.70 293.40 L 366.10 296.60 L 381.20 315.40 L 380.20 321.10 L 378.70 326.40 L 376.70 331.40 L 374.20 336.00 L 371.20 340.40 L 367.90 344.30 L 364.20 348.00 L 360.10 351.30 L 355.70 354.30 L 351.10 356.80 L 346.20 359.00 L 341.10 360.90 L 335.90 362.30 L 330.70 363.30 L 325.30 363.90 L 319.90 364.10 L 314.50 363.90 L 309.20 363.20 L 303.90 362.10 L 298.80 360.50 L 295.60 357.90 L 292.70 356.10 L 290.10 354.80 L 287.70 354.20 L 285.10 353.90 L 282.60 354.10 L 280.20 354.70 L 277.80 355.70 L 274.90 357.50 L 271.90 359.80 L 269.00 362.60 L 265.00 367.30 L 253.50 383.10 L 249.80 387.90 L 246.30 391.70 L 241.50 400.10 L 231.60 413.80 L 227.00 421.10 L 222.70 428.80 L 217.40 439.20 L 212.70 449.90 L 208.40 461.00 L 204.60 472.30 L 201.30 483.70 L 198.50 495.30 L 196.20 507.00 L 194.40 518.60 L 193.10 530.10 L 202.90 531.00 L 213.20 531.50 L 223.70 531.50 L 234.10 530.90 L 247.90 529.00 L 254.50 527.40 L 261.10 525.50 L 267.30 523.10 L 273.20 520.20 L 277.50 517.70 L 285.30 511.70 L 288.90 508.20 L 292.20 504.40 L 295.20 500.30 L 297.90 495.70 L 300.40 490.60 L 300.50 485.20 L 300.20 479.90 L 299.50 474.70 L 298.40 469.60 L 296.30 462.90 L 293.70 456.40 L 290.60 450.00 L 283.10 437.70 L 278.90 431.70 L 272.10 423.10 L 265.00 414.90 L 250.60 399.40 L 262.40 398.40 L 268.00 408.80 L 271.30 414.00 L 287.30 437.00 L 295.60 450.10 L 300.80 460.90 L 302.90 466.40 L 304.40 472.10 L 305.30 477.90 L 305.60 482.30 L 305.50 486.80 L 305.00 491.50 L 304.00 496.30 L 301.00 501.40 L 297.80 505.90 L 294.40 510.00 L 290.70 513.70 L 286.70 517.10 L 278.20 522.80 L 273.70 525.20 L 267.30 527.90 L 260.80 530.10 L 253.90 531.90 L 239.90 534.30 L 232.70 534.90 L 221.80 535.30 L 211.00 535.20 L 190.10 534.00 L 188.40 548.10 L 187.10 562.40 L 186.40 576.60 L 186.30 591.00 L 186.70 605.30 L 187.70 619.60 L 189.30 633.80 L 191.50 647.90 L 193.70 659.10 L 196.40 670.20 L 199.60 681.10 L 203.20 692.00 L 207.20 702.70 L 215.80 702.10 L 224.40 702.00 L 233.00 702.60 L 239.40 703.50 L 245.60 704.80 L 251.70 706.60 L 257.70 708.80 L 263.50 711.50 L 269.00 714.60 L 274.30 718.30 L 279.40 722.50 L 280.90 727.40 L 282.00 732.10 L 282.70 736.80 L 282.90 741.50 L 282.70 747.80 L 281.90 753.90 L 280.40 760.00 L 278.50 765.90 L 276.00 771.70 L 273.10 777.40 L 266.20 788.10 L 257.90 798.00 L 248.80 806.70 L 255.80 815.70 L 263.10 824.30 L 270.70 832.60 L 278.60 840.50 L 286.80 848.00 L 295.30 855.20 L 304.10 862.00 L 313.10 868.50 L 322.30 874.70 L 331.80 880.50 L 343.90 887.30 L 356.30 893.50 L 369.00 899.30 L 382.00 904.50 L 395.20 909.10 L 408.60 913.30 L 422.10 917.00 L 435.80 920.10 L 449.70 922.70 L 463.50 924.90 L 477.40 926.50 L 491.40 927.60 L 505.40 928.30 L 519.30 928.40 L 533.20 928.10 L 560.30 926.10 L 573.50 924.50 L 586.80 922.40 L 600.00 919.80 L 613.20 916.70 L 626.10 913.20 L 639.00 909.10 L 651.60 904.50 L 664.10 899.40 L 676.30 893.90 L 688.20 887.80 L 699.80 881.10 L 708.90 875.50 L 717.70 869.50 L 726.20 863.10 L 734.50 856.40 L 742.60 849.40 L 750.30 842.00 L 757.70 834.30 L 764.80 826.30 L 771.60 817.80 L 778.10 809.00 L 764.90 791.00 L 760.90 784.80 L 756.40 776.00 L 754.70 771.40 L 762.40 782.20 L 765.30 785.70 L 767.40 787.90 L 771.70 791.10 L 774.00 792.10 L 776.40 792.50 L 778.90 792.40 L 782.60 791.00 L 787.00 787.50 L 792.70 778.10 L 797.90 768.50 L 802.70 758.70 L 807.00 748.60 L 810.90 738.40 L 814.40 728.00 L 817.40 717.50 L 820.00 706.80 L 811.60 707.60 L 803.00 708.90 L 791.80 711.80 L 781.10 716.00 L 776.20 718.60 L 771.60 721.50 L 767.30 724.80 L 763.50 728.40 L 760.10 732.50 L 757.90 735.70 L 756.10 739.20 L 754.50 743.00 L 753.30 747.10 L 752.60 751.10 L 752.20 755.50 L 752.30 760.30 L 752.80 765.50 L 751.40 760.10 L 750.20 750.60 L 750.50 743.00 L 751.10 739.20 L 752.20 735.70 L 753.60 732.30 L 755.40 729.10 L 757.80 726.20 L 764.30 720.50 L 768.00 717.80 L 772.00 715.60 L 778.20 712.80 L 784.70 710.50 L 791.30 708.60 L 811.70 703.80 L 818.40 702.00 L 824.80 699.80 L 828.30 685.80 L 831.20 671.70 L 833.60 657.50 L 835.30 643.10 L 836.60 628.80 L 837.40 614.30 L 837.70 599.90 L 837.50 585.40 L 836.90 571.00 L 835.80 556.60 L 832.60 527.90 L 813.20 529.30 L 803.10 529.70 L 792.90 529.70 L 779.40 528.70 L 772.80 527.80 L 766.30 526.40 L 760.00 524.60 L 754.00 522.40 L 745.50 518.10 L 737.70 512.40 L 734.20 509.10 L 730.90 505.40 L 727.80 501.30 L 724.90 496.60 L 724.20 491.20 L 724.00 486.00 L 724.20 481.10 L 724.80 476.30 L 726.30 469.90 L 728.30 463.80 L 731.00 457.80 L 734.10 452.00 L 741.40 440.60 L 747.70 432.40 L 767.50 408.50 L 773.70 400.40 L 779.20 392.50 L 778.70 388.50 L 777.70 384.90 L 776.30 381.70 L 772.30 375.70 L 769.80 372.90 L 765.70 369.20 L 761.10 365.70 L 742.40 353.30 L 744.10 381.30 L 741.70 377.90 L 739.20 375.20 L 736.50 373.00 L 733.60 371.30 L 730.40 370.10 L 727.00 369.40 L 723.30 369.10 L 711.20 369.70 L 703.10 369.50 L 694.90 368.70 L 682.70 366.30 L 670.90 362.60 L 665.20 360.20 L 659.80 357.40 L 654.60 354.30 L 649.70 350.80 L 645.10 346.80 L 640.90 342.50 L 637.00 337.80 L 633.60 332.60 L 633.80 329.40 L 634.40 326.40 L 635.50 323.40 L 637.70 319.20 L 649.00 302.40 L 651.40 298.00 L 652.60 294.90 L 653.40 291.80 L 653.90 288.50 L 639.30 285.30 L 624.70 282.60 L 609.90 280.30 L 595.10 278.30 L 580.10 276.80 L 561.30 275.50 L 542.60 274.90 L 523.90 274.80 L 505.10 275.40 L 486.40 276.60 L 467.80 278.40 L 449.40 280.80 L 431.10 283.90 Z M 778.40 397.20 L 777.50 403.10 L 777.10 408.90 L 777.20 414.60 L 778.40 426.00 L 781.50 440.10 L 789.40 465.10 L 786.40 461.10 L 783.80 457.00 L 781.70 452.80 L 778.30 443.90 L 775.40 432.20 L 771.90 410.80 L 753.90 432.60 L 744.30 445.30 L 737.70 456.00 L 734.90 461.50 L 732.50 467.20 L 730.60 473.10 L 729.50 477.60 L 728.50 486.90 L 728.50 491.90 L 731.10 496.60 L 733.90 500.80 L 736.90 504.50 L 740.20 507.80 L 747.60 513.40 L 755.80 517.70 L 761.50 519.90 L 767.60 521.70 L 773.90 523.00 L 786.80 524.40 L 803.40 524.50 L 813.20 523.90 L 832.00 521.90 L 828.10 502.30 L 822.80 483.10 L 818.50 470.50 L 813.90 458.10 L 808.80 445.80 L 792.50 409.40 L 778.40 397.20 Z M 206.10 704.20 L 209.80 716.60 L 214.00 728.80 L 218.60 740.90 L 223.70 752.80 L 229.20 764.50 L 235.10 776.00 L 241.50 787.20 L 248.30 798.30 L 256.70 791.50 L 264.40 783.50 L 270.80 774.50 L 273.50 769.60 L 275.80 764.70 L 277.60 759.60 L 279.00 754.40 L 279.70 749.10 L 279.90 743.70 L 279.00 735.60 L 276.60 727.50 L 273.20 723.40 L 269.50 719.80 L 265.50 716.80 L 261.20 714.30 L 256.70 712.10 L 251.90 710.40 L 241.90 707.80 L 236.80 706.90 L 229.00 706.00 L 206.10 704.20 Z" fill="#363734" fill-rule="nonzero" node-id="60" stroke="none" target-height="880" target-width="699.5" target-x="162" target-y="72"></path><path d="M 778.30 103.10 L 780.30 119.20 L 781.70 135.50 L 782.50 152.00 L 782.80 164.50 L 782.10 189.30 L 781.10 201.70 L 779.80 214.10 L 777.90 226.40 L 775.60 238.50 L 772.80 250.50 L 769.50 262.40 L 765.60 274.00 L 761.20 285.40 L 756.20 296.70 L 751.80 305.40 L 747.00 314.00 L 741.80 322.40 L 736.20 330.60 L 726.30 343.80 L 721.60 347.80 L 718.10 349.80 L 714.30 351.40 L 710.20 352.50 L 706.10 353.20 L 701.90 353.40 L 697.60 353.20 L 693.30 352.50 L 689.30 351.50 L 685.30 350.00 L 681.60 348.20 L 678.20 346.00 L 675.10 343.40 L 672.50 340.40 L 670.30 337.20 L 668.70 333.60 L 667.90 330.70 L 667.40 327.70 L 667.60 320.80 L 669.70 316.10 L 672.00 311.70 L 674.80 307.70 L 681.20 300.40 L 690.50 292.40 L 714.80 274.60 L 724.10 266.40 L 730.60 258.80 L 735.40 252.00 L 739.80 245.00 L 743.90 237.90 L 747.60 230.60 L 752.00 220.70 L 755.90 210.50 L 759.40 200.10 L 762.40 189.60 L 767.50 168.10 L 770.60 151.80 L 778.30 103.10 Z" fill="#ebe4d2" fill-rule="nonzero" node-id="62" stroke="none" target-height="250.29999" target-width="115.39996" target-x="667.4" target-y="103.1"></path><path d="M 249.80 174.50 L 250.50 163.20 L 250.50 145.40 L 251.50 135.80 L 253.70 128.70 L 255.30 125.30 L 257.40 122.20 L 260.00 119.10 L 262.20 131.40 L 269.40 182.60 L 271.80 195.30 L 276.00 211.80 L 278.70 219.80 L 281.80 227.60 L 285.40 235.10 L 289.60 242.40 L 293.00 247.60 L 296.90 252.60 L 301.30 257.50 L 310.50 266.50 L 336.40 287.10 L 341.10 291.60 L 345.20 296.40 L 347.50 299.80 L 349.50 303.40 L 351.10 307.30 L 352.20 311.30 L 352.80 315.60 L 352.90 320.40 L 352.80 324.00 L 352.20 327.20 L 351.00 330.00 L 349.50 332.70 L 347.60 335.10 L 345.30 337.40 L 341.50 340.40 L 337.30 343.20 L 320.10 352.70 L 312.90 347.80 L 306.20 342.60 L 300.00 337.00 L 294.30 331.10 L 288.90 324.80 L 283.90 318.30 L 279.40 311.50 L 275.20 304.40 L 267.90 289.50 L 262.00 273.90 L 258.80 263.20 L 256.10 252.30 L 254.00 241.20 L 252.30 230.00 L 251.00 218.80 L 249.70 196.30 L 249.80 174.50 Z" fill="#e7e1cf" fill-rule="nonzero" node-id="64" stroke="none" target-height="233.6" target-width="103.2" target-x="249.7" target-y="119.1"></path><path d="M 325.30 622.00 L 357.80 637.40 L 368.80 642.30 L 391.20 651.20 L 388.60 668.40 L 385.60 685.40 L 382.10 702.40 L 378.20 719.20 L 371.80 712.30 L 365.90 705.10 L 360.20 697.70 L 355.00 690.00 L 345.50 674.00 L 337.40 657.20 L 332.70 645.70 L 328.70 634.00 L 325.30 622.00 Z" fill="#fefdfd" fill-rule="nonzero" node-id="66" stroke="none" target-height="97.20001" target-width="65.900024" target-x="325.3" target-y="622"></path><path d="M 520.10 660.70 L 560.30 658.80 L 600.50 658.00 L 598.00 666.90 L 594.90 675.60 L 591.40 684.00 L 587.30 692.20 L 582.90 700.20 L 578.00 708.10 L 570.30 719.50 L 562.00 730.60 L 557.50 727.60 L 553.40 724.40 L 549.60 721.00 L 546.20 717.20 L 542.00 711.70 L 538.30 706.00 L 535.00 699.80 L 530.60 690.20 L 526.80 680.40 L 520.10 660.70 Z" fill="#fefdfd" fill-rule="nonzero" node-id="68" stroke="none" target-height="72.599976" target-width="80.400024" target-x="520.1" target-y="658"></path><path d="M 431.10 283.90 L 449.40 280.80 L 467.80 278.40 L 486.40 276.60 L 505.10 275.40 L 523.90 274.80 L 542.60 274.90 L 561.30 275.50 L 580.10 276.80 L 595.10 278.30 L 609.90 280.30 L 624.70 282.60 L 639.30 285.30 L 653.90 288.50 L 653.40 291.80 L 652.60 294.90 L 651.40 298.00 L 649.00 302.40 L 637.70 319.20 L 635.50 323.40 L 634.40 326.40 L 633.80 329.40 L 633.60 332.60 L 637.00 337.80 L 640.90 342.50 L 645.10 346.80 L 649.70 350.80 L 654.60 354.30 L 659.80 357.40 L 665.20 360.20 L 670.90 362.60 L 682.70 366.30 L 694.90 368.70 L 703.10 369.50 L 711.20 369.70 L 723.30 369.10 L 727.00 369.40 L 730.40 370.10 L 733.60 371.30 L 736.50 373.00 L 739.20 375.20 L 741.70 377.90 L 744.10 381.30 L 742.40 353.30 L 761.10 365.70 L 765.70 369.20 L 769.80 372.90 L 772.30 375.70 L 776.30 381.70 L 777.70 384.90 L 778.70 388.50 L 779.20 392.50 L 773.70 400.40 L 767.50 408.50 L 747.70 432.40 L 741.40 440.60 L 737.60 446.20 L 731.00 457.80 L 728.30 463.80 L 726.30 469.90 L 724.80 476.30 L 724.20 481.10 L 724.00 486.00 L 724.20 491.20 L 724.90 496.60 L 727.80 501.30 L 730.90 505.40 L 734.20 509.10 L 737.70 512.40 L 741.50 515.40 L 749.70 520.40 L 754.00 522.40 L 760.00 524.60 L 766.30 526.40 L 772.80 527.80 L 786.10 529.40 L 792.90 529.70 L 803.10 529.70 L 813.20 529.30 L 832.60 527.90 L 835.80 556.60 L 836.90 571.00 L 837.50 585.40 L 837.70 599.90 L 837.40 614.30 L 836.60 628.80 L 835.30 643.10 L 833.60 657.50 L 831.20 671.70 L 828.30 685.80 L 824.80 699.80 L 818.40 702.00 L 811.70 703.80 L 791.30 708.60 L 784.70 710.50 L 778.20 712.80 L 772.00 715.60 L 768.00 717.80 L 764.30 720.50 L 760.70 723.50 L 757.80 726.20 L 755.40 729.10 L 753.60 732.30 L 752.10 735.70 L 751.10 739.20 L 750.20 746.70 L 750.50 754.40 L 751.40 760.10 L 752.80 765.50 L 756.40 776.00 L 760.90 784.80 L 764.90 791.00 L 778.10 809.00 L 771.60 817.80 L 764.80 826.30 L 757.70 834.30 L 750.30 842.00 L 742.60 849.40 L 734.50 856.40 L 726.20 863.10 L 717.70 869.50 L 708.90 875.50 L 699.80 881.10 L 688.20 887.80 L 676.30 893.90 L 664.10 899.40 L 651.60 904.50 L 639.00 909.10 L 626.10 913.20 L 613.20 916.70 L 600.00 919.80 L 586.80 922.40 L 573.50 924.50 L 560.30 926.10 L 533.20 928.10 L 519.30 928.40 L 505.40 928.30 L 491.40 927.60 L 477.40 926.50 L 463.50 924.90 L 449.70 922.70 L 435.80 920.10 L 422.10 917.00 L 408.60 913.30 L 395.20 909.10 L 382.00 904.50 L 369.00 899.30 L 356.30 893.50 L 343.90 887.30 L 331.80 880.50 L 322.30 874.70 L 313.10 868.50 L 304.10 862.00 L 295.30 855.20 L 286.80 848.00 L 278.60 840.50 L 270.70 832.60 L 263.10 824.30 L 255.80 815.70 L 248.80 806.70 L 257.90 798.00 L 266.20 788.10 L 273.10 777.40 L 276.00 771.70 L 278.50 765.90 L 280.40 760.00 L 281.90 753.90 L 282.70 747.80 L 282.90 741.50 L 282.70 736.80 L 282.00 732.10 L 280.90 727.40 L 279.40 722.50 L 274.30 718.30 L 269.00 714.60 L 263.50 711.50 L 257.70 708.80 L 251.70 706.60 L 245.60 704.80 L 239.40 703.50 L 233.00 702.60 L 224.40 702.00 L 215.80 702.10 L 207.20 702.70 L 203.20 692.00 L 199.60 681.10 L 196.40 670.20 L 193.70 659.10 L 191.50 647.90 L 189.30 633.80 L 187.70 619.60 L 186.70 605.30 L 186.30 591.00 L 186.40 576.60 L 187.10 562.40 L 188.40 548.10 L 190.10 534.00 L 211.00 535.20 L 221.80 535.30 L 232.70 534.90 L 239.90 534.30 L 253.90 531.90 L 260.80 530.10 L 267.30 527.90 L 273.70 525.20 L 278.20 522.80 L 286.70 517.10 L 290.70 513.70 L 294.40 510.00 L 297.80 505.90 L 301.00 501.40 L 304.00 496.30 L 305.00 491.50 L 305.50 486.80 L 305.60 482.30 L 305.30 477.90 L 304.40 472.10 L 302.90 466.40 L 300.80 460.90 L 295.60 450.10 L 287.30 437.00 L 271.30 414.00 L 268.00 408.80 L 262.40 398.40 L 266.50 396.50 L 270.30 394.20 L 273.90 391.60 L 280.30 385.60 L 287.40 377.10 L 298.80 360.50 L 303.90 362.10 L 309.20 363.20 L 314.50 363.90 L 319.90 364.10 L 325.30 363.90 L 330.70 363.30 L 335.90 362.30 L 341.10 360.90 L 346.20 359.00 L 351.10 356.80 L 355.70 354.30 L 360.10 351.30 L 364.20 348.00 L 367.90 344.30 L 371.20 340.40 L 374.20 336.00 L 376.70 331.40 L 378.70 326.40 L 380.20 321.10 L 381.20 315.40 L 398.30 305.60 L 431.10 283.90 Z M 385.10 347.70 L 380.90 350.10 L 378.00 352.20 L 376.20 354.10 L 375.20 355.80 L 374.70 357.50 L 374.80 359.00 L 375.50 360.70 L 376.80 362.40 L 378.90 364.30 L 382.20 366.30 L 386.40 364.00 L 389.20 361.80 L 391.10 359.90 L 392.10 358.20 L 392.50 356.60 L 392.40 355.00 L 391.80 353.40 L 390.50 351.60 L 388.40 349.70 L 385.10 347.70 Z M 612.20 350.50 L 611.00 352.60 L 610.20 355.00 L 609.70 357.80 L 609.80 363.50 L 611.10 369.30 L 613.50 374.50 L 615.20 376.70 L 617.00 378.50 L 619.10 379.80 L 621.40 380.70 L 623.90 381.00 L 626.80 380.60 L 628.30 376.20 L 628.60 373.60 L 628.40 369.60 L 627.60 365.40 L 626.10 361.40 L 624.20 357.70 L 620.80 353.70 L 618.90 352.20 L 616.80 351.10 L 614.60 350.50 L 612.20 350.50 Z M 404.30 366.10 L 400.60 367.70 L 398.80 369.20 L 396.50 371.90 L 394.60 375.10 L 393.10 379.70 L 392.80 384.20 L 393.30 386.10 L 394.20 387.80 L 395.50 389.20 L 397.30 390.30 L 399.90 390.90 L 401.90 390.40 L 403.80 389.40 L 407.30 386.20 L 410.00 381.90 L 411.60 377.20 L 411.80 372.70 L 411.20 370.70 L 410.30 369.00 L 408.00 367.10 L 404.30 366.10 Z M 387.40 432.90 L 382.20 435.40 L 377.50 438.20 L 373.10 441.40 L 369.20 444.80 L 365.50 448.70 L 362.20 452.80 L 359.30 457.10 L 356.70 461.70 L 352.60 471.40 L 349.70 481.70 L 348.60 488.80 L 348.00 496.00 L 348.00 503.30 L 348.50 510.60 L 349.60 517.70 L 351.20 524.80 L 353.40 531.70 L 356.00 538.20 L 359.20 544.50 L 361.90 548.90 L 364.90 553.00 L 368.30 556.70 L 372.00 560.00 L 376.00 563.00 L 380.10 565.70 L 384.50 568.00 L 389.20 569.90 L 395.60 572.00 L 402.20 573.50 L 409.00 574.40 L 415.80 574.70 L 422.60 574.40 L 429.40 573.50 L 436.10 572.10 L 442.60 570.10 L 448.70 567.60 L 453.20 565.30 L 457.40 562.70 L 465.10 556.70 L 468.50 553.20 L 471.50 549.40 L 474.20 545.30 L 476.50 541.00 L 478.40 536.40 L 479.80 531.50 L 480.80 526.30 L 481.30 520.60 L 482.20 515.10 L 482.60 509.60 L 482.60 504.10 L 482.10 498.60 L 481.30 493.10 L 478.40 482.50 L 476.40 477.30 L 473.20 470.60 L 469.50 464.20 L 465.20 458.10 L 457.90 449.90 L 449.60 442.70 L 445.10 439.50 L 440.50 436.80 L 435.70 434.40 L 430.70 432.40 L 425.60 430.70 L 420.40 429.60 L 415.00 428.90 L 409.60 428.60 L 404.20 428.80 L 398.70 429.60 L 393.10 431.00 L 387.40 432.90 Z M 551.70 541.20 L 554.20 546.00 L 557.10 550.50 L 560.20 554.50 L 563.80 558.20 L 567.60 561.60 L 571.70 564.60 L 576.00 567.30 L 585.30 571.60 L 595.20 574.50 L 600.30 575.50 L 607.30 576.20 L 614.20 576.30 L 621.20 575.80 L 628.10 574.60 L 634.80 572.90 L 641.30 570.50 L 646.00 568.40 L 650.50 565.90 L 654.80 563.00 L 658.90 559.80 L 660.10 562.40 L 660.80 564.90 L 661.00 567.30 L 660.30 572.00 L 657.80 577.90 L 652.00 588.00 L 670.20 588.20 L 670.90 583.10 L 672.10 578.30 L 673.70 573.90 L 675.70 569.80 L 678.20 565.90 L 681.00 562.30 L 684.30 558.90 L 688.10 555.70 L 667.50 555.20 L 670.30 550.00 L 672.70 544.70 L 674.70 539.30 L 676.30 533.60 L 677.50 527.90 L 678.80 516.30 L 678.50 504.50 L 676.90 492.90 L 673.80 481.60 L 669.40 470.90 L 663.60 460.90 L 660.30 456.30 L 656.60 452.00 L 652.70 448.00 L 648.40 444.30 L 643.90 441.00 L 639.00 438.00 L 633.90 435.50 L 628.50 433.40 L 622.90 431.80 L 617.00 430.70 L 604.60 429.80 L 598.90 430.10 L 593.60 430.90 L 588.60 432.30 L 583.60 434.10 L 579.00 436.40 L 574.60 439.10 L 570.50 442.20 L 566.70 445.70 L 563.10 449.40 L 559.80 453.50 L 556.80 458.00 L 553.30 464.20 L 550.30 470.70 L 547.80 477.70 L 545.80 484.80 L 544.50 492.00 L 543.70 499.40 L 543.50 506.80 L 543.90 514.10 L 544.90 521.20 L 546.10 526.50 L 547.60 531.60 L 551.70 541.20 Z M 485.40 565.80 L 482.90 566.20 L 480.60 567.10 L 478.60 568.60 L 476.90 570.40 L 475.50 572.50 L 473.60 577.40 L 473.30 582.30 L 473.70 584.70 L 474.60 586.80 L 475.90 588.70 L 477.20 589.80 L 480.60 591.30 L 482.90 591.60 L 485.40 591.20 L 487.60 590.30 L 489.60 588.80 L 491.30 587.00 L 492.60 584.90 L 494.40 580.00 L 494.70 575.10 L 494.30 572.70 L 493.40 570.60 L 492.10 568.70 L 490.90 567.60 L 487.60 566.10 L 485.40 565.80 Z M 513.20 565.10 L 510.20 592.10 L 539.90 592.40 L 540.00 589.10 L 539.10 583.60 L 538.20 581.40 L 536.60 578.60 L 534.50 576.10 L 532.10 574.00 L 526.50 570.40 L 523.30 568.90 L 513.20 565.10 Z M 283.70 573.00 L 281.30 577.30 L 279.40 581.60 L 277.90 585.90 L 276.80 590.30 L 275.90 596.40 L 275.60 602.50 L 275.80 608.80 L 277.40 621.40 L 281.00 637.20 L 287.90 664.60 L 292.50 678.10 L 302.60 705.30 L 308.20 718.80 L 314.20 732.10 L 320.70 745.20 L 325.90 754.90 L 331.30 764.30 L 343.20 782.50 L 349.60 791.20 L 356.40 799.50 L 363.60 807.50 L 371.20 815.20 L 379.10 822.40 L 387.60 829.20 L 396.50 835.60 L 405.80 841.50 L 415.70 846.90 L 425.80 851.80 L 436.10 856.10 L 446.60 859.80 L 457.30 862.90 L 468.20 865.50 L 479.10 867.60 L 490.20 869.10 L 501.40 870.00 L 512.60 870.40 L 523.70 870.20 L 534.90 869.50 L 546.10 868.30 L 557.10 866.50 L 568.00 864.20 L 578.80 861.30 L 589.50 857.90 L 600.00 854.00 L 610.20 849.60 L 620.20 844.60 L 629.90 839.10 L 639.30 833.10 L 648.40 826.60 L 657.10 819.60 L 664.40 812.90 L 671.30 805.90 L 677.80 798.70 L 684.00 791.20 L 689.90 783.50 L 696.80 773.60 L 703.20 763.40 L 709.20 752.80 L 714.60 742.00 L 719.60 731.00 L 724.10 719.70 L 728.20 708.30 L 731.80 696.60 L 735.00 684.80 L 737.70 672.90 L 739.90 661.00 L 741.80 648.90 L 743.20 636.80 L 744.10 624.70 L 745.20 593.40 L 743.80 586.90 L 741.00 580.80 L 738.40 576.50 L 729.50 564.00 L 720.60 570.30 L 712.00 577.00 L 686.50 598.40 L 677.90 605.30 L 669.00 611.80 L 659.90 617.80 L 653.60 621.30 L 647.10 624.50 L 640.40 627.20 L 633.50 629.50 L 626.30 631.20 L 618.80 632.40 L 594.70 634.20 L 570.50 635.60 L 546.20 636.50 L 528.00 636.80 L 491.70 636.30 L 473.50 635.50 L 455.40 634.20 L 437.30 632.50 L 419.30 630.40 L 401.30 627.70 L 393.10 626.00 L 385.20 623.80 L 377.50 621.10 L 362.60 614.40 L 355.40 610.60 L 344.90 604.40 L 303.50 577.40 L 293.10 571.10 L 283.70 573.00 Z M 558.80 575.20 L 557.40 580.10 L 556.90 583.80 L 557.00 586.50 L 557.60 588.50 L 558.60 590.00 L 560.10 591.10 L 562.10 591.80 L 564.80 592.00 L 568.50 591.60 L 573.40 590.40 L 574.80 585.50 L 575.30 581.80 L 575.20 579.10 L 574.50 577.00 L 573.50 575.50 L 572.10 574.50 L 570.10 573.80 L 567.30 573.60 L 563.70 574.00 L 558.80 575.20 Z M 367.30 583.10 L 373.40 580.80 L 377.10 580.60 L 378.30 581.10 L 379.10 581.70 L 379.80 583.80 L 379.10 587.30 L 376.60 591.30 L 373.80 593.50 L 371.60 593.90 L 370.60 593.50 L 369.70 592.70 L 368.70 591.10 L 367.60 586.80 L 367.30 583.10 Z" fill="#abce45" fill-rule="nonzero" node-id="70" stroke="none" target-height="653.60004" target-width="651.4" target-x="186.3" target-y="274.8"></path><path d="M 385.10 347.70 L 388.40 349.70 L 390.50 351.60 L 391.80 353.40 L 392.40 355.00 L 392.50 356.60 L 392.10 358.20 L 391.10 359.90 L 389.20 361.80 L 386.40 364.00 L 382.20 366.30 L 378.90 364.30 L 376.80 362.40 L 375.50 360.70 L 374.80 359.00 L 374.70 357.50 L 375.20 355.80 L 376.20 354.10 L 378.00 352.20 L 380.90 350.10 L 385.10 347.70 Z" fill="#648229" fill-rule="nonzero" node-id="72" stroke="none" target-height="18.599976" target-width="17.799988" target-x="374.7" target-y="347.7"></path><path d="M 612.20 350.50 L 614.60 350.60 L 616.80 351.10 L 618.90 352.20 L 620.80 353.70 L 624.20 357.70 L 626.10 361.40 L 627.60 365.40 L 628.40 369.60 L 628.60 373.60 L 628.30 376.20 L 626.80 380.60 L 623.90 381.00 L 621.40 380.70 L 619.10 379.80 L 617.00 378.50 L 615.20 376.70 L 612.20 372.00 L 610.30 366.50 L 609.60 360.60 L 610.20 355.00 L 611.00 352.60 L 612.20 350.50 Z" fill="#7d9734" fill-rule="nonzero" node-id="74" stroke="none" target-height="30.5" target-width="19" target-x="609.6" target-y="350.5"></path><path d="M 404.30 366.10 L 408.00 367.10 L 410.30 369.00 L 411.20 370.70 L 411.80 372.70 L 411.90 374.90 L 411.00 379.50 L 408.80 384.20 L 405.70 387.90 L 403.80 389.40 L 401.90 390.40 L 399.90 390.90 L 397.30 390.30 L 395.50 389.20 L 394.20 387.90 L 393.30 386.10 L 392.80 384.20 L 392.80 382.00 L 393.70 377.50 L 394.60 375.10 L 396.50 371.90 L 398.80 369.20 L 400.60 367.70 L 404.30 366.10 Z" fill="#6d882d" fill-rule="nonzero" node-id="76" stroke="none" target-height="24.799988" target-width="19.100006" target-x="392.8" target-y="366.1"></path><path d="M 241.50 400.10 L 250.60 399.40 L 257.70 406.90 L 272.10 423.10 L 278.90 431.70 L 287.00 443.80 L 290.60 450.00 L 293.70 456.40 L 296.30 462.90 L 298.40 469.60 L 299.50 474.70 L 300.20 479.90 L 300.50 485.20 L 300.40 490.60 L 297.90 495.70 L 295.20 500.30 L 292.20 504.40 L 288.90 508.20 L 285.30 511.70 L 277.50 517.70 L 273.20 520.20 L 267.30 523.10 L 261.10 525.50 L 254.50 527.40 L 241.10 530.10 L 234.10 530.90 L 223.70 531.50 L 213.20 531.50 L 202.90 531.00 L 193.10 530.10 L 194.40 518.60 L 196.20 507.00 L 198.50 495.30 L 201.30 483.70 L 204.60 472.30 L 208.40 461.00 L 212.70 449.90 L 217.40 439.20 L 222.70 428.80 L 231.60 413.80 L 241.50 400.10 Z" fill="#ea7c5c" fill-rule="nonzero" node-id="78" stroke="none" target-height="132.1" target-width="107.399994" target-x="193.1" target-y="399.4"></path><path d="M 778.40 397.20 L 792.50 409.40 L 808.80 445.80 L 813.90 458.10 L 818.50 470.50 L 822.80 483.10 L 828.10 502.30 L 832.00 521.90 L 813.20 523.90 L 803.40 524.50 L 793.50 524.60 L 786.80 524.40 L 773.90 523.00 L 767.60 521.70 L 761.50 519.90 L 755.80 517.70 L 751.60 515.70 L 743.80 510.80 L 740.20 507.80 L 736.90 504.50 L 733.90 500.80 L 731.10 496.60 L 728.50 491.90 L 728.80 482.20 L 730.60 473.10 L 732.50 467.20 L 734.90 461.50 L 737.70 456.00 L 744.30 445.30 L 748.10 440.20 L 771.90 410.80 L 775.40 432.20 L 778.30 443.90 L 781.70 452.80 L 783.80 457.00 L 786.40 461.10 L 789.40 465.10 L 781.50 440.10 L 778.40 426.00 L 777.20 414.60 L 777.10 408.90 L 777.50 403.10 L 778.40 397.20 Z" fill="#e9865b" fill-rule="nonzero" node-id="80" stroke="none" target-height="127.39996" target-width="103.5" target-x="728.5" target-y="397.2"></path><path d="M 387.40 432.90 L 393.10 431.00 L 398.70 429.60 L 404.20 428.80 L 409.60 428.60 L 415.00 428.90 L 420.40 429.60 L 425.60 430.70 L 430.70 432.40 L 435.70 434.40 L 440.50 436.80 L 445.10 439.50 L 449.60 442.70 L 457.90 449.90 L 465.20 458.10 L 469.50 464.20 L 473.20 470.60 L 476.40 477.30 L 478.40 482.50 L 481.30 493.10 L 482.10 498.60 L 482.60 504.10 L 482.60 509.60 L 482.20 515.10 L 481.30 520.60 L 480.80 526.30 L 479.80 531.50 L 478.40 536.40 L 476.50 541.00 L 474.20 545.30 L 471.50 549.40 L 468.50 553.20 L 465.10 556.70 L 461.40 559.80 L 453.20 565.30 L 448.70 567.60 L 442.60 570.10 L 436.10 572.10 L 429.40 573.50 L 422.60 574.40 L 415.80 574.70 L 409.00 574.40 L 402.20 573.50 L 395.60 572.00 L 389.20 569.90 L 384.50 568.00 L 380.10 565.70 L 376.00 563.00 L 372.00 560.00 L 368.30 556.70 L 364.90 553.00 L 361.90 548.90 L 359.20 544.50 L 356.00 538.20 L 353.40 531.70 L 351.20 524.80 L 349.60 517.70 L 348.50 510.60 L 348.00 503.30 L 348.00 496.00 L 348.60 488.80 L 349.70 481.70 L 351.00 476.50 L 352.60 471.40 L 356.70 461.70 L 359.30 457.10 L 362.20 452.80 L 365.50 448.70 L 369.20 444.80 L 373.10 441.40 L 377.50 438.20 L 382.20 435.40 L 387.40 432.90 Z M 414.70 479.10 L 412.40 480.70 L 410.40 482.60 L 408.60 485.10 L 406.20 490.60 L 405.30 496.60 L 405.40 499.50 L 406.00 502.20 L 407.00 504.80 L 408.50 506.90 L 410.40 508.70 L 412.10 509.70 L 414.10 510.30 L 416.40 510.70 L 422.70 510.50 L 425.60 509.70 L 428.10 508.50 L 430.20 506.80 L 432.00 504.80 L 433.40 502.40 L 435.20 497.00 L 435.50 494.20 L 435.10 488.50 L 433.50 483.30 L 432.10 481.10 L 430.50 479.30 L 428.60 477.80 L 426.40 476.80 L 423.90 476.40 L 422.00 476.40 L 417.50 477.70 L 414.70 479.10 Z" fill="#383736" fill-rule="nonzero" node-id="82" stroke="none" target-height="146.1" target-width="134.6" target-x="348" target-y="428.6"></path><path d="M 551.70 541.20 L 547.60 531.60 L 546.10 526.50 L 544.90 521.20 L 543.90 514.10 L 543.50 506.80 L 543.70 499.40 L 544.50 492.00 L 545.80 484.80 L 547.80 477.70 L 550.30 470.70 L 553.30 464.20 L 556.80 458.00 L 559.80 453.50 L 563.10 449.40 L 566.70 445.70 L 570.50 442.20 L 574.60 439.10 L 579.00 436.40 L 583.60 434.10 L 588.60 432.30 L 593.60 430.90 L 598.90 430.10 L 604.60 429.80 L 617.00 430.70 L 622.90 431.80 L 628.50 433.40 L 633.90 435.50 L 639.00 438.00 L 643.90 441.00 L 648.40 444.30 L 652.70 448.00 L 656.60 452.00 L 660.30 456.30 L 663.60 460.90 L 669.40 470.90 L 673.80 481.60 L 676.90 492.90 L 678.50 504.50 L 678.80 516.30 L 677.50 527.90 L 676.30 533.60 L 674.70 539.30 L 672.70 544.70 L 670.30 550.00 L 667.50 555.20 L 688.10 555.70 L 684.30 558.90 L 681.00 562.30 L 678.20 565.90 L 675.70 569.80 L 673.70 573.90 L 672.10 578.30 L 670.90 583.10 L 670.20 588.20 L 652.00 588.00 L 657.80 577.90 L 660.30 572.10 L 661.00 567.30 L 660.80 564.90 L 660.10 562.40 L 658.90 559.80 L 654.80 563.00 L 650.50 565.90 L 646.00 568.40 L 641.30 570.50 L 634.80 572.90 L 628.10 574.60 L 621.20 575.80 L 614.20 576.30 L 607.30 576.20 L 600.30 575.50 L 595.20 574.50 L 585.30 571.60 L 576.00 567.30 L 571.70 564.60 L 567.60 561.60 L 563.80 558.20 L 560.20 554.50 L 557.10 550.50 L 554.20 546.00 L 551.70 541.20 Z M 622.20 477.70 L 619.20 478.60 L 616.40 480.00 L 614.00 481.80 L 611.80 484.00 L 610.00 486.30 L 608.60 489.00 L 607.50 491.80 L 606.80 494.60 L 606.60 497.50 L 606.70 500.50 L 607.40 503.30 L 608.50 506.00 L 610.10 508.50 L 612.20 510.70 L 615.00 512.70 L 618.30 513.40 L 621.20 513.40 L 623.90 512.80 L 626.50 511.70 L 628.80 510.20 L 631.00 508.20 L 632.80 506.00 L 635.70 500.80 L 636.70 497.90 L 637.60 492.20 L 637.60 489.30 L 636.30 484.30 L 635.10 482.10 L 633.40 480.30 L 631.30 478.80 L 629.60 478.10 L 625.10 477.50 L 622.20 477.70 Z" fill="#393837" fill-rule="nonzero" node-id="84" stroke="none" target-height="158.40002" target-width="144.59998" target-x="543.5" target-y="429.8"></path><path d="M 485.40 565.80 L 489.40 566.70 L 492.10 568.70 L 493.40 570.60 L 494.30 572.70 L 494.70 575.10 L 494.80 577.60 L 493.70 582.60 L 492.60 584.90 L 491.30 587.00 L 489.60 588.80 L 487.60 590.30 L 485.40 591.20 L 482.90 591.60 L 480.60 591.30 L 478.70 590.60 L 475.90 588.70 L 474.60 586.80 L 473.70 584.70 L 473.30 582.30 L 473.30 579.90 L 474.40 574.90 L 475.50 572.50 L 476.90 570.40 L 478.60 568.60 L 480.60 567.10 L 482.90 566.20 L 485.40 565.80 Z" fill="#799433" fill-rule="nonzero" node-id="88" stroke="none" target-height="25.799988" target-width="21.5" target-x="473.3" target-y="565.8"></path><path d="M 513.20 565.10 L 523.30 568.90 L 526.50 570.40 L 532.10 574.00 L 534.50 576.10 L 536.60 578.60 L 538.20 581.40 L 539.10 583.60 L 540.00 589.10 L 539.90 592.40 L 510.20 592.10 L 513.20 565.10 Z" fill="#556d25" fill-rule="nonzero" node-id="90" stroke="none" target-height="27.300049" target-width="29.799988" target-x="510.2" target-y="565.1"></path><path d="M 283.70 573.00 L 293.10 571.10 L 303.50 577.40 L 344.90 604.40 L 355.40 610.60 L 362.60 614.40 L 377.50 621.10 L 385.20 623.80 L 393.10 626.00 L 401.30 627.70 L 419.30 630.40 L 437.30 632.50 L 455.40 634.30 L 473.50 635.50 L 491.70 636.30 L 528.00 636.80 L 546.20 636.50 L 570.50 635.60 L 594.70 634.20 L 618.80 632.40 L 626.30 631.20 L 633.50 629.50 L 640.40 627.20 L 647.10 624.50 L 653.60 621.30 L 659.90 617.80 L 669.00 611.80 L 677.90 605.30 L 686.50 598.40 L 712.00 577.10 L 720.60 570.30 L 729.50 564.00 L 738.40 576.50 L 741.00 580.80 L 743.80 586.90 L 745.20 593.40 L 744.10 624.70 L 743.20 636.80 L 741.80 648.90 L 739.90 661.00 L 737.70 672.90 L 735.00 684.80 L 731.80 696.60 L 728.20 708.30 L 724.10 719.70 L 719.60 731.00 L 714.60 742.00 L 709.20 752.80 L 703.20 763.40 L 696.80 773.60 L 689.90 783.50 L 684.00 791.20 L 677.80 798.70 L 671.20 805.90 L 664.40 812.90 L 657.10 819.60 L 648.40 826.60 L 639.30 833.10 L 629.90 839.10 L 620.20 844.60 L 610.20 849.60 L 600.00 854.00 L 589.50 857.90 L 578.80 861.30 L 568.00 864.20 L 557.10 866.50 L 546.10 868.30 L 534.90 869.50 L 523.70 870.20 L 512.60 870.40 L 501.40 870.00 L 490.20 869.10 L 479.10 867.60 L 468.20 865.50 L 457.30 862.90 L 446.60 859.80 L 436.10 856.10 L 425.80 851.80 L 415.70 847.00 L 405.80 841.50 L 396.50 835.60 L 387.60 829.20 L 379.10 822.40 L 371.20 815.20 L 363.60 807.50 L 356.40 799.50 L 349.60 791.20 L 343.20 782.50 L 331.30 764.30 L 320.70 745.20 L 314.20 732.10 L 308.20 718.80 L 302.60 705.30 L 292.50 678.10 L 287.90 664.60 L 278.70 627.70 L 277.40 621.40 L 275.80 608.80 L 275.60 602.50 L 275.90 596.40 L 276.80 590.30 L 277.90 585.90 L 279.40 581.60 L 281.30 577.30 L 283.70 573.00 Z M 325.30 622.00 L 328.70 634.00 L 332.70 645.70 L 337.40 657.20 L 345.50 674.00 L 355.00 690.00 L 360.20 697.70 L 365.90 705.10 L 371.80 712.30 L 378.20 719.20 L 382.10 702.40 L 385.60 685.40 L 388.60 668.40 L 391.20 651.20 L 368.80 642.30 L 357.80 637.40 L 325.30 622.00 Z M 621.10 655.60 L 626.80 687.90 L 631.70 709.20 L 634.60 719.80 L 640.90 713.30 L 646.70 706.50 L 652.10 699.40 L 657.20 692.10 L 663.40 682.10 L 669.20 671.70 L 674.50 661.10 L 679.50 650.30 L 688.60 628.30 L 672.10 636.00 L 655.30 643.20 L 632.60 651.80 L 621.10 655.60 Z M 413.00 653.60 L 416.20 663.80 L 420.00 673.80 L 424.40 683.60 L 428.20 690.80 L 432.30 697.70 L 436.70 704.30 L 441.60 710.60 L 446.90 716.60 L 452.50 722.30 L 458.60 727.50 L 465.20 732.30 L 475.30 715.50 L 484.10 698.00 L 491.60 679.90 L 497.70 661.30 L 413.00 653.60 Z M 520.10 660.70 L 526.80 680.40 L 530.60 690.20 L 535.00 699.80 L 538.30 706.00 L 542.00 711.70 L 546.20 717.20 L 549.60 721.00 L 553.40 724.40 L 557.50 727.60 L 562.00 730.60 L 570.30 719.50 L 578.00 708.10 L 582.90 700.20 L 587.30 692.20 L 591.40 684.00 L 594.90 675.60 L 598.00 666.90 L 600.50 658.00 L 560.30 658.80 L 520.10 660.70 Z M 344.60 734.50 L 346.00 741.50 L 349.80 755.20 L 352.40 761.80 L 355.40 768.20 L 358.90 774.20 L 361.90 778.50 L 365.30 782.60 L 369.00 786.50 L 373.10 790.10 L 372.40 786.60 L 371.30 783.30 L 369.80 780.30 L 367.10 776.10 L 363.80 772.10 L 356.40 764.80 L 357.90 760.00 L 358.70 755.40 L 358.90 752.20 L 358.20 746.50 L 357.20 743.80 L 355.80 741.40 L 353.80 739.20 L 351.50 737.30 L 348.50 735.80 L 344.60 734.50 Z M 657.90 747.40 L 673.20 762.50 L 647.80 785.80 L 650.60 799.60 L 663.90 783.80 L 668.10 778.30 L 672.00 772.50 L 675.20 766.70 L 676.90 762.60 L 678.20 758.40 L 679.10 754.00 L 679.50 749.60 L 679.30 744.90 L 678.50 739.90 L 657.90 747.40 Z M 380.40 806.80 L 387.90 812.60 L 395.70 818.10 L 403.60 823.10 L 411.90 827.70 L 420.30 831.90 L 429.00 835.80 L 437.80 839.20 L 446.70 842.30 L 455.80 844.90 L 465.10 847.20 L 476.70 849.50 L 488.50 851.20 L 500.30 852.20 L 512.20 852.70 L 524.20 852.50 L 536.00 851.70 L 547.80 850.30 L 559.60 848.30 L 568.90 846.30 L 578.00 843.80 L 587.10 841.00 L 595.90 837.80 L 604.70 834.20 L 613.30 830.20 L 621.60 825.80 L 629.80 821.10 L 637.70 815.90 L 645.30 810.30 L 617.80 795.30 L 603.70 788.20 L 589.40 781.70 L 579.80 777.70 L 570.00 774.00 L 560.10 770.80 L 550.00 768.00 L 539.80 765.70 L 529.40 764.00 L 519.40 762.80 L 509.50 762.20 L 499.60 762.20 L 489.70 762.80 L 479.90 763.90 L 470.10 765.60 L 460.40 767.80 L 450.80 770.60 L 441.40 773.70 L 432.10 777.30 L 423.00 781.40 L 414.00 785.80 L 396.70 795.70 L 380.40 806.80 Z" fill="#383637" fill-rule="nonzero" node-id="92" stroke="none" target-height="306.40002" target-width="469.6" target-x="275.6" target-y="564"></path><path d="M 558.80 575.20 L 563.70 574.00 L 567.30 573.60 L 570.10 573.80 L 572.10 574.50 L 573.50 575.50 L 574.50 577.00 L 575.20 579.10 L 575.30 581.80 L 574.80 585.50 L 573.40 590.40 L 568.50 591.60 L 564.80 592.00 L 562.10 591.80 L 560.10 591.10 L 558.60 590.00 L 557.60 588.50 L 557.00 586.50 L 556.90 583.80 L 557.40 580.10 L 558.80 575.20 Z" fill="#7d9c35" fill-rule="nonzero" node-id="94" stroke="none" target-height="18.400024" target-width="18.399963" target-x="556.9" target-y="573.6"></path><path d="M 367.30 583.10 L 373.40 580.80 L 377.10 580.60 L 378.30 581.10 L 379.10 581.70 L 379.80 583.80 L 379.10 587.30 L 378.00 589.40 L 376.60 591.30 L 373.80 593.50 L 371.60 593.90 L 370.60 593.50 L 369.60 592.70 L 368.70 591.10 L 367.60 586.80 L 367.30 583.10 Z" fill="#80a131" fill-rule="nonzero" node-id="96" stroke="none" target-height="13.300049" target-width="12.5" target-x="367.3" target-y="580.6"></path><path d="M 206.10 704.20 L 229.00 706.00 L 236.80 706.90 L 247.00 709.00 L 256.70 712.10 L 261.20 714.30 L 265.50 716.80 L 269.50 719.80 L 273.20 723.40 L 276.60 727.50 L 278.00 731.60 L 279.70 739.70 L 279.90 743.70 L 279.70 749.10 L 279.00 754.40 L 277.60 759.60 L 275.80 764.70 L 273.50 769.60 L 270.80 774.50 L 264.40 783.50 L 256.70 791.50 L 248.30 798.30 L 241.50 787.20 L 235.10 776.00 L 229.20 764.50 L 223.70 752.80 L 218.60 740.90 L 214.00 728.80 L 209.80 716.60 L 206.10 704.20 Z" fill="#d36f58" fill-rule="nonzero" node-id="98" stroke="none" target-height="94.099976" target-width="73.79999" target-x="206.1" target-y="704.2"></path><path d="M 752.80 765.50 L 752.30 760.30 L 752.20 755.50 L 752.60 751.10 L 753.30 747.10 L 754.50 743.00 L 756.10 739.20 L 757.90 735.70 L 760.10 732.50 L 763.50 728.40 L 767.30 724.80 L 771.60 721.50 L 776.20 718.60 L 781.10 716.00 L 791.80 711.80 L 803.00 708.90 L 811.60 707.60 L 820.00 706.80 L 817.40 717.50 L 814.40 728.00 L 810.90 738.40 L 807.00 748.60 L 802.70 758.70 L 797.90 768.50 L 792.70 778.10 L 787.00 787.50 L 784.70 789.50 L 780.70 791.90 L 778.90 792.40 L 776.40 792.50 L 774.00 792.10 L 771.70 791.10 L 769.60 789.70 L 765.30 785.70 L 762.40 782.20 L 754.70 771.40 L 752.80 765.50 Z" fill="#e77663" fill-rule="nonzero" node-id="100" stroke="none" target-height="85.70001" target-width="67.79999" target-x="752.2" target-y="706.8"></path><path d="M 380.40 806.80 L 396.70 795.70 L 414.00 785.80 L 423.00 781.40 L 432.10 777.30 L 441.40 773.70 L 450.80 770.60 L 460.40 767.80 L 470.10 765.60 L 479.90 763.90 L 489.70 762.80 L 499.60 762.20 L 509.50 762.20 L 519.40 762.80 L 529.40 764.00 L 539.80 765.70 L 550.00 768.00 L 560.10 770.80 L 570.00 774.00 L 579.80 777.70 L 589.40 781.70 L 603.70 788.20 L 617.80 795.30 L 645.30 810.30 L 637.70 815.90 L 629.80 821.10 L 621.60 825.80 L 613.30 830.20 L 604.70 834.20 L 595.90 837.80 L 587.10 841.00 L 578.00 843.80 L 568.90 846.30 L 559.60 848.30 L 547.80 850.30 L 536.00 851.70 L 524.20 852.50 L 512.20 852.70 L 500.30 852.20 L 488.50 851.20 L 476.70 849.50 L 465.10 847.20 L 455.80 844.90 L 446.70 842.30 L 437.80 839.20 L 429.00 835.80 L 420.30 831.90 L 411.90 827.70 L 403.60 823.10 L 395.70 818.10 L 387.90 812.60 L 380.40 806.80 Z" fill="#e86472" fill-rule="nonzero" node-id="102" stroke="none" target-height="90.5" target-width="264.9" target-x="380.4" target-y="762.2"></path></svg>