<?xml version="1.0" standalone="no"?><!DOCTYPE svg PUBLIC "-//W3C//DTD SVG 1.1//EN" "http://www.w3.org/Graphics/SVG/1.1/DTD/svg11.dtd"><svg height="1024" node-id="1" sillyvg="true" template-height="1024" template-width="1024" version="1.1" viewBox="0 0 1024 1024" width="1024" xmlns="http://www.w3.org/2000/svg" xmlns:xlink="http://www.w3.org/1999/xlink"><defs node-id="30"></defs><path d="M 0.00 0.00 L 1024.00 0.00 L 1024.00 1024.00 L 0.00 1024.00 Z" fill="#ffffff" fill-rule="nonzero" node-id="32" stroke="none" target-height="1024" target-width="1024" target-x="0" target-y="0"></path><path d="M 414.80 526.20 L 439.50 531.20 L 428.30 554.60 L 424.40 547.80 L 420.90 540.70 L 414.80 526.20 Z" fill="#ffffff" fill-rule="nonzero" node-id="34" stroke="none" target-height="28.399963" target-width="24.700012" target-x="414.8" target-y="526.2"></path><path d="M 546.00 483.30 L 543.70 479.50 L 541.90 475.60 L 540.60 471.60 L 539.80 467.50 L 539.30 459.10 L 540.40 450.70 L 542.00 445.30 L 544.10 440.00 L 546.80 434.90 L 550.10 430.20 L 553.80 426.00 L 557.90 422.20 L 561.30 419.60 L 564.90 417.50 L 568.70 415.70 L 572.60 414.40 L 576.70 413.40 L 580.80 413.00 L 585.20 413.00 L 594.20 413.90 L 598.30 414.80 L 602.20 416.00 L 605.90 417.70 L 609.40 419.80 L 612.70 422.20 L 615.60 424.90 L 618.40 427.90 L 622.90 434.70 L 626.30 442.30 L 628.20 450.40 L 628.60 458.90 L 625.30 454.30 L 621.70 450.30 L 617.80 446.70 L 611.30 442.20 L 604.20 439.20 L 600.50 438.30 L 596.60 437.90 L 592.40 437.90 L 588.00 438.40 L 590.20 461.30 L 583.80 462.00 L 580.70 462.80 L 574.80 465.30 L 572.30 467.00 L 570.10 469.00 L 568.50 471.30 L 567.30 474.00 L 566.90 476.10 L 567.10 481.00 L 567.90 484.00 L 570.20 487.00 L 572.70 489.30 L 575.30 491.10 L 578.20 492.30 L 581.30 493.20 L 584.50 493.60 L 591.10 493.40 L 594.50 492.80 L 604.50 490.00 L 613.70 486.20 L 609.80 489.40 L 605.70 492.20 L 601.10 494.60 L 596.30 496.50 L 591.40 498.00 L 586.30 499.00 L 581.20 499.40 L 576.10 499.40 L 571.10 498.80 L 566.20 497.70 L 561.50 496.00 L 557.10 493.70 L 554.00 491.70 L 551.10 489.30 L 548.50 486.50 L 546.00 483.30 Z" fill="#fefefd" fill-rule="nonzero" node-id="36" stroke="none" target-height="86.399994" target-width="89.29999" target-x="539.3" target-y="413"></path><path d="M 434.40 414.90 L 439.60 414.00 L 444.70 413.70 L 449.90 414.00 L 455.00 414.90 L 460.00 416.30 L 464.80 418.30 L 469.30 420.80 L 473.50 423.70 L 477.40 427.10 L 480.90 430.90 L 483.90 435.10 L 488.20 443.70 L 490.80 451.90 L 491.50 456.20 L 492.00 462.00 L 491.80 467.80 L 491.00 473.70 L 489.60 479.40 L 487.60 484.80 L 485.10 490.00 L 482.80 493.70 L 480.20 497.00 L 477.30 500.10 L 474.10 502.90 L 470.60 505.40 L 466.80 507.40 L 462.70 509.00 L 458.30 510.20 L 453.30 511.00 L 448.20 511.50 L 442.80 511.40 L 437.40 511.00 L 432.10 510.10 L 426.80 508.70 L 421.70 506.90 L 417.00 504.70 L 412.50 502.00 L 409.40 499.60 L 404.10 494.20 L 401.80 491.10 L 399.90 487.80 L 398.40 484.20 L 397.30 480.30 L 395.60 470.70 L 395.20 465.30 L 395.40 459.90 L 396.10 454.60 L 397.30 449.40 L 399.00 444.30 L 401.20 439.40 L 403.90 434.80 L 407.10 430.50 L 410.70 426.60 L 414.60 423.20 L 419.00 420.20 L 422.50 418.30 L 430.20 415.70 L 434.40 414.90 Z M 427.10 424.10 L 420.60 428.00 L 415.30 432.90 L 412.30 436.80 L 409.90 441.00 L 407.90 445.50 L 406.50 450.20 L 405.50 455.00 L 405.00 460.00 L 405.00 465.00 L 405.50 469.90 L 406.50 474.80 L 407.90 479.50 L 409.80 484.00 L 412.20 488.20 L 415.00 492.10 L 418.30 495.50 L 422.10 498.50 L 425.20 500.40 L 428.50 501.90 L 432.20 503.20 L 439.90 504.90 L 443.60 505.30 L 450.80 505.10 L 455.50 504.20 L 460.00 502.70 L 464.30 500.60 L 468.30 498.10 L 472.00 495.20 L 475.50 491.80 L 478.50 488.10 L 481.20 484.10 L 483.40 479.90 L 485.20 475.40 L 486.40 470.80 L 487.20 466.00 L 487.30 461.20 L 486.80 456.30 L 484.70 447.70 L 483.40 444.10 L 479.80 437.70 L 476.80 433.80 L 473.30 430.40 L 469.40 427.30 L 465.20 424.70 L 460.80 422.70 L 456.10 421.10 L 451.30 420.10 L 446.40 419.60 L 441.50 419.80 L 434.20 421.20 L 427.10 424.10 Z" fill="#37384d" fill-rule="nonzero" node-id="38" stroke="none" target-height="97.79999" target-width="96.79999" target-x="395.2" target-y="413.7"></path><path d="M 570.10 717.00 L 580.50 721.80 L 580.60 731.30 L 580.10 736.00 L 578.80 743.00 L 576.90 749.90 L 575.20 746.50 L 572.80 739.40 L 571.70 733.90 L 571.00 728.30 L 570.10 717.00 Z" fill="#fcea8e" fill-rule="nonzero" node-id="40" stroke="none" target-height="32.900024" target-width="10.5" target-x="570.1" target-y="717"></path><path d="M 477.00 648.80 L 481.40 653.50 L 487.10 657.50 L 493.20 660.20 L 496.40 660.90 L 499.60 661.10 L 502.60 660.80 L 504.80 660.10 L 506.90 659.10 L 508.90 657.60 L 510.90 655.60 L 506.80 663.80 L 497.30 663.40 L 485.70 661.50 L 478.80 660.00 L 477.00 648.80 Z" fill="#ffdbc2" fill-rule="nonzero" node-id="42" stroke="none" target-height="15" target-width="33.899994" target-x="477" target-y="648.8"></path><path d="M 427.10 424.10 L 434.20 421.20 L 441.50 419.80 L 446.40 419.60 L 451.30 420.10 L 456.10 421.10 L 460.80 422.70 L 465.20 424.70 L 469.40 427.30 L 473.30 430.40 L 476.80 433.80 L 479.80 437.70 L 481.80 440.80 L 484.70 447.70 L 486.80 456.30 L 487.30 461.20 L 487.20 466.00 L 486.40 470.80 L 485.20 475.40 L 483.40 479.90 L 481.20 484.10 L 478.50 488.10 L 475.50 491.80 L 472.00 495.20 L 468.30 498.10 L 464.30 500.60 L 460.00 502.70 L 455.50 504.20 L 450.80 505.10 L 447.30 505.40 L 439.90 504.90 L 432.20 503.20 L 428.50 501.90 L 425.20 500.40 L 422.10 498.50 L 418.30 495.50 L 415.00 492.10 L 412.20 488.20 L 409.80 484.00 L 407.90 479.50 L 406.50 474.80 L 405.50 469.90 L 405.00 465.00 L 405.00 460.00 L 405.50 455.00 L 406.50 450.20 L 407.90 445.50 L 409.90 441.00 L 412.30 436.80 L 415.30 432.90 L 420.60 428.00 L 427.10 424.10 Z M 410.20 456.80 L 407.90 462.90 L 407.30 468.40 L 407.70 472.00 L 408.60 475.40 L 410.10 478.70 L 412.00 481.80 L 414.30 484.60 L 417.00 487.30 L 423.30 491.90 L 430.40 495.40 L 437.90 497.60 L 445.40 498.50 L 449.00 498.30 L 455.20 496.70 L 457.90 495.40 L 460.40 493.70 L 463.30 491.10 L 465.90 488.10 L 468.10 484.70 L 469.80 481.00 L 471.20 477.10 L 472.20 473.10 L 472.80 468.90 L 472.80 460.80 L 450.60 460.50 L 450.90 438.90 L 439.10 439.50 L 433.10 440.40 L 427.40 441.80 L 423.70 443.20 L 420.30 445.00 L 417.20 447.10 L 415.10 449.00 L 411.60 453.80 L 410.20 456.80 Z" fill="#fefdfe" fill-rule="nonzero" node-id="44" stroke="none" target-height="85.79999" target-width="82.29999" target-x="405" target-y="419.6"></path><path d="M 440.40 317.70 L 446.20 309.50 L 452.10 298.50 L 455.10 291.70 L 466.40 263.80 L 469.50 264.30 L 471.80 265.10 L 473.60 266.40 L 475.10 268.10 L 476.20 270.20 L 477.10 272.60 L 477.90 276.50 L 479.10 289.50 L 479.60 293.70 L 480.50 297.10 L 489.50 278.20 L 494.40 269.00 L 499.70 260.00 L 502.60 263.00 L 507.60 269.50 L 510.70 274.80 L 518.80 291.50 L 520.40 289.10 L 521.80 285.90 L 525.30 275.00 L 526.70 271.80 L 529.10 268.10 L 530.50 266.90 L 532.20 266.00 L 534.20 265.70 L 536.70 265.90 L 540.00 272.80 L 542.70 279.90 L 547.60 294.40 L 549.30 291.90 L 550.80 288.70 L 554.80 278.50 L 557.70 273.60 L 560.60 270.90 L 562.40 270.00 L 564.50 269.60 L 566.90 269.60 L 570.30 275.70 L 573.20 282.10 L 575.70 288.70 L 582.30 308.80 L 590.20 291.20 L 597.30 273.30 L 600.00 274.70 L 602.20 276.20 L 603.90 278.00 L 606.50 282.30 L 607.30 284.70 L 608.80 292.70 L 609.90 308.80 L 618.10 286.90 L 622.50 290.80 L 626.50 295.00 L 630.20 299.40 L 636.80 309.00 L 643.70 321.90 L 654.40 345.90 L 663.70 341.00 L 666.60 355.20 L 669.00 369.40 L 670.80 383.70 L 672.20 398.00 L 674.10 426.90 L 676.80 513.70 L 683.20 506.30 L 695.10 491.00 L 700.60 483.00 L 705.80 474.70 L 710.50 466.30 L 714.80 457.60 L 718.70 448.70 L 724.70 431.50 L 726.80 423.40 L 728.60 415.20 L 731.10 398.70 L 731.90 390.30 L 732.60 377.70 L 732.90 365.10 L 732.90 340.00 L 765.30 337.10 L 776.20 336.50 L 797.90 336.20 L 808.70 336.70 L 819.50 337.60 L 830.20 339.00 L 846.10 342.10 L 854.00 344.30 L 882.90 353.60 L 893.50 357.40 L 904.00 361.80 L 910.90 365.10 L 917.40 368.60 L 923.60 372.60 L 932.40 379.30 L 940.00 387.00 L 943.40 391.30 L 946.50 395.90 L 949.20 400.80 L 951.60 406.20 L 952.00 409.50 L 951.80 412.30 L 951.10 414.70 L 950.00 416.90 L 948.40 418.90 L 946.50 420.60 L 941.90 423.20 L 935.00 425.30 L 930.70 425.90 L 922.50 425.90 L 900.20 465.30 L 893.00 478.60 L 879.40 505.60 L 873.00 519.40 L 867.20 533.30 L 861.80 547.40 L 858.20 558.10 L 851.90 579.90 L 849.40 591.00 L 845.20 586.30 L 840.70 582.00 L 836.00 578.00 L 831.00 574.40 L 820.30 568.20 L 809.00 563.30 L 801.10 560.70 L 793.10 558.70 L 784.90 557.20 L 776.60 556.20 L 768.30 555.80 L 760.10 555.80 L 744.70 557.40 L 729.50 560.40 L 719.50 563.20 L 709.70 566.40 L 700.10 570.20 L 690.60 574.40 L 681.30 578.90 L 672.30 583.80 L 668.80 597.50 L 659.40 639.20 L 654.20 657.40 L 651.20 666.30 L 647.70 675.10 L 643.60 683.60 L 637.60 694.30 L 635.90 696.20 L 634.00 697.60 L 631.80 698.60 L 627.00 700.00 L 619.50 700.90 L 613.80 688.40 L 602.20 693.50 L 590.30 697.70 L 590.00 719.30 L 588.80 733.70 L 587.60 740.80 L 584.90 749.90 L 583.00 754.40 L 581.30 757.20 L 579.30 759.50 L 577.10 761.20 L 574.50 762.40 L 571.40 763.10 L 567.80 763.20 L 564.90 739.00 L 560.60 762.60 L 556.50 760.20 L 553.00 757.40 L 550.10 754.40 L 547.50 751.00 L 545.30 747.30 L 543.40 743.40 L 541.10 737.20 L 533.80 710.50 L 531.60 704.20 L 529.80 700.10 L 525.30 692.50 L 521.60 701.30 L 511.60 728.30 L 508.00 737.20 L 504.00 745.90 L 500.90 751.40 L 497.50 756.80 L 493.80 762.00 L 490.80 763.00 L 488.20 763.30 L 486.00 763.10 L 483.80 762.40 L 481.80 761.20 L 480.10 759.70 L 477.40 755.80 L 475.70 750.90 L 475.30 745.70 L 474.10 747.80 L 471.30 755.60 L 470.00 758.00 L 468.50 759.70 L 467.20 760.50 L 465.60 760.90 L 463.60 760.90 L 456.70 750.20 L 458.10 749.10 L 459.60 747.10 L 465.40 737.90 L 467.50 736.00 L 468.60 735.60 L 469.60 735.60 L 470.80 736.10 L 472.30 737.30 L 473.30 741.00 L 475.00 743.30 L 478.00 732.30 L 486.60 757.50 L 491.70 747.90 L 496.30 738.20 L 508.90 708.50 L 513.40 698.70 L 520.00 686.00 L 523.70 679.80 L 527.80 682.00 L 531.20 684.50 L 534.10 687.30 L 536.70 690.40 L 538.90 693.80 L 540.80 697.40 L 543.10 703.20 L 545.00 709.40 L 550.30 735.10 L 551.90 741.30 L 553.90 747.10 L 563.70 714.10 L 570.10 717.00 L 571.00 728.30 L 571.70 733.90 L 572.80 739.40 L 575.20 746.50 L 576.90 749.90 L 578.80 743.00 L 580.10 736.00 L 580.60 731.30 L 580.60 713.80 L 580.20 705.90 L 579.30 698.10 L 577.80 690.40 L 575.80 682.80 L 573.40 675.30 L 570.50 668.00 L 567.10 660.80 L 552.40 659.50 L 543.90 649.50 L 534.20 657.90 L 530.50 659.70 L 528.30 660.10 L 513.90 649.80 L 510.90 655.60 L 508.90 657.60 L 506.90 659.10 L 504.80 660.10 L 502.60 660.80 L 499.60 661.10 L 496.40 660.90 L 493.20 660.20 L 487.10 657.50 L 481.40 653.50 L 477.00 648.80 L 478.80 660.00 L 455.10 668.90 L 464.40 726.10 L 454.60 738.10 L 451.70 696.60 L 429.30 686.50 L 426.40 692.70 L 424.40 695.50 L 422.00 698.20 L 419.50 700.40 L 416.80 702.20 L 413.80 703.60 L 410.80 704.30 L 407.70 704.40 L 405.40 704.10 L 403.10 703.20 L 400.70 701.90 L 398.20 700.00 L 393.60 695.60 L 389.40 690.90 L 385.60 686.10 L 382.30 681.10 L 378.30 674.00 L 374.90 666.70 L 372.00 659.00 L 369.50 651.20 L 365.60 635.10 L 363.40 622.70 L 357.90 586.20 L 351.40 581.00 L 344.60 576.20 L 337.50 572.00 L 330.20 568.10 L 322.70 564.70 L 314.90 561.70 L 307.00 559.10 L 299.00 557.00 L 290.80 555.30 L 282.60 554.10 L 274.30 553.30 L 265.90 553.00 L 257.50 553.10 L 249.20 553.70 L 240.90 554.70 L 232.70 556.10 L 224.60 558.10 L 216.60 560.40 L 208.80 563.20 L 201.10 566.50 L 193.60 570.20 L 186.50 574.40 L 179.50 579.10 L 172.80 584.20 L 157.50 526.30 L 148.60 497.70 L 143.70 483.50 L 138.20 469.60 L 132.30 456.00 L 127.40 445.90 L 122.20 436.00 L 116.60 426.30 L 110.50 416.80 L 105.40 418.10 L 95.00 419.70 L 89.80 419.80 L 84.50 419.40 L 79.30 418.50 L 74.40 409.40 L 73.00 406.30 L 72.00 402.00 L 72.10 400.00 L 72.50 398.00 L 73.50 396.00 L 79.70 388.50 L 84.40 383.40 L 89.50 378.80 L 94.80 374.50 L 102.30 369.30 L 110.10 364.50 L 118.30 360.30 L 135.40 352.90 L 157.40 345.40 L 179.70 338.90 L 189.10 336.80 L 198.50 335.30 L 208.00 334.40 L 217.60 333.90 L 227.10 334.00 L 236.70 334.50 L 246.20 335.70 L 255.60 337.30 L 264.90 339.40 L 274.10 342.10 L 283.10 345.20 L 287.20 350.40 L 267.70 350.40 L 258.00 350.80 L 248.40 351.70 L 238.00 353.30 L 217.20 357.60 L 206.90 360.20 L 196.80 363.40 L 186.90 367.00 L 179.60 370.10 L 172.50 373.50 L 165.60 377.40 L 158.80 381.60 L 113.00 413.60 L 119.70 423.50 L 125.80 433.70 L 131.30 444.10 L 141.30 465.50 L 152.10 493.20 L 169.50 543.60 L 171.50 520.70 L 173.00 509.20 L 174.90 497.80 L 177.20 486.60 L 180.10 475.50 L 185.50 459.10 L 188.80 451.10 L 192.40 443.20 L 197.90 432.80 L 203.70 422.60 L 216.60 402.80 L 230.50 383.80 L 241.60 370.00 L 252.90 356.50 L 260.00 364.60 L 242.80 385.80 L 226.00 407.40 L 218.20 418.60 L 210.80 430.00 L 201.90 445.90 L 198.00 454.20 L 194.20 463.40 L 190.80 472.70 L 187.90 482.20 L 185.40 491.80 L 182.80 504.70 L 180.70 517.80 L 179.20 531.00 L 178.20 544.20 L 177.60 557.40 L 177.40 570.70 L 184.80 566.00 L 192.30 561.80 L 200.10 558.10 L 208.10 554.90 L 216.20 552.10 L 224.50 549.70 L 232.80 547.90 L 241.30 546.50 L 249.90 545.50 L 258.40 545.00 L 267.00 545.00 L 275.60 545.40 L 284.20 546.20 L 292.70 547.50 L 301.10 549.30 L 309.40 551.50 L 317.70 554.10 L 325.70 557.20 L 333.60 560.70 L 341.30 564.70 L 358.50 575.70 L 358.50 532.10 L 357.70 510.30 L 345.20 498.30 L 337.30 490.00 L 329.80 481.20 L 319.40 467.30 L 310.40 452.60 L 306.40 444.90 L 302.80 437.10 L 299.60 429.10 L 296.90 421.00 L 294.70 412.70 L 293.00 404.30 L 291.80 395.80 L 291.20 387.20 L 294.20 397.90 L 297.70 408.50 L 301.70 419.00 L 306.00 429.40 L 310.90 439.50 L 316.10 449.30 L 321.90 458.90 L 328.20 468.10 L 335.00 476.90 L 340.40 483.30 L 346.20 489.40 L 352.20 495.20 L 358.60 500.80 L 360.10 478.30 L 364.10 388.10 L 365.80 365.70 L 367.20 350.70 L 369.10 335.80 L 371.30 320.90 L 373.70 320.70 L 375.60 321.00 L 378.60 322.50 L 381.10 325.10 L 382.50 327.50 L 386.30 335.60 L 387.80 338.00 L 389.60 340.00 L 390.90 340.90 L 394.40 342.00 L 398.70 334.50 L 402.60 326.70 L 413.50 303.20 L 417.40 295.50 L 421.70 287.90 L 426.50 280.70 L 429.50 284.20 L 431.90 287.90 L 433.90 291.80 L 435.40 295.90 L 437.80 304.50 L 440.40 317.70 Z M 494.80 292.00 L 490.60 301.10 L 488.30 305.50 L 485.60 309.70 L 481.20 314.60 L 478.50 316.70 L 470.00 296.40 L 470.30 283.00 L 467.70 283.90 L 465.90 285.00 L 464.70 286.20 L 464.00 287.70 L 463.80 289.30 L 464.00 291.30 L 464.80 293.70 L 466.40 296.70 L 463.00 300.20 L 460.00 304.20 L 457.30 308.50 L 449.80 322.10 L 444.20 330.80 L 439.50 335.90 L 436.80 338.20 L 433.30 333.00 L 432.10 330.30 L 430.80 326.00 L 430.00 321.60 L 427.90 303.40 L 424.50 307.10 L 421.50 311.00 L 418.90 315.20 L 415.30 321.70 L 405.40 341.90 L 400.10 350.30 L 396.90 354.20 L 394.50 354.00 L 392.20 353.50 L 390.20 352.60 L 387.30 350.70 L 384.60 348.20 L 377.00 340.10 L 374.40 337.90 L 373.00 359.80 L 371.10 403.80 L 368.70 535.80 L 368.60 569.10 L 368.90 585.80 L 369.80 602.50 L 370.90 613.60 L 372.50 624.50 L 374.60 635.30 L 376.60 643.40 L 379.10 651.30 L 381.90 659.10 L 387.50 671.60 L 392.90 681.10 L 396.10 685.30 L 398.50 687.90 L 401.10 690.10 L 404.00 692.00 L 407.10 693.30 L 410.60 694.20 L 414.50 694.50 L 421.50 669.90 L 433.50 678.40 L 436.70 680.20 L 440.00 681.40 L 442.20 681.80 L 444.60 681.80 L 447.20 681.30 L 448.40 674.10 L 449.00 666.90 L 449.10 659.70 L 448.70 652.50 L 447.80 645.40 L 446.50 638.30 L 444.80 631.30 L 442.60 624.30 L 445.50 624.90 L 447.90 625.80 L 449.90 627.10 L 453.20 630.50 L 456.00 636.00 L 459.70 647.40 L 462.70 654.40 L 465.00 654.40 L 466.80 654.00 L 468.30 653.10 L 470.20 651.20 L 471.80 648.70 L 475.90 640.40 L 477.60 638.10 L 479.00 636.80 L 480.70 636.00 L 482.70 635.40 L 488.10 641.70 L 497.20 655.60 L 509.10 641.70 L 512.40 638.60 L 516.20 636.00 L 518.00 637.50 L 524.50 645.10 L 526.20 646.70 L 528.20 647.90 L 530.50 648.70 L 544.40 634.40 L 551.30 644.50 L 558.60 654.40 L 560.80 653.30 L 562.70 651.90 L 564.20 650.30 L 566.00 647.50 L 567.60 644.30 L 571.40 634.00 L 573.00 630.80 L 575.90 627.00 L 577.80 625.40 L 578.50 653.50 L 578.90 658.20 L 580.50 667.20 L 581.80 671.50 L 583.50 675.50 L 585.70 679.40 L 590.00 684.70 L 596.00 689.50 L 601.90 683.60 L 604.40 680.30 L 607.80 675.10 L 610.70 669.60 L 615.80 658.30 L 618.30 660.30 L 620.20 662.60 L 621.50 665.10 L 622.50 667.80 L 623.70 673.70 L 624.90 687.60 L 625.90 691.80 L 630.10 686.50 L 633.90 680.90 L 637.10 675.10 L 642.50 662.80 L 644.70 656.40 L 647.60 646.60 L 655.50 617.30 L 658.70 604.50 L 661.40 591.70 L 663.60 578.90 L 665.30 566.10 L 666.90 548.90 L 668.00 531.60 L 668.50 514.30 L 668.20 479.60 L 663.80 384.10 L 663.20 358.20 L 649.60 357.40 L 641.70 339.30 L 637.40 330.40 L 632.70 321.60 L 627.60 313.20 L 622.10 305.00 L 617.60 324.50 L 615.00 330.40 L 611.80 334.10 L 609.90 335.50 L 607.40 336.70 L 604.50 337.50 L 600.90 314.70 L 602.60 303.30 L 601.40 297.30 L 600.70 296.10 L 599.80 295.40 L 598.90 295.30 L 597.80 295.90 L 596.40 297.60 L 594.80 300.50 L 592.40 307.60 L 591.70 311.50 L 591.40 315.10 L 591.60 317.40 L 592.80 320.50 L 580.00 328.50 L 571.70 305.60 L 568.20 294.00 L 565.10 282.20 L 558.10 300.80 L 555.20 306.70 L 553.00 310.50 L 550.30 314.00 L 547.20 317.20 L 539.10 295.40 L 534.00 284.90 L 530.90 289.40 L 528.30 294.20 L 521.10 309.10 L 518.40 313.80 L 507.30 299.50 L 508.30 297.10 L 508.80 294.60 L 508.80 292.00 L 508.30 288.10 L 507.10 284.30 L 503.80 277.30 L 502.00 276.90 L 500.50 277.00 L 499.10 277.70 L 496.70 280.00 L 494.70 284.30 L 494.10 287.00 L 494.10 288.90 L 494.80 292.00 Z M 74.10 400.50 L 77.50 405.30 L 81.60 409.50 L 84.00 411.10 L 86.60 412.10 L 90.40 412.30 L 97.10 410.70 L 101.30 409.30 L 105.30 407.40 L 111.10 404.10 L 116.70 400.20 L 144.40 378.70 L 151.00 374.20 L 157.70 370.10 L 164.70 366.30 L 174.20 361.80 L 184.00 357.80 L 194.10 354.30 L 204.20 351.30 L 214.50 348.70 L 224.90 346.50 L 228.70 339.00 L 212.00 340.60 L 195.00 342.80 L 183.60 344.70 L 172.30 346.90 L 161.10 349.50 L 150.00 352.70 L 139.10 356.30 L 128.60 360.50 L 120.80 364.10 L 113.30 368.00 L 106.10 372.30 L 99.10 377.10 L 92.40 382.20 L 86.00 387.80 L 79.90 393.90 L 74.10 400.50 Z M 799.40 345.30 L 808.00 347.00 L 816.30 349.20 L 824.40 352.00 L 832.20 355.20 L 839.90 358.80 L 847.40 362.80 L 858.30 369.40 L 869.00 376.50 L 879.50 384.00 L 913.30 409.50 L 916.50 411.50 L 919.80 413.10 L 925.10 414.90 L 930.60 416.20 L 941.80 417.30 L 941.80 412.50 L 941.10 407.90 L 939.90 403.70 L 938.20 399.60 L 936.00 395.70 L 933.40 392.00 L 927.10 385.40 L 923.50 382.30 L 917.80 378.10 L 911.90 374.30 L 905.80 371.00 L 899.90 368.10 L 875.50 359.30 L 863.20 355.20 L 850.70 351.60 L 842.30 349.50 L 825.30 346.40 L 816.80 345.50 L 808.10 345.20 L 799.40 345.30 Z M 737.60 347.20 L 738.30 358.10 L 738.50 369.00 L 738.20 379.90 L 737.40 390.90 L 736.10 401.70 L 734.30 412.50 L 732.00 423.20 L 729.20 433.70 L 725.90 444.10 L 722.00 454.30 L 717.70 464.20 L 712.80 474.00 L 707.40 483.50 L 701.50 492.60 L 695.10 501.50 L 688.10 510.00 L 683.10 515.50 L 679.70 521.30 L 678.10 525.40 L 676.80 529.80 L 676.00 534.30 L 675.30 541.20 L 675.00 562.70 L 674.70 569.70 L 673.90 576.50 L 696.00 566.60 L 707.20 561.90 L 718.60 557.70 L 726.30 555.30 L 742.00 551.60 L 749.90 550.40 L 757.90 549.80 L 766.10 549.70 L 773.30 549.90 L 780.40 550.50 L 787.30 551.60 L 794.20 553.20 L 807.60 557.40 L 820.60 563.00 L 829.00 567.40 L 837.10 572.20 L 845.00 577.50 L 843.20 550.40 L 841.80 536.90 L 840.10 523.30 L 837.90 509.90 L 835.30 496.50 L 832.20 483.30 L 828.40 470.20 L 824.10 457.40 L 820.50 447.90 L 816.40 438.60 L 811.90 429.40 L 807.00 420.50 L 803.30 414.20 L 799.20 408.30 L 794.80 402.60 L 787.80 394.50 L 765.60 370.80 L 760.90 365.40 L 752.20 353.90 L 755.60 354.30 L 761.80 356.00 L 768.20 359.60 L 774.80 365.00 L 792.70 384.00 L 799.20 391.50 L 805.10 399.20 L 810.60 407.20 L 815.50 415.40 L 820.10 423.80 L 824.30 432.40 L 828.00 441.20 L 831.40 450.20 L 835.40 462.40 L 838.90 474.80 L 841.80 487.50 L 846.40 513.00 L 848.10 525.90 L 850.20 545.20 L 851.80 564.20 L 856.50 554.40 L 866.20 526.10 L 874.50 506.20 L 880.30 494.20 L 886.50 482.40 L 906.00 447.40 L 918.50 423.80 L 906.20 415.30 L 869.80 388.70 L 861.60 383.00 L 844.70 372.50 L 835.90 367.70 L 826.90 363.50 L 817.50 359.70 L 809.00 356.70 L 800.30 354.20 L 791.50 352.20 L 773.70 349.40 L 764.70 348.50 L 751.10 347.60 L 737.60 347.20 Z" fill="#5e5338" fill-rule="nonzero" node-id="46" stroke="none" target-height="503.3" target-width="880" target-x="72" target-y="260"></path><path d="M 494.80 292.00 L 494.10 288.90 L 494.10 287.00 L 494.70 284.30 L 496.70 280.00 L 499.10 277.70 L 500.50 277.00 L 502.00 276.90 L 503.80 277.30 L 507.10 284.30 L 508.30 288.10 L 508.80 292.00 L 508.80 294.60 L 508.30 297.10 L 507.30 299.50 L 494.80 292.00 Z" fill="#d9b862" fill-rule="nonzero" node-id="48" stroke="none" target-height="22.600006" target-width="14.699982" target-x="494.1" target-y="276.9"></path><path d="M 466.40 296.70 L 464.80 293.70 L 464.00 291.30 L 463.80 289.30 L 464.00 287.70 L 464.70 286.20 L 465.90 285.00 L 467.70 283.90 L 470.30 283.00 L 470.00 296.40 L 466.40 296.70 Z" fill="#dcc282" fill-rule="nonzero" node-id="50" stroke="none" target-height="13.700012" target-width="6.5" target-x="463.8" target-y="283"></path><path d="M 547.20 317.20 L 550.30 314.00 L 553.00 310.50 L 555.20 306.70 L 558.10 300.80 L 565.10 282.20 L 568.20 294.00 L 571.70 305.60 L 580.00 328.50 L 592.80 320.50 L 600.90 314.70 L 604.50 337.50 L 607.40 336.70 L 609.80 335.50 L 611.80 334.10 L 613.50 332.30 L 616.20 328.10 L 617.60 324.50 L 618.70 320.60 L 622.10 305.00 L 627.60 313.20 L 632.70 321.60 L 637.40 330.40 L 641.70 339.30 L 649.60 357.40 L 663.20 358.20 L 663.80 384.10 L 668.20 479.60 L 668.50 514.30 L 668.00 531.60 L 666.90 548.90 L 665.30 566.10 L 663.60 578.90 L 661.40 591.70 L 658.70 604.50 L 647.60 646.60 L 644.70 656.40 L 642.50 662.80 L 637.10 675.10 L 633.90 680.90 L 630.10 686.50 L 625.90 691.80 L 624.90 687.60 L 623.70 673.70 L 622.50 667.80 L 621.50 665.10 L 620.20 662.60 L 618.30 660.30 L 615.80 658.30 L 610.70 669.60 L 607.80 675.10 L 604.40 680.30 L 601.90 683.60 L 596.00 689.50 L 592.80 687.10 L 590.00 684.70 L 585.70 679.40 L 583.50 675.50 L 581.80 671.50 L 580.50 667.20 L 578.90 658.20 L 578.50 653.50 L 577.80 625.40 L 575.90 627.00 L 573.00 630.80 L 571.40 634.00 L 567.60 644.30 L 566.00 647.50 L 564.20 650.30 L 562.70 651.90 L 560.80 653.30 L 558.60 654.40 L 551.30 644.50 L 544.40 634.40 L 530.50 648.70 L 528.20 647.90 L 526.20 646.70 L 524.50 645.10 L 518.00 637.50 L 516.20 636.00 L 512.40 638.60 L 509.10 641.70 L 497.20 655.60 L 488.10 641.70 L 482.70 635.40 L 480.70 636.00 L 479.00 636.80 L 477.60 638.10 L 475.90 640.40 L 471.80 648.70 L 470.20 651.20 L 468.30 653.10 L 466.80 654.00 L 465.00 654.40 L 462.70 654.40 L 459.70 647.40 L 456.00 636.00 L 453.20 630.50 L 449.90 627.10 L 447.90 625.80 L 445.50 624.90 L 442.60 624.30 L 444.80 631.30 L 446.50 638.30 L 447.80 645.40 L 448.70 652.50 L 449.10 659.70 L 449.00 666.90 L 448.40 674.10 L 447.20 681.30 L 444.60 681.80 L 442.20 681.80 L 440.00 681.40 L 436.70 680.20 L 433.50 678.40 L 421.50 669.90 L 414.50 694.50 L 410.60 694.20 L 407.10 693.30 L 404.00 692.00 L 401.10 690.10 L 398.50 687.90 L 396.10 685.30 L 392.90 681.10 L 387.50 671.60 L 381.90 659.10 L 379.10 651.30 L 376.60 643.40 L 374.60 635.30 L 372.50 624.50 L 370.90 613.60 L 369.80 602.50 L 368.90 585.80 L 368.60 569.10 L 368.70 535.80 L 371.10 403.80 L 373.00 359.80 L 374.40 337.90 L 377.00 340.10 L 384.60 348.20 L 387.30 350.70 L 390.20 352.60 L 392.20 353.50 L 394.50 354.00 L 396.90 354.20 L 400.10 350.30 L 405.40 341.90 L 415.30 321.70 L 418.90 315.20 L 421.50 311.00 L 424.50 307.10 L 427.90 303.40 L 430.00 321.60 L 430.80 326.00 L 432.10 330.30 L 433.30 333.00 L 436.80 338.20 L 439.50 335.90 L 444.20 330.80 L 449.80 322.10 L 457.30 308.50 L 460.00 304.20 L 463.00 300.20 L 466.40 296.70 L 470.00 296.40 L 478.50 316.70 L 481.20 314.60 L 485.60 309.70 L 488.30 305.50 L 490.60 301.10 L 494.80 292.00 L 507.30 299.50 L 518.40 313.80 L 521.10 309.10 L 528.30 294.20 L 530.90 289.40 L 534.00 284.90 L 539.10 295.40 L 547.20 317.20 Z M 569.40 408.00 L 564.80 409.60 L 560.50 411.70 L 556.60 414.20 L 552.80 417.10 L 549.40 420.30 L 546.20 423.80 L 543.30 427.60 L 538.50 435.90 L 535.00 444.80 L 533.80 449.50 L 532.40 459.00 L 532.60 468.50 L 533.30 473.20 L 534.30 477.80 L 535.80 482.20 L 537.80 486.60 L 539.60 489.80 L 543.80 495.20 L 546.30 497.50 L 549.90 500.10 L 553.80 502.20 L 558.00 503.90 L 566.90 506.10 L 576.30 506.80 L 585.70 506.20 L 592.60 505.10 L 599.00 503.50 L 602.80 502.10 L 609.80 498.40 L 613.00 496.10 L 616.80 492.60 L 620.30 488.70 L 623.40 484.50 L 626.00 479.90 L 628.20 475.10 L 630.00 470.10 L 631.30 464.90 L 632.20 459.60 L 632.60 454.30 L 632.50 449.00 L 632.00 443.80 L 631.00 438.70 L 629.80 434.90 L 626.60 428.00 L 624.40 424.90 L 621.20 421.00 L 617.50 417.60 L 613.40 414.50 L 609.10 411.90 L 604.40 409.80 L 599.60 408.10 L 594.60 406.80 L 589.50 406.00 L 584.40 405.80 L 579.30 406.00 L 574.30 406.70 L 569.40 408.00 Z M 434.40 414.90 L 430.20 415.70 L 422.50 418.30 L 419.00 420.20 L 414.60 423.20 L 410.70 426.60 L 407.10 430.50 L 403.90 434.80 L 401.20 439.40 L 399.00 444.30 L 397.30 449.40 L 396.10 454.60 L 395.40 459.90 L 395.20 465.30 L 395.60 470.70 L 397.30 480.30 L 398.40 484.20 L 399.90 487.80 L 401.80 491.10 L 404.00 494.20 L 409.40 499.60 L 412.50 502.00 L 417.00 504.70 L 421.70 506.90 L 426.80 508.70 L 432.10 510.10 L 437.40 511.00 L 442.80 511.40 L 448.20 511.50 L 453.30 511.00 L 458.30 510.20 L 462.70 509.00 L 466.80 507.40 L 470.60 505.40 L 474.10 502.90 L 477.30 500.10 L 480.20 497.00 L 482.80 493.70 L 485.10 490.00 L 487.60 484.80 L 489.60 479.40 L 491.00 473.70 L 491.80 467.80 L 492.00 462.00 L 491.50 456.20 L 490.80 451.90 L 488.20 443.70 L 483.90 435.10 L 480.90 430.90 L 477.40 427.10 L 473.50 423.70 L 469.30 420.80 L 464.80 418.30 L 460.00 416.30 L 455.00 414.90 L 449.90 414.00 L 444.70 413.70 L 439.60 414.00 L 434.40 414.90 Z M 500.00 508.40 L 502.50 507.20 L 505.40 506.40 L 507.30 507.00 L 507.70 507.60 L 507.90 508.80 L 507.60 510.30 L 506.00 513.30 L 504.90 514.40 L 503.00 514.90 L 501.50 513.70 L 500.90 512.70 L 500.00 508.40 Z M 518.30 508.40 L 520.80 507.30 L 523.80 506.60 L 525.60 507.20 L 526.10 509.10 L 525.80 510.60 L 524.00 513.40 L 522.80 514.50 L 520.90 515.00 L 519.40 513.80 L 519.00 512.70 L 518.30 508.40 Z M 618.00 512.00 L 604.60 515.90 L 591.10 519.30 L 577.40 522.20 L 563.70 524.60 L 549.80 526.60 L 536.00 528.00 L 522.10 528.90 L 508.20 529.30 L 494.20 529.10 L 480.30 528.50 L 466.40 527.30 L 452.50 525.60 L 412.90 516.20 L 399.60 514.30 L 388.60 514.20 L 387.60 517.90 L 386.60 525.20 L 386.70 528.70 L 387.40 533.50 L 388.60 538.10 L 390.30 542.60 L 392.40 547.00 L 395.00 551.20 L 401.10 559.00 L 408.00 565.70 L 415.80 571.70 L 423.90 577.20 L 432.30 582.10 L 441.00 586.60 L 449.90 590.60 L 459.00 594.00 L 468.30 597.00 L 477.80 599.40 L 487.50 601.30 L 497.10 602.70 L 506.80 603.50 L 516.60 603.80 L 526.40 603.60 L 536.10 602.80 L 545.70 601.50 L 555.20 599.60 L 564.70 597.20 L 573.90 594.20 L 582.90 590.70 L 591.70 586.50 L 598.50 582.80 L 605.20 578.80 L 611.60 574.30 L 617.90 569.50 L 624.00 564.30 L 632.40 554.30 L 636.40 548.90 L 642.30 539.50 L 645.70 531.50 L 646.90 527.30 L 647.50 523.10 L 647.70 518.70 L 646.80 516.00 L 645.70 513.90 L 644.30 512.30 L 640.80 510.10 L 638.70 509.50 L 635.40 509.10 L 631.80 509.20 L 624.60 510.40 L 618.00 512.00 Z" fill="#f6c740" fill-rule="nonzero" node-id="52" stroke="none" target-height="412.3" target-width="299.9" target-x="368.6" target-y="282.2"></path><path d="M 592.80 320.50 L 591.60 317.40 L 591.40 315.10 L 591.70 311.50 L 592.40 307.60 L 594.80 300.50 L 596.40 297.60 L 597.80 295.90 L 598.90 295.30 L 599.80 295.40 L 600.70 296.10 L 602.00 299.50 L 602.60 303.30 L 600.90 314.70 L 592.80 320.50 Z" fill="#deba70" fill-rule="nonzero" node-id="54" stroke="none" target-height="25.200012" target-width="11.199951" target-x="591.4" target-y="295.3"></path><path d="M 74.10 400.50 L 79.90 393.90 L 86.00 387.80 L 92.40 382.20 L 99.10 377.10 L 106.10 372.30 L 113.30 368.00 L 120.80 364.10 L 128.60 360.50 L 139.10 356.30 L 150.00 352.70 L 161.10 349.50 L 172.30 346.90 L 183.60 344.70 L 195.00 342.80 L 212.00 340.60 L 228.70 339.00 L 224.90 346.50 L 214.50 348.70 L 204.20 351.30 L 194.10 354.30 L 184.00 357.80 L 174.20 361.80 L 164.70 366.30 L 157.70 370.10 L 151.00 374.20 L 144.40 378.70 L 116.70 400.20 L 111.10 404.10 L 105.30 407.40 L 101.30 409.30 L 97.10 410.70 L 90.40 412.30 L 86.60 412.10 L 84.00 411.10 L 81.60 409.50 L 77.50 405.30 L 74.10 400.50 Z" fill="#fbc73c" fill-rule="nonzero" node-id="56" stroke="none" target-height="73.29999" target-width="154.6" target-x="74.1" target-y="339"></path><path d="M 799.40 345.30 L 808.10 345.20 L 816.80 345.50 L 825.30 346.40 L 842.30 349.50 L 850.70 351.60 L 863.20 355.20 L 875.50 359.30 L 899.90 368.10 L 905.80 371.00 L 911.90 374.30 L 917.80 378.10 L 923.50 382.30 L 927.10 385.40 L 933.40 392.00 L 936.00 395.70 L 938.20 399.60 L 939.90 403.70 L 941.10 407.90 L 941.80 412.50 L 941.80 417.30 L 930.60 416.20 L 925.10 414.90 L 919.80 413.10 L 916.50 411.50 L 913.30 409.50 L 879.50 384.00 L 869.00 376.50 L 858.30 369.40 L 847.40 362.80 L 839.90 358.80 L 832.20 355.20 L 824.40 352.00 L 816.30 349.20 L 808.00 347.00 L 799.40 345.30 Z" fill="#f7c936" fill-rule="nonzero" node-id="58" stroke="none" target-height="72.099976" target-width="142.39996" target-x="799.4" target-y="345.2"></path><path d="M 248.40 351.70 L 258.00 350.80 L 267.70 350.40 L 288.00 350.40 L 291.80 395.80 L 293.00 404.30 L 294.70 412.70 L 296.90 421.00 L 299.60 429.10 L 302.80 437.10 L 306.40 444.90 L 310.40 452.60 L 314.70 460.00 L 324.40 474.30 L 329.80 481.20 L 337.30 490.00 L 345.20 498.30 L 353.40 506.10 L 353.70 534.40 L 353.30 548.50 L 352.30 562.70 L 341.30 564.70 L 333.60 560.70 L 325.70 557.20 L 317.70 554.10 L 309.40 551.50 L 301.10 549.30 L 292.70 547.50 L 284.20 546.20 L 275.60 545.40 L 267.00 545.00 L 258.40 545.00 L 249.90 545.50 L 241.30 546.50 L 232.80 547.90 L 224.50 549.70 L 216.20 552.10 L 208.10 554.90 L 200.10 558.10 L 192.30 561.80 L 184.80 566.00 L 177.40 570.70 L 177.60 557.40 L 178.20 544.20 L 179.20 531.00 L 180.70 517.80 L 182.80 504.70 L 185.40 491.80 L 187.90 482.20 L 190.80 472.70 L 194.20 463.40 L 198.00 454.20 L 201.90 445.90 L 210.80 430.00 L 218.20 418.60 L 226.00 407.40 L 242.80 385.80 L 260.00 364.60 L 248.40 351.70 Z" fill="#f5c83f" fill-rule="nonzero" node-id="60" stroke="none" target-height="220.30002" target-width="176.30002" target-x="177.4" target-y="350.4"></path><path d="M 737.60 347.20 L 751.10 347.60 L 764.70 348.50 L 773.70 349.40 L 791.50 352.20 L 800.30 354.20 L 809.00 356.70 L 817.50 359.70 L 826.90 363.50 L 835.90 367.70 L 844.70 372.50 L 861.60 383.00 L 869.80 388.70 L 906.20 415.30 L 918.50 423.80 L 906.00 447.40 L 886.50 482.40 L 880.30 494.20 L 874.50 506.20 L 866.20 526.10 L 856.50 554.40 L 851.80 564.20 L 850.20 545.20 L 848.10 525.90 L 844.30 500.20 L 841.80 487.50 L 838.90 474.80 L 835.40 462.40 L 831.40 450.20 L 828.00 441.20 L 824.30 432.40 L 820.10 423.80 L 815.50 415.40 L 810.60 407.20 L 805.10 399.20 L 799.20 391.50 L 792.70 384.00 L 774.80 365.00 L 768.20 359.60 L 761.80 356.00 L 755.60 354.30 L 752.20 353.90 L 760.90 365.40 L 765.60 370.80 L 787.80 394.50 L 794.80 402.60 L 799.20 408.30 L 803.30 414.20 L 807.00 420.50 L 811.90 429.40 L 816.40 438.60 L 820.50 447.90 L 824.10 457.40 L 828.40 470.20 L 832.20 483.30 L 835.30 496.50 L 837.90 509.90 L 840.10 523.30 L 841.80 536.90 L 843.20 550.40 L 845.00 577.50 L 837.10 572.20 L 829.00 567.40 L 820.60 563.00 L 807.60 557.40 L 794.20 553.20 L 787.30 551.60 L 780.40 550.50 L 773.30 549.90 L 766.10 549.70 L 757.90 549.80 L 749.90 550.40 L 742.00 551.60 L 726.30 555.30 L 718.60 557.70 L 707.20 561.90 L 696.00 566.60 L 673.90 576.50 L 674.70 569.70 L 675.00 562.70 L 675.30 541.20 L 676.00 534.30 L 676.80 529.80 L 678.10 525.40 L 679.70 521.30 L 683.10 515.50 L 688.10 510.00 L 695.10 501.50 L 701.50 492.60 L 707.40 483.50 L 712.80 474.00 L 717.70 464.20 L 722.00 454.30 L 725.90 444.10 L 729.20 433.70 L 732.00 423.20 L 734.30 412.50 L 736.10 401.70 L 737.40 390.90 L 738.20 379.90 L 738.50 369.00 L 738.30 358.10 L 737.60 347.20 Z" fill="#f5c740" fill-rule="nonzero" node-id="62" stroke="none" target-height="230.29999" target-width="244.59998" target-x="673.9" target-y="347.2"></path><path d="M 158.80 381.60 L 165.60 377.40 L 172.50 373.50 L 179.60 370.10 L 186.90 367.00 L 196.80 363.40 L 206.90 360.20 L 217.20 357.60 L 227.60 355.30 L 248.40 351.70 L 252.90 356.50 L 241.60 370.00 L 230.50 383.80 L 216.60 402.80 L 203.70 422.60 L 197.90 432.80 L 192.40 443.20 L 188.80 451.10 L 185.50 459.10 L 180.10 475.50 L 177.20 486.60 L 174.90 497.80 L 173.00 509.20 L 171.50 520.70 L 169.50 543.60 L 152.10 493.20 L 141.30 465.50 L 131.30 444.10 L 125.80 433.70 L 119.70 423.50 L 113.00 413.60 L 158.80 381.60 Z" fill="#f7c83f" fill-rule="nonzero" node-id="64" stroke="none" target-height="191.89996" target-width="139.9" target-x="113" target-y="351.7"></path><path d="M 569.40 408.00 L 574.30 406.70 L 579.30 406.00 L 584.40 405.80 L 589.50 406.00 L 594.60 406.80 L 599.60 408.10 L 604.40 409.80 L 609.10 411.90 L 613.40 414.50 L 617.50 417.60 L 621.20 421.00 L 624.40 424.90 L 626.60 428.00 L 629.80 434.90 L 631.00 438.70 L 632.00 443.80 L 632.50 449.00 L 632.60 454.30 L 632.20 459.60 L 631.30 464.90 L 630.00 470.10 L 628.20 475.10 L 626.00 479.90 L 623.40 484.50 L 620.30 488.70 L 616.80 492.60 L 613.00 496.10 L 609.80 498.40 L 602.80 502.10 L 599.00 503.50 L 592.60 505.10 L 581.00 506.60 L 571.60 506.60 L 566.90 506.10 L 558.00 503.90 L 553.80 502.20 L 549.90 500.10 L 546.30 497.50 L 543.80 495.20 L 539.60 489.80 L 535.80 482.20 L 534.30 477.80 L 533.30 473.20 L 532.60 468.50 L 532.40 459.00 L 533.80 449.50 L 535.00 444.80 L 538.50 435.90 L 543.30 427.60 L 546.20 423.80 L 549.40 420.30 L 552.80 417.10 L 556.60 414.20 L 560.50 411.70 L 564.80 409.60 L 569.40 408.00 Z M 546.00 483.30 L 548.50 486.50 L 551.10 489.30 L 554.00 491.70 L 557.10 493.70 L 561.50 496.00 L 566.20 497.70 L 571.10 498.80 L 576.10 499.40 L 581.20 499.40 L 586.30 499.00 L 591.40 498.00 L 596.30 496.50 L 601.10 494.60 L 605.70 492.20 L 609.80 489.40 L 613.70 486.20 L 604.50 490.00 L 599.50 491.60 L 591.10 493.40 L 584.50 493.60 L 581.30 493.20 L 578.20 492.30 L 575.30 491.10 L 572.70 489.30 L 570.20 487.00 L 567.90 484.00 L 566.80 478.40 L 567.30 474.00 L 568.50 471.30 L 570.10 469.00 L 572.30 467.00 L 574.80 465.30 L 580.70 462.80 L 583.80 462.00 L 590.20 461.30 L 588.00 438.40 L 592.40 437.90 L 596.60 437.90 L 600.50 438.30 L 604.20 439.20 L 611.30 442.20 L 617.80 446.70 L 621.70 450.30 L 625.30 454.30 L 628.60 458.90 L 628.60 454.60 L 627.40 446.30 L 626.30 442.30 L 622.90 434.70 L 618.40 427.90 L 615.60 424.90 L 612.70 422.20 L 609.40 419.80 L 605.90 417.70 L 602.20 416.00 L 598.30 414.80 L 594.20 413.90 L 585.20 413.00 L 580.80 413.00 L 576.70 413.40 L 572.60 414.40 L 568.70 415.70 L 564.90 417.50 L 561.30 419.60 L 557.90 422.20 L 553.80 426.00 L 550.10 430.20 L 546.80 434.90 L 544.10 440.00 L 542.00 445.30 L 540.40 450.70 L 539.30 459.10 L 539.80 467.50 L 540.60 471.60 L 541.90 475.60 L 543.70 479.50 L 546.00 483.30 Z" fill="#383344" fill-rule="nonzero" node-id="66" stroke="none" target-height="100.80002" target-width="100.19995" target-x="532.4" target-y="405.8"></path><path d="M 410.20 456.80 L 411.60 453.80 L 415.10 449.00 L 417.20 447.10 L 420.30 445.00 L 423.70 443.20 L 427.40 441.80 L 433.10 440.40 L 439.10 439.50 L 450.90 438.90 L 450.60 460.50 L 472.80 460.80 L 472.80 468.90 L 472.20 473.10 L 471.20 477.10 L 469.80 481.00 L 468.10 484.70 L 465.90 488.10 L 463.30 491.10 L 460.40 493.70 L 455.20 496.70 L 449.00 498.30 L 445.40 498.50 L 437.90 497.60 L 430.40 495.40 L 423.30 491.90 L 417.00 487.30 L 414.30 484.60 L 412.00 481.80 L 410.10 478.70 L 408.60 475.40 L 407.70 472.00 L 407.30 468.40 L 407.90 462.90 L 410.20 456.80 Z" fill="#3b3343" fill-rule="nonzero" node-id="68" stroke="none" target-height="59.600006" target-width="65.5" target-x="407.3" target-y="438.9"></path><path d="M 353.40 506.10 L 357.70 510.30 L 358.50 532.10 L 358.50 575.70 L 341.30 564.70 L 352.30 562.70 L 353.30 548.50 L 353.70 534.40 L 353.40 506.10 Z" fill="#e5c75f" fill-rule="nonzero" node-id="70" stroke="none" target-height="69.600006" target-width="17.200012" target-x="341.3" target-y="506.1"></path><path d="M 500.00 508.40 L 502.50 507.20 L 505.40 506.40 L 507.30 507.00 L 507.70 507.60 L 507.90 508.80 L 507.60 510.30 L 506.00 513.30 L 504.90 514.40 L 503.00 514.90 L 501.50 513.70 L 500.90 512.70 L 500.00 508.40 Z" fill="#6b5620" fill-rule="nonzero" node-id="72" stroke="none" target-height="8.5000305" target-width="7.899994" target-x="500" target-y="506.4"></path><path d="M 518.30 508.40 L 520.80 507.30 L 523.80 506.60 L 525.60 507.20 L 526.10 509.10 L 525.80 510.60 L 524.00 513.40 L 522.80 514.50 L 520.90 515.00 L 519.40 513.80 L 519.00 512.70 L 518.30 508.40 Z" fill="#705c19" fill-rule="nonzero" node-id="74" stroke="none" target-height="8.399994" target-width="7.799988" target-x="518.3" target-y="506.6"></path><path d="M 618.00 512.00 L 628.20 509.60 L 635.40 509.10 L 638.70 509.50 L 640.80 510.10 L 644.30 512.30 L 645.70 513.90 L 646.80 516.00 L 647.70 518.70 L 647.50 523.10 L 646.90 527.30 L 645.70 531.50 L 644.20 535.50 L 640.10 543.30 L 636.40 548.90 L 632.40 554.30 L 624.00 564.30 L 617.90 569.50 L 611.60 574.30 L 605.20 578.80 L 598.50 582.80 L 591.70 586.50 L 582.90 590.70 L 573.90 594.20 L 564.70 597.20 L 555.20 599.60 L 545.70 601.50 L 536.10 602.80 L 526.40 603.60 L 516.60 603.80 L 506.80 603.50 L 497.10 602.70 L 487.50 601.30 L 477.80 599.40 L 468.30 597.00 L 459.00 594.00 L 449.90 590.60 L 441.00 586.60 L 432.30 582.10 L 423.90 577.20 L 415.80 571.70 L 408.00 565.70 L 401.10 559.00 L 395.00 551.20 L 392.40 547.00 L 390.30 542.60 L 388.60 538.10 L 387.40 533.50 L 386.70 528.70 L 386.60 525.20 L 387.60 517.90 L 388.60 514.20 L 399.60 514.30 L 412.90 516.20 L 452.50 525.60 L 466.40 527.30 L 480.30 528.50 L 494.20 529.10 L 508.20 529.30 L 522.10 528.90 L 536.00 528.00 L 549.80 526.60 L 563.70 524.60 L 577.40 522.20 L 591.10 519.30 L 604.60 515.90 L 618.00 512.00 Z M 414.80 526.20 L 420.90 540.70 L 424.40 547.80 L 428.30 554.60 L 439.50 531.20 L 414.80 526.20 Z M 583.50 531.40 L 591.00 548.40 L 599.90 564.70 L 608.10 544.60 L 614.70 524.10 L 583.50 531.40 Z M 438.30 571.50 L 438.50 573.80 L 439.10 575.60 L 440.10 577.10 L 442.90 579.40 L 444.70 580.30 L 456.30 584.60 L 465.40 587.30 L 484.20 591.90 L 493.90 593.60 L 503.60 594.80 L 513.30 595.50 L 520.60 595.60 L 527.90 595.20 L 535.00 594.50 L 542.10 593.30 L 549.10 591.70 L 555.90 589.50 L 562.60 586.80 L 569.20 583.60 L 556.70 578.80 L 535.30 571.70 L 517.80 567.30 L 508.90 565.70 L 500.00 564.40 L 491.10 563.60 L 482.20 563.40 L 473.30 563.70 L 464.50 564.60 L 457.90 565.70 L 451.40 567.20 L 444.90 569.10 L 438.30 571.50 Z" fill="#3a3542" fill-rule="nonzero" node-id="76" stroke="none" target-height="94.69998" target-width="261.1" target-x="386.6" target-y="509.1"></path><path d="M 583.50 531.40 L 614.70 524.10 L 608.10 544.60 L 599.90 564.70 L 591.00 548.40 L 583.50 531.40 Z" fill="#fcfbfb" fill-rule="nonzero" node-id="78" stroke="none" target-height="40.600037" target-width="31.200012" target-x="583.5" target-y="524.1"></path><path d="M 438.30 571.50 L 444.90 569.10 L 451.40 567.20 L 457.90 565.70 L 464.50 564.60 L 473.30 563.70 L 482.20 563.40 L 491.10 563.60 L 500.00 564.40 L 508.90 565.70 L 517.80 567.30 L 535.30 571.70 L 556.70 578.80 L 569.20 583.60 L 562.60 586.80 L 555.90 589.50 L 549.10 591.70 L 542.10 593.30 L 535.00 594.50 L 527.90 595.20 L 520.60 595.60 L 513.30 595.50 L 503.60 594.80 L 493.90 593.60 L 484.20 591.90 L 474.70 589.80 L 456.30 584.60 L 444.70 580.30 L 441.40 578.30 L 439.10 575.60 L 438.50 573.80 L 438.30 571.50 Z" fill="#faa648" fill-rule="nonzero" node-id="80" stroke="none" target-height="32.19995" target-width="130.90002" target-x="438.3" target-y="563.4"></path><path d="M 513.90 649.80 L 528.30 660.10 L 530.50 659.70 L 534.20 657.90 L 543.90 649.50 L 552.40 659.50 L 567.10 660.80 L 570.50 668.00 L 573.40 675.30 L 575.80 682.80 L 577.80 690.40 L 579.30 698.10 L 580.20 705.90 L 580.60 713.80 L 580.50 721.80 L 563.70 714.10 L 553.90 747.10 L 551.90 741.30 L 550.30 735.10 L 545.00 709.40 L 543.10 703.20 L 540.80 697.40 L 538.90 693.80 L 536.70 690.40 L 534.10 687.30 L 531.20 684.50 L 527.80 682.00 L 523.70 679.80 L 520.00 686.00 L 513.40 698.70 L 508.90 708.50 L 496.30 738.20 L 491.70 747.90 L 486.60 757.50 L 479.70 737.10 L 479.00 733.90 L 478.60 730.80 L 478.30 718.00 L 476.30 715.10 L 468.50 722.60 L 463.00 717.30 L 455.10 668.90 L 478.80 660.00 L 492.70 662.80 L 497.30 663.40 L 506.80 663.80 L 513.90 649.80 Z" fill="#f8ca41" fill-rule="nonzero" node-id="82" stroke="none" target-height="108" target-width="125.49997" target-x="455.1" target-y="649.5"></path><path d="M 468.50 722.60 L 476.30 715.10 L 478.30 718.00 L 478.30 721.40 L 477.80 723.90 L 476.80 725.70 L 475.60 727.00 L 474.00 727.90 L 471.80 728.30 L 469.00 728.10 L 468.50 722.60 Z" fill="#423221" fill-rule="nonzero" node-id="84" stroke="none" target-height="13.200012" target-width="9.799988" target-x="468.5" target-y="715.1"></path></svg>