<?xml version="1.0" standalone="no"?><!DOCTYPE svg PUBLIC "-//W3C//DTD SVG 1.1//EN" "http://www.w3.org/Graphics/SVG/1.1/DTD/svg11.dtd"><svg height="1024" node-id="1" sillyvg="true" template-height="1024" template-width="1024" version="1.1" viewBox="0 0 1024 1024" width="1024" xmlns="http://www.w3.org/2000/svg" xmlns:xlink="http://www.w3.org/1999/xlink"><defs node-id="42"></defs><path d="M 0.00 0.00 L 1024.00 0.00 L 1024.00 1024.00 L 0.00 1024.00 Z" fill="#ffffff" fill-rule="nonzero" node-id="44" stroke="none" target-height="1024" target-width="1024" target-x="0" target-y="0"></path><path d="M 388.10 354.30 L 392.90 353.00 L 397.70 352.30 L 402.60 351.90 L 407.50 352.00 L 417.10 353.40 L 426.40 356.40 L 430.90 358.40 L 435.10 360.80 L 439.10 363.50 L 442.90 366.60 L 446.50 370.00 L 449.70 373.60 L 452.60 377.60 L 455.10 381.80 L 457.80 387.20 L 460.00 392.80 L 461.70 398.60 L 462.80 404.60 L 463.40 410.60 L 463.50 416.70 L 463.00 422.80 L 462.00 428.80 L 460.50 434.60 L 458.40 440.30 L 455.90 445.80 L 452.80 451.00 L 447.30 458.10 L 440.60 464.30 L 436.20 467.40 L 431.70 470.00 L 427.00 472.20 L 422.10 473.90 L 417.00 475.10 L 411.80 476.00 L 406.60 476.30 L 401.30 476.30 L 396.10 475.80 L 390.90 474.90 L 385.80 473.70 L 380.80 472.00 L 376.00 469.90 L 371.40 467.40 L 367.10 464.60 L 362.90 461.40 L 359.20 457.80 L 355.80 453.90 L 352.80 449.60 L 350.20 444.90 L 347.90 439.70 L 346.20 434.40 L 345.00 429.00 L 344.20 423.50 L 343.90 418.00 L 344.10 412.50 L 344.70 407.00 L 345.70 401.50 L 347.20 396.10 L 349.10 390.90 L 351.40 385.90 L 354.00 381.10 L 357.10 376.40 L 360.50 372.20 L 364.30 368.20 L 368.40 364.60 L 372.80 361.30 L 377.60 358.50 L 382.70 356.20 L 388.10 354.30 Z M 366.20 438.40 L 370.40 444.20 L 375.50 448.90 L 379.40 451.40 L 383.60 453.30 L 388.00 454.80 L 392.60 455.70 L 397.20 456.10 L 401.90 456.00 L 406.50 455.20 L 410.90 454.00 L 415.10 452.10 L 420.80 448.20 L 425.80 443.00 L 428.10 440.00 L 430.00 437.00 L 431.50 433.80 L 432.50 430.50 L 433.40 426.00 L 433.70 421.50 L 433.30 416.80 L 432.30 412.30 L 430.90 407.80 L 428.90 403.50 L 426.40 399.50 L 423.60 395.80 L 420.30 392.40 L 407.70 404.10 L 400.80 409.10 L 397.90 408.80 L 395.70 408.10 L 393.90 407.10 L 392.40 405.60 L 391.20 404.00 L 390.40 402.00 L 389.60 398.80 L 389.30 391.50 L 390.60 381.20 L 386.60 381.70 L 382.80 382.60 L 379.40 384.00 L 376.20 385.70 L 373.20 387.90 L 370.60 390.30 L 368.20 392.90 L 366.10 395.90 L 363.80 400.20 L 362.00 404.80 L 360.80 409.60 L 360.10 414.60 L 360.10 419.60 L 360.70 424.50 L 362.70 431.70 L 366.20 438.40 Z" fill="#fefefd" fill-rule="nonzero" node-id="46" stroke="none" target-height="124.399994" target-width="119.600006" target-x="343.9" target-y="351.9"></path><path d="M 829.90 242.20 L 831.20 243.80 L 832.60 247.10 L 833.00 252.60 L 830.40 307.50 L 828.40 305.50 L 826.80 303.20 L 825.80 300.90 L 825.20 298.30 L 824.50 286.50 L 824.50 277.50 L 824.90 268.60 L 825.60 261.90 L 828.10 248.70 L 829.90 242.20 Z" fill="#3d3a4f" fill-rule="nonzero" node-id="48" stroke="none" target-height="65.3" target-width="8.5" target-x="824.5" target-y="242.2"></path><path d="M 847.50 301.80 L 848.20 284.10 L 849.30 271.70 L 850.50 265.80 L 851.60 262.00 L 854.80 255.00 L 857.00 251.80 L 859.60 248.90 L 862.70 246.30 L 861.50 251.90 L 858.50 275.50 L 857.40 281.30 L 855.90 286.90 L 853.80 292.30 L 852.10 295.60 L 850.00 298.80 L 847.50 301.80 Z" fill="#3d3a4f" fill-rule="nonzero" node-id="50" stroke="none" target-height="55.499985" target-width="15.200012" target-x="847.5" target-y="246.3"></path><path d="M 864.50 306.10 L 866.50 300.00 L 868.90 294.20 L 871.80 288.70 L 875.10 283.30 L 882.60 273.20 L 888.90 266.00 L 895.50 259.30 L 896.90 260.90 L 897.60 262.30 L 898.00 263.70 L 897.80 265.90 L 897.00 268.10 L 895.80 270.20 L 874.40 297.00 L 868.00 303.30 L 864.50 306.10 Z" fill="#3d3a4f" fill-rule="nonzero" node-id="52" stroke="none" target-height="46.80002" target-width="33.5" target-x="864.5" target-y="259.3"></path><path d="M 209.20 310.10 L 209.50 307.00 L 210.20 304.20 L 212.70 299.10 L 216.30 294.70 L 223.10 289.00 L 230.40 284.30 L 230.40 287.50 L 229.90 290.40 L 228.90 292.90 L 227.50 295.30 L 223.60 299.60 L 220.10 302.40 L 209.20 310.10 Z" fill="#3d3a4f" fill-rule="nonzero" node-id="54" stroke="none" target-height="25.800018" target-width="21.199997" target-x="209.2" target-y="284.3"></path><path d="M 874.10 315.50 L 878.10 308.80 L 882.70 302.60 L 887.70 296.70 L 891.80 292.70 L 896.20 288.90 L 900.90 285.50 L 905.90 282.50 L 903.30 289.80 L 901.40 293.40 L 896.90 300.10 L 894.30 303.20 L 891.30 306.10 L 884.90 310.90 L 881.50 312.80 L 877.80 314.30 L 874.10 315.50 Z" fill="#3d3a4f" fill-rule="nonzero" node-id="56" stroke="none" target-height="33" target-width="31.800049" target-x="874.1" target-y="282.5"></path><path d="M 165.70 272.20 L 169.30 273.90 L 172.40 276.10 L 175.10 278.60 L 179.40 284.60 L 183.20 293.40 L 188.10 309.90 L 185.10 309.00 L 182.60 307.70 L 180.50 305.90 L 177.00 301.40 L 175.50 298.70 L 173.80 294.40 L 169.30 280.40 L 167.60 276.00 L 165.70 272.20 Z" fill="#37384d" fill-rule="nonzero" node-id="58" stroke="none" target-height="37.69998" target-width="22.40001" target-x="165.7" target-y="272.2"></path><path d="M 227.00 311.00 L 230.00 310.50 L 231.90 310.60 L 233.20 311.00 L 234.10 311.90 L 234.60 313.10 L 234.70 314.60 L 233.80 317.70 L 231.50 320.80 L 228.50 323.10 L 226.70 323.80 L 224.80 324.00 L 220.90 323.40 L 218.90 322.10 L 218.10 320.10 L 218.90 317.00 L 220.00 315.20 L 221.50 313.60 L 223.30 312.20 L 225.20 311.30 L 227.00 311.00 Z" fill="#37384d" fill-rule="nonzero" node-id="60" stroke="none" target-height="13.5" target-width="16.59999" target-x="218.1" target-y="310.5"></path><path d="M 888.60 329.90 L 889.80 326.90 L 891.40 324.40 L 893.30 322.10 L 897.80 318.30 L 904.50 314.70 L 917.00 309.50 L 916.00 312.60 L 914.50 315.30 L 912.80 317.70 L 908.40 321.70 L 901.70 325.40 L 897.30 327.10 L 888.60 329.90 Z" fill="#37384d" fill-rule="nonzero" node-id="62" stroke="none" target-height="20.399994" target-width="28.400024" target-x="888.6" target-y="309.5"></path><path d="M 387.10 339.00 L 384.70 340.40 L 382.70 341.10 L 381.10 341.10 L 379.60 340.70 L 378.40 339.90 L 376.60 337.20 L 376.00 333.90 L 376.10 332.10 L 377.20 328.90 L 378.10 327.60 L 382.40 325.00 L 385.30 324.00 L 387.60 324.00 L 389.90 324.60 L 392.00 325.60 L 393.70 326.90 L 395.00 328.60 L 395.50 330.30 L 395.50 331.40 L 395.10 332.50 L 394.10 333.70 L 391.10 335.50 L 388.40 336.30 L 390.80 338.40 L 393.30 340.10 L 395.90 341.30 L 400.10 342.60 L 404.40 343.30 L 418.10 344.60 L 425.40 346.20 L 436.30 351.20 L 441.30 354.10 L 445.90 357.40 L 450.30 361.20 L 454.20 365.30 L 457.80 369.70 L 461.10 374.40 L 464.00 379.40 L 466.40 384.50 L 468.50 389.90 L 470.10 395.40 L 471.40 401.00 L 472.20 406.70 L 472.50 412.40 L 472.40 418.10 L 471.90 423.90 L 470.80 429.50 L 469.30 435.00 L 467.30 440.40 L 462.00 450.50 L 458.90 455.00 L 455.50 459.10 L 451.70 462.80 L 447.60 466.20 L 443.30 469.30 L 438.70 472.00 L 433.90 474.30 L 428.90 476.30 L 418.60 479.20 L 407.80 480.60 L 397.00 480.50 L 386.20 479.00 L 375.90 476.00 L 370.90 473.90 L 366.10 471.50 L 361.60 468.70 L 357.30 465.50 L 353.30 462.00 L 349.60 458.20 L 346.40 454.20 L 343.70 450.00 L 341.30 445.60 L 337.70 436.30 L 335.60 426.40 L 335.10 419.60 L 335.10 412.80 L 335.80 406.00 L 337.10 399.20 L 338.90 392.60 L 341.30 386.20 L 344.30 380.00 L 347.70 374.20 L 351.70 368.80 L 355.10 365.00 L 358.60 361.50 L 362.50 358.40 L 366.60 355.50 L 370.90 353.10 L 375.50 351.00 L 380.30 349.40 L 385.40 348.20 L 387.10 339.00 Z M 388.10 354.30 L 382.70 356.20 L 377.60 358.50 L 372.80 361.30 L 368.40 364.60 L 364.30 368.20 L 360.50 372.20 L 357.10 376.40 L 354.00 381.10 L 351.40 385.90 L 349.10 390.90 L 347.20 396.10 L 345.70 401.50 L 344.70 407.00 L 344.10 412.50 L 343.90 418.00 L 344.20 423.50 L 345.00 429.00 L 346.20 434.40 L 347.90 439.70 L 350.20 444.90 L 352.80 449.60 L 355.80 453.90 L 359.20 457.80 L 363.00 461.40 L 367.10 464.60 L 371.40 467.40 L 376.00 469.90 L 380.80 472.00 L 385.80 473.70 L 390.90 474.90 L 396.10 475.80 L 401.30 476.30 L 406.60 476.30 L 411.80 475.90 L 417.00 475.10 L 422.10 473.90 L 427.00 472.20 L 431.70 470.00 L 436.20 467.40 L 440.60 464.30 L 444.10 461.30 L 450.20 454.70 L 452.80 451.00 L 455.90 445.80 L 458.40 440.30 L 460.50 434.60 L 462.00 428.80 L 463.00 422.80 L 463.50 416.70 L 463.40 410.60 L 462.80 404.60 L 461.70 398.60 L 460.00 392.80 L 457.80 387.20 L 452.60 377.60 L 449.70 373.60 L 446.50 370.00 L 442.90 366.60 L 435.10 360.80 L 430.90 358.40 L 421.80 354.70 L 412.30 352.50 L 407.50 352.00 L 402.60 351.90 L 397.70 352.30 L 392.90 353.00 L 388.10 354.30 Z" fill="#37384d" fill-rule="nonzero" node-id="64" stroke="none" target-height="156.6" target-width="137.4" target-x="335.1" target-y="324"></path><path d="M 437.50 345.20 L 440.20 339.80 L 442.00 337.30 L 444.10 335.00 L 448.80 331.30 L 451.40 329.80 L 457.10 328.10 L 460.00 327.80 L 463.10 328.10 L 466.20 328.80 L 470.40 331.20 L 474.30 334.10 L 477.80 337.40 L 480.90 341.10 L 483.70 345.10 L 486.00 349.30 L 487.90 353.80 L 489.40 358.40 L 490.50 363.10 L 487.40 362.50 L 484.70 361.40 L 482.40 359.90 L 480.40 358.10 L 476.70 353.80 L 469.20 342.80 L 466.30 339.70 L 464.10 337.90 L 461.60 336.50 L 458.80 335.50 L 456.20 335.70 L 451.20 337.30 L 437.50 345.20 Z" fill="#37384d" fill-rule="nonzero" node-id="66" stroke="none" target-height="35.30002" target-width="53" target-x="437.5" target-y="327.8"></path><path d="M 615.00 337.50 L 621.50 336.50 L 628.00 336.10 L 634.50 336.40 L 640.90 337.20 L 647.30 338.50 L 653.50 340.40 L 659.50 342.80 L 665.30 345.70 L 670.80 349.10 L 676.00 353.00 L 680.90 357.30 L 685.30 362.00 L 689.30 367.10 L 692.80 372.60 L 695.70 378.50 L 698.20 384.40 L 700.10 390.60 L 701.50 397.00 L 702.40 403.50 L 702.70 410.00 L 702.50 416.50 L 701.70 423.00 L 700.20 429.20 L 698.20 435.40 L 696.30 439.90 L 694.10 444.10 L 691.40 448.20 L 688.40 452.20 L 684.40 456.50 L 680.00 460.40 L 675.30 463.90 L 670.40 466.90 L 665.10 469.40 L 659.80 471.60 L 654.20 473.20 L 648.40 474.50 L 642.60 475.30 L 636.80 475.70 L 630.90 475.70 L 625.00 475.30 L 619.10 474.40 L 613.40 473.10 L 607.80 471.50 L 602.30 469.40 L 597.00 466.90 L 592.00 464.00 L 587.20 460.70 L 582.70 457.00 L 578.60 452.90 L 574.90 448.50 L 571.60 443.60 L 566.30 433.40 L 564.30 428.40 L 562.80 423.30 L 561.80 418.10 L 561.10 412.80 L 561.00 402.20 L 561.60 396.90 L 562.50 391.60 L 565.40 381.40 L 569.80 371.60 L 572.50 367.00 L 578.80 358.50 L 582.40 354.60 L 586.20 351.10 L 590.40 347.90 L 594.80 345.00 L 599.50 342.50 L 604.30 340.40 L 609.50 338.70 L 615.00 337.50 Z M 609.40 347.90 L 604.60 350.00 L 600.00 352.40 L 595.80 355.20 L 591.70 358.40 L 588.00 361.90 L 584.50 365.70 L 581.40 369.70 L 578.60 374.10 L 576.10 378.60 L 574.00 383.30 L 572.30 388.10 L 571.00 393.10 L 570.10 398.20 L 569.60 403.30 L 569.60 408.40 L 570.50 418.20 L 572.40 427.20 L 573.90 431.60 L 576.30 437.20 L 579.30 442.50 L 582.80 447.60 L 586.70 452.30 L 591.00 456.60 L 595.80 460.50 L 600.90 463.80 L 606.20 466.70 L 611.90 468.90 L 616.30 470.20 L 620.80 471.10 L 625.40 471.70 L 635.30 472.10 L 640.40 471.80 L 645.40 471.10 L 650.30 470.00 L 655.20 468.30 L 659.80 466.40 L 664.20 464.00 L 668.50 461.20 L 672.50 458.10 L 676.30 454.70 L 679.70 451.10 L 682.90 447.10 L 685.70 442.90 L 688.20 438.50 L 690.20 434.00 L 691.90 429.20 L 693.10 424.30 L 693.80 419.30 L 694.10 414.20 L 693.70 403.70 L 693.10 398.70 L 692.10 393.70 L 690.70 388.90 L 686.60 379.60 L 684.00 375.30 L 677.90 367.20 L 670.70 360.10 L 666.70 356.90 L 658.10 351.50 L 648.90 347.40 L 644.10 346.00 L 639.20 344.90 L 634.30 344.30 L 629.30 344.00 L 624.30 344.30 L 619.30 345.00 L 614.40 346.20 L 609.40 347.90 Z" fill="#37384d" fill-rule="nonzero" node-id="68" stroke="none" target-height="139.6" target-width="141.70001" target-x="561" target-y="336.1"></path><path d="M 609.40 347.90 L 614.40 346.20 L 619.30 345.00 L 624.30 344.30 L 629.30 344.00 L 634.30 344.30 L 639.20 344.90 L 644.10 346.00 L 648.90 347.40 L 658.10 351.50 L 666.70 356.90 L 670.70 360.10 L 677.90 367.20 L 684.00 375.30 L 686.60 379.60 L 690.70 388.90 L 692.10 393.70 L 693.10 398.70 L 693.70 403.70 L 694.10 414.20 L 693.80 419.30 L 693.10 424.30 L 691.90 429.20 L 690.20 434.00 L 688.20 438.50 L 685.70 442.90 L 682.90 447.10 L 679.70 451.10 L 676.30 454.70 L 672.50 458.10 L 668.50 461.20 L 664.20 464.00 L 659.80 466.40 L 655.20 468.30 L 650.30 470.00 L 645.40 471.10 L 640.40 471.80 L 635.30 472.10 L 625.40 471.70 L 620.80 471.10 L 611.90 468.90 L 606.20 466.70 L 600.90 463.80 L 595.80 460.50 L 591.00 456.60 L 586.70 452.30 L 582.80 447.60 L 579.30 442.50 L 576.30 437.20 L 573.90 431.60 L 572.40 427.20 L 570.50 418.20 L 569.60 408.40 L 569.60 403.30 L 570.10 398.20 L 571.00 393.10 L 572.30 388.10 L 574.00 383.30 L 576.10 378.60 L 578.60 374.10 L 581.40 369.70 L 584.50 365.70 L 588.00 361.90 L 591.70 358.40 L 595.80 355.20 L 600.00 352.40 L 604.60 350.00 L 609.40 347.90 Z M 632.10 371.70 L 632.30 374.90 L 634.70 387.90 L 634.60 393.10 L 633.10 397.20 L 631.00 399.10 L 629.00 400.20 L 627.00 400.70 L 625.00 400.70 L 620.80 399.60 L 608.50 393.00 L 606.40 396.80 L 604.60 400.70 L 603.30 404.80 L 602.50 409.00 L 602.10 413.30 L 602.10 417.50 L 602.60 421.70 L 603.60 425.70 L 605.00 429.60 L 606.80 433.30 L 609.10 436.70 L 611.90 439.80 L 615.10 442.40 L 618.80 444.70 L 623.10 446.60 L 630.10 448.90 L 636.90 449.70 L 641.40 449.40 L 645.80 448.50 L 650.10 447.10 L 654.20 445.20 L 658.00 442.80 L 661.60 440.00 L 664.90 436.80 L 667.80 433.30 L 670.40 429.50 L 672.50 425.40 L 674.20 421.10 L 675.40 416.70 L 676.00 412.10 L 676.00 407.50 L 674.70 398.80 L 673.70 395.20 L 672.30 391.80 L 670.60 388.60 L 668.40 385.60 L 663.40 380.50 L 660.40 378.30 L 656.20 375.80 L 651.70 373.80 L 647.00 372.40 L 642.10 371.50 L 637.10 371.30 L 632.10 371.70 Z" fill="#fefefe" fill-rule="nonzero" node-id="70" stroke="none" target-height="128.1" target-width="124.5" target-x="569.6" target-y="344"></path><path d="M 159.00 299.50 L 160.50 298.70 L 163.60 298.30 L 165.90 298.90 L 168.10 300.10 L 170.00 301.90 L 171.60 304.00 L 172.80 306.40 L 173.50 308.80 L 173.30 311.90 L 172.80 313.40 L 171.00 313.80 L 169.20 313.80 L 167.30 313.40 L 163.80 311.50 L 160.90 308.50 L 159.00 305.00 L 158.60 303.10 L 158.60 301.30 L 159.00 299.50 Z" fill="#5c576a" fill-rule="nonzero" node-id="72" stroke="none" target-height="15.5" target-width="14.899994" target-x="158.6" target-y="298.3"></path><path d="M 835.10 354.20 L 863.20 350.50 L 870.80 354.80 L 877.90 359.50 L 884.50 364.60 L 890.80 370.10 L 896.60 376.00 L 902.20 382.20 L 907.30 388.70 L 912.10 395.50 L 918.10 405.00 L 923.50 414.80 L 928.50 425.00 L 933.00 435.40 L 941.00 456.60 L 946.10 472.80 L 950.70 488.70 L 951.30 518.70 L 951.40 548.70 L 951.00 608.80 L 948.10 617.30 L 941.20 633.90 L 937.20 642.00 L 932.90 649.80 L 928.20 657.50 L 923.10 664.80 L 917.70 672.00 L 911.80 678.80 L 913.30 650.50 L 914.00 622.30 L 902.10 622.70 L 894.20 638.30 L 889.90 645.90 L 885.10 653.10 L 881.60 657.70 L 873.70 666.30 L 874.50 640.80 L 873.90 623.80 L 873.10 615.30 L 869.20 616.70 L 865.80 618.40 L 862.70 620.50 L 857.00 625.50 L 851.00 633.00 L 841.30 648.00 L 834.50 657.30 L 834.00 636.00 L 832.90 624.10 L 830.90 615.00 L 829.30 610.60 L 827.30 606.40 L 824.80 602.30 L 823.20 600.20 L 821.40 598.60 L 819.50 597.50 L 815.30 596.20 L 809.50 596.10 L 794.90 598.30 L 791.60 598.50 L 790.20 586.00 L 788.40 573.70 L 786.10 561.40 L 780.20 537.00 L 776.70 525.00 L 783.90 518.70 L 790.60 512.10 L 796.90 505.20 L 802.70 497.90 L 808.10 490.20 L 813.10 482.30 L 817.70 474.10 L 821.80 465.60 L 825.40 456.90 L 828.60 448.10 L 831.30 439.10 L 833.60 430.00 L 835.40 420.70 L 836.60 411.50 L 837.40 402.10 L 837.80 392.70 L 837.10 389.50 L 836.10 386.90 L 834.60 384.90 L 832.80 383.10 L 830.70 381.70 L 828.20 380.50 L 824.30 379.20 L 807.00 375.90 L 803.40 374.80 L 807.60 369.90 L 813.80 365.20 L 818.00 362.80 L 835.10 354.20 Z" fill="#617182" fill-rule="nonzero" node-id="74" stroke="none" target-height="328.3" target-width="174.70001" target-x="776.7" target-y="350.5"></path><path d="M 465.10 547.60 L 505.50 550.10 L 498.20 573.10 L 496.00 578.70 L 491.50 587.60 L 486.60 594.00 L 480.50 582.80 L 474.80 571.30 L 471.30 563.50 L 465.10 547.60 Z" fill="#fefdfd" fill-rule="nonzero" node-id="76" stroke="none" target-height="46.400024" target-width="40.399994" target-x="465.1" target-y="547.6"></path><path d="M 545.80 550.20 L 586.40 545.10 L 581.80 570.40 L 579.80 578.70 L 576.50 589.60 L 574.40 595.00 L 568.80 588.10 L 563.50 581.00 L 558.70 573.50 L 551.90 562.00 L 545.80 550.20 Z" fill="#fefdfe" fill-rule="nonzero" node-id="78" stroke="none" target-height="49.900024" target-width="40.600037" target-x="545.8" target-y="545.1"></path><path d="M 596.40 542.50 L 627.80 527.80 L 627.70 558.20 L 627.20 568.30 L 624.50 568.30 L 621.90 567.90 L 619.60 567.00 L 615.30 564.10 L 610.40 558.90 L 602.20 548.30 L 599.40 545.10 L 596.40 542.50 Z" fill="#fdfdfc" fill-rule="nonzero" node-id="80" stroke="none" target-height="40.5" target-width="31.399963" target-x="596.4" target-y="527.8"></path><path d="M 155.50 365.40 L 160.80 360.90 L 163.60 359.20 L 168.20 357.30 L 173.00 355.90 L 178.00 354.90 L 193.20 353.40 L 196.10 356.10 L 202.40 360.70 L 217.60 369.60 L 222.40 373.00 L 225.30 375.40 L 228.10 378.20 L 230.60 381.40 L 214.20 382.20 L 210.10 382.80 L 206.30 383.80 L 203.90 384.80 L 201.80 386.10 L 200.00 387.70 L 198.50 389.70 L 197.40 392.10 L 196.60 395.20 L 196.80 404.40 L 197.60 413.50 L 199.00 422.50 L 200.90 431.40 L 203.30 440.10 L 206.30 448.70 L 209.60 457.20 L 213.50 465.40 L 217.80 473.50 L 222.50 481.40 L 227.50 489.00 L 233.00 496.40 L 238.70 503.50 L 244.80 510.30 L 251.10 516.90 L 257.80 523.10 L 253.60 534.30 L 246.30 556.90 L 241.50 574.10 L 237.20 591.50 L 229.40 589.10 L 221.30 587.40 L 218.70 587.30 L 213.50 588.00 L 211.10 588.90 L 208.80 590.40 L 206.50 592.40 L 203.50 595.60 L 200.90 599.10 L 198.90 602.70 L 195.80 610.60 L 194.70 614.70 L 193.50 621.10 L 191.10 640.80 L 190.10 647.20 L 188.70 653.40 L 171.80 627.50 L 165.40 619.50 L 161.80 615.70 L 159.30 618.30 L 157.30 621.10 L 155.80 624.00 L 153.90 630.30 L 153.20 638.80 L 153.80 654.70 L 153.80 659.90 L 153.50 664.90 L 148.10 657.90 L 143.30 650.50 L 129.70 628.00 L 124.70 620.80 L 122.40 623.30 L 120.70 625.90 L 119.40 628.60 L 117.80 634.50 L 117.30 642.40 L 117.90 662.00 L 117.40 666.60 L 113.00 661.60 L 105.20 651.10 L 101.80 645.50 L 97.80 637.80 L 94.30 629.80 L 91.30 621.60 L 88.80 613.20 L 86.70 604.60 L 83.70 587.10 L 82.20 569.40 L 81.90 556.20 L 82.20 543.30 L 83.10 530.30 L 84.50 517.30 L 86.40 504.20 L 88.80 491.10 L 91.70 478.30 L 95.20 465.50 L 98.20 456.00 L 101.60 446.70 L 109.30 428.60 L 113.70 419.80 L 118.50 411.20 L 123.60 402.90 L 129.20 394.80 L 135.10 387.00 L 141.50 379.50 L 148.30 372.30 L 155.50 365.40 Z" fill="#617181" fill-rule="nonzero" node-id="82" stroke="none" target-height="313.19998" target-width="175.9" target-x="81.9" target-y="353.4"></path><path d="M 316.50 230.40 L 320.00 223.90 L 323.90 217.60 L 328.20 211.50 L 332.90 205.60 L 337.80 200.10 L 343.10 194.90 L 348.80 190.00 L 354.70 185.60 L 360.90 181.60 L 367.40 178.10 L 374.20 175.20 L 381.30 172.80 L 386.50 171.70 L 392.00 171.10 L 395.80 171.00 L 403.10 171.70 L 406.60 172.70 L 409.80 174.00 L 412.70 175.90 L 414.70 177.50 L 416.40 179.60 L 417.80 181.90 L 419.10 184.80 L 399.40 197.20 L 394.60 200.60 L 387.40 206.90 L 382.60 213.00 L 381.20 216.20 L 380.50 219.50 L 380.30 222.70 L 380.50 226.00 L 381.90 232.60 L 385.80 242.00 L 394.90 238.00 L 404.10 234.40 L 413.40 231.40 L 422.90 228.70 L 435.70 225.80 L 448.60 223.50 L 461.70 221.70 L 474.80 220.50 L 501.00 219.10 L 506.80 210.90 L 515.20 197.70 L 520.50 191.10 L 525.40 186.80 L 528.10 185.20 L 531.10 183.80 L 534.50 182.90 L 532.20 216.10 L 537.40 213.00 L 546.00 206.50 L 548.90 204.80 L 552.70 203.50 L 554.50 203.40 L 556.20 203.70 L 557.90 204.60 L 559.60 206.20 L 555.90 222.80 L 566.80 223.90 L 577.50 225.40 L 588.30 227.30 L 598.90 229.60 L 609.50 232.30 L 620.00 235.40 L 630.30 238.90 L 640.50 242.80 L 653.40 231.10 L 657.40 226.90 L 661.10 222.40 L 664.20 217.60 L 665.90 214.20 L 667.20 210.60 L 668.10 206.80 L 667.30 201.60 L 660.60 176.20 L 671.80 175.10 L 677.70 175.00 L 689.30 175.90 L 695.00 176.90 L 700.60 178.30 L 706.00 180.20 L 711.20 182.40 L 716.20 185.20 L 720.70 188.40 L 725.00 192.10 L 727.80 195.10 L 730.40 198.50 L 732.80 202.20 L 734.80 206.30 L 736.90 211.10 L 738.40 215.80 L 739.50 220.40 L 740.20 225.10 L 740.30 234.60 L 739.00 244.00 L 737.40 250.20 L 735.30 256.30 L 732.70 262.40 L 726.50 274.00 L 723.00 279.50 L 717.20 287.40 L 711.10 294.70 L 716.10 303.70 L 720.60 312.90 L 724.80 322.20 L 728.50 331.60 L 732.90 344.30 L 736.90 357.20 L 740.20 370.20 L 743.10 383.40 L 745.60 396.70 L 747.70 410.10 L 750.20 430.30 L 752.20 450.60 L 755.20 491.10 L 761.20 498.30 L 766.80 505.70 L 772.20 513.50 L 777.80 508.80 L 783.10 503.90 L 788.00 498.70 L 792.60 493.20 L 800.90 481.40 L 807.80 468.80 L 811.80 460.00 L 815.20 451.00 L 818.10 441.80 L 820.50 432.40 L 822.40 422.90 L 825.30 400.50 L 825.00 394.00 L 824.20 391.00 L 822.80 388.00 L 820.10 387.10 L 817.70 386.60 L 815.40 386.60 L 810.90 387.60 L 805.50 390.20 L 796.00 396.20 L 792.70 397.80 L 789.30 399.00 L 788.10 396.90 L 787.40 394.90 L 787.10 392.80 L 787.30 389.70 L 789.10 383.30 L 795.20 369.90 L 800.20 361.10 L 803.20 357.20 L 805.40 354.80 L 810.50 351.00 L 813.30 349.60 L 816.50 348.70 L 820.10 348.10 L 821.10 322.10 L 838.80 323.90 L 844.70 324.10 L 852.50 323.20 L 856.40 322.20 L 870.10 340.30 L 873.80 346.80 L 875.40 350.30 L 881.70 354.10 L 887.70 358.20 L 893.50 362.60 L 898.90 367.30 L 905.80 374.00 L 912.30 381.20 L 918.30 388.80 L 924.00 396.70 L 929.20 404.90 L 938.70 422.00 L 946.90 439.50 L 948.50 443.40 L 950.50 451.30 L 951.30 457.50 L 951.50 463.70 L 950.70 488.70 L 946.10 472.80 L 941.00 456.60 L 937.20 445.90 L 928.50 425.00 L 923.50 414.80 L 918.10 405.00 L 912.10 395.50 L 907.30 388.70 L 902.20 382.20 L 896.60 376.00 L 890.80 370.10 L 884.50 364.60 L 877.90 359.50 L 870.80 354.80 L 863.20 350.50 L 835.10 354.20 L 818.00 362.80 L 813.80 365.20 L 807.60 369.90 L 803.40 374.80 L 807.00 375.90 L 824.30 379.20 L 828.20 380.50 L 830.70 381.70 L 832.80 383.10 L 834.60 384.90 L 836.10 386.90 L 837.10 389.50 L 837.80 392.70 L 837.40 402.10 L 836.60 411.50 L 835.40 420.70 L 833.60 430.00 L 831.30 439.10 L 828.60 448.10 L 825.40 456.90 L 821.80 465.60 L 817.70 474.10 L 813.10 482.30 L 808.10 490.20 L 802.70 497.90 L 796.90 505.20 L 790.60 512.10 L 783.90 518.70 L 776.70 525.00 L 780.20 537.00 L 786.10 561.40 L 788.40 573.70 L 790.20 586.00 L 791.60 598.50 L 794.90 598.30 L 809.50 596.10 L 815.30 596.20 L 819.50 597.50 L 821.40 598.60 L 823.20 600.20 L 824.80 602.30 L 827.30 606.40 L 829.30 610.60 L 830.90 615.00 L 832.90 624.10 L 834.00 636.00 L 834.50 657.30 L 841.30 648.00 L 851.00 633.00 L 857.00 625.50 L 862.70 620.50 L 865.80 618.40 L 869.20 616.70 L 873.10 615.30 L 873.90 623.80 L 874.50 640.80 L 873.70 666.30 L 881.60 657.70 L 885.10 653.10 L 889.90 645.90 L 894.20 638.30 L 902.10 622.70 L 914.00 622.30 L 913.30 650.50 L 911.80 678.80 L 917.70 672.00 L 923.10 664.80 L 928.20 657.50 L 932.90 649.80 L 937.20 642.00 L 941.20 633.90 L 944.80 625.70 L 951.00 608.80 L 952.00 618.10 L 951.50 627.00 L 950.40 632.90 L 948.80 638.60 L 946.60 644.30 L 941.20 655.10 L 937.90 660.30 L 932.60 667.80 L 926.80 675.00 L 920.70 681.90 L 913.20 690.00 L 909.10 693.00 L 904.40 694.90 L 902.30 695.10 L 901.00 694.90 L 898.80 693.40 L 897.70 690.50 L 897.50 688.10 L 897.90 680.70 L 900.30 658.60 L 895.60 663.90 L 877.80 686.30 L 873.00 691.60 L 866.10 698.00 L 862.30 701.00 L 860.40 702.10 L 858.60 702.60 L 856.80 702.60 L 853.40 701.20 L 852.00 699.90 L 849.90 696.80 L 849.30 694.90 L 849.20 693.00 L 849.40 691.10 L 850.20 689.30 L 858.70 657.40 L 862.20 641.20 L 857.60 646.60 L 853.30 652.30 L 841.00 669.90 L 836.60 675.40 L 830.10 682.30 L 826.60 685.40 L 816.50 685.10 L 819.30 653.90 L 819.80 643.40 L 819.90 636.40 L 819.50 629.60 L 818.70 622.70 L 816.40 612.70 L 812.60 602.90 L 793.70 609.30 L 793.50 622.30 L 792.80 635.40 L 791.60 648.50 L 789.90 661.60 L 787.50 674.50 L 784.60 687.30 L 781.90 696.80 L 778.90 706.10 L 775.40 715.30 L 771.50 724.30 L 767.20 733.10 L 762.40 741.60 L 757.00 749.90 L 747.10 763.30 L 738.10 773.00 L 730.90 779.80 L 708.00 799.00 L 706.00 804.60 L 698.80 828.30 L 694.90 837.70 L 690.60 844.40 L 688.00 847.40 L 685.00 850.20 L 681.50 852.80 L 676.50 853.00 L 673.00 851.90 L 671.10 850.60 L 669.50 848.80 L 668.30 846.70 L 667.00 843.00 L 666.20 838.80 L 664.50 822.30 L 662.50 824.90 L 653.60 839.00 L 651.10 842.30 L 648.50 845.30 L 645.80 847.60 L 643.80 848.70 L 641.70 849.40 L 639.60 849.60 L 637.40 849.40 L 635.10 848.60 L 632.40 847.00 L 630.80 841.10 L 629.60 835.10 L 628.10 823.10 L 626.90 811.00 L 602.90 812.70 L 578.80 813.90 L 554.70 814.70 L 530.60 815.10 L 506.40 815.00 L 476.30 814.20 L 446.20 812.90 L 416.10 810.90 L 386.00 808.30 L 382.80 829.50 L 381.60 834.70 L 380.00 839.70 L 378.50 842.90 L 376.80 845.90 L 374.60 848.70 L 371.80 848.50 L 369.30 847.80 L 367.00 846.80 L 363.00 843.90 L 358.70 838.90 L 352.00 828.60 L 347.20 822.50 L 342.80 832.40 L 340.20 837.10 L 337.20 841.50 L 334.80 844.00 L 332.00 846.30 L 328.80 848.30 L 326.10 843.10 L 323.70 837.70 L 321.80 832.20 L 319.50 823.70 L 313.90 797.90 L 302.50 793.00 L 292.00 786.80 L 285.50 782.00 L 279.30 776.70 L 273.50 771.00 L 268.10 764.80 L 263.20 758.30 L 258.70 751.50 L 254.60 744.40 L 251.00 737.10 L 247.80 729.60 L 244.20 719.70 L 241.10 709.70 L 238.60 699.60 L 236.50 689.40 L 234.90 679.10 L 233.70 668.70 L 233.00 658.30 L 232.60 647.80 L 232.80 633.80 L 233.60 619.90 L 234.90 606.10 L 225.80 599.90 L 220.90 597.20 L 215.90 594.90 L 213.50 599.10 L 209.80 607.70 L 208.60 612.00 L 207.40 617.90 L 206.60 623.90 L 206.30 630.00 L 206.40 639.10 L 209.70 676.10 L 209.90 685.10 L 199.80 685.90 L 193.40 679.00 L 187.50 671.80 L 165.10 642.00 L 166.60 650.90 L 174.60 685.90 L 176.10 694.70 L 175.80 696.50 L 174.40 699.40 L 172.70 701.10 L 170.70 702.20 L 168.50 702.80 L 166.20 702.70 L 163.30 701.60 L 158.30 697.60 L 152.10 691.30 L 148.00 686.10 L 144.20 680.50 L 130.10 657.80 L 132.50 675.70 L 133.00 681.70 L 132.80 689.60 L 132.00 693.60 L 130.10 694.90 L 128.40 695.60 L 126.80 695.70 L 125.20 695.40 L 122.00 693.80 L 117.70 689.90 L 114.00 686.00 L 107.80 677.70 L 102.10 669.20 L 97.00 660.50 L 92.40 651.40 L 88.40 642.20 L 84.80 632.80 L 81.70 623.20 L 79.10 613.40 L 76.90 603.40 L 75.10 593.40 L 73.80 583.30 L 72.80 573.10 L 72.10 559.50 L 72.00 545.80 L 72.60 532.20 L 73.60 518.60 L 75.20 505.10 L 77.20 491.90 L 80.10 479.30 L 83.50 466.60 L 87.50 454.10 L 94.70 435.60 L 103.20 417.80 L 108.00 409.20 L 113.20 400.90 L 118.80 392.90 L 124.80 385.10 L 131.20 377.70 L 138.10 370.70 L 145.40 364.10 L 155.70 356.00 L 157.70 353.90 L 159.10 351.60 L 160.00 349.00 L 160.40 346.10 L 160.30 342.80 L 181.50 333.90 L 184.30 331.50 L 186.70 330.10 L 188.80 329.40 L 191.10 329.20 L 193.20 329.60 L 195.20 330.40 L 197.00 331.70 L 200.40 335.30 L 202.60 338.60 L 204.40 342.20 L 206.80 349.60 L 211.00 350.90 L 214.90 352.60 L 218.60 354.70 L 222.10 357.20 L 226.40 360.90 L 230.30 365.20 L 233.80 369.90 L 236.80 374.90 L 239.40 380.20 L 241.50 385.60 L 243.10 391.30 L 244.30 396.80 L 244.90 402.20 L 242.30 402.50 L 239.80 402.30 L 237.50 401.60 L 234.00 400.00 L 224.00 393.70 L 219.40 391.80 L 217.10 391.30 L 214.80 391.30 L 212.20 391.90 L 209.50 393.20 L 209.50 402.20 L 210.10 411.20 L 211.20 420.30 L 212.90 429.40 L 215.00 438.30 L 217.70 447.20 L 220.90 455.90 L 224.60 464.40 L 228.90 472.60 L 233.60 480.60 L 238.80 488.10 L 244.50 495.30 L 249.20 500.40 L 254.10 505.20 L 259.20 509.70 L 264.70 513.90 L 274.10 501.60 L 274.20 481.00 L 274.80 460.20 L 275.50 446.30 L 278.00 418.50 L 279.90 404.70 L 282.20 391.00 L 285.00 377.50 L 288.30 364.00 L 292.20 350.80 L 296.70 337.80 L 300.50 328.10 L 304.70 318.70 L 309.30 309.40 L 314.30 300.20 L 312.30 291.50 L 309.90 276.80 L 309.20 264.90 L 309.30 259.00 L 309.80 253.10 L 310.70 247.30 L 312.10 241.60 L 314.00 235.90 L 316.50 230.40 Z M 328.50 227.20 L 325.90 231.60 L 322.00 240.80 L 320.50 245.50 L 319.10 251.90 L 318.20 258.40 L 317.80 265.10 L 318.30 278.40 L 319.20 285.00 L 321.10 294.90 L 323.60 304.50 L 318.70 313.60 L 314.20 322.90 L 310.30 332.20 L 306.80 341.70 L 302.70 354.60 L 299.20 367.70 L 296.30 381.00 L 293.90 394.40 L 290.20 421.50 L 288.20 442.00 L 283.50 503.00 L 281.00 507.50 L 269.20 524.50 L 266.50 529.00 L 264.20 533.60 L 258.50 550.40 L 255.20 562.30 L 252.40 574.40 L 250.10 586.70 L 248.40 599.00 L 247.10 611.40 L 246.30 623.80 L 246.10 636.30 L 246.30 648.80 L 247.00 661.20 L 248.20 673.60 L 249.90 685.90 L 253.90 702.70 L 256.40 711.20 L 259.40 719.60 L 262.70 727.80 L 266.50 735.80 L 270.70 743.60 L 275.30 751.10 L 280.40 758.10 L 284.60 763.20 L 289.00 767.90 L 293.70 772.40 L 298.70 776.50 L 303.90 780.30 L 309.50 783.70 L 315.40 786.80 L 321.70 789.50 L 325.90 809.90 L 331.10 830.10 L 341.00 808.90 L 344.70 802.00 L 347.60 802.80 L 350.10 804.00 L 352.30 805.60 L 354.20 807.60 L 357.60 812.30 L 364.20 824.60 L 366.70 828.50 L 368.50 830.90 L 373.00 834.80 L 376.30 812.00 L 377.70 800.50 L 378.50 789.00 L 378.80 781.30 L 378.20 766.00 L 377.20 758.50 L 375.70 751.00 L 371.90 736.00 L 367.30 721.40 L 350.30 678.90 L 345.50 664.40 L 343.60 657.00 L 345.50 658.40 L 348.70 661.70 L 352.30 667.60 L 369.30 709.00 L 373.00 718.70 L 379.50 738.10 L 382.20 748.00 L 384.40 758.00 L 386.00 768.00 L 386.70 775.60 L 387.00 783.20 L 386.80 791.00 L 386.20 798.80 L 426.00 800.30 L 465.80 801.20 L 518.80 801.50 L 545.40 801.10 L 571.90 800.30 L 598.40 799.00 L 624.90 797.20 L 624.70 786.70 L 625.10 776.30 L 626.20 765.90 L 627.70 755.70 L 629.80 745.50 L 632.40 735.40 L 635.30 725.50 L 642.30 705.80 L 648.30 691.30 L 659.20 667.50 L 660.90 664.40 L 662.90 661.60 L 665.20 659.20 L 667.10 658.00 L 669.20 657.00 L 671.70 656.40 L 655.60 692.70 L 647.20 713.00 L 644.50 721.40 L 639.60 738.60 L 637.70 747.30 L 636.20 756.00 L 635.30 764.90 L 634.50 782.60 L 634.70 791.50 L 636.40 812.30 L 638.10 824.10 L 640.10 835.80 L 643.60 832.20 L 646.80 828.10 L 655.80 815.00 L 661.30 808.60 L 666.60 804.70 L 669.50 803.30 L 672.80 802.30 L 676.50 801.80 L 679.80 834.10 L 682.70 831.70 L 685.10 829.00 L 687.10 826.00 L 689.50 821.20 L 695.20 805.30 L 697.30 800.10 L 699.90 795.30 L 702.00 792.40 L 704.60 789.70 L 707.60 787.30 L 714.50 780.90 L 721.10 774.30 L 727.30 767.40 L 733.20 760.20 L 738.70 752.70 L 745.10 743.00 L 751.00 733.00 L 756.40 722.70 L 761.20 712.10 L 765.50 701.30 L 769.20 690.30 L 772.40 679.10 L 775.00 667.70 L 777.20 656.20 L 778.70 644.70 L 779.70 633.10 L 780.20 621.50 L 780.00 594.30 L 779.30 580.60 L 778.00 567.00 L 776.70 557.90 L 773.00 540.10 L 770.50 531.40 L 767.50 523.00 L 764.00 514.70 L 761.00 508.60 L 754.00 497.00 L 749.90 491.40 L 746.80 472.90 L 741.40 435.70 L 736.50 404.80 L 731.50 380.40 L 728.40 368.30 L 724.80 356.30 L 717.20 335.20 L 705.10 308.00 L 701.30 298.90 L 698.10 289.60 L 711.90 269.70 L 718.80 258.00 L 723.20 248.30 L 724.90 243.30 L 726.20 238.20 L 727.00 232.90 L 727.20 227.70 L 726.90 222.30 L 726.00 216.70 L 724.80 212.70 L 723.20 209.00 L 721.30 205.60 L 719.00 202.50 L 715.60 198.60 L 711.70 195.30 L 707.30 192.30 L 702.60 189.90 L 697.70 188.00 L 692.60 186.50 L 687.40 185.60 L 682.10 185.20 L 676.90 185.20 L 680.40 197.10 L 690.60 199.30 L 696.10 201.10 L 699.50 203.50 L 700.80 205.10 L 701.70 207.20 L 702.20 209.90 L 699.30 210.20 L 688.70 210.60 L 685.20 210.90 L 682.20 211.70 L 680.30 212.50 L 678.80 213.60 L 677.60 215.00 L 676.80 216.60 L 676.40 218.80 L 676.50 221.70 L 686.40 227.40 L 688.60 229.20 L 690.20 231.20 L 690.90 232.70 L 691.30 234.60 L 691.30 236.90 L 687.50 238.70 L 685.60 239.00 L 682.70 239.00 L 676.90 237.50 L 668.40 234.30 L 655.70 246.00 L 663.80 250.80 L 667.70 253.90 L 669.80 257.00 L 670.30 258.80 L 670.30 260.80 L 669.90 263.40 L 656.60 257.70 L 643.10 252.40 L 629.40 247.60 L 615.70 243.20 L 601.70 239.40 L 587.70 236.10 L 573.50 233.30 L 559.20 231.20 L 544.70 229.70 L 546.60 216.50 L 539.90 220.60 L 533.00 224.10 L 523.30 227.70 L 518.30 228.90 L 518.50 211.90 L 507.70 226.00 L 503.70 230.40 L 461.30 234.10 L 447.20 235.50 L 437.80 236.80 L 419.30 240.40 L 410.20 242.80 L 401.30 245.80 L 392.40 249.40 L 387.80 251.30 L 374.20 258.30 L 369.60 260.30 L 364.90 261.90 L 361.70 262.60 L 354.90 263.00 L 377.70 243.00 L 363.40 243.20 L 356.30 242.90 L 349.20 242.30 L 352.20 238.80 L 355.40 235.90 L 362.70 230.80 L 370.40 226.10 L 370.80 223.90 L 370.40 221.00 L 368.80 219.10 L 367.50 218.40 L 365.40 217.70 L 355.30 216.10 L 353.30 215.40 L 354.70 212.80 L 358.30 208.10 L 360.50 206.20 L 362.90 204.80 L 370.30 202.20 L 374.50 200.20 L 378.50 197.80 L 384.30 193.80 L 400.80 180.40 L 394.90 180.50 L 389.30 181.00 L 383.80 182.10 L 378.50 183.60 L 373.30 185.70 L 368.30 188.00 L 363.50 190.80 L 358.70 194.00 L 352.80 198.60 L 347.20 203.70 L 341.90 209.20 L 337.00 215.00 L 332.50 221.00 L 328.50 227.20 Z M 155.50 365.40 L 148.30 372.30 L 141.50 379.50 L 135.10 387.00 L 129.20 394.80 L 123.60 402.90 L 118.50 411.20 L 113.70 419.80 L 109.30 428.60 L 101.60 446.70 L 98.20 456.00 L 95.20 465.50 L 91.70 478.30 L 88.80 491.10 L 86.40 504.20 L 84.50 517.30 L 83.10 530.30 L 82.20 543.30 L 81.90 556.20 L 82.20 569.40 L 83.70 587.10 L 86.70 604.60 L 88.80 613.20 L 91.30 621.60 L 94.30 629.80 L 97.80 637.80 L 101.80 645.50 L 105.20 651.10 L 113.00 661.60 L 117.40 666.60 L 117.90 662.00 L 117.30 642.40 L 117.80 634.50 L 119.40 628.60 L 120.70 625.90 L 122.40 623.30 L 124.70 620.80 L 129.70 628.00 L 143.30 650.50 L 148.10 657.90 L 153.50 664.90 L 153.80 659.90 L 153.80 654.70 L 153.20 638.80 L 153.90 630.30 L 155.80 624.00 L 157.30 621.10 L 159.30 618.30 L 161.80 615.70 L 165.40 619.50 L 171.80 627.50 L 188.70 653.40 L 190.10 647.20 L 191.10 640.80 L 193.50 621.10 L 194.70 614.70 L 195.80 610.60 L 198.90 602.70 L 200.90 599.10 L 203.50 595.60 L 206.50 592.40 L 208.80 590.40 L 211.10 588.90 L 213.50 588.00 L 218.70 587.30 L 221.30 587.40 L 229.40 589.10 L 237.20 591.50 L 241.50 574.10 L 246.30 556.90 L 249.80 545.50 L 257.80 523.10 L 251.10 516.90 L 244.80 510.30 L 238.70 503.50 L 233.00 496.40 L 227.50 489.00 L 222.50 481.40 L 217.80 473.50 L 213.50 465.40 L 209.60 457.20 L 206.30 448.70 L 203.30 440.10 L 200.90 431.40 L 199.00 422.50 L 197.60 413.50 L 196.80 404.40 L 196.60 395.20 L 197.40 392.10 L 198.50 389.70 L 200.00 387.70 L 201.80 386.10 L 203.90 384.80 L 206.30 383.80 L 210.10 382.80 L 214.20 382.20 L 230.60 381.40 L 228.10 378.20 L 225.30 375.40 L 222.40 373.00 L 217.60 369.60 L 202.40 360.70 L 196.10 356.10 L 193.20 353.40 L 178.00 354.90 L 173.00 355.90 L 168.20 357.30 L 163.60 359.20 L 160.80 360.90 L 155.50 365.40 Z" fill="#384053" fill-rule="nonzero" node-id="84" stroke="none" target-height="682" target-width="880" target-x="72" target-y="171"></path><path d="M 328.50 227.20 L 332.50 221.00 L 337.00 215.00 L 341.90 209.20 L 347.20 203.70 L 352.80 198.60 L 358.70 194.00 L 363.50 190.80 L 368.30 188.00 L 373.30 185.70 L 378.50 183.60 L 383.80 182.10 L 389.30 181.00 L 394.90 180.50 L 400.80 180.40 L 384.30 193.80 L 378.50 197.80 L 374.50 200.20 L 370.30 202.20 L 362.90 204.80 L 360.50 206.20 L 358.30 208.10 L 354.70 212.80 L 353.30 215.40 L 355.30 216.10 L 365.40 217.70 L 367.50 218.40 L 368.80 219.10 L 370.40 221.00 L 370.80 223.90 L 370.40 226.10 L 362.70 230.80 L 355.40 235.90 L 352.20 238.80 L 349.20 242.30 L 356.30 242.90 L 363.40 243.20 L 377.70 243.00 L 354.90 263.00 L 361.70 262.60 L 364.90 261.90 L 369.60 260.30 L 374.20 258.30 L 387.80 251.30 L 392.40 249.40 L 401.30 245.80 L 410.20 242.80 L 419.30 240.40 L 437.80 236.80 L 447.20 235.50 L 461.30 234.10 L 503.70 230.40 L 507.70 226.00 L 518.50 211.90 L 518.30 228.90 L 523.30 227.70 L 533.00 224.10 L 539.90 220.60 L 546.60 216.50 L 544.70 229.70 L 559.20 231.20 L 573.50 233.30 L 587.70 236.10 L 601.70 239.40 L 615.70 243.20 L 629.40 247.60 L 643.10 252.40 L 656.60 257.70 L 669.90 263.40 L 670.30 260.80 L 670.30 258.80 L 669.80 257.00 L 667.70 253.90 L 663.80 250.80 L 655.70 246.00 L 668.40 234.30 L 676.90 237.50 L 682.70 239.00 L 685.60 239.00 L 687.50 238.70 L 691.30 236.90 L 691.30 234.60 L 690.90 232.70 L 690.20 231.20 L 688.60 229.20 L 686.40 227.40 L 676.50 221.70 L 676.40 218.80 L 676.80 216.60 L 677.60 215.00 L 678.80 213.60 L 680.30 212.50 L 682.20 211.70 L 685.20 210.90 L 688.70 210.60 L 699.30 210.20 L 702.20 209.90 L 701.70 207.20 L 700.80 205.10 L 699.50 203.50 L 696.10 201.10 L 690.60 199.30 L 680.40 197.10 L 676.90 185.20 L 682.10 185.20 L 687.40 185.60 L 692.60 186.60 L 697.70 188.00 L 702.60 189.90 L 707.30 192.40 L 711.70 195.30 L 715.60 198.60 L 719.00 202.50 L 721.30 205.60 L 723.20 209.00 L 724.80 212.70 L 726.00 216.70 L 726.90 222.30 L 727.20 227.70 L 727.00 232.90 L 726.20 238.20 L 724.90 243.30 L 723.20 248.30 L 718.80 258.00 L 711.90 269.70 L 698.10 289.60 L 701.30 298.90 L 705.10 308.00 L 717.20 335.20 L 724.80 356.30 L 728.40 368.30 L 731.50 380.40 L 736.50 404.80 L 741.40 435.70 L 746.80 472.90 L 749.90 491.40 L 754.00 497.00 L 761.00 508.60 L 764.00 514.70 L 767.50 523.00 L 770.50 531.40 L 773.00 540.10 L 775.10 549.00 L 776.70 557.90 L 778.00 567.00 L 779.30 580.60 L 780.00 594.30 L 780.30 608.00 L 779.70 633.10 L 778.70 644.70 L 777.20 656.20 L 775.00 667.70 L 772.40 679.10 L 769.20 690.30 L 765.50 701.30 L 761.20 712.10 L 756.40 722.70 L 751.00 733.00 L 745.10 743.00 L 738.70 752.70 L 733.20 760.20 L 727.30 767.40 L 721.10 774.30 L 714.50 780.90 L 707.60 787.30 L 704.60 789.70 L 702.00 792.40 L 699.90 795.30 L 697.30 800.10 L 695.20 805.30 L 689.50 821.20 L 687.10 826.00 L 685.10 829.00 L 682.70 831.70 L 679.80 834.20 L 676.50 801.80 L 672.80 802.30 L 669.50 803.30 L 666.60 804.70 L 661.30 808.60 L 655.80 815.00 L 646.80 828.10 L 643.60 832.20 L 640.10 835.80 L 638.10 824.10 L 636.40 812.30 L 634.70 791.50 L 634.50 782.60 L 635.30 764.90 L 636.20 756.00 L 637.70 747.30 L 639.60 738.60 L 644.50 721.40 L 647.20 713.00 L 655.60 692.70 L 671.70 656.40 L 669.20 657.00 L 667.10 658.00 L 665.20 659.20 L 662.90 661.60 L 660.90 664.40 L 659.20 667.50 L 648.30 691.30 L 642.30 705.80 L 635.30 725.50 L 632.40 735.40 L 629.80 745.50 L 627.70 755.70 L 626.20 765.90 L 625.10 776.30 L 624.70 786.70 L 624.90 797.20 L 598.40 799.00 L 571.90 800.30 L 545.40 801.10 L 518.80 801.50 L 465.80 801.20 L 426.00 800.30 L 386.20 798.80 L 386.80 791.00 L 387.00 783.20 L 386.70 775.60 L 386.00 768.00 L 384.40 758.00 L 382.20 748.00 L 379.50 738.10 L 373.00 718.70 L 369.30 709.00 L 352.30 667.60 L 348.70 661.70 L 345.50 658.40 L 343.60 657.00 L 345.50 664.40 L 350.30 678.90 L 367.30 721.40 L 371.90 736.00 L 375.70 751.00 L 377.20 758.50 L 378.20 766.00 L 378.80 781.30 L 378.50 789.00 L 377.70 800.50 L 376.30 812.00 L 373.00 834.80 L 368.50 830.90 L 366.70 828.50 L 364.20 824.60 L 357.60 812.30 L 354.20 807.60 L 352.30 805.60 L 350.10 804.00 L 347.60 802.80 L 344.70 802.00 L 341.00 808.90 L 331.10 830.10 L 325.90 809.90 L 321.70 789.50 L 315.40 786.80 L 309.50 783.70 L 303.90 780.30 L 298.70 776.50 L 293.70 772.40 L 289.00 767.90 L 284.60 763.20 L 280.40 758.10 L 275.30 751.10 L 270.70 743.60 L 266.50 735.80 L 262.70 727.80 L 259.40 719.60 L 256.40 711.20 L 253.90 702.70 L 249.90 685.90 L 248.20 673.60 L 247.00 661.20 L 246.30 648.80 L 246.10 636.30 L 246.30 623.80 L 247.10 611.40 L 248.40 599.00 L 250.10 586.70 L 252.40 574.40 L 255.20 562.30 L 258.50 550.40 L 264.20 533.60 L 266.50 529.00 L 269.20 524.50 L 281.00 507.50 L 283.50 503.00 L 288.20 442.00 L 290.20 421.50 L 293.90 394.40 L 296.30 381.00 L 299.20 367.70 L 302.70 354.60 L 306.80 341.70 L 310.30 332.20 L 314.20 322.90 L 318.70 313.60 L 323.60 304.50 L 321.10 294.90 L 319.20 285.00 L 318.30 278.40 L 317.80 265.10 L 318.20 258.40 L 319.10 251.90 L 320.50 245.50 L 322.00 240.80 L 325.90 231.60 L 328.50 227.20 Z M 571.00 295.60 L 577.30 306.50 L 580.30 309.20 L 583.50 310.40 L 598.70 303.70 L 606.10 299.90 L 613.40 295.70 L 627.10 286.30 L 628.40 284.80 L 629.20 283.20 L 629.60 281.60 L 629.20 278.30 L 628.50 276.70 L 626.90 274.40 L 624.80 272.30 L 622.40 270.70 L 619.80 269.60 L 618.00 269.20 L 614.40 269.40 L 603.90 273.60 L 598.90 276.20 L 591.50 280.50 L 584.50 285.20 L 571.00 295.60 Z M 408.50 292.60 L 424.30 301.50 L 432.40 305.80 L 440.60 309.60 L 446.20 311.80 L 452.00 313.60 L 458.00 315.00 L 463.20 300.00 L 459.10 295.70 L 454.60 291.90 L 449.80 288.30 L 444.70 285.10 L 434.00 279.70 L 422.80 275.50 L 417.20 273.80 L 415.20 273.60 L 411.60 274.40 L 408.50 276.50 L 407.20 277.90 L 405.70 280.30 L 404.70 282.90 L 404.40 284.70 L 404.90 288.20 L 405.60 289.80 L 406.80 291.20 L 408.50 292.60 Z M 356.20 341.00 L 369.40 341.50 L 369.40 310.00 L 366.20 310.20 L 363.60 310.80 L 361.60 311.90 L 359.90 313.40 L 358.50 315.20 L 357.40 317.40 L 356.40 321.00 L 355.80 325.10 L 355.70 333.40 L 356.20 341.00 Z M 660.30 309.00 L 661.30 336.00 L 676.60 335.20 L 674.00 321.20 L 673.10 317.70 L 671.80 314.60 L 670.60 312.80 L 669.30 311.40 L 667.60 310.20 L 665.70 309.40 L 663.30 309.00 L 660.30 309.00 Z M 682.90 311.00 L 683.70 315.60 L 684.00 320.70 L 684.00 336.70 L 684.50 341.70 L 685.20 344.90 L 686.20 347.80 L 689.00 352.30 L 692.70 355.40 L 695.10 356.80 L 696.10 350.30 L 697.00 337.20 L 696.80 330.70 L 696.00 324.30 L 694.60 317.90 L 693.70 315.50 L 692.60 313.70 L 691.20 312.40 L 689.60 311.40 L 687.80 310.90 L 685.60 310.70 L 682.90 311.00 Z M 340.30 314.10 L 336.90 335.20 L 336.50 339.60 L 336.60 343.90 L 337.30 347.70 L 338.10 350.10 L 339.30 352.10 L 340.90 353.90 L 342.80 355.30 L 345.30 356.40 L 348.50 357.10 L 348.20 352.90 L 348.40 348.00 L 349.70 332.90 L 349.70 328.10 L 349.30 325.00 L 348.50 322.30 L 347.30 319.70 L 344.60 316.60 L 340.30 314.10 Z M 629.30 317.10 L 630.90 320.60 L 632.90 323.50 L 635.20 326.00 L 637.80 328.10 L 640.80 329.80 L 644.00 330.90 L 647.60 331.70 L 651.40 331.90 L 645.20 314.50 L 629.30 317.10 Z M 546.40 347.00 L 548.70 347.20 L 550.70 347.10 L 552.60 346.50 L 555.10 345.00 L 557.40 342.80 L 566.00 332.50 L 569.30 329.90 L 572.90 328.60 L 575.10 328.50 L 577.50 328.90 L 599.90 337.60 L 598.80 334.40 L 596.10 329.20 L 594.50 327.20 L 591.80 324.70 L 589.00 322.80 L 585.80 321.40 L 582.40 320.40 L 579.00 319.90 L 575.40 319.80 L 571.80 320.20 L 564.70 322.00 L 561.30 323.50 L 558.20 325.40 L 555.30 327.60 L 552.70 330.10 L 550.50 332.90 L 548.70 336.00 L 547.40 339.40 L 546.60 343.00 L 546.40 347.00 Z M 387.10 339.00 L 385.40 348.20 L 380.30 349.40 L 375.50 351.00 L 370.90 353.10 L 366.60 355.50 L 362.50 358.40 L 358.60 361.50 L 355.10 365.00 L 351.70 368.80 L 347.70 374.20 L 344.30 380.00 L 341.30 386.20 L 338.90 392.60 L 337.10 399.20 L 335.80 406.00 L 335.10 412.80 L 335.10 419.60 L 335.60 426.40 L 336.50 431.40 L 339.30 441.00 L 341.30 445.60 L 343.70 450.00 L 346.40 454.20 L 349.60 458.20 L 353.30 462.00 L 357.30 465.50 L 361.60 468.70 L 366.10 471.50 L 370.90 473.90 L 381.00 477.70 L 386.20 479.00 L 397.00 480.50 L 407.80 480.60 L 413.20 480.00 L 418.60 479.20 L 428.90 476.30 L 433.90 474.30 L 438.70 472.00 L 443.30 469.30 L 447.60 466.20 L 451.70 462.80 L 455.50 459.10 L 458.90 455.00 L 462.00 450.50 L 464.70 445.70 L 467.30 440.40 L 469.30 435.00 L 470.80 429.50 L 471.90 423.90 L 472.40 418.10 L 472.50 412.40 L 472.20 406.70 L 471.40 401.00 L 470.10 395.40 L 468.50 389.90 L 466.40 384.50 L 464.00 379.40 L 461.10 374.40 L 457.80 369.70 L 454.20 365.30 L 450.30 361.20 L 445.90 357.40 L 441.30 354.10 L 436.30 351.20 L 425.40 346.20 L 418.10 344.60 L 404.40 343.40 L 400.10 342.60 L 395.90 341.30 L 393.30 340.10 L 390.80 338.40 L 388.40 336.30 L 392.90 334.60 L 394.10 333.70 L 395.50 331.40 L 395.50 330.30 L 395.00 328.60 L 393.70 326.90 L 392.00 325.60 L 389.90 324.60 L 387.60 324.00 L 385.30 324.00 L 383.80 324.30 L 378.10 327.60 L 376.50 330.40 L 376.10 332.10 L 376.20 335.60 L 377.30 338.70 L 378.40 339.90 L 379.60 340.70 L 381.10 341.10 L 382.70 341.10 L 384.70 340.40 L 387.10 339.00 Z M 437.50 345.20 L 451.20 337.30 L 456.20 335.70 L 458.80 335.50 L 461.60 336.50 L 464.10 337.90 L 466.30 339.70 L 469.20 342.80 L 476.70 353.80 L 480.40 358.10 L 482.40 359.90 L 484.70 361.40 L 487.40 362.50 L 490.50 363.10 L 489.40 358.40 L 487.90 353.80 L 486.00 349.30 L 483.70 345.10 L 480.90 341.10 L 477.80 337.40 L 474.30 334.10 L 470.40 331.20 L 466.20 328.80 L 463.10 328.10 L 460.00 327.80 L 457.10 328.10 L 451.40 329.80 L 448.80 331.30 L 444.10 335.00 L 442.00 337.30 L 440.20 339.80 L 437.50 345.20 Z M 615.00 337.50 L 609.50 338.70 L 604.30 340.40 L 599.50 342.50 L 594.80 345.00 L 590.40 347.90 L 586.20 351.10 L 582.40 354.60 L 578.80 358.50 L 572.50 367.00 L 569.80 371.60 L 565.40 381.40 L 562.50 391.60 L 561.60 396.90 L 561.00 402.20 L 561.10 412.80 L 561.80 418.10 L 562.80 423.30 L 564.30 428.40 L 566.30 433.40 L 571.60 443.60 L 574.90 448.50 L 578.60 452.90 L 582.70 457.00 L 587.20 460.70 L 592.00 464.00 L 597.00 466.90 L 602.30 469.40 L 607.80 471.50 L 613.40 473.10 L 619.10 474.40 L 625.00 475.30 L 630.90 475.70 L 636.80 475.70 L 642.60 475.30 L 648.40 474.50 L 654.20 473.20 L 659.80 471.60 L 665.10 469.40 L 670.40 466.90 L 675.30 463.90 L 680.00 460.40 L 684.40 456.50 L 688.40 452.20 L 691.40 448.20 L 694.10 444.10 L 696.30 439.90 L 698.20 435.40 L 700.20 429.20 L 701.70 423.00 L 702.50 416.50 L 702.70 410.00 L 702.40 403.50 L 701.50 397.00 L 700.10 390.60 L 698.20 384.40 L 695.70 378.50 L 692.80 372.60 L 689.30 367.10 L 685.30 362.00 L 680.90 357.30 L 676.00 353.00 L 670.80 349.10 L 665.30 345.70 L 659.50 342.80 L 653.50 340.40 L 647.30 338.50 L 640.90 337.20 L 634.50 336.40 L 628.00 336.10 L 621.50 336.50 L 615.00 337.50 Z M 488.40 474.40 L 504.40 475.30 L 513.60 480.30 L 523.40 483.90 L 522.70 480.70 L 521.40 477.80 L 519.70 474.90 L 517.50 472.40 L 515.00 470.20 L 512.20 468.30 L 509.20 466.80 L 506.20 465.80 L 503.20 465.20 L 500.10 465.20 L 497.30 465.70 L 494.60 466.80 L 492.80 468.00 L 491.20 469.70 L 489.70 471.80 L 488.40 474.40 Z M 525.50 485.90 L 534.40 480.40 L 539.10 478.10 L 543.90 476.40 L 547.20 475.60 L 554.30 475.20 L 553.40 472.00 L 552.10 469.70 L 550.50 467.90 L 548.50 466.60 L 546.40 465.70 L 544.00 465.30 L 539.00 465.80 L 536.40 466.60 L 531.80 469.30 L 529.70 471.00 L 527.90 473.00 L 526.50 475.30 L 525.40 477.70 L 524.90 480.20 L 524.90 482.90 L 525.50 485.90 Z M 499.90 541.10 L 466.90 539.90 L 456.10 538.50 L 450.80 537.30 L 445.60 535.70 L 440.60 533.60 L 434.00 530.00 L 428.30 526.30 L 426.40 525.40 L 424.50 524.90 L 422.10 525.50 L 420.80 526.40 L 418.50 535.10 L 416.50 543.90 L 413.80 561.80 L 412.30 579.80 L 416.20 579.80 L 419.90 579.50 L 423.50 578.80 L 430.30 576.40 L 438.30 572.00 L 452.30 562.40 L 461.70 556.60 L 464.50 566.20 L 467.90 575.60 L 470.50 581.70 L 473.60 587.60 L 478.50 595.40 L 482.20 599.30 L 485.90 601.50 L 489.20 602.10 L 492.50 601.40 L 494.30 600.40 L 497.50 595.20 L 500.40 589.90 L 502.80 584.40 L 505.80 576.00 L 513.20 549.80 L 529.60 550.50 L 533.60 551.10 L 537.40 552.40 L 541.80 559.40 L 553.70 580.80 L 559.80 589.80 L 564.90 596.10 L 567.00 598.20 L 569.30 600.00 L 573.50 602.10 L 576.90 602.20 L 578.50 601.70 L 580.20 600.70 L 581.90 599.10 L 584.20 594.40 L 587.90 584.50 L 589.90 576.90 L 594.50 553.60 L 608.80 569.00 L 613.90 573.80 L 621.10 579.70 L 625.10 582.30 L 633.00 579.00 L 634.70 571.60 L 635.80 564.10 L 636.50 556.60 L 636.70 549.10 L 636.20 533.90 L 633.90 511.30 L 628.20 515.80 L 622.30 519.80 L 616.30 523.40 L 610.20 526.60 L 601.60 530.20 L 592.90 533.30 L 584.00 535.70 L 574.80 537.70 L 565.60 539.20 L 556.20 540.20 L 542.10 541.20 L 527.90 541.50 L 499.90 541.10 Z M 274.20 674.20 L 273.20 679.20 L 272.70 684.30 L 272.90 689.40 L 274.70 699.50 L 276.20 704.60 L 279.00 712.10 L 289.80 735.50 L 290.80 737.10 L 292.20 738.50 L 295.60 740.10 L 297.60 740.50 L 301.50 740.30 L 305.00 738.80 L 306.40 737.70 L 307.50 736.20 L 308.20 734.50 L 308.50 732.60 L 308.30 730.10 L 306.70 721.40 L 304.40 712.90 L 301.80 704.40 L 298.70 696.10 L 290.70 677.20 L 289.30 675.10 L 287.60 673.40 L 285.50 672.10 L 283.40 671.30 L 281.00 671.10 L 279.30 671.30 L 275.90 672.80 L 274.20 674.20 Z M 713.40 715.40 L 711.30 719.20 L 699.70 734.80 L 697.40 738.70 L 695.30 744.30 L 694.90 747.10 L 694.90 749.90 L 695.60 752.80 L 696.90 755.90 L 699.90 756.80 L 702.50 757.00 L 704.90 756.70 L 707.20 755.90 L 709.40 754.70 L 711.50 753.20 L 714.30 750.30 L 716.90 747.00 L 726.00 733.40 L 737.20 713.40 L 740.60 706.40 L 742.50 701.70 L 744.00 696.90 L 745.00 692.10 L 745.40 684.70 L 745.10 680.90 L 744.30 677.00 L 740.70 679.30 L 737.40 681.80 L 734.50 684.60 L 730.50 689.30 L 727.00 694.40 L 717.00 710.40 L 713.40 715.40 Z" fill="#8cc5be" fill-rule="nonzero" node-id="86" stroke="none" target-height="655.4" target-width="534.19995" target-x="246.1" target-y="180.4"></path><path d="M 571.00 295.60 L 584.50 285.20 L 591.50 280.50 L 598.90 276.20 L 603.90 273.60 L 614.40 269.40 L 618.00 269.20 L 619.80 269.60 L 622.40 270.70 L 624.80 272.30 L 626.90 274.40 L 628.50 276.70 L 629.20 278.30 L 629.60 281.60 L 629.20 283.20 L 628.40 284.80 L 627.10 286.30 L 620.30 291.20 L 613.40 295.70 L 606.10 299.90 L 598.70 303.70 L 583.50 310.40 L 580.30 309.20 L 577.30 306.50 L 571.00 295.60 Z" fill="#384757" fill-rule="nonzero" node-id="88" stroke="none" target-height="41.19998" target-width="58.599976" target-x="571" target-y="269.2"></path><path d="M 408.50 292.60 L 406.80 291.20 L 405.60 289.80 L 404.90 288.20 L 404.40 284.70 L 404.70 282.90 L 405.70 280.30 L 407.20 277.90 L 408.50 276.50 L 411.60 274.40 L 413.40 273.80 L 417.20 273.80 L 428.40 277.40 L 439.50 282.20 L 444.70 285.10 L 449.80 288.30 L 454.60 291.90 L 459.10 295.70 L 463.20 300.00 L 458.00 315.00 L 452.00 313.60 L 446.20 311.80 L 440.60 309.60 L 432.40 305.80 L 424.30 301.50 L 408.50 292.60 Z" fill="#374559" fill-rule="nonzero" node-id="90" stroke="none" target-height="41.200012" target-width="58.80002" target-x="404.4" target-y="273.8"></path><path d="M 801.50 286.00 L 803.10 285.60 L 804.60 285.70 L 806.00 286.30 L 808.40 288.30 L 809.40 289.70 L 810.50 292.10 L 811.10 294.60 L 811.20 296.20 L 810.30 299.10 L 808.60 299.60 L 807.10 299.50 L 805.60 299.00 L 803.00 296.90 L 801.90 295.50 L 800.80 293.10 L 800.20 290.60 L 800.30 288.90 L 801.50 286.00 Z" fill="#909190" fill-rule="nonzero" node-id="92" stroke="none" target-height="14" target-width="11" target-x="800.2" target-y="285.6"></path><path d="M 356.20 341.00 L 355.70 333.40 L 355.80 325.10 L 356.40 321.00 L 357.40 317.40 L 358.50 315.20 L 359.90 313.40 L 361.60 311.90 L 363.60 310.80 L 366.20 310.20 L 369.40 310.00 L 369.40 341.50 L 356.20 341.00 Z" fill="#3d4556" fill-rule="nonzero" node-id="94" stroke="none" target-height="31.5" target-width="13.699982" target-x="355.7" target-y="310"></path><path d="M 660.30 309.00 L 663.30 309.00 L 665.70 309.40 L 667.60 310.20 L 669.30 311.40 L 670.60 312.80 L 671.80 314.60 L 673.10 317.70 L 674.00 321.20 L 676.60 335.20 L 661.30 336.00 L 660.30 309.00 Z" fill="#3b505b" fill-rule="nonzero" node-id="96" stroke="none" target-height="27" target-width="16.299988" target-x="660.3" target-y="309"></path><path d="M 682.90 311.00 L 685.60 310.70 L 687.80 310.90 L 689.60 311.40 L 691.20 312.40 L 692.60 313.70 L 693.70 315.50 L 694.60 317.90 L 696.00 324.30 L 696.80 330.70 L 697.00 337.20 L 696.10 350.30 L 695.10 356.80 L 692.70 355.40 L 689.00 352.30 L 686.20 347.80 L 685.20 344.90 L 684.50 341.70 L 684.00 336.70 L 684.00 320.70 L 683.70 315.60 L 682.90 311.00 Z" fill="#333c53" fill-rule="nonzero" node-id="98" stroke="none" target-height="46.099976" target-width="14.099976" target-x="682.9" target-y="310.7"></path><path d="M 340.30 314.10 L 342.70 315.30 L 346.10 318.10 L 347.30 319.70 L 348.50 322.30 L 349.30 325.00 L 349.70 328.10 L 349.70 332.90 L 348.40 348.00 L 348.20 352.90 L 348.50 357.10 L 345.30 356.40 L 342.80 355.30 L 340.90 353.90 L 339.30 352.10 L 338.10 350.10 L 337.30 347.70 L 336.60 343.90 L 336.50 339.60 L 336.90 335.20 L 340.30 314.10 Z" fill="#394353" fill-rule="nonzero" node-id="100" stroke="none" target-height="43" target-width="13.200012" target-x="336.5" target-y="314.1"></path><path d="M 629.30 317.10 L 645.20 314.50 L 651.40 331.90 L 647.60 331.70 L 644.00 330.90 L 640.80 329.80 L 637.80 328.10 L 635.20 326.00 L 632.90 323.50 L 630.90 320.60 L 629.30 317.10 Z" fill="#496269" fill-rule="nonzero" node-id="102" stroke="none" target-height="17.399994" target-width="22.100037" target-x="629.3" target-y="314.5"></path><path d="M 546.40 347.00 L 546.60 343.00 L 547.40 339.40 L 548.70 336.00 L 550.50 332.90 L 552.70 330.10 L 555.30 327.60 L 558.20 325.40 L 561.30 323.50 L 564.70 322.00 L 571.80 320.20 L 575.40 319.80 L 579.00 319.90 L 582.40 320.40 L 585.80 321.40 L 589.00 322.80 L 591.80 324.70 L 594.50 327.20 L 596.10 329.20 L 598.80 334.40 L 599.90 337.60 L 577.50 328.90 L 575.10 328.50 L 572.90 328.60 L 569.30 329.90 L 566.00 332.50 L 557.40 342.80 L 555.10 345.00 L 552.60 346.50 L 550.70 347.10 L 548.70 347.20 L 546.40 347.00 Z" fill="#44606a" fill-rule="nonzero" node-id="104" stroke="none" target-height="27.400024" target-width="53.5" target-x="546.4" target-y="319.8"></path><path d="M 632.10 371.70 L 637.10 371.30 L 642.10 371.50 L 647.00 372.40 L 651.70 373.80 L 656.20 375.80 L 660.40 378.30 L 663.40 380.50 L 668.40 385.60 L 670.60 388.60 L 672.30 391.80 L 673.70 395.20 L 674.70 398.80 L 676.00 407.50 L 676.00 412.10 L 675.40 416.70 L 674.20 421.10 L 672.50 425.40 L 670.40 429.50 L 667.80 433.30 L 664.90 436.80 L 661.60 440.00 L 658.00 442.80 L 654.20 445.20 L 650.10 447.10 L 645.80 448.50 L 641.40 449.40 L 636.90 449.70 L 633.50 449.50 L 626.60 447.90 L 618.80 444.70 L 615.10 442.40 L 611.90 439.80 L 609.10 436.70 L 606.80 433.30 L 605.00 429.60 L 603.60 425.70 L 602.60 421.70 L 602.10 417.50 L 602.10 413.30 L 602.50 409.00 L 603.30 404.80 L 604.60 400.70 L 606.40 396.80 L 608.50 393.00 L 620.80 399.60 L 625.00 400.70 L 627.00 400.70 L 629.00 400.20 L 631.00 399.10 L 633.10 397.20 L 634.60 393.10 L 634.70 387.90 L 632.30 374.90 L 632.10 371.70 Z" fill="#3c3747" fill-rule="nonzero" node-id="106" stroke="none" target-height="78.400024" target-width="73.900024" target-x="602.1" target-y="371.3"></path><path d="M 366.20 438.40 L 362.70 431.70 L 360.70 424.50 L 360.10 419.60 L 360.10 414.60 L 360.80 409.60 L 362.00 404.80 L 363.80 400.20 L 366.10 395.90 L 368.20 392.90 L 370.60 390.30 L 373.20 387.90 L 376.20 385.70 L 379.40 384.00 L 382.80 382.60 L 386.60 381.70 L 390.60 381.20 L 389.70 387.90 L 389.30 395.20 L 389.60 398.80 L 390.40 402.00 L 391.20 404.00 L 392.40 405.60 L 393.90 407.10 L 395.70 408.10 L 397.90 408.80 L 400.80 409.10 L 404.40 406.80 L 407.70 404.10 L 420.30 392.40 L 423.60 395.80 L 426.40 399.50 L 428.90 403.50 L 430.90 407.80 L 432.30 412.30 L 433.30 416.80 L 433.70 421.50 L 433.40 426.00 L 432.50 430.50 L 431.50 433.80 L 430.00 437.00 L 428.10 440.00 L 423.40 445.80 L 418.10 450.30 L 415.10 452.10 L 410.90 454.00 L 406.50 455.20 L 401.90 456.00 L 397.20 456.10 L 392.60 455.70 L 388.00 454.80 L 383.60 453.30 L 379.40 451.40 L 375.50 448.90 L 370.40 444.20 L 366.20 438.40 Z" fill="#3a3647" fill-rule="nonzero" node-id="108" stroke="none" target-height="74.899994" target-width="73.600006" target-x="360.1" target-y="381.2"></path><path d="M 488.40 474.40 L 489.70 471.80 L 491.20 469.70 L 492.80 468.00 L 494.60 466.80 L 497.30 465.70 L 500.10 465.20 L 503.20 465.20 L 506.20 465.80 L 509.20 466.80 L 512.20 468.30 L 515.00 470.20 L 517.50 472.40 L 519.70 474.90 L 521.40 477.80 L 522.70 480.70 L 523.40 483.90 L 513.60 480.30 L 504.40 475.30 L 488.40 474.40 Z" fill="#466470" fill-rule="nonzero" node-id="110" stroke="none" target-height="18.699982" target-width="35.00003" target-x="488.4" target-y="465.2"></path><path d="M 525.50 485.90 L 524.90 482.90 L 524.90 480.20 L 525.40 477.70 L 526.50 475.30 L 527.90 473.00 L 531.80 469.30 L 536.40 466.60 L 539.00 465.80 L 544.00 465.30 L 546.40 465.70 L 548.50 466.60 L 550.50 467.90 L 552.10 469.70 L 553.40 472.00 L 554.30 475.20 L 547.20 475.60 L 543.90 476.40 L 539.10 478.10 L 534.40 480.40 L 525.50 485.90 Z" fill="#48656f" fill-rule="nonzero" node-id="112" stroke="none" target-height="20.600006" target-width="29.399963" target-x="524.9" target-y="465.3"></path><path d="M 499.90 541.10 L 527.90 541.50 L 542.10 541.20 L 556.20 540.20 L 565.60 539.20 L 574.80 537.70 L 584.00 535.70 L 592.90 533.30 L 601.60 530.20 L 610.20 526.60 L 616.30 523.40 L 622.30 519.80 L 628.20 515.80 L 633.90 511.30 L 636.20 533.90 L 636.70 549.10 L 636.50 556.60 L 635.80 564.10 L 634.70 571.60 L 633.00 579.00 L 625.10 582.30 L 621.10 579.70 L 613.90 573.80 L 608.80 569.00 L 594.50 553.60 L 589.90 576.90 L 587.90 584.50 L 584.20 594.40 L 581.90 599.10 L 580.20 600.70 L 578.50 601.70 L 576.90 602.20 L 573.50 602.00 L 569.30 600.00 L 567.00 598.20 L 564.90 596.10 L 559.80 589.80 L 553.70 580.80 L 541.80 559.40 L 537.40 552.40 L 533.60 551.10 L 529.60 550.50 L 513.20 549.80 L 505.80 576.00 L 502.80 584.40 L 500.40 589.90 L 497.50 595.20 L 494.30 600.40 L 492.50 601.40 L 489.20 602.10 L 485.90 601.50 L 482.20 599.30 L 478.50 595.40 L 473.60 587.60 L 470.50 581.70 L 467.90 575.60 L 464.50 566.20 L 461.70 556.60 L 452.30 562.40 L 438.30 572.00 L 430.30 576.40 L 423.50 578.80 L 419.90 579.50 L 416.20 579.80 L 412.30 579.80 L 413.80 561.80 L 416.50 543.90 L 418.50 535.10 L 420.80 526.40 L 422.10 525.50 L 424.50 524.90 L 426.40 525.40 L 428.30 526.30 L 434.00 530.00 L 440.60 533.60 L 445.60 535.70 L 450.80 537.30 L 456.10 538.50 L 466.90 539.90 L 499.90 541.10 Z M 596.40 542.50 L 599.40 545.10 L 602.20 548.30 L 610.40 558.90 L 615.30 564.10 L 619.60 567.00 L 621.90 567.90 L 624.50 568.30 L 627.20 568.30 L 627.70 558.20 L 627.80 527.80 L 596.40 542.50 Z M 426.10 535.40 L 423.40 553.90 L 421.30 572.60 L 434.40 564.80 L 460.00 548.30 L 426.10 535.40 Z M 465.10 547.60 L 471.30 563.50 L 474.80 571.30 L 480.50 582.80 L 486.60 594.00 L 491.50 587.60 L 496.00 578.70 L 498.20 573.10 L 505.50 550.10 L 465.10 547.60 Z M 545.80 550.20 L 552.00 562.00 L 558.70 573.50 L 563.50 581.00 L 568.80 588.10 L 574.40 595.00 L 576.50 589.60 L 579.80 578.70 L 581.80 570.40 L 586.40 545.10 L 545.80 550.20 Z" fill="#3b424e" fill-rule="nonzero" node-id="114" stroke="none" target-height="90.900024" target-width="224.40002" target-x="412.3" target-y="511.3"></path><path d="M 426.10 535.40 L 460.00 548.30 L 434.40 564.80 L 421.30 572.60 L 423.40 553.90 L 426.10 535.40 Z" fill="#fbfafb" fill-rule="nonzero" node-id="116" stroke="none" target-height="37.19995" target-width="38.700012" target-x="421.3" target-y="535.4"></path><path d="M 274.20 674.20 L 275.90 672.80 L 279.30 671.30 L 281.00 671.10 L 283.40 671.30 L 285.50 672.10 L 287.60 673.40 L 289.30 675.10 L 290.70 677.20 L 298.70 696.10 L 304.40 712.90 L 306.70 721.40 L 308.30 730.10 L 308.50 732.60 L 308.20 734.50 L 307.50 736.20 L 305.00 738.80 L 303.30 739.70 L 299.60 740.60 L 295.60 740.10 L 293.90 739.50 L 292.20 738.50 L 290.80 737.10 L 289.80 735.50 L 279.00 712.10 L 276.20 704.60 L 274.70 699.50 L 272.90 689.40 L 272.70 684.30 L 273.20 679.20 L 274.20 674.20 Z" fill="#3a6971" fill-rule="nonzero" node-id="118" stroke="none" target-height="69.5" target-width="35.799988" target-x="272.7" target-y="671.1"></path><path d="M 713.40 715.40 L 717.00 710.40 L 727.00 694.40 L 730.50 689.30 L 734.50 684.60 L 737.40 681.80 L 740.70 679.30 L 744.30 677.00 L 745.10 680.90 L 745.40 688.40 L 745.00 692.10 L 744.00 696.90 L 742.50 701.70 L 740.60 706.40 L 737.20 713.40 L 726.00 733.40 L 716.90 747.00 L 714.30 750.30 L 711.50 753.20 L 709.40 754.70 L 707.20 755.90 L 704.90 756.70 L 702.50 757.00 L 699.90 756.80 L 696.90 755.90 L 695.60 752.80 L 694.90 749.90 L 694.90 747.10 L 695.30 744.30 L 696.10 741.50 L 697.40 738.70 L 699.70 734.80 L 708.60 723.10 L 711.30 719.20 L 713.40 715.40 Z" fill="#406b75" fill-rule="nonzero" node-id="120" stroke="none" target-height="80" target-width="50.5" target-x="694.9" target-y="677"></path></svg>