<?xml version="1.0" standalone="no"?><!DOCTYPE svg PUBLIC "-//W3C//DTD SVG 1.1//EN" "http://www.w3.org/Graphics/SVG/1.1/DTD/svg11.dtd"><svg height="1024" node-id="1" sillyvg="true" template-height="1024" template-width="1024" version="1.1" viewBox="0 0 1024 1024" width="1024" xmlns="http://www.w3.org/2000/svg" xmlns:xlink="http://www.w3.org/1999/xlink"><defs node-id="27"></defs><path d="M 0.00 0.00 L 1024.00 0.00 L 1024.00 1024.00 L 0.00 1024.00 Z" fill="#ffffff" fill-rule="nonzero" node-id="29" stroke="none" target-height="1024" target-width="1024" target-x="0" target-y="0"></path><path d="M 409.00 804.40 L 455.30 803.60 L 501.50 802.30 L 547.70 800.60 L 593.80 798.50 L 640.00 795.80 L 644.30 838.20 L 646.20 852.30 L 648.50 866.40 L 651.40 880.30 L 396.90 880.30 L 401.30 863.70 L 405.10 842.60 L 406.70 829.90 L 409.00 804.40 Z" fill="#ffffff" fill-rule="nonzero" node-id="31" stroke="none" target-height="84.5" target-width="254.50003" target-x="396.9" target-y="795.8"></path><path d="M 742.30 143.00 L 749.80 146.10 L 757.10 149.50 L 764.10 153.50 L 770.80 157.80 L 777.30 162.50 L 783.50 167.60 L 789.30 173.10 L 794.90 178.80 L 800.10 184.90 L 805.00 191.30 L 809.60 197.80 L 813.70 204.70 L 817.50 211.80 L 820.90 219.00 L 823.90 226.40 L 826.50 233.90 L 828.70 241.60 L 830.40 249.40 L 831.60 257.20 L 832.40 265.10 L 832.70 273.10 L 832.50 281.00 L 831.90 288.90 L 830.70 296.80 L 829.00 304.60 L 826.70 312.40 L 823.90 320.00 L 820.50 327.60 L 831.50 345.10 L 801.10 343.00 L 806.30 357.90 L 791.50 350.70 L 776.70 344.10 L 767.70 319.80 L 759.20 295.70 L 780.20 298.00 L 772.60 314.10 L 784.10 346.50 L 789.00 343.00 L 793.40 339.40 L 797.40 335.50 L 801.00 331.60 L 804.20 327.40 L 807.80 321.90 L 810.80 316.10 L 813.30 310.20 L 815.30 304.00 L 816.80 297.70 L 817.90 291.20 L 818.60 284.60 L 818.80 277.80 L 818.50 268.80 L 817.60 259.80 L 816.10 250.60 L 814.10 241.60 L 811.60 232.70 L 808.70 224.00 L 805.40 215.40 L 798.00 199.60 L 788.30 235.30 L 784.10 246.80 L 781.50 252.30 L 778.50 257.60 L 775.00 262.60 L 770.90 267.40 L 751.90 285.70 L 744.40 284.10 L 744.90 273.50 L 751.60 266.40 L 758.10 258.80 L 762.20 253.50 L 769.60 242.40 L 772.70 236.50 L 775.50 230.60 L 777.80 224.50 L 779.50 218.20 L 780.70 211.90 L 781.20 205.50 L 781.20 200.60 L 780.80 195.70 L 779.90 190.70 L 778.60 185.60 L 772.80 178.20 L 748.10 150.20 L 742.30 143.00 Z" fill="#37384d" fill-rule="nonzero" node-id="33" stroke="none" target-height="214.9" target-width="90.400024" target-x="742.3" target-y="143"></path><path d="M 816.90 511.60 L 822.50 513.00 L 827.30 514.80 L 831.60 517.00 L 835.30 519.50 L 838.70 522.60 L 841.70 525.90 L 844.30 529.60 L 846.50 533.60 L 849.70 542.30 L 851.70 551.90 L 852.40 558.50 L 852.60 565.30 L 852.50 572.20 L 851.90 579.20 L 850.00 592.50 L 848.00 602.20 L 845.80 610.80 L 835.90 607.60 L 837.30 589.30 L 838.30 571.00 L 838.60 558.80 L 838.20 534.50 L 826.00 534.80 L 824.20 550.20 L 821.80 565.40 L 818.90 580.60 L 815.50 595.70 L 811.60 610.70 L 807.20 625.40 L 802.20 640.00 L 796.70 654.50 L 790.70 668.70 L 784.10 682.60 L 776.90 696.20 L 769.30 709.60 L 762.70 720.00 L 755.80 730.30 L 748.60 740.30 L 740.90 750.00 L 732.90 759.60 L 728.70 827.40 L 751.30 831.80 L 766.40 835.80 L 780.90 841.00 L 787.80 844.20 L 794.50 847.80 L 803.90 854.00 L 812.50 861.50 L 816.40 865.60 L 820.00 870.10 L 823.40 875.00 L 826.50 880.30 L 809.30 880.30 L 806.00 875.30 L 802.50 870.80 L 798.80 866.70 L 794.80 863.00 L 790.50 859.60 L 781.40 853.80 L 770.00 848.50 L 763.10 846.00 L 756.00 843.90 L 745.10 841.30 L 734.10 839.20 L 712.20 835.80 L 715.90 793.70 L 717.10 783.20 L 720.10 765.90 L 723.70 752.30 L 727.50 744.20 L 736.00 728.40 L 756.80 693.70 L 763.30 681.90 L 770.20 668.60 L 776.60 655.10 L 782.30 641.30 L 787.60 627.40 L 792.40 613.30 L 800.80 584.60 L 807.90 555.50 L 816.90 511.60 Z" fill="#37384d" fill-rule="nonzero" node-id="35" stroke="none" target-height="368.69998" target-width="140.39996" target-x="712.2" target-y="511.6"></path><path d="M 399.40 788.80 L 420.90 789.30 L 442.30 789.40 L 463.70 788.90 L 495.80 787.70 L 624.30 780.40 L 656.40 779.30 L 656.50 812.10 L 657.10 830.30 L 658.90 844.70 L 660.50 851.70 L 662.60 858.70 L 665.40 865.50 L 672.40 868.10 L 679.60 870.10 L 686.90 871.70 L 697.90 873.50 L 709.20 874.60 L 754.60 877.30 L 762.10 878.00 L 777.00 880.30 L 651.40 880.30 L 648.50 866.40 L 646.20 852.30 L 644.30 838.20 L 640.00 795.80 L 593.80 798.50 L 547.70 800.60 L 501.50 802.30 L 455.30 803.60 L 409.00 804.40 L 406.70 829.90 L 405.10 842.60 L 401.30 863.70 L 396.90 880.30 L 260.30 880.30 L 292.30 878.00 L 324.30 876.10 L 356.40 874.60 L 388.50 873.60 L 391.40 859.50 L 393.80 845.50 L 395.80 831.40 L 397.30 817.20 L 399.40 788.80 Z" fill="#37384d" fill-rule="nonzero" node-id="37" stroke="none" target-height="101" target-width="516.7" target-x="260.3" target-y="779.3"></path><path d="M 801.10 343.00 L 815.70 344.10 L 822.40 357.50 L 828.60 371.20 L 834.30 385.10 L 850.20 427.70 L 827.80 417.90 L 801.10 343.00 Z" fill="#d0ecef" fill-rule="nonzero" node-id="39" stroke="none" target-height="84.70001" target-width="49.100037" target-x="801.1" target-y="343"></path><path d="M 439.50 370.90 L 448.10 374.30 L 456.90 377.40 L 465.70 379.90 L 474.70 382.00 L 483.70 383.60 L 492.80 384.80 L 501.90 385.60 L 511.10 385.80 L 520.20 385.70 L 529.40 385.10 L 538.50 384.00 L 547.60 382.50 L 556.60 380.60 L 565.50 378.20 L 574.30 375.40 L 583.00 372.20 L 583.20 377.80 L 583.00 383.40 L 582.40 388.80 L 581.30 394.20 L 579.90 399.50 L 575.80 409.60 L 573.20 414.40 L 570.30 419.10 L 563.60 427.60 L 555.80 435.20 L 551.50 438.50 L 542.30 444.30 L 537.40 446.60 L 532.40 448.60 L 527.20 450.10 L 521.90 451.30 L 516.50 452.00 L 511.00 452.30 L 505.40 452.00 L 493.80 450.60 L 488.10 449.50 L 482.70 447.80 L 477.50 445.60 L 472.50 443.00 L 467.80 440.00 L 463.40 436.60 L 459.30 432.90 L 455.40 428.80 L 451.90 424.40 L 448.80 419.80 L 446.00 414.90 L 443.60 409.80 L 441.70 404.60 L 440.10 399.20 L 439.00 393.60 L 438.40 388.00 L 438.20 382.40 L 438.60 376.70 L 439.50 370.90 Z M 460.10 397.30 L 462.50 402.50 L 465.20 407.20 L 468.30 411.40 L 471.70 415.10 L 475.50 418.60 L 479.60 421.50 L 483.80 424.00 L 488.30 426.10 L 493.00 427.80 L 497.70 429.00 L 502.60 429.80 L 507.60 430.20 L 512.50 430.10 L 517.50 429.70 L 522.30 428.80 L 527.20 427.40 L 531.90 425.60 L 536.30 423.50 L 540.70 420.90 L 544.80 417.80 L 548.60 414.40 L 552.10 410.50 L 555.30 406.20 L 558.20 401.30 L 525.40 400.80 L 460.10 397.30 Z" fill="#293e5b" fill-rule="nonzero" node-id="41" stroke="none" target-height="81.399994" target-width="145" target-x="438.2" target-y="370.9"></path><path d="M 303.20 285.80 L 310.20 279.40 L 317.50 273.40 L 325.10 267.70 L 332.90 262.40 L 340.90 257.50 L 351.20 251.80 L 361.80 246.70 L 372.60 242.10 L 383.70 238.10 L 395.00 234.60 L 406.40 231.60 L 418.00 229.10 L 429.70 227.20 L 408.30 236.20 L 387.10 245.70 L 345.00 265.50 L 303.20 285.80 Z" fill="#b2e1ec" fill-rule="nonzero" node-id="43" stroke="none" target-height="58.59999" target-width="126.5" target-x="303.2" target-y="227.2"></path><path d="M 205.20 339.80 L 201.40 332.50 L 198.20 325.20 L 195.70 317.70 L 193.70 310.10 L 192.30 302.30 L 191.40 294.50 L 191.10 286.60 L 191.30 278.70 L 192.00 270.80 L 193.20 263.00 L 194.90 255.30 L 197.00 247.60 L 199.70 240.10 L 202.70 232.70 L 206.10 225.50 L 210.00 218.50 L 214.30 211.70 L 219.00 205.20 L 224.00 199.10 L 229.30 193.20 L 235.00 187.60 L 241.00 182.50 L 247.30 177.80 L 253.90 173.40 L 260.80 169.60 L 267.90 166.20 L 275.30 163.40 L 283.00 161.00 L 258.30 184.10 L 246.60 196.30 L 245.30 201.60 L 244.50 206.70 L 244.00 211.70 L 244.00 216.70 L 244.50 223.30 L 245.70 229.80 L 247.40 236.10 L 249.70 242.30 L 252.40 248.40 L 255.60 254.30 L 263.00 265.60 L 267.20 271.00 L 273.90 278.70 L 280.90 285.90 L 297.10 271.60 L 305.50 264.80 L 314.10 258.20 L 323.00 252.10 L 332.10 246.30 L 346.40 238.70 L 353.80 235.30 L 368.80 229.40 L 383.80 224.50 L 418.60 216.10 L 437.60 210.70 L 445.00 208.00 L 457.40 202.30 L 467.50 195.90 L 472.40 192.20 L 500.50 210.00 L 518.60 185.90 L 542.00 209.40 L 563.80 184.20 L 567.80 186.70 L 571.40 189.40 L 574.70 192.40 L 577.60 195.70 L 581.20 200.40 L 584.30 205.60 L 587.10 211.40 L 605.30 216.20 L 623.50 221.30 L 655.10 231.40 L 681.60 241.40 L 694.70 247.00 L 707.50 252.90 L 720.20 259.30 L 732.60 266.20 L 744.90 273.50 L 744.40 284.10 L 701.50 264.30 L 679.80 254.80 L 658.00 245.80 L 643.30 240.20 L 628.40 235.00 L 613.40 230.40 L 602.00 227.30 L 590.50 224.50 L 578.90 222.20 L 567.10 220.20 L 562.60 227.60 L 558.70 235.20 L 555.20 243.00 L 550.60 255.00 L 546.70 267.20 L 535.60 304.30 L 531.30 316.40 L 530.40 307.60 L 530.20 298.90 L 530.60 290.30 L 531.60 281.70 L 533.00 273.20 L 534.80 264.70 L 538.10 252.20 L 541.90 239.70 L 550.10 215.00 L 546.00 215.40 L 542.20 216.20 L 535.60 218.60 L 532.60 220.40 L 530.00 222.50 L 527.70 225.00 L 525.80 227.70 L 524.20 230.70 L 523.10 234.00 L 522.40 237.70 L 520.30 255.90 L 516.50 298.40 L 514.00 317.20 L 512.20 326.60 L 511.50 308.50 L 511.20 290.50 L 511.00 218.40 L 491.10 219.60 L 498.00 255.50 L 499.40 264.70 L 500.30 273.80 L 500.50 285.80 L 500.10 291.70 L 499.20 297.50 L 497.80 303.20 L 495.80 308.90 L 491.80 316.90 L 486.20 324.80 L 485.90 290.10 L 484.60 267.00 L 483.40 255.50 L 481.90 244.10 L 479.80 232.80 L 477.20 221.50 L 453.30 223.60 L 441.40 225.10 L 418.00 229.10 L 406.40 231.60 L 395.00 234.60 L 383.70 238.10 L 372.60 242.10 L 361.80 246.70 L 351.20 251.80 L 340.90 257.50 L 332.90 262.40 L 325.10 267.70 L 317.50 273.40 L 310.20 279.40 L 303.20 285.80 L 298.30 289.50 L 294.10 293.50 L 290.50 297.70 L 287.30 302.30 L 284.40 307.20 L 281.80 312.30 L 278.40 320.20 L 269.40 344.70 L 266.10 352.70 L 262.30 360.40 L 253.40 359.80 L 244.50 358.90 L 227.00 356.00 L 209.70 352.60 L 203.60 364.60 L 192.30 388.90 L 184.50 407.50 L 177.20 426.30 L 181.10 425.90 L 185.40 424.90 L 203.40 418.70 L 207.90 417.60 L 212.00 417.10 L 214.70 417.20 L 217.30 417.70 L 219.70 418.60 L 221.80 420.00 L 223.80 422.00 L 225.80 424.70 L 214.60 431.40 L 180.60 450.80 L 173.20 455.30 L 159.00 465.20 L 152.20 470.50 L 145.70 476.30 L 133.60 488.60 L 128.20 495.00 L 123.10 501.60 L 114.00 515.60 L 106.10 530.30 L 102.60 537.90 L 98.50 548.30 L 94.80 558.80 L 91.70 569.60 L 89.00 580.50 L 86.80 591.50 L 85.00 602.50 L 106.30 599.70 L 112.20 594.90 L 118.40 590.40 L 124.80 586.30 L 131.50 582.70 L 139.10 587.80 L 146.30 593.40 L 159.90 605.60 L 173.10 618.40 L 171.10 592.20 L 170.10 573.30 L 170.60 557.60 L 172.30 545.80 L 173.80 540.20 L 175.70 534.80 L 178.10 529.80 L 180.20 526.30 L 182.70 523.00 L 185.50 519.90 L 188.70 517.00 L 192.20 514.60 L 196.10 512.30 L 200.50 510.30 L 205.50 508.60 L 210.10 529.50 L 215.30 550.30 L 221.10 571.00 L 225.90 586.40 L 231.00 601.60 L 236.60 616.70 L 242.40 631.70 L 248.70 646.50 L 255.50 661.10 L 262.60 675.50 L 270.20 689.60 L 278.20 703.50 L 286.70 717.20 L 295.70 730.50 L 309.40 749.00 L 313.00 754.60 L 316.00 760.40 L 318.50 766.40 L 320.60 772.60 L 322.20 778.90 L 324.10 788.50 L 325.40 798.40 L 326.30 808.40 L 328.20 838.20 L 315.30 840.40 L 293.90 845.20 L 285.50 847.70 L 271.30 853.00 L 259.90 858.90 L 254.40 862.30 L 249.20 866.10 L 244.30 870.40 L 239.60 875.10 L 235.10 880.30 L 220.30 880.30 L 224.40 874.20 L 228.80 868.50 L 233.50 863.40 L 238.50 858.70 L 243.90 854.50 L 249.60 850.60 L 255.50 847.00 L 261.60 843.80 L 270.10 840.00 L 278.80 836.70 L 287.80 833.80 L 301.50 830.20 L 315.20 827.10 L 307.60 770.30 L 297.50 759.20 L 287.80 747.70 L 278.70 735.90 L 270.00 723.60 L 261.80 711.10 L 254.00 698.30 L 246.80 685.10 L 240.00 671.70 L 233.80 658.10 L 228.00 644.30 L 222.70 630.30 L 214.60 604.90 L 205.40 571.00 L 198.70 548.70 L 194.90 537.70 L 190.50 526.90 L 188.20 533.40 L 186.50 539.90 L 185.30 546.40 L 184.00 559.50 L 183.90 566.00 L 184.30 575.90 L 185.10 585.80 L 189.90 625.50 L 188.20 629.80 L 185.60 632.70 L 183.40 634.00 L 180.90 635.00 L 178.10 635.60 L 173.70 636.10 L 159.50 636.30 L 155.10 636.70 L 151.20 637.60 L 136.90 660.20 L 133.90 661.20 L 131.20 661.70 L 128.70 661.80 L 123.70 660.70 L 118.10 657.70 L 102.50 644.90 L 90.30 643.00 L 86.50 642.10 L 82.80 640.80 L 79.60 639.10 L 77.80 637.70 L 74.80 633.90 L 73.80 631.60 L 73.10 628.90 L 72.20 616.90 L 72.00 608.40 L 72.30 600.00 L 72.90 591.70 L 74.00 583.40 L 75.90 573.20 L 78.30 563.10 L 81.30 553.20 L 84.80 543.40 L 88.80 533.80 L 93.20 524.40 L 98.00 515.10 L 103.30 506.00 L 114.90 488.50 L 121.10 480.00 L 127.70 471.80 L 136.90 461.20 L 146.40 451.00 L 156.20 441.30 L 171.70 401.80 L 180.90 380.10 L 189.50 363.40 L 194.20 355.30 L 199.50 347.50 L 205.20 339.80 Z M 205.50 304.70 L 208.30 312.00 L 211.80 319.50 L 214.40 324.30 L 220.60 333.40 L 224.10 337.50 L 227.90 341.20 L 232.00 344.40 L 235.20 346.50 L 242.20 349.60 L 246.00 350.70 L 249.80 351.30 L 253.80 351.40 L 258.00 351.10 L 262.60 350.30 L 263.10 345.60 L 263.20 341.20 L 262.80 337.00 L 262.10 333.00 L 260.50 327.90 L 258.40 322.90 L 255.80 318.10 L 251.20 311.30 L 229.70 285.10 L 224.90 278.30 L 268.40 315.30 L 270.10 297.60 L 263.50 289.90 L 257.50 282.00 L 252.10 273.80 L 247.30 265.30 L 243.00 256.50 L 239.90 249.00 L 237.20 241.30 L 234.90 233.50 L 233.10 225.50 L 231.60 217.30 L 230.60 208.90 L 221.80 223.20 L 214.00 238.50 L 210.80 246.40 L 208.00 254.50 L 206.20 260.60 L 203.90 273.00 L 203.30 279.30 L 203.10 285.60 L 203.40 291.90 L 204.20 298.30 L 205.50 304.70 Z" fill="#2a4561" fill-rule="nonzero" node-id="45" stroke="none" target-height="719.3" target-width="672.9" target-x="72" target-y="161"></path><path d="M 770.90 267.40 L 775.00 262.60 L 778.50 257.60 L 781.50 252.30 L 786.40 241.10 L 790.90 226.40 L 798.00 199.60 L 801.80 207.30 L 808.70 224.00 L 811.60 232.70 L 814.10 241.60 L 816.10 250.60 L 817.60 259.80 L 818.50 268.80 L 818.80 277.80 L 818.60 284.60 L 817.90 291.20 L 816.80 297.70 L 815.30 304.00 L 813.30 310.20 L 810.80 316.10 L 807.80 321.90 L 804.20 327.40 L 801.00 331.60 L 797.40 335.50 L 793.40 339.40 L 789.00 343.00 L 784.10 346.50 L 772.60 314.10 L 780.20 298.00 L 759.20 295.70 L 755.80 285.80 L 770.90 267.40 Z" fill="#f5b426" fill-rule="nonzero" node-id="47" stroke="none" target-height="146.9" target-width="63" target-x="755.8" target-y="199.6"></path><path d="M 205.50 304.70 L 204.20 298.30 L 203.40 291.90 L 203.10 285.60 L 203.30 279.30 L 203.90 273.00 L 206.20 260.60 L 208.00 254.50 L 210.80 246.40 L 214.00 238.50 L 221.80 223.20 L 230.60 208.90 L 231.60 217.30 L 233.10 225.50 L 234.90 233.50 L 237.20 241.30 L 239.90 249.00 L 243.00 256.50 L 247.30 265.30 L 252.10 273.80 L 257.50 282.00 L 263.50 289.90 L 270.10 297.60 L 268.40 315.30 L 224.90 278.30 L 229.70 285.10 L 251.20 311.30 L 255.80 318.10 L 258.40 322.90 L 260.50 327.90 L 262.10 333.00 L 262.80 337.00 L 263.20 341.20 L 263.10 345.60 L 262.60 350.30 L 258.00 351.10 L 253.80 351.40 L 249.80 351.30 L 246.00 350.70 L 242.20 349.60 L 235.20 346.50 L 232.00 344.40 L 227.90 341.20 L 224.10 337.50 L 220.60 333.40 L 214.40 324.30 L 211.80 319.50 L 208.30 312.00 L 205.50 304.70 Z" fill="#fcbd20" fill-rule="nonzero" node-id="49" stroke="none" target-height="142.5" target-width="67" target-x="203.1" target-y="208.9"></path><path d="M 429.70 227.20 L 441.40 225.10 L 453.30 223.60 L 477.20 221.50 L 479.80 232.80 L 481.90 244.10 L 483.40 255.50 L 484.60 267.00 L 485.90 290.10 L 486.20 324.80 L 491.80 316.90 L 495.80 308.80 L 497.80 303.20 L 499.20 297.50 L 500.10 291.70 L 500.50 285.80 L 500.30 273.80 L 499.40 264.70 L 498.00 255.50 L 491.10 219.60 L 511.00 218.40 L 511.20 290.50 L 511.50 308.50 L 512.20 326.60 L 514.00 317.20 L 516.50 298.40 L 520.30 255.90 L 522.40 237.70 L 523.10 234.00 L 524.20 230.70 L 525.80 227.70 L 527.70 225.00 L 530.00 222.50 L 532.60 220.40 L 535.60 218.60 L 542.20 216.20 L 550.10 215.00 L 541.90 239.70 L 538.10 252.20 L 534.80 264.70 L 533.00 273.20 L 531.60 281.70 L 530.60 290.30 L 530.20 298.90 L 530.40 307.60 L 531.30 316.40 L 535.60 304.30 L 546.70 267.20 L 550.60 255.00 L 555.20 243.00 L 558.70 235.20 L 562.60 227.60 L 567.10 220.20 L 578.90 222.20 L 590.50 224.50 L 602.00 227.20 L 613.40 230.40 L 628.40 235.00 L 643.30 240.20 L 658.00 245.80 L 679.80 254.80 L 701.50 264.30 L 744.40 284.10 L 751.90 285.70 L 770.90 267.40 L 755.80 285.80 L 767.70 319.80 L 776.70 344.10 L 791.50 350.70 L 806.30 357.90 L 827.80 417.90 L 792.70 414.20 L 803.30 423.60 L 808.90 427.80 L 817.60 433.70 L 854.00 455.50 L 862.80 461.30 L 870.20 467.40 L 877.30 473.90 L 884.00 480.70 L 890.30 487.90 L 896.30 495.40 L 901.90 503.20 L 907.00 511.20 L 911.80 519.50 L 916.10 528.10 L 920.00 536.80 L 923.40 545.70 L 926.30 554.80 L 928.70 564.00 L 930.60 573.30 L 932.00 582.80 L 932.90 592.30 L 933.20 601.90 L 933.00 611.40 L 932.20 621.00 L 930.80 630.70 L 917.70 614.10 L 892.70 580.20 L 889.20 580.80 L 885.90 581.90 L 883.00 583.30 L 877.70 587.10 L 871.90 593.30 L 862.50 605.90 L 855.90 613.60 L 845.80 610.80 L 848.00 602.20 L 850.00 592.50 L 851.90 579.20 L 852.50 572.20 L 852.70 565.30 L 852.40 558.50 L 851.70 551.90 L 849.70 542.30 L 846.50 533.60 L 844.30 529.60 L 841.70 525.90 L 838.70 522.60 L 835.30 519.50 L 831.60 517.00 L 827.30 514.80 L 822.50 513.00 L 816.90 511.60 L 807.90 555.50 L 800.80 584.60 L 792.40 613.30 L 787.60 627.40 L 782.30 641.30 L 776.60 655.10 L 770.20 668.60 L 763.30 681.90 L 756.80 693.70 L 736.00 728.40 L 727.50 744.20 L 723.70 752.30 L 720.10 765.90 L 717.10 783.20 L 715.90 793.70 L 712.20 835.80 L 734.10 839.20 L 745.10 841.30 L 756.00 843.90 L 763.10 846.00 L 770.00 848.50 L 776.60 851.30 L 786.10 856.50 L 794.80 863.00 L 798.80 866.70 L 802.50 870.80 L 806.00 875.30 L 809.30 880.30 L 777.00 880.30 L 762.10 878.00 L 754.60 877.30 L 709.20 874.60 L 697.90 873.50 L 686.90 871.70 L 679.60 870.10 L 672.40 868.10 L 665.40 865.50 L 662.60 858.70 L 660.50 851.70 L 658.90 844.70 L 657.10 830.30 L 656.50 812.10 L 656.40 779.30 L 624.30 780.30 L 495.80 787.70 L 463.70 788.90 L 442.30 789.40 L 420.90 789.30 L 399.40 788.80 L 397.30 817.20 L 395.80 831.40 L 393.80 845.50 L 391.40 859.50 L 388.50 873.50 L 356.40 874.60 L 324.30 876.10 L 292.30 878.00 L 260.30 880.30 L 235.10 880.30 L 239.60 875.10 L 244.30 870.40 L 249.20 866.10 L 254.40 862.30 L 259.90 858.90 L 271.30 853.00 L 285.50 847.70 L 293.90 845.20 L 315.30 840.40 L 328.20 838.20 L 326.30 808.40 L 325.40 798.40 L 324.10 788.50 L 322.20 778.90 L 320.60 772.60 L 318.50 766.40 L 316.00 760.40 L 313.00 754.60 L 309.40 749.00 L 295.70 730.50 L 286.70 717.20 L 278.20 703.50 L 270.20 689.60 L 262.60 675.50 L 255.50 661.10 L 248.70 646.50 L 242.40 631.70 L 236.60 616.70 L 231.00 601.60 L 225.90 586.40 L 221.10 571.00 L 215.30 550.30 L 210.10 529.50 L 205.50 508.60 L 200.50 510.30 L 196.10 512.30 L 192.20 514.60 L 188.70 517.00 L 185.50 519.90 L 182.70 523.00 L 180.20 526.30 L 178.10 529.80 L 175.70 534.80 L 173.80 540.20 L 172.30 545.80 L 170.60 557.60 L 170.10 573.30 L 171.10 592.20 L 173.10 618.40 L 159.90 605.60 L 146.30 593.40 L 139.10 587.80 L 131.50 582.70 L 124.80 586.30 L 118.40 590.40 L 112.20 594.90 L 106.30 599.70 L 85.00 602.50 L 86.80 591.50 L 89.00 580.50 L 91.70 569.60 L 94.80 558.80 L 98.50 548.30 L 102.60 537.90 L 106.10 530.30 L 114.00 515.60 L 123.10 501.60 L 128.20 495.00 L 133.60 488.60 L 139.50 482.50 L 145.70 476.30 L 152.20 470.50 L 159.00 465.20 L 166.00 460.10 L 180.60 450.80 L 214.60 431.40 L 225.80 424.70 L 223.80 422.00 L 221.80 420.00 L 219.70 418.60 L 217.30 417.70 L 214.70 417.20 L 212.00 417.10 L 207.90 417.60 L 203.40 418.70 L 185.40 424.90 L 181.10 425.90 L 177.20 426.30 L 184.50 407.50 L 192.30 388.90 L 203.60 364.60 L 209.70 352.60 L 227.00 356.00 L 244.50 358.90 L 253.40 359.80 L 262.30 360.40 L 266.10 352.70 L 269.40 344.70 L 278.40 320.20 L 281.80 312.30 L 284.40 307.20 L 287.30 302.30 L 290.50 297.70 L 294.10 293.50 L 298.30 289.50 L 303.20 285.80 L 366.00 255.50 L 408.30 236.20 L 429.70 227.20 Z M 745.80 355.70 L 744.90 359.90 L 744.60 363.20 L 744.90 365.60 L 745.60 367.50 L 746.70 368.90 L 748.10 369.90 L 750.00 370.50 L 752.50 370.80 L 755.90 370.50 L 760.30 369.40 L 761.10 365.10 L 761.30 361.80 L 761.00 359.30 L 760.30 357.50 L 759.20 356.10 L 757.80 355.10 L 755.90 354.50 L 753.40 354.20 L 750.10 354.60 L 745.80 355.70 Z M 439.50 370.90 L 438.60 376.70 L 438.20 382.40 L 438.40 388.00 L 439.00 393.60 L 440.10 399.20 L 441.70 404.60 L 443.60 409.80 L 446.00 414.90 L 448.80 419.80 L 451.90 424.40 L 455.40 428.80 L 459.30 432.90 L 463.40 436.60 L 467.80 440.00 L 472.50 443.00 L 477.50 445.60 L 482.70 447.80 L 488.10 449.50 L 493.80 450.60 L 505.40 452.00 L 511.00 452.30 L 516.50 452.00 L 521.90 451.30 L 527.20 450.10 L 532.40 448.60 L 537.40 446.60 L 542.30 444.30 L 551.50 438.50 L 559.80 431.50 L 567.10 423.40 L 573.20 414.40 L 575.80 409.60 L 579.90 399.50 L 581.30 394.20 L 582.40 388.80 L 583.00 383.40 L 583.20 377.80 L 583.00 372.20 L 574.30 375.40 L 565.50 378.20 L 556.60 380.60 L 547.60 382.50 L 538.50 384.00 L 529.40 385.10 L 520.20 385.70 L 511.10 385.80 L 501.90 385.60 L 492.80 384.80 L 483.70 383.60 L 474.70 382.00 L 465.70 379.90 L 456.90 377.40 L 448.10 374.30 L 439.50 370.90 Z M 304.80 535.30 L 291.20 541.60 L 289.30 548.10 L 287.90 554.50 L 286.90 560.80 L 286.40 567.10 L 286.40 573.30 L 286.90 581.10 L 288.00 588.70 L 289.70 596.20 L 292.10 603.60 L 294.90 610.90 L 298.30 617.90 L 302.10 624.70 L 306.40 631.30 L 311.20 637.60 L 316.30 643.70 L 321.80 649.40 L 327.70 654.90 L 333.90 660.00 L 340.40 664.70 L 347.10 669.00 L 354.10 672.90 L 361.40 676.40 L 368.70 679.40 L 376.20 681.90 L 383.90 684.00 L 391.60 685.50 L 399.40 686.50 L 407.30 686.90 L 423.30 686.50 L 438.00 684.90 L 450.00 682.40 L 455.90 680.70 L 467.00 676.20 L 472.20 673.30 L 477.00 670.10 L 481.30 666.60 L 484.20 663.60 L 486.80 660.40 L 489.00 656.90 L 490.90 653.10 L 492.30 649.20 L 493.40 645.00 L 493.90 640.40 L 494.00 635.30 L 491.00 628.10 L 487.70 621.10 L 484.00 614.30 L 480.00 607.80 L 475.60 601.50 L 469.70 594.00 L 463.40 586.80 L 456.60 580.10 L 449.40 573.70 L 441.80 567.80 L 433.90 562.30 L 425.70 557.20 L 417.20 552.50 L 408.50 548.40 L 399.60 544.70 L 390.40 541.40 L 381.10 538.70 L 371.70 536.40 L 362.20 534.60 L 352.60 533.40 L 343.00 532.70 L 333.40 532.50 L 323.80 532.90 L 314.30 533.80 L 304.80 535.30 Z M 667.80 552.90 L 660.10 552.10 L 653.30 552.10 L 646.70 552.70 L 640.20 553.90 L 633.90 555.50 L 627.70 557.70 L 621.60 560.30 L 615.70 563.30 L 604.40 570.50 L 593.70 579.10 L 587.00 585.40 L 580.50 592.10 L 574.40 599.20 L 563.10 614.00 L 553.20 629.40 L 544.70 644.50 L 546.20 650.00 L 548.10 655.20 L 550.50 660.00 L 553.30 664.50 L 556.60 668.70 L 560.20 672.60 L 564.20 676.20 L 568.50 679.50 L 574.60 683.40 L 581.00 686.80 L 587.90 689.70 L 595.00 692.00 L 602.20 693.90 L 609.40 695.20 L 616.80 696.10 L 624.00 696.40 L 638.10 695.90 L 645.20 695.10 L 652.20 693.80 L 659.00 692.10 L 665.80 689.80 L 672.30 687.20 L 678.70 684.10 L 684.80 680.60 L 690.70 676.70 L 696.40 672.50 L 701.70 667.90 L 706.70 663.00 L 711.40 657.70 L 715.70 652.10 L 719.60 646.30 L 723.20 640.20 L 726.30 633.80 L 728.90 627.20 L 731.00 620.40 L 734.30 607.10 L 735.60 600.00 L 736.30 592.70 L 736.50 585.20 L 735.60 575.30 L 733.40 565.90 L 731.70 561.50 L 729.70 557.50 L 727.20 553.80 L 724.20 550.50 L 720.80 547.70 L 718.00 546.00 L 714.90 544.50 L 711.40 543.40 L 707.40 542.70 L 689.20 541.00 L 684.50 541.00 L 680.10 541.60 L 677.30 542.40 L 674.80 543.50 L 672.50 545.10 L 670.60 547.00 L 669.10 549.60 L 667.80 552.90 Z M 718.40 674.50 L 717.00 679.10 L 716.40 682.60 L 716.30 685.40 L 716.80 687.40 L 717.60 689.00 L 718.70 690.20 L 720.30 691.10 L 722.40 691.60 L 725.20 691.70 L 728.90 691.20 L 733.80 690.00 L 735.10 685.30 L 735.70 681.70 L 735.70 679.00 L 735.20 676.90 L 734.40 675.30 L 733.20 674.10 L 731.60 673.30 L 729.50 672.80 L 726.80 672.70 L 723.10 673.20 L 718.40 674.50 Z M 443.20 692.20 L 448.80 705.70 L 455.90 719.20 L 464.40 732.00 L 469.20 738.00 L 474.30 743.70 L 479.70 749.00 L 484.00 752.60 L 488.50 756.00 L 498.00 761.70 L 503.00 764.10 L 508.20 766.00 L 513.50 767.50 L 519.10 768.60 L 507.10 750.30 L 499.70 737.70 L 496.50 731.30 L 493.60 724.60 L 491.20 717.80 L 489.30 710.70 L 478.70 703.70 L 467.40 698.20 L 461.60 696.00 L 455.60 694.30 L 449.50 693.00 L 443.20 692.20 Z M 504.40 715.50 L 502.50 718.00 L 501.50 720.30 L 501.10 722.30 L 501.20 724.30 L 501.70 726.30 L 502.70 728.30 L 504.70 731.00 L 515.60 741.60 L 517.70 744.10 L 552.50 720.70 L 546.80 727.80 L 541.30 735.20 L 534.90 745.50 L 532.10 750.90 L 529.70 756.50 L 527.70 762.20 L 526.10 768.30 L 532.70 765.90 L 538.90 763.10 L 544.80 759.70 L 550.30 755.80 L 555.40 751.40 L 560.10 746.60 L 564.30 741.40 L 568.00 735.80 L 571.20 729.90 L 575.00 720.40 L 577.40 710.20 L 552.90 710.00 L 540.60 710.40 L 528.40 711.20 L 520.30 712.20 L 512.30 713.60 L 504.40 715.50 Z" fill="#00949d" fill-rule="nonzero" node-id="51" stroke="none" target-height="665.3" target-width="848.2" target-x="85" target-y="215"></path><path d="M 815.70 344.10 L 831.50 345.10 L 835.90 350.80 L 839.70 356.70 L 842.90 362.80 L 845.70 369.10 L 850.50 382.30 L 859.20 412.80 L 862.50 422.60 L 865.00 429.10 L 867.80 435.30 L 871.10 441.30 L 876.90 449.80 L 880.40 453.80 L 891.90 465.60 L 899.10 474.00 L 905.80 482.60 L 912.20 491.60 L 918.10 500.90 L 923.60 510.50 L 928.60 520.30 L 933.10 530.30 L 937.20 540.60 L 940.80 551.00 L 943.90 561.60 L 946.50 572.30 L 948.60 583.10 L 950.10 594.00 L 951.20 604.90 L 952.00 619.30 L 951.80 622.30 L 951.10 625.10 L 948.70 630.60 L 947.10 633.20 L 935.50 647.60 L 919.30 639.20 L 909.50 651.20 L 906.00 655.00 L 903.50 657.20 L 900.80 659.10 L 895.70 661.20 L 890.50 661.70 L 887.60 661.50 L 880.00 649.90 L 873.10 638.30 L 860.30 637.80 L 856.10 637.20 L 848.40 635.40 L 844.80 634.00 L 841.70 632.30 L 839.10 630.30 L 837.40 628.50 L 836.10 626.40 L 835.00 624.00 L 834.30 621.30 L 834.10 618.60 L 834.20 615.50 L 834.80 611.80 L 835.90 607.60 L 845.80 610.80 L 855.90 613.60 L 862.50 605.90 L 871.90 593.30 L 877.70 587.10 L 883.00 583.30 L 885.90 581.90 L 889.20 580.80 L 892.70 580.20 L 917.70 614.10 L 930.80 630.70 L 932.20 621.00 L 933.00 611.40 L 933.20 601.90 L 932.90 592.30 L 932.00 582.80 L 930.60 573.30 L 928.70 564.00 L 926.30 554.80 L 923.40 545.70 L 920.00 536.80 L 916.10 528.10 L 911.80 519.50 L 907.00 511.20 L 901.90 503.20 L 896.30 495.40 L 890.30 487.90 L 884.00 480.70 L 877.30 473.90 L 870.20 467.50 L 862.80 461.30 L 854.00 455.50 L 817.60 433.70 L 808.90 427.80 L 803.30 423.60 L 792.70 414.20 L 827.80 417.90 L 850.20 427.70 L 834.30 385.10 L 828.60 371.20 L 822.40 357.50 L 815.70 344.10 Z" fill="#2c435d" fill-rule="nonzero" node-id="53" stroke="none" target-height="317.6" target-width="159.29999" target-x="792.7" target-y="344.1"></path><path d="M 745.80 355.70 L 750.10 354.60 L 753.40 354.20 L 755.90 354.50 L 757.80 355.10 L 759.20 356.10 L 760.30 357.50 L 761.00 359.30 L 761.30 361.80 L 761.10 365.10 L 760.30 369.40 L 755.90 370.50 L 752.50 370.80 L 750.00 370.50 L 748.10 369.90 L 746.70 368.90 L 745.60 367.50 L 744.90 365.60 L 744.60 363.20 L 744.90 359.90 L 745.80 355.70 Z" fill="#1b707a" fill-rule="nonzero" node-id="55" stroke="none" target-height="16.599976" target-width="16.700012" target-x="744.6" target-y="354.2"></path><path d="M 460.10 397.30 L 525.40 400.80 L 558.20 401.30 L 555.30 406.20 L 552.10 410.50 L 548.60 414.40 L 544.80 417.80 L 540.70 420.80 L 536.30 423.50 L 531.90 425.60 L 527.20 427.40 L 522.30 428.80 L 517.50 429.70 L 512.50 430.10 L 507.60 430.20 L 502.60 429.80 L 497.70 429.00 L 493.00 427.80 L 488.30 426.10 L 483.80 424.00 L 479.60 421.50 L 475.50 418.60 L 471.70 415.10 L 468.30 411.40 L 465.20 407.20 L 462.50 402.50 L 460.10 397.30 Z" fill="#f44663" fill-rule="nonzero" node-id="57" stroke="none" target-height="32.900024" target-width="98.100006" target-x="460.1" target-y="397.3"></path><path d="M 304.80 535.30 L 314.30 533.80 L 323.80 532.90 L 333.40 532.50 L 343.00 532.70 L 352.60 533.40 L 362.20 534.60 L 371.70 536.40 L 381.10 538.70 L 390.40 541.40 L 399.60 544.70 L 408.50 548.40 L 417.20 552.50 L 425.70 557.20 L 433.90 562.30 L 441.80 567.80 L 449.40 573.70 L 456.60 580.10 L 463.40 586.80 L 469.70 594.00 L 475.60 601.50 L 480.00 607.80 L 484.00 614.30 L 487.70 621.10 L 491.00 628.10 L 494.00 635.30 L 493.90 640.40 L 493.40 645.00 L 492.30 649.20 L 490.90 653.10 L 489.00 656.90 L 486.80 660.40 L 484.20 663.60 L 481.30 666.60 L 477.00 670.10 L 472.20 673.30 L 467.00 676.20 L 455.90 680.70 L 450.00 682.40 L 444.00 683.80 L 432.10 685.80 L 423.30 686.50 L 407.30 686.90 L 399.40 686.50 L 391.60 685.50 L 383.90 684.00 L 376.20 681.90 L 368.70 679.40 L 361.40 676.40 L 354.10 672.90 L 347.10 669.00 L 340.40 664.70 L 333.90 660.00 L 327.70 654.90 L 321.80 649.40 L 316.30 643.70 L 311.20 637.60 L 306.40 631.30 L 302.10 624.70 L 298.30 617.90 L 294.90 610.90 L 292.10 603.60 L 289.70 596.20 L 288.00 588.70 L 286.90 581.10 L 286.40 573.30 L 286.40 567.10 L 286.90 560.80 L 287.90 554.50 L 289.30 548.10 L 291.20 541.60 L 304.80 535.30 Z M 330.70 550.30 L 327.70 552.70 L 325.20 555.30 L 323.20 558.00 L 321.70 560.90 L 320.10 565.00 L 319.20 569.30 L 318.80 573.90 L 319.00 578.50 L 319.60 583.20 L 320.60 587.90 L 322.70 595.00 L 325.40 601.70 L 328.50 608.20 L 331.60 613.90 L 338.10 624.00 L 346.10 633.60 L 355.30 642.20 L 360.30 646.10 L 365.50 649.60 L 370.90 652.60 L 376.50 655.30 L 382.20 657.30 L 388.00 658.90 L 392.40 659.60 L 401.40 660.00 L 405.90 659.60 L 410.30 658.80 L 414.70 657.50 L 419.20 655.80 L 427.20 651.70 L 430.70 649.50 L 434.30 646.90 L 439.30 642.60 L 444.10 637.70 L 449.50 630.60 L 453.70 623.00 L 455.10 619.00 L 456.10 615.10 L 456.60 611.00 L 456.40 607.10 L 455.70 603.10 L 453.40 597.40 L 451.50 594.60 L 449.20 591.70 L 436.50 580.30 L 429.40 574.80 L 422.10 569.60 L 414.60 564.80 L 406.70 560.40 L 398.60 556.40 L 390.40 553.10 L 382.00 550.30 L 375.60 548.70 L 369.20 547.50 L 362.80 546.70 L 356.40 546.40 L 349.90 546.50 L 343.50 547.20 L 337.10 548.50 L 330.70 550.30 Z" fill="#2d4562" fill-rule="nonzero" node-id="59" stroke="none" target-height="154.40002" target-width="207.6" target-x="286.4" target-y="532.5"></path><path d="M 667.80 552.90 L 669.10 549.60 L 670.60 547.00 L 672.50 545.10 L 674.80 543.50 L 677.30 542.40 L 680.10 541.60 L 684.50 541.00 L 694.00 541.30 L 707.40 542.70 L 711.40 543.40 L 714.90 544.50 L 718.00 546.00 L 720.80 547.70 L 724.20 550.50 L 727.20 553.80 L 729.70 557.50 L 731.70 561.50 L 733.40 565.90 L 734.70 570.50 L 736.20 580.20 L 736.50 585.20 L 736.30 592.70 L 735.60 600.00 L 734.30 607.10 L 731.00 620.40 L 728.90 627.20 L 726.30 633.80 L 723.20 640.20 L 719.60 646.30 L 715.70 652.10 L 711.40 657.70 L 706.70 663.00 L 701.70 667.90 L 696.40 672.50 L 690.70 676.70 L 684.80 680.60 L 678.70 684.10 L 672.30 687.20 L 665.80 689.80 L 659.00 692.10 L 652.20 693.80 L 645.20 695.10 L 638.10 695.90 L 624.00 696.40 L 616.80 696.10 L 609.40 695.20 L 602.20 693.90 L 595.00 692.00 L 587.90 689.70 L 581.00 686.80 L 574.60 683.40 L 568.50 679.50 L 564.20 676.20 L 560.20 672.60 L 556.60 668.70 L 553.30 664.50 L 550.50 660.00 L 548.10 655.20 L 546.20 650.00 L 544.70 644.50 L 553.20 629.40 L 558.00 621.60 L 568.60 606.50 L 574.40 599.20 L 580.50 592.10 L 587.00 585.40 L 593.70 579.10 L 599.00 574.60 L 604.40 570.50 L 615.70 563.30 L 621.60 560.30 L 627.70 557.70 L 633.90 555.50 L 640.20 553.90 L 646.70 552.70 L 653.30 552.10 L 660.10 552.10 L 667.20 552.70 L 645.60 562.10 L 634.90 567.10 L 624.40 572.50 L 611.10 580.60 L 604.80 585.20 L 598.80 590.10 L 593.10 595.50 L 587.80 601.40 L 585.50 604.40 L 583.70 607.40 L 582.40 610.40 L 581.60 613.50 L 581.20 616.60 L 581.50 623.10 L 582.20 626.40 L 583.60 630.70 L 585.50 634.90 L 587.80 639.10 L 593.50 646.70 L 600.10 653.50 L 607.00 658.70 L 612.50 661.40 L 618.10 663.50 L 623.70 664.90 L 629.30 665.80 L 635.10 666.20 L 640.80 666.10 L 646.50 665.60 L 652.20 664.50 L 657.80 663.00 L 663.20 661.00 L 668.60 658.70 L 673.90 656.00 L 683.80 649.50 L 692.80 641.80 L 700.80 632.90 L 707.40 623.20 L 710.20 618.00 L 712.50 612.70 L 714.50 607.20 L 716.00 601.60 L 717.00 596.00 L 717.50 590.20 L 717.50 584.40 L 717.00 578.50 L 715.20 571.80 L 712.30 566.60 L 709.80 563.60 L 706.90 561.00 L 703.70 558.80 L 696.40 555.60 L 692.40 554.40 L 686.20 553.30 L 680.00 552.70 L 667.80 552.90 Z" fill="#2c4264" fill-rule="nonzero" node-id="61" stroke="none" target-height="155.40002" target-width="191.79999" target-x="544.7" target-y="541"></path><path d="M 330.70 550.30 L 337.10 548.50 L 343.50 547.30 L 349.90 546.60 L 356.40 546.40 L 362.80 546.70 L 369.20 547.50 L 375.60 548.70 L 382.00 550.30 L 390.40 553.10 L 398.60 556.40 L 406.70 560.40 L 414.60 564.80 L 422.10 569.60 L 429.40 574.80 L 443.00 585.90 L 449.20 591.70 L 451.50 594.60 L 454.70 600.20 L 455.70 603.10 L 456.40 607.10 L 456.60 611.00 L 456.10 615.10 L 455.10 619.00 L 453.70 623.00 L 449.50 630.60 L 444.10 637.70 L 439.30 642.60 L 434.30 646.90 L 427.20 651.70 L 419.20 655.80 L 414.70 657.50 L 410.30 658.80 L 405.90 659.60 L 401.40 660.00 L 392.40 659.60 L 388.00 658.90 L 382.20 657.30 L 376.50 655.30 L 370.90 652.60 L 365.50 649.60 L 360.30 646.10 L 355.30 642.20 L 350.50 638.00 L 342.00 628.90 L 338.10 624.00 L 331.60 613.90 L 328.50 608.20 L 325.40 601.70 L 322.70 595.00 L 320.60 587.90 L 319.60 583.20 L 319.00 578.50 L 318.80 573.90 L 319.20 569.30 L 320.10 565.00 L 321.70 560.90 L 323.20 558.00 L 325.20 555.30 L 327.70 552.70 L 330.70 550.30 Z M 366.70 587.70 L 365.00 590.00 L 363.00 594.80 L 362.50 597.30 L 362.40 600.70 L 362.90 604.00 L 364.00 607.40 L 365.50 610.50 L 367.40 613.50 L 369.70 616.20 L 372.30 618.60 L 375.10 620.60 L 378.20 622.30 L 381.50 623.40 L 384.80 623.90 L 388.10 623.90 L 390.60 623.50 L 393.10 622.60 L 395.60 621.30 L 401.10 617.70 L 403.50 615.70 L 405.40 613.50 L 406.80 610.90 L 407.90 608.30 L 408.60 605.40 L 409.00 601.00 L 408.90 596.30 L 408.40 591.60 L 406.10 578.00 L 400.80 576.90 L 391.50 575.70 L 384.20 576.00 L 380.70 576.70 L 377.40 577.80 L 374.30 579.40 L 372.20 580.90 L 368.40 585.00 L 366.70 587.70 Z" fill="#fdf9a7" fill-rule="nonzero" node-id="63" stroke="none" target-height="113.599976" target-width="137.80002" target-x="318.8" target-y="546.4"></path><path d="M 667.20 552.70 L 680.00 552.70 L 686.20 553.30 L 692.40 554.40 L 696.40 555.60 L 703.70 558.80 L 706.90 561.00 L 709.80 563.60 L 712.30 566.60 L 713.90 569.10 L 716.20 575.00 L 717.00 578.50 L 717.50 584.40 L 717.50 590.20 L 717.00 596.00 L 716.00 601.60 L 714.50 607.20 L 712.50 612.70 L 710.20 618.00 L 707.40 623.20 L 704.20 628.20 L 697.00 637.40 L 688.40 645.80 L 678.90 652.90 L 668.60 658.70 L 663.20 661.00 L 657.80 663.00 L 652.20 664.50 L 646.50 665.60 L 640.80 666.10 L 635.10 666.20 L 629.30 665.80 L 623.70 664.90 L 618.10 663.50 L 612.50 661.40 L 607.00 658.70 L 600.10 653.50 L 593.50 646.70 L 590.50 643.00 L 587.80 639.10 L 585.50 634.90 L 583.60 630.70 L 582.20 626.40 L 581.20 619.90 L 581.60 613.50 L 582.40 610.40 L 583.70 607.40 L 585.50 604.40 L 593.10 595.50 L 598.80 590.10 L 604.80 585.20 L 611.10 580.60 L 617.60 576.40 L 624.40 572.50 L 634.90 567.10 L 645.60 562.10 L 667.20 552.70 Z M 644.90 584.70 L 642.00 586.60 L 639.70 588.60 L 637.90 590.70 L 636.50 592.90 L 635.20 596.20 L 634.50 599.50 L 634.50 602.90 L 635.00 606.40 L 636.00 609.80 L 637.40 613.10 L 639.30 616.30 L 641.60 619.10 L 644.10 621.70 L 647.00 623.90 L 650.10 625.70 L 653.30 627.00 L 655.80 627.60 L 661.00 627.70 L 666.10 626.40 L 668.70 625.10 L 671.20 623.20 L 676.80 617.90 L 679.00 615.00 L 680.50 612.00 L 681.60 608.70 L 682.00 605.50 L 682.00 602.20 L 681.50 599.00 L 680.50 595.90 L 679.10 592.90 L 677.40 590.00 L 673.00 585.10 L 670.40 583.10 L 667.60 581.50 L 664.60 580.30 L 661.50 579.60 L 658.30 579.40 L 654.90 579.70 L 651.60 580.70 L 648.30 582.30 L 644.90 584.70 Z" fill="#fdfea4" fill-rule="nonzero" node-id="65" stroke="none" target-height="113.5" target-width="136.29999" target-x="581.2" target-y="552.7"></path><path d="M 366.70 587.70 L 368.40 585.00 L 372.20 580.90 L 374.30 579.40 L 377.40 577.80 L 380.70 576.70 L 384.20 576.00 L 391.50 575.70 L 400.80 576.90 L 406.10 578.00 L 408.40 591.60 L 409.00 601.00 L 408.60 605.40 L 407.90 608.30 L 406.80 610.90 L 405.40 613.40 L 403.50 615.70 L 401.10 617.70 L 395.60 621.30 L 393.10 622.60 L 390.60 623.50 L 388.10 623.90 L 384.80 623.90 L 381.50 623.40 L 378.20 622.30 L 375.10 620.60 L 372.30 618.60 L 369.70 616.20 L 367.40 613.50 L 365.50 610.50 L 364.00 607.40 L 362.90 604.00 L 362.40 600.70 L 362.50 597.30 L 363.00 594.80 L 365.00 590.00 L 366.70 587.70 Z" fill="#2d4e69" fill-rule="nonzero" node-id="67" stroke="none" target-height="48.200012" target-width="46.600006" target-x="362.4" target-y="575.7"></path><path d="M 644.90 584.70 L 648.30 582.30 L 651.60 580.70 L 654.90 579.70 L 658.20 579.40 L 661.50 579.60 L 664.60 580.30 L 667.60 581.50 L 670.40 583.10 L 673.00 585.10 L 675.40 587.50 L 677.40 590.00 L 679.10 592.90 L 680.50 595.90 L 681.50 599.00 L 682.00 602.20 L 682.00 605.50 L 681.60 608.70 L 680.50 612.00 L 679.00 615.00 L 676.80 617.90 L 671.20 623.20 L 668.70 625.10 L 666.10 626.40 L 661.00 627.70 L 655.80 627.60 L 653.30 627.00 L 650.10 625.70 L 647.00 623.90 L 644.10 621.70 L 641.60 619.10 L 639.30 616.30 L 637.40 613.10 L 636.00 609.80 L 635.00 606.40 L 634.50 602.90 L 634.50 599.50 L 635.20 596.20 L 636.50 592.90 L 637.90 590.70 L 639.70 588.60 L 642.00 586.60 L 644.90 584.70 Z" fill="#2d435b" fill-rule="nonzero" node-id="69" stroke="none" target-height="48.299988" target-width="47.5" target-x="634.5" target-y="579.4"></path><path d="M 718.40 674.50 L 723.10 673.20 L 726.80 672.70 L 729.50 672.80 L 731.60 673.30 L 733.20 674.10 L 734.40 675.30 L 735.20 676.90 L 735.70 679.00 L 735.70 681.70 L 735.10 685.40 L 733.80 690.00 L 728.90 691.20 L 725.20 691.70 L 722.40 691.60 L 720.30 691.10 L 718.70 690.20 L 717.60 689.00 L 716.80 687.40 L 716.30 685.40 L 716.40 682.60 L 717.00 679.10 L 718.40 674.50 Z" fill="#58b9b4" fill-rule="nonzero" node-id="71" stroke="none" target-height="19" target-width="19.400024" target-x="716.3" target-y="672.7"></path><path d="M 443.20 692.20 L 449.50 693.00 L 455.60 694.30 L 461.60 696.00 L 467.40 698.20 L 478.70 703.70 L 489.30 710.70 L 491.20 717.80 L 493.60 724.60 L 496.50 731.30 L 499.70 737.70 L 507.10 750.30 L 519.10 768.60 L 513.50 767.50 L 508.20 766.00 L 503.00 764.10 L 498.00 761.70 L 488.50 756.00 L 484.00 752.60 L 479.70 749.00 L 474.30 743.70 L 469.20 738.00 L 464.40 732.00 L 455.90 719.20 L 448.80 705.70 L 443.20 692.20 Z" fill="#1f4e6b" fill-rule="nonzero" node-id="73" stroke="none" target-height="76.39996" target-width="75.89996" target-x="443.2" target-y="692.2"></path><path d="M 504.40 715.50 L 512.30 713.60 L 520.30 712.20 L 528.40 711.20 L 540.60 710.40 L 552.90 710.00 L 577.40 710.20 L 576.40 715.40 L 573.20 725.20 L 571.20 729.90 L 568.00 735.80 L 564.30 741.40 L 560.10 746.60 L 555.40 751.40 L 550.30 755.80 L 544.80 759.70 L 538.90 763.10 L 532.70 765.90 L 526.10 768.30 L 527.70 762.20 L 529.70 756.50 L 534.90 745.50 L 541.30 735.20 L 546.80 727.80 L 552.50 720.70 L 517.70 744.10 L 515.60 741.60 L 504.70 731.00 L 502.70 728.30 L 501.70 726.30 L 501.20 724.30 L 501.10 722.30 L 501.50 720.30 L 502.50 718.00 L 504.40 715.50 Z" fill="#1f4f65" fill-rule="nonzero" node-id="75" stroke="none" target-height="58.299988" target-width="76.30002" target-x="501.1" target-y="710"></path></svg>