<?xml version="1.0" standalone="no"?><!DOCTYPE svg PUBLIC "-//W3C//DTD SVG 1.1//EN" "http://www.w3.org/Graphics/SVG/1.1/DTD/svg11.dtd"><svg height="1024" node-id="1" sillyvg="true" template-height="1024" template-width="1024" version="1.1" viewBox="0 0 1024 1024" width="1024" xmlns="http://www.w3.org/2000/svg" xmlns:xlink="http://www.w3.org/1999/xlink"><defs node-id="28"></defs><path d="M 0.00 0.00 L 1024.00 0.00 L 1024.00 1024.00 L 0.00 1024.00 Z" fill="#ffffff" fill-rule="nonzero" node-id="30" stroke="none" target-height="1024" target-width="1024" target-x="0" target-y="0"></path><path d="M 395.50 358.80 L 400.20 357.00 L 404.90 355.70 L 409.40 354.90 L 414.00 354.60 L 418.70 354.70 L 423.20 355.30 L 427.60 356.20 L 436.20 359.40 L 444.10 363.80 L 447.80 366.60 L 454.40 372.90 L 459.90 380.20 L 462.20 384.20 L 464.10 388.30 L 465.60 392.60 L 466.80 397.10 L 467.50 401.70 L 467.80 406.40 L 466.70 420.90 L 466.00 425.50 L 464.80 429.80 L 463.30 434.00 L 461.30 438.00 L 459.00 441.80 L 456.40 445.30 L 450.20 451.60 L 443.00 456.90 L 439.10 459.00 L 433.70 461.40 L 428.00 463.20 L 422.20 464.40 L 417.70 464.90 L 408.90 464.70 L 404.40 464.00 L 400.10 462.90 L 395.90 461.30 L 391.70 459.30 L 383.10 453.90 L 379.10 450.80 L 375.60 447.30 L 372.50 443.40 L 369.80 439.30 L 367.60 434.90 L 365.80 430.40 L 364.40 425.60 L 363.40 420.70 L 362.90 415.80 L 362.70 410.80 L 362.90 405.80 L 363.60 400.80 L 364.60 395.90 L 366.10 391.10 L 367.90 386.40 L 370.10 381.90 L 372.60 377.70 L 375.50 373.70 L 378.80 369.90 L 382.50 366.60 L 386.40 363.60 L 390.80 361.00 L 395.50 358.80 Z M 426.60 381.00 L 426.60 402.80 L 425.10 404.30 L 423.50 405.20 L 421.80 405.70 L 419.10 405.60 L 416.20 404.90 L 405.10 400.70 L 403.50 400.50 L 402.20 400.70 L 401.10 401.20 L 400.20 402.10 L 399.50 403.70 L 398.90 406.20 L 396.30 412.30 L 395.70 415.30 L 395.50 418.40 L 395.70 422.50 L 396.50 426.50 L 397.90 430.40 L 399.80 434.10 L 402.20 437.40 L 405.00 440.50 L 408.20 443.10 L 411.70 445.20 L 415.50 446.90 L 421.50 448.20 L 428.10 447.90 L 434.70 446.40 L 440.60 443.50 L 444.10 440.90 L 447.30 437.90 L 450.00 434.50 L 452.40 430.70 L 454.30 426.70 L 455.80 422.50 L 456.70 418.10 L 457.20 413.80 L 457.10 409.40 L 456.40 405.00 L 455.10 400.80 L 453.30 396.80 L 451.20 393.80 L 448.70 391.20 L 446.00 389.20 L 441.50 386.60 L 436.60 384.50 L 426.60 381.00 Z" fill="#fefefd" fill-rule="nonzero" node-id="32" stroke="none" target-height="110.29999" target-width="105.099976" target-x="362.7" target-y="354.6"></path><path d="M 373.70 104.20 L 377.30 103.70 L 384.30 103.80 L 387.60 104.40 L 392.00 105.70 L 396.20 107.40 L 400.20 109.70 L 403.90 112.50 L 407.20 115.60 L 410.30 119.10 L 413.00 122.90 L 415.30 126.90 L 417.10 131.20 L 418.50 135.60 L 419.30 140.10 L 420.10 154.00 L 420.20 172.60 L 419.60 181.90 L 418.80 188.00 L 416.00 199.90 L 414.00 205.70 L 411.50 211.30 L 405.80 221.80 L 402.80 226.60 L 395.80 235.80 L 391.90 240.00 L 387.70 243.90 L 383.20 247.50 L 378.50 250.70 L 373.60 253.40 L 368.50 255.60 L 363.20 257.20 L 357.70 258.30 L 353.50 258.70 L 349.30 258.60 L 344.90 258.20 L 336.10 256.60 L 332.00 255.50 L 324.30 252.30 L 319.60 249.50 L 315.20 246.30 L 311.10 242.50 L 307.50 238.40 L 304.30 233.90 L 301.60 229.10 L 299.30 224.10 L 297.60 218.90 L 296.40 213.40 L 295.70 207.90 L 295.70 202.30 L 296.30 196.70 L 297.70 188.50 L 299.70 180.20 L 302.30 171.90 L 305.50 163.80 L 309.20 156.00 L 313.40 148.30 L 320.70 137.50 L 329.20 127.80 L 333.80 123.40 L 338.70 119.40 L 343.90 115.70 L 349.40 112.50 L 355.00 109.70 L 361.00 107.30 L 367.20 105.50 L 373.70 104.20 Z M 358.90 114.70 L 353.00 118.10 L 347.50 121.90 L 342.20 126.10 L 337.10 130.70 L 332.40 135.60 L 328.00 140.70 L 323.90 146.20 L 320.20 151.90 L 316.80 157.90 L 313.80 164.00 L 311.10 170.30 L 308.90 176.80 L 307.00 183.30 L 305.60 190.00 L 304.70 196.60 L 304.10 203.30 L 304.20 207.70 L 304.60 212.00 L 305.40 216.10 L 306.70 220.10 L 308.90 225.30 L 311.70 230.10 L 315.00 234.70 L 318.90 238.90 L 323.10 242.60 L 327.70 246.00 L 332.60 248.80 L 337.70 251.10 L 343.00 252.80 L 351.20 254.30 L 359.50 254.20 L 363.70 253.60 L 367.70 252.50 L 371.70 251.00 L 375.70 249.00 L 381.40 245.00 L 386.70 240.70 L 391.50 236.00 L 396.00 230.90 L 400.20 225.50 L 403.90 219.80 L 407.20 213.90 L 410.10 207.70 L 412.60 201.40 L 414.70 194.90 L 416.40 188.30 L 417.70 181.50 L 418.50 174.70 L 418.90 167.90 L 418.90 161.10 L 418.40 154.30 L 417.50 147.50 L 416.10 140.90 L 414.30 134.40 L 412.00 128.00 L 410.00 124.50 L 407.70 121.40 L 405.10 118.60 L 402.30 116.30 L 399.10 114.30 L 392.30 111.40 L 388.60 110.50 L 383.60 109.70 L 378.50 109.60 L 373.40 110.00 L 368.30 111.10 L 363.50 112.60 L 358.90 114.70 Z" fill="#3d3a4f" fill-rule="nonzero" node-id="34" stroke="none" target-height="155.00002" target-width="124.5" target-x="295.7" target-y="103.7"></path><path d="M 592.80 104.20 L 598.20 101.90 L 603.40 100.30 L 608.60 99.30 L 613.60 98.80 L 618.80 98.90 L 623.80 99.40 L 628.70 100.40 L 633.60 101.90 L 638.30 103.80 L 647.40 108.70 L 651.70 111.70 L 657.20 116.10 L 662.40 121.00 L 667.20 126.40 L 671.60 132.10 L 675.60 138.00 L 679.10 144.20 L 682.10 150.60 L 684.60 157.00 L 688.10 168.50 L 689.20 173.70 L 689.80 179.10 L 690.00 184.40 L 689.60 189.80 L 688.80 195.10 L 687.50 200.30 L 685.80 205.30 L 683.60 210.10 L 680.90 214.70 L 677.80 218.90 L 674.30 222.80 L 668.10 227.80 L 664.70 229.90 L 660.90 231.80 L 655.30 232.90 L 649.60 233.70 L 643.90 234.00 L 638.20 233.90 L 632.50 233.30 L 621.30 231.20 L 615.80 229.50 L 608.70 226.80 L 601.80 223.50 L 595.10 219.60 L 588.80 215.20 L 583.00 210.30 L 577.50 205.00 L 573.70 200.60 L 567.20 191.40 L 564.40 186.40 L 562.00 181.20 L 560.00 175.90 L 558.40 170.40 L 557.20 164.70 L 557.50 158.60 L 558.40 152.60 L 559.80 146.60 L 561.70 140.80 L 564.10 135.10 L 566.90 129.60 L 570.20 124.40 L 573.90 119.50 L 578.10 115.00 L 582.60 110.90 L 587.50 107.30 L 592.80 104.20 Z M 597.40 107.80 L 592.80 110.80 L 588.40 114.20 L 584.40 118.00 L 580.70 122.20 L 577.40 126.70 L 574.40 131.50 L 571.90 136.40 L 569.80 141.60 L 568.10 146.90 L 566.80 152.40 L 566.10 157.80 L 565.80 163.30 L 567.20 169.20 L 569.10 174.90 L 571.40 180.50 L 574.10 185.80 L 577.20 191.00 L 580.70 195.90 L 584.50 200.50 L 588.70 204.90 L 593.20 209.10 L 597.90 212.80 L 602.80 216.30 L 608.00 219.40 L 613.50 222.20 L 619.00 224.60 L 624.70 226.60 L 630.50 228.20 L 636.40 229.40 L 642.40 230.10 L 648.40 230.30 L 654.40 230.00 L 658.40 228.90 L 662.00 227.50 L 665.50 225.70 L 668.70 223.60 L 672.60 220.30 L 676.10 216.50 L 679.20 212.30 L 681.90 207.80 L 684.00 203.10 L 685.70 198.10 L 686.90 192.90 L 687.60 187.70 L 687.70 182.40 L 687.30 177.20 L 686.30 172.10 L 683.10 161.00 L 680.90 154.80 L 678.20 148.60 L 675.10 142.50 L 671.50 136.70 L 667.40 131.00 L 663.00 125.70 L 658.20 120.80 L 653.20 116.30 L 649.10 113.30 L 640.60 108.30 L 636.20 106.30 L 631.60 104.70 L 627.00 103.60 L 622.20 103.00 L 617.40 102.80 L 612.60 103.20 L 607.60 104.10 L 602.60 105.60 L 597.40 107.80 Z" fill="#3d3a4f" fill-rule="nonzero" node-id="36" stroke="none" target-height="135.2" target-width="132.79999" target-x="557.2" target-y="98.8"></path><path d="M 516.90 363.50 L 512.40 363.20 L 508.70 361.50 L 506.60 359.80 L 504.80 357.60 L 503.30 355.00 L 501.40 349.20 L 501.00 342.90 L 502.10 336.80 L 503.20 334.00 L 504.80 331.50 L 506.80 329.30 L 508.50 328.00 L 512.80 326.30 L 515.40 325.90 L 518.80 340.00 L 520.10 347.90 L 520.00 354.20 L 519.40 357.30 L 518.40 360.40 L 516.90 363.50 Z" fill="#37384d" fill-rule="nonzero" node-id="38" stroke="none" target-height="37.600006" target-width="19.099976" target-x="501" target-y="325.9"></path><path d="M 404.70 348.50 L 410.10 347.90 L 415.50 347.70 L 421.10 348.00 L 426.60 348.70 L 432.00 349.90 L 437.40 351.40 L 442.50 353.40 L 447.50 355.90 L 452.10 358.70 L 456.50 362.00 L 460.50 365.60 L 464.10 369.70 L 466.50 373.00 L 470.30 380.30 L 471.80 384.40 L 473.40 390.60 L 474.60 397.00 L 475.30 403.60 L 475.50 410.20 L 475.20 416.80 L 474.30 423.30 L 473.30 428.20 L 471.90 432.90 L 468.20 441.80 L 465.80 446.10 L 463.00 450.10 L 459.90 453.80 L 452.70 460.50 L 448.90 463.20 L 444.90 465.60 L 440.60 467.60 L 434.80 469.80 L 428.70 471.40 L 422.50 472.30 L 416.20 472.70 L 409.90 472.40 L 403.60 471.60 L 397.50 470.20 L 391.50 468.30 L 385.80 465.80 L 381.70 463.50 L 374.10 458.10 L 370.70 455.00 L 367.60 451.50 L 364.80 447.80 L 362.30 443.80 L 358.20 434.90 L 355.50 425.50 L 354.70 420.70 L 354.20 414.20 L 354.30 407.70 L 355.00 401.30 L 356.30 394.90 L 358.20 388.70 L 360.60 382.70 L 363.60 376.90 L 367.10 371.60 L 371.00 366.60 L 374.40 363.20 L 377.90 360.00 L 381.80 357.20 L 385.90 354.70 L 390.20 352.50 L 394.70 350.80 L 399.50 349.50 L 404.70 348.50 Z M 395.50 358.80 L 390.80 361.00 L 386.40 363.60 L 382.50 366.60 L 378.80 369.90 L 375.50 373.70 L 372.60 377.70 L 370.10 381.90 L 367.90 386.40 L 366.10 391.10 L 364.60 395.90 L 363.60 400.80 L 362.90 405.80 L 362.70 410.80 L 362.80 415.80 L 363.40 420.70 L 364.40 425.60 L 365.80 430.40 L 367.60 434.90 L 369.80 439.30 L 372.50 443.40 L 375.60 447.30 L 379.10 450.80 L 383.10 453.90 L 391.70 459.30 L 395.90 461.30 L 400.10 462.90 L 404.40 464.00 L 413.30 465.00 L 422.20 464.40 L 428.00 463.20 L 433.70 461.40 L 439.10 459.00 L 443.00 456.90 L 450.20 451.60 L 456.40 445.30 L 459.00 441.80 L 461.30 438.00 L 463.30 434.00 L 464.80 429.80 L 466.00 425.50 L 466.70 420.90 L 467.80 406.40 L 467.50 401.70 L 466.80 397.10 L 465.60 392.60 L 464.10 388.30 L 462.20 384.20 L 459.90 380.20 L 454.40 372.90 L 447.80 366.60 L 444.10 363.80 L 436.20 359.40 L 427.60 356.20 L 423.20 355.30 L 418.70 354.70 L 414.00 354.60 L 409.40 354.90 L 404.90 355.70 L 400.20 357.00 L 395.50 358.80 Z" fill="#37384d" fill-rule="nonzero" node-id="40" stroke="none" target-height="125" target-width="121.29999" target-x="354.2" target-y="347.7"></path><path d="M 572.60 354.60 L 577.10 353.10 L 581.70 352.00 L 586.20 351.30 L 595.50 351.10 L 604.50 352.30 L 609.00 353.50 L 614.80 355.60 L 620.40 358.20 L 625.60 361.40 L 630.60 365.10 L 635.10 369.20 L 639.20 373.80 L 641.90 377.60 L 646.30 385.70 L 650.20 395.90 L 651.80 402.00 L 652.90 408.50 L 653.40 415.00 L 653.30 421.50 L 652.70 428.00 L 650.60 437.50 L 647.10 446.40 L 644.90 450.60 L 642.30 454.50 L 639.30 458.10 L 636.10 461.40 L 632.50 464.40 L 628.50 466.90 L 624.10 469.10 L 619.30 470.90 L 610.70 472.10 L 601.80 472.80 L 595.80 472.80 L 583.90 471.90 L 577.90 471.00 L 572.20 469.60 L 566.60 467.80 L 561.20 465.50 L 556.00 462.80 L 551.20 459.60 L 544.60 453.90 L 541.70 450.50 L 538.90 446.90 L 536.40 441.80 L 534.50 436.70 L 533.00 431.40 L 532.10 426.00 L 531.60 420.50 L 531.50 415.00 L 532.00 409.60 L 532.80 404.10 L 534.10 398.70 L 535.80 393.50 L 537.90 388.40 L 540.40 383.40 L 543.30 378.70 L 546.50 374.20 L 550.10 370.10 L 554.00 366.20 L 558.20 362.60 L 562.70 359.50 L 567.50 356.90 L 572.60 354.60 Z M 579.00 360.60 L 574.70 362.40 L 570.70 364.60 L 566.80 367.00 L 563.20 369.80 L 558.70 374.00 L 554.70 378.60 L 551.10 383.70 L 548.00 389.10 L 545.40 394.70 L 543.40 400.50 L 541.90 406.50 L 541.10 412.60 L 540.80 418.70 L 541.00 423.20 L 542.60 432.10 L 544.00 436.40 L 545.70 440.60 L 547.90 444.60 L 550.50 448.50 L 553.50 452.20 L 557.00 455.70 L 560.80 458.80 L 564.80 461.50 L 569.10 463.80 L 573.60 465.70 L 578.20 467.20 L 583.00 468.30 L 587.90 469.00 L 592.80 469.30 L 602.60 468.80 L 612.20 466.70 L 616.80 465.20 L 621.10 463.20 L 625.30 460.90 L 629.20 458.20 L 632.80 455.20 L 636.00 451.80 L 639.00 448.00 L 641.40 443.90 L 643.40 439.50 L 644.90 434.70 L 647.10 424.50 L 647.80 419.70 L 647.90 414.80 L 647.70 409.90 L 645.80 400.30 L 644.40 395.70 L 642.50 391.20 L 640.20 386.80 L 634.90 378.70 L 628.30 371.60 L 624.70 368.50 L 620.80 365.70 L 616.70 363.30 L 612.40 361.30 L 608.00 359.70 L 603.50 358.60 L 598.70 357.90 L 594.00 357.70 L 589.10 358.10 L 584.20 359.00 L 579.00 360.60 Z" fill="#37384d" fill-rule="nonzero" node-id="42" stroke="none" target-height="121.69998" target-width="121.900024" target-x="531.5" target-y="351.1"></path><path d="M 471.80 464.60 L 472.90 459.70 L 474.90 456.20 L 476.80 454.50 L 478.90 453.20 L 481.30 452.50 L 483.80 452.20 L 486.20 452.40 L 488.80 453.00 L 491.20 454.10 L 493.40 455.60 L 495.40 457.50 L 497.00 459.70 L 498.20 462.30 L 499.00 465.40 L 471.80 464.60 Z" fill="#37384d" fill-rule="nonzero" node-id="44" stroke="none" target-height="13.199982" target-width="27.200012" target-x="471.8" target-y="452.2"></path><path d="M 571.80 609.90 L 573.10 605.20 L 574.70 600.80 L 576.80 596.90 L 579.30 593.30 L 582.20 589.90 L 585.40 586.90 L 588.80 584.30 L 592.50 581.90 L 596.50 580.00 L 604.80 577.10 L 609.20 576.20 L 618.00 575.60 L 626.80 576.50 L 631.10 577.50 L 635.30 578.90 L 639.20 580.80 L 643.10 583.00 L 646.60 585.60 L 649.90 588.70 L 652.80 592.20 L 655.50 596.20 L 658.70 602.70 L 661.40 609.30 L 663.70 616.10 L 665.50 623.10 L 666.80 630.20 L 667.70 637.30 L 668.20 644.50 L 668.20 651.80 L 667.80 659.10 L 666.90 666.30 L 665.70 673.40 L 664.00 680.50 L 661.90 687.50 L 659.40 694.30 L 656.60 700.80 L 653.30 707.20 L 649.60 712.90 L 645.30 718.70 L 642.20 722.30 L 635.20 728.70 L 631.40 731.30 L 627.30 733.40 L 623.10 735.00 L 619.80 735.80 L 616.40 736.10 L 612.80 736.00 L 609.00 735.50 L 612.80 714.60 L 614.40 700.50 L 614.60 693.50 L 614.30 688.90 L 612.80 679.50 L 607.10 696.10 L 602.30 707.50 L 599.50 712.70 L 594.90 718.90 L 592.40 721.40 L 589.50 723.70 L 586.30 725.50 L 582.80 726.80 L 579.10 727.60 L 575.00 727.90 L 570.20 727.50 L 572.10 711.90 L 572.70 692.30 L 570.90 645.10 L 570.70 633.40 L 570.90 621.60 L 571.80 609.90 Z M 582.20 610.20 L 581.30 619.10 L 580.50 636.90 L 580.70 650.20 L 582.80 690.50 L 583.30 703.90 L 583.10 717.30 L 586.40 714.20 L 589.30 710.90 L 591.70 707.50 L 595.80 699.90 L 599.50 689.70 L 604.90 670.50 L 606.90 664.30 L 609.30 658.30 L 614.50 662.10 L 618.20 666.50 L 620.00 669.80 L 621.40 673.40 L 622.40 677.30 L 623.20 685.40 L 623.20 689.80 L 621.10 716.10 L 620.80 722.30 L 621.10 728.00 L 625.90 724.60 L 630.30 720.80 L 634.40 716.80 L 638.20 712.50 L 641.60 708.00 L 647.60 698.20 L 650.10 693.00 L 652.90 685.80 L 655.20 678.50 L 656.90 670.80 L 658.00 663.10 L 658.60 655.40 L 658.70 647.50 L 658.20 639.70 L 657.20 632.00 L 655.60 624.50 L 653.50 617.10 L 650.90 610.00 L 647.80 603.20 L 645.90 599.90 L 643.70 596.90 L 641.30 594.30 L 638.70 592.00 L 634.90 589.50 L 630.80 587.50 L 626.40 586.10 L 621.90 585.30 L 617.40 585.00 L 612.80 585.20 L 608.20 586.00 L 603.90 587.30 L 599.60 589.10 L 595.70 591.40 L 592.10 594.20 L 588.80 597.50 L 586.70 600.20 L 584.90 603.30 L 583.40 606.60 L 582.20 610.20 Z" fill="#37384d" fill-rule="nonzero" node-id="46" stroke="none" target-height="160.5" target-width="98" target-x="570.2" target-y="575.6"></path><path d="M 347.30 631.80 L 348.20 627.00 L 349.70 622.50 L 351.60 618.30 L 353.90 614.20 L 356.60 610.50 L 359.70 606.90 L 363.00 603.70 L 366.80 600.70 L 374.80 595.70 L 379.10 593.70 L 388.10 590.70 L 392.70 589.70 L 402.00 588.80 L 406.20 589.50 L 410.20 590.60 L 413.90 592.10 L 420.70 596.30 L 426.70 601.80 L 431.90 608.20 L 435.20 613.50 L 438.00 618.90 L 441.10 625.20 L 443.70 631.50 L 446.00 638.00 L 448.80 647.90 L 455.40 678.30 L 458.00 688.30 L 461.00 698.10 L 463.50 704.50 L 466.50 710.70 L 470.00 716.80 L 470.60 718.60 L 470.70 720.00 L 470.40 721.10 L 468.90 723.00 L 465.40 724.50 L 460.30 725.10 L 455.40 724.60 L 449.40 722.40 L 441.10 718.30 L 435.10 714.70 L 417.80 703.10 L 432.30 736.50 L 435.60 745.00 L 438.40 753.70 L 433.20 753.20 L 428.20 752.20 L 423.40 750.80 L 418.80 749.00 L 412.90 746.10 L 407.30 742.60 L 401.90 738.50 L 392.00 729.40 L 380.70 716.70 L 374.60 708.90 L 368.60 700.50 L 359.30 685.40 L 353.10 672.80 L 350.60 666.20 L 348.60 659.60 L 347.20 652.80 L 346.60 647.70 L 346.40 642.50 L 346.60 637.20 L 347.30 631.80 Z M 356.20 649.30 L 358.00 656.60 L 360.20 663.80 L 362.90 670.80 L 366.00 677.70 L 369.50 684.40 L 377.40 697.30 L 381.90 703.40 L 388.40 711.30 L 395.20 718.70 L 402.60 725.70 L 410.30 732.30 L 418.30 738.30 L 426.60 743.80 L 417.00 720.50 L 412.30 707.40 L 409.90 696.70 L 409.40 691.30 L 409.50 685.70 L 410.10 680.00 L 415.60 684.80 L 431.40 700.30 L 436.90 705.10 L 442.80 709.60 L 446.80 712.30 L 455.80 716.60 L 452.80 707.00 L 450.30 697.00 L 442.00 656.40 L 439.40 646.40 L 436.40 636.80 L 433.90 630.50 L 431.10 624.40 L 427.80 618.60 L 424.20 613.00 L 419.90 607.60 L 415.00 602.50 L 411.40 600.50 L 407.80 599.10 L 404.20 598.10 L 400.50 597.70 L 393.00 598.00 L 385.60 599.90 L 380.90 602.00 L 376.40 604.50 L 372.20 607.70 L 368.20 611.30 L 364.70 615.20 L 361.70 619.50 L 359.10 624.10 L 357.10 628.90 L 355.80 633.90 L 355.20 637.70 L 355.10 641.50 L 355.40 645.40 L 356.20 649.30 Z" fill="#37384d" fill-rule="nonzero" node-id="48" stroke="none" target-height="164.90002" target-width="124.30002" target-x="346.4" target-y="588.8"></path><path d="M 567.20 90.50 L 572.80 88.20 L 578.50 86.30 L 584.30 84.80 L 590.20 83.70 L 602.10 82.60 L 614.10 83.10 L 625.90 85.10 L 637.40 88.60 L 648.40 93.40 L 658.60 99.60 L 663.40 103.20 L 667.90 107.10 L 672.20 111.40 L 682.00 123.00 L 687.50 130.50 L 692.60 138.40 L 697.20 146.70 L 701.40 155.20 L 705.00 164.00 L 707.30 170.80 L 710.70 184.40 L 711.90 191.40 L 712.60 198.30 L 712.80 205.30 L 712.50 212.20 L 711.80 219.10 L 710.60 225.90 L 708.80 232.60 L 706.40 239.30 L 703.40 245.90 L 701.20 249.70 L 698.80 253.10 L 696.20 256.20 L 693.20 259.00 L 689.00 262.30 L 684.40 265.30 L 679.50 267.80 L 669.10 271.80 L 663.70 273.40 L 647.60 277.20 L 660.40 305.40 L 666.10 319.80 L 671.40 334.30 L 674.50 344.10 L 677.30 354.10 L 689.20 400.60 L 698.20 437.30 L 703.80 461.90 L 709.00 486.60 L 713.70 511.30 L 716.90 529.90 L 719.70 548.50 L 722.10 567.20 L 724.10 586.00 L 725.60 604.70 L 726.60 623.60 L 727.00 642.50 L 726.90 661.40 L 725.80 677.60 L 724.20 693.80 L 719.70 726.00 L 711.80 774.20 L 708.40 798.60 L 706.90 806.80 L 705.00 814.80 L 702.70 822.60 L 698.90 832.80 L 694.60 842.70 L 689.70 852.50 L 678.70 871.40 L 663.00 894.10 L 633.60 933.70 L 631.00 930.30 L 628.90 926.80 L 627.20 923.10 L 625.20 917.40 L 622.60 905.30 L 619.90 887.00 L 615.50 888.80 L 611.40 891.00 L 607.60 893.50 L 602.10 897.90 L 581.80 917.60 L 576.20 921.90 L 584.00 882.20 L 585.00 875.50 L 586.00 862.10 L 586.00 855.50 L 585.40 848.90 L 584.40 842.40 L 583.20 837.70 L 581.60 832.90 L 579.60 828.20 L 577.10 823.50 L 575.00 820.20 L 570.10 814.80 L 567.50 812.60 L 563.60 810.10 L 559.40 807.90 L 555.00 806.20 L 550.50 804.90 L 540.90 803.20 L 533.50 802.60 L 518.90 802.60 L 504.00 803.40 L 495.80 804.50 L 487.50 806.00 L 479.40 808.20 L 474.20 810.00 L 464.30 814.70 L 459.70 817.60 L 455.50 820.90 L 451.60 824.60 L 446.60 830.90 L 442.70 838.50 L 439.70 846.70 L 437.20 855.10 L 435.40 863.60 L 434.00 872.20 L 432.40 889.50 L 432.10 902.60 L 432.80 941.90 L 428.80 939.00 L 421.60 932.40 L 416.70 927.00 L 402.50 910.40 L 397.40 905.20 L 391.90 900.40 L 389.30 922.10 L 387.50 944.10 L 382.50 940.90 L 373.10 933.70 L 368.90 929.60 L 365.10 925.10 L 361.70 920.30 L 352.90 906.70 L 339.00 883.50 L 329.00 864.40 L 324.50 854.70 L 320.40 844.80 L 316.70 834.70 L 313.60 824.40 L 311.00 814.00 L 305.50 781.40 L 299.60 737.50 L 297.20 715.40 L 295.30 693.20 L 293.90 671.10 L 293.00 649.00 L 292.60 626.80 L 292.70 604.60 L 293.50 582.50 L 295.00 560.40 L 297.00 538.30 L 300.50 506.40 L 304.50 474.50 L 307.60 453.20 L 311.10 432.10 L 315.00 411.00 L 319.40 390.10 L 324.40 369.30 L 329.90 348.60 L 334.50 333.20 L 339.50 318.00 L 344.90 302.80 L 350.70 287.80 L 344.80 284.90 L 319.80 273.80 L 310.10 268.20 L 303.10 262.80 L 300.00 259.70 L 297.20 256.20 L 294.60 252.30 L 292.00 246.80 L 289.80 241.30 L 288.10 235.60 L 286.80 229.90 L 285.70 222.00 L 285.20 214.20 L 285.30 206.20 L 286.00 198.20 L 287.00 190.20 L 288.50 182.30 L 291.40 170.60 L 294.80 159.40 L 297.10 153.20 L 299.90 147.30 L 303.00 141.60 L 306.50 136.10 L 310.40 130.90 L 314.60 125.90 L 319.10 121.30 L 323.80 116.90 L 334.20 108.90 L 339.60 105.40 L 351.20 99.40 L 363.40 94.70 L 369.70 92.90 L 376.00 91.40 L 388.90 89.70 L 395.40 89.40 L 401.90 89.60 L 408.40 90.10 L 414.80 91.10 L 421.20 92.50 L 426.30 94.30 L 431.10 96.50 L 435.60 99.20 L 439.90 102.30 L 443.80 105.90 L 447.40 109.80 L 450.60 114.00 L 453.50 118.40 L 456.00 123.20 L 458.10 128.10 L 459.70 133.10 L 462.20 145.50 L 463.20 152.60 L 463.70 159.70 L 463.80 166.80 L 463.40 176.20 L 462.50 185.70 L 461.10 195.10 L 456.90 213.70 L 454.30 222.90 L 449.80 236.50 L 445.10 249.90 L 456.90 247.70 L 468.80 245.80 L 480.60 244.40 L 492.50 243.50 L 504.50 242.90 L 516.40 242.90 L 528.30 243.30 L 540.20 244.10 L 552.20 245.50 L 564.10 247.30 L 561.70 238.20 L 557.30 227.50 L 544.10 202.80 L 539.50 192.10 L 535.10 176.50 L 533.70 169.70 L 532.80 162.60 L 532.50 155.50 L 532.70 148.40 L 533.50 141.30 L 534.90 134.20 L 536.80 127.50 L 539.30 120.90 L 541.60 116.20 L 544.20 111.70 L 547.20 107.40 L 550.50 103.40 L 554.10 99.70 L 558.10 96.30 L 562.50 93.30 L 567.20 90.50 Z M 373.70 104.20 L 367.20 105.50 L 361.00 107.30 L 355.00 109.70 L 349.40 112.50 L 343.90 115.70 L 338.70 119.40 L 333.80 123.40 L 329.20 127.80 L 320.70 137.50 L 313.40 148.30 L 309.20 156.00 L 305.50 163.80 L 302.30 171.90 L 299.70 180.20 L 297.70 188.50 L 296.30 196.70 L 295.70 202.30 L 295.70 207.90 L 296.40 213.40 L 297.60 218.90 L 299.30 224.10 L 301.60 229.10 L 304.30 233.90 L 307.50 238.40 L 311.10 242.50 L 315.20 246.30 L 319.60 249.50 L 324.30 252.30 L 332.00 255.50 L 336.10 256.60 L 344.90 258.20 L 349.30 258.60 L 353.50 258.70 L 357.70 258.30 L 363.20 257.20 L 368.50 255.60 L 373.60 253.40 L 378.50 250.70 L 383.20 247.50 L 387.70 243.90 L 395.80 235.80 L 399.50 231.30 L 405.80 221.80 L 411.50 211.30 L 414.00 205.70 L 416.00 199.90 L 417.60 194.00 L 419.60 181.90 L 420.20 172.60 L 420.40 163.30 L 419.30 140.10 L 418.50 135.60 L 417.10 131.20 L 415.30 126.90 L 413.00 122.90 L 410.30 119.10 L 407.20 115.60 L 403.90 112.50 L 400.20 109.70 L 396.20 107.40 L 392.00 105.70 L 387.60 104.40 L 384.30 103.80 L 377.30 103.70 L 373.70 104.20 Z M 592.80 104.20 L 587.50 107.30 L 582.60 110.90 L 578.10 115.00 L 573.90 119.50 L 570.20 124.40 L 566.90 129.60 L 564.10 135.10 L 561.70 140.80 L 559.80 146.60 L 558.40 152.60 L 557.50 158.60 L 557.20 164.70 L 558.40 170.40 L 560.00 175.90 L 562.00 181.20 L 564.40 186.40 L 567.20 191.40 L 573.70 200.60 L 577.50 205.00 L 583.00 210.30 L 588.80 215.20 L 595.10 219.60 L 601.80 223.50 L 608.70 226.80 L 615.80 229.50 L 621.30 231.20 L 632.50 233.30 L 638.20 233.90 L 643.90 234.00 L 649.60 233.70 L 655.30 232.90 L 660.90 231.80 L 664.70 229.90 L 671.30 225.50 L 674.30 222.80 L 677.80 218.90 L 680.90 214.70 L 683.60 210.10 L 685.80 205.30 L 687.50 200.30 L 688.80 195.10 L 689.60 189.80 L 690.00 184.40 L 689.80 179.10 L 689.20 173.70 L 688.10 168.50 L 684.60 157.00 L 682.10 150.60 L 679.10 144.20 L 675.60 138.00 L 671.60 132.10 L 667.20 126.40 L 662.40 121.00 L 657.20 116.10 L 651.70 111.70 L 647.40 108.70 L 638.30 103.80 L 633.60 101.90 L 628.70 100.40 L 623.80 99.40 L 618.80 98.90 L 613.60 98.80 L 608.60 99.30 L 603.40 100.30 L 598.20 101.90 L 592.80 104.20 Z M 541.50 316.20 L 537.70 320.10 L 534.00 324.40 L 530.70 329.10 L 527.90 334.10 L 526.30 337.60 L 524.40 344.60 L 524.10 348.10 L 524.30 351.60 L 525.10 355.10 L 527.20 360.10 L 531.10 365.10 L 544.90 349.00 L 558.30 332.80 L 564.80 323.60 L 567.20 318.00 L 567.60 313.40 L 567.10 311.20 L 566.00 309.00 L 564.20 306.70 L 561.80 305.30 L 559.70 304.60 L 557.60 304.60 L 555.60 305.00 L 551.70 306.90 L 549.00 309.10 L 541.50 316.20 Z M 447.30 313.00 L 446.80 316.20 L 446.80 319.60 L 447.30 323.40 L 449.60 330.90 L 453.50 338.20 L 458.50 344.30 L 461.50 346.90 L 464.50 348.90 L 467.70 350.30 L 470.30 351.00 L 472.80 351.20 L 475.40 351.00 L 478.10 350.30 L 478.50 347.00 L 478.40 343.60 L 477.90 340.10 L 476.90 336.50 L 475.50 333.10 L 471.70 326.40 L 466.70 320.70 L 463.80 318.30 L 460.80 316.30 L 457.60 314.70 L 454.20 313.50 L 450.80 313.00 L 447.30 313.00 Z M 516.90 363.50 L 518.40 360.40 L 519.40 357.30 L 520.00 354.20 L 520.10 347.90 L 518.80 340.00 L 515.40 325.90 L 512.80 326.30 L 508.50 328.00 L 506.80 329.30 L 504.80 331.50 L 503.20 334.00 L 502.10 336.80 L 501.00 342.90 L 501.00 346.10 L 501.40 349.20 L 503.30 355.00 L 504.80 357.60 L 506.60 359.80 L 508.70 361.50 L 510.50 362.50 L 514.50 363.50 L 516.90 363.50 Z M 404.70 348.50 L 399.50 349.50 L 394.70 350.80 L 390.20 352.50 L 385.90 354.70 L 381.80 357.20 L 377.90 360.00 L 374.40 363.20 L 371.00 366.60 L 367.10 371.60 L 363.60 376.90 L 360.60 382.70 L 358.20 388.70 L 356.30 394.90 L 355.00 401.30 L 354.30 407.70 L 354.20 414.20 L 354.70 420.70 L 356.60 430.30 L 358.20 434.90 L 362.30 443.80 L 364.80 447.80 L 367.60 451.50 L 370.70 455.00 L 377.80 461.00 L 385.80 465.80 L 391.50 468.30 L 397.50 470.20 L 403.60 471.60 L 409.90 472.40 L 416.20 472.70 L 422.50 472.30 L 428.70 471.40 L 434.80 469.80 L 440.60 467.60 L 444.90 465.60 L 448.90 463.20 L 452.70 460.50 L 459.90 453.80 L 463.00 450.10 L 465.80 446.10 L 468.20 441.80 L 470.20 437.40 L 473.30 428.20 L 474.30 423.30 L 475.20 416.80 L 475.50 410.20 L 475.30 403.60 L 474.60 397.00 L 473.40 390.60 L 471.80 384.40 L 468.50 376.60 L 464.10 369.70 L 460.50 365.60 L 456.50 362.00 L 452.10 358.70 L 447.50 355.90 L 442.60 353.40 L 437.40 351.40 L 432.00 349.90 L 426.60 348.70 L 421.10 348.00 L 415.50 347.70 L 410.10 347.90 L 404.70 348.50 Z M 572.60 354.60 L 567.50 356.90 L 562.70 359.50 L 558.20 362.60 L 554.00 366.20 L 550.10 370.10 L 546.50 374.20 L 543.30 378.70 L 540.40 383.40 L 537.90 388.40 L 535.80 393.50 L 534.10 398.70 L 532.80 404.10 L 532.00 409.60 L 531.50 415.00 L 531.60 420.50 L 532.10 426.00 L 533.00 431.40 L 534.50 436.70 L 536.40 441.80 L 538.90 446.90 L 541.70 450.50 L 547.80 456.90 L 551.20 459.60 L 556.00 462.80 L 561.20 465.50 L 566.60 467.80 L 572.20 469.60 L 577.90 471.00 L 589.80 472.60 L 601.80 472.80 L 610.70 472.10 L 619.30 470.90 L 624.10 469.10 L 628.50 466.90 L 632.50 464.40 L 636.10 461.40 L 639.30 458.10 L 642.30 454.50 L 644.90 450.60 L 647.10 446.40 L 650.60 437.50 L 652.70 428.00 L 653.30 421.50 L 653.40 415.00 L 652.90 408.50 L 651.80 402.00 L 650.20 395.90 L 646.30 385.70 L 641.90 377.60 L 639.20 373.80 L 635.10 369.20 L 630.60 365.10 L 625.60 361.40 L 620.40 358.20 L 614.80 355.60 L 609.00 353.50 L 604.50 352.30 L 595.50 351.10 L 586.20 351.30 L 581.70 352.00 L 577.10 353.10 L 572.60 354.60 Z M 471.80 464.60 L 499.00 465.40 L 498.20 462.30 L 497.00 459.70 L 495.40 457.50 L 493.40 455.60 L 491.20 454.10 L 488.80 453.00 L 486.20 452.40 L 483.80 452.20 L 481.30 452.50 L 478.90 453.20 L 476.80 454.50 L 474.90 456.20 L 472.90 459.70 L 471.80 464.60 Z M 506.90 458.20 L 505.90 460.40 L 505.60 462.20 L 505.80 463.80 L 506.50 465.30 L 507.60 466.60 L 509.10 467.70 L 511.90 469.00 L 515.10 469.70 L 518.60 469.90 L 521.90 469.60 L 524.10 469.10 L 527.70 467.30 L 529.10 466.00 L 530.00 464.40 L 530.50 462.60 L 529.50 460.40 L 528.10 458.60 L 526.40 457.10 L 524.40 455.90 L 520.00 454.50 L 515.30 454.40 L 510.70 455.70 L 506.90 458.20 Z M 571.80 609.90 L 570.90 621.60 L 570.70 633.40 L 570.90 645.10 L 572.70 692.30 L 572.10 711.90 L 570.20 727.50 L 575.00 727.90 L 579.10 727.60 L 582.80 726.80 L 586.30 725.50 L 589.50 723.70 L 592.40 721.40 L 594.90 718.90 L 599.50 712.70 L 602.30 707.50 L 607.10 696.10 L 612.80 679.50 L 614.30 688.90 L 614.60 693.50 L 614.40 700.50 L 612.80 714.60 L 609.00 735.50 L 612.80 736.00 L 616.40 736.10 L 619.80 735.80 L 623.10 735.00 L 627.30 733.40 L 631.40 731.30 L 635.20 728.70 L 638.80 725.60 L 645.30 718.70 L 649.60 712.90 L 653.30 707.20 L 656.60 700.80 L 659.40 694.30 L 661.90 687.50 L 664.00 680.50 L 665.70 673.50 L 666.90 666.30 L 667.80 659.10 L 668.20 651.80 L 668.20 644.50 L 667.70 637.30 L 666.80 630.20 L 665.50 623.10 L 663.70 616.10 L 661.40 609.30 L 658.70 602.70 L 655.50 596.20 L 652.80 592.20 L 649.90 588.70 L 646.60 585.60 L 643.10 583.00 L 639.20 580.80 L 635.30 578.90 L 631.10 577.50 L 626.80 576.50 L 622.40 575.80 L 613.60 575.70 L 604.80 577.10 L 600.60 578.30 L 592.50 581.90 L 588.80 584.30 L 585.40 586.90 L 582.20 589.90 L 579.30 593.30 L 576.80 596.90 L 574.70 600.80 L 573.10 605.20 L 571.80 609.90 Z M 347.30 631.80 L 346.60 637.20 L 346.40 642.50 L 346.60 647.70 L 347.20 652.80 L 348.60 659.60 L 350.60 666.20 L 353.10 672.80 L 359.30 685.40 L 368.60 700.50 L 374.60 708.90 L 380.70 716.70 L 392.00 729.40 L 401.90 738.50 L 407.30 742.60 L 412.90 746.10 L 418.80 749.00 L 423.40 750.80 L 428.20 752.20 L 433.20 753.20 L 438.40 753.70 L 435.60 745.00 L 432.30 736.50 L 417.80 703.10 L 435.10 714.70 L 441.10 718.30 L 449.40 722.40 L 455.40 724.60 L 460.30 725.10 L 465.40 724.50 L 468.90 723.00 L 470.40 721.10 L 470.70 720.00 L 470.60 718.60 L 469.90 716.80 L 466.50 710.70 L 463.50 704.50 L 461.00 698.10 L 458.00 688.30 L 455.40 678.30 L 448.80 647.90 L 446.00 638.00 L 443.70 631.50 L 441.10 625.20 L 437.90 618.90 L 435.20 613.50 L 431.90 608.20 L 426.70 601.80 L 420.70 596.30 L 413.90 592.10 L 410.20 590.60 L 406.20 589.50 L 402.00 588.80 L 392.70 589.70 L 388.10 590.70 L 383.60 592.00 L 374.80 595.70 L 366.70 600.70 L 363.00 603.70 L 359.70 606.90 L 356.60 610.50 L 353.90 614.20 L 351.50 618.30 L 349.70 622.50 L 348.20 627.00 L 347.30 631.80 Z" fill="#b9c8c3" fill-rule="nonzero" node-id="50" stroke="none" target-height="861.5" target-width="441.8" target-x="285.2" target-y="82.6"></path><path d="M 579.00 360.60 L 584.20 359.00 L 589.10 358.10 L 594.00 357.70 L 598.70 357.90 L 603.50 358.60 L 608.00 359.70 L 612.40 361.30 L 616.70 363.30 L 620.80 365.70 L 624.70 368.50 L 628.30 371.60 L 631.70 375.00 L 634.90 378.70 L 640.20 386.80 L 644.40 395.70 L 645.80 400.30 L 646.90 405.10 L 647.70 409.90 L 647.90 414.80 L 647.80 419.70 L 647.10 424.50 L 644.90 434.70 L 643.40 439.50 L 641.40 443.90 L 639.00 448.00 L 636.00 451.80 L 632.80 455.20 L 629.20 458.20 L 625.30 460.90 L 621.10 463.20 L 616.80 465.20 L 612.20 466.70 L 607.40 468.00 L 602.60 468.80 L 592.80 469.30 L 583.00 468.30 L 578.20 467.20 L 573.60 465.70 L 569.10 463.80 L 564.80 461.50 L 560.80 458.80 L 557.00 455.70 L 553.50 452.20 L 550.50 448.50 L 547.90 444.60 L 545.70 440.60 L 544.00 436.40 L 542.60 432.10 L 541.00 423.20 L 540.80 418.70 L 541.10 412.60 L 541.90 406.50 L 543.40 400.50 L 545.40 394.70 L 548.00 389.10 L 551.10 383.70 L 554.70 378.70 L 558.70 374.00 L 563.20 369.80 L 570.70 364.60 L 579.00 360.60 Z M 551.10 422.90 L 551.50 427.10 L 552.40 431.00 L 553.90 434.80 L 555.90 438.30 L 558.40 441.50 L 561.30 444.40 L 564.50 447.00 L 567.90 449.20 L 571.60 451.00 L 575.40 452.40 L 579.30 453.30 L 583.30 453.70 L 587.30 453.60 L 591.10 453.00 L 594.80 451.70 L 597.50 450.40 L 602.30 446.70 L 607.20 441.30 L 609.20 438.30 L 610.50 435.20 L 611.40 431.90 L 612.10 424.90 L 611.80 419.60 L 611.00 414.20 L 608.90 403.80 L 586.90 407.70 L 585.80 401.50 L 584.10 395.70 L 582.00 390.00 L 579.30 384.50 L 573.70 387.30 L 568.20 390.80 L 564.70 393.40 L 558.60 399.30 L 556.00 402.70 L 553.90 406.20 L 552.30 410.10 L 551.50 413.00 L 550.90 419.40 L 551.10 422.90 Z" fill="#fefdfc" fill-rule="nonzero" node-id="52" stroke="none" target-height="111.599976" target-width="107.10004" target-x="540.8" target-y="357.7"></path><path d="M 537.60 105.90 L 541.30 100.90 L 545.30 96.30 L 549.60 92.10 L 554.30 88.30 L 559.20 84.90 L 564.30 81.90 L 569.70 79.30 L 575.30 77.10 L 581.00 75.30 L 586.80 73.90 L 592.80 72.90 L 604.90 72.00 L 617.00 72.70 L 623.00 73.60 L 629.00 74.90 L 634.80 76.50 L 640.50 78.60 L 646.00 81.00 L 651.40 83.80 L 656.50 86.90 L 661.30 90.50 L 666.00 94.40 L 672.10 100.20 L 678.00 106.40 L 683.40 112.90 L 688.60 119.70 L 693.30 126.80 L 697.60 134.10 L 701.60 141.60 L 705.20 149.40 L 708.40 157.30 L 711.10 165.40 L 713.40 173.50 L 715.40 181.90 L 716.80 190.30 L 717.90 198.70 L 718.50 207.10 L 718.60 215.60 L 718.30 221.50 L 717.50 227.20 L 716.30 232.80 L 714.70 238.40 L 712.60 243.70 L 710.10 248.90 L 707.30 253.80 L 704.00 258.50 L 700.40 262.90 L 696.50 267.00 L 692.20 270.80 L 687.60 274.20 L 682.80 277.20 L 677.60 279.80 L 672.20 281.90 L 666.50 283.60 L 670.90 293.60 L 674.90 303.80 L 678.50 314.10 L 683.40 329.80 L 691.80 361.60 L 708.60 433.90 L 713.90 458.40 L 718.70 482.90 L 725.30 519.90 L 731.40 556.90 L 737.00 559.90 L 742.30 563.30 L 747.20 566.90 L 751.70 570.80 L 756.00 575.10 L 763.80 584.30 L 767.20 589.30 L 771.40 596.30 L 775.20 603.50 L 778.60 611.00 L 784.30 626.50 L 786.70 634.50 L 789.60 646.50 L 792.00 658.20 L 794.40 678.70 L 796.20 699.20 L 797.00 712.90 L 797.30 726.60 L 797.20 740.40 L 794.40 739.80 L 792.00 738.90 L 790.00 737.60 L 787.30 735.30 L 785.10 732.40 L 783.10 729.30 L 778.10 719.10 L 772.20 733.70 L 769.80 738.30 L 765.90 744.10 L 763.50 746.70 L 760.90 740.70 L 758.80 734.20 L 757.20 727.60 L 752.90 707.20 L 751.30 700.50 L 749.20 694.10 L 747.60 690.00 L 743.40 682.40 L 740.80 678.90 L 737.70 675.70 L 734.20 672.70 L 733.00 685.70 L 729.90 711.70 L 727.00 731.00 L 717.50 789.00 L 714.60 808.40 L 712.30 827.80 L 717.50 829.60 L 723.10 831.00 L 740.20 834.50 L 745.70 836.10 L 749.20 837.40 L 755.70 840.80 L 758.60 843.00 L 761.30 845.70 L 763.80 848.80 L 732.80 862.80 L 745.30 867.20 L 751.90 870.30 L 754.10 871.90 L 756.00 873.80 L 757.50 876.10 L 758.60 878.80 L 759.30 882.20 L 750.40 883.00 L 732.70 883.60 L 719.30 883.40 L 706.00 882.70 L 679.40 880.80 L 675.20 886.70 L 659.00 912.00 L 651.50 921.90 L 644.60 928.80 L 640.90 931.90 L 636.80 934.60 L 632.40 937.00 L 629.80 936.70 L 625.80 935.20 L 624.20 934.00 L 622.30 932.10 L 620.70 929.70 L 619.40 927.00 L 618.00 922.60 L 614.60 903.30 L 613.50 899.60 L 609.00 903.80 L 591.10 922.30 L 582.90 928.80 L 575.70 932.70 L 571.90 934.10 L 567.70 935.00 L 563.20 935.40 L 564.70 925.40 L 566.60 915.40 L 573.30 885.20 L 574.90 875.20 L 575.60 868.40 L 575.90 861.80 L 575.70 855.10 L 574.40 845.10 L 573.20 840.10 L 570.30 831.90 L 567.10 826.50 L 565.20 824.30 L 562.20 821.60 L 558.90 819.40 L 555.40 817.50 L 551.60 816.10 L 543.50 814.00 L 537.20 813.20 L 524.50 812.60 L 511.20 813.10 L 495.60 814.40 L 487.90 815.70 L 477.80 818.40 L 473.10 820.20 L 468.50 822.40 L 464.30 825.00 L 460.30 828.00 L 457.60 830.60 L 452.80 836.70 L 450.70 840.20 L 448.00 847.70 L 445.70 855.30 L 444.00 862.90 L 441.70 878.50 L 441.10 886.40 L 440.70 898.30 L 440.70 910.20 L 441.60 935.90 L 442.30 945.50 L 441.60 948.90 L 440.00 950.90 L 438.90 951.50 L 435.00 952.00 L 431.10 950.30 L 427.50 948.30 L 424.10 946.00 L 419.30 941.90 L 414.90 937.50 L 402.10 923.40 L 397.70 919.00 L 395.20 936.60 L 393.30 943.70 L 391.80 946.40 L 390.50 947.90 L 389.00 949.00 L 387.30 949.80 L 385.40 950.00 L 383.00 949.80 L 380.10 949.00 L 374.40 944.50 L 369.20 939.70 L 364.40 934.50 L 355.70 923.10 L 346.00 907.80 L 329.50 879.90 L 285.60 882.60 L 263.50 882.80 L 266.80 877.20 L 268.80 874.80 L 272.30 871.70 L 276.10 869.00 L 284.40 864.40 L 270.00 856.20 L 265.40 853.20 L 261.20 849.80 L 257.30 846.00 L 255.10 843.20 L 251.40 836.70 L 276.10 830.90 L 276.40 834.10 L 277.00 837.00 L 278.00 839.60 L 281.00 844.20 L 286.10 849.10 L 300.60 859.30 L 303.90 861.90 L 292.80 873.80 L 318.30 871.80 L 315.50 860.40 L 312.30 849.10 L 308.70 838.10 L 279.50 841.30 L 280.20 831.10 L 305.40 829.60 L 301.70 815.90 L 298.40 802.20 L 295.60 788.40 L 291.10 760.60 L 286.90 725.60 L 281.50 662.40 L 278.30 667.00 L 275.60 671.80 L 273.50 676.70 L 270.60 686.90 L 268.80 700.20 L 267.60 724.70 L 267.00 732.80 L 266.00 740.80 L 258.90 744.70 L 248.70 726.80 L 240.10 733.80 L 237.10 735.90 L 232.60 737.80 L 230.10 738.30 L 228.50 732.60 L 227.30 726.90 L 226.50 721.10 L 226.00 712.30 L 226.10 703.40 L 228.00 668.10 L 229.60 651.80 L 232.50 635.10 L 234.60 627.00 L 237.00 618.90 L 239.90 611.00 L 243.30 603.40 L 247.20 596.10 L 250.40 590.80 L 254.00 585.80 L 257.90 581.10 L 262.10 576.70 L 266.60 572.60 L 271.60 568.80 L 276.90 565.40 L 282.70 562.30 L 284.70 539.30 L 289.90 493.50 L 293.10 470.70 L 296.80 447.90 L 300.90 425.20 L 305.50 402.70 L 310.50 380.20 L 316.10 357.80 L 322.20 335.60 L 328.90 313.60 L 336.10 291.60 L 327.90 288.80 L 314.10 283.10 L 303.80 277.30 L 299.00 273.90 L 294.70 270.10 L 290.80 265.90 L 288.20 262.50 L 285.90 258.70 L 283.90 254.70 L 282.30 250.30 L 280.20 242.30 L 278.70 234.30 L 277.70 226.20 L 277.20 218.00 L 277.30 209.80 L 277.70 201.70 L 278.70 193.50 L 280.00 185.40 L 282.40 174.70 L 285.40 164.20 L 289.00 154.00 L 291.70 147.50 L 294.80 141.20 L 298.30 135.20 L 302.20 129.50 L 306.50 124.00 L 311.00 118.70 L 315.90 113.80 L 321.10 109.20 L 326.60 104.80 L 338.20 97.10 L 344.30 93.70 L 350.60 90.70 L 363.70 85.80 L 377.20 82.30 L 384.10 81.20 L 391.00 80.40 L 397.90 80.10 L 404.90 80.30 L 411.80 80.80 L 418.70 81.80 L 425.50 83.30 L 431.40 85.40 L 437.00 88.10 L 442.30 91.30 L 447.20 95.00 L 451.70 99.10 L 455.90 103.70 L 459.60 108.60 L 462.80 113.80 L 465.60 119.40 L 467.90 125.10 L 469.70 131.00 L 470.90 137.10 L 471.90 148.10 L 472.50 159.10 L 472.80 170.20 L 472.50 181.30 L 471.60 192.30 L 470.10 203.20 L 468.50 211.40 L 466.60 219.40 L 464.20 227.30 L 461.40 235.20 L 475.90 233.50 L 490.40 232.20 L 509.80 231.50 L 519.60 231.70 L 529.30 232.20 L 538.90 233.20 L 548.60 234.70 L 544.00 227.10 L 539.70 219.20 L 535.80 210.80 L 532.40 202.30 L 529.50 193.60 L 527.20 184.80 L 525.80 178.00 L 524.10 164.50 L 523.90 157.70 L 524.00 150.90 L 524.60 144.20 L 525.50 137.60 L 527.00 131.00 L 528.90 124.60 L 531.30 118.20 L 534.20 112.00 L 537.60 105.90 Z M 567.20 90.50 L 562.50 93.30 L 558.10 96.30 L 554.10 99.70 L 550.50 103.40 L 547.20 107.40 L 544.20 111.70 L 541.60 116.20 L 539.30 120.90 L 536.80 127.50 L 534.90 134.20 L 533.50 141.30 L 532.70 148.40 L 532.50 155.50 L 532.80 162.60 L 533.70 169.70 L 535.10 176.50 L 539.50 192.10 L 544.10 202.80 L 557.30 227.50 L 561.70 238.20 L 564.10 247.30 L 552.20 245.50 L 540.20 244.10 L 528.30 243.30 L 516.40 242.90 L 504.50 242.90 L 492.50 243.50 L 480.60 244.40 L 468.80 245.80 L 456.90 247.70 L 445.10 249.90 L 449.80 236.50 L 454.30 222.90 L 456.90 213.70 L 461.10 195.10 L 462.50 185.70 L 463.40 176.20 L 463.80 166.80 L 463.70 159.70 L 463.20 152.60 L 462.20 145.50 L 459.70 133.10 L 458.10 128.10 L 456.00 123.20 L 453.50 118.40 L 450.60 114.00 L 447.40 109.80 L 443.80 105.90 L 439.90 102.30 L 435.60 99.20 L 431.10 96.50 L 426.30 94.30 L 421.20 92.50 L 414.80 91.10 L 408.40 90.10 L 401.90 89.60 L 395.40 89.40 L 388.90 89.70 L 376.00 91.40 L 369.70 92.90 L 363.40 94.70 L 351.20 99.40 L 339.60 105.40 L 334.20 108.90 L 323.80 116.90 L 319.10 121.30 L 314.60 125.90 L 310.40 130.90 L 306.50 136.10 L 303.00 141.60 L 299.90 147.30 L 297.10 153.20 L 294.80 159.40 L 291.40 170.60 L 288.50 182.30 L 287.00 190.20 L 286.00 198.20 L 285.30 206.20 L 285.20 214.20 L 285.70 222.00 L 286.80 229.90 L 288.10 235.60 L 289.80 241.30 L 292.00 246.80 L 294.60 252.30 L 297.20 256.20 L 300.00 259.70 L 303.10 262.80 L 310.10 268.20 L 319.80 273.80 L 344.80 284.90 L 350.70 287.80 L 344.90 302.80 L 339.50 318.00 L 334.50 333.20 L 329.90 348.60 L 324.40 369.30 L 319.40 390.10 L 315.00 411.00 L 311.10 432.10 L 307.60 453.20 L 304.50 474.50 L 300.50 506.40 L 297.00 538.30 L 295.00 560.40 L 293.50 582.50 L 292.70 604.60 L 292.60 626.80 L 293.00 649.00 L 293.90 671.10 L 295.30 693.20 L 297.20 715.40 L 299.60 737.50 L 305.50 781.40 L 311.00 814.00 L 313.60 824.40 L 316.70 834.70 L 320.40 844.80 L 324.50 854.70 L 329.00 864.40 L 339.00 883.50 L 352.90 906.70 L 361.70 920.30 L 365.10 925.10 L 368.90 929.60 L 373.10 933.70 L 382.50 940.90 L 387.50 944.10 L 389.30 922.10 L 391.90 900.40 L 397.40 905.20 L 402.50 910.40 L 416.70 927.00 L 421.60 932.40 L 428.80 939.00 L 432.80 941.90 L 432.10 902.60 L 432.40 889.50 L 434.00 872.20 L 435.40 863.60 L 437.20 855.10 L 439.70 846.70 L 442.70 838.50 L 446.60 830.90 L 451.60 824.60 L 455.50 820.90 L 459.70 817.60 L 464.30 814.70 L 474.20 810.00 L 479.40 808.20 L 487.50 806.00 L 495.80 804.50 L 504.00 803.40 L 518.90 802.60 L 533.50 802.60 L 540.90 803.20 L 550.50 804.90 L 555.00 806.20 L 559.40 807.90 L 563.60 810.10 L 567.50 812.60 L 570.10 814.80 L 575.00 820.20 L 577.10 823.50 L 579.60 828.20 L 581.60 832.90 L 584.40 842.40 L 585.40 848.90 L 586.00 855.50 L 586.00 862.10 L 585.00 875.50 L 584.00 882.20 L 576.20 921.90 L 581.80 917.60 L 602.10 897.90 L 607.60 893.50 L 611.40 891.00 L 615.50 888.80 L 619.90 887.00 L 622.60 905.30 L 625.20 917.40 L 627.20 923.10 L 628.90 926.80 L 631.00 930.30 L 633.60 933.70 L 663.00 894.10 L 678.70 871.40 L 689.70 852.50 L 694.60 842.70 L 698.90 832.80 L 702.70 822.60 L 705.00 814.80 L 706.90 806.80 L 708.40 798.60 L 711.80 774.20 L 719.70 726.00 L 724.20 693.80 L 725.80 677.60 L 726.90 661.40 L 727.00 642.50 L 726.60 623.60 L 725.60 604.70 L 724.10 586.00 L 722.10 567.20 L 719.70 548.50 L 716.90 529.90 L 713.70 511.30 L 709.00 486.60 L 703.80 461.90 L 698.20 437.30 L 689.20 400.60 L 677.30 354.10 L 674.50 344.10 L 671.40 334.30 L 666.10 319.80 L 660.40 305.40 L 647.60 277.20 L 663.70 273.40 L 669.10 271.80 L 679.50 267.80 L 684.40 265.30 L 689.00 262.30 L 693.20 259.00 L 696.20 256.20 L 698.80 253.10 L 701.20 249.70 L 703.40 245.90 L 706.40 239.30 L 708.80 232.60 L 710.60 225.90 L 711.80 219.10 L 712.50 212.20 L 712.80 205.30 L 712.60 198.30 L 711.90 191.40 L 710.70 184.40 L 707.30 170.80 L 705.00 164.00 L 701.40 155.20 L 697.20 146.70 L 692.60 138.40 L 687.50 130.50 L 682.00 123.00 L 672.20 111.40 L 667.90 107.10 L 663.40 103.20 L 658.60 99.60 L 648.40 93.40 L 637.40 88.60 L 625.90 85.10 L 614.10 83.10 L 602.10 82.60 L 590.20 83.70 L 584.30 84.80 L 578.50 86.30 L 572.80 88.20 L 567.20 90.50 Z M 731.60 566.70 L 732.10 581.50 L 734.50 625.80 L 735.40 655.40 L 739.80 660.40 L 743.90 665.50 L 747.50 670.90 L 750.90 676.50 L 753.80 682.40 L 756.20 688.40 L 758.20 694.70 L 759.80 701.20 L 769.30 695.70 L 774.80 693.20 L 779.40 692.50 L 781.70 692.60 L 784.10 693.30 L 786.80 694.50 L 785.50 680.60 L 783.80 666.10 L 780.30 646.80 L 778.10 637.30 L 775.40 627.80 L 772.10 618.70 L 768.40 609.90 L 765.20 603.40 L 761.60 597.30 L 757.70 591.40 L 753.40 585.70 L 748.70 580.50 L 743.50 575.50 L 737.80 570.90 L 731.60 566.70 Z M 239.50 688.70 L 258.70 700.10 L 259.80 693.90 L 261.20 687.90 L 263.10 682.00 L 266.50 673.40 L 270.30 664.90 L 278.70 648.30 L 279.60 636.40 L 279.80 612.50 L 278.60 576.70 L 273.90 580.90 L 269.60 585.40 L 265.70 590.00 L 262.20 594.90 L 258.00 601.80 L 254.40 608.90 L 251.30 616.40 L 248.60 624.10 L 246.40 631.90 L 244.60 640.00 L 242.50 652.20 L 241.10 664.40 L 239.50 688.70 Z M 707.50 835.20 L 686.60 873.30 L 725.30 874.90 L 712.90 862.30 L 720.80 856.20 L 737.20 845.10 L 707.50 835.20 Z" fill="#3c4250" fill-rule="nonzero" node-id="54" stroke="none" target-height="880" target-width="571.3" target-x="226" target-y="72"></path><path d="M 597.40 107.80 L 602.60 105.60 L 607.60 104.10 L 612.60 103.20 L 617.40 102.80 L 622.20 103.00 L 627.00 103.60 L 631.60 104.70 L 636.20 106.30 L 640.60 108.30 L 649.10 113.30 L 653.20 116.30 L 658.20 120.80 L 663.00 125.70 L 667.40 131.00 L 671.50 136.70 L 675.10 142.50 L 678.20 148.60 L 680.90 154.80 L 683.10 161.00 L 686.30 172.10 L 687.30 177.20 L 687.70 182.40 L 687.60 187.70 L 686.90 192.90 L 685.70 198.10 L 684.00 203.10 L 681.90 207.80 L 679.20 212.30 L 676.10 216.50 L 672.60 220.30 L 668.70 223.60 L 665.50 225.70 L 662.00 227.50 L 658.40 228.90 L 654.40 230.00 L 648.40 230.30 L 642.40 230.10 L 636.40 229.40 L 630.50 228.20 L 624.70 226.60 L 619.00 224.60 L 613.50 222.20 L 608.00 219.40 L 602.80 216.30 L 597.90 212.80 L 593.20 209.10 L 588.70 204.90 L 584.50 200.50 L 580.70 195.90 L 577.20 191.00 L 574.10 185.80 L 571.40 180.50 L 569.10 174.90 L 567.20 169.20 L 565.80 163.30 L 566.10 157.80 L 566.80 152.40 L 568.10 146.90 L 569.80 141.60 L 571.90 136.40 L 574.40 131.50 L 577.40 126.70 L 580.70 122.20 L 584.40 118.00 L 588.40 114.20 L 592.80 110.80 L 597.40 107.80 Z" fill="#fdb292" fill-rule="nonzero" node-id="56" stroke="none" target-height="127.5" target-width="121.900024" target-x="565.8" target-y="102.8"></path><path d="M 358.90 114.70 L 363.50 112.60 L 368.30 111.10 L 373.40 110.00 L 378.50 109.60 L 383.60 109.70 L 388.60 110.50 L 392.30 111.40 L 399.10 114.30 L 402.30 116.30 L 405.10 118.60 L 407.70 121.40 L 410.00 124.50 L 412.00 128.00 L 414.30 134.40 L 416.10 140.90 L 417.50 147.50 L 418.40 154.30 L 418.90 161.10 L 418.90 167.90 L 418.50 174.70 L 417.70 181.50 L 416.40 188.30 L 414.70 194.90 L 412.60 201.40 L 410.10 207.70 L 407.20 213.90 L 403.90 219.80 L 400.20 225.50 L 396.00 230.90 L 391.50 236.00 L 386.70 240.70 L 381.40 245.00 L 375.70 249.00 L 371.70 251.00 L 367.70 252.50 L 363.70 253.60 L 359.50 254.20 L 355.40 254.40 L 347.10 253.70 L 343.00 252.80 L 337.70 251.10 L 332.60 248.80 L 327.70 246.00 L 323.10 242.60 L 318.90 238.90 L 315.00 234.70 L 311.70 230.10 L 308.90 225.30 L 306.70 220.10 L 305.40 216.10 L 304.60 212.00 L 304.20 207.70 L 304.10 203.30 L 304.70 196.60 L 305.60 190.00 L 307.00 183.30 L 308.90 176.80 L 311.10 170.30 L 313.80 164.00 L 316.80 157.90 L 320.20 151.90 L 323.90 146.20 L 328.00 140.70 L 332.40 135.60 L 337.10 130.70 L 342.20 126.10 L 347.50 121.90 L 353.00 118.10 L 358.90 114.70 Z" fill="#fdb292" fill-rule="nonzero" node-id="58" stroke="none" target-height="144.79999" target-width="114.79999" target-x="304.1" target-y="109.6"></path><path d="M 541.50 316.20 L 549.00 309.10 L 551.70 306.90 L 555.60 305.00 L 557.60 304.60 L 559.70 304.60 L 561.80 305.30 L 564.20 306.70 L 566.00 309.00 L 567.10 311.20 L 567.60 313.40 L 567.20 318.00 L 564.80 323.60 L 558.30 332.80 L 544.90 349.00 L 531.10 365.10 L 527.20 360.10 L 525.10 355.10 L 524.30 351.60 L 524.10 348.10 L 524.40 344.60 L 526.30 337.60 L 527.90 334.10 L 530.70 329.10 L 534.00 324.40 L 537.70 320.10 L 541.50 316.20 Z" fill="#3a3f58" fill-rule="nonzero" node-id="60" stroke="none" target-height="60.5" target-width="43.5" target-x="524.1" target-y="304.6"></path><path d="M 447.30 313.00 L 450.80 313.00 L 454.20 313.50 L 457.60 314.70 L 460.80 316.30 L 463.80 318.30 L 469.30 323.50 L 473.80 329.70 L 476.90 336.50 L 477.90 340.10 L 478.40 343.60 L 478.50 347.00 L 478.10 350.30 L 475.40 351.00 L 472.80 351.20 L 470.30 351.00 L 467.70 350.30 L 464.50 348.90 L 461.50 346.90 L 458.50 344.30 L 455.80 341.40 L 451.40 334.60 L 448.20 327.10 L 447.30 323.40 L 446.80 319.60 L 446.80 316.20 L 447.30 313.00 Z" fill="#4c5663" fill-rule="nonzero" node-id="62" stroke="none" target-height="38.200012" target-width="31.700012" target-x="446.8" target-y="313"></path><path d="M 426.60 381.00 L 436.60 384.50 L 441.50 386.60 L 446.00 389.20 L 448.70 391.20 L 451.20 393.80 L 453.30 396.80 L 455.10 400.80 L 456.40 405.00 L 457.10 409.40 L 457.20 413.80 L 456.70 418.10 L 455.80 422.50 L 454.30 426.70 L 452.40 430.70 L 450.00 434.50 L 447.30 437.90 L 444.10 440.90 L 440.60 443.50 L 434.70 446.40 L 431.50 447.30 L 424.70 448.20 L 421.50 448.20 L 415.50 446.90 L 411.70 445.20 L 408.20 443.10 L 405.00 440.50 L 402.20 437.40 L 399.80 434.10 L 397.90 430.40 L 396.50 426.50 L 395.70 422.50 L 395.50 418.40 L 395.70 415.30 L 396.30 412.30 L 397.40 409.20 L 398.90 406.20 L 399.50 403.70 L 400.20 402.10 L 401.10 401.20 L 403.50 400.50 L 405.10 400.70 L 416.20 404.90 L 419.10 405.60 L 421.80 405.70 L 423.50 405.20 L 425.10 404.30 L 426.60 402.80 L 426.60 381.00 Z" fill="#3c384a" fill-rule="nonzero" node-id="64" stroke="none" target-height="67.20001" target-width="61.700012" target-x="395.5" target-y="381"></path><path d="M 551.10 422.90 L 550.90 419.40 L 551.50 413.00 L 552.30 410.10 L 553.90 406.20 L 556.00 402.70 L 558.60 399.30 L 564.70 393.40 L 568.20 390.80 L 573.70 387.30 L 579.30 384.50 L 582.00 390.00 L 584.10 395.70 L 585.80 401.50 L 586.90 407.70 L 608.90 403.80 L 611.00 414.20 L 611.80 419.60 L 612.10 424.90 L 611.40 431.90 L 610.50 435.20 L 609.20 438.30 L 607.20 441.30 L 602.30 446.70 L 597.50 450.40 L 594.80 451.70 L 591.10 453.00 L 587.30 453.60 L 583.30 453.70 L 579.30 453.30 L 575.40 452.40 L 571.60 451.00 L 567.90 449.20 L 564.50 447.00 L 561.30 444.40 L 558.40 441.50 L 555.90 438.30 L 553.90 434.80 L 552.40 431.00 L 551.50 427.10 L 551.10 422.90 Z" fill="#3c3647" fill-rule="nonzero" node-id="66" stroke="none" target-height="69.20001" target-width="61.19995" target-x="550.9" target-y="384.5"></path><path d="M 506.90 458.20 L 510.70 455.70 L 512.90 454.90 L 517.60 454.30 L 522.30 455.10 L 526.40 457.10 L 528.10 458.60 L 529.50 460.40 L 530.50 462.60 L 530.00 464.40 L 529.10 466.00 L 527.70 467.30 L 524.10 469.10 L 518.60 469.90 L 515.10 469.70 L 511.90 469.00 L 509.10 467.70 L 507.60 466.60 L 506.50 465.30 L 505.80 463.80 L 505.60 462.20 L 505.90 460.40 L 506.90 458.20 Z" fill="#56646c" fill-rule="nonzero" node-id="68" stroke="none" target-height="15.600006" target-width="24.899994" target-x="505.6" target-y="454.3"></path><path d="M 731.60 566.70 L 737.80 570.90 L 743.50 575.50 L 748.70 580.50 L 753.40 585.70 L 757.70 591.40 L 761.60 597.30 L 765.20 603.40 L 768.40 609.90 L 772.10 618.70 L 775.40 627.80 L 778.10 637.30 L 780.30 646.80 L 783.80 666.10 L 785.50 680.60 L 786.80 694.50 L 784.10 693.30 L 781.70 692.60 L 779.40 692.50 L 774.80 693.20 L 769.30 695.70 L 759.80 701.20 L 758.20 694.70 L 756.20 688.40 L 753.80 682.40 L 750.90 676.50 L 747.50 670.90 L 743.90 665.50 L 739.80 660.40 L 735.40 655.40 L 734.50 625.80 L 732.10 581.50 L 731.60 566.70 Z" fill="#b7cbc6" fill-rule="nonzero" node-id="70" stroke="none" target-height="134.5" target-width="55.200012" target-x="731.6" target-y="566.7"></path><path d="M 239.50 688.70 L 241.10 664.40 L 242.50 652.20 L 244.60 640.00 L 246.40 631.90 L 248.60 624.10 L 251.30 616.40 L 254.40 608.90 L 258.00 601.80 L 262.20 594.90 L 265.70 590.00 L 269.60 585.40 L 273.90 580.90 L 278.60 576.70 L 279.80 612.50 L 279.90 624.40 L 279.60 636.40 L 278.70 648.30 L 270.30 664.90 L 266.50 673.40 L 263.10 682.00 L 261.20 687.90 L 259.80 693.90 L 258.70 700.10 L 239.50 688.70 Z" fill="#bac5c3" fill-rule="nonzero" node-id="72" stroke="none" target-height="123.39996" target-width="40.399994" target-x="239.5" target-y="576.7"></path><path d="M 582.20 610.20 L 583.40 606.60 L 584.90 603.30 L 586.70 600.20 L 588.80 597.50 L 592.10 594.20 L 595.70 591.40 L 599.60 589.10 L 603.90 587.30 L 608.20 586.00 L 612.80 585.20 L 617.40 585.00 L 621.90 585.30 L 626.40 586.10 L 630.80 587.50 L 634.90 589.50 L 638.70 592.00 L 641.30 594.30 L 643.70 596.90 L 645.90 599.90 L 647.80 603.20 L 650.90 610.00 L 653.50 617.10 L 655.60 624.50 L 657.20 632.00 L 658.20 639.70 L 658.70 647.50 L 658.60 655.40 L 658.00 663.10 L 656.90 670.80 L 655.20 678.50 L 652.90 685.80 L 650.10 693.00 L 644.80 703.20 L 638.20 712.50 L 634.40 716.80 L 630.30 720.80 L 625.90 724.60 L 621.10 728.00 L 620.80 722.30 L 621.10 716.10 L 623.20 689.80 L 623.20 685.40 L 622.40 677.30 L 621.40 673.40 L 620.00 669.80 L 618.20 666.50 L 614.50 662.10 L 609.30 658.30 L 606.90 664.30 L 604.90 670.50 L 599.50 689.70 L 595.80 699.90 L 591.70 707.50 L 589.30 711.00 L 586.40 714.20 L 583.10 717.30 L 583.30 703.90 L 582.80 690.50 L 580.70 650.20 L 580.50 636.90 L 581.30 619.10 L 582.20 610.20 Z" fill="#b8c9c4" fill-rule="nonzero" node-id="74" stroke="none" target-height="143" target-width="78.20001" target-x="580.5" target-y="585"></path><path d="M 356.20 649.30 L 355.40 645.40 L 355.10 641.50 L 355.20 637.70 L 355.80 633.90 L 357.10 628.90 L 359.10 624.10 L 361.70 619.50 L 364.70 615.20 L 368.20 611.30 L 372.20 607.70 L 376.40 604.50 L 380.90 602.00 L 385.60 599.90 L 389.30 598.80 L 393.00 598.00 L 400.50 597.70 L 404.20 598.10 L 407.80 599.10 L 411.40 600.50 L 415.00 602.50 L 419.90 607.60 L 424.20 613.00 L 427.80 618.60 L 431.10 624.40 L 433.90 630.50 L 436.40 636.80 L 439.40 646.40 L 442.00 656.40 L 450.30 697.00 L 452.80 707.00 L 455.80 716.60 L 451.20 714.60 L 446.80 712.30 L 442.80 709.60 L 436.90 705.10 L 431.40 700.30 L 415.60 684.80 L 410.10 680.00 L 409.40 685.70 L 409.40 691.30 L 409.90 696.70 L 412.30 707.40 L 417.00 720.50 L 426.60 743.80 L 418.30 738.30 L 410.30 732.30 L 402.60 725.70 L 395.20 718.70 L 388.40 711.30 L 381.90 703.40 L 373.30 690.90 L 366.00 677.70 L 362.90 670.80 L 360.20 663.80 L 358.00 656.60 L 356.20 649.30 Z" fill="#b8c8c2" fill-rule="nonzero" node-id="76" stroke="none" target-height="146.09998" target-width="100.69998" target-x="355.1" target-y="597.7"></path><path d="M 707.50 835.20 L 737.20 845.10 L 720.80 856.20 L 712.90 862.30 L 725.30 874.90 L 686.60 873.30 L 707.50 835.20 Z" fill="#c4cdd0" fill-rule="nonzero" node-id="78" stroke="none" target-height="39.700012" target-width="50.600037" target-x="686.6" target-y="835.2"></path></svg>