<?xml version="1.0" standalone="no"?><!DOCTYPE svg PUBLIC "-//W3C//DTD SVG 1.1//EN" "http://www.w3.org/Graphics/SVG/1.1/DTD/svg11.dtd"><svg height="1024" node-id="1" sillyvg="true" template-height="1024" template-width="1024" version="1.1" viewBox="0 0 1024 1024" width="1024" xmlns="http://www.w3.org/2000/svg" xmlns:xlink="http://www.w3.org/1999/xlink"><defs node-id="33"></defs><path d="M 0.00 0.00 L 1024.00 0.00 L 1024.00 1024.00 L 0.00 1024.00 Z" fill="#ffffff" fill-rule="nonzero" node-id="35" stroke="none" target-height="1024" target-width="1024" target-x="0" target-y="0"></path><path d="M 405.00 567.50 L 443.90 572.10 L 483.00 576.10 L 473.70 602.20 L 470.10 610.70 L 464.60 621.70 L 461.30 626.80 L 457.70 631.70 L 453.60 636.20 L 449.00 640.40 L 444.60 640.20 L 440.70 639.40 L 437.10 638.30 L 433.90 636.80 L 430.90 634.90 L 425.60 630.10 L 423.30 627.20 L 420.70 623.10 L 418.30 618.50 L 416.10 613.60 L 413.50 605.90 L 409.50 589.70 L 405.00 567.50 Z" fill="#fefefd" fill-rule="nonzero" node-id="37" stroke="none" target-height="72.900024" target-width="78" target-x="405" target-y="567.5"></path><path d="M 521.20 577.20 L 556.70 575.60 L 592.20 573.50 L 590.80 582.90 L 588.80 592.20 L 586.20 601.30 L 583.00 610.30 L 579.30 619.00 L 575.10 627.40 L 570.20 635.60 L 564.70 643.60 L 560.30 642.30 L 556.20 640.70 L 552.50 638.80 L 549.20 636.50 L 545.10 633.00 L 541.40 629.10 L 538.20 624.70 L 532.80 615.00 L 530.60 609.70 L 527.70 601.60 L 525.30 593.30 L 521.20 577.20 Z" fill="#fefefd" fill-rule="nonzero" node-id="39" stroke="none" target-height="70.099976" target-width="71" target-x="521.2" target-y="573.5"></path><path d="M 344.50 333.00 L 350.50 330.70 L 356.60 328.90 L 362.80 327.70 L 369.10 327.10 L 375.40 327.00 L 381.60 327.30 L 387.80 328.20 L 394.00 329.50 L 400.10 331.30 L 405.90 333.50 L 411.60 336.10 L 417.10 339.10 L 422.40 342.50 L 427.40 346.30 L 432.00 350.40 L 436.30 354.90 L 440.30 359.70 L 443.80 364.80 L 446.90 370.10 L 449.50 375.80 L 451.60 381.60 L 453.20 387.70 L 454.10 394.00 L 454.60 407.60 L 454.10 414.20 L 453.10 420.70 L 451.40 427.00 L 449.30 433.10 L 446.70 439.00 L 443.60 444.60 L 440.00 450.10 L 436.10 455.20 L 431.80 460.10 L 427.20 464.70 L 422.20 468.90 L 416.90 472.90 L 411.40 476.40 L 405.70 479.60 L 399.70 482.50 L 393.50 484.90 L 387.30 486.90 L 380.90 488.50 L 374.40 489.60 L 367.90 490.30 L 361.30 490.50 L 354.80 490.10 L 348.30 489.30 L 347.30 449.10 L 356.20 443.40 L 364.90 437.10 L 368.90 433.50 L 372.30 429.60 L 374.20 426.80 L 375.70 423.80 L 376.90 420.60 L 377.60 417.30 L 377.80 413.60 L 377.50 405.60 L 377.00 402.10 L 375.90 399.00 L 374.30 396.20 L 372.40 393.60 L 370.10 391.20 L 366.20 388.10 L 361.70 385.20 L 343.40 375.30 L 344.20 364.70 L 344.60 354.10 L 344.50 333.00 Z" fill="#fffffe" fill-rule="nonzero" node-id="41" stroke="none" target-height="163.5" target-width="111.20001" target-x="343.4" target-y="327"></path><path d="M 608.80 332.20 L 616.10 329.80 L 623.50 327.90 L 631.20 326.60 L 638.90 325.80 L 646.60 325.70 L 654.30 326.20 L 660.00 327.00 L 665.60 328.20 L 671.00 329.80 L 676.40 331.80 L 681.60 334.20 L 686.60 337.00 L 691.30 340.30 L 700.60 348.10 L 704.70 352.40 L 708.40 357.00 L 711.70 361.90 L 714.60 367.10 L 717.00 372.50 L 719.00 378.00 L 720.60 383.70 L 721.80 389.60 L 722.50 395.50 L 722.80 401.40 L 722.60 407.40 L 722.00 413.30 L 721.00 419.10 L 719.60 424.90 L 717.70 430.60 L 715.30 436.00 L 712.60 441.30 L 709.40 446.30 L 705.80 451.10 L 701.60 456.20 L 697.20 460.80 L 692.50 465.10 L 687.50 468.90 L 682.30 472.50 L 676.80 475.60 L 671.20 478.50 L 665.40 481.00 L 657.40 483.80 L 649.20 486.00 L 640.80 487.60 L 632.30 488.70 L 623.90 489.30 L 615.40 489.30 L 611.20 447.70 L 616.80 444.60 L 625.60 438.30 L 631.60 432.40 L 634.10 429.00 L 636.20 425.50 L 637.80 421.60 L 638.70 418.70 L 639.30 412.20 L 639.10 405.20 L 638.60 402.00 L 637.70 399.20 L 634.80 394.00 L 632.90 391.70 L 629.60 388.50 L 625.90 385.70 L 609.90 376.20 L 608.80 332.20 Z" fill="#fffffe" fill-rule="nonzero" node-id="43" stroke="none" target-height="163.59998" target-width="114" target-x="608.8" target-y="325.7"></path><path d="M 481.70 504.50 L 482.10 501.00 L 483.80 495.00 L 485.10 492.50 L 487.20 489.30 L 489.70 486.70 L 492.50 484.60 L 495.60 482.90 L 498.90 481.80 L 502.30 481.10 L 505.80 481.00 L 509.30 481.40 L 512.70 482.30 L 516.00 483.70 L 519.00 485.70 L 521.90 488.30 L 523.80 490.50 L 526.90 495.90 L 528.20 499.30 L 481.70 504.50 Z" fill="#3d3a4f" fill-rule="nonzero" node-id="45" stroke="none" target-height="23.5" target-width="46.5" target-x="481.7" target-y="481"></path><path d="M 362.90 120.10 L 377.10 108.70 L 370.20 128.30 L 362.90 120.10 Z" fill="#37384d" fill-rule="nonzero" node-id="47" stroke="none" target-height="19.600006" target-width="14.200012" target-x="362.9" target-y="108.7"></path><path d="M 387.10 264.50 L 389.80 261.50 L 392.60 259.00 L 395.40 257.10 L 398.30 255.60 L 401.50 254.50 L 407.90 253.50 L 411.20 253.60 L 415.60 254.20 L 419.90 255.30 L 424.20 257.00 L 428.40 259.20 L 432.30 261.80 L 436.00 264.80 L 439.50 268.20 L 442.50 271.80 L 445.20 275.70 L 447.50 279.80 L 449.20 284.00 L 450.40 288.40 L 427.60 276.60 L 419.90 273.00 L 412.00 269.90 L 403.90 267.30 L 398.50 266.00 L 387.10 264.50 Z" fill="#37384d" fill-rule="nonzero" node-id="49" stroke="none" target-height="34.899994" target-width="63.299988" target-x="387.1" target-y="253.5"></path><path d="M 560.30 286.80 L 561.70 282.50 L 563.60 278.40 L 566.00 274.40 L 568.70 270.70 L 571.70 267.20 L 575.00 264.10 L 578.60 261.20 L 582.40 258.80 L 586.30 256.80 L 590.40 255.20 L 594.60 254.20 L 598.80 253.70 L 603.00 253.70 L 607.20 254.40 L 611.40 255.70 L 614.30 257.10 L 620.20 261.10 L 623.00 263.90 L 617.20 264.10 L 611.60 264.80 L 606.20 265.90 L 595.50 269.30 L 582.70 275.00 L 560.30 286.80 Z" fill="#37384d" fill-rule="nonzero" node-id="51" stroke="none" target-height="33.09999" target-width="62.700012" target-x="560.3" target-y="253.7"></path><path d="M 361.00 314.90 L 367.90 313.70 L 374.60 313.10 L 381.30 313.20 L 387.80 313.80 L 394.30 314.90 L 400.60 316.60 L 406.70 318.70 L 412.70 321.30 L 418.50 324.40 L 424.00 327.80 L 429.30 331.70 L 434.30 335.90 L 439.10 340.50 L 443.50 345.30 L 447.60 350.50 L 451.40 355.90 L 454.80 361.60 L 457.80 367.40 L 460.40 373.40 L 462.60 379.60 L 464.30 385.90 L 465.50 392.40 L 466.30 398.80 L 466.50 405.40 L 466.20 412.00 L 465.40 418.60 L 463.90 425.10 L 459.60 438.70 L 456.90 445.30 L 453.60 451.50 L 449.80 457.50 L 445.50 463.20 L 440.90 468.50 L 435.80 473.50 L 430.30 478.10 L 424.50 482.40 L 418.50 486.20 L 412.20 489.70 L 405.70 492.70 L 398.90 495.30 L 392.10 497.50 L 385.20 499.10 L 378.20 500.40 L 371.10 501.10 L 364.00 501.30 L 357.00 501.00 L 350.10 500.20 L 343.20 498.90 L 336.60 497.00 L 330.10 494.50 L 323.80 491.40 L 319.00 488.60 L 314.40 485.40 L 309.90 481.70 L 305.60 477.60 L 301.50 473.10 L 296.80 467.10 L 292.80 460.80 L 289.30 454.40 L 286.50 447.80 L 284.20 440.90 L 282.40 433.90 L 281.20 426.90 L 280.60 419.70 L 280.40 412.50 L 280.80 405.30 L 281.60 398.10 L 283.00 391.00 L 284.80 384.00 L 287.10 377.10 L 289.80 370.50 L 293.00 364.00 L 296.60 357.70 L 300.60 351.80 L 305.00 346.10 L 309.90 340.80 L 315.00 335.90 L 320.60 331.40 L 326.50 327.30 L 332.80 323.70 L 338.00 321.20 L 343.40 319.10 L 349.00 317.30 L 354.90 315.90 L 361.00 314.90 Z M 344.50 333.00 L 325.40 345.90 L 316.70 353.30 L 312.80 357.40 L 309.30 361.90 L 306.20 366.80 L 303.20 372.30 L 300.80 377.90 L 298.80 383.70 L 297.20 389.60 L 296.10 395.60 L 295.30 401.70 L 295.00 407.80 L 295.10 413.90 L 295.70 420.00 L 296.60 426.10 L 297.90 432.00 L 299.60 437.90 L 301.70 443.70 L 304.10 449.20 L 307.00 454.60 L 310.20 459.70 L 313.70 464.70 L 317.60 469.20 L 321.90 473.50 L 326.50 477.50 L 331.40 481.10 L 336.70 484.20 L 342.30 486.90 L 348.30 489.30 L 354.80 490.10 L 361.30 490.50 L 367.90 490.30 L 374.40 489.60 L 380.90 488.50 L 387.30 486.90 L 393.50 484.90 L 399.70 482.50 L 405.70 479.60 L 411.40 476.40 L 416.90 472.90 L 422.20 468.90 L 427.20 464.70 L 431.80 460.10 L 436.10 455.20 L 440.00 450.10 L 443.60 444.60 L 446.70 439.00 L 449.30 433.10 L 451.40 427.00 L 453.10 420.70 L 454.10 414.20 L 454.60 407.60 L 454.10 394.00 L 453.20 387.70 L 451.60 381.60 L 449.50 375.80 L 446.90 370.10 L 443.80 364.80 L 440.30 359.70 L 436.30 354.90 L 432.00 350.40 L 427.40 346.30 L 422.40 342.50 L 417.10 339.10 L 411.60 336.10 L 405.90 333.50 L 400.10 331.30 L 394.00 329.50 L 387.80 328.20 L 381.60 327.30 L 375.40 327.00 L 369.10 327.10 L 362.80 327.70 L 356.60 328.90 L 350.50 330.70 L 344.50 333.00 Z" fill="#37384d" fill-rule="nonzero" node-id="53" stroke="none" target-height="188.19998" target-width="186.1" target-x="280.4" target-y="313.1"></path><path d="M 317.90 545.70 L 364.50 556.70 L 387.60 562.80 L 388.80 566.30 L 389.40 569.70 L 389.50 573.00 L 389.00 576.20 L 388.10 579.50 L 386.80 582.80 L 384.30 587.60 L 381.10 592.40 L 367.30 611.20 L 364.40 615.90 L 362.20 620.50 L 355.60 613.20 L 349.50 605.70 L 343.80 597.80 L 338.50 589.60 L 333.70 581.20 L 329.20 572.60 L 325.10 563.70 L 317.90 545.70 Z" fill="#fefdfd" fill-rule="nonzero" node-id="55" stroke="none" target-height="74.79999" target-width="71.600006" target-x="317.9" target-y="545.7"></path><path d="M 607.30 571.70 L 687.80 551.70 L 684.20 560.80 L 675.80 578.50 L 671.10 587.10 L 666.10 595.50 L 660.60 603.60 L 654.60 611.30 L 648.20 618.80 L 641.40 625.80 L 629.60 608.00 L 618.20 590.00 L 607.30 571.70 Z" fill="#fefefc" fill-rule="nonzero" node-id="57" stroke="none" target-height="74.099976" target-width="80.5" target-x="607.3" target-y="551.7"></path><path d="M 321.00 263.50 L 316.70 256.00 L 313.10 248.40 L 310.10 240.80 L 307.80 233.10 L 306.00 225.30 L 304.80 217.40 L 304.20 209.50 L 304.20 201.60 L 304.70 193.60 L 305.60 185.80 L 307.10 177.90 L 309.10 170.10 L 311.50 162.50 L 314.30 155.00 L 317.60 147.50 L 321.20 140.20 L 325.30 133.20 L 329.70 126.30 L 334.50 119.60 L 339.60 113.20 L 345.00 107.00 L 350.70 101.10 L 356.70 95.60 L 362.90 90.30 L 369.40 85.40 L 376.10 80.90 L 383.00 76.70 L 390.00 73.00 L 381.90 107.70 L 367.90 97.30 L 359.40 107.30 L 351.20 117.60 L 341.00 131.90 L 336.30 139.30 L 332.00 146.90 L 328.20 154.80 L 324.80 162.80 L 320.70 175.20 L 318.00 188.20 L 316.90 198.40 L 317.20 208.40 L 318.20 214.90 L 319.60 221.40 L 321.40 227.90 L 324.60 237.50 L 335.70 265.80 L 323.10 280.60 L 310.90 296.00 L 303.20 306.50 L 295.80 317.20 L 288.90 328.20 L 279.50 345.30 L 271.60 363.10 L 267.70 373.00 L 264.50 382.90 L 261.80 392.90 L 257.90 413.40 L 256.50 423.70 L 254.80 439.30 L 250.70 486.30 L 249.60 496.70 L 242.00 545.20 L 238.00 573.00 L 234.60 601.00 L 232.40 622.00 L 229.10 664.10 L 228.10 685.20 L 227.50 706.30 L 227.30 727.50 L 227.70 748.60 L 228.50 769.70 L 253.10 770.00 L 277.80 769.60 L 290.10 768.90 L 302.40 767.80 L 303.70 754.20 L 303.70 741.10 L 302.90 732.40 L 301.70 723.80 L 300.10 715.30 L 296.90 702.60 L 293.20 690.10 L 276.60 640.00 L 274.20 631.50 L 270.20 614.50 L 269.30 602.20 L 269.00 590.00 L 269.50 573.60 L 271.40 557.50 L 272.90 549.50 L 274.90 541.50 L 274.90 555.90 L 275.40 570.20 L 276.50 584.40 L 278.20 598.60 L 280.50 612.60 L 283.30 626.60 L 286.70 640.50 L 290.60 654.20 L 295.00 667.80 L 300.00 681.10 L 305.40 694.30 L 311.40 707.40 L 317.80 720.10 L 324.70 732.70 L 332.00 744.90 L 343.80 763.00 L 347.40 769.30 L 349.50 773.60 L 351.20 778.10 L 352.50 782.70 L 353.30 787.40 L 353.50 792.30 L 352.60 810.10 L 352.80 822.70 L 353.70 835.40 L 356.50 860.60 L 365.10 910.80 L 359.30 912.20 L 339.80 915.60 L 335.60 916.60 L 327.70 919.40 L 324.10 921.30 L 321.00 923.60 L 318.20 926.40 L 316.50 928.70 L 315.00 931.50 L 313.80 934.70 L 312.90 938.40 L 328.80 939.70 L 344.80 940.30 L 360.70 940.40 L 376.60 940.00 L 392.50 939.00 L 408.40 937.60 L 408.90 907.60 L 408.70 877.60 L 407.60 817.70 L 418.60 817.80 L 440.50 819.00 L 489.70 823.60 L 506.10 824.70 L 517.10 825.10 L 528.10 825.10 L 539.10 824.70 L 552.30 823.70 L 565.40 822.30 L 617.90 815.60 L 619.00 864.90 L 619.60 938.00 L 650.90 939.40 L 666.60 939.80 L 682.30 939.60 L 692.70 939.10 L 703.10 938.20 L 713.40 936.90 L 714.30 930.90 L 713.70 926.50 L 712.70 923.90 L 711.10 921.70 L 709.10 920.00 L 706.80 918.60 L 701.00 916.50 L 696.10 915.60 L 690.70 915.10 L 668.80 914.60 L 660.00 913.60 L 663.10 897.60 L 665.50 881.50 L 667.30 865.40 L 668.70 849.20 L 669.60 833.00 L 670.10 816.70 L 670.30 792.30 L 670.00 767.90 L 677.70 758.80 L 684.90 749.40 L 691.60 739.70 L 697.90 729.70 L 703.70 719.40 L 709.00 708.90 L 714.00 698.20 L 718.50 687.30 L 722.60 676.20 L 726.20 664.90 L 729.50 653.50 L 732.40 642.00 L 737.00 618.70 L 740.10 595.10 L 741.40 579.30 L 742.10 563.60 L 742.20 548.00 L 744.70 556.30 L 746.60 564.60 L 748.00 573.10 L 748.90 581.60 L 749.20 590.10 L 748.70 607.30 L 746.70 624.40 L 744.40 637.10 L 741.70 649.70 L 737.70 658.90 L 734.20 668.20 L 731.30 677.70 L 728.90 687.20 L 727.00 696.80 L 725.50 706.60 L 724.50 716.40 L 723.80 726.20 L 723.50 739.40 L 723.60 752.70 L 724.30 765.90 L 741.10 770.30 L 757.60 775.90 L 770.80 772.90 L 784.10 770.20 L 797.40 771.70 L 797.20 755.10 L 795.80 722.10 L 792.40 683.80 L 789.90 662.00 L 782.20 607.50 L 772.20 542.10 L 767.50 509.40 L 764.80 487.60 L 759.30 432.70 L 757.60 421.90 L 755.50 411.20 L 752.90 400.60 L 749.90 390.10 L 746.40 379.80 L 742.50 369.70 L 738.30 359.70 L 733.60 349.80 L 728.60 340.10 L 721.90 328.20 L 714.70 316.60 L 707.10 305.30 L 699.00 294.20 L 690.50 283.50 L 681.60 273.00 L 672.50 262.90 L 663.10 253.10 L 676.90 249.30 L 678.60 240.30 L 679.70 231.30 L 680.30 222.40 L 680.20 213.30 L 679.60 204.40 L 678.50 195.50 L 676.80 186.70 L 674.60 177.90 L 671.90 169.30 L 668.70 160.90 L 665.00 152.80 L 660.80 144.80 L 656.20 137.00 L 651.20 129.60 L 645.70 122.40 L 639.80 115.60 L 633.50 109.20 L 626.80 103.10 L 619.80 97.50 L 612.40 92.30 L 618.70 105.00 L 624.50 118.10 L 628.00 127.00 L 633.90 145.00 L 636.20 154.20 L 637.90 163.50 L 639.00 172.80 L 639.50 179.70 L 639.50 186.70 L 639.20 193.70 L 638.40 200.70 L 637.20 207.60 L 635.50 214.60 L 633.20 221.50 L 630.50 228.50 L 620.00 225.30 L 609.60 222.60 L 599.10 220.30 L 588.60 218.50 L 574.50 216.60 L 560.40 215.40 L 546.10 214.80 L 531.90 214.70 L 517.60 215.00 L 503.20 215.80 L 481.70 217.60 L 460.20 220.10 L 438.80 223.10 L 375.30 232.70 L 367.20 216.40 L 363.50 207.50 L 360.20 198.20 L 358.20 191.90 L 355.50 179.30 L 354.70 173.00 L 354.50 166.80 L 354.70 160.80 L 355.30 156.30 L 356.30 151.90 L 357.70 147.70 L 359.40 143.60 L 361.50 139.70 L 364.10 135.90 L 367.30 132.30 L 371.00 128.80 L 367.90 144.50 L 366.30 160.50 L 366.10 168.50 L 366.40 176.40 L 367.20 184.30 L 368.60 192.10 L 370.60 199.80 L 372.40 205.40 L 377.40 216.40 L 380.50 221.90 L 429.00 213.80 L 461.60 209.30 L 494.50 206.10 L 510.90 205.10 L 527.30 204.50 L 543.70 204.50 L 560.10 205.10 L 576.40 206.30 L 588.60 207.60 L 600.80 209.30 L 613.00 211.50 L 625.10 214.20 L 626.20 206.60 L 626.90 199.20 L 627.10 191.80 L 626.90 184.60 L 626.10 174.90 L 624.70 165.40 L 622.80 155.80 L 617.80 137.00 L 614.90 127.70 L 600.60 85.90 L 596.30 72.00 L 604.90 76.10 L 613.20 80.70 L 621.20 85.80 L 629.00 91.40 L 636.50 97.50 L 643.60 103.90 L 650.30 110.70 L 656.70 118.00 L 662.70 125.50 L 668.20 133.40 L 673.20 141.50 L 677.80 149.90 L 681.90 158.60 L 685.40 167.40 L 688.30 176.40 L 690.70 185.60 L 692.20 193.00 L 693.20 200.50 L 693.80 208.00 L 694.10 215.50 L 693.90 223.10 L 693.20 230.70 L 692.10 238.20 L 690.50 245.70 L 688.40 253.30 L 685.80 260.80 L 694.80 270.90 L 703.50 281.40 L 711.90 292.10 L 720.00 303.10 L 727.60 314.30 L 734.80 325.90 L 741.50 337.70 L 747.70 349.80 L 753.20 362.20 L 757.00 371.60 L 760.30 381.20 L 763.30 391.00 L 765.90 400.90 L 768.80 418.20 L 771.30 435.60 L 781.60 522.60 L 798.00 626.70 L 802.00 655.70 L 804.20 675.10 L 806.00 694.50 L 807.40 713.90 L 808.40 743.10 L 807.90 772.50 L 805.80 790.20 L 803.60 800.30 L 800.80 807.50 L 798.90 810.90 L 796.60 813.80 L 793.90 816.40 L 789.10 819.30 L 786.10 820.40 L 782.80 821.20 L 781.00 817.30 L 779.40 814.60 L 777.90 812.80 L 776.10 811.40 L 774.40 810.60 L 772.70 810.30 L 769.20 810.90 L 767.30 811.80 L 755.20 819.10 L 751.80 820.50 L 748.40 821.30 L 746.10 821.40 L 743.70 820.90 L 741.20 820.00 L 734.00 807.10 L 722.70 813.00 L 711.10 818.30 L 703.00 820.70 L 698.80 821.50 L 703.00 810.80 L 706.60 800.10 L 709.60 789.10 L 712.00 778.00 L 714.00 766.80 L 715.50 755.60 L 716.60 744.20 L 717.60 721.50 L 711.00 731.40 L 683.60 770.10 L 677.00 780.00 L 678.40 826.10 L 677.90 851.70 L 676.20 872.10 L 674.80 882.30 L 673.10 892.40 L 670.80 902.50 L 692.80 905.60 L 704.10 907.70 L 715.30 910.50 L 722.60 912.70 L 729.70 915.40 L 736.50 918.40 L 741.40 921.10 L 746.10 924.00 L 750.40 927.30 L 754.60 930.90 L 758.40 934.80 L 761.80 939.20 L 765.00 944.00 L 767.80 949.20 L 747.50 950.80 L 722.20 951.40 L 646.10 949.50 L 632.10 948.60 L 627.40 947.90 L 621.50 946.20 L 618.80 944.90 L 616.40 943.20 L 614.20 941.10 L 612.20 938.30 L 610.80 929.40 L 609.00 911.40 L 608.50 897.80 L 608.40 884.20 L 609.10 843.40 L 609.00 829.80 L 593.10 832.40 L 577.20 834.30 L 561.40 835.70 L 545.40 836.50 L 529.50 836.90 L 513.50 836.80 L 481.60 835.70 L 441.70 832.70 L 417.90 830.50 L 418.10 841.70 L 421.10 887.60 L 421.20 899.00 L 421.00 906.50 L 419.30 921.40 L 417.90 928.70 L 415.80 935.90 L 413.20 943.00 L 406.80 945.40 L 400.30 947.20 L 393.70 948.50 L 380.30 949.90 L 342.90 950.30 L 295.60 952.00 L 283.30 951.50 L 273.70 949.90 L 269.00 948.60 L 264.40 946.80 L 259.80 944.50 L 263.30 940.00 L 266.90 935.90 L 270.70 932.10 L 274.80 928.70 L 280.50 924.60 L 286.60 921.00 L 292.90 917.80 L 306.10 912.50 L 313.10 910.30 L 323.60 907.60 L 334.20 905.20 L 355.30 901.20 L 351.40 881.50 L 348.00 861.80 L 346.20 848.60 L 344.90 835.30 L 344.00 822.00 L 343.80 812.10 L 344.40 792.10 L 345.30 782.00 L 335.50 770.00 L 326.30 757.60 L 308.70 732.20 L 309.60 742.30 L 311.10 752.30 L 313.00 762.20 L 316.60 776.80 L 320.90 791.40 L 330.10 820.40 L 325.50 820.00 L 321.30 819.20 L 317.20 817.80 L 311.30 815.20 L 294.60 805.40 L 292.40 809.80 L 289.80 813.70 L 286.90 817.20 L 283.60 820.40 L 279.90 823.20 L 275.70 825.70 L 263.10 807.50 L 260.00 809.10 L 247.20 818.80 L 244.10 820.40 L 241.90 821.20 L 239.80 821.40 L 237.70 821.20 L 235.70 820.50 L 233.60 819.10 L 231.30 816.70 L 228.70 812.30 L 226.40 807.80 L 224.50 803.10 L 222.20 795.90 L 220.50 788.50 L 218.10 773.50 L 216.70 756.00 L 215.70 738.60 L 215.10 721.20 L 215.00 703.80 L 215.50 680.60 L 216.50 657.50 L 218.20 634.30 L 220.30 611.20 L 222.90 588.10 L 225.80 565.00 L 238.00 483.70 L 239.20 471.10 L 242.40 420.60 L 243.30 412.20 L 246.00 395.70 L 247.80 387.60 L 250.20 379.50 L 256.80 361.40 L 260.90 351.50 L 265.50 341.90 L 270.60 332.50 L 277.80 320.20 L 285.60 308.30 L 293.90 296.70 L 302.60 285.30 L 311.70 274.30 L 321.00 263.50 Z" fill="#373d58" fill-rule="nonzero" node-id="59" stroke="none" target-height="880" target-width="593.4" target-x="215" target-y="72"></path><path d="M 367.90 97.30 L 381.90 107.70 L 377.10 108.70 L 362.90 120.10 L 370.20 128.30 L 371.00 128.80 L 367.30 132.30 L 364.10 135.90 L 361.50 139.70 L 359.40 143.60 L 357.70 147.70 L 356.30 151.90 L 355.30 156.30 L 354.70 160.80 L 354.50 166.80 L 354.70 173.00 L 355.50 179.30 L 356.70 185.60 L 360.20 198.20 L 363.50 207.50 L 367.20 216.40 L 375.30 232.80 L 368.00 237.40 L 361.00 242.40 L 354.20 247.80 L 347.80 253.50 L 341.60 259.40 L 335.70 265.80 L 324.60 237.50 L 321.40 227.90 L 319.60 221.40 L 318.20 214.90 L 316.90 203.40 L 317.30 193.40 L 319.20 181.60 L 322.60 168.90 L 324.80 162.80 L 328.20 154.80 L 332.00 146.90 L 336.30 139.30 L 346.00 124.70 L 359.40 107.30 L 367.90 97.30 Z" fill="#91a9bc" fill-rule="nonzero" node-id="61" stroke="none" target-height="168.49998" target-width="65" target-x="316.9" target-y="97.3"></path><path d="M 612.40 92.30 L 619.80 97.50 L 626.80 103.10 L 633.50 109.20 L 639.80 115.60 L 645.70 122.40 L 651.20 129.60 L 656.20 137.00 L 660.80 144.80 L 665.00 152.80 L 668.70 160.90 L 671.90 169.30 L 674.60 177.90 L 676.80 186.70 L 678.50 195.50 L 679.60 204.40 L 680.20 213.30 L 680.30 222.30 L 679.70 231.30 L 678.60 240.30 L 676.90 249.30 L 663.10 253.10 L 646.90 240.50 L 630.50 228.50 L 633.20 221.50 L 635.50 214.50 L 637.20 207.60 L 638.40 200.70 L 639.20 193.70 L 639.50 186.70 L 639.50 179.70 L 639.00 172.80 L 637.90 163.50 L 636.20 154.20 L 633.90 145.00 L 628.00 127.00 L 624.50 118.10 L 618.70 105.00 L 612.40 92.30 Z" fill="#99a9bf" fill-rule="nonzero" node-id="63" stroke="none" target-height="160.8" target-width="67.89996" target-x="612.4" target-y="92.3"></path><path d="M 375.30 232.70 L 438.80 223.10 L 460.20 220.10 L 481.70 217.60 L 503.20 215.80 L 517.60 215.00 L 531.90 214.70 L 546.10 214.80 L 560.40 215.40 L 574.50 216.60 L 588.60 218.50 L 599.10 220.30 L 609.60 222.60 L 620.00 225.30 L 630.50 228.50 L 638.70 234.30 L 663.10 253.10 L 672.50 262.90 L 681.60 273.00 L 690.50 283.50 L 699.00 294.20 L 707.10 305.30 L 714.70 316.60 L 721.90 328.20 L 728.60 340.10 L 733.60 349.80 L 738.30 359.70 L 742.50 369.70 L 746.40 379.80 L 749.90 390.10 L 752.90 400.60 L 755.50 411.20 L 757.60 421.90 L 759.30 432.70 L 764.80 487.60 L 767.50 509.40 L 772.20 542.10 L 782.20 607.50 L 789.90 662.00 L 792.40 683.80 L 795.80 722.10 L 797.20 755.10 L 797.40 771.70 L 784.10 770.20 L 779.00 756.90 L 777.00 750.00 L 774.40 739.50 L 768.00 707.60 L 765.60 697.10 L 762.70 686.90 L 760.40 680.20 L 757.70 673.70 L 751.90 662.80 L 745.40 654.00 L 741.70 649.70 L 744.40 637.10 L 746.70 624.40 L 747.90 615.80 L 749.20 598.70 L 749.20 590.10 L 748.90 581.60 L 748.00 573.10 L 746.60 564.60 L 744.70 556.30 L 742.20 548.00 L 742.10 563.60 L 741.40 579.30 L 740.10 595.10 L 737.00 618.70 L 732.40 642.00 L 729.50 653.50 L 726.20 664.90 L 722.60 676.20 L 718.50 687.30 L 714.00 698.20 L 709.00 708.90 L 703.70 719.40 L 697.90 729.70 L 691.60 739.70 L 684.90 749.40 L 677.70 758.80 L 670.00 767.90 L 570.90 781.60 L 546.00 784.70 L 521.10 787.20 L 500.00 788.80 L 489.50 790.00 L 476.70 788.90 L 463.90 787.30 L 451.30 785.20 L 426.30 780.00 L 395.30 772.10 L 339.80 756.90 L 332.00 744.90 L 324.70 732.70 L 317.80 720.10 L 311.40 707.40 L 305.40 694.30 L 300.00 681.10 L 295.00 667.80 L 290.60 654.20 L 286.70 640.50 L 283.30 626.60 L 280.50 612.60 L 278.20 598.60 L 276.50 584.40 L 275.40 570.20 L 274.90 555.90 L 274.90 541.50 L 272.90 549.50 L 271.40 557.50 L 269.50 573.60 L 269.00 590.00 L 269.30 602.20 L 270.20 614.50 L 269.40 634.70 L 266.90 659.80 L 259.00 720.00 L 257.00 745.10 L 256.70 765.40 L 302.40 767.80 L 290.10 768.90 L 277.80 769.60 L 253.10 770.00 L 228.50 769.70 L 227.70 748.60 L 227.30 727.50 L 227.50 706.30 L 228.10 685.20 L 229.10 664.10 L 232.40 622.00 L 234.60 601.00 L 238.00 573.00 L 242.00 545.20 L 249.60 496.70 L 250.70 486.30 L 254.80 439.30 L 256.50 423.70 L 259.70 403.10 L 261.80 392.90 L 264.50 382.90 L 267.70 373.00 L 271.60 363.10 L 279.50 345.30 L 288.90 328.20 L 295.80 317.20 L 303.20 306.50 L 310.90 296.00 L 323.10 280.60 L 335.70 265.80 L 341.60 259.40 L 347.80 253.50 L 354.20 247.80 L 361.00 242.40 L 368.00 237.40 L 375.30 232.70 Z M 387.10 264.50 L 398.50 266.00 L 403.90 267.30 L 412.00 269.90 L 419.90 273.00 L 427.60 276.60 L 450.40 288.40 L 449.20 284.00 L 447.50 279.80 L 445.20 275.70 L 442.50 271.80 L 439.50 268.20 L 436.00 264.80 L 432.30 261.80 L 428.40 259.20 L 424.20 257.00 L 419.90 255.30 L 415.60 254.20 L 411.20 253.60 L 407.90 253.50 L 401.50 254.50 L 398.30 255.60 L 395.40 257.10 L 392.50 259.00 L 389.80 261.50 L 387.10 264.50 Z M 560.30 286.80 L 582.70 275.00 L 595.50 269.30 L 606.20 265.90 L 611.60 264.80 L 617.20 264.10 L 623.00 263.90 L 620.20 261.10 L 614.30 257.10 L 611.40 255.70 L 607.20 254.40 L 603.00 253.70 L 598.80 253.70 L 594.60 254.20 L 590.40 255.20 L 586.30 256.80 L 582.40 258.80 L 578.60 261.20 L 575.00 264.10 L 571.70 267.20 L 568.70 270.70 L 566.00 274.40 L 563.60 278.40 L 561.70 282.50 L 560.30 286.80 Z M 361.00 314.90 L 354.80 315.90 L 349.00 317.30 L 343.40 319.10 L 338.00 321.20 L 332.80 323.70 L 326.50 327.30 L 320.60 331.40 L 315.00 335.90 L 309.90 340.80 L 305.00 346.10 L 300.60 351.80 L 296.60 357.70 L 293.00 364.00 L 289.80 370.50 L 287.10 377.10 L 284.80 384.00 L 283.00 391.00 L 281.60 398.10 L 280.80 405.30 L 280.40 412.50 L 280.60 419.70 L 281.20 426.90 L 282.40 433.90 L 284.20 440.90 L 286.50 447.80 L 289.30 454.40 L 292.80 460.80 L 296.80 467.10 L 301.50 473.10 L 305.60 477.60 L 309.90 481.70 L 314.40 485.40 L 319.00 488.60 L 323.80 491.40 L 330.10 494.50 L 336.60 497.00 L 343.20 498.90 L 350.10 500.20 L 357.00 501.00 L 364.00 501.30 L 371.10 501.10 L 378.20 500.40 L 385.20 499.10 L 392.10 497.50 L 398.90 495.30 L 405.70 492.70 L 412.20 489.70 L 418.50 486.20 L 424.50 482.40 L 430.30 478.10 L 435.80 473.50 L 440.90 468.50 L 445.50 463.20 L 449.80 457.50 L 453.60 451.50 L 456.90 445.30 L 459.60 438.70 L 463.90 425.10 L 465.40 418.60 L 466.20 412.00 L 466.50 405.40 L 466.30 398.80 L 465.50 392.40 L 464.30 385.90 L 462.60 379.60 L 460.40 373.40 L 457.80 367.40 L 454.80 361.60 L 451.40 355.90 L 447.60 350.50 L 443.50 345.30 L 439.10 340.50 L 434.30 335.90 L 429.30 331.70 L 424.00 327.80 L 418.50 324.40 L 412.70 321.30 L 406.70 318.70 L 400.60 316.60 L 394.30 314.90 L 387.80 313.80 L 381.30 313.20 L 374.60 313.10 L 367.90 313.70 L 361.00 314.90 Z M 616.40 314.60 L 609.90 316.40 L 603.70 318.60 L 597.80 321.30 L 592.20 324.40 L 586.90 327.90 L 581.90 331.80 L 577.10 336.00 L 572.70 340.50 L 568.60 345.40 L 564.80 350.50 L 561.40 355.80 L 558.20 361.40 L 555.50 367.20 L 551.00 379.20 L 547.90 391.70 L 547.00 398.00 L 546.20 410.70 L 546.40 417.10 L 547.00 423.40 L 548.00 429.70 L 549.50 435.80 L 551.30 441.90 L 553.60 447.70 L 556.30 453.50 L 559.50 459.00 L 563.10 464.30 L 567.10 469.30 L 571.60 474.10 L 576.70 478.60 L 582.10 483.10 L 587.60 486.90 L 593.30 490.30 L 599.20 493.00 L 605.40 495.40 L 611.60 497.20 L 617.90 498.50 L 624.40 499.40 L 630.90 499.80 L 637.40 499.70 L 643.90 499.30 L 650.50 498.40 L 663.30 495.30 L 669.60 493.30 L 681.80 487.90 L 687.60 484.70 L 693.20 481.20 L 698.60 477.40 L 703.70 473.20 L 708.50 468.70 L 713.00 463.90 L 717.10 458.90 L 720.90 453.60 L 724.30 448.00 L 727.20 442.20 L 729.80 436.10 L 731.80 429.90 L 733.30 423.50 L 734.30 416.80 L 735.10 403.20 L 735.00 396.70 L 734.40 390.30 L 733.30 384.00 L 731.70 377.80 L 729.70 371.80 L 727.30 366.00 L 724.50 360.30 L 721.20 354.80 L 717.70 349.60 L 713.80 344.60 L 709.60 339.90 L 705.00 335.40 L 700.30 331.20 L 695.30 327.40 L 690.00 323.90 L 684.50 320.70 L 678.80 317.90 L 673.00 315.60 L 667.00 313.60 L 660.90 312.00 L 654.70 310.90 L 648.50 310.20 L 642.10 310.10 L 635.70 310.40 L 629.30 311.20 L 622.90 312.60 L 616.40 314.60 Z M 481.70 504.50 L 528.20 499.30 L 526.90 495.90 L 523.80 490.40 L 521.90 488.30 L 519.00 485.70 L 516.00 483.70 L 512.70 482.30 L 509.30 481.40 L 505.80 481.00 L 502.30 481.10 L 498.90 481.80 L 495.60 482.90 L 492.50 484.60 L 489.70 486.70 L 487.20 489.30 L 485.10 492.50 L 483.80 495.00 L 482.10 501.00 L 481.70 504.50 Z M 302.50 527.10 L 304.00 536.80 L 306.00 546.20 L 308.60 555.40 L 311.70 564.30 L 315.30 573.00 L 319.40 581.50 L 323.90 589.70 L 328.90 597.70 L 334.30 605.50 L 340.10 612.90 L 346.20 620.10 L 352.70 627.10 L 366.60 640.20 L 373.90 646.30 L 381.60 652.20 L 392.10 659.50 L 402.90 666.30 L 414.00 672.60 L 425.40 678.30 L 436.90 683.50 L 448.50 688.10 L 458.20 691.50 L 468.00 694.30 L 478.00 696.60 L 488.10 698.30 L 498.30 699.50 L 508.50 700.00 L 518.70 700.00 L 528.90 699.40 L 539.10 698.20 L 549.10 696.40 L 558.90 694.00 L 568.70 691.00 L 576.30 688.10 L 583.80 684.90 L 591.10 681.20 L 598.30 677.20 L 605.30 672.70 L 614.70 666.10 L 623.90 659.00 L 633.00 651.50 L 641.80 643.70 L 650.20 635.40 L 658.30 626.80 L 664.00 620.10 L 674.70 606.20 L 679.50 598.90 L 684.00 591.40 L 688.20 583.80 L 691.90 575.90 L 695.20 567.80 L 698.00 559.60 L 700.40 551.20 L 702.30 542.60 L 703.70 533.80 L 638.20 551.60 L 627.20 554.20 L 605.10 558.70 L 593.90 560.30 L 582.70 561.60 L 554.20 563.60 L 537.20 564.30 L 520.10 564.50 L 503.10 564.10 L 486.10 563.20 L 469.10 561.80 L 452.20 560.00 L 435.30 557.70 L 418.50 555.00 L 385.00 548.60 L 368.30 544.80 L 346.20 539.40 L 324.30 533.40 L 302.50 527.10 Z M 490.30 725.40 L 494.10 725.90 L 496.60 726.50 L 498.10 727.30 L 499.30 728.30 L 499.80 729.40 L 499.40 731.70 L 497.60 734.00 L 495.60 735.40 L 493.40 736.40 L 490.50 736.90 L 488.50 736.10 L 487.90 735.00 L 487.70 733.40 L 487.90 731.60 L 490.30 725.40 Z M 514.70 724.40 L 513.40 729.00 L 512.90 732.40 L 513.00 734.90 L 513.60 736.70 L 514.50 738.10 L 515.80 739.00 L 517.60 739.60 L 520.10 739.70 L 523.40 739.30 L 527.90 738.00 L 529.20 733.50 L 529.60 730.10 L 529.50 727.60 L 528.90 725.70 L 528.00 724.40 L 526.70 723.40 L 524.90 722.90 L 522.40 722.70 L 519.10 723.20 L 514.70 724.40 Z" fill="#fab359" fill-rule="nonzero" node-id="65" stroke="none" target-height="575.3" target-width="570.10004" target-x="227.3" target-y="214.7"></path><path d="M 616.40 314.60 L 622.90 312.60 L 629.30 311.20 L 635.70 310.40 L 642.10 310.10 L 648.50 310.20 L 654.70 310.90 L 660.90 312.00 L 667.00 313.60 L 673.00 315.60 L 678.80 317.90 L 684.50 320.70 L 690.00 323.90 L 695.30 327.40 L 700.30 331.20 L 705.00 335.40 L 709.60 339.90 L 713.80 344.60 L 717.70 349.60 L 721.20 354.80 L 724.50 360.30 L 727.30 366.00 L 729.70 371.80 L 731.70 377.80 L 733.30 384.00 L 734.40 390.30 L 735.00 396.70 L 735.10 403.20 L 734.30 416.80 L 733.30 423.50 L 731.80 429.90 L 729.80 436.10 L 727.20 442.20 L 724.30 448.00 L 720.90 453.60 L 717.10 458.90 L 713.00 463.90 L 708.50 468.70 L 703.70 473.20 L 698.60 477.40 L 693.20 481.20 L 681.80 487.90 L 669.60 493.30 L 663.30 495.30 L 657.00 497.00 L 650.50 498.40 L 643.90 499.30 L 637.40 499.70 L 630.90 499.80 L 624.40 499.40 L 617.90 498.50 L 611.60 497.20 L 605.40 495.40 L 599.20 493.00 L 593.30 490.30 L 587.60 486.90 L 582.10 483.10 L 576.70 478.60 L 571.60 474.10 L 567.10 469.30 L 563.10 464.30 L 559.50 459.00 L 556.30 453.50 L 553.60 447.70 L 551.30 441.90 L 549.50 435.80 L 548.00 429.70 L 547.00 423.40 L 546.40 417.10 L 546.20 410.70 L 547.00 398.00 L 547.90 391.70 L 551.00 379.20 L 555.50 367.20 L 558.20 361.40 L 561.40 355.80 L 564.80 350.50 L 568.60 345.40 L 572.70 340.60 L 577.10 336.00 L 581.90 331.80 L 586.90 327.90 L 592.20 324.40 L 597.80 321.30 L 603.70 318.60 L 609.90 316.40 L 616.40 314.60 Z M 608.80 332.20 L 609.90 376.20 L 621.90 383.10 L 629.60 388.50 L 632.90 391.70 L 636.40 396.50 L 637.70 399.20 L 638.60 402.00 L 639.10 405.20 L 639.20 415.60 L 637.80 421.60 L 636.20 425.50 L 634.10 429.00 L 631.60 432.40 L 628.80 435.50 L 622.20 441.00 L 616.80 444.60 L 611.20 447.70 L 599.10 438.90 L 591.20 432.50 L 587.90 428.90 L 586.00 426.30 L 583.30 420.60 L 582.60 417.60 L 582.30 414.20 L 582.70 406.40 L 583.50 402.70 L 584.80 399.30 L 586.50 396.20 L 591.10 390.40 L 595.20 386.40 L 608.20 375.70 L 608.00 354.80 L 607.30 334.10 L 601.30 336.70 L 595.90 339.80 L 590.90 343.20 L 586.30 347.10 L 582.00 351.30 L 578.10 355.90 L 574.60 360.80 L 571.50 366.00 L 568.80 371.50 L 566.50 377.10 L 564.60 382.90 L 563.00 388.90 L 561.90 395.00 L 560.80 407.30 L 561.30 419.60 L 562.10 425.70 L 563.30 431.60 L 564.90 437.50 L 566.90 443.20 L 569.30 448.70 L 572.10 453.90 L 575.30 458.80 L 578.90 463.50 L 582.80 467.80 L 587.20 471.70 L 592.00 475.30 L 597.10 478.30 L 602.60 480.90 L 608.50 483.00 L 615.00 484.60 L 615.40 489.30 L 623.90 489.30 L 632.30 488.70 L 640.80 487.60 L 649.20 486.00 L 657.40 483.80 L 665.40 481.00 L 671.20 478.50 L 676.80 475.60 L 682.30 472.50 L 687.50 468.90 L 692.50 465.10 L 697.20 460.80 L 701.60 456.20 L 709.40 446.30 L 712.60 441.30 L 715.30 436.00 L 717.70 430.60 L 719.60 424.90 L 721.00 419.10 L 722.00 413.30 L 722.60 407.40 L 722.80 401.40 L 722.50 395.50 L 721.80 389.60 L 720.60 383.70 L 719.00 378.00 L 717.00 372.50 L 714.60 367.10 L 711.70 361.90 L 708.40 357.00 L 704.70 352.40 L 700.60 348.10 L 691.30 340.30 L 686.60 337.00 L 681.60 334.20 L 676.40 331.80 L 671.00 329.80 L 665.60 328.20 L 660.00 327.00 L 654.30 326.20 L 646.60 325.70 L 638.90 325.80 L 631.20 326.60 L 623.50 327.90 L 616.10 329.80 L 608.80 332.20 Z" fill="#3b445d" fill-rule="nonzero" node-id="67" stroke="none" target-height="189.69998" target-width="188.89996" target-x="546.2" target-y="310.1"></path><path d="M 306.20 366.80 L 309.30 361.90 L 312.80 357.40 L 316.70 353.30 L 321.00 349.50 L 330.10 342.50 L 344.50 333.00 L 344.60 354.10 L 344.20 364.70 L 343.40 375.30 L 340.40 379.30 L 329.70 390.90 L 326.40 395.00 L 323.70 399.30 L 322.30 402.40 L 321.40 405.60 L 320.40 412.90 L 320.40 416.30 L 321.00 419.50 L 322.00 422.50 L 323.40 425.30 L 325.20 428.10 L 328.40 431.90 L 332.10 435.60 L 347.30 449.10 L 348.30 489.30 L 342.30 486.90 L 336.70 484.20 L 331.40 481.10 L 326.50 477.50 L 321.90 473.50 L 317.60 469.20 L 313.70 464.70 L 310.20 459.70 L 307.00 454.60 L 304.10 449.20 L 301.70 443.70 L 299.60 437.90 L 297.90 432.00 L 296.60 426.10 L 295.70 420.00 L 295.10 413.90 L 295.00 407.80 L 295.30 401.70 L 296.10 395.60 L 297.20 389.60 L 298.80 383.70 L 300.80 377.90 L 303.20 372.30 L 306.20 366.80 Z" fill="#ef764c" fill-rule="nonzero" node-id="69" stroke="none" target-height="156.29999" target-width="53.299988" target-x="295" target-y="333"></path><path d="M 615.00 484.60 L 608.50 483.00 L 602.60 480.90 L 597.10 478.30 L 592.00 475.30 L 587.20 471.70 L 582.80 467.80 L 578.90 463.50 L 575.30 458.80 L 572.10 453.90 L 569.30 448.70 L 566.90 443.20 L 564.90 437.50 L 563.30 431.60 L 562.10 425.70 L 561.30 419.60 L 560.80 407.30 L 561.90 395.00 L 563.00 388.90 L 564.60 382.90 L 566.50 377.10 L 568.80 371.50 L 571.50 366.00 L 574.60 360.80 L 578.10 355.90 L 582.00 351.30 L 586.30 347.10 L 590.90 343.20 L 595.90 339.80 L 601.30 336.70 L 607.30 334.10 L 608.00 354.80 L 608.20 375.70 L 595.20 386.40 L 591.10 390.40 L 586.50 396.20 L 584.80 399.30 L 583.50 402.70 L 582.70 406.40 L 582.30 414.20 L 582.60 417.60 L 583.30 420.60 L 586.00 426.30 L 587.90 428.90 L 591.20 432.50 L 595.00 435.80 L 611.20 447.70 L 615.00 484.60 Z" fill="#ec724d" fill-rule="nonzero" node-id="71" stroke="none" target-height="150.5" target-width="54.200012" target-x="560.8" target-y="334.1"></path><path d="M 320.90 409.20 L 321.40 405.60 L 322.30 402.40 L 323.70 399.30 L 326.40 395.00 L 329.70 390.90 L 340.40 379.30 L 343.40 375.30 L 361.70 385.20 L 366.20 388.10 L 370.10 391.20 L 372.40 393.60 L 374.30 396.20 L 375.90 399.00 L 377.00 402.10 L 377.50 405.60 L 377.80 413.60 L 377.60 417.30 L 376.90 420.60 L 375.70 423.80 L 374.20 426.80 L 372.30 429.60 L 368.90 433.50 L 364.90 437.10 L 360.60 440.40 L 347.30 449.10 L 332.10 435.60 L 328.40 431.90 L 325.20 428.10 L 323.40 425.40 L 322.00 422.50 L 321.00 419.50 L 320.40 416.30 L 320.40 412.90 L 320.90 409.20 Z" fill="#3d465c" fill-rule="nonzero" node-id="73" stroke="none" target-height="73.80002" target-width="57.399994" target-x="320.4" target-y="375.3"></path><path d="M 302.50 527.10 L 324.30 533.40 L 346.20 539.40 L 368.30 544.80 L 385.00 548.60 L 418.50 555.00 L 435.30 557.70 L 452.20 560.00 L 469.10 561.80 L 486.10 563.20 L 503.10 564.10 L 520.10 564.50 L 537.20 564.30 L 554.20 563.60 L 582.70 561.60 L 593.90 560.30 L 605.10 558.70 L 627.20 554.20 L 638.20 551.60 L 703.70 533.80 L 702.30 542.60 L 700.40 551.20 L 698.00 559.60 L 695.20 567.80 L 691.90 575.90 L 688.20 583.80 L 684.00 591.40 L 674.70 606.20 L 664.00 620.10 L 658.30 626.80 L 650.20 635.40 L 641.80 643.70 L 633.00 651.50 L 623.90 659.00 L 614.70 666.10 L 605.30 672.70 L 598.30 677.20 L 591.10 681.20 L 583.80 684.90 L 576.30 688.10 L 568.70 691.00 L 558.90 694.00 L 549.10 696.40 L 539.10 698.20 L 528.90 699.40 L 518.70 700.00 L 508.50 700.00 L 498.30 699.50 L 488.10 698.30 L 478.00 696.60 L 468.00 694.30 L 458.20 691.50 L 448.50 688.10 L 436.90 683.50 L 425.40 678.30 L 414.00 672.60 L 402.90 666.30 L 392.10 659.50 L 381.60 652.20 L 366.60 640.20 L 352.70 627.10 L 346.20 620.10 L 340.10 612.90 L 334.30 605.50 L 328.90 597.70 L 323.90 589.70 L 319.40 581.50 L 315.30 573.00 L 311.70 564.30 L 308.60 555.40 L 306.00 546.20 L 304.00 536.80 L 302.50 527.10 Z M 317.90 545.70 L 325.10 563.70 L 329.20 572.60 L 333.70 581.20 L 338.50 589.60 L 343.80 597.80 L 349.50 605.70 L 355.60 613.20 L 362.20 620.50 L 364.40 615.90 L 367.30 611.20 L 381.10 592.40 L 384.30 587.60 L 386.80 582.80 L 388.10 579.50 L 389.00 576.20 L 389.50 573.00 L 389.40 569.70 L 388.80 566.30 L 387.60 562.80 L 364.50 556.70 L 317.90 545.70 Z M 607.30 571.70 L 618.20 590.00 L 629.60 608.00 L 641.40 625.80 L 648.20 618.80 L 654.60 611.30 L 660.60 603.60 L 666.10 595.50 L 671.10 587.10 L 675.80 578.50 L 684.20 560.80 L 687.80 551.70 L 607.30 571.70 Z M 405.00 567.50 L 409.50 589.70 L 413.50 605.90 L 416.10 613.60 L 418.30 618.50 L 420.70 623.10 L 423.30 627.20 L 425.60 630.10 L 430.90 634.80 L 433.90 636.80 L 437.10 638.30 L 440.70 639.40 L 444.60 640.10 L 449.00 640.40 L 453.60 636.20 L 457.70 631.70 L 461.30 626.80 L 464.60 621.70 L 470.10 610.70 L 473.70 602.20 L 483.00 576.10 L 443.90 572.10 L 405.00 567.50 Z M 495.20 578.00 L 483.70 607.10 L 476.50 622.90 L 469.50 634.80 L 465.50 640.40 L 460.90 645.60 L 455.80 650.60 L 451.00 651.40 L 446.60 651.70 L 442.50 651.50 L 438.80 650.90 L 435.00 649.80 L 431.60 648.40 L 428.30 646.60 L 425.30 644.50 L 421.50 641.30 L 418.00 637.60 L 414.80 633.40 L 409.20 624.20 L 403.50 611.50 L 400.60 603.70 L 395.80 588.80 L 388.90 598.60 L 382.40 608.80 L 376.30 619.10 L 370.50 629.80 L 381.10 637.10 L 402.70 651.10 L 413.90 657.50 L 425.20 663.50 L 436.80 669.10 L 461.70 676.40 L 474.30 679.50 L 487.00 682.00 L 495.60 683.30 L 512.70 684.70 L 521.40 684.80 L 530.00 684.30 L 547.40 682.00 L 555.80 680.10 L 564.10 677.60 L 572.20 674.60 L 580.20 671.20 L 588.00 667.40 L 603.10 658.80 L 610.40 654.10 L 631.70 639.00 L 623.40 621.70 L 611.60 601.00 L 604.00 589.00 L 593.50 616.90 L 590.30 624.30 L 586.70 631.20 L 584.00 635.60 L 581.10 639.60 L 577.90 643.10 L 575.30 645.40 L 569.60 649.10 L 566.40 650.40 L 563.10 651.30 L 559.50 651.80 L 555.50 651.80 L 551.20 651.30 L 546.20 649.00 L 541.80 646.30 L 538.00 643.20 L 534.50 639.70 L 531.40 635.90 L 528.60 631.80 L 524.90 625.30 L 521.70 618.20 L 510.70 589.00 L 507.60 582.00 L 504.10 575.60 L 495.20 578.00 Z M 521.20 577.20 L 525.30 593.30 L 527.70 601.60 L 530.60 609.70 L 532.80 615.00 L 538.20 624.60 L 541.40 629.10 L 545.10 633.00 L 549.20 636.50 L 552.50 638.80 L 556.20 640.70 L 560.30 642.30 L 564.70 643.60 L 570.20 635.60 L 575.10 627.40 L 579.30 619.00 L 583.00 610.30 L 586.20 601.30 L 588.80 592.20 L 590.80 582.90 L 592.20 573.50 L 556.70 575.60 L 521.20 577.20 Z" fill="#38465b" fill-rule="nonzero" node-id="75" stroke="none" target-height="172.90002" target-width="401.2" target-x="302.5" target-y="527.1"></path><path d="M 495.20 578.00 L 504.10 575.60 L 507.60 582.10 L 510.70 589.00 L 521.70 618.20 L 524.90 625.30 L 528.60 631.80 L 531.40 635.90 L 534.50 639.70 L 538.00 643.20 L 541.80 646.30 L 546.20 649.00 L 551.20 651.30 L 555.50 651.80 L 559.50 651.80 L 563.10 651.30 L 566.40 650.40 L 569.60 649.10 L 575.30 645.40 L 577.90 643.10 L 581.10 639.60 L 584.00 635.60 L 586.70 631.20 L 590.30 624.30 L 593.50 616.90 L 604.00 589.00 L 611.60 601.00 L 618.80 613.30 L 627.70 630.30 L 631.70 639.00 L 621.20 646.60 L 603.10 658.80 L 588.00 667.40 L 580.20 671.20 L 572.20 674.60 L 564.10 677.60 L 555.80 680.10 L 547.40 682.00 L 538.60 683.40 L 530.00 684.30 L 521.40 684.80 L 512.70 684.70 L 495.60 683.30 L 487.00 682.00 L 474.30 679.50 L 461.70 676.40 L 436.80 669.10 L 460.90 645.60 L 465.50 640.40 L 469.50 634.80 L 476.50 622.90 L 479.50 616.60 L 483.70 607.10 L 495.20 578.00 Z" fill="#fcab52" fill-rule="nonzero" node-id="77" stroke="none" target-height="109.20001" target-width="194.90002" target-x="436.8" target-y="575.6"></path><path d="M 370.50 629.80 L 376.30 619.10 L 382.40 608.80 L 388.90 598.60 L 395.80 588.80 L 400.60 603.70 L 403.50 611.50 L 409.20 624.20 L 414.80 633.40 L 418.00 637.60 L 421.50 641.30 L 425.30 644.50 L 428.30 646.60 L 431.60 648.40 L 435.00 649.80 L 438.80 650.90 L 442.50 651.50 L 446.60 651.70 L 451.00 651.40 L 455.80 650.60 L 436.80 669.10 L 425.20 663.50 L 413.90 657.50 L 402.70 651.10 L 381.10 637.10 L 370.50 629.80 Z" fill="#e49a69" fill-rule="nonzero" node-id="79" stroke="none" target-height="80.29999" target-width="85.29999" target-x="370.5" target-y="588.8"></path><path d="M 270.20 614.50 L 274.20 631.50 L 276.60 640.00 L 293.20 690.10 L 296.90 702.60 L 300.10 715.30 L 301.70 723.80 L 302.90 732.40 L 303.70 741.10 L 303.70 754.20 L 302.40 767.80 L 256.70 765.40 L 256.70 755.20 L 257.60 735.00 L 259.00 720.00 L 260.80 704.90 L 266.90 659.80 L 268.60 644.80 L 270.00 624.60 L 270.20 614.50 Z" fill="#ec854e" fill-rule="nonzero" node-id="81" stroke="none" target-height="153.29999" target-width="47" target-x="256.7" target-y="614.5"></path><path d="M 724.30 765.90 L 723.60 752.70 L 723.50 739.40 L 723.80 726.20 L 724.50 716.40 L 725.50 706.60 L 727.00 696.80 L 728.90 687.20 L 731.30 677.70 L 734.20 668.20 L 737.70 658.90 L 741.70 649.70 L 745.40 654.00 L 751.90 662.80 L 754.50 667.40 L 757.70 673.70 L 760.40 680.20 L 762.70 686.90 L 765.60 697.10 L 768.00 707.60 L 774.40 739.50 L 777.00 750.00 L 779.00 756.90 L 784.10 770.20 L 770.80 772.90 L 757.60 775.90 L 741.10 770.30 L 724.30 765.90 Z" fill="#ea8349" fill-rule="nonzero" node-id="83" stroke="none" target-height="126.20001" target-width="60.599976" target-x="723.5" target-y="649.7"></path><path d="M 490.30 725.40 L 494.10 725.90 L 496.60 726.50 L 498.10 727.30 L 499.30 728.30 L 499.80 729.40 L 499.40 731.70 L 497.60 734.00 L 495.60 735.40 L 493.40 736.50 L 490.50 736.90 L 488.50 736.10 L 487.90 735.00 L 487.70 733.40 L 487.90 731.60 L 490.30 725.40 Z" fill="#473a2d" fill-rule="nonzero" node-id="85" stroke="none" target-height="11.5" target-width="12.099976" target-x="487.7" target-y="725.4"></path><path d="M 514.70 724.40 L 519.10 723.20 L 522.40 722.70 L 524.90 722.90 L 526.70 723.40 L 528.00 724.40 L 528.90 725.70 L 529.50 727.60 L 529.60 730.10 L 529.20 733.50 L 527.90 738.00 L 523.40 739.30 L 520.10 739.70 L 517.60 739.60 L 515.80 739.00 L 514.50 738.10 L 513.60 736.70 L 513.00 734.90 L 512.90 732.40 L 513.40 729.00 L 514.70 724.40 Z" fill="#805d3f" fill-rule="nonzero" node-id="87" stroke="none" target-height="17" target-width="16.699951" target-x="512.9" target-y="722.7"></path><path d="M 339.80 756.90 L 395.30 772.10 L 426.30 780.00 L 451.30 785.20 L 463.90 787.30 L 476.70 788.90 L 489.50 790.00 L 489.40 793.10 L 489.80 795.70 L 490.80 798.00 L 492.20 800.00 L 494.00 801.70 L 498.50 804.20 L 501.00 805.00 L 506.50 805.60 L 511.80 805.00 L 514.40 804.20 L 518.60 801.80 L 520.30 800.20 L 521.50 798.20 L 522.30 795.90 L 522.60 793.50 L 522.20 790.60 L 521.10 787.20 L 546.00 784.70 L 570.90 781.60 L 670.00 767.90 L 670.30 792.30 L 670.10 816.70 L 669.60 833.00 L 668.70 849.20 L 667.30 865.40 L 665.50 881.50 L 663.10 897.60 L 660.00 913.60 L 619.30 914.30 L 619.00 864.90 L 617.90 815.60 L 565.40 822.30 L 552.30 823.70 L 539.10 824.70 L 528.10 825.10 L 517.10 825.10 L 506.10 824.70 L 489.70 823.60 L 440.50 819.00 L 429.60 818.30 L 407.60 817.70 L 408.70 877.60 L 408.90 907.60 L 408.40 937.60 L 392.50 939.00 L 376.60 940.00 L 360.70 940.40 L 344.80 940.30 L 328.80 939.70 L 312.90 938.40 L 313.80 934.70 L 315.00 931.50 L 316.50 928.70 L 318.20 926.40 L 321.00 923.60 L 324.10 921.30 L 327.70 919.40 L 335.60 916.60 L 339.80 915.60 L 359.30 912.20 L 365.10 910.80 L 356.50 860.60 L 353.70 835.40 L 352.80 822.70 L 352.60 810.10 L 353.50 792.30 L 353.30 787.40 L 352.50 782.70 L 351.20 778.10 L 349.50 773.60 L 347.40 769.30 L 343.80 763.00 L 339.80 756.90 Z" fill="#ed8f4b" fill-rule="nonzero" node-id="89" stroke="none" target-height="183.5" target-width="357.4" target-x="312.9" target-y="756.9"></path><path d="M 489.50 790.00 L 510.50 787.80 L 521.10 787.20 L 522.20 790.60 L 522.60 793.50 L 522.30 795.90 L 521.50 798.20 L 520.30 800.20 L 518.60 801.80 L 516.60 803.20 L 511.80 805.00 L 506.50 805.60 L 503.70 805.50 L 501.00 805.00 L 496.10 803.10 L 494.00 801.70 L 492.20 800.00 L 490.80 798.00 L 489.80 795.70 L 489.40 793.10 L 489.50 790.00 Z" fill="#905c4b" fill-rule="nonzero" node-id="91" stroke="none" target-height="18.399963" target-width="33.19998" target-x="489.4" target-y="787.2"></path><path d="M 619.30 914.30 L 660.00 913.60 L 668.80 914.60 L 690.70 915.10 L 696.10 915.60 L 704.10 917.40 L 709.10 920.00 L 711.10 921.70 L 712.60 923.90 L 713.70 926.50 L 714.30 930.90 L 713.40 936.90 L 703.10 938.20 L 692.70 939.10 L 682.30 939.60 L 666.60 939.80 L 650.90 939.40 L 619.60 938.00 L 619.30 914.30 Z" fill="#fba73f" fill-rule="nonzero" node-id="93" stroke="none" target-height="26.200012" target-width="95" target-x="619.3" target-y="913.6"></path></svg>