<?xml version="1.0" standalone="no"?><!DOCTYPE svg PUBLIC "-//W3C//DTD SVG 1.1//EN" "http://www.w3.org/Graphics/SVG/1.1/DTD/svg11.dtd"><svg height="1024" node-id="1" sillyvg="true" template-height="1024" template-width="1024" version="1.1" viewBox="0 0 1024 1024" width="1024" xmlns="http://www.w3.org/2000/svg" xmlns:xlink="http://www.w3.org/1999/xlink"><defs node-id="40"></defs><path d="M 0.00 0.00 L 1024.00 0.00 L 1024.00 1024.00 L 0.00 1024.00 Z" fill="#ffffff" fill-rule="nonzero" node-id="42" stroke="none" target-height="1024" target-width="1024" target-x="0" target-y="0"></path><path d="M 723.60 214.20 L 743.50 206.10 L 754.80 202.70 L 759.40 201.90 L 764.00 201.50 L 768.60 201.70 L 773.30 202.50 L 778.10 203.90 L 775.60 210.50 L 772.80 217.00 L 766.10 229.40 L 764.30 226.30 L 762.30 224.00 L 760.20 222.30 L 757.70 221.10 L 755.10 220.20 L 752.30 219.80 L 748.00 219.70 L 734.70 221.00 L 723.60 214.20 Z" fill="#ffffff" fill-rule="nonzero" node-id="44" stroke="none" target-height="27.899994" target-width="54.5" target-x="723.6" target-y="201.5"></path><path d="M 502.50 176.50 L 509.30 163.10 L 517.20 150.20 L 521.70 144.10 L 526.50 138.40 L 531.80 133.00 L 537.40 128.00 L 543.60 123.50 L 542.30 140.40 L 502.50 176.50 Z" fill="#f0eedb" fill-rule="nonzero" node-id="46" stroke="none" target-height="53" target-width="41.099976" target-x="502.5" target-y="123.5"></path><path d="M 286.00 266.10 L 301.20 258.20 L 309.20 254.50 L 323.00 249.40 L 334.20 246.70 L 339.90 245.90 L 345.50 245.60 L 351.20 245.70 L 356.80 246.40 L 362.40 247.60 L 368.00 249.50 L 354.80 251.00 L 342.00 253.90 L 333.70 256.70 L 325.60 259.90 L 317.60 263.60 L 309.80 267.80 L 302.30 272.30 L 294.90 277.20 L 306.00 283.40 L 300.60 284.00 L 290.30 286.20 L 285.40 287.90 L 279.00 290.50 L 272.80 293.60 L 266.80 297.20 L 258.10 303.00 L 249.70 309.40 L 249.90 305.20 L 250.60 301.30 L 251.80 297.60 L 253.50 294.20 L 255.40 290.90 L 257.80 287.80 L 261.80 283.60 L 266.40 279.60 L 271.20 275.90 L 286.00 266.10 Z" fill="#f0eedb" fill-rule="nonzero" node-id="48" stroke="none" target-height="63.799988" target-width="118.3" target-x="249.7" target-y="245.6"></path><path d="M 648.60 260.70 L 650.30 257.60 L 652.10 255.20 L 654.00 253.30 L 656.00 251.80 L 659.10 250.40 L 662.40 249.70 L 665.90 249.50 L 673.00 250.50 L 676.80 251.60 L 687.80 256.20 L 697.70 261.20 L 714.20 272.00 L 719.60 276.00 L 723.00 278.90 L 728.80 285.20 L 731.20 288.60 L 732.90 292.30 L 734.20 296.20 L 734.70 299.20 L 734.70 302.40 L 734.40 305.80 L 733.60 309.60 L 728.50 302.70 L 723.00 296.20 L 717.10 290.00 L 710.70 284.20 L 704.10 279.00 L 697.00 274.20 L 691.50 271.10 L 685.90 268.30 L 680.00 265.90 L 674.00 263.90 L 667.90 262.40 L 661.70 261.30 L 655.20 260.80 L 648.60 260.70 Z" fill="#f0eedb" fill-rule="nonzero" node-id="50" stroke="none" target-height="60.100006" target-width="86.10004" target-x="648.6" target-y="249.5"></path><path d="M 623.70 285.20 L 626.80 283.80 L 629.80 282.90 L 632.90 282.50 L 639.10 282.90 L 642.30 283.60 L 651.70 286.90 L 665.60 293.00 L 669.90 294.50 L 688.10 304.70 L 694.20 308.40 L 699.90 312.50 L 705.20 317.00 L 708.30 320.30 L 711.10 323.80 L 713.50 327.60 L 715.50 331.60 L 716.90 336.10 L 717.90 340.90 L 707.40 331.90 L 689.40 317.30 L 674.30 306.70 L 666.40 301.80 L 658.40 297.40 L 650.10 293.50 L 643.80 290.90 L 630.60 286.70 L 623.70 285.20 Z" fill="#f0eedb" fill-rule="nonzero" node-id="52" stroke="none" target-height="58.399994" target-width="94.20001" target-x="623.7" target-y="282.5"></path><path d="M 592.60 432.30 L 592.90 429.60 L 593.50 427.40 L 594.50 425.60 L 595.80 424.00 L 599.20 421.90 L 603.20 421.00 L 605.40 421.00 L 608.60 421.50 L 611.80 422.60 L 613.70 423.70 L 617.00 426.60 L 610.80 440.80 L 608.20 438.20 L 605.50 436.10 L 602.60 434.50 L 599.50 433.30 L 596.20 432.60 L 592.60 432.30 Z" fill="#f0eedb" fill-rule="nonzero" node-id="54" stroke="none" target-height="19.799988" target-width="24.400024" target-x="592.6" target-y="421"></path><path d="M 527.00 119.80 L 532.40 116.30 L 535.50 114.70 L 538.90 113.30 L 542.30 112.40 L 545.50 112.00 L 547.60 112.20 L 549.50 112.70 L 551.20 113.60 L 552.60 114.90 L 553.90 116.70 L 554.90 119.30 L 556.10 128.60 L 556.70 138.00 L 556.70 147.30 L 555.60 166.10 L 552.10 189.50 L 543.70 231.10 L 556.40 220.40 L 563.80 214.70 L 570.20 211.50 L 573.60 210.50 L 577.10 210.00 L 580.90 210.00 L 583.40 211.20 L 585.20 212.60 L 586.60 214.20 L 588.40 218.30 L 589.20 224.20 L 588.40 235.00 L 587.20 242.00 L 585.50 248.80 L 583.30 255.40 L 577.80 268.30 L 574.60 274.60 L 569.30 283.80 L 563.70 292.80 L 599.10 294.90 L 601.60 290.00 L 604.50 285.50 L 607.80 281.30 L 613.10 275.30 L 630.50 258.30 L 637.50 250.20 L 640.70 245.80 L 644.60 244.30 L 651.70 240.50 L 656.60 236.90 L 661.20 233.00 L 674.70 220.80 L 682.60 215.20 L 689.80 212.10 L 693.60 211.10 L 697.80 210.60 L 702.50 210.50 L 695.40 225.50 L 693.40 224.80 L 691.40 224.50 L 689.30 224.70 L 687.20 225.20 L 683.70 227.00 L 682.30 228.40 L 681.30 229.90 L 680.80 231.60 L 680.70 233.40 L 681.30 235.30 L 682.70 237.40 L 702.60 235.80 L 701.70 243.50 L 712.30 241.70 L 713.70 252.70 L 713.80 242.50 L 732.60 250.40 L 730.60 256.10 L 733.30 255.80 L 735.60 256.00 L 737.60 256.50 L 741.00 258.60 L 744.30 262.70 L 749.30 271.50 L 752.60 254.20 L 741.40 243.40 L 735.40 238.10 L 729.20 233.30 L 724.90 230.40 L 720.30 227.90 L 715.60 225.90 L 712.00 224.70 L 704.30 223.40 L 700.20 223.20 L 703.00 218.70 L 706.10 214.50 L 709.50 210.80 L 713.30 207.50 L 717.40 204.50 L 726.20 199.60 L 730.90 197.60 L 737.40 195.40 L 744.10 193.60 L 750.90 192.40 L 764.70 191.00 L 774.00 191.00 L 776.50 191.40 L 781.00 193.40 L 784.80 196.50 L 787.60 200.70 L 789.00 205.40 L 789.10 207.90 L 788.80 210.50 L 787.50 216.00 L 785.80 221.40 L 783.70 226.60 L 780.10 234.20 L 776.10 241.60 L 767.20 255.90 L 767.20 261.80 L 766.60 267.40 L 765.50 272.80 L 763.90 278.10 L 761.80 283.20 L 759.10 288.00 L 755.80 292.60 L 752.00 297.00 L 750.60 305.40 L 747.40 315.40 L 737.10 338.60 L 733.90 347.40 L 732.70 350.00 L 731.20 352.20 L 728.30 355.10 L 725.00 357.70 L 721.40 359.90 L 710.10 365.80 L 710.80 387.50 L 710.70 398.60 L 710.20 409.60 L 709.10 420.50 L 707.60 431.40 L 706.10 439.50 L 702.00 455.30 L 699.40 463.00 L 696.40 470.60 L 693.00 478.00 L 689.10 485.20 L 680.90 497.90 L 676.70 503.20 L 672.30 508.10 L 667.50 512.80 L 657.10 521.20 L 645.90 528.40 L 637.90 532.50 L 629.80 536.10 L 621.40 539.30 L 620.60 545.20 L 618.90 571.70 L 617.90 578.10 L 616.90 582.20 L 615.50 586.10 L 613.80 589.70 L 611.60 593.10 L 608.90 596.10 L 605.60 598.90 L 601.70 599.20 L 598.20 599.00 L 595.10 598.40 L 592.20 597.40 L 588.60 595.50 L 585.30 593.00 L 582.30 590.00 L 577.30 582.90 L 575.00 578.90 L 572.00 572.60 L 564.20 554.40 L 561.50 555.90 L 558.20 557.10 L 547.80 560.20 L 542.60 562.60 L 539.40 565.30 L 538.20 567.00 L 537.40 569.10 L 536.90 571.50 L 534.50 599.70 L 534.40 606.90 L 534.80 614.00 L 535.50 618.60 L 536.50 623.10 L 538.00 627.40 L 539.90 631.50 L 542.30 635.40 L 545.40 639.20 L 549.40 642.30 L 553.50 644.80 L 557.60 646.90 L 561.80 648.60 L 567.60 650.30 L 573.60 651.50 L 579.70 652.20 L 589.00 652.60 L 627.10 650.80 L 639.40 650.90 L 642.40 651.40 L 645.10 652.30 L 650.10 655.30 L 655.60 660.60 L 658.50 664.00 L 649.80 674.20 L 655.80 679.60 L 658.50 682.80 L 660.60 686.10 L 662.40 690.60 L 662.60 692.60 L 662.30 694.50 L 661.50 696.30 L 660.00 697.90 L 658.10 699.10 L 655.20 700.20 L 651.20 701.00 L 652.40 704.20 L 653.00 706.80 L 653.00 709.00 L 652.40 711.10 L 651.50 712.70 L 650.10 714.10 L 648.40 715.10 L 646.40 715.70 L 644.10 716.00 L 639.00 715.50 L 636.20 714.50 L 637.10 725.40 L 636.90 729.20 L 636.30 732.80 L 635.20 735.90 L 634.10 737.80 L 632.60 739.20 L 630.80 740.40 L 628.80 741.10 L 626.20 741.30 L 623.00 741.00 L 616.40 736.30 L 610.20 731.30 L 591.90 715.30 L 585.70 710.20 L 579.20 705.50 L 572.40 701.40 L 567.60 698.90 L 562.60 696.90 L 557.30 695.20 L 559.00 736.30 L 559.90 750.00 L 561.90 768.20 L 563.40 777.20 L 565.40 786.10 L 567.80 794.80 L 570.80 803.30 L 573.40 809.50 L 576.30 815.70 L 586.80 833.40 L 602.40 857.00 L 605.60 863.10 L 607.40 867.30 L 608.80 871.50 L 610.00 879.00 L 609.50 885.80 L 608.70 889.40 L 595.50 894.80 L 591.60 897.20 L 589.20 899.20 L 587.20 901.60 L 585.30 904.50 L 568.40 892.30 L 568.30 897.40 L 567.70 900.00 L 565.80 904.80 L 563.00 908.70 L 561.30 910.20 L 559.60 911.30 L 557.70 911.90 L 555.70 912.00 L 553.70 911.50 L 551.80 910.40 L 549.80 908.60 L 547.60 905.70 L 541.70 908.20 L 538.60 909.10 L 535.70 909.40 L 533.80 909.30 L 530.50 908.00 L 529.20 906.80 L 528.00 905.00 L 527.00 902.40 L 525.80 897.90 L 524.40 888.80 L 523.90 874.80 L 524.20 853.60 L 524.00 846.60 L 523.30 839.60 L 522.00 832.70 L 520.10 830.10 L 517.90 828.00 L 515.60 826.60 L 512.90 825.60 L 507.10 824.40 L 488.90 824.00 L 467.80 824.60 L 460.90 825.70 L 457.60 826.60 L 454.60 827.90 L 451.60 829.70 L 448.90 832.00 L 446.40 840.90 L 444.50 849.90 L 443.10 859.00 L 438.90 905.10 L 435.50 906.00 L 432.40 906.40 L 429.30 906.20 L 426.40 905.60 L 420.60 903.30 L 412.40 898.20 L 409.70 901.80 L 406.70 904.80 L 403.40 907.40 L 399.90 909.40 L 396.00 911.00 L 393.30 911.00 L 391.30 910.50 L 389.80 909.80 L 387.40 907.40 L 386.50 905.80 L 385.70 903.10 L 384.00 890.80 L 383.30 888.20 L 381.20 890.50 L 379.00 892.20 L 376.60 893.60 L 371.70 895.20 L 369.40 895.40 L 367.00 895.20 L 364.90 894.60 L 362.90 893.60 L 361.20 892.30 L 359.80 890.50 L 358.80 888.20 L 358.20 885.70 L 358.00 882.70 L 358.40 879.10 L 361.80 869.40 L 365.60 859.90 L 369.80 850.60 L 376.70 836.80 L 403.20 786.80 L 411.60 768.20 L 412.70 750.40 L 413.20 732.50 L 413.90 696.80 L 407.40 699.00 L 401.10 701.70 L 395.10 704.80 L 389.30 708.20 L 378.40 716.10 L 370.70 722.80 L 361.60 731.90 L 359.70 733.40 L 357.60 734.50 L 355.40 735.20 L 350.80 735.50 L 348.60 735.10 L 344.60 733.30 L 342.80 731.90 L 341.40 730.30 L 340.20 728.30 L 339.50 726.10 L 339.10 723.70 L 339.30 720.90 L 335.50 722.20 L 332.10 722.90 L 329.00 723.10 L 325.90 722.70 L 323.30 721.90 L 320.90 720.60 L 318.90 718.80 L 317.30 716.60 L 316.00 713.80 L 315.30 710.90 L 315.10 707.40 L 315.50 703.30 L 310.10 701.40 L 307.10 699.00 L 305.80 697.00 L 305.10 694.80 L 305.00 692.40 L 305.30 689.90 L 307.20 684.40 L 309.20 680.40 L 316.50 669.60 L 315.50 651.80 L 321.00 649.40 L 326.50 647.70 L 332.00 646.60 L 343.40 645.80 L 358.00 646.50 L 384.40 648.80 L 396.00 648.60 L 401.70 647.90 L 407.20 646.70 L 412.80 645.00 L 418.20 642.50 L 421.60 639.30 L 424.60 635.90 L 429.40 628.80 L 431.90 623.60 L 434.00 618.30 L 435.60 612.70 L 437.80 601.30 L 438.40 595.30 L 439.00 586.40 L 439.60 560.10 L 417.80 553.90 L 407.00 550.40 L 396.40 546.40 L 387.80 565.50 L 384.50 571.60 L 379.50 579.30 L 376.50 582.80 L 373.30 585.90 L 369.60 588.70 L 363.40 592.30 L 358.80 593.80 L 356.40 594.10 L 351.60 593.90 L 349.30 593.40 L 345.00 591.40 L 343.20 589.90 L 341.60 588.10 L 340.30 585.90 L 336.70 573.10 L 335.50 566.50 L 334.30 556.60 L 333.50 546.70 L 332.80 526.70 L 324.70 523.70 L 316.90 520.40 L 309.30 516.50 L 301.80 512.20 L 294.80 507.40 L 288.00 502.20 L 281.60 496.60 L 275.70 490.50 L 270.30 484.00 L 266.50 478.80 L 263.10 473.40 L 260.00 467.80 L 257.20 461.90 L 254.50 454.80 L 252.00 447.70 L 248.40 433.20 L 246.80 423.30 L 245.70 413.30 L 245.20 403.30 L 245.20 393.20 L 245.70 383.20 L 246.70 373.10 L 248.00 363.10 L 251.80 343.50 L 248.90 339.60 L 246.40 335.60 L 244.50 331.50 L 241.50 323.00 L 240.50 318.50 L 239.30 311.70 L 236.50 284.00 L 235.00 273.60 L 235.10 270.20 L 235.60 266.80 L 236.90 261.80 L 238.80 256.90 L 245.40 244.30 L 248.30 237.10 L 249.90 231.60 L 253.50 214.40 L 255.00 208.90 L 257.10 203.50 L 258.90 200.10 L 261.10 196.90 L 267.30 189.10 L 270.80 184.20 L 288.80 153.90 L 294.00 146.00 L 297.80 140.90 L 301.70 136.30 L 305.90 132.10 L 309.30 129.20 L 312.90 126.70 L 316.80 124.50 L 320.80 122.60 L 325.00 121.20 L 329.60 120.20 L 334.50 119.60 L 339.90 119.50 L 342.10 126.90 L 343.60 134.40 L 344.70 141.90 L 348.40 179.90 L 353.30 187.60 L 357.60 195.50 L 372.90 228.10 L 383.60 248.30 L 386.70 257.20 L 390.00 271.00 L 414.40 273.20 L 430.60 275.70 L 438.60 277.40 L 434.80 269.70 L 431.50 261.80 L 429.60 256.40 L 426.80 245.40 L 426.10 239.80 L 425.80 234.20 L 426.10 228.40 L 426.50 226.10 L 428.20 221.80 L 429.60 219.90 L 432.90 216.80 L 436.90 214.80 L 441.40 214.20 L 443.70 214.40 L 446.00 215.20 L 449.30 216.80 L 455.10 220.90 L 459.00 224.60 L 470.20 236.30 L 474.20 214.70 L 476.80 203.80 L 479.90 193.10 L 483.50 182.60 L 487.70 172.30 L 491.20 164.80 L 495.10 157.50 L 499.40 150.50 L 504.10 143.70 L 509.10 137.20 L 514.60 131.10 L 520.60 125.30 L 527.00 119.80 Z M 502.50 176.50 L 499.30 182.20 L 494.10 194.00 L 492.10 200.10 L 489.90 208.40 L 488.10 216.80 L 486.70 225.40 L 485.10 238.30 L 481.40 277.00 L 479.00 276.00 L 476.90 274.70 L 475.00 273.10 L 472.60 270.10 L 470.50 266.70 L 464.80 255.40 L 462.50 251.90 L 460.80 249.80 L 456.70 246.30 L 456.80 243.10 L 440.40 228.50 L 441.20 237.60 L 442.60 246.60 L 444.00 252.50 L 447.60 264.10 L 450.00 269.60 L 452.80 275.00 L 457.20 282.50 L 460.10 286.10 L 462.80 288.40 L 469.10 291.90 L 478.90 296.30 L 483.80 284.60 L 488.50 283.70 L 493.20 283.30 L 498.00 283.20 L 512.20 283.90 L 522.70 253.00 L 527.40 237.20 L 531.60 221.30 L 535.20 205.30 L 538.10 189.20 L 539.90 177.10 L 541.20 164.90 L 542.00 152.70 L 542.30 140.40 L 543.60 123.50 L 537.40 128.00 L 531.80 133.00 L 526.50 138.40 L 521.70 144.10 L 517.20 150.20 L 513.10 156.50 L 509.30 163.10 L 502.50 176.50 Z M 287.20 172.90 L 309.60 168.40 L 317.10 167.20 L 324.70 166.50 L 332.30 166.30 L 332.60 156.40 L 332.50 146.50 L 331.90 136.70 L 330.70 126.90 L 324.50 130.60 L 318.70 134.70 L 313.10 139.20 L 307.80 144.00 L 302.90 149.10 L 298.40 154.60 L 294.20 160.40 L 290.50 166.50 L 287.20 172.90 Z M 260.00 229.50 L 284.60 216.60 L 292.60 211.90 L 308.00 201.80 L 330.50 200.60 L 342.80 190.70 L 340.10 187.30 L 337.20 184.50 L 334.00 182.40 L 330.60 180.70 L 326.90 179.40 L 323.00 178.50 L 317.10 177.80 L 310.90 177.70 L 304.80 178.00 L 295.20 178.80 L 291.80 179.50 L 288.60 180.60 L 285.60 182.00 L 281.80 184.40 L 278.40 187.30 L 275.30 190.70 L 270.10 198.40 L 267.80 202.70 L 265.10 209.40 L 262.90 216.20 L 261.20 223.10 L 260.00 229.50 Z M 723.60 214.20 L 734.70 221.00 L 748.00 219.70 L 752.30 219.80 L 755.10 220.20 L 757.70 221.10 L 760.20 222.30 L 762.30 224.00 L 764.30 226.30 L 766.10 229.40 L 772.80 217.00 L 775.60 210.50 L 778.10 203.90 L 773.30 202.50 L 768.60 201.70 L 764.00 201.50 L 759.40 201.90 L 754.80 202.70 L 743.50 206.10 L 723.60 214.20 Z M 246.10 288.20 L 260.90 275.80 L 276.00 263.80 L 277.00 258.20 L 277.40 263.80 L 289.00 256.40 L 300.90 249.60 L 313.10 243.20 L 325.50 237.40 L 338.10 232.00 L 351.10 227.20 L 353.20 225.70 L 354.50 224.30 L 355.10 222.90 L 355.40 221.40 L 355.20 219.90 L 354.50 218.40 L 353.00 216.30 L 350.70 214.30 L 348.00 212.80 L 345.00 211.60 L 341.90 211.00 L 339.00 211.00 L 337.20 211.30 L 335.60 212.10 L 334.20 213.10 L 327.40 213.40 L 320.30 214.10 L 312.80 215.30 L 305.50 217.00 L 298.20 219.10 L 290.90 221.60 L 283.90 224.70 L 277.20 228.20 L 270.90 232.10 L 266.40 235.40 L 262.30 238.90 L 258.50 242.60 L 255.10 246.60 L 252.10 250.90 L 249.60 255.40 L 247.60 260.20 L 246.00 265.30 L 245.20 269.40 L 244.80 273.70 L 244.80 278.30 L 245.20 283.10 L 246.10 288.20 Z M 514.40 299.00 L 517.40 300.00 L 520.30 300.70 L 526.20 300.80 L 529.00 300.20 L 531.80 299.20 L 534.50 297.80 L 541.50 292.60 L 549.50 285.10 L 553.20 281.00 L 557.60 275.20 L 561.50 269.10 L 565.00 262.60 L 568.10 255.90 L 570.60 249.10 L 572.80 242.00 L 574.40 234.80 L 575.60 227.60 L 576.40 220.40 L 569.20 225.00 L 562.40 230.00 L 555.90 235.50 L 549.90 241.40 L 544.20 247.70 L 538.80 254.30 L 533.90 261.20 L 529.30 268.40 L 525.00 275.80 L 521.10 283.40 L 514.40 299.00 Z M 286.00 266.10 L 271.20 275.90 L 266.40 279.60 L 261.80 283.60 L 257.80 287.80 L 255.40 290.90 L 253.50 294.20 L 251.80 297.60 L 250.60 301.30 L 249.90 305.20 L 249.70 309.40 L 258.10 303.00 L 266.80 297.20 L 272.80 293.60 L 279.00 290.50 L 285.40 287.90 L 295.40 284.90 L 306.00 283.40 L 320.60 279.10 L 335.20 274.30 L 363.90 263.40 L 368.00 249.50 L 362.40 247.60 L 356.80 246.40 L 351.20 245.70 L 345.50 245.60 L 339.90 245.90 L 334.20 246.70 L 323.00 249.40 L 317.40 251.30 L 309.20 254.50 L 301.20 258.20 L 286.00 266.10 Z M 648.60 260.70 L 655.20 260.80 L 661.70 261.30 L 667.90 262.40 L 674.00 263.90 L 680.00 265.90 L 685.90 268.30 L 691.50 271.10 L 697.00 274.20 L 704.10 279.00 L 710.70 284.20 L 717.10 290.00 L 723.00 296.20 L 728.50 302.70 L 733.60 309.60 L 734.40 305.80 L 734.70 302.40 L 734.70 299.20 L 734.20 296.20 L 732.90 292.30 L 731.20 288.60 L 728.80 285.20 L 723.00 278.90 L 719.60 276.00 L 714.20 272.00 L 697.70 261.20 L 687.80 256.20 L 676.80 251.60 L 673.00 250.50 L 665.90 249.50 L 662.40 249.70 L 659.10 250.40 L 656.00 251.80 L 654.00 253.30 L 652.10 255.20 L 650.30 257.60 L 648.60 260.70 Z M 623.70 285.20 L 630.60 286.70 L 643.80 290.90 L 650.10 293.50 L 658.40 297.40 L 666.40 301.80 L 674.30 306.70 L 689.40 317.30 L 707.40 331.90 L 717.90 340.90 L 716.90 336.10 L 715.50 331.60 L 713.50 327.60 L 711.10 323.80 L 708.30 320.30 L 705.20 317.00 L 699.90 312.50 L 694.20 308.40 L 688.10 304.70 L 669.90 294.50 L 665.60 293.00 L 651.70 286.90 L 642.30 283.60 L 639.10 282.90 L 632.90 282.50 L 629.80 282.90 L 626.80 283.80 L 623.70 285.20 Z M 342.20 287.70 L 334.00 289.40 L 325.90 291.70 L 318.00 294.60 L 312.20 297.20 L 301.30 303.30 L 291.10 310.60 L 286.50 314.70 L 282.20 319.10 L 278.10 323.80 L 274.40 328.70 L 271.20 333.90 L 268.30 339.30 L 265.80 345.00 L 263.80 350.80 L 262.30 356.90 L 261.30 363.30 L 259.30 387.00 L 259.20 404.20 L 259.80 412.80 L 260.90 421.30 L 262.40 429.70 L 264.40 438.00 L 267.00 446.10 L 269.30 452.10 L 274.90 463.60 L 278.30 469.20 L 281.60 474.20 L 285.30 479.00 L 289.20 483.40 L 293.40 487.50 L 299.40 492.60 L 305.80 497.30 L 312.50 501.50 L 319.50 505.30 L 334.00 511.80 L 342.00 475.60 L 333.30 476.00 L 324.90 474.70 L 316.80 472.00 L 309.30 468.00 L 305.90 465.60 L 299.70 459.80 L 297.00 456.60 L 294.60 453.10 L 292.50 449.30 L 290.70 445.40 L 287.70 436.10 L 286.50 431.00 L 285.90 425.80 L 285.80 420.70 L 286.50 410.30 L 287.90 402.50 L 289.70 394.80 L 294.10 379.70 L 305.70 363.10 L 310.00 358.00 L 313.10 354.90 L 316.60 352.10 L 320.40 349.70 L 325.00 347.40 L 329.70 345.80 L 334.50 344.70 L 339.50 344.10 L 344.50 344.10 L 349.50 344.70 L 354.40 345.70 L 359.10 347.30 L 363.70 349.30 L 368.00 351.80 L 372.00 354.70 L 375.60 358.10 L 378.10 361.00 L 382.10 367.30 L 387.70 379.00 L 403.00 414.50 L 407.10 423.10 L 413.40 434.10 L 417.00 439.30 L 420.80 444.10 L 425.00 448.60 L 429.60 452.80 L 433.30 455.60 L 441.50 460.50 L 446.10 462.60 L 453.70 464.50 L 461.40 466.10 L 469.50 467.20 L 477.50 467.90 L 485.60 468.00 L 493.60 467.50 L 499.60 466.70 L 505.40 465.50 L 511.10 463.90 L 516.70 461.80 L 522.00 459.40 L 527.10 456.40 L 532.00 453.00 L 541.40 444.90 L 549.90 436.00 L 555.60 428.80 L 560.90 421.30 L 576.00 398.10 L 581.30 390.50 L 585.00 385.60 L 593.10 376.40 L 602.00 371.20 L 607.10 368.80 L 617.50 364.80 L 623.00 363.30 L 628.50 362.20 L 633.90 361.70 L 639.20 361.60 L 643.10 362.00 L 647.00 362.70 L 650.70 363.80 L 654.20 365.30 L 657.60 367.20 L 660.70 369.50 L 663.80 372.50 L 666.60 375.90 L 670.40 381.00 L 673.50 386.20 L 676.20 391.60 L 678.30 397.10 L 680.00 402.90 L 681.20 408.70 L 682.00 414.50 L 682.20 420.50 L 682.00 426.40 L 681.40 432.30 L 680.40 438.20 L 678.90 444.00 L 677.00 449.70 L 674.70 455.10 L 672.10 460.40 L 669.00 465.60 L 665.60 470.50 L 661.80 475.00 L 657.70 479.30 L 653.20 483.20 L 648.40 486.80 L 643.20 489.90 L 637.80 492.60 L 632.00 494.90 L 634.50 501.60 L 631.20 502.30 L 629.20 503.40 L 626.40 505.30 L 623.80 507.80 L 621.60 510.60 L 620.10 513.40 L 619.50 515.40 L 619.40 517.10 L 619.70 518.70 L 620.50 520.00 L 622.00 521.20 L 624.30 522.10 L 630.60 519.60 L 636.60 516.70 L 642.30 513.40 L 647.60 509.80 L 652.80 505.70 L 657.60 501.40 L 662.20 496.80 L 666.50 491.80 L 671.70 484.90 L 676.50 477.50 L 680.80 469.80 L 684.50 461.80 L 687.70 453.60 L 690.50 445.20 L 692.70 436.60 L 694.40 428.00 L 696.40 410.40 L 697.00 400.90 L 697.20 391.40 L 696.70 381.90 L 696.00 375.60 L 694.90 369.40 L 693.40 363.40 L 691.50 357.60 L 689.00 352.00 L 686.10 346.60 L 683.50 342.90 L 680.60 339.30 L 677.20 335.80 L 673.50 332.60 L 668.10 328.70 L 656.80 322.10 L 650.80 319.30 L 642.80 315.90 L 634.50 313.00 L 626.00 310.50 L 613.10 307.40 L 600.10 304.80 L 570.60 299.90 L 567.10 299.70 L 560.40 300.70 L 554.00 303.00 L 544.80 307.90 L 536.10 313.40 L 538.20 324.60 L 538.80 328.40 L 538.90 332.10 L 538.40 335.70 L 537.70 338.00 L 536.50 340.20 L 534.70 342.40 L 532.10 344.20 L 529.60 345.30 L 527.20 345.80 L 524.80 345.80 L 522.40 345.40 L 520.00 344.60 L 516.60 342.90 L 513.20 340.60 L 501.30 329.80 L 491.40 338.40 L 485.50 342.50 L 480.40 344.40 L 477.80 344.60 L 474.90 344.30 L 471.70 343.20 L 469.80 340.90 L 468.50 338.60 L 467.70 336.40 L 467.30 331.60 L 468.60 325.60 L 470.10 321.90 L 476.90 307.80 L 454.90 295.20 L 442.50 288.60 L 432.10 284.60 L 426.70 283.20 L 421.20 282.20 L 387.50 280.70 L 371.90 281.00 L 359.70 282.50 L 353.70 283.80 L 347.90 285.50 L 342.20 287.70 Z M 491.20 291.10 L 490.10 292.90 L 489.60 294.70 L 489.90 298.10 L 491.60 301.20 L 494.20 303.60 L 497.50 305.00 L 501.00 305.10 L 502.60 304.60 L 504.10 303.60 L 505.60 302.00 L 506.70 300.20 L 507.20 298.40 L 507.30 296.70 L 507.00 295.00 L 505.30 291.90 L 502.60 289.40 L 499.20 288.00 L 495.80 287.90 L 494.10 288.50 L 492.60 289.50 L 491.20 291.10 Z M 485.20 314.00 L 483.40 315.10 L 479.60 318.90 L 478.10 321.30 L 476.90 323.90 L 476.20 328.00 L 477.10 330.80 L 477.90 331.80 L 479.30 332.70 L 481.30 333.30 L 483.30 333.30 L 485.20 332.90 L 488.70 330.90 L 491.60 327.70 L 493.20 324.90 L 494.30 322.00 L 494.70 318.30 L 494.00 315.30 L 493.00 314.20 L 491.70 313.50 L 490.20 313.10 L 488.10 313.30 L 485.20 314.00 Z M 506.40 315.00 L 510.30 322.60 L 512.70 325.90 L 515.40 328.70 L 517.40 330.20 L 519.70 331.30 L 522.10 332.00 L 524.60 332.30 L 527.50 332.00 L 530.70 331.10 L 529.00 327.10 L 527.00 323.60 L 524.50 320.80 L 521.70 318.50 L 519.20 317.00 L 516.50 315.90 L 513.50 315.20 L 510.20 314.90 L 506.40 315.00 Z M 323.80 456.60 L 328.80 458.50 L 335.40 458.90 L 355.50 456.10 L 360.50 453.10 L 365.00 449.70 L 369.10 446.00 L 372.70 442.00 L 375.80 437.60 L 378.50 432.90 L 380.70 428.00 L 382.40 422.90 L 383.50 417.60 L 384.00 412.10 L 384.00 406.50 L 383.40 400.50 L 380.50 399.00 L 375.60 387.00 L 373.70 383.00 L 369.20 375.60 L 366.50 372.20 L 363.50 369.30 L 360.20 366.80 L 357.50 365.30 L 354.60 364.20 L 351.30 363.40 L 347.70 362.90 L 343.20 363.40 L 338.80 364.30 L 334.80 365.70 L 330.90 367.50 L 327.20 369.80 L 323.80 372.30 L 320.60 375.20 L 317.60 378.40 L 314.00 383.10 L 310.90 388.20 L 308.30 393.60 L 306.30 399.30 L 304.80 405.10 L 303.80 411.10 L 303.40 417.10 L 303.60 423.00 L 304.50 428.80 L 305.50 433.00 L 306.90 437.10 L 308.70 440.90 L 310.90 444.60 L 313.50 448.00 L 316.40 451.20 L 319.90 454.00 L 323.80 456.60 Z M 589.60 402.90 L 588.50 402.80 L 578.00 420.10 L 573.00 430.10 L 570.30 438.40 L 569.60 442.70 L 569.40 447.20 L 569.80 451.90 L 573.10 453.20 L 580.10 463.60 L 582.70 466.80 L 588.60 472.60 L 591.90 475.10 L 595.30 477.10 L 599.00 478.60 L 601.90 479.40 L 608.10 479.90 L 616.70 479.50 L 621.40 479.10 L 626.00 478.10 L 630.30 476.70 L 634.40 474.90 L 638.30 472.80 L 642.00 470.30 L 645.50 467.40 L 649.70 463.10 L 653.50 458.40 L 656.80 453.30 L 659.60 447.80 L 661.90 442.10 L 663.70 436.10 L 664.90 429.90 L 665.60 423.80 L 665.70 417.60 L 664.70 408.40 L 662.20 399.50 L 660.50 395.30 L 658.40 391.20 L 655.80 387.30 L 652.90 383.60 L 646.10 380.70 L 639.40 379.60 L 634.90 379.60 L 630.50 380.10 L 626.00 381.20 L 621.60 382.70 L 612.90 386.70 L 606.60 390.50 L 600.60 394.60 L 589.60 402.90 Z M 394.70 439.40 L 390.80 445.50 L 382.10 457.20 L 377.30 462.70 L 372.20 467.90 L 366.70 472.80 L 379.70 478.40 L 392.90 483.40 L 406.30 487.80 L 419.90 491.60 L 433.60 494.90 L 447.40 497.60 L 461.30 499.70 L 475.30 501.30 L 489.40 502.20 L 503.50 502.50 L 517.50 502.20 L 531.60 501.20 L 542.80 500.00 L 553.90 498.40 L 565.00 496.40 L 576.10 494.00 L 587.10 491.10 L 580.60 486.00 L 574.50 480.60 L 568.70 474.80 L 560.90 465.30 L 554.30 454.90 L 533.60 471.20 L 528.20 474.90 L 518.60 480.00 L 510.30 482.80 L 497.10 484.80 L 483.50 485.20 L 476.70 484.80 L 470.00 484.00 L 463.30 482.80 L 456.70 481.20 L 450.30 479.10 L 444.00 476.70 L 438.00 473.80 L 432.20 470.40 L 426.60 466.70 L 421.40 462.50 L 416.50 457.80 L 409.90 450.90 L 404.40 443.80 L 402.40 441.70 L 400.20 440.20 L 398.60 439.50 L 396.80 439.20 L 394.70 439.40 Z M 350.30 480.80 L 350.20 497.60 L 347.40 517.60 L 346.60 527.90 L 346.40 538.20 L 346.70 545.00 L 347.40 551.80 L 348.50 558.40 L 350.10 564.90 L 352.20 571.20 L 355.00 577.30 L 359.50 574.80 L 363.40 571.90 L 366.90 568.60 L 370.00 564.90 L 372.70 561.00 L 375.20 556.70 L 378.30 550.00 L 381.10 542.90 L 390.50 514.50 L 397.20 515.50 L 397.20 519.50 L 397.70 522.90 L 398.70 525.80 L 400.20 528.50 L 402.10 530.80 L 404.40 532.80 L 409.80 536.20 L 412.90 537.50 L 417.70 539.20 L 432.30 543.10 L 448.30 545.70 L 464.60 547.90 L 486.30 549.80 L 508.10 550.30 L 519.00 549.90 L 529.80 549.10 L 540.60 547.70 L 551.30 545.70 L 562.00 543.20 L 568.60 524.90 L 572.90 532.40 L 581.90 556.00 L 584.70 562.10 L 586.90 566.00 L 589.30 569.50 L 592.10 572.60 L 594.50 574.60 L 597.20 576.40 L 600.20 577.90 L 603.60 579.10 L 605.40 565.70 L 606.70 552.30 L 607.40 538.80 L 607.60 525.20 L 607.20 511.70 L 606.30 498.20 L 577.70 506.00 L 563.30 509.40 L 548.70 512.10 L 539.00 513.50 L 529.10 514.50 L 512.20 515.30 L 505.10 515.30 L 477.00 514.00 L 470.00 514.00 L 463.00 514.50 L 443.80 510.40 L 424.70 505.80 L 405.80 500.60 L 391.70 496.30 L 377.80 491.60 L 364.00 486.40 L 350.30 480.80 Z M 455.70 593.40 L 455.10 599.70 L 454.10 606.00 L 452.60 612.10 L 450.70 618.30 L 448.40 624.30 L 445.80 630.10 L 442.70 635.60 L 439.20 641.00 L 435.40 646.10 L 431.20 650.90 L 426.70 655.30 L 421.80 659.40 L 414.70 661.50 L 407.60 663.10 L 400.40 664.00 L 393.20 664.50 L 378.50 664.40 L 334.50 660.90 L 322.20 689.70 L 348.00 682.80 L 347.60 708.50 L 353.30 703.90 L 359.20 699.60 L 365.30 695.80 L 371.60 692.30 L 384.80 686.40 L 398.50 681.90 L 407.90 679.60 L 417.40 677.70 L 427.10 676.30 L 426.40 692.40 L 425.30 756.70 L 424.70 772.80 L 421.10 781.90 L 412.90 799.70 L 406.10 812.80 L 384.70 851.50 L 377.90 864.60 L 371.60 877.90 L 397.70 865.40 L 399.80 890.60 L 415.70 869.90 L 427.20 886.30 L 428.20 880.10 L 428.90 873.20 L 430.50 851.90 L 432.40 840.20 L 435.00 831.70 L 436.90 827.80 L 439.20 824.20 L 442.00 820.80 L 447.00 816.70 L 453.60 813.30 L 472.40 810.80 L 482.00 809.90 L 491.60 809.40 L 504.40 809.80 L 510.70 810.50 L 516.90 811.60 L 522.90 813.20 L 528.90 815.30 L 532.20 818.70 L 534.90 822.10 L 537.00 825.70 L 540.00 833.60 L 541.00 837.80 L 541.90 844.20 L 542.30 850.80 L 542.70 871.10 L 543.80 882.10 L 545.80 890.40 L 548.50 890.50 L 550.50 890.00 L 552.10 889.10 L 554.60 886.10 L 556.50 880.70 L 559.10 869.70 L 559.90 867.40 L 562.10 863.70 L 564.80 864.10 L 567.10 865.00 L 569.20 866.20 L 571.90 868.70 L 574.40 871.80 L 581.30 881.80 L 583.80 884.70 L 584.10 880.10 L 585.90 866.10 L 586.00 861.40 L 585.60 856.90 L 584.90 854.00 L 583.70 851.20 L 566.60 823.30 L 558.70 808.90 L 553.60 796.90 L 551.60 790.80 L 550.00 784.40 L 548.80 777.80 L 546.80 756.10 L 544.90 696.00 L 544.10 679.60 L 551.70 680.50 L 559.30 681.90 L 566.70 683.80 L 574.00 686.00 L 581.10 688.70 L 588.00 691.80 L 594.60 695.30 L 601.10 699.30 L 607.20 703.80 L 613.00 708.60 L 618.50 714.00 L 623.70 719.90 L 622.50 710.10 L 619.40 690.90 L 637.20 689.30 L 628.90 670.50 L 641.50 666.90 L 601.90 668.20 L 591.90 668.20 L 575.50 667.30 L 562.50 665.30 L 557.20 663.80 L 552.30 661.80 L 547.90 659.30 L 543.80 656.40 L 540.00 653.10 L 536.40 649.40 L 531.40 643.40 L 526.90 636.90 L 510.40 610.10 L 497.50 611.60 L 484.50 612.60 L 471.50 612.90 L 458.50 612.60 L 463.10 612.10 L 485.70 611.90 L 491.20 611.50 L 494.90 611.00 L 501.30 609.20 L 504.20 607.70 L 506.70 605.90 L 508.80 603.60 L 511.10 599.50 L 512.30 593.60 L 455.70 593.40 Z" fill="#39393a" fill-rule="nonzero" node-id="56" stroke="none" target-height="800" target-width="554.1" target-x="235" target-y="112"></path><path d="M 287.20 172.90 L 290.50 166.50 L 294.20 160.40 L 298.40 154.60 L 302.90 149.10 L 307.80 144.00 L 313.10 139.20 L 318.70 134.70 L 324.50 130.60 L 330.70 126.90 L 331.90 136.70 L 332.50 146.50 L 332.60 156.40 L 332.30 166.30 L 324.70 166.50 L 317.10 167.20 L 309.60 168.40 L 287.20 172.90 Z" fill="#f9f8f4" fill-rule="nonzero" node-id="58" stroke="none" target-height="45.999992" target-width="45.399994" target-x="287.2" target-y="126.9"></path><path d="M 592.60 432.30 L 596.20 432.60 L 599.50 433.30 L 602.60 434.50 L 605.50 436.10 L 608.20 438.20 L 610.80 440.80 L 610.10 442.70 L 609.10 444.20 L 607.80 445.30 L 604.70 446.40 L 602.90 446.50 L 600.20 446.20 L 597.50 445.30 L 595.00 443.90 L 593.00 442.10 L 591.90 440.60 L 590.90 437.50 L 591.00 435.90 L 591.50 434.20 L 592.60 432.30 Z" fill="#3d3a4f" fill-rule="nonzero" node-id="60" stroke="none" target-height="14.200012" target-width="19.899963" target-x="590.9" target-y="432.3"></path><path d="M 472.20 630.30 L 475.50 628.70 L 478.90 627.60 L 482.20 626.90 L 485.40 626.60 L 489.80 626.90 L 494.10 627.80 L 498.20 629.30 L 502.20 631.30 L 506.00 633.80 L 509.60 636.70 L 512.90 639.90 L 515.80 643.30 L 518.30 647.00 L 524.50 654.80 L 527.10 658.90 L 529.30 663.10 L 531.80 668.90 L 533.80 674.80 L 535.30 681.00 L 537.20 693.60 L 537.60 700.10 L 537.70 709.80 L 537.40 719.60 L 535.40 743.30 L 534.30 747.50 L 532.70 751.40 L 530.50 755.10 L 528.00 758.50 L 525.00 761.70 L 518.10 767.30 L 508.30 773.00 L 502.20 775.90 L 490.10 780.50 L 486.00 781.60 L 482.10 782.20 L 478.30 782.30 L 474.70 781.90 L 471.10 781.10 L 464.40 778.40 L 461.20 776.50 L 457.30 773.60 L 453.70 770.10 L 450.40 766.20 L 447.50 762.00 L 445.00 757.50 L 442.90 752.80 L 441.30 747.90 L 440.30 743.00 L 438.60 730.60 L 437.20 714.70 L 437.00 706.50 L 437.30 698.40 L 438.10 690.20 L 439.30 682.20 L 441.10 674.30 L 443.40 666.70 L 445.60 661.20 L 448.20 655.90 L 451.10 650.90 L 454.40 646.10 L 458.20 641.70 L 462.30 637.50 L 467.00 633.80 L 472.20 630.30 Z M 468.40 639.40 L 467.70 642.50 L 463.70 647.20 L 460.00 652.20 L 456.80 657.30 L 454.00 662.70 L 449.50 674.00 L 446.50 685.90 L 445.20 694.00 L 444.50 702.20 L 444.40 710.50 L 444.90 718.80 L 445.90 727.00 L 447.30 735.20 L 449.30 743.20 L 451.70 750.90 L 454.50 758.30 L 454.50 762.80 L 458.10 765.70 L 461.60 768.00 L 465.20 769.90 L 468.80 771.20 L 472.60 772.10 L 480.20 772.80 L 484.00 772.60 L 489.10 771.70 L 494.10 770.30 L 499.10 768.40 L 504.00 766.10 L 508.70 763.30 L 517.50 756.80 L 525.20 749.50 L 527.30 743.80 L 529.00 737.90 L 530.30 732.00 L 531.20 725.90 L 531.70 717.70 L 531.80 709.40 L 531.30 701.10 L 530.30 692.90 L 527.20 676.90 L 525.60 672.10 L 523.60 667.20 L 521.10 662.20 L 518.20 657.50 L 514.90 653.00 L 511.30 648.80 L 507.40 645.00 L 503.20 641.70 L 498.80 639.00 L 495.20 637.40 L 491.70 636.20 L 488.00 635.40 L 484.20 635.10 L 480.40 635.30 L 476.50 636.10 L 472.50 637.40 L 468.40 639.40 Z" fill="#37384d" fill-rule="nonzero" node-id="62" stroke="none" target-height="155.70001" target-width="100.70001" target-x="437" target-y="626.6"></path><path d="M 502.50 176.50 L 542.30 140.40 L 542.00 152.70 L 541.20 164.90 L 539.90 177.10 L 538.10 189.20 L 535.20 205.30 L 531.60 221.30 L 527.40 237.20 L 522.70 253.00 L 512.20 283.90 L 498.00 283.20 L 493.20 283.30 L 488.50 283.70 L 483.80 284.60 L 478.90 296.30 L 469.10 291.90 L 462.80 288.40 L 458.60 284.40 L 456.00 280.20 L 456.70 246.30 L 460.80 249.80 L 462.50 251.90 L 464.80 255.40 L 470.50 266.70 L 472.60 270.10 L 475.00 273.10 L 476.90 274.70 L 479.00 276.00 L 481.40 277.00 L 485.10 238.30 L 486.70 225.40 L 488.10 216.80 L 489.90 208.40 L 492.10 200.10 L 494.10 194.00 L 499.30 182.20 L 502.50 176.50 Z" fill="#afd144" fill-rule="nonzero" node-id="64" stroke="none" target-height="155.9" target-width="86.29999" target-x="456" target-y="140.4"></path><path d="M 440.40 228.50 L 456.80 243.10 L 456.20 263.20 L 456.00 280.20 L 452.80 275.00 L 450.00 269.60 L 447.60 264.10 L 445.60 258.40 L 442.60 246.60 L 441.20 237.60 L 440.40 228.50 Z" fill="#fcea8e" fill-rule="nonzero" node-id="66" stroke="none" target-height="51.700012" target-width="16.399994" target-x="440.4" target-y="228.5"></path><path d="M 260.00 229.50 L 261.20 223.10 L 262.90 216.20 L 265.10 209.40 L 267.80 202.70 L 270.10 198.40 L 275.30 190.70 L 278.40 187.30 L 281.80 184.40 L 285.60 182.00 L 288.60 180.60 L 291.80 179.50 L 295.20 178.80 L 310.90 177.70 L 317.10 177.80 L 323.00 178.50 L 326.90 179.40 L 330.60 180.70 L 334.00 182.40 L 337.20 184.50 L 340.10 187.30 L 342.80 190.70 L 330.50 200.60 L 308.00 201.80 L 292.60 211.90 L 284.60 216.60 L 260.00 229.50 Z" fill="#f7eee9" fill-rule="nonzero" node-id="68" stroke="none" target-height="51.800003" target-width="82.79999" target-x="260" target-y="177.7"></path><path d="M 454.50 758.30 L 451.70 750.90 L 449.30 743.20 L 447.30 735.20 L 445.90 727.00 L 444.90 718.80 L 444.40 710.50 L 444.50 702.20 L 445.20 694.00 L 446.50 685.90 L 447.80 679.90 L 449.50 674.00 L 454.00 662.70 L 456.80 657.30 L 460.00 652.20 L 463.70 647.20 L 467.70 642.50 L 463.60 661.60 L 460.10 680.70 L 456.50 706.40 L 455.30 719.30 L 454.50 732.30 L 454.30 745.30 L 454.50 758.30 Z" fill="#ffdbc2" fill-rule="nonzero" node-id="70" stroke="none" target-height="115.79999" target-width="23.300018" target-x="444.4" target-y="642.5"></path><path d="M 246.10 288.20 L 245.20 283.10 L 244.80 278.30 L 244.80 273.70 L 245.20 269.40 L 246.00 265.30 L 247.60 260.20 L 249.60 255.40 L 252.10 250.90 L 255.10 246.60 L 258.50 242.60 L 262.30 238.90 L 266.40 235.40 L 270.90 232.10 L 277.20 228.20 L 283.90 224.70 L 290.90 221.60 L 298.20 219.10 L 305.50 217.00 L 312.80 215.30 L 320.30 214.10 L 327.40 213.40 L 334.20 213.10 L 323.20 221.20 L 312.00 228.90 L 289.00 243.60 L 279.50 243.00 L 276.00 263.80 L 260.90 275.80 L 246.10 288.20 Z" fill="#f9f5ec" fill-rule="nonzero" node-id="72" stroke="none" target-height="75.100006" target-width="89.40001" target-x="244.8" target-y="213.1"></path><path d="M 334.20 213.10 L 335.60 212.10 L 337.20 211.30 L 339.00 211.00 L 341.90 211.00 L 345.00 211.60 L 348.00 212.80 L 350.70 214.30 L 353.00 216.30 L 354.50 218.40 L 355.20 219.90 L 355.40 221.40 L 355.10 222.90 L 354.50 224.30 L 353.20 225.70 L 351.10 227.20 L 338.10 232.00 L 325.50 237.40 L 313.10 243.20 L 300.90 249.60 L 289.00 256.40 L 277.40 263.80 L 277.00 258.20 L 279.50 243.00 L 289.00 243.60 L 312.00 228.90 L 323.20 221.20 L 334.20 213.10 Z" fill="#bdb9b1" fill-rule="nonzero" node-id="74" stroke="none" target-height="52.799988" target-width="78.399994" target-x="277" target-y="211"></path><path d="M 514.40 299.00 L 521.10 283.40 L 525.00 275.80 L 529.30 268.40 L 533.90 261.20 L 538.80 254.30 L 544.20 247.70 L 549.90 241.40 L 555.90 235.50 L 562.40 230.00 L 569.20 225.00 L 576.40 220.40 L 575.60 227.60 L 574.40 234.80 L 572.80 242.00 L 570.60 249.10 L 568.10 255.90 L 565.00 262.60 L 561.50 269.10 L 557.60 275.20 L 553.20 281.00 L 545.70 289.00 L 541.50 292.60 L 534.50 297.80 L 531.80 299.20 L 529.00 300.20 L 526.20 300.80 L 523.30 300.90 L 520.30 300.70 L 517.40 300.00 L 514.40 299.00 Z" fill="#b0d130" fill-rule="nonzero" node-id="76" stroke="none" target-height="80.5" target-width="62" target-x="514.4" target-y="220.4"></path><path d="M 589.60 402.90 L 600.60 394.60 L 606.60 390.50 L 617.20 384.50 L 626.00 381.20 L 630.50 380.10 L 634.90 379.60 L 639.40 379.60 L 646.10 380.70 L 652.90 383.60 L 655.80 387.30 L 658.40 391.20 L 660.50 395.30 L 662.20 399.50 L 664.70 408.40 L 665.70 417.60 L 665.60 423.80 L 664.90 429.90 L 663.70 436.10 L 661.90 442.10 L 659.60 447.80 L 656.80 453.30 L 653.50 458.40 L 649.70 463.10 L 645.50 467.40 L 642.00 470.30 L 638.30 472.80 L 634.40 474.90 L 630.30 476.70 L 626.00 478.10 L 621.40 479.10 L 616.70 479.50 L 608.10 479.90 L 601.90 479.40 L 599.00 478.60 L 595.30 477.10 L 591.90 475.10 L 588.60 472.60 L 582.70 466.80 L 580.10 463.60 L 573.10 453.20 L 589.00 459.60 L 599.90 462.80 L 605.50 463.70 L 609.30 463.20 L 612.80 462.10 L 616.00 460.60 L 619.00 458.60 L 621.70 456.20 L 624.10 453.40 L 626.20 450.40 L 628.00 447.10 L 630.50 440.10 L 631.10 436.50 L 631.40 432.80 L 631.20 429.10 L 630.60 425.50 L 629.50 422.10 L 627.90 418.80 L 625.90 415.80 L 623.30 413.00 L 620.90 411.10 L 615.70 408.30 L 611.60 406.90 L 607.30 405.80 L 589.60 402.90 Z" fill="#fefefe" fill-rule="nonzero" node-id="78" stroke="none" target-height="100.29999" target-width="92.60004" target-x="573.1" target-y="379.6"></path><path d="M 294.90 277.20 L 302.30 272.30 L 309.80 267.80 L 317.60 263.60 L 325.60 259.90 L 333.70 256.70 L 342.00 253.90 L 348.40 252.30 L 361.40 250.00 L 368.00 249.50 L 363.90 263.40 L 349.60 269.00 L 335.20 274.30 L 320.60 279.10 L 306.00 283.40 L 294.90 277.20 Z" fill="#9f9d98" fill-rule="nonzero" node-id="80" stroke="none" target-height="33.899994" target-width="73.100006" target-x="294.9" target-y="249.5"></path><path d="M 342.20 287.70 L 347.90 285.50 L 353.70 283.80 L 359.70 282.50 L 371.90 281.00 L 387.50 280.70 L 421.20 282.20 L 426.70 283.20 L 432.10 284.60 L 442.50 288.60 L 454.90 295.20 L 476.90 307.80 L 470.10 321.90 L 468.60 325.60 L 467.30 331.60 L 467.70 336.40 L 468.50 338.60 L 469.80 340.90 L 471.70 343.20 L 474.90 344.30 L 477.80 344.60 L 480.40 344.40 L 485.50 342.50 L 491.40 338.40 L 501.30 329.80 L 513.20 340.60 L 516.60 342.90 L 520.00 344.60 L 522.40 345.40 L 524.80 345.80 L 527.20 345.80 L 529.60 345.30 L 532.10 344.20 L 534.70 342.40 L 536.50 340.20 L 537.70 338.00 L 538.40 335.70 L 538.90 332.10 L 538.80 328.40 L 538.20 324.60 L 536.10 313.40 L 544.80 307.90 L 554.00 303.00 L 560.40 300.70 L 567.10 299.70 L 570.60 299.90 L 600.10 304.80 L 613.10 307.40 L 626.00 310.50 L 634.50 313.00 L 642.80 315.90 L 650.80 319.30 L 662.50 325.20 L 668.10 328.70 L 673.50 332.60 L 677.20 335.80 L 680.60 339.30 L 683.50 342.90 L 686.10 346.60 L 689.00 352.00 L 691.50 357.60 L 693.40 363.40 L 694.90 369.40 L 696.00 375.60 L 696.70 381.90 L 697.20 391.40 L 697.00 400.90 L 696.40 410.40 L 694.40 428.00 L 692.70 436.60 L 690.50 445.20 L 687.70 453.60 L 684.50 461.80 L 680.80 469.80 L 676.50 477.50 L 671.70 484.90 L 666.50 491.80 L 662.20 496.80 L 657.60 501.40 L 652.80 505.70 L 647.60 509.80 L 642.30 513.40 L 636.60 516.70 L 630.60 519.60 L 624.30 522.10 L 622.00 521.20 L 620.50 520.00 L 619.70 518.70 L 619.40 517.10 L 619.50 515.40 L 620.10 513.40 L 621.60 510.60 L 623.80 507.80 L 626.40 505.30 L 629.20 503.40 L 631.20 502.30 L 634.50 501.60 L 632.00 494.90 L 637.80 492.60 L 643.20 489.90 L 648.40 486.80 L 653.20 483.20 L 657.70 479.30 L 661.80 475.00 L 665.60 470.50 L 669.00 465.60 L 672.10 460.40 L 674.70 455.10 L 677.00 449.70 L 678.90 444.00 L 680.40 438.20 L 681.40 432.30 L 682.00 426.40 L 682.20 420.50 L 682.00 414.50 L 681.20 408.70 L 680.00 402.90 L 678.30 397.10 L 676.20 391.60 L 673.50 386.20 L 670.40 381.00 L 663.80 372.50 L 660.70 369.50 L 657.60 367.20 L 654.20 365.30 L 650.70 363.80 L 647.00 362.70 L 643.10 362.00 L 639.20 361.60 L 633.90 361.70 L 628.50 362.20 L 623.00 363.30 L 612.30 366.70 L 602.00 371.20 L 593.10 376.40 L 588.90 380.90 L 581.30 390.50 L 576.00 398.10 L 560.90 421.30 L 555.60 428.80 L 549.90 436.00 L 541.40 444.90 L 532.00 453.00 L 527.10 456.40 L 522.00 459.40 L 516.70 461.80 L 511.10 463.90 L 505.40 465.50 L 499.60 466.70 L 493.60 467.50 L 485.60 468.00 L 477.50 467.90 L 469.50 467.20 L 461.40 466.10 L 453.70 464.50 L 446.10 462.60 L 441.50 460.50 L 433.30 455.60 L 429.60 452.80 L 425.00 448.60 L 420.80 444.10 L 417.00 439.30 L 410.20 428.80 L 407.10 423.10 L 403.00 414.50 L 387.70 379.00 L 382.10 367.30 L 380.20 364.00 L 375.60 358.10 L 372.00 354.70 L 368.00 351.80 L 363.70 349.30 L 359.10 347.30 L 354.40 345.70 L 349.50 344.70 L 344.50 344.10 L 339.50 344.10 L 334.50 344.70 L 329.70 345.80 L 325.00 347.40 L 320.40 349.70 L 316.60 352.10 L 313.10 354.90 L 310.00 358.00 L 305.70 363.10 L 294.10 379.70 L 282.80 362.50 L 284.90 356.60 L 289.80 345.50 L 292.70 340.20 L 297.00 333.50 L 301.80 327.10 L 306.90 320.90 L 318.00 309.10 L 333.00 295.50 L 342.20 287.70 Z M 465.10 432.70 L 467.90 433.00 L 470.90 434.00 L 472.20 435.60 L 472.20 436.40 L 471.70 437.70 L 470.60 439.00 L 467.50 440.90 L 465.80 441.20 L 464.50 441.00 L 463.80 440.60 L 463.20 438.60 L 463.30 437.30 L 465.10 432.70 Z" fill="#f86f76" fill-rule="nonzero" node-id="82" stroke="none" target-height="241.39996" target-width="414.40002" target-x="282.8" target-y="280.7"></path><path d="M 260.70 369.90 L 261.30 363.30 L 262.30 356.90 L 263.80 350.80 L 265.80 345.00 L 268.30 339.30 L 271.20 333.90 L 274.40 328.70 L 278.10 323.80 L 282.20 319.10 L 286.50 314.70 L 291.10 310.60 L 296.10 306.80 L 306.60 300.10 L 312.20 297.20 L 318.00 294.60 L 325.90 291.70 L 334.00 289.40 L 342.20 287.70 L 323.90 303.60 L 312.30 314.90 L 301.80 327.10 L 297.00 333.50 L 292.70 340.20 L 287.20 350.90 L 284.90 356.60 L 280.10 371.30 L 272.30 398.10 L 266.80 415.90 L 264.90 408.40 L 262.20 393.10 L 260.90 377.70 L 260.70 369.90 Z" fill="#f6d4d4" fill-rule="nonzero" node-id="84" stroke="none" target-height="128.19998" target-width="81.5" target-x="260.7" target-y="287.7"></path><path d="M 491.20 291.10 L 492.60 289.50 L 494.10 288.50 L 495.80 287.90 L 499.20 288.00 L 502.60 289.40 L 505.30 291.90 L 507.00 295.00 L 507.30 296.70 L 507.20 298.40 L 506.70 300.20 L 505.60 302.00 L 504.10 303.60 L 502.60 304.60 L 501.00 305.10 L 497.50 305.00 L 494.20 303.60 L 491.60 301.20 L 489.90 298.10 L 489.60 294.70 L 490.10 292.90 L 491.20 291.10 Z" fill="#d0ecef" fill-rule="nonzero" node-id="86" stroke="none" target-height="17.200012" target-width="17.699982" target-x="489.6" target-y="287.9"></path><path d="M 485.20 314.00 L 488.10 313.30 L 490.20 313.10 L 491.70 313.50 L 493.00 314.20 L 494.00 315.30 L 494.70 318.30 L 494.30 322.00 L 493.20 324.90 L 490.20 329.40 L 487.10 332.00 L 485.20 332.90 L 483.30 333.30 L 481.30 333.30 L 479.30 332.70 L 477.90 331.80 L 477.10 330.80 L 476.20 328.00 L 476.90 323.90 L 478.10 321.30 L 479.60 318.90 L 481.40 316.80 L 483.40 315.10 L 485.20 314.00 Z" fill="#aeb349" fill-rule="nonzero" node-id="88" stroke="none" target-height="20.199982" target-width="18.5" target-x="476.2" target-y="313.1"></path><path d="M 506.40 315.00 L 510.20 314.90 L 513.50 315.20 L 516.50 315.90 L 519.20 317.00 L 521.70 318.50 L 524.50 320.80 L 527.00 323.60 L 529.00 327.10 L 530.70 331.10 L 527.50 332.00 L 524.60 332.30 L 522.10 332.00 L 519.70 331.30 L 517.40 330.20 L 515.40 328.70 L 512.70 325.90 L 510.30 322.60 L 506.40 315.00 Z" fill="#fcef4a" fill-rule="nonzero" node-id="90" stroke="none" target-height="17.399994" target-width="24.300018" target-x="506.4" target-y="314.9"></path><path d="M 266.80 415.90 L 272.30 398.10 L 282.80 362.40 L 294.10 379.70 L 289.70 394.80 L 287.90 402.50 L 286.50 410.30 L 285.80 420.70 L 285.90 425.80 L 286.50 431.00 L 287.70 436.10 L 290.70 445.40 L 292.50 449.30 L 294.60 453.10 L 299.70 459.80 L 305.90 465.60 L 313.00 470.20 L 320.70 473.60 L 329.00 475.50 L 337.60 476.00 L 342.00 475.60 L 334.00 511.80 L 319.50 505.30 L 312.50 501.50 L 305.80 497.30 L 299.40 492.60 L 293.40 487.50 L 289.20 483.40 L 285.30 479.00 L 281.60 474.20 L 274.90 463.60 L 271.90 457.90 L 267.00 446.10 L 264.40 438.00 L 262.40 429.70 L 260.90 421.30 L 259.80 412.80 L 259.20 404.20 L 259.10 395.60 L 259.30 387.00 L 260.70 369.90 L 260.90 377.70 L 262.20 393.10 L 263.40 400.80 L 266.80 415.90 Z" fill="#ee6e83" fill-rule="nonzero" node-id="92" stroke="none" target-height="149.4" target-width="82.899994" target-x="259.1" target-y="362.4"></path><path d="M 323.80 456.60 L 319.90 454.00 L 316.40 451.20 L 313.50 448.00 L 310.90 444.60 L 308.70 440.90 L 306.90 437.10 L 305.50 433.00 L 304.50 428.80 L 303.60 423.00 L 303.40 417.10 L 303.80 411.10 L 304.80 405.10 L 306.30 399.30 L 308.30 393.60 L 310.90 388.20 L 314.00 383.10 L 317.60 378.40 L 320.60 375.20 L 323.80 372.30 L 327.20 369.80 L 330.90 367.50 L 334.80 365.70 L 338.80 364.30 L 343.20 363.40 L 347.70 362.90 L 351.30 363.40 L 354.60 364.20 L 357.50 365.30 L 360.20 366.80 L 363.50 369.30 L 366.50 372.20 L 369.20 375.60 L 373.70 383.00 L 375.60 387.00 L 380.50 399.00 L 370.50 393.50 L 365.20 391.40 L 359.80 389.80 L 352.40 388.90 L 348.70 388.90 L 345.10 389.40 L 341.40 390.30 L 337.70 391.80 L 334.40 394.10 L 331.60 396.70 L 329.20 399.60 L 327.30 402.90 L 325.90 406.40 L 324.90 410.10 L 324.30 413.90 L 324.10 417.70 L 324.40 421.60 L 325.10 425.40 L 326.20 429.00 L 327.70 432.60 L 330.20 435.80 L 335.90 441.50 L 340.60 445.40 L 355.50 456.10 L 335.40 458.90 L 328.80 458.50 L 323.80 456.60 Z" fill="#fdfcfc" fill-rule="nonzero" node-id="94" stroke="none" target-height="96" target-width="77.100006" target-x="303.4" target-y="362.9"></path><path d="M 337.70 391.80 L 341.40 390.30 L 345.10 389.40 L 348.70 388.90 L 356.10 389.20 L 359.80 389.80 L 365.20 391.40 L 370.50 393.50 L 383.40 400.50 L 384.00 406.50 L 384.00 412.10 L 383.50 417.60 L 382.40 422.90 L 380.70 428.00 L 378.50 432.90 L 375.80 437.60 L 372.70 442.00 L 369.10 446.00 L 365.00 449.70 L 360.50 453.10 L 355.50 456.10 L 340.60 445.40 L 335.90 441.50 L 330.20 435.80 L 327.70 432.60 L 326.20 429.00 L 325.10 425.40 L 324.40 421.60 L 324.10 417.70 L 324.30 413.90 L 324.90 410.10 L 325.90 406.40 L 327.30 402.90 L 329.20 399.60 L 331.60 396.70 L 334.40 394.10 L 337.70 391.80 Z M 334.80 423.90 L 344.00 428.70 L 353.50 433.10 L 355.80 432.60 L 357.80 431.90 L 359.60 430.70 L 362.40 427.60 L 363.50 425.70 L 364.30 423.70 L 364.90 419.50 L 364.70 417.40 L 363.20 413.70 L 361.90 412.10 L 360.20 410.70 L 355.40 408.40 L 352.90 407.80 L 350.50 407.90 L 348.20 408.50 L 346.00 409.60 L 343.90 411.10 L 341.00 413.80 L 338.50 417.10 L 334.80 423.90 Z" fill="#dca530" fill-rule="nonzero" node-id="96" stroke="none" target-height="67.20001" target-width="59.899994" target-x="324.1" target-y="388.9"></path><path d="M 588.50 402.80 L 607.30 405.80 L 611.60 406.90 L 615.70 408.30 L 620.90 411.10 L 623.30 413.00 L 625.90 415.80 L 627.90 418.80 L 629.50 422.10 L 630.60 425.50 L 631.20 429.10 L 631.40 432.80 L 631.10 436.50 L 630.50 440.10 L 628.00 447.10 L 626.20 450.40 L 624.10 453.40 L 621.70 456.20 L 619.00 458.60 L 616.00 460.60 L 612.80 462.10 L 609.30 463.20 L 605.50 463.70 L 599.90 462.80 L 594.40 461.40 L 589.00 459.60 L 569.80 451.90 L 569.40 447.20 L 569.60 442.70 L 570.30 438.40 L 573.00 430.10 L 578.00 420.10 L 588.50 402.80 Z M 592.60 432.30 L 591.50 434.20 L 591.00 435.90 L 590.90 437.50 L 591.90 440.60 L 593.00 442.10 L 595.00 443.90 L 597.50 445.30 L 600.20 446.20 L 602.90 446.50 L 604.70 446.40 L 607.80 445.30 L 609.10 444.20 L 610.10 442.70 L 617.00 426.60 L 613.70 423.70 L 611.80 422.60 L 608.60 421.50 L 605.40 421.00 L 601.20 421.30 L 597.40 422.80 L 594.50 425.60 L 593.50 427.40 L 592.90 429.60 L 592.60 432.30 Z" fill="#46a749" fill-rule="nonzero" node-id="98" stroke="none" target-height="60.900024" target-width="62" target-x="569.4" target-y="402.8"></path><path d="M 334.80 423.90 L 338.50 417.10 L 341.00 413.80 L 343.90 411.10 L 346.00 409.60 L 348.20 408.50 L 350.50 407.90 L 352.90 407.80 L 355.40 408.40 L 360.20 410.70 L 361.90 412.10 L 363.20 413.70 L 364.10 415.50 L 364.70 417.40 L 364.70 421.60 L 363.50 425.70 L 362.40 427.60 L 359.60 430.70 L 357.80 431.90 L 355.80 432.60 L 353.50 433.10 L 344.00 428.70 L 334.80 423.90 Z" fill="#dfd398" fill-rule="nonzero" node-id="100" stroke="none" target-height="25.300018" target-width="29.900024" target-x="334.8" target-y="407.8"></path><path d="M 465.10 432.70 L 467.90 433.00 L 470.90 434.00 L 472.20 435.60 L 472.20 436.40 L 471.70 437.70 L 470.60 439.00 L 467.50 440.90 L 465.80 441.20 L 464.50 441.00 L 463.80 440.60 L 463.20 438.60 L 463.30 437.30 L 465.10 432.70 Z" fill="#893a39" fill-rule="nonzero" node-id="102" stroke="none" target-height="8.5" target-width="9" target-x="463.2" target-y="432.7"></path><path d="M 394.70 439.40 L 396.80 439.20 L 398.60 439.50 L 400.20 440.20 L 402.40 441.70 L 404.40 443.80 L 409.90 450.90 L 416.50 457.80 L 421.40 462.50 L 426.60 466.70 L 432.20 470.40 L 438.00 473.80 L 444.00 476.70 L 450.30 479.10 L 456.70 481.20 L 463.30 482.80 L 470.00 484.00 L 476.70 484.80 L 483.50 485.20 L 497.10 484.80 L 510.30 482.80 L 518.60 480.00 L 528.20 474.90 L 533.60 471.20 L 554.30 454.90 L 560.90 465.30 L 568.70 474.80 L 574.50 480.60 L 580.60 486.00 L 587.10 491.10 L 576.10 494.00 L 565.00 496.40 L 553.90 498.40 L 542.80 500.00 L 531.60 501.20 L 517.50 502.20 L 503.50 502.50 L 489.40 502.20 L 475.30 501.30 L 461.30 499.70 L 447.40 497.60 L 433.60 494.90 L 419.90 491.60 L 406.30 487.80 L 392.90 483.40 L 379.70 478.40 L 366.70 472.80 L 372.20 467.90 L 377.30 462.70 L 382.10 457.20 L 390.80 445.50 L 394.70 439.40 Z" fill="#f36a75" fill-rule="nonzero" node-id="104" stroke="none" target-height="63.299988" target-width="220.39996" target-x="366.7" target-y="439.2"></path><path d="M 350.30 480.80 L 364.00 486.40 L 377.80 491.60 L 391.70 496.30 L 405.80 500.60 L 424.70 505.80 L 443.80 510.40 L 463.00 514.50 L 455.70 515.70 L 441.20 517.00 L 430.20 517.30 L 419.20 517.00 L 397.20 515.50 L 390.50 514.50 L 371.50 505.70 L 353.20 508.40 L 350.20 497.60 L 350.30 480.80 Z" fill="#f98698" fill-rule="nonzero" node-id="106" stroke="none" target-height="36.5" target-width="112.79999" target-x="350.2" target-y="480.8"></path><path d="M 350.20 497.60 L 353.20 508.40 L 371.50 505.70 L 390.50 514.50 L 381.10 542.90 L 378.30 550.00 L 375.20 556.70 L 372.70 561.00 L 370.00 564.90 L 366.90 568.60 L 363.40 571.90 L 359.50 574.80 L 355.00 577.30 L 352.20 571.20 L 350.10 564.90 L 348.50 558.40 L 347.40 551.80 L 346.70 545.00 L 346.40 538.20 L 346.60 527.90 L 347.40 517.60 L 350.20 497.60 Z" fill="#f57284" fill-rule="nonzero" node-id="108" stroke="none" target-height="79.69998" target-width="44.100006" target-x="346.4" target-y="497.6"></path><path d="M 519.20 515.00 L 529.10 514.50 L 539.00 513.50 L 548.70 512.10 L 563.30 509.40 L 577.70 506.00 L 606.30 498.20 L 607.20 511.70 L 607.60 525.20 L 607.40 538.80 L 606.70 552.30 L 605.40 565.70 L 603.60 579.10 L 600.20 577.90 L 597.20 576.40 L 594.50 574.60 L 592.10 572.60 L 589.30 569.50 L 586.90 566.00 L 584.70 562.10 L 581.90 556.00 L 572.90 532.40 L 568.60 524.90 L 562.00 543.20 L 551.30 545.70 L 540.60 547.70 L 529.80 549.10 L 519.00 549.90 L 508.10 550.30 L 486.30 549.80 L 464.60 547.90 L 448.30 545.70 L 432.30 543.10 L 417.70 539.20 L 409.80 536.20 L 404.40 532.80 L 402.10 530.80 L 400.20 528.50 L 398.70 525.80 L 397.70 522.90 L 397.20 519.50 L 397.20 515.50 L 419.20 517.00 L 430.20 517.30 L 441.20 517.00 L 448.50 516.50 L 463.00 514.50 L 470.00 514.00 L 477.00 514.00 L 505.10 515.30 L 519.20 515.00 Z" fill="#f66a7d" fill-rule="nonzero" node-id="110" stroke="none" target-height="80.89996" target-width="210.39996" target-x="397.2" target-y="498.2"></path><path d="M 455.70 593.40 L 512.30 593.60 L 511.10 599.50 L 508.80 603.60 L 506.70 605.90 L 504.20 607.70 L 501.30 609.20 L 494.90 611.00 L 491.20 611.50 L 485.70 611.90 L 463.10 612.10 L 458.50 612.60 L 471.50 612.90 L 484.50 612.60 L 497.50 611.60 L 510.40 610.10 L 526.90 636.90 L 531.40 643.40 L 536.40 649.40 L 540.00 653.10 L 543.80 656.40 L 547.90 659.30 L 552.30 661.80 L 557.20 663.80 L 562.50 665.30 L 575.50 667.30 L 591.90 668.20 L 601.90 668.20 L 641.50 666.90 L 628.90 670.50 L 637.20 689.30 L 619.40 690.90 L 622.50 710.10 L 623.70 719.90 L 618.50 714.00 L 613.00 708.60 L 607.20 703.80 L 601.10 699.30 L 594.60 695.30 L 588.00 691.80 L 581.10 688.70 L 574.00 686.00 L 566.70 683.80 L 559.30 681.90 L 551.70 680.50 L 544.10 679.60 L 544.90 696.00 L 546.80 756.10 L 548.80 777.80 L 550.00 784.40 L 551.60 790.80 L 553.60 796.90 L 558.70 808.90 L 566.60 823.30 L 583.70 851.20 L 584.90 854.00 L 585.60 856.90 L 586.00 861.40 L 585.90 866.10 L 584.10 880.10 L 583.80 884.70 L 581.30 881.80 L 574.40 871.80 L 571.90 868.70 L 569.20 866.20 L 567.10 865.00 L 564.80 864.10 L 562.10 863.70 L 559.90 867.40 L 559.10 869.70 L 556.50 880.70 L 554.60 886.10 L 552.10 889.10 L 550.50 890.00 L 548.50 890.50 L 545.80 890.40 L 543.80 882.10 L 543.20 877.80 L 542.70 871.10 L 542.30 850.80 L 541.90 844.20 L 541.00 837.80 L 538.70 829.60 L 537.00 825.70 L 534.90 822.10 L 532.20 818.70 L 528.90 815.30 L 522.90 813.20 L 516.90 811.60 L 510.70 810.50 L 498.00 809.40 L 491.60 809.40 L 482.00 809.90 L 472.40 810.80 L 453.60 813.30 L 450.00 814.90 L 444.30 818.60 L 442.00 820.80 L 439.20 824.20 L 436.90 827.80 L 435.00 831.70 L 432.40 840.20 L 430.50 851.90 L 428.90 873.20 L 428.20 880.10 L 427.20 886.30 L 415.70 869.90 L 399.80 890.60 L 397.70 865.40 L 371.60 877.90 L 377.90 864.60 L 384.70 851.50 L 406.10 812.80 L 412.90 799.70 L 421.10 781.90 L 424.70 772.80 L 425.30 756.70 L 426.40 692.40 L 427.10 676.30 L 417.40 677.70 L 407.90 679.60 L 398.50 681.90 L 384.80 686.40 L 371.60 692.30 L 365.30 695.80 L 359.20 699.60 L 353.30 703.90 L 347.60 708.50 L 348.00 682.80 L 322.20 689.70 L 334.50 660.90 L 378.50 664.40 L 393.20 664.50 L 400.40 664.00 L 407.60 663.10 L 414.70 661.50 L 421.80 659.40 L 426.70 655.30 L 431.20 650.90 L 435.40 646.10 L 439.20 641.00 L 442.70 635.60 L 445.80 630.10 L 448.40 624.30 L 450.70 618.30 L 452.60 612.10 L 454.10 606.00 L 455.10 599.70 L 455.70 593.40 Z M 472.20 630.30 L 467.00 633.80 L 462.30 637.50 L 458.20 641.70 L 454.40 646.10 L 451.10 650.90 L 448.20 655.90 L 445.60 661.20 L 443.50 666.70 L 441.10 674.30 L 439.30 682.20 L 438.10 690.20 L 437.30 698.40 L 437.00 706.50 L 437.70 722.80 L 440.30 743.00 L 441.30 747.90 L 442.90 752.80 L 445.00 757.50 L 447.50 762.00 L 450.40 766.20 L 453.70 770.10 L 457.30 773.60 L 461.20 776.50 L 467.70 780.00 L 474.70 781.90 L 478.30 782.30 L 482.10 782.20 L 486.00 781.60 L 490.10 780.50 L 496.00 778.40 L 508.30 773.00 L 518.10 767.30 L 525.00 761.70 L 528.00 758.50 L 530.50 755.10 L 532.70 751.40 L 534.30 747.50 L 535.40 743.30 L 535.90 738.60 L 537.40 719.60 L 537.70 709.80 L 537.20 693.60 L 535.30 681.00 L 533.80 674.80 L 531.80 668.90 L 529.30 663.10 L 524.60 654.80 L 512.90 639.90 L 509.60 636.70 L 506.00 633.80 L 502.20 631.30 L 498.20 629.30 L 494.10 627.80 L 489.80 626.90 L 485.40 626.60 L 482.20 626.90 L 478.90 627.60 L 475.50 628.70 L 472.20 630.30 Z" fill="#f56b7a" fill-rule="nonzero" node-id="112" stroke="none" target-height="297.19995" target-width="319.3" target-x="322.2" target-y="593.4"></path><path d="M 468.40 639.40 L 472.50 637.40 L 476.50 636.10 L 480.40 635.30 L 484.20 635.10 L 488.00 635.40 L 491.70 636.20 L 495.20 637.40 L 498.80 639.00 L 503.20 641.70 L 507.40 645.00 L 511.30 648.80 L 514.90 653.00 L 518.20 657.50 L 521.10 662.20 L 523.60 667.20 L 525.60 672.10 L 527.20 676.90 L 530.30 692.90 L 531.30 701.10 L 531.80 709.40 L 531.70 717.70 L 531.20 725.90 L 530.30 732.00 L 529.00 737.90 L 527.30 743.80 L 525.20 749.50 L 517.50 756.80 L 513.20 760.20 L 508.70 763.30 L 504.00 766.10 L 499.10 768.40 L 494.10 770.30 L 489.10 771.70 L 484.00 772.60 L 476.40 772.70 L 468.80 771.20 L 465.20 769.90 L 461.60 768.00 L 458.10 765.70 L 454.50 762.80 L 454.30 745.30 L 454.50 732.30 L 455.30 719.30 L 456.50 706.40 L 460.10 680.70 L 463.60 661.60 L 468.40 639.40 Z" fill="#fae867" fill-rule="nonzero" node-id="114" stroke="none" target-height="137.60004" target-width="77.5" target-x="454.3" target-y="635.1"></path></svg>