<?xml version="1.0" standalone="no"?><!DOCTYPE svg PUBLIC "-//W3C//DTD SVG 1.1//EN" "http://www.w3.org/Graphics/SVG/1.1/DTD/svg11.dtd"><svg height="1024" node-id="1" sillyvg="true" template-height="1024" template-width="1024" version="1.1" viewBox="0 0 1024 1024" width="1024" xmlns="http://www.w3.org/2000/svg" xmlns:xlink="http://www.w3.org/1999/xlink"><defs node-id="72"></defs><path d="M 0.00 0.00 L 1024.00 0.00 L 1024.00 1024.00 L 0.00 1024.00 Z" fill="#ffffff" fill-rule="nonzero" node-id="74" stroke="none" target-height="1024" target-width="1024" target-x="0" target-y="0"></path><path d="M 366.80 97.70 L 371.00 96.90 L 375.10 95.70 L 379.00 94.10 L 384.60 91.10 L 401.20 81.10 L 405.00 79.20 L 412.80 76.40 L 416.80 75.70 L 421.10 75.50 L 425.70 76.00 L 432.30 77.30 L 438.90 78.10 L 445.50 78.50 L 452.00 78.50 L 458.50 78.00 L 465.00 77.00 L 471.50 75.60 L 481.70 72.50 L 485.30 72.00 L 488.60 72.10 L 495.20 73.20 L 498.50 74.30 L 503.20 76.40 L 517.10 83.80 L 521.90 86.10 L 526.80 87.80 L 530.10 88.60 L 533.50 89.00 L 543.50 89.20 L 549.80 90.00 L 556.10 91.20 L 562.20 92.90 L 568.10 95.00 L 573.80 97.70 L 579.30 100.70 L 584.50 104.30 L 589.40 108.20 L 594.00 112.60 L 598.10 117.40 L 601.90 122.70 L 622.40 118.70 L 632.70 117.20 L 643.00 116.20 L 649.90 116.00 L 656.90 116.20 L 663.80 116.80 L 665.80 128.90 L 667.30 141.20 L 667.60 147.30 L 667.50 153.50 L 666.20 173.10 L 664.30 192.60 L 655.40 270.70 L 653.50 290.20 L 652.20 309.80 L 651.70 322.90 L 651.70 349.10 L 653.00 375.30 L 654.60 401.50 L 656.80 427.70 L 659.50 453.80 L 662.60 479.80 L 668.00 516.20 L 672.30 536.80 L 676.40 552.00 L 694.90 612.40 L 701.70 637.70 L 705.70 658.30 L 707.10 668.70 L 708.00 679.20 L 708.30 689.80 L 721.20 660.00 L 740.50 682.40 L 745.80 687.70 L 751.50 692.40 L 755.40 695.10 L 759.60 697.40 L 764.00 699.20 L 770.80 700.90 L 778.40 701.30 L 783.10 698.50 L 787.50 695.40 L 791.40 692.10 L 795.00 688.40 L 799.30 683.10 L 803.20 677.40 L 806.50 671.30 L 809.40 664.90 L 812.00 658.40 L 814.10 651.60 L 816.80 641.40 L 818.90 631.30 L 838.60 642.90 L 856.80 652.10 L 854.70 658.70 L 852.20 665.00 L 849.40 671.10 L 846.20 676.90 L 842.70 682.40 L 837.80 689.10 L 832.40 695.30 L 826.70 701.20 L 820.40 706.60 L 813.90 711.70 L 807.00 716.30 L 799.80 720.40 L 792.40 724.20 L 784.70 727.50 L 776.80 730.40 L 768.80 732.70 L 760.70 734.70 L 752.40 736.10 L 744.10 737.10 L 735.90 737.50 L 727.60 737.50 L 730.80 729.80 L 750.10 727.10 L 759.70 725.40 L 769.10 723.10 L 775.30 721.20 L 787.40 716.30 L 777.30 713.50 L 767.40 710.10 L 757.80 706.20 L 750.70 702.90 L 743.80 699.20 L 737.10 695.20 L 730.50 690.70 L 731.00 704.10 L 726.70 693.00 L 708.80 694.10 L 703.90 729.70 L 694.50 759.40 L 692.90 752.60 L 695.10 738.50 L 696.60 724.50 L 697.60 710.40 L 697.90 696.30 L 697.70 685.00 L 697.00 673.80 L 695.90 662.50 L 694.40 651.30 L 692.40 640.20 L 686.60 619.60 L 668.40 558.10 L 662.70 537.50 L 657.40 516.80 L 654.30 502.90 L 651.50 488.90 L 649.20 474.80 L 647.50 453.40 L 641.00 389.20 L 639.20 367.70 L 638.00 346.20 L 637.80 333.60 L 638.30 308.40 L 639.40 289.60 L 641.00 270.70 L 644.80 233.10 L 651.10 179.80 L 654.10 144.20 L 654.90 126.30 L 624.40 129.20 L 606.00 132.10 L 596.90 134.00 L 587.10 123.50 L 581.80 118.50 L 576.30 113.90 L 572.40 111.10 L 564.10 106.50 L 559.80 104.80 L 555.10 103.60 L 541.20 101.40 L 532.20 99.60 L 523.30 97.50 L 514.60 94.80 L 508.90 92.60 L 503.30 90.20 L 495.10 85.90 L 492.30 85.00 L 489.50 84.40 L 485.20 84.20 L 480.80 84.60 L 459.20 89.10 L 454.90 89.70 L 450.50 89.90 L 443.90 89.60 L 424.00 88.00 L 419.60 88.00 L 411.20 89.10 L 405.20 91.20 L 394.70 97.70 L 389.80 100.20 L 377.00 105.40 L 361.40 111.00 L 348.90 116.50 L 339.70 122.20 L 335.50 125.50 L 331.60 129.50 L 322.30 141.00 L 317.10 148.00 L 312.40 155.20 L 308.30 162.50 L 304.60 170.10 L 301.30 177.90 L 298.40 185.80 L 296.00 193.80 L 293.20 204.70 L 291.00 215.80 L 289.30 227.10 L 287.20 250.00 L 286.30 278.90 L 286.30 344.40 L 286.90 402.40 L 286.00 426.40 L 283.80 445.40 L 282.10 454.80 L 280.00 464.20 L 277.30 473.50 L 265.90 501.50 L 260.60 515.70 L 255.70 530.00 L 251.30 544.40 L 247.20 559.00 L 243.60 573.70 L 240.60 588.50 L 238.10 603.40 L 236.80 614.30 L 235.40 636.30 L 235.10 669.40 L 257.20 668.60 L 268.30 668.70 L 269.80 658.40 L 270.90 647.90 L 273.30 615.90 L 274.70 605.50 L 275.90 598.50 L 277.40 591.80 L 279.40 585.10 L 281.90 578.70 L 284.90 572.40 L 288.60 566.30 L 287.20 576.90 L 286.30 587.90 L 284.50 632.50 L 282.90 647.20 L 280.20 661.40 L 278.20 668.30 L 275.70 675.00 L 271.00 684.60 L 264.70 693.90 L 252.50 684.10 L 251.30 687.10 L 249.60 689.80 L 247.50 692.00 L 245.20 693.70 L 243.50 694.50 L 240.20 695.00 L 238.70 694.80 L 237.20 694.10 L 235.80 693.00 L 234.70 691.60 L 233.70 689.60 L 232.90 686.80 L 230.40 675.40 L 228.60 664.00 L 227.40 652.60 L 226.80 641.20 L 226.80 629.80 L 227.30 618.40 L 228.30 607.00 L 229.70 595.60 L 233.90 573.00 L 236.60 561.80 L 244.00 535.70 L 248.90 521.00 L 254.20 506.50 L 262.60 485.00 L 271.50 464.00 L 272.50 448.10 L 273.70 416.20 L 274.00 392.20 L 273.60 320.40 L 273.70 296.40 L 274.20 272.50 L 275.80 240.60 L 277.80 217.90 L 278.00 211.10 L 277.80 204.40 L 276.90 194.40 L 275.30 184.40 L 266.90 144.50 L 265.20 134.40 L 264.10 124.40 L 272.90 123.00 L 277.20 122.90 L 283.80 123.20 L 290.30 124.20 L 296.80 125.50 L 315.90 130.40 L 320.50 125.20 L 330.50 115.80 L 335.80 111.50 L 341.40 107.70 L 347.30 104.30 L 351.90 102.20 L 361.60 98.90 L 366.80 97.70 Z M 276.30 134.50 L 279.20 147.00 L 281.70 159.60 L 283.80 172.30 L 285.50 185.10 L 290.30 173.60 L 295.70 162.20 L 303.80 147.40 L 308.20 140.30 L 276.30 134.50 Z M 790.70 708.70 L 795.70 708.50 L 800.50 707.70 L 805.10 706.50 L 809.60 704.80 L 813.80 702.70 L 821.80 697.50 L 825.60 694.40 L 830.20 689.80 L 834.60 684.90 L 838.50 679.70 L 842.20 674.20 L 848.40 663.10 L 828.90 644.00 L 827.30 650.30 L 825.30 656.30 L 822.90 662.20 L 817.20 673.40 L 808.60 686.50 L 802.80 694.10 L 790.70 708.70 Z" fill="#3a3c48" fill-rule="nonzero" node-id="76" stroke="none" target-height="687.4" target-width="630" target-x="226.8" target-y="72"></path><path d="M 463.40 88.00 L 480.80 84.60 L 485.20 84.20 L 489.50 84.40 L 492.30 85.00 L 495.10 85.90 L 503.30 90.20 L 508.90 92.60 L 514.60 94.80 L 523.30 97.50 L 532.20 99.60 L 541.20 101.40 L 555.10 103.60 L 559.80 104.80 L 564.10 106.50 L 568.40 108.70 L 576.30 113.90 L 581.80 118.50 L 587.10 123.50 L 596.90 134.00 L 596.90 157.00 L 578.80 156.00 L 569.30 166.30 L 564.50 163.00 L 559.50 160.20 L 554.10 157.60 L 548.60 155.60 L 543.00 154.00 L 537.30 152.90 L 528.60 152.50 L 520.10 153.40 L 515.90 154.50 L 511.90 156.00 L 507.90 157.90 L 504.00 160.30 L 500.50 162.70 L 497.30 165.40 L 494.40 168.30 L 491.90 171.40 L 489.00 176.00 L 486.60 180.80 L 484.80 185.90 L 483.60 191.20 L 482.90 196.60 L 482.70 202.10 L 483.10 207.60 L 484.00 212.90 L 485.50 218.20 L 487.50 223.30 L 490.00 228.00 L 493.10 232.50 L 495.70 235.60 L 501.90 241.00 L 509.60 245.90 L 513.80 247.80 L 518.00 249.10 L 522.40 250.00 L 526.80 250.40 L 531.30 250.40 L 538.10 249.70 L 545.00 248.60 L 571.90 242.10 L 566.60 255.40 L 564.30 259.50 L 562.40 261.90 L 560.20 264.10 L 550.50 271.10 L 543.20 275.70 L 535.70 279.90 L 528.00 283.60 L 520.10 286.90 L 512.00 289.70 L 503.80 292.20 L 495.50 294.20 L 487.00 295.90 L 469.90 298.00 L 461.30 298.50 L 449.70 298.60 L 438.20 298.10 L 426.70 297.00 L 415.40 295.30 L 404.20 293.00 L 393.20 290.20 L 388.00 288.60 L 378.30 284.60 L 367.80 278.50 L 356.60 270.20 L 325.20 242.10 L 326.30 247.30 L 327.80 252.20 L 329.80 256.80 L 332.10 261.10 L 334.90 265.30 L 341.30 272.90 L 350.10 280.80 L 355.50 284.80 L 361.30 288.50 L 373.30 294.90 L 379.40 297.60 L 389.10 301.30 L 399.00 304.40 L 409.10 306.90 L 419.30 308.80 L 429.60 310.20 L 439.90 311.10 L 450.30 311.40 L 460.80 311.30 L 481.60 309.80 L 502.10 306.80 L 500.10 320.90 L 517.50 329.80 L 491.90 345.90 L 486.60 345.90 L 481.30 346.40 L 476.20 347.30 L 471.20 348.80 L 466.40 350.80 L 461.70 353.30 L 443.70 353.40 L 434.70 354.10 L 425.80 355.50 L 419.90 356.80 L 408.70 360.60 L 403.30 363.10 L 398.00 366.00 L 386.00 374.70 L 379.60 380.30 L 373.60 386.30 L 368.00 392.70 L 362.70 399.30 L 357.90 406.30 L 353.30 413.50 L 349.10 421.00 L 344.00 431.20 L 339.40 441.70 L 335.20 452.50 L 331.40 463.30 L 324.90 485.00 L 321.90 480.00 L 319.70 473.40 L 318.80 469.20 L 317.80 460.80 L 303.80 454.40 L 304.20 464.70 L 299.50 489.60 L 277.30 473.50 L 280.00 464.20 L 282.10 454.80 L 283.80 445.40 L 286.00 426.40 L 286.50 416.80 L 286.90 402.40 L 286.90 387.90 L 286.20 344.40 L 286.30 278.90 L 287.20 250.00 L 289.30 227.10 L 291.00 215.80 L 293.20 204.70 L 296.00 193.80 L 298.40 185.80 L 301.30 177.90 L 304.60 170.10 L 308.30 162.50 L 312.40 155.20 L 317.10 148.00 L 322.30 141.00 L 331.60 129.50 L 335.50 125.50 L 339.70 122.20 L 344.20 119.20 L 353.80 114.10 L 361.40 111.00 L 384.80 102.40 L 389.80 100.20 L 394.70 97.70 L 405.20 91.20 L 411.20 89.10 L 419.60 88.00 L 424.00 88.00 L 443.90 89.60 L 450.50 89.90 L 454.90 89.70 L 459.20 89.10 L 463.40 88.00 Z M 456.30 125.70 L 452.50 129.80 L 449.00 134.10 L 446.00 138.60 L 443.30 143.40 L 440.30 150.00 L 437.80 156.80 L 435.80 163.90 L 434.30 171.10 L 432.30 185.50 L 431.00 201.00 L 430.50 216.60 L 430.80 224.40 L 431.80 232.00 L 432.90 237.00 L 434.40 242.00 L 436.30 246.80 L 439.90 200.70 L 443.00 175.30 L 447.00 155.20 L 449.50 145.30 L 452.70 135.50 L 456.30 125.70 Z M 450.20 205.70 L 449.50 230.10 L 450.50 238.00 L 452.80 243.60 L 454.50 246.10 L 456.70 248.40 L 459.40 250.50 L 458.70 240.10 L 458.50 229.70 L 458.80 219.40 L 459.50 209.20 L 461.30 195.60 L 463.60 182.10 L 466.60 168.60 L 473.90 142.10 L 478.10 128.90 L 474.20 132.60 L 470.70 136.50 L 467.70 140.70 L 465.00 145.00 L 461.90 151.20 L 459.30 157.60 L 457.10 164.30 L 454.00 178.10 L 452.80 185.10 L 450.20 205.70 Z M 349.10 150.30 L 344.80 152.20 L 340.90 154.50 L 337.40 157.10 L 334.10 160.00 L 331.20 163.30 L 328.60 166.80 L 326.30 170.50 L 324.40 174.40 L 322.30 179.90 L 320.90 185.60 L 320.10 191.40 L 319.90 197.30 L 320.30 203.10 L 321.40 208.90 L 322.60 213.10 L 324.20 217.10 L 326.20 221.00 L 328.50 224.70 L 331.20 228.20 L 334.30 231.30 L 337.80 234.20 L 345.40 239.40 L 349.30 241.40 L 353.30 243.00 L 357.30 244.20 L 361.50 244.90 L 369.80 245.20 L 374.10 244.80 L 379.60 243.70 L 385.00 242.10 L 390.30 239.80 L 395.30 237.00 L 400.00 233.70 L 404.40 230.00 L 408.30 225.80 L 411.70 221.30 L 414.60 216.40 L 416.30 212.50 L 417.70 208.50 L 418.70 204.30 L 419.60 195.30 L 419.50 191.00 L 419.00 186.70 L 418.00 182.50 L 414.90 174.60 L 410.50 167.30 L 406.80 162.80 L 402.70 158.80 L 398.20 155.20 L 393.30 152.10 L 388.20 149.60 L 382.80 147.60 L 378.60 146.50 L 370.20 145.50 L 365.90 145.60 L 361.70 146.10 L 357.50 147.00 L 353.30 148.40 L 349.10 150.30 Z" fill="#a4d4ca" fill-rule="nonzero" node-id="78" stroke="none" target-height="405.40002" target-width="319.60004" target-x="277.3" target-y="84.2"></path><path d="M 456.30 125.70 L 452.70 135.50 L 449.60 145.30 L 447.00 155.20 L 443.00 175.30 L 439.90 200.70 L 436.30 246.80 L 434.40 242.00 L 432.90 237.00 L 431.80 232.00 L 430.80 224.40 L 430.50 216.60 L 431.00 201.00 L 432.30 185.50 L 434.30 171.10 L 435.80 163.90 L 437.80 156.80 L 440.30 150.00 L 443.30 143.40 L 446.00 138.60 L 449.00 134.10 L 452.50 129.80 L 456.30 125.70 Z" fill="#37384d" fill-rule="nonzero" node-id="80" stroke="none" target-height="121.100006" target-width="25.799988" target-x="430.5" target-y="125.7"></path><path d="M 450.20 205.70 L 452.80 185.10 L 454.00 178.10 L 457.10 164.30 L 459.30 157.60 L 461.90 151.20 L 465.00 145.00 L 467.70 140.60 L 470.70 136.50 L 474.20 132.60 L 478.10 128.90 L 473.90 142.10 L 466.60 168.60 L 463.60 182.10 L 461.30 195.60 L 459.50 209.20 L 458.80 219.40 L 458.50 229.70 L 458.70 240.10 L 459.40 250.50 L 456.70 248.40 L 454.50 246.10 L 452.80 243.60 L 450.50 238.00 L 449.50 230.10 L 450.20 205.70 Z" fill="#37384d" fill-rule="nonzero" node-id="82" stroke="none" target-height="121.600006" target-width="28.600006" target-x="449.5" target-y="128.9"></path><path d="M 349.10 150.30 L 353.30 148.40 L 357.50 147.00 L 361.70 146.10 L 365.90 145.60 L 370.20 145.50 L 378.60 146.50 L 382.80 147.60 L 388.20 149.60 L 393.30 152.10 L 398.20 155.20 L 402.70 158.80 L 406.80 162.80 L 410.50 167.30 L 414.90 174.60 L 418.00 182.50 L 419.00 186.70 L 419.50 191.00 L 419.60 195.30 L 418.70 204.30 L 417.70 208.50 L 416.30 212.50 L 414.60 216.40 L 411.70 221.30 L 408.30 225.80 L 404.40 230.00 L 400.00 233.70 L 395.30 237.00 L 390.30 239.80 L 385.00 242.10 L 379.60 243.70 L 374.10 244.80 L 369.80 245.20 L 361.50 244.90 L 357.30 244.20 L 353.30 243.00 L 349.30 241.40 L 345.40 239.40 L 337.80 234.20 L 334.30 231.30 L 331.20 228.20 L 328.50 224.70 L 326.20 221.00 L 324.20 217.10 L 322.60 213.10 L 321.40 208.90 L 320.30 203.10 L 319.90 197.30 L 320.10 191.40 L 320.90 185.60 L 322.30 179.90 L 324.40 174.40 L 326.30 170.50 L 328.60 166.80 L 331.20 163.30 L 334.10 160.00 L 337.40 157.10 L 340.90 154.50 L 344.80 152.20 L 349.10 150.30 Z M 354.80 161.50 L 348.30 164.60 L 342.90 168.80 L 339.90 172.20 L 337.30 176.00 L 335.20 180.10 L 333.60 184.40 L 332.50 188.80 L 332.00 193.40 L 331.90 198.00 L 332.50 202.50 L 333.60 207.00 L 334.80 210.20 L 338.20 216.20 L 343.60 222.50 L 346.90 225.40 L 350.60 227.70 L 354.60 229.50 L 358.70 230.80 L 363.00 231.60 L 367.30 231.90 L 371.70 231.70 L 376.10 231.00 L 380.40 229.90 L 384.50 228.30 L 388.40 226.30 L 392.10 223.90 L 395.40 221.10 L 398.40 217.90 L 401.00 214.40 L 403.00 210.50 L 405.70 202.60 L 406.50 195.60 L 406.30 192.10 L 405.60 187.60 L 404.20 183.20 L 402.30 179.00 L 399.80 175.00 L 397.00 171.40 L 393.70 168.10 L 390.10 165.10 L 386.20 162.60 L 382.00 160.60 L 377.70 159.10 L 373.20 158.30 L 368.60 158.00 L 365.10 158.20 L 361.70 158.90 L 358.30 159.90 L 354.80 161.50 Z" fill="#37384d" fill-rule="nonzero" node-id="84" stroke="none" target-height="99.7" target-width="99.70001" target-x="319.9" target-y="145.5"></path><path d="M 504.00 160.30 L 507.90 157.90 L 511.90 156.00 L 515.90 154.50 L 520.10 153.40 L 528.60 152.50 L 537.30 152.90 L 543.00 154.00 L 548.60 155.60 L 554.10 157.60 L 559.50 160.20 L 564.50 163.00 L 569.30 166.30 L 572.00 170.40 L 574.30 174.50 L 577.90 183.00 L 579.50 189.00 L 580.40 194.90 L 580.80 201.00 L 580.50 207.00 L 579.70 213.00 L 578.20 219.00 L 576.20 224.80 L 573.50 230.50 L 570.20 236.00 L 575.40 241.30 L 580.30 247.10 L 583.20 251.20 L 585.70 255.50 L 589.00 263.30 L 590.40 270.20 L 590.60 273.80 L 590.30 277.30 L 589.60 280.90 L 588.40 284.50 L 586.60 288.30 L 581.60 262.60 L 574.00 269.50 L 566.00 275.90 L 557.70 281.90 L 549.10 287.40 L 540.20 292.40 L 531.10 296.80 L 516.90 302.50 L 509.60 304.80 L 502.10 306.80 L 491.90 308.50 L 471.20 310.80 L 460.80 311.30 L 450.30 311.40 L 439.90 311.10 L 429.60 310.20 L 419.30 308.80 L 409.10 306.90 L 399.00 304.40 L 389.10 301.30 L 379.40 297.60 L 373.30 294.90 L 361.30 288.50 L 355.60 284.80 L 350.10 280.80 L 341.30 272.90 L 337.90 269.20 L 332.20 261.10 L 329.80 256.80 L 327.80 252.20 L 326.30 247.30 L 325.20 242.10 L 356.60 270.20 L 367.80 278.50 L 378.30 284.60 L 388.00 288.60 L 404.20 293.00 L 415.40 295.30 L 426.70 297.00 L 438.20 298.10 L 449.70 298.60 L 461.30 298.50 L 469.90 298.00 L 478.50 297.10 L 495.50 294.20 L 503.80 292.20 L 512.00 289.70 L 520.10 286.90 L 528.00 283.60 L 535.70 279.90 L 543.20 275.70 L 550.50 271.10 L 557.50 266.10 L 560.20 264.10 L 562.40 261.90 L 564.30 259.50 L 566.60 255.40 L 571.90 242.10 L 551.90 247.00 L 538.10 249.70 L 531.30 250.40 L 526.80 250.40 L 522.40 250.00 L 518.00 249.10 L 513.80 247.80 L 509.60 245.90 L 501.90 241.00 L 498.60 238.50 L 493.10 232.50 L 490.00 228.00 L 487.50 223.30 L 485.50 218.20 L 484.00 212.90 L 483.10 207.60 L 482.70 202.10 L 482.90 196.60 L 483.60 191.20 L 484.80 185.90 L 486.60 180.80 L 489.00 176.00 L 491.90 171.40 L 494.40 168.30 L 497.30 165.40 L 500.50 162.70 L 504.00 160.30 Z M 512.60 169.50 L 508.70 172.00 L 505.30 174.90 L 502.50 178.10 L 500.10 181.70 L 498.10 185.60 L 496.70 189.70 L 495.70 193.90 L 495.20 198.20 L 495.10 202.60 L 495.50 206.90 L 496.40 211.20 L 497.70 215.30 L 499.50 219.30 L 501.80 222.90 L 504.50 226.30 L 507.60 229.30 L 511.20 231.90 L 515.30 234.10 L 519.30 236.00 L 523.40 237.30 L 527.60 238.00 L 531.80 238.10 L 536.10 237.80 L 540.30 236.90 L 544.40 235.60 L 548.30 233.80 L 552.10 231.60 L 555.60 229.10 L 558.80 226.20 L 561.70 223.00 L 564.10 219.50 L 566.10 215.80 L 567.70 211.80 L 568.70 207.70 L 569.10 203.40 L 568.50 194.90 L 567.70 191.20 L 566.60 187.60 L 564.90 184.20 L 560.70 178.10 L 555.20 172.90 L 551.00 170.00 L 546.60 167.70 L 541.80 165.90 L 534.40 164.40 L 526.90 164.40 L 523.20 165.00 L 519.60 166.10 L 516.00 167.60 L 512.60 169.50 Z" fill="#37384d" fill-rule="nonzero" node-id="86" stroke="none" target-height="158.9" target-width="265.39996" target-x="325.2" target-y="152.5"></path><path d="M 491.00 474.20 L 490.40 461.10 L 491.10 453.90 L 492.00 450.70 L 493.20 448.10 L 494.40 446.70 L 495.80 445.70 L 497.40 445.00 L 499.10 444.90 L 501.30 445.20 L 504.10 446.20 L 506.70 447.80 L 508.70 449.70 L 510.10 451.70 L 511.20 453.90 L 511.90 456.20 L 512.10 458.60 L 511.50 463.40 L 509.50 467.80 L 508.00 469.80 L 504.20 472.90 L 502.00 474.00 L 499.50 474.80 L 496.90 475.10 L 494.10 474.90 L 491.00 474.20 Z" fill="#37384d" fill-rule="nonzero" node-id="88" stroke="none" target-height="30.200012" target-width="21.699982" target-x="490.4" target-y="444.9"></path><path d="M 473.50 596.90 L 471.20 585.20 L 470.70 580.80 L 470.70 575.30 L 471.10 572.90 L 471.90 570.70 L 473.10 568.90 L 474.70 567.50 L 477.90 566.40 L 482.90 566.60 L 485.00 568.80 L 486.60 571.10 L 487.80 573.60 L 488.60 576.30 L 489.10 578.90 L 488.90 584.20 L 487.20 589.10 L 485.80 591.20 L 484.10 593.10 L 482.00 594.70 L 479.60 595.90 L 476.80 596.60 L 473.50 596.90 Z" fill="#37384d" fill-rule="nonzero" node-id="90" stroke="none" target-height="30.5" target-width="18.399994" target-x="470.7" target-y="566.4"></path><path d="M 354.40 603.50 L 354.80 592.10 L 355.80 586.60 L 356.50 585.00 L 358.70 582.80 L 360.10 582.10 L 361.90 581.70 L 364.40 581.80 L 365.90 582.80 L 367.10 584.00 L 367.90 585.50 L 368.60 587.90 L 369.40 599.40 L 370.10 601.90 L 354.40 603.50 Z" fill="#37384d" fill-rule="nonzero" node-id="92" stroke="none" target-height="21.799988" target-width="15.700012" target-x="354.4" target-y="581.7"></path><path d="M 472.30 734.20 L 470.90 718.90 L 471.20 714.10 L 471.80 712.10 L 472.70 710.30 L 473.90 709.00 L 475.70 708.00 L 477.60 707.60 L 480.30 707.70 L 484.00 708.50 L 485.70 714.10 L 487.00 719.80 L 488.50 731.60 L 472.30 734.20 Z" fill="#37384d" fill-rule="nonzero" node-id="94" stroke="none" target-height="26.600037" target-width="17.600006" target-x="470.9" target-y="707.6"></path><path d="M 446.00 749.90 L 462.60 749.80 L 464.30 774.90 L 446.20 780.10 L 445.40 775.10 L 445.00 765.00 L 446.00 749.90 Z" fill="#37384d" fill-rule="nonzero" node-id="96" stroke="none" target-height="30.299988" target-width="19.299988" target-x="445" target-y="749.8"></path><path d="M 596.90 134.00 L 606.00 132.10 L 624.40 129.20 L 638.20 127.70 L 652.20 126.70 L 650.50 130.10 L 648.50 133.10 L 646.20 135.80 L 642.20 139.40 L 624.50 152.30 L 620.90 156.00 L 618.80 158.60 L 617.20 161.60 L 616.00 164.90 L 632.40 190.40 L 636.20 196.90 L 639.50 203.60 L 641.30 208.20 L 644.00 217.70 L 644.80 222.60 L 645.00 227.70 L 644.80 233.10 L 641.00 270.70 L 639.40 289.60 L 638.30 308.40 L 637.80 333.60 L 638.00 346.20 L 629.50 349.40 L 625.30 351.40 L 621.50 353.70 L 619.20 355.50 L 617.30 357.60 L 615.80 359.90 L 614.60 363.90 L 614.50 379.70 L 615.50 400.80 L 616.90 416.60 L 620.20 448.20 L 622.50 474.50 L 623.10 495.60 L 622.80 506.10 L 622.00 516.70 L 619.00 538.30 L 614.60 560.20 L 599.40 584.60 L 585.10 609.50 L 579.70 602.80 L 581.70 591.20 L 583.30 579.60 L 584.40 567.80 L 585.00 556.00 L 585.10 544.10 L 584.70 532.30 L 583.80 520.50 L 582.30 508.80 L 580.40 497.10 L 577.80 485.60 L 574.80 474.20 L 571.20 463.00 L 567.00 452.00 L 562.20 441.30 L 556.90 430.80 L 550.90 420.50 L 545.60 412.50 L 539.80 404.90 L 533.60 397.80 L 526.90 391.10 L 519.80 384.90 L 512.30 379.00 L 504.60 373.60 L 496.40 368.70 L 488.00 364.20 L 479.50 360.10 L 470.70 356.50 L 461.70 353.30 L 466.40 350.80 L 471.20 348.80 L 476.20 347.30 L 481.30 346.40 L 486.60 345.90 L 491.90 345.90 L 517.50 329.80 L 500.10 320.90 L 502.10 306.80 L 509.60 304.80 L 524.10 299.80 L 531.10 296.80 L 540.20 292.40 L 549.10 287.40 L 557.70 281.90 L 566.00 275.90 L 574.00 269.50 L 581.60 262.60 L 586.60 288.30 L 588.40 284.50 L 589.60 280.90 L 590.30 277.30 L 590.60 273.80 L 590.40 270.20 L 589.00 263.30 L 585.70 255.50 L 583.20 251.20 L 580.30 247.10 L 575.40 241.30 L 570.20 236.00 L 573.50 230.50 L 576.10 224.80 L 578.20 219.00 L 579.70 213.00 L 580.50 207.00 L 580.80 201.00 L 580.40 194.90 L 579.50 189.00 L 577.90 183.00 L 574.30 174.50 L 569.30 166.30 L 578.80 156.00 L 596.90 157.00 L 596.90 134.00 Z" fill="#93c8c3" fill-rule="nonzero" node-id="98" stroke="none" target-height="482.8" target-width="190.5" target-x="461.7" target-y="126.7"></path><path d="M 652.20 126.70 L 654.90 126.30 L 654.10 144.20 L 651.10 179.80 L 644.80 233.10 L 645.00 227.70 L 644.80 222.60 L 644.00 217.70 L 642.90 212.90 L 639.50 203.60 L 636.20 196.90 L 632.40 190.40 L 616.00 164.90 L 617.20 161.60 L 618.80 158.60 L 620.90 156.00 L 624.50 152.30 L 642.20 139.40 L 646.20 135.80 L 648.50 133.10 L 650.50 130.10 L 652.20 126.70 Z" fill="#81a9b0" fill-rule="nonzero" node-id="100" stroke="none" target-height="106.8" target-width="38.900024" target-x="616" target-y="126.3"></path><path d="M 276.30 134.50 L 308.20 140.30 L 303.80 147.40 L 295.70 162.20 L 290.30 173.60 L 285.50 185.10 L 283.80 172.30 L 281.70 159.60 L 279.20 147.00 L 276.30 134.50 Z" fill="#b9c8c3" fill-rule="nonzero" node-id="102" stroke="none" target-height="50.600006" target-width="31.900024" target-x="276.3" target-y="134.5"></path><path d="M 354.70 161.50 L 358.20 159.90 L 361.70 158.90 L 365.10 158.20 L 368.60 158.00 L 373.20 158.30 L 377.60 159.10 L 382.00 160.60 L 386.20 162.60 L 390.10 165.10 L 393.70 168.10 L 397.00 171.40 L 399.80 175.00 L 402.30 179.00 L 404.20 183.20 L 405.60 187.60 L 406.30 192.10 L 406.50 195.60 L 405.70 202.60 L 403.00 210.50 L 401.00 214.40 L 398.40 217.90 L 395.40 221.10 L 392.10 223.90 L 388.40 226.30 L 384.50 228.30 L 380.40 229.90 L 376.10 231.00 L 371.70 231.70 L 367.30 231.90 L 363.00 231.60 L 358.70 230.80 L 354.60 229.50 L 350.60 227.70 L 346.90 225.40 L 343.60 222.50 L 338.20 216.20 L 334.80 210.20 L 333.60 207.00 L 332.50 202.50 L 331.90 198.00 L 332.00 193.40 L 332.50 188.80 L 333.60 184.40 L 335.20 180.10 L 337.30 176.00 L 339.90 172.20 L 342.90 168.80 L 348.30 164.60 L 354.70 161.50 Z M 361.30 181.10 L 358.70 182.90 L 356.80 184.90 L 355.40 187.10 L 354.40 189.60 L 353.90 192.10 L 353.90 194.80 L 355.00 200.00 L 356.10 202.50 L 357.50 204.80 L 361.10 208.60 L 363.30 210.00 L 365.70 210.90 L 368.30 211.30 L 370.90 211.30 L 373.70 210.50 L 376.80 209.10 L 379.60 207.40 L 381.70 205.40 L 383.20 203.30 L 384.20 200.80 L 384.70 198.20 L 384.80 195.50 L 383.70 190.20 L 382.60 187.60 L 381.10 185.20 L 379.40 183.20 L 377.40 181.40 L 375.10 180.00 L 372.60 179.10 L 370.00 178.60 L 368.00 178.60 L 363.70 179.80 L 361.30 181.10 Z" fill="#f6f7f3" fill-rule="nonzero" node-id="104" stroke="none" target-height="73.899994" target-width="74.600006" target-x="331.9" target-y="158"></path><path d="M 512.60 169.50 L 516.00 167.60 L 519.60 166.10 L 523.20 165.00 L 526.90 164.40 L 530.70 164.30 L 538.10 165.00 L 541.80 165.90 L 546.60 167.70 L 551.00 170.00 L 555.20 172.90 L 558.10 175.30 L 563.00 181.00 L 564.90 184.20 L 566.60 187.60 L 567.70 191.20 L 568.50 194.90 L 568.80 199.00 L 569.10 203.40 L 568.70 207.70 L 567.70 211.80 L 566.10 215.80 L 564.10 219.50 L 561.60 223.00 L 558.80 226.20 L 555.60 229.10 L 552.10 231.60 L 548.30 233.80 L 544.40 235.60 L 540.30 236.90 L 536.10 237.80 L 531.80 238.10 L 527.60 238.00 L 523.40 237.30 L 519.30 236.00 L 511.20 231.90 L 507.60 229.30 L 504.50 226.30 L 501.80 222.90 L 499.50 219.30 L 497.70 215.30 L 496.40 211.20 L 495.50 206.90 L 495.10 202.60 L 495.20 198.20 L 495.70 193.90 L 496.70 189.70 L 498.10 185.60 L 500.10 181.70 L 502.50 178.10 L 505.30 174.90 L 508.70 172.00 L 512.60 169.50 Z M 524.60 187.30 L 522.00 189.10 L 520.00 191.20 L 518.60 193.60 L 517.60 196.30 L 517.00 199.20 L 516.90 202.20 L 517.10 205.20 L 518.70 210.90 L 520.30 212.70 L 522.20 214.20 L 524.30 215.40 L 528.90 216.70 L 531.40 216.90 L 536.30 216.30 L 540.80 214.50 L 544.50 211.60 L 545.90 209.70 L 547.00 207.60 L 548.40 202.50 L 548.60 200.00 L 548.20 197.50 L 546.30 192.90 L 543.00 189.00 L 538.80 186.20 L 536.40 185.30 L 534.00 184.80 L 531.60 184.70 L 529.20 185.00 L 526.90 185.90 L 524.60 187.30 Z" fill="#f7f8f4" fill-rule="nonzero" node-id="106" stroke="none" target-height="73.8" target-width="73.99997" target-x="495.1" target-y="164.3"></path><path d="M 361.30 181.10 L 363.70 179.80 L 368.00 178.60 L 370.00 178.60 L 372.60 179.10 L 375.10 180.00 L 377.40 181.40 L 379.40 183.20 L 381.10 185.20 L 382.60 187.60 L 384.50 192.80 L 384.80 195.50 L 384.70 198.20 L 384.20 200.80 L 383.20 203.30 L 381.70 205.40 L 379.60 207.40 L 373.70 210.50 L 370.90 211.30 L 368.30 211.30 L 365.70 210.90 L 363.30 210.00 L 361.10 208.60 L 357.50 204.80 L 356.10 202.50 L 354.20 197.50 L 353.90 194.80 L 353.90 192.10 L 354.40 189.60 L 355.40 187.10 L 356.80 184.90 L 358.70 182.90 L 361.30 181.10 Z" fill="#3a3b40" fill-rule="nonzero" node-id="108" stroke="none" target-height="32.699997" target-width="30.899994" target-x="353.9" target-y="178.6"></path><path d="M 524.60 187.30 L 526.90 185.90 L 529.20 185.00 L 531.60 184.70 L 534.00 184.80 L 536.40 185.30 L 541.00 187.40 L 544.80 190.80 L 546.30 192.90 L 548.20 197.50 L 548.60 200.00 L 548.40 202.50 L 547.00 207.60 L 545.90 209.70 L 544.50 211.60 L 542.80 213.20 L 540.80 214.50 L 536.30 216.30 L 531.40 216.90 L 528.90 216.70 L 524.30 215.40 L 522.20 214.20 L 520.30 212.70 L 518.70 210.90 L 517.10 205.20 L 516.90 202.20 L 517.00 199.20 L 517.60 196.30 L 518.60 193.60 L 520.00 191.20 L 522.00 189.10 L 524.60 187.30 Z" fill="#40424b" fill-rule="nonzero" node-id="110" stroke="none" target-height="32.199997" target-width="31.699951" target-x="516.9" target-y="184.7"></path><path d="M 763.00 386.30 L 767.30 383.20 L 771.20 379.70 L 774.70 376.00 L 780.90 367.80 L 787.60 356.60 L 798.10 335.70 L 800.90 339.90 L 803.20 344.20 L 805.20 348.70 L 807.60 355.70 L 811.10 370.10 L 815.40 392.30 L 817.20 399.60 L 819.50 406.70 L 823.70 415.70 L 828.40 423.90 L 838.60 439.00 L 840.50 442.90 L 841.50 445.70 L 842.30 451.60 L 838.70 453.30 L 835.20 454.30 L 831.60 454.80 L 828.00 454.80 L 820.60 453.90 L 804.10 450.00 L 798.70 449.00 L 833.70 482.00 L 842.20 490.60 L 850.30 499.60 L 860.30 512.10 L 864.90 518.70 L 872.00 530.00 L 878.60 541.60 L 884.60 553.50 L 890.10 565.70 L 895.00 578.20 L 899.40 590.80 L 903.10 603.60 L 906.30 616.60 L 908.90 629.80 L 910.80 643.00 L 912.10 656.20 L 912.80 669.60 L 912.80 680.30 L 912.40 690.90 L 911.60 701.50 L 910.30 712.10 L 908.60 722.70 L 906.10 731.30 L 903.20 739.60 L 899.90 747.90 L 896.20 755.90 L 892.10 763.80 L 883.00 779.00 L 877.90 786.30 L 872.50 793.40 L 860.80 806.90 L 854.60 813.30 L 845.90 821.40 L 836.90 829.00 L 827.50 836.10 L 818.70 842.00 L 809.80 847.20 L 800.60 852.00 L 791.20 856.30 L 781.60 860.10 L 771.90 863.60 L 762.00 866.60 L 751.90 869.30 L 738.40 872.30 L 724.80 874.80 L 711.00 876.80 L 697.20 878.40 L 669.70 880.60 L 648.20 906.20 L 643.30 912.90 L 639.00 919.90 L 636.60 924.70 L 634.50 929.70 L 632.90 934.90 L 631.70 940.20 L 631.10 945.90 L 631.10 951.90 L 624.60 947.90 L 621.70 945.50 L 617.70 941.60 L 603.50 923.70 L 599.80 919.50 L 594.90 935.60 L 593.30 939.50 L 591.30 943.00 L 589.60 945.10 L 585.30 948.90 L 571.90 924.70 L 560.50 937.90 L 554.40 944.20 L 548.00 950.00 L 546.40 945.30 L 545.30 940.60 L 544.70 935.90 L 544.60 931.30 L 544.90 926.70 L 546.60 917.70 L 548.10 913.20 L 550.50 907.40 L 553.30 901.80 L 556.70 896.30 L 560.40 891.10 L 568.40 881.50 L 561.00 883.40 L 553.50 884.80 L 546.00 885.50 L 538.40 885.90 L 523.30 885.70 L 489.10 883.60 L 477.70 883.40 L 462.10 883.90 L 446.50 884.70 L 399.70 887.90 L 384.10 888.60 L 383.70 891.80 L 383.00 894.40 L 381.90 896.60 L 378.60 900.10 L 376.40 901.50 L 372.90 903.10 L 369.00 904.50 L 357.00 907.70 L 333.50 915.00 L 323.80 918.80 L 314.40 923.00 L 305.20 927.80 L 296.30 933.10 L 287.70 938.90 L 279.40 945.20 L 271.50 952.00 L 270.80 932.80 L 248.80 946.20 L 249.80 941.40 L 251.10 936.80 L 252.80 932.40 L 254.90 928.20 L 258.20 922.80 L 261.80 917.70 L 266.00 912.80 L 272.60 905.90 L 279.80 899.50 L 271.40 899.50 L 263.10 899.00 L 254.90 898.20 L 238.50 895.20 L 230.40 893.20 L 222.50 890.80 L 214.60 888.00 L 206.90 884.80 L 199.50 881.20 L 192.20 877.30 L 185.10 873.00 L 178.20 868.40 L 171.60 863.40 L 165.30 858.10 L 159.20 852.40 L 153.50 846.40 L 148.10 840.10 L 143.10 833.50 L 138.40 826.40 L 134.20 819.30 L 130.40 812.10 L 127.10 804.80 L 124.10 797.30 L 120.70 787.20 L 118.00 776.80 L 115.80 766.30 L 114.10 755.60 L 113.00 744.90 L 112.30 734.10 L 112.10 712.30 L 112.50 701.50 L 113.70 685.30 L 115.40 669.30 L 117.30 655.10 L 119.80 641.00 L 122.80 626.90 L 126.40 613.00 L 130.40 599.30 L 134.80 585.60 L 144.70 558.60 L 151.50 541.90 L 153.40 538.90 L 155.80 536.30 L 158.60 534.10 L 162.00 532.30 L 149.50 592.60 L 146.80 607.70 L 144.70 622.90 L 143.60 633.10 L 142.60 653.40 L 142.70 663.60 L 143.50 673.90 L 144.70 684.20 L 146.40 690.90 L 148.50 697.40 L 151.20 703.70 L 154.30 709.80 L 157.80 715.60 L 161.70 721.30 L 165.90 726.70 L 175.20 736.80 L 185.30 715.70 L 196.10 727.40 L 201.80 732.90 L 211.80 741.30 L 220.70 746.80 L 225.40 749.00 L 230.40 750.80 L 235.70 752.20 L 232.00 753.70 L 228.30 754.70 L 224.60 755.10 L 217.20 754.80 L 213.50 754.20 L 208.00 752.60 L 202.70 750.40 L 195.90 740.40 L 193.20 737.90 L 191.70 737.10 L 190.10 736.80 L 188.10 737.10 L 185.70 737.90 L 185.00 741.20 L 184.70 747.10 L 185.10 749.70 L 186.00 752.30 L 187.20 754.50 L 188.80 756.50 L 190.70 758.10 L 192.90 759.40 L 195.50 760.20 L 198.60 760.70 L 202.20 760.70 L 199.30 773.20 L 193.30 769.10 L 187.60 764.70 L 182.30 759.90 L 172.50 749.50 L 161.50 735.40 L 155.50 726.50 L 144.00 708.20 L 144.60 748.90 L 145.40 769.20 L 146.70 789.50 L 143.40 778.20 L 140.70 766.90 L 138.60 755.50 L 137.00 744.00 L 135.80 732.50 L 135.10 720.90 L 134.50 703.40 L 134.40 685.90 L 135.30 633.30 L 135.20 615.90 L 132.10 631.30 L 129.60 646.70 L 127.70 662.30 L 126.30 677.90 L 125.50 693.50 L 125.10 709.10 L 125.30 724.80 L 125.90 740.40 L 127.00 756.00 L 128.10 764.80 L 129.70 773.30 L 131.90 781.70 L 134.60 790.00 L 137.80 798.00 L 141.40 805.90 L 145.50 813.50 L 150.10 820.90 L 155.10 828.00 L 160.50 834.80 L 166.20 841.30 L 172.30 847.50 L 178.80 853.40 L 185.50 858.80 L 192.50 863.90 L 199.90 868.60 L 207.50 872.90 L 215.30 876.70 L 223.30 880.00 L 238.40 885.10 L 252.50 888.40 L 263.30 890.10 L 274.10 891.20 L 295.90 892.80 L 282.40 872.30 L 276.30 862.20 L 269.10 848.40 L 265.90 841.20 L 263.10 833.90 L 260.70 826.50 L 258.80 818.80 L 257.40 806.40 L 256.70 794.00 L 256.10 769.10 L 238.40 769.20 L 226.70 768.20 L 220.90 767.20 L 215.30 765.80 L 209.70 763.90 L 204.30 761.50 L 217.70 759.50 L 231.20 757.90 L 240.30 757.20 L 258.40 756.60 L 263.40 741.50 L 267.90 726.40 L 276.40 695.90 L 285.20 697.40 L 275.30 728.60 L 272.70 738.80 L 270.40 749.00 L 268.60 759.40 L 267.30 769.80 L 266.50 780.30 L 266.30 790.70 L 266.60 801.10 L 267.30 808.80 L 268.40 816.40 L 269.90 823.90 L 271.80 831.30 L 274.10 838.50 L 276.90 845.60 L 280.20 852.50 L 283.90 859.20 L 288.10 865.60 L 292.90 871.80 L 298.20 877.70 L 308.00 887.20 L 320.60 897.70 L 313.60 898.10 L 306.60 899.00 L 302.10 899.90 L 293.60 902.80 L 289.70 904.80 L 286.20 907.30 L 283.00 910.30 L 280.90 912.90 L 279.10 915.80 L 277.50 919.10 L 276.20 922.90 L 299.00 914.70 L 344.10 896.60 L 355.60 892.50 L 367.20 888.90 L 331.20 873.80 L 321.00 846.00 L 317.90 836.50 L 316.10 830.00 L 313.40 817.20 L 312.70 810.80 L 312.60 804.40 L 313.00 797.90 L 313.70 793.20 L 314.80 788.40 L 316.40 783.60 L 318.40 778.80 L 317.20 793.40 L 317.30 808.70 L 318.00 816.20 L 319.20 823.70 L 320.90 831.00 L 323.10 838.10 L 325.90 844.80 L 328.40 849.60 L 331.30 854.10 L 334.60 858.40 L 338.30 862.40 L 342.40 865.90 L 346.90 869.20 L 352.00 872.00 L 357.60 874.50 L 362.30 876.20 L 367.00 877.30 L 371.70 878.00 L 376.40 878.20 L 386.00 877.70 L 414.70 873.10 L 511.40 873.00 L 526.90 874.30 L 532.10 874.20 L 535.50 873.80 L 538.90 872.90 L 562.20 863.70 L 594.30 877.50 L 580.00 890.20 L 571.20 899.30 L 567.30 904.20 L 563.70 909.40 L 560.70 915.00 L 558.10 920.90 L 563.10 921.50 L 567.50 921.50 L 571.60 921.00 L 575.60 919.90 L 579.30 918.30 L 582.80 916.40 L 587.80 912.90 L 592.60 908.70 L 611.10 890.50 L 614.40 887.70 L 621.40 883.00 L 607.00 912.90 L 619.90 928.00 L 627.50 915.60 L 638.50 901.20 L 667.20 868.50 L 676.10 857.40 L 677.80 854.50 L 680.00 848.50 L 681.00 842.10 L 681.20 837.20 L 680.70 822.40 L 677.80 818.50 L 657.30 793.30 L 651.00 799.10 L 639.10 811.40 L 628.40 824.70 L 623.50 831.70 L 612.20 818.90 L 608.60 814.50 L 605.40 809.80 L 602.80 804.90 L 601.50 801.40 L 600.50 797.80 L 599.40 788.30 L 599.40 777.20 L 599.90 768.80 L 602.40 743.80 L 582.80 747.70 L 563.40 752.00 L 556.20 754.20 L 549.00 757.00 L 540.00 761.80 L 535.70 764.60 L 531.70 767.80 L 528.10 771.20 L 524.80 775.00 L 522.00 779.10 L 519.60 783.60 L 517.70 788.60 L 515.30 799.50 L 514.00 810.90 L 514.00 816.60 L 514.50 822.30 L 515.40 827.90 L 516.90 833.20 L 518.90 838.40 L 520.90 842.00 L 523.20 845.50 L 526.00 848.80 L 529.20 852.00 L 544.40 848.70 L 538.50 853.70 L 541.60 868.70 L 530.60 863.70 L 526.70 861.50 L 523.30 859.00 L 520.20 856.30 L 517.50 853.30 L 514.30 848.90 L 511.60 844.20 L 509.30 839.10 L 505.90 828.40 L 503.30 814.50 L 502.30 806.40 L 508.70 787.40 L 512.40 778.10 L 516.60 768.90 L 526.10 761.10 L 545.80 746.30 L 556.00 739.20 L 561.00 737.10 L 565.60 734.70 L 571.30 730.70 L 576.20 725.70 L 580.10 719.70 L 589.10 727.80 L 608.60 728.60 L 611.40 705.10 L 615.00 681.70 L 617.40 670.20 L 620.30 658.70 L 621.70 669.50 L 622.40 680.30 L 622.70 691.10 L 622.40 701.90 L 621.70 712.70 L 620.50 723.50 L 618.90 734.20 L 610.80 776.20 L 610.10 781.50 L 610.00 786.60 L 610.20 790.00 L 611.80 796.40 L 613.20 799.40 L 615.10 802.40 L 617.60 805.20 L 626.60 778.30 L 630.40 809.10 L 638.70 792.90 L 643.00 783.40 L 646.80 773.90 L 650.10 764.20 L 652.90 754.50 L 655.20 744.60 L 658.80 724.60 L 661.30 700.90 L 662.60 673.50 L 662.80 591.50 L 666.00 606.00 L 668.70 620.50 L 671.30 640.00 L 673.40 661.30 L 674.20 672.80 L 674.50 684.20 L 674.30 695.70 L 673.80 707.10 L 672.80 718.50 L 671.30 729.80 L 669.40 741.10 L 667.20 752.30 L 664.50 763.40 L 661.40 774.50 L 657.90 785.50 L 667.50 794.50 L 676.30 804.70 L 680.10 810.10 L 683.50 815.80 L 685.60 820.20 L 687.30 824.70 L 688.60 829.30 L 689.50 834.10 L 690.00 838.90 L 689.80 843.80 L 689.10 848.90 L 687.90 854.20 L 679.70 869.00 L 706.00 865.70 L 719.20 863.50 L 732.30 861.00 L 745.30 857.90 L 758.10 854.40 L 767.70 851.30 L 786.20 844.10 L 795.20 840.00 L 804.00 835.40 L 812.60 830.40 L 821.00 824.90 L 829.10 819.00 L 836.50 813.00 L 850.50 799.90 L 857.20 792.90 L 863.50 785.60 L 869.50 778.10 L 875.00 770.20 L 880.20 762.10 L 885.00 753.80 L 889.20 745.20 L 892.90 736.50 L 896.10 727.50 L 898.30 720.20 L 900.00 712.70 L 901.30 705.20 L 902.10 697.50 L 903.10 678.90 L 903.10 668.10 L 902.60 657.20 L 901.70 646.40 L 900.40 635.60 L 898.70 624.80 L 896.50 614.20 L 893.90 603.70 L 890.90 593.30 L 887.40 582.90 L 883.50 572.70 L 879.20 562.80 L 874.50 553.00 L 869.40 543.50 L 863.90 534.10 L 858.00 525.00 L 851.70 516.20 L 845.00 507.70 L 837.90 499.40 L 830.40 491.50 L 840.60 513.70 L 845.30 525.00 L 849.60 536.40 L 853.50 548.00 L 856.80 559.70 L 858.90 568.60 L 860.60 577.60 L 861.90 586.70 L 862.80 595.90 L 862.60 606.90 L 861.70 629.00 L 860.80 640.00 L 856.90 641.80 L 857.20 629.50 L 856.90 617.20 L 856.10 604.90 L 854.60 592.60 L 852.60 580.40 L 850.00 568.30 L 846.70 556.40 L 842.90 544.60 L 839.50 535.30 L 835.60 526.20 L 831.40 517.30 L 826.80 508.60 L 821.90 500.10 L 816.50 491.80 L 810.90 483.70 L 804.80 476.00 L 798.40 468.50 L 791.60 461.30 L 785.00 492.20 L 783.70 497.40 L 780.10 507.20 L 777.80 511.80 L 775.10 516.30 L 771.90 520.50 L 769.20 521.50 L 767.20 521.90 L 765.70 521.60 L 764.40 520.90 L 763.40 519.80 L 762.60 518.20 L 761.80 515.50 L 761.30 512.20 L 760.80 502.50 L 759.50 493.90 L 758.10 488.00 L 756.00 482.40 L 753.50 477.10 L 750.60 471.90 L 743.70 462.40 L 735.60 453.40 L 729.10 447.10 L 708.80 428.60 L 702.30 422.40 L 696.20 416.00 L 699.70 408.90 L 724.70 403.70 L 738.30 399.90 L 748.70 395.70 L 753.70 393.00 L 758.50 389.90 L 763.00 386.30 Z M 718.20 417.00 L 724.60 421.50 L 736.40 431.30 L 741.90 436.70 L 748.80 444.20 L 755.30 452.10 L 761.20 460.40 L 766.70 469.00 L 771.80 478.00 L 776.40 487.20 L 777.90 469.10 L 780.00 432.80 L 793.40 434.00 L 800.10 435.00 L 810.00 437.10 L 819.80 439.70 L 815.60 431.80 L 812.00 423.60 L 808.90 415.30 L 806.30 406.80 L 802.10 389.40 L 797.50 363.00 L 790.80 373.60 L 782.90 383.20 L 777.10 389.00 L 770.80 394.30 L 764.20 399.20 L 757.10 403.50 L 749.80 407.30 L 742.20 410.60 L 734.40 413.30 L 726.40 415.40 L 718.20 417.00 Z" fill="#393f4c" fill-rule="nonzero" node-id="112" stroke="none" target-height="616.3" target-width="800.7" target-x="112.1" target-y="335.7"></path><path d="M 614.60 369.10 L 614.40 366.40 L 615.00 361.80 L 617.30 357.60 L 619.20 355.50 L 621.50 353.70 L 625.30 351.40 L 629.50 349.40 L 638.00 346.20 L 639.20 367.70 L 641.00 389.20 L 647.50 453.40 L 649.20 474.80 L 648.00 487.60 L 647.20 500.40 L 646.80 513.20 L 629.10 495.40 L 631.60 518.80 L 620.70 527.30 L 622.00 516.70 L 622.80 506.10 L 623.10 495.60 L 623.00 485.10 L 621.70 464.00 L 615.50 400.80 L 614.80 390.20 L 614.60 369.10 Z" fill="#83b2b3" fill-rule="nonzero" node-id="114" stroke="none" target-height="181.09998" target-width="34.799988" target-x="614.4" target-y="346.2"></path><path d="M 393.00 369.50 L 398.00 366.00 L 403.30 363.10 L 408.70 360.60 L 419.90 356.80 L 425.80 355.50 L 434.70 354.10 L 443.70 353.40 L 461.70 353.30 L 470.70 356.50 L 479.50 360.10 L 488.00 364.20 L 496.40 368.70 L 504.60 373.60 L 512.30 379.00 L 519.80 384.90 L 526.90 391.10 L 533.60 397.80 L 539.80 404.90 L 545.60 412.50 L 550.90 420.50 L 556.90 430.80 L 562.20 441.30 L 567.00 452.00 L 571.20 463.00 L 574.80 474.20 L 577.80 485.60 L 580.40 497.10 L 582.30 508.80 L 583.80 520.50 L 584.70 532.30 L 585.10 544.10 L 585.00 556.00 L 584.40 567.80 L 583.30 579.60 L 581.70 591.20 L 579.70 602.80 L 575.00 618.90 L 569.80 634.90 L 564.10 650.80 L 558.00 666.60 L 551.30 682.10 L 544.20 697.30 L 536.50 712.30 L 528.30 727.00 L 521.40 738.60 L 514.00 749.90 L 506.30 760.90 L 498.30 771.70 L 484.70 788.40 L 479.30 794.60 L 473.60 800.50 L 467.60 805.90 L 463.30 809.20 L 458.80 812.10 L 454.10 814.60 L 449.20 816.60 L 444.00 818.10 L 438.40 819.00 L 433.90 819.20 L 429.40 819.00 L 420.90 817.40 L 415.40 815.50 L 410.10 813.20 L 404.90 810.30 L 395.20 803.60 L 390.60 799.70 L 384.10 793.60 L 378.10 787.30 L 362.90 765.30 L 359.00 767.90 L 355.70 770.80 L 352.90 774.10 L 350.60 777.60 L 348.70 781.40 L 347.20 785.40 L 345.30 793.80 L 345.00 798.20 L 345.30 807.10 L 347.40 826.00 L 358.90 824.50 L 371.80 848.30 L 400.20 853.70 L 414.40 856.90 L 379.00 858.10 L 367.60 867.00 L 354.30 851.50 L 350.10 846.20 L 346.10 840.70 L 342.60 834.90 L 338.90 826.70 L 337.50 822.30 L 336.40 817.90 L 335.30 809.20 L 335.30 802.60 L 335.90 796.00 L 338.30 782.90 L 341.30 770.00 L 332.00 757.60 L 324.10 744.60 L 319.50 735.50 L 315.50 726.20 L 311.90 716.70 L 305.90 697.20 L 303.50 687.30 L 300.50 672.30 L 298.00 657.20 L 296.30 644.00 L 300.30 657.80 L 307.90 685.80 L 314.80 708.90 L 321.40 726.90 L 325.30 735.70 L 336.40 756.40 L 338.40 759.30 L 340.80 761.70 L 343.40 763.40 L 346.30 764.70 L 349.70 765.40 L 353.50 765.50 L 357.90 765.00 L 351.20 752.00 L 345.20 738.90 L 339.70 725.60 L 334.90 712.10 L 330.60 698.40 L 326.80 684.60 L 323.60 670.70 L 320.90 656.60 L 318.70 642.40 L 317.10 628.20 L 315.90 613.90 L 315.20 599.50 L 314.90 585.10 L 315.10 570.70 L 315.70 556.30 L 316.80 541.90 L 320.10 513.30 L 324.90 485.00 L 331.40 463.30 L 335.20 452.50 L 339.40 441.70 L 344.00 431.20 L 349.10 421.00 L 353.30 413.50 L 357.90 406.30 L 362.70 399.30 L 368.00 392.70 L 373.60 386.30 L 379.60 380.30 L 386.00 374.70 L 393.00 369.50 Z M 365.30 413.40 L 360.00 422.90 L 355.20 432.50 L 350.70 442.20 L 346.60 452.10 L 343.00 462.10 L 338.90 474.80 L 335.40 487.70 L 332.40 500.70 L 330.00 513.90 L 328.10 527.10 L 326.60 540.40 L 325.70 553.80 L 325.20 567.30 L 325.10 580.80 L 325.40 594.20 L 326.20 607.70 L 327.30 621.10 L 329.40 638.90 L 332.10 656.50 L 335.30 673.80 L 336.60 675.30 L 338.80 685.00 L 341.60 694.60 L 344.70 704.00 L 352.20 722.50 L 356.50 731.50 L 366.00 749.00 L 376.50 766.00 L 378.40 768.80 L 379.90 770.40 L 383.30 772.50 L 385.30 773.00 L 387.50 773.00 L 390.30 772.50 L 385.80 781.10 L 395.50 790.40 L 400.70 794.80 L 406.10 798.90 L 409.90 801.30 L 418.00 805.00 L 422.20 806.30 L 426.60 807.00 L 438.60 807.60 L 442.00 807.20 L 445.20 806.40 L 449.40 804.90 L 453.40 802.80 L 460.90 797.40 L 467.60 791.00 L 476.70 780.50 L 494.20 758.20 L 510.40 734.80 L 518.00 722.80 L 525.30 710.60 L 532.20 698.20 L 538.70 685.50 L 544.80 672.70 L 550.40 659.70 L 555.60 646.50 L 560.30 633.10 L 561.50 632.60 L 565.60 616.40 L 569.20 600.10 L 572.70 578.00 L 574.00 567.00 L 574.70 555.90 L 575.00 544.80 L 574.80 533.70 L 573.90 522.60 L 572.50 511.50 L 568.60 491.40 L 566.40 482.40 L 563.80 473.50 L 560.70 464.60 L 557.20 455.80 L 553.40 447.30 L 549.10 438.90 L 544.40 430.80 L 539.20 422.90 L 533.80 415.30 L 527.90 408.10 L 521.60 401.30 L 514.90 394.80 L 507.90 388.90 L 500.50 383.40 L 492.70 378.30 L 486.30 374.70 L 479.60 371.50 L 472.70 368.70 L 465.50 366.20 L 458.10 364.10 L 457.10 377.90 L 455.60 386.10 L 453.30 391.90 L 451.70 394.40 L 449.80 396.40 L 447.50 398.10 L 443.50 399.60 L 438.00 399.80 L 435.40 399.10 L 431.80 397.00 L 430.50 395.70 L 429.20 393.50 L 428.30 391.10 L 427.80 388.40 L 427.60 384.10 L 429.70 365.90 L 429.70 362.40 L 421.00 365.80 L 412.50 369.80 L 404.30 374.30 L 398.40 378.00 L 392.70 382.10 L 387.40 386.50 L 382.20 391.20 L 377.40 396.20 L 373.00 401.60 L 369.00 407.30 L 365.30 413.40 Z" fill="#323545" fill-rule="nonzero" node-id="116" stroke="none" target-height="513.7" target-width="288.8" target-x="296.3" target-y="353.3"></path><path d="M 718.20 417.00 L 726.40 415.40 L 734.40 413.30 L 742.20 410.60 L 749.80 407.30 L 757.10 403.50 L 764.20 399.20 L 770.80 394.30 L 777.10 389.00 L 782.90 383.20 L 790.80 373.60 L 797.50 363.00 L 802.10 389.40 L 806.30 406.80 L 808.90 415.30 L 812.00 423.60 L 815.60 431.80 L 819.80 439.70 L 810.00 437.10 L 800.10 435.00 L 793.40 434.00 L 780.00 432.80 L 777.90 469.10 L 776.40 487.20 L 771.80 478.00 L 766.70 469.00 L 761.20 460.40 L 755.30 452.10 L 748.80 444.20 L 741.90 436.70 L 736.40 431.30 L 724.60 421.50 L 718.20 417.00 Z" fill="#8ec9c3" fill-rule="nonzero" node-id="118" stroke="none" target-height="124.20001" target-width="101.599976" target-x="718.2" target-y="363"></path><path d="M 365.30 413.40 L 369.00 407.30 L 373.00 401.60 L 377.40 396.20 L 382.20 391.20 L 387.40 386.50 L 392.70 382.10 L 398.40 378.00 L 404.30 374.30 L 412.50 369.80 L 421.00 365.80 L 429.70 362.40 L 429.70 365.90 L 428.00 379.40 L 427.60 384.10 L 427.80 388.40 L 428.30 391.10 L 429.20 393.50 L 430.50 395.70 L 433.40 398.10 L 438.00 399.80 L 443.50 399.60 L 447.50 398.10 L 449.80 396.40 L 451.70 394.40 L 453.30 391.90 L 454.60 389.10 L 456.30 382.90 L 457.60 373.00 L 458.10 364.10 L 465.50 366.20 L 472.70 368.70 L 479.60 371.50 L 486.30 374.70 L 492.70 378.30 L 500.50 383.40 L 507.90 388.90 L 514.90 394.80 L 521.60 401.30 L 527.90 408.10 L 533.80 415.30 L 539.20 422.90 L 544.40 430.80 L 549.10 438.90 L 553.40 447.30 L 557.20 455.80 L 560.70 464.60 L 563.80 473.50 L 566.40 482.40 L 568.60 491.40 L 572.50 511.50 L 573.90 522.60 L 574.80 533.70 L 575.00 544.80 L 574.70 555.90 L 574.00 567.00 L 571.10 589.10 L 569.20 600.10 L 565.60 616.40 L 561.50 632.60 L 548.90 637.50 L 537.00 640.30 L 529.00 641.50 L 520.90 642.10 L 512.70 642.20 L 502.30 656.60 L 499.10 648.40 L 495.40 640.40 L 491.20 632.70 L 479.70 639.80 L 478.90 667.30 L 492.30 670.60 L 516.40 677.80 L 484.80 696.40 L 479.20 699.30 L 467.90 704.10 L 462.20 705.90 L 456.40 707.00 L 450.70 707.50 L 446.40 707.40 L 442.10 706.70 L 437.70 705.60 L 433.20 704.00 L 437.40 702.40 L 445.50 698.40 L 456.80 690.90 L 455.00 688.00 L 450.00 678.20 L 447.20 674.40 L 445.60 672.90 L 443.70 671.70 L 441.50 670.90 L 438.80 670.60 L 436.00 671.60 L 433.80 673.00 L 432.30 674.60 L 431.10 676.60 L 429.60 681.30 L 428.20 696.80 L 399.40 717.20 L 393.70 708.20 L 390.00 703.50 L 386.50 701.00 L 384.50 700.40 L 382.30 700.40 L 379.50 701.00 L 369.30 714.80 L 363.40 708.60 L 357.80 702.10 L 342.00 681.90 L 335.30 673.80 L 332.10 656.50 L 329.40 638.90 L 327.30 621.10 L 326.20 607.70 L 325.40 594.20 L 325.10 580.80 L 325.20 567.30 L 325.70 553.80 L 326.60 540.40 L 328.10 527.10 L 330.00 513.90 L 332.40 500.70 L 335.40 487.70 L 338.90 474.80 L 343.00 462.10 L 346.60 452.10 L 350.70 442.20 L 355.20 432.50 L 360.00 422.90 L 365.30 413.40 Z M 501.10 399.50 L 501.90 430.50 L 505.30 430.50 L 508.30 430.00 L 510.90 429.00 L 513.30 427.60 L 515.40 425.90 L 518.60 421.50 L 520.40 416.50 L 520.80 413.80 L 520.60 408.80 L 519.90 406.30 L 518.90 404.20 L 517.50 402.20 L 515.80 400.70 L 513.70 399.40 L 511.10 398.60 L 508.40 398.30 L 505.10 398.60 L 501.10 399.50 Z M 433.70 416.50 L 431.40 418.70 L 429.30 421.20 L 427.60 424.00 L 425.00 430.10 L 423.60 436.70 L 423.50 440.10 L 424.30 446.70 L 425.20 449.70 L 426.50 452.70 L 428.20 455.40 L 430.40 457.70 L 432.90 459.80 L 436.10 460.40 L 438.90 460.60 L 441.40 460.30 L 443.60 459.60 L 447.60 457.20 L 450.80 453.60 L 452.30 450.70 L 453.50 447.60 L 454.40 444.10 L 454.80 437.00 L 454.40 433.40 L 453.70 429.90 L 452.50 426.60 L 451.00 423.70 L 449.10 421.00 L 446.80 418.90 L 444.10 417.30 L 441.90 416.50 L 439.50 416.10 L 436.80 416.10 L 433.70 416.50 Z M 367.40 422.90 L 363.20 428.80 L 359.90 435.80 L 358.80 439.40 L 358.10 443.10 L 357.90 446.90 L 358.30 450.40 L 359.20 453.80 L 360.30 456.20 L 361.80 458.40 L 363.70 460.50 L 366.10 462.40 L 368.90 463.10 L 371.50 463.40 L 373.70 463.20 L 375.70 462.60 L 378.20 461.30 L 380.40 459.40 L 382.20 457.00 L 383.70 454.20 L 384.80 451.10 L 385.60 447.70 L 386.10 444.30 L 385.90 437.30 L 385.20 433.90 L 384.20 430.90 L 382.90 428.10 L 381.20 425.70 L 379.20 423.80 L 376.80 422.50 L 374.90 422.00 L 372.70 421.80 L 370.30 422.10 L 367.40 422.90 Z M 491.00 474.20 L 494.10 474.90 L 496.90 475.10 L 499.50 474.80 L 502.00 474.00 L 504.20 472.90 L 506.20 471.50 L 508.00 469.80 L 510.60 465.70 L 511.50 463.40 L 512.10 458.60 L 511.90 456.20 L 511.20 453.90 L 510.10 451.70 L 508.70 449.70 L 506.70 447.80 L 504.10 446.20 L 501.30 445.20 L 499.10 444.90 L 497.40 445.00 L 495.70 445.70 L 494.40 446.70 L 493.20 448.10 L 492.00 450.70 L 491.10 453.90 L 490.60 457.40 L 490.40 464.90 L 491.00 474.20 Z M 427.30 493.80 L 425.10 496.20 L 423.30 498.90 L 421.70 502.10 L 419.60 508.90 L 418.90 516.30 L 419.10 519.90 L 419.60 523.40 L 420.60 526.90 L 422.00 530.00 L 423.70 532.80 L 425.90 535.30 L 428.40 537.30 L 431.50 538.90 L 434.40 539.30 L 436.90 539.20 L 439.20 538.70 L 441.30 537.90 L 443.80 536.30 L 445.90 534.30 L 447.80 531.70 L 450.30 525.70 L 451.20 522.20 L 451.80 515.00 L 451.20 507.70 L 450.40 504.30 L 447.90 498.10 L 446.30 495.60 L 444.40 493.50 L 441.00 491.30 L 437.00 490.40 L 435.00 490.50 L 430.20 492.10 L 427.30 493.80 Z M 368.30 503.50 L 365.70 504.50 L 363.40 506.00 L 361.40 507.90 L 359.80 510.10 L 357.40 515.40 L 356.30 521.10 L 356.40 527.00 L 356.90 529.70 L 358.80 534.70 L 360.20 536.60 L 361.80 538.30 L 363.70 539.40 L 365.90 540.10 L 368.40 540.30 L 371.00 539.90 L 374.00 538.70 L 377.60 536.60 L 379.30 525.00 L 379.40 516.60 L 378.80 512.80 L 378.00 510.40 L 376.90 508.30 L 375.40 506.60 L 373.60 505.20 L 371.30 504.10 L 368.30 503.50 Z M 517.70 507.90 L 514.00 513.40 L 511.60 519.70 L 510.80 526.30 L 511.10 529.70 L 511.70 532.80 L 512.90 535.90 L 514.50 538.70 L 516.60 541.20 L 519.30 543.40 L 521.90 544.00 L 526.20 543.80 L 527.90 543.20 L 530.10 541.90 L 531.90 540.20 L 533.40 537.90 L 534.50 535.40 L 535.90 529.70 L 535.90 523.50 L 535.40 520.50 L 534.60 517.50 L 532.10 512.40 L 530.40 510.30 L 528.50 508.70 L 526.20 507.50 L 524.40 507.00 L 520.20 507.20 L 517.70 507.90 Z M 473.50 596.90 L 476.80 596.60 L 479.60 595.90 L 482.00 594.70 L 484.10 593.10 L 485.80 591.20 L 487.20 589.10 L 488.90 584.20 L 489.10 578.90 L 488.60 576.30 L 486.60 571.10 L 485.00 568.80 L 482.90 566.60 L 477.90 566.40 L 474.70 567.50 L 473.10 568.90 L 471.90 570.70 L 471.10 572.90 L 470.60 577.90 L 471.20 585.20 L 473.50 596.90 Z M 354.40 603.50 L 370.10 601.90 L 369.40 599.40 L 368.60 587.90 L 367.90 585.50 L 367.10 584.00 L 365.90 582.80 L 364.40 581.80 L 361.90 581.70 L 360.10 582.10 L 358.70 582.80 L 356.50 585.00 L 355.80 586.60 L 354.80 592.10 L 354.40 603.50 Z M 527.80 582.90 L 525.20 585.00 L 523.00 587.40 L 521.20 590.20 L 519.80 593.20 L 518.80 596.50 L 518.20 599.90 L 518.10 607.00 L 519.40 613.80 L 521.90 619.70 L 524.80 621.40 L 527.40 622.30 L 529.70 622.80 L 531.80 622.80 L 533.80 622.30 L 537.40 620.40 L 539.00 618.90 L 540.80 616.60 L 542.20 613.90 L 544.20 607.40 L 544.70 600.50 L 544.40 597.00 L 543.70 593.80 L 542.70 590.90 L 541.20 588.10 L 539.30 585.90 L 537.10 584.20 L 535.20 583.30 L 533.10 582.70 L 530.70 582.60 L 527.80 582.90 Z M 429.10 590.00 L 426.30 591.70 L 424.00 593.80 L 422.20 596.20 L 419.70 601.90 L 418.90 605.10 L 418.30 610.00 L 418.40 619.90 L 418.70 624.40 L 419.30 627.20 L 420.30 629.40 L 421.60 631.10 L 423.30 632.60 L 425.30 633.60 L 427.40 634.20 L 432.00 634.40 L 436.60 633.10 L 438.70 632.00 L 442.30 628.90 L 443.60 626.90 L 445.70 620.80 L 446.40 616.10 L 446.70 611.20 L 446.30 606.20 L 445.80 602.90 L 443.70 597.20 L 442.20 594.70 L 440.40 592.70 L 438.20 591.10 L 436.30 590.30 L 434.30 589.80 L 431.90 589.70 L 429.10 590.00 Z M 390.00 675.10 L 392.80 673.90 L 395.10 672.40 L 397.10 670.80 L 398.60 668.90 L 400.20 666.10 L 401.20 663.10 L 401.80 659.70 L 401.80 656.30 L 400.70 649.10 L 398.20 642.10 L 394.70 635.60 L 390.60 630.50 L 387.80 631.10 L 383.00 633.20 L 381.00 634.70 L 378.60 637.20 L 376.60 639.90 L 375.00 643.10 L 373.90 646.40 L 373.20 649.90 L 372.90 653.40 L 373.10 657.00 L 373.60 660.40 L 374.60 663.70 L 376.10 666.70 L 378.00 669.30 L 380.30 671.60 L 382.30 672.90 L 384.50 674.00 L 387.10 674.70 L 390.00 675.10 Z" fill="#efedd8" fill-rule="nonzero" node-id="120" stroke="none" target-height="354.80002" target-width="249.9" target-x="325.1" target-y="362.4"></path><path d="M 501.10 399.50 L 505.10 398.60 L 508.40 398.30 L 511.10 398.60 L 513.70 399.40 L 515.80 400.70 L 517.50 402.20 L 518.90 404.20 L 519.90 406.30 L 520.90 411.30 L 520.40 416.50 L 519.60 419.10 L 517.10 423.80 L 515.40 425.90 L 513.30 427.60 L 510.90 429.00 L 508.30 430.00 L 505.30 430.50 L 501.90 430.50 L 501.10 399.50 Z" fill="#343639" fill-rule="nonzero" node-id="122" stroke="none" target-height="32.200012" target-width="19.800018" target-x="501.1" target-y="398.3"></path><path d="M 433.70 416.50 L 436.80 416.10 L 439.50 416.10 L 441.90 416.50 L 444.10 417.30 L 446.80 418.90 L 449.10 421.00 L 451.00 423.70 L 452.50 426.60 L 453.70 429.90 L 454.40 433.40 L 454.80 437.00 L 454.40 444.10 L 453.50 447.60 L 452.30 450.70 L 450.80 453.60 L 447.60 457.20 L 443.60 459.60 L 441.40 460.30 L 438.90 460.60 L 436.10 460.40 L 432.90 459.80 L 430.40 457.70 L 428.20 455.40 L 426.50 452.70 L 425.20 449.70 L 424.30 446.70 L 423.50 440.10 L 423.60 436.70 L 425.00 430.10 L 427.60 424.00 L 429.40 421.20 L 431.40 418.70 L 433.70 416.50 Z" fill="#353448" fill-rule="nonzero" node-id="124" stroke="none" target-height="44.5" target-width="31.299988" target-x="423.5" target-y="416.1"></path><path d="M 367.40 422.90 L 370.30 422.10 L 372.70 421.80 L 374.90 422.00 L 376.80 422.50 L 379.20 423.80 L 381.20 425.70 L 382.90 428.10 L 384.20 430.90 L 385.20 433.90 L 385.90 437.30 L 386.10 444.30 L 385.60 447.70 L 384.80 451.10 L 383.70 454.20 L 382.20 457.00 L 380.40 459.40 L 378.20 461.30 L 375.70 462.60 L 373.70 463.20 L 371.50 463.40 L 368.90 463.10 L 366.10 462.40 L 363.70 460.50 L 361.80 458.40 L 360.30 456.20 L 359.20 453.80 L 358.30 450.40 L 357.90 446.90 L 358.10 443.10 L 358.80 439.40 L 359.90 435.80 L 361.40 432.20 L 363.20 428.80 L 367.40 422.90 Z" fill="#393449" fill-rule="nonzero" node-id="126" stroke="none" target-height="41.600006" target-width="28.200012" target-x="357.9" target-y="421.8"></path><path d="M 303.80 454.40 L 317.80 460.80 L 318.80 469.20 L 319.70 473.40 L 321.90 480.00 L 324.90 485.00 L 320.10 513.30 L 318.20 527.50 L 316.80 541.90 L 315.70 556.30 L 315.10 570.70 L 314.90 585.10 L 315.20 599.50 L 315.90 613.90 L 317.10 628.20 L 318.70 642.40 L 320.90 656.60 L 323.60 670.70 L 326.80 684.60 L 330.60 698.40 L 334.90 712.10 L 339.70 725.60 L 345.20 738.90 L 351.20 752.00 L 357.90 765.00 L 353.50 765.50 L 349.70 765.40 L 346.30 764.70 L 343.40 763.40 L 340.80 761.70 L 338.40 759.30 L 336.40 756.40 L 325.30 735.70 L 321.40 726.90 L 314.80 708.90 L 307.90 685.80 L 300.30 657.80 L 296.30 644.00 L 293.80 624.90 L 292.30 605.60 L 295.10 602.10 L 297.40 598.50 L 299.20 594.80 L 301.50 587.00 L 302.20 583.00 L 302.60 576.80 L 302.70 570.50 L 301.80 551.50 L 301.70 538.60 L 302.50 525.10 L 305.70 494.90 L 306.10 484.90 L 306.00 478.20 L 305.40 471.50 L 304.20 464.70 L 303.80 454.40 Z" fill="#90c0bc" fill-rule="nonzero" node-id="128" stroke="none" target-height="311.1" target-width="65.600006" target-x="292.3" target-y="454.4"></path><path d="M 304.20 464.70 L 305.40 471.50 L 306.00 478.20 L 306.10 484.90 L 305.70 494.90 L 302.00 531.90 L 301.80 551.50 L 302.70 570.50 L 302.60 576.80 L 302.20 583.00 L 301.50 587.00 L 299.20 594.80 L 297.40 598.50 L 295.10 602.10 L 292.30 605.60 L 293.80 624.90 L 298.00 657.20 L 285.20 697.40 L 264.70 693.90 L 271.00 684.60 L 275.70 675.00 L 278.20 668.30 L 280.20 661.40 L 281.80 654.30 L 283.80 639.90 L 284.50 632.50 L 286.30 587.90 L 287.20 576.90 L 288.60 566.30 L 284.90 572.40 L 281.90 578.70 L 279.40 585.10 L 277.40 591.80 L 275.90 598.50 L 274.70 605.50 L 273.30 615.90 L 270.90 647.90 L 269.80 658.40 L 268.20 668.70 L 257.20 668.60 L 235.10 669.40 L 235.40 636.30 L 235.90 625.30 L 238.10 603.40 L 242.50 624.40 L 246.40 619.30 L 253.20 608.50 L 257.70 600.10 L 270.10 574.30 L 274.50 565.90 L 279.30 557.70 L 282.80 552.50 L 286.70 547.50 L 291.00 542.70 L 293.40 529.50 L 299.50 489.60 L 304.20 464.70 Z" fill="#769ea0" fill-rule="nonzero" node-id="130" stroke="none" target-height="232.70001" target-width="71" target-x="235.1" target-y="464.7"></path><path d="M 238.10 603.40 L 240.60 588.50 L 243.60 573.70 L 247.20 559.00 L 251.30 544.40 L 255.70 530.00 L 260.60 515.70 L 265.90 501.50 L 277.30 473.50 L 299.50 489.60 L 293.40 529.50 L 291.00 542.70 L 286.70 547.50 L 282.80 552.50 L 279.30 557.70 L 274.50 565.90 L 270.10 574.30 L 257.70 600.10 L 253.20 608.50 L 246.40 619.30 L 242.50 624.40 L 238.10 603.40 Z" fill="#97c5bf" fill-rule="nonzero" node-id="132" stroke="none" target-height="150.90002" target-width="61.399994" target-x="238.1" target-y="473.5"></path><path d="M 646.80 513.20 L 647.20 500.40 L 648.00 487.60 L 649.20 474.80 L 651.50 488.90 L 654.30 502.90 L 657.40 516.80 L 662.70 537.50 L 668.40 558.10 L 686.60 619.60 L 692.40 640.20 L 686.70 656.30 L 672.20 649.80 L 671.30 640.00 L 668.70 620.50 L 666.00 606.00 L 662.80 591.50 L 647.70 596.80 L 640.20 587.10 L 627.70 597.60 L 625.80 582.40 L 624.00 574.10 L 621.40 568.00 L 619.60 565.20 L 617.40 562.60 L 614.60 560.20 L 619.00 538.30 L 620.70 527.30 L 631.60 518.80 L 629.10 495.40 L 646.80 513.20 Z" fill="#799fa0" fill-rule="nonzero" node-id="134" stroke="none" target-height="181.5" target-width="77.80005" target-x="614.6" target-y="474.8"></path><path d="M 427.30 493.80 L 430.20 492.10 L 435.00 490.50 L 437.00 490.40 L 441.00 491.30 L 444.40 493.50 L 446.30 495.60 L 447.90 498.10 L 449.30 501.20 L 451.20 507.70 L 451.60 511.40 L 451.60 518.60 L 450.30 525.70 L 449.20 528.80 L 447.80 531.70 L 445.90 534.30 L 443.80 536.30 L 441.30 537.90 L 439.20 538.70 L 436.90 539.20 L 434.40 539.30 L 431.50 538.90 L 428.40 537.30 L 425.90 535.30 L 423.70 532.80 L 422.00 530.00 L 420.60 526.90 L 419.60 523.40 L 419.10 519.90 L 418.90 516.30 L 419.60 508.90 L 421.70 502.10 L 423.30 498.90 L 425.10 496.20 L 427.30 493.80 Z" fill="#3c3a45" fill-rule="nonzero" node-id="136" stroke="none" target-height="48.899994" target-width="32.700012" target-x="418.9" target-y="490.4"></path><path d="M 830.40 491.50 L 837.90 499.40 L 845.00 507.70 L 851.70 516.20 L 858.00 525.00 L 863.90 534.10 L 869.40 543.50 L 874.50 553.00 L 879.20 562.80 L 883.50 572.70 L 887.40 582.90 L 890.90 593.30 L 893.90 603.70 L 896.50 614.20 L 898.70 624.80 L 900.40 635.60 L 901.70 646.40 L 902.60 657.20 L 903.10 668.10 L 903.10 678.90 L 902.10 697.50 L 901.30 705.20 L 900.00 712.70 L 898.30 720.20 L 896.10 727.50 L 892.90 736.50 L 889.20 745.20 L 885.00 753.80 L 880.20 762.10 L 875.00 770.20 L 869.50 778.10 L 863.50 785.60 L 857.20 792.90 L 850.50 799.90 L 836.50 813.00 L 829.10 819.00 L 821.00 824.90 L 812.60 830.40 L 804.00 835.40 L 795.20 840.00 L 786.20 844.10 L 777.00 847.90 L 767.70 851.30 L 758.10 854.40 L 745.30 857.90 L 732.30 861.00 L 719.20 863.50 L 706.00 865.70 L 679.70 869.00 L 687.90 854.20 L 697.80 854.10 L 707.50 853.50 L 717.00 852.30 L 726.40 850.50 L 735.70 848.20 L 744.80 845.40 L 753.70 842.10 L 762.60 838.40 L 771.20 834.30 L 779.70 829.80 L 788.00 824.90 L 796.20 819.70 L 806.70 812.30 L 817.00 804.40 L 826.90 796.00 L 836.40 787.30 L 859.20 764.60 L 863.60 759.80 L 867.40 754.80 L 870.80 749.70 L 873.80 744.20 L 876.50 738.70 L 878.80 733.00 L 880.70 727.10 L 882.70 719.10 L 884.30 710.90 L 885.40 702.50 L 886.40 685.60 L 885.80 664.10 L 884.90 651.30 L 882.50 626.50 L 882.60 623.00 L 882.20 619.90 L 881.40 616.90 L 880.10 614.20 L 876.70 609.00 L 873.50 605.50 L 862.80 595.90 L 861.90 586.70 L 860.60 577.60 L 858.90 568.60 L 856.80 559.70 L 853.50 548.00 L 849.60 536.40 L 845.30 525.00 L 840.60 513.70 L 830.40 491.50 Z" fill="#9ecbca" fill-rule="nonzero" node-id="138" stroke="none" target-height="377.5" target-width="223.39996" target-x="679.7" target-y="491.5"></path><path d="M 368.30 503.50 L 371.30 504.10 L 373.60 505.20 L 375.40 506.60 L 376.90 508.30 L 378.00 510.40 L 378.80 512.80 L 379.40 516.60 L 379.30 525.00 L 377.60 536.60 L 374.00 538.70 L 371.00 539.90 L 368.40 540.30 L 365.90 540.10 L 363.70 539.40 L 361.80 538.30 L 360.20 536.60 L 358.80 534.70 L 357.70 532.30 L 356.40 527.00 L 356.20 524.10 L 356.70 518.20 L 358.40 512.60 L 361.40 507.90 L 363.40 506.00 L 365.70 504.50 L 368.30 503.50 Z" fill="#363547" fill-rule="nonzero" node-id="140" stroke="none" target-height="36.799988" target-width="23.199982" target-x="356.2" target-y="503.5"></path><path d="M 517.70 507.90 L 522.40 506.90 L 526.20 507.50 L 528.50 508.70 L 530.40 510.30 L 532.10 512.40 L 533.50 514.80 L 535.40 520.50 L 535.90 523.50 L 535.90 529.70 L 534.50 535.40 L 533.40 537.90 L 531.90 540.20 L 530.10 541.90 L 527.90 543.20 L 526.20 543.80 L 521.90 544.00 L 519.30 543.40 L 516.60 541.20 L 514.50 538.70 L 512.90 535.90 L 511.70 532.80 L 511.10 529.70 L 510.80 526.30 L 511.00 523.00 L 511.60 519.70 L 514.00 513.40 L 517.70 507.90 Z" fill="#323341" fill-rule="nonzero" node-id="142" stroke="none" target-height="37.100006" target-width="25.100037" target-x="510.8" target-y="506.9"></path><path d="M 585.10 609.50 L 599.40 584.60 L 614.60 560.20 L 614.90 569.20 L 614.60 578.00 L 613.70 586.70 L 612.20 595.30 L 610.30 603.80 L 607.90 612.20 L 602.10 628.80 L 598.80 637.00 L 587.80 661.00 L 577.30 657.30 L 571.20 670.30 L 566.90 678.20 L 563.00 686.30 L 559.50 694.50 L 556.60 703.00 L 551.50 708.70 L 540.80 723.40 L 528.10 745.90 L 522.20 757.30 L 512.40 778.10 L 508.70 787.40 L 502.30 806.40 L 479.80 820.30 L 464.00 829.20 L 455.80 833.10 L 450.30 835.30 L 439.20 838.40 L 433.60 839.40 L 427.90 839.80 L 422.20 839.60 L 413.70 838.10 L 404.90 835.00 L 385.30 826.40 L 375.60 808.50 L 371.20 799.30 L 367.20 789.90 L 378.10 787.30 L 384.10 793.60 L 390.60 799.70 L 395.20 803.60 L 404.90 810.30 L 410.10 813.20 L 415.40 815.50 L 420.90 817.40 L 429.40 819.00 L 433.90 819.20 L 438.40 819.00 L 444.00 818.10 L 449.20 816.60 L 454.10 814.60 L 458.80 812.10 L 463.30 809.20 L 467.60 805.90 L 473.60 800.50 L 479.30 794.60 L 484.70 788.40 L 498.30 771.70 L 506.30 760.90 L 514.10 749.90 L 521.40 738.60 L 528.30 727.00 L 536.50 712.30 L 544.20 697.30 L 551.30 682.10 L 558.00 666.60 L 564.10 650.80 L 569.80 634.90 L 575.00 618.90 L 579.70 602.80 L 585.10 609.50 Z" fill="#80a9ac" fill-rule="nonzero" node-id="144" stroke="none" target-height="279.59998" target-width="247.70001" target-x="367.2" target-y="560.2"></path><path d="M 614.60 560.20 L 617.40 562.60 L 619.60 565.20 L 621.40 568.00 L 624.00 574.10 L 625.80 582.40 L 627.70 597.60 L 640.20 587.10 L 647.70 596.80 L 647.30 610.10 L 648.50 663.20 L 648.30 676.50 L 647.80 685.30 L 647.00 694.10 L 644.00 714.10 L 637.90 747.90 L 636.20 762.90 L 636.10 776.00 L 637.50 787.30 L 638.70 792.90 L 630.40 809.10 L 626.60 778.30 L 617.60 805.20 L 615.10 802.40 L 613.20 799.40 L 611.80 796.40 L 610.20 790.00 L 610.00 786.60 L 610.10 781.50 L 610.80 776.20 L 618.90 734.20 L 620.50 723.50 L 621.70 712.70 L 622.40 701.90 L 622.70 691.10 L 622.40 680.30 L 621.70 669.50 L 620.30 658.70 L 620.70 656.60 L 620.70 654.80 L 620.20 653.40 L 618.30 651.10 L 617.00 650.30 L 614.80 649.60 L 612.50 649.50 L 611.00 649.80 L 608.40 651.40 L 607.40 652.60 L 606.80 654.10 L 606.50 656.10 L 603.40 663.70 L 599.90 671.00 L 596.00 678.10 L 589.80 688.50 L 562.40 728.90 L 556.00 739.20 L 535.80 753.60 L 516.60 768.90 L 528.10 745.90 L 540.80 723.40 L 542.40 725.40 L 543.90 726.60 L 545.40 727.20 L 547.00 727.40 L 548.50 727.30 L 549.90 726.70 L 552.00 725.30 L 553.70 723.30 L 555.00 720.90 L 555.80 718.30 L 555.80 714.70 L 554.50 711.40 L 553.20 710.00 L 551.50 708.70 L 556.60 703.00 L 562.40 701.30 L 567.60 698.30 L 571.80 694.20 L 574.80 689.30 L 575.70 686.60 L 576.20 683.90 L 576.20 681.20 L 575.80 678.30 L 574.90 675.70 L 573.40 673.00 L 571.20 670.30 L 577.30 657.30 L 587.80 661.00 L 593.40 649.00 L 602.10 628.80 L 607.90 612.20 L 610.30 603.80 L 612.20 595.30 L 613.70 586.70 L 614.60 578.00 L 614.90 569.20 L 614.60 560.20 Z" fill="#698c93" fill-rule="nonzero" node-id="146" stroke="none" target-height="248.89996" target-width="131.90002" target-x="516.6" target-y="560.2"></path><path d="M 527.80 582.90 L 530.70 582.60 L 533.10 582.70 L 535.20 583.30 L 537.10 584.20 L 539.30 585.90 L 541.20 588.10 L 542.70 590.90 L 543.70 593.80 L 544.40 597.00 L 544.70 600.50 L 544.20 607.40 L 543.40 610.70 L 542.20 613.90 L 540.80 616.60 L 539.00 618.90 L 537.40 620.40 L 533.80 622.30 L 531.80 622.80 L 529.70 622.80 L 527.40 622.30 L 524.80 621.40 L 521.90 619.70 L 519.40 613.80 L 518.60 610.40 L 518.00 603.50 L 518.80 596.50 L 519.80 593.20 L 521.20 590.20 L 523.00 587.40 L 525.20 585.00 L 527.80 582.90 Z" fill="#2f333a" fill-rule="nonzero" node-id="148" stroke="none" target-height="40.200012" target-width="26.700012" target-x="518" target-y="582.6"></path><path d="M 429.10 590.00 L 431.90 589.70 L 436.30 590.30 L 438.20 591.10 L 440.40 592.70 L 442.20 594.70 L 443.70 597.20 L 445.80 602.90 L 446.30 606.20 L 446.70 611.20 L 446.40 616.10 L 445.70 620.80 L 443.60 626.90 L 442.30 628.90 L 440.70 630.60 L 438.70 632.00 L 434.30 633.90 L 432.00 634.40 L 427.40 634.20 L 425.30 633.60 L 423.30 632.60 L 421.60 631.10 L 420.30 629.40 L 419.30 627.20 L 418.70 624.40 L 418.20 615.00 L 418.30 610.00 L 418.90 605.10 L 419.70 601.90 L 422.20 596.20 L 424.00 593.80 L 426.30 591.70 L 429.10 590.00 Z" fill="#323540" fill-rule="nonzero" node-id="150" stroke="none" target-height="44.700012" target-width="28.5" target-x="418.2" target-y="589.7"></path><path d="M 647.70 596.80 L 662.80 591.50 L 662.60 673.60 L 662.10 687.30 L 660.00 714.50 L 658.80 724.60 L 655.20 744.60 L 652.90 754.50 L 650.10 764.20 L 646.80 773.90 L 643.00 783.40 L 638.70 792.90 L 637.50 787.30 L 636.60 781.60 L 636.00 770.40 L 636.90 755.40 L 639.80 736.60 L 644.00 714.10 L 647.00 694.10 L 647.80 685.30 L 648.30 676.50 L 648.50 663.20 L 647.30 610.10 L 647.70 596.80 Z" fill="#84adb2" fill-rule="nonzero" node-id="152" stroke="none" target-height="201.40002" target-width="26.799988" target-x="636" target-y="591.5"></path><path d="M 862.80 595.90 L 873.50 605.50 L 878.60 611.50 L 881.40 616.90 L 882.20 619.90 L 882.60 623.00 L 882.50 626.50 L 874.70 660.60 L 868.70 683.00 L 865.20 694.10 L 861.30 705.00 L 856.80 715.70 L 851.70 726.20 L 842.80 729.90 L 833.90 734.30 L 807.20 748.90 L 792.10 756.30 L 779.80 760.80 L 773.60 762.40 L 767.20 763.40 L 760.80 763.90 L 756.00 763.80 L 751.20 763.30 L 746.10 762.40 L 734.70 759.40 L 728.50 757.20 L 720.80 753.40 L 717.20 751.00 L 713.90 748.30 L 711.10 745.30 L 708.50 741.90 L 706.50 738.30 L 704.90 734.20 L 703.90 729.70 L 708.80 694.10 L 726.70 693.00 L 731.00 704.10 L 731.20 710.60 L 730.80 729.80 L 727.60 737.50 L 735.90 737.50 L 744.10 737.10 L 752.40 736.10 L 760.70 734.70 L 768.80 732.70 L 776.80 730.40 L 784.70 727.50 L 792.40 724.20 L 799.80 720.40 L 807.00 716.30 L 813.90 711.70 L 820.40 706.60 L 826.70 701.20 L 832.40 695.30 L 837.80 689.10 L 842.70 682.40 L 846.20 676.90 L 849.40 671.10 L 852.20 665.00 L 854.70 658.70 L 856.80 652.10 L 845.40 646.60 L 860.80 640.00 L 862.20 618.00 L 862.80 595.90 Z" fill="#8fc6c2" fill-rule="nonzero" node-id="154" stroke="none" target-height="168" target-width="178.69995" target-x="703.9" target-y="595.9"></path><path d="M 127.00 756.00 L 125.90 740.40 L 125.30 724.80 L 125.10 709.10 L 125.50 693.50 L 126.30 677.90 L 127.70 662.30 L 129.60 646.70 L 132.10 631.30 L 135.20 615.90 L 135.30 633.30 L 134.40 685.90 L 134.50 703.40 L 135.10 720.90 L 135.80 732.50 L 137.00 744.00 L 138.60 755.50 L 140.70 766.90 L 143.40 778.20 L 148.50 795.20 L 150.60 800.70 L 156.10 811.10 L 162.80 820.90 L 168.40 827.70 L 174.50 834.20 L 184.20 842.20 L 194.40 850.00 L 201.40 855.00 L 215.80 864.30 L 223.40 868.40 L 231.00 872.10 L 238.80 875.40 L 246.80 878.10 L 254.90 880.30 L 263.20 881.80 L 269.50 882.60 L 275.80 882.90 L 282.30 882.70 L 288.90 882.10 L 295.90 892.80 L 274.10 891.20 L 263.30 890.10 L 252.50 888.40 L 238.40 885.10 L 223.30 880.00 L 215.30 876.70 L 207.50 872.90 L 199.90 868.60 L 192.50 863.90 L 185.50 858.80 L 178.80 853.40 L 172.30 847.50 L 166.20 841.30 L 160.50 834.80 L 155.10 828.00 L 150.10 820.90 L 145.50 813.50 L 141.40 805.90 L 137.80 798.00 L 134.60 790.00 L 131.90 781.70 L 129.70 773.30 L 128.10 764.80 L 127.00 756.00 Z" fill="#c2e4e7" fill-rule="nonzero" node-id="156" stroke="none" target-height="276.89996" target-width="170.79999" target-x="125.1" target-y="615.9"></path><path d="M 790.70 708.70 L 802.80 694.10 L 808.60 686.50 L 817.20 673.40 L 822.90 662.20 L 825.30 656.30 L 827.30 650.30 L 828.90 644.00 L 848.40 663.10 L 842.20 674.20 L 838.50 679.70 L 834.60 684.90 L 830.20 689.80 L 825.60 694.40 L 817.90 700.30 L 809.60 704.80 L 805.10 706.50 L 800.50 707.70 L 795.70 708.50 L 790.70 708.70 Z" fill="#c2e4e7" fill-rule="nonzero" node-id="158" stroke="none" target-height="64.70001" target-width="57.700012" target-x="790.7" target-y="644"></path><path d="M 390.00 675.10 L 387.10 674.70 L 384.50 674.00 L 382.30 672.90 L 380.30 671.60 L 378.00 669.30 L 376.10 666.70 L 374.60 663.70 L 373.60 660.40 L 373.10 657.00 L 372.90 653.40 L 373.20 649.90 L 373.90 646.40 L 375.00 643.10 L 376.60 639.90 L 378.60 637.20 L 381.00 634.70 L 385.30 632.00 L 390.60 630.50 L 392.70 632.90 L 396.60 638.80 L 398.20 642.10 L 400.70 649.10 L 401.50 652.80 L 401.80 656.30 L 401.80 659.70 L 401.20 663.10 L 400.20 666.10 L 398.60 668.90 L 397.10 670.80 L 395.10 672.40 L 392.80 673.90 L 390.00 675.10 Z" fill="#3a394a" fill-rule="nonzero" node-id="160" stroke="none" target-height="44.599976" target-width="28.899994" target-x="372.9" target-y="630.5"></path><path d="M 479.70 639.80 L 491.20 632.70 L 495.40 640.40 L 499.10 648.40 L 502.30 656.60 L 492.30 670.60 L 478.90 667.30 L 479.70 639.80 Z" fill="#30313b" fill-rule="nonzero" node-id="162" stroke="none" target-height="37.899963" target-width="23.399994" target-x="478.9" target-y="632.7"></path><path d="M 512.70 642.20 L 520.90 642.10 L 529.00 641.50 L 537.00 640.30 L 548.90 637.50 L 560.30 633.10 L 555.60 646.50 L 550.40 659.70 L 544.80 672.70 L 538.70 685.50 L 532.20 698.20 L 525.30 710.60 L 518.00 722.80 L 510.40 734.80 L 494.20 758.20 L 476.70 780.50 L 472.40 785.70 L 464.30 794.30 L 457.20 800.30 L 453.40 802.80 L 449.40 804.90 L 445.20 806.40 L 442.00 807.20 L 438.60 807.60 L 435.10 807.60 L 426.60 807.00 L 422.20 806.30 L 418.00 805.00 L 413.90 803.30 L 406.10 798.90 L 400.70 794.80 L 395.50 790.40 L 385.80 781.10 L 390.30 772.50 L 387.50 773.00 L 385.30 773.00 L 383.30 772.50 L 379.90 770.40 L 378.40 768.80 L 371.20 757.50 L 361.20 740.30 L 352.20 722.50 L 344.70 704.00 L 341.60 694.60 L 338.80 685.00 L 336.60 675.30 L 357.80 702.10 L 363.40 708.60 L 369.30 714.80 L 376.20 736.20 L 381.50 734.70 L 386.60 732.90 L 389.70 731.30 L 392.50 729.30 L 394.90 727.10 L 396.50 725.10 L 398.70 720.30 L 399.40 717.20 L 428.20 696.80 L 433.20 704.00 L 437.70 705.60 L 442.10 706.70 L 446.40 707.40 L 450.70 707.50 L 456.40 707.00 L 462.20 705.90 L 467.90 704.10 L 479.20 699.30 L 493.00 691.70 L 516.40 677.80 L 492.30 670.60 L 512.70 642.20 Z M 472.30 734.20 L 488.50 731.60 L 487.00 719.80 L 485.70 714.10 L 484.00 708.50 L 480.30 707.70 L 477.60 707.60 L 475.70 708.00 L 473.90 709.00 L 472.70 710.30 L 471.80 712.10 L 471.20 714.10 L 470.90 718.90 L 472.30 734.20 Z M 403.30 752.60 L 401.10 780.20 L 411.20 779.10 L 421.50 777.40 L 423.00 772.90 L 423.20 770.60 L 422.90 767.10 L 422.20 763.50 L 418.30 749.60 L 403.30 752.60 Z M 446.00 749.90 L 445.00 765.00 L 445.40 775.10 L 446.20 780.10 L 464.30 774.90 L 462.60 749.80 L 446.00 749.90 Z" fill="#dcddce" fill-rule="nonzero" node-id="164" stroke="none" target-height="174.5" target-width="223.69998" target-x="336.6" target-y="633.1"></path><path d="M 851.70 726.20 L 856.80 715.70 L 861.30 705.00 L 865.20 694.10 L 868.70 683.00 L 874.70 660.60 L 882.50 626.50 L 884.90 651.30 L 885.80 664.10 L 886.30 676.90 L 886.40 685.60 L 885.40 702.50 L 884.30 710.90 L 882.70 719.10 L 880.70 727.10 L 878.80 733.00 L 876.50 738.70 L 873.80 744.20 L 870.80 749.70 L 867.40 754.80 L 863.60 759.80 L 859.20 764.60 L 854.40 769.30 L 845.00 771.10 L 840.20 772.50 L 811.70 782.40 L 807.00 783.60 L 797.70 785.10 L 793.10 785.20 L 788.50 784.80 L 783.90 783.80 L 777.30 781.10 L 770.40 776.40 L 770.30 780.50 L 769.70 783.90 L 768.70 786.90 L 767.10 789.60 L 765.20 792.00 L 762.90 794.00 L 757.60 797.20 L 754.50 798.30 L 749.70 799.60 L 744.60 800.30 L 734.50 800.60 L 706.00 765.30 L 694.70 765.70 L 694.50 759.40 L 703.90 729.70 L 704.90 734.20 L 706.50 738.30 L 708.50 741.90 L 711.10 745.30 L 713.90 748.30 L 717.20 751.00 L 720.80 753.40 L 728.50 757.20 L 734.70 759.40 L 746.10 762.40 L 751.20 763.30 L 756.00 763.80 L 760.80 763.90 L 767.20 763.40 L 773.60 762.40 L 779.80 760.80 L 792.10 756.30 L 807.20 748.90 L 833.90 734.30 L 842.80 729.90 L 851.70 726.20 Z" fill="#7ca7a8" fill-rule="nonzero" node-id="166" stroke="none" target-height="174.09998" target-width="191.90002" target-x="694.5" target-y="626.5"></path><path d="M 686.70 656.30 L 692.40 640.20 L 694.40 651.30 L 695.90 662.50 L 697.00 673.80 L 697.70 685.00 L 697.90 696.30 L 697.60 710.40 L 696.60 724.50 L 695.10 738.50 L 692.90 752.60 L 690.90 746.30 L 689.40 740.10 L 688.20 733.80 L 687.10 724.20 L 686.60 714.60 L 686.50 704.90 L 687.20 675.70 L 687.20 665.90 L 686.70 656.30 Z" fill="#98bdc7" fill-rule="nonzero" node-id="168" stroke="none" target-height="112.39996" target-width="11.400024" target-x="686.5" target-y="640.2"></path><path d="M 606.50 656.10 L 606.80 654.10 L 607.40 652.60 L 608.40 651.40 L 611.00 649.80 L 612.50 649.50 L 614.80 649.60 L 617.00 650.30 L 619.40 652.10 L 620.70 654.80 L 620.70 656.60 L 617.40 670.20 L 615.00 681.70 L 611.40 705.10 L 608.60 728.60 L 589.10 727.80 L 580.10 719.70 L 576.20 725.70 L 571.30 730.70 L 565.60 734.70 L 561.00 737.10 L 556.00 739.20 L 562.40 728.90 L 589.80 688.50 L 596.00 678.10 L 599.90 671.00 L 603.40 663.70 L 606.50 656.10 Z" fill="#4f6471" fill-rule="nonzero" node-id="170" stroke="none" target-height="89.70001" target-width="64.70001" target-x="556" target-y="649.5"></path><path d="M 672.20 649.80 L 686.70 656.30 L 687.20 665.90 L 687.20 675.70 L 686.50 704.90 L 686.60 714.60 L 687.10 724.20 L 688.20 733.80 L 689.40 740.10 L 694.50 759.40 L 694.70 765.70 L 706.10 765.30 L 734.50 800.60 L 744.60 800.30 L 749.70 799.60 L 754.50 798.30 L 757.60 797.20 L 762.90 794.00 L 765.20 792.00 L 767.10 789.60 L 768.70 786.90 L 769.70 783.90 L 770.30 780.50 L 770.40 776.40 L 777.30 781.10 L 783.90 783.80 L 788.50 784.80 L 793.10 785.20 L 797.70 785.10 L 807.00 783.60 L 811.70 782.40 L 840.20 772.50 L 845.00 771.10 L 854.40 769.30 L 845.60 778.40 L 836.40 787.30 L 826.90 796.00 L 817.00 804.40 L 806.70 812.30 L 796.20 819.70 L 788.00 824.90 L 771.20 834.30 L 762.60 838.40 L 753.70 842.10 L 744.80 845.40 L 735.70 848.20 L 726.40 850.50 L 717.00 852.30 L 707.50 853.50 L 697.80 854.10 L 687.90 854.20 L 689.10 848.90 L 689.80 843.80 L 690.00 838.90 L 689.50 834.10 L 688.60 829.30 L 687.30 824.70 L 685.60 820.20 L 683.50 815.80 L 680.10 810.10 L 676.30 804.70 L 672.10 799.50 L 667.50 794.50 L 657.90 785.50 L 661.40 774.50 L 664.50 763.40 L 667.20 752.30 L 669.40 741.10 L 671.30 729.80 L 672.80 718.50 L 673.80 707.10 L 674.30 695.70 L 674.50 684.20 L 674.20 672.80 L 673.40 661.30 L 672.20 649.80 Z" fill="#6e9298" fill-rule="nonzero" node-id="172" stroke="none" target-height="204.40002" target-width="196.5" target-x="657.9" target-y="649.8"></path><path d="M 298.00 657.20 L 300.50 672.30 L 303.50 687.30 L 305.90 697.20 L 311.90 716.70 L 315.50 726.20 L 319.50 735.50 L 324.10 744.60 L 327.90 751.20 L 336.50 763.90 L 341.30 770.00 L 337.00 789.40 L 335.90 796.00 L 335.30 802.60 L 335.30 809.20 L 335.60 813.60 L 336.40 817.90 L 338.90 826.70 L 342.60 834.90 L 346.10 840.70 L 350.10 846.20 L 354.30 851.50 L 367.60 867.00 L 357.60 874.50 L 352.00 872.00 L 346.90 869.20 L 342.40 865.90 L 338.30 862.40 L 334.60 858.40 L 331.30 854.10 L 328.40 849.60 L 325.90 844.80 L 323.10 838.10 L 320.90 831.00 L 319.20 823.70 L 318.00 816.20 L 317.30 808.70 L 317.20 793.40 L 318.40 778.80 L 319.80 774.90 L 320.60 771.30 L 320.80 767.90 L 320.50 764.60 L 319.70 761.40 L 318.20 758.50 L 316.70 756.60 L 312.60 752.90 L 309.80 751.20 L 306.60 767.30 L 302.90 783.20 L 298.70 799.00 L 294.00 814.70 L 288.70 795.40 L 284.10 783.00 L 281.40 776.90 L 282.90 764.70 L 284.90 752.50 L 291.70 716.20 L 293.50 704.00 L 281.60 709.30 L 298.00 657.20 Z" fill="#8fbcbc" fill-rule="nonzero" node-id="174" stroke="none" target-height="217.29999" target-width="86.20001" target-x="281.4" target-y="657.2"></path><path d="M 428.20 696.80 L 429.20 685.20 L 430.20 678.90 L 432.30 674.60 L 433.80 673.00 L 436.00 671.60 L 438.80 670.60 L 441.50 670.90 L 443.70 671.70 L 445.60 672.90 L 448.70 676.20 L 455.00 688.00 L 456.80 690.90 L 445.50 698.40 L 437.40 702.40 L 433.20 704.00 L 428.20 696.80 Z" fill="#323232" fill-rule="nonzero" node-id="176" stroke="none" target-height="33.400024" target-width="28.599976" target-x="428.2" target-y="670.6"></path><path d="M 571.20 670.30 L 573.40 673.00 L 574.90 675.70 L 575.80 678.30 L 576.20 681.20 L 576.20 683.90 L 575.70 686.60 L 573.50 691.80 L 569.80 696.40 L 565.10 700.00 L 559.60 702.40 L 556.60 703.00 L 559.50 694.50 L 563.00 686.30 L 566.90 678.20 L 571.20 670.30 Z" fill="#4f6d73" fill-rule="nonzero" node-id="178" stroke="none" target-height="32.700012" target-width="19.600037" target-x="556.6" target-y="670.3"></path><path d="M 730.50 690.70 L 737.10 695.10 L 743.80 699.20 L 750.70 702.90 L 757.80 706.20 L 767.40 710.10 L 777.30 713.50 L 787.40 716.30 L 775.30 721.20 L 769.10 723.10 L 759.70 725.40 L 750.10 727.10 L 730.80 729.80 L 731.20 710.60 L 730.50 690.70 Z" fill="#b8d7d6" fill-rule="nonzero" node-id="180" stroke="none" target-height="39.099976" target-width="56.900024" target-x="730.5" target-y="690.7"></path><path d="M 281.60 709.30 L 293.50 704.00 L 291.70 716.20 L 284.90 752.50 L 282.90 764.70 L 281.40 776.90 L 280.10 783.40 L 279.40 789.60 L 279.30 795.70 L 279.80 801.80 L 280.60 807.80 L 282.00 813.70 L 284.50 822.40 L 287.60 831.10 L 297.60 856.90 L 300.40 865.60 L 302.00 871.50 L 304.10 883.50 L 298.20 877.70 L 292.90 871.80 L 288.10 865.60 L 283.90 859.20 L 280.20 852.50 L 276.90 845.60 L 274.10 838.50 L 271.80 831.30 L 269.90 823.90 L 268.40 816.40 L 267.30 808.80 L 266.60 801.10 L 266.30 790.70 L 266.50 780.30 L 267.30 769.80 L 268.60 759.40 L 270.40 749.00 L 272.70 738.80 L 275.30 728.60 L 281.60 709.30 Z" fill="#9ec6c3" fill-rule="nonzero" node-id="182" stroke="none" target-height="179.5" target-width="37.80002" target-x="266.3" target-y="704"></path><path d="M 369.30 714.80 L 379.50 701.00 L 382.30 700.40 L 384.50 700.40 L 386.50 701.00 L 390.00 703.50 L 393.70 708.20 L 399.40 717.20 L 398.70 720.30 L 397.70 722.90 L 396.50 725.10 L 394.90 727.10 L 392.50 729.30 L 389.70 731.30 L 386.60 732.90 L 381.50 734.70 L 376.20 736.20 L 369.30 714.80 Z" fill="#2d333e" fill-rule="nonzero" node-id="184" stroke="none" target-height="35.799988" target-width="30.100006" target-x="369.3" target-y="700.4"></path><path d="M 551.50 708.70 L 553.20 710.00 L 554.50 711.40 L 555.80 714.70 L 555.80 718.30 L 555.00 720.90 L 553.70 723.30 L 552.00 725.30 L 549.90 726.70 L 547.00 727.40 L 545.40 727.20 L 543.90 726.60 L 542.40 725.40 L 540.80 723.40 L 551.50 708.70 Z" fill="#293e5b" fill-rule="nonzero" node-id="186" stroke="none" target-height="18.700012" target-width="15" target-x="540.8" target-y="708.7"></path><path d="M 144.00 708.20 L 155.50 726.50 L 161.50 735.40 L 172.50 749.50 L 182.30 759.90 L 187.60 764.70 L 193.30 769.10 L 199.30 773.20 L 202.20 760.70 L 209.70 763.90 L 215.30 765.80 L 220.90 767.20 L 226.70 768.20 L 238.40 769.20 L 256.10 769.10 L 256.70 794.00 L 257.40 806.40 L 258.80 818.80 L 255.30 823.30 L 251.70 827.40 L 247.70 831.10 L 243.50 834.60 L 239.00 837.70 L 234.30 840.40 L 229.40 842.90 L 224.20 845.00 L 199.20 821.90 L 194.10 831.30 L 184.80 822.40 L 174.50 834.20 L 168.40 827.70 L 162.80 820.90 L 156.10 811.10 L 150.60 800.70 L 148.50 795.20 L 146.70 789.50 L 145.40 769.20 L 144.60 748.90 L 144.00 708.20 Z" fill="#92c1c1" fill-rule="nonzero" node-id="188" stroke="none" target-height="136.79999" target-width="114.79999" target-x="144" target-y="708.2"></path><path d="M 403.30 752.60 L 418.30 749.60 L 422.20 763.50 L 422.90 767.10 L 423.00 772.90 L 421.50 777.40 L 411.20 779.10 L 401.10 780.20 L 403.30 752.60 Z" fill="#1e2529" fill-rule="nonzero" node-id="190" stroke="none" target-height="30.600037" target-width="21.899994" target-x="401.1" target-y="749.6"></path><path d="M 563.40 752.00 L 582.80 747.70 L 602.40 743.80 L 599.90 768.80 L 599.40 777.20 L 599.40 788.30 L 600.50 797.80 L 601.50 801.40 L 602.80 804.90 L 605.40 809.80 L 608.60 814.50 L 612.20 818.90 L 623.50 831.70 L 628.40 824.70 L 639.10 811.40 L 651.00 799.10 L 657.30 793.30 L 677.80 818.50 L 651.00 836.00 L 624.50 853.80 L 621.60 850.20 L 618.50 847.20 L 615.40 844.60 L 612.00 842.50 L 607.30 840.10 L 602.40 838.40 L 597.20 837.20 L 591.90 836.60 L 586.60 836.30 L 581.00 836.50 L 572.80 837.30 L 564.60 838.70 L 561.10 815.90 L 545.50 828.10 L 544.10 822.80 L 543.10 817.70 L 542.70 812.70 L 542.60 807.80 L 543.10 801.20 L 544.30 794.70 L 546.00 788.30 L 550.60 775.90 L 558.30 760.70 L 563.40 752.00 Z" fill="#8ec3c2" fill-rule="nonzero" node-id="192" stroke="none" target-height="110" target-width="135.20001" target-x="542.6" target-y="743.8"></path><path d="M 309.80 751.20 L 312.60 752.90 L 316.70 756.60 L 318.20 758.50 L 319.70 761.40 L 320.50 764.60 L 320.80 767.90 L 320.60 771.30 L 319.80 774.90 L 316.40 783.60 L 314.80 788.40 L 313.70 793.20 L 313.00 797.90 L 312.60 804.40 L 312.70 810.80 L 313.40 817.20 L 314.60 823.60 L 317.90 836.50 L 321.00 846.00 L 331.20 873.80 L 367.20 888.90 L 355.60 892.50 L 344.10 896.60 L 299.00 914.70 L 276.20 922.90 L 277.50 919.10 L 279.10 915.80 L 280.90 912.90 L 283.00 910.30 L 286.20 907.30 L 289.70 904.80 L 293.60 902.80 L 302.10 899.90 L 306.60 899.00 L 313.60 898.10 L 320.60 897.70 L 308.00 887.20 L 304.10 883.50 L 302.00 871.50 L 300.40 865.60 L 297.60 856.90 L 287.60 831.10 L 284.50 822.40 L 282.00 813.70 L 280.60 807.80 L 279.80 801.80 L 279.30 795.70 L 279.40 789.60 L 280.10 783.40 L 281.40 776.90 L 286.60 789.10 L 288.70 795.40 L 294.00 814.70 L 298.70 799.00 L 302.90 783.20 L 306.60 767.30 L 309.80 751.20 Z" fill="#8aafab" fill-rule="nonzero" node-id="194" stroke="none" target-height="171.70001" target-width="91" target-x="276.2" target-y="751.2"></path><path d="M 517.70 788.60 L 519.60 783.60 L 522.00 779.10 L 524.80 775.00 L 528.10 771.20 L 531.70 767.80 L 535.70 764.60 L 544.40 759.30 L 549.00 757.00 L 556.20 754.20 L 563.40 752.00 L 558.30 760.70 L 550.60 775.90 L 546.00 788.30 L 544.30 794.70 L 543.10 801.20 L 542.60 807.80 L 542.70 812.70 L 543.10 817.70 L 544.10 822.80 L 545.50 828.10 L 548.70 845.80 L 544.40 848.70 L 529.20 852.00 L 526.00 848.80 L 523.20 845.50 L 520.90 842.00 L 518.90 838.40 L 516.90 833.20 L 515.40 827.90 L 514.50 822.30 L 514.00 816.60 L 514.00 810.90 L 514.50 805.20 L 515.30 799.50 L 517.70 788.60 Z" fill="#7ca2a5" fill-rule="nonzero" node-id="196" stroke="none" target-height="100" target-width="49.400024" target-x="514" target-y="752"></path><path d="M 345.90 811.50 L 345.30 807.10 L 345.00 798.20 L 345.30 793.80 L 347.20 785.40 L 348.70 781.40 L 350.60 777.60 L 352.90 774.10 L 355.70 770.80 L 359.00 767.90 L 362.90 765.30 L 378.10 787.30 L 367.20 789.90 L 371.20 799.30 L 375.60 808.50 L 385.30 826.40 L 375.60 822.20 L 365.80 818.30 L 345.90 811.50 Z" fill="#738d97" fill-rule="nonzero" node-id="198" stroke="none" target-height="61.100037" target-width="40.299988" target-x="345" target-y="765.3"></path><path d="M 404.90 835.00 L 413.70 838.10 L 422.20 839.60 L 427.90 839.80 L 433.60 839.40 L 439.20 838.40 L 444.80 837.00 L 455.80 833.10 L 464.00 829.20 L 479.80 820.30 L 502.30 806.40 L 503.30 814.50 L 505.90 828.40 L 509.30 839.10 L 511.60 844.20 L 514.30 848.90 L 517.50 853.30 L 520.20 856.30 L 523.30 859.00 L 526.70 861.50 L 530.60 863.70 L 526.80 864.20 L 523.30 865.10 L 520.00 866.50 L 516.90 868.20 L 514.10 870.40 L 511.40 873.00 L 414.70 873.10 L 445.40 861.80 L 437.10 858.00 L 428.70 854.60 L 420.10 851.60 L 411.50 849.00 L 393.80 844.70 L 404.90 835.00 Z" fill="#71919a" fill-rule="nonzero" node-id="200" stroke="none" target-height="66.69995" target-width="136.79999" target-x="393.8" target-y="806.4"></path><path d="M 345.90 811.50 L 365.80 818.30 L 375.60 822.20 L 404.90 835.00 L 393.80 844.70 L 402.70 846.70 L 420.10 851.60 L 428.70 854.60 L 437.10 858.00 L 445.40 861.80 L 414.70 873.10 L 393.30 876.70 L 381.20 878.10 L 371.70 878.00 L 367.00 877.30 L 362.30 876.20 L 357.60 874.50 L 379.00 858.10 L 414.40 856.90 L 400.20 853.70 L 371.80 848.30 L 358.90 824.50 L 347.40 826.00 L 345.90 811.50 Z" fill="#5c6f7a" fill-rule="nonzero" node-id="202" stroke="none" target-height="66.599976" target-width="99.5" target-x="345.9" target-y="811.5"></path><path d="M 545.50 828.10 L 561.10 815.90 L 564.60 838.70 L 572.80 837.30 L 581.00 836.50 L 586.60 836.30 L 591.90 836.60 L 597.20 837.20 L 602.40 838.40 L 607.30 840.10 L 612.00 842.50 L 615.40 844.60 L 618.50 847.20 L 621.60 850.20 L 624.50 853.80 L 619.60 857.30 L 614.50 860.10 L 609.10 862.40 L 597.80 865.70 L 583.10 867.90 L 574.30 868.70 L 562.20 863.70 L 542.20 871.70 L 538.50 853.70 L 544.40 848.70 L 548.70 845.80 L 545.50 828.10 Z" fill="#7fa7ac" fill-rule="nonzero" node-id="204" stroke="none" target-height="55.799988" target-width="86" target-x="538.5" target-y="815.9"></path><path d="M 184.80 822.40 L 194.10 831.30 L 199.20 821.90 L 224.20 845.00 L 229.40 842.90 L 234.30 840.40 L 239.00 837.70 L 243.50 834.60 L 247.70 831.10 L 251.70 827.40 L 255.30 823.30 L 258.80 818.80 L 260.70 826.50 L 263.10 833.90 L 265.90 841.20 L 269.10 848.40 L 276.30 862.20 L 282.40 872.30 L 288.90 882.10 L 282.30 882.70 L 275.80 882.90 L 269.50 882.60 L 263.20 881.80 L 254.90 880.30 L 246.80 878.10 L 238.80 875.40 L 231.00 872.10 L 223.40 868.40 L 215.80 864.30 L 201.40 855.00 L 194.40 850.00 L 184.20 842.20 L 174.50 834.20 L 184.80 822.40 Z" fill="#83b2b4" fill-rule="nonzero" node-id="206" stroke="none" target-height="64.10004" target-width="114.399994" target-x="174.5" target-y="818.8"></path><path d="M 624.50 853.80 L 651.00 836.00 L 677.80 818.50 L 680.70 822.40 L 681.20 837.20 L 681.00 842.10 L 680.70 845.40 L 679.10 851.60 L 677.80 854.50 L 676.10 857.40 L 667.20 868.50 L 638.40 901.20 L 627.50 915.60 L 619.90 928.00 L 607.00 912.90 L 621.40 883.00 L 614.40 887.70 L 611.10 890.50 L 592.60 908.70 L 587.80 912.90 L 582.80 916.40 L 579.30 918.30 L 575.60 919.90 L 571.60 921.00 L 567.50 921.50 L 563.10 921.50 L 558.10 920.90 L 560.70 915.00 L 563.70 909.40 L 567.30 904.20 L 571.20 899.30 L 580.00 890.20 L 594.30 877.50 L 574.30 868.70 L 592.00 866.80 L 603.50 864.20 L 609.10 862.40 L 614.50 860.10 L 619.60 857.30 L 624.50 853.80 Z" fill="#749199" fill-rule="nonzero" node-id="208" stroke="none" target-height="109.5" target-width="123.10004" target-x="558.1" target-y="818.5"></path><path d="M 511.40 873.00 L 514.10 870.40 L 516.90 868.20 L 520.00 866.50 L 523.30 865.10 L 526.80 864.20 L 530.60 863.70 L 541.60 868.70 L 542.20 871.70 L 538.90 872.90 L 535.50 873.80 L 532.10 874.20 L 526.90 874.30 L 511.40 873.00 Z" fill="#8dabb0" fill-rule="nonzero" node-id="210" stroke="none" target-height="10.599976" target-width="30.800018" target-x="511.4" target-y="863.7"></path></svg>