<?xml version="1.0" standalone="no"?><!DOCTYPE svg PUBLIC "-//W3C//DTD SVG 1.1//EN" "http://www.w3.org/Graphics/SVG/1.1/DTD/svg11.dtd"><svg height="1024" node-id="1" sillyvg="true" template-height="1024" template-width="1024" version="1.1" viewBox="0 0 1024 1024" width="1024" xmlns="http://www.w3.org/2000/svg" xmlns:xlink="http://www.w3.org/1999/xlink"><defs node-id="47"></defs><path d="M 0.00 0.00 L 1024.00 0.00 L 1024.00 1024.00 L 0.00 1024.00 Z" fill="#ffffff" fill-rule="nonzero" node-id="49" stroke="none" target-height="1024" target-width="1024" target-x="0" target-y="0"></path><path d="M 263.60 565.60 L 281.80 566.10 L 300.30 567.00 L 297.60 601.30 L 291.40 595.80 L 279.60 584.30 L 271.30 575.10 L 263.60 565.60 Z" fill="#ffffff" fill-rule="nonzero" node-id="51" stroke="none" target-height="35.700012" target-width="36.69998" target-x="263.6" target-y="565.6"></path><path d="M 316.00 576.90 L 320.90 578.90 L 326.60 580.70 L 345.00 585.30 L 350.80 587.20 L 354.60 588.70 L 361.00 592.40 L 363.80 594.80 L 366.00 597.50 L 367.80 600.60 L 368.80 603.10 L 369.40 605.90 L 369.70 609.20 L 369.50 612.90 L 359.10 610.80 L 341.60 608.60 L 336.00 607.60 L 330.60 606.20 L 325.80 604.40 L 322.90 602.90 L 320.40 601.00 L 318.30 598.90 L 316.60 596.40 L 315.30 593.50 L 314.60 590.10 L 314.40 586.50 L 314.80 582.20 L 316.00 576.90 Z" fill="#ffffff" fill-rule="nonzero" node-id="53" stroke="none" target-height="36" target-width="55.30002" target-x="314.4" target-y="576.9"></path><path d="M 392.00 585.50 L 408.40 592.30 L 428.80 617.10 L 378.20 611.30 L 387.80 586.00 L 392.00 585.50 Z" fill="#ffffff" fill-rule="nonzero" node-id="55" stroke="none" target-height="31.599976" target-width="50.599976" target-x="378.2" target-y="585.5"></path><path d="M 629.20 612.20 L 629.90 608.80 L 632.00 603.20 L 633.50 600.90 L 635.90 598.10 L 638.70 595.80 L 641.90 593.80 L 649.00 590.80 L 659.10 588.40 L 689.50 585.10 L 687.60 591.20 L 684.70 595.80 L 682.20 598.40 L 679.30 600.60 L 676.00 602.30 L 668.80 605.00 L 658.70 607.00 L 640.10 609.50 L 634.30 610.70 L 629.20 612.20 Z" fill="#ffffff" fill-rule="nonzero" node-id="57" stroke="none" target-height="27.100037" target-width="60.299988" target-x="629.2" target-y="585.1"></path><path d="M 572.30 617.40 L 573.70 614.40 L 575.30 611.90 L 577.00 609.80 L 579.00 608.10 L 582.00 606.20 L 585.30 604.80 L 588.90 603.80 L 594.60 603.00 L 600.60 602.70 L 618.60 602.60 L 623.90 602.00 L 621.60 605.50 L 619.10 608.20 L 616.30 610.40 L 613.20 612.10 L 609.80 613.50 L 606.30 614.50 L 600.70 615.40 L 577.50 616.70 L 572.30 617.40 Z" fill="#ffffff" fill-rule="nonzero" node-id="59" stroke="none" target-height="15.400024" target-width="51.600037" target-x="572.3" target-y="602"></path><path d="M 361.00 882.60 L 414.20 888.90 L 449.90 892.10 L 485.60 894.00 L 503.40 894.40 L 521.30 894.40 L 539.10 893.80 L 557.00 892.70 L 574.80 891.00 L 596.60 888.60 L 618.40 885.80 L 661.80 879.20 L 673.70 897.80 L 686.10 916.20 L 703.30 940.20 L 712.20 952.00 L 309.30 952.00 L 320.30 938.70 L 331.00 925.00 L 341.40 911.20 L 351.40 897.00 L 361.00 882.60 Z" fill="#ffffff" fill-rule="nonzero" node-id="61" stroke="none" target-height="72.79999" target-width="402.90002" target-x="309.3" target-y="879.2"></path><path d="M 735.80 557.10 L 733.40 563.20 L 730.50 568.90 L 727.20 574.30 L 723.40 579.40 L 719.20 584.00 L 714.50 588.20 L 706.70 593.60 L 702.40 595.90 L 697.80 597.90 L 697.20 593.90 L 697.00 590.40 L 697.30 587.30 L 697.90 584.50 L 699.40 581.00 L 701.30 577.80 L 703.70 574.90 L 706.60 572.40 L 713.30 567.90 L 735.80 557.10 Z" fill="#f0eedb" fill-rule="nonzero" node-id="63" stroke="none" target-height="40.80005" target-width="38.799988" target-x="697" target-y="557.1"></path><path d="M 478.40 284.30 L 480.10 282.20 L 482.10 280.60 L 484.20 279.50 L 486.60 278.90 L 491.50 278.70 L 496.20 279.90 L 500.50 282.30 L 502.20 283.90 L 503.60 285.70 L 504.60 287.60 L 505.20 289.70 L 505.20 292.00 L 504.80 294.20 L 503.70 296.60 L 500.00 301.20 L 498.10 302.70 L 496.00 303.70 L 491.40 304.60 L 489.10 304.50 L 484.50 303.20 L 480.40 300.80 L 478.80 299.30 L 476.40 295.60 L 475.80 293.50 L 475.60 291.30 L 475.90 289.10 L 476.80 286.80 L 478.40 284.30 Z" fill="#3d3a4f" fill-rule="nonzero" node-id="65" stroke="none" target-height="25.899994" target-width="29.600006" target-x="475.6" target-y="278.7"></path><path d="M 475.50 488.90 L 481.90 489.30 L 502.00 488.80 L 508.60 488.90 L 515.10 489.60 L 519.40 490.40 L 523.50 491.70 L 527.50 493.50 L 529.60 495.90 L 531.20 498.30 L 532.30 500.70 L 533.10 503.30 L 533.50 506.90 L 533.30 510.50 L 532.50 514.20 L 531.20 517.70 L 529.50 521.20 L 527.30 524.60 L 524.80 527.70 L 522.00 530.50 L 518.90 533.10 L 515.60 535.30 L 512.20 536.90 L 508.70 538.20 L 505.10 538.90 L 501.50 538.90 L 498.10 538.40 L 495.60 537.60 L 493.20 536.30 L 485.80 530.20 L 483.60 527.90 L 480.40 522.80 L 478.50 517.00 L 477.70 512.40 L 476.20 493.30 L 475.50 488.90 Z M 497.70 503.40 L 490.80 518.50 L 494.40 524.20 L 497.60 527.30 L 501.10 528.80 L 504.40 528.70 L 506.50 527.90 L 508.50 526.70 L 510.40 524.90 L 513.50 520.60 L 514.70 518.10 L 516.20 512.90 L 516.30 507.90 L 515.80 505.80 L 514.80 504.00 L 512.50 501.90 L 510.90 501.30 L 506.80 500.90 L 504.40 501.20 L 497.70 503.40 Z" fill="#3d3a4f" fill-rule="nonzero" node-id="67" stroke="none" target-height="50.100037" target-width="58" target-x="475.5" target-y="488.8"></path><path d="M 673.50 662.90 L 675.00 660.60 L 676.80 658.80 L 678.70 657.60 L 680.90 656.70 L 685.50 656.20 L 690.00 657.10 L 694.00 659.20 L 695.60 660.60 L 696.80 662.20 L 697.70 664.00 L 698.00 665.90 L 697.90 668.00 L 697.30 670.10 L 695.90 672.30 L 692.20 676.50 L 690.50 677.80 L 686.50 679.30 L 682.20 679.60 L 679.00 679.10 L 676.10 678.10 L 674.30 677.00 L 671.70 674.40 L 670.80 672.90 L 670.40 671.10 L 670.30 669.20 L 670.80 667.40 L 671.70 665.30 L 673.50 662.90 Z" fill="#3d3a4f" fill-rule="nonzero" node-id="69" stroke="none" target-height="23.399963" target-width="27.700012" target-x="670.3" target-y="656.2"></path><path d="M 352.80 770.60 L 357.30 769.30 L 360.90 768.90 L 363.70 769.00 L 365.90 769.50 L 367.60 770.40 L 368.90 771.70 L 369.80 773.40 L 370.50 775.70 L 370.70 778.60 L 370.40 782.50 L 369.40 787.40 L 364.80 788.60 L 361.20 789.00 L 358.40 788.80 L 356.20 788.20 L 354.50 787.30 L 353.20 786.00 L 352.20 784.30 L 351.60 782.00 L 351.40 779.10 L 351.70 775.40 L 352.80 770.60 Z" fill="#3d3a4f" fill-rule="nonzero" node-id="71" stroke="none" target-height="20.099976" target-width="19.300018" target-x="351.4" target-y="768.9"></path><path d="M 668.90 839.60 L 674.00 838.10 L 677.90 837.40 L 680.70 837.40 L 682.90 837.80 L 684.50 838.60 L 685.60 839.70 L 686.40 841.20 L 686.80 843.20 L 686.70 845.90 L 686.00 849.50 L 684.40 854.20 L 679.20 855.70 L 675.20 856.40 L 672.30 856.40 L 670.10 856.00 L 668.60 855.20 L 667.50 854.10 L 666.70 852.60 L 666.30 850.60 L 666.50 847.90 L 667.20 844.30 L 668.90 839.60 Z" fill="#3d3a4f" fill-rule="nonzero" node-id="73" stroke="none" target-height="19" target-width="20.5" target-x="666.3" target-y="837.4"></path><path d="M 285.20 335.90 L 292.20 334.50 L 299.00 333.70 L 305.70 333.40 L 312.20 333.60 L 318.80 334.40 L 325.20 335.60 L 331.50 337.30 L 337.80 339.30 L 345.90 342.70 L 353.90 346.60 L 361.70 351.20 L 369.30 356.20 L 376.70 361.60 L 383.80 367.40 L 390.80 373.50 L 404.00 386.10 L 421.90 405.60 L 424.80 409.80 L 435.50 423.20 L 438.80 428.00 L 441.60 432.80 L 443.10 436.10 L 444.10 439.50 L 444.70 442.90 L 444.80 446.40 L 444.30 449.90 L 443.10 453.70 L 433.30 459.10 L 423.00 464.20 L 412.20 469.00 L 401.20 473.30 L 389.90 477.10 L 378.50 480.30 L 369.70 482.30 L 361.00 483.90 L 352.30 485.10 L 343.60 485.90 L 334.80 486.20 L 326.20 486.00 L 317.60 485.30 L 309.20 484.10 L 300.80 482.40 L 292.70 480.00 L 284.70 477.10 L 276.90 473.50 L 270.90 470.20 L 265.10 466.50 L 259.40 462.30 L 253.80 457.50 L 244.20 448.20 L 240.60 444.00 L 237.50 439.60 L 234.90 435.00 L 232.80 430.20 L 231.10 425.30 L 229.90 420.30 L 229.10 415.20 L 228.70 410.10 L 229.20 399.80 L 230.00 394.60 L 232.70 384.40 L 234.60 379.50 L 236.90 374.60 L 240.30 368.40 L 244.40 362.60 L 248.90 357.10 L 256.60 349.80 L 265.30 343.70 L 270.00 341.10 L 274.80 339.00 L 279.90 337.20 L 285.20 335.90 Z M 241.70 399.40 L 241.50 404.10 L 241.70 408.60 L 242.30 412.90 L 243.30 417.10 L 245.20 422.60 L 247.70 427.80 L 250.70 432.80 L 254.20 437.40 L 258.10 441.90 L 262.40 446.00 L 267.00 449.80 L 271.80 453.30 L 282.10 459.40 L 292.70 464.00 L 299.90 466.40 L 307.10 468.20 L 314.20 469.60 L 321.40 470.40 L 335.90 470.70 L 350.50 469.50 L 360.10 467.90 L 369.60 465.80 L 379.20 463.20 L 397.90 456.70 L 420.60 447.00 L 433.60 440.80 L 415.00 417.00 L 405.20 405.30 L 394.80 394.10 L 387.60 386.90 L 380.20 380.00 L 372.50 373.60 L 364.50 367.50 L 356.10 362.10 L 347.50 357.10 L 340.70 353.80 L 333.80 350.90 L 326.60 348.40 L 319.10 346.30 L 313.90 345.20 L 308.70 344.60 L 303.40 344.40 L 298.10 344.80 L 292.90 345.60 L 287.70 346.80 L 282.70 348.50 L 277.70 350.50 L 272.90 353.00 L 268.40 355.80 L 264.10 358.90 L 260.10 362.30 L 256.30 366.10 L 252.90 370.10 L 249.90 374.40 L 247.30 379.00 L 245.20 383.80 L 243.50 388.70 L 242.40 393.90 L 241.70 399.40 Z" fill="#37384d" fill-rule="nonzero" node-id="75" stroke="none" target-height="152.80002" target-width="216.09999" target-x="228.7" target-y="333.4"></path><path d="M 670.10 351.80 L 674.90 348.80 L 679.90 346.20 L 685.10 344.00 L 696.00 340.60 L 707.20 338.70 L 712.90 338.30 L 718.60 338.30 L 729.80 339.30 L 740.80 341.80 L 746.10 343.60 L 756.20 348.20 L 761.00 351.10 L 765.40 354.30 L 769.70 357.90 L 773.60 361.90 L 777.20 366.20 L 780.40 370.80 L 783.30 375.90 L 785.80 381.40 L 787.70 386.60 L 789.10 391.70 L 790.00 396.80 L 790.40 401.90 L 790.30 407.00 L 789.80 412.10 L 788.90 417.00 L 787.60 421.90 L 785.30 428.30 L 782.30 434.50 L 778.70 440.40 L 774.70 446.10 L 770.10 451.40 L 765.10 456.40 L 759.80 460.90 L 754.10 465.10 L 748.10 468.70 L 741.90 471.90 L 735.50 474.50 L 721.50 478.60 L 714.00 480.20 L 706.50 481.30 L 699.10 481.90 L 684.20 481.90 L 669.20 480.40 L 659.30 478.80 L 649.50 476.70 L 639.60 474.20 L 624.90 470.00 L 581.70 456.00 L 583.50 449.10 L 585.70 442.50 L 588.30 436.10 L 591.20 429.80 L 595.70 421.80 L 600.80 414.00 L 606.40 406.50 L 612.40 399.30 L 618.80 392.50 L 625.60 385.80 L 639.90 373.50 L 658.70 359.40 L 670.10 351.80 Z M 594.60 442.20 L 618.30 451.80 L 630.90 456.20 L 643.80 460.10 L 652.60 462.30 L 670.10 465.80 L 679.00 466.90 L 687.70 467.50 L 696.30 467.60 L 702.80 467.30 L 709.20 466.60 L 721.60 464.20 L 727.60 462.40 L 733.50 460.20 L 739.20 457.50 L 744.90 454.40 L 750.20 450.80 L 755.40 446.80 L 760.50 442.10 L 768.90 432.70 L 771.80 428.50 L 774.10 424.20 L 775.90 419.80 L 777.20 415.10 L 778.00 410.50 L 778.40 405.80 L 778.30 401.10 L 777.80 396.40 L 776.80 391.90 L 775.50 387.40 L 773.70 382.90 L 771.60 378.70 L 769.10 374.60 L 766.40 370.80 L 763.20 367.20 L 759.80 363.90 L 756.10 360.90 L 752.10 358.30 L 747.90 356.00 L 743.40 354.10 L 738.80 352.70 L 733.90 351.80 L 721.30 351.10 L 714.10 351.40 L 707.10 352.30 L 700.40 353.60 L 693.70 355.50 L 687.20 357.80 L 680.90 360.40 L 674.80 363.60 L 666.80 368.20 L 659.10 373.40 L 651.60 379.20 L 644.40 385.40 L 637.40 391.90 L 630.70 398.80 L 620.90 409.50 L 611.70 420.40 L 594.60 442.20 Z" fill="#37384d" fill-rule="nonzero" node-id="77" stroke="none" target-height="143.6" target-width="208.70001" target-x="581.7" target-y="338.3"></path><path d="M 329.30 835.70 L 334.00 834.40 L 337.60 833.80 L 340.40 833.80 L 342.60 834.30 L 344.30 835.20 L 345.70 836.40 L 346.70 838.10 L 347.30 840.30 L 347.60 843.20 L 347.30 847.00 L 346.40 851.90 L 341.70 853.10 L 338.00 853.60 L 335.10 853.50 L 332.90 853.00 L 331.20 852.10 L 329.90 850.90 L 328.90 849.20 L 328.20 847.00 L 328.00 844.10 L 328.30 840.40 L 329.30 835.70 Z" fill="#37384d" fill-rule="nonzero" node-id="79" stroke="none" target-height="19.799988" target-width="19.600006" target-x="328" target-y="833.8"></path><path d="M 250.10 293.20 L 269.50 280.70 L 302.40 260.40 L 329.30 245.40 L 343.10 238.50 L 357.00 232.00 L 371.10 226.00 L 381.80 221.90 L 392.70 218.20 L 403.70 214.90 L 414.80 211.90 L 426.00 209.40 L 437.40 207.40 L 449.00 205.90 L 460.70 204.90 L 461.70 210.30 L 464.30 234.10 L 465.50 239.80 L 466.70 243.50 L 468.20 246.90 L 470.10 250.10 L 472.40 253.00 L 475.30 255.60 L 478.90 258.00 L 484.20 261.00 L 489.70 263.50 L 495.40 265.60 L 501.30 267.10 L 507.40 268.20 L 513.50 268.90 L 519.70 269.10 L 525.90 268.90 L 532.10 268.30 L 538.20 267.20 L 544.20 265.70 L 550.10 263.90 L 555.90 261.60 L 561.40 258.90 L 566.60 255.90 L 571.60 252.50 L 573.40 248.70 L 574.70 245.00 L 575.70 241.10 L 576.60 235.20 L 577.00 229.10 L 577.30 210.90 L 577.80 205.10 L 588.00 206.40 L 598.10 208.20 L 607.90 210.60 L 617.60 213.40 L 636.90 219.80 L 693.80 241.60 L 703.30 244.90 L 722.80 250.50 L 745.60 274.00 L 768.90 297.10 L 780.90 308.20 L 793.20 319.00 L 775.60 328.70 L 796.10 363.80 L 809.30 387.50 L 819.10 407.80 L 825.60 424.70 L 826.10 439.00 L 827.10 453.30 L 830.80 496.20 L 831.70 510.50 L 832.00 529.60 L 831.70 539.10 L 831.00 548.60 L 829.80 558.10 L 828.10 567.60 L 814.90 632.40 L 805.50 675.40 L 800.00 696.70 L 797.30 706.30 L 793.90 715.70 L 778.20 753.00 L 774.70 762.40 L 772.00 771.90 L 770.50 778.30 L 769.60 784.80 L 769.10 791.40 L 769.10 798.00 L 769.80 804.80 L 771.20 811.80 L 747.80 900.80 L 780.50 900.80 L 813.10 901.90 L 809.90 906.30 L 806.40 910.20 L 802.70 913.70 L 798.70 916.80 L 793.00 920.40 L 786.90 923.40 L 780.50 926.00 L 773.80 928.00 L 760.00 931.20 L 749.30 932.90 L 718.30 936.70 L 708.40 926.00 L 697.40 911.60 L 685.50 893.30 L 668.60 865.30 L 615.50 871.60 L 580.00 875.00 L 544.80 877.20 L 510.00 877.90 L 492.60 877.70 L 469.50 876.90 L 446.30 875.70 L 423.10 874.00 L 388.40 871.00 L 353.70 867.70 L 335.80 895.50 L 329.50 904.60 L 322.90 913.50 L 315.90 922.00 L 310.90 927.40 L 300.20 937.50 L 291.80 937.40 L 275.10 936.20 L 266.90 935.10 L 255.90 933.00 L 245.20 930.30 L 234.50 927.00 L 224.10 923.10 L 214.00 918.70 L 204.00 913.60 L 223.60 908.00 L 233.50 905.70 L 248.50 902.90 L 263.70 900.50 L 261.80 885.10 L 259.30 869.90 L 256.30 854.80 L 252.70 839.80 L 248.50 825.00 L 243.70 810.40 L 238.40 796.00 L 232.40 781.80 L 225.80 767.90 L 218.60 754.10 L 212.60 741.40 L 207.00 728.50 L 201.70 715.50 L 196.90 702.40 L 191.00 684.70 L 185.70 666.80 L 181.00 648.70 L 176.80 630.40 L 173.10 612.10 L 169.90 593.60 L 167.10 575.10 L 162.60 538.10 L 153.80 544.70 L 136.60 558.50 L 124.10 569.30 L 87.20 602.50 L 89.40 594.00 L 94.70 577.70 L 97.80 569.80 L 102.50 559.50 L 107.60 549.40 L 113.20 539.50 L 122.10 525.00 L 131.60 510.80 L 161.00 468.90 L 170.40 454.80 L 173.30 441.50 L 176.70 428.30 L 180.40 415.30 L 184.50 402.40 L 189.10 389.60 L 194.10 377.10 L 199.60 364.80 L 205.50 352.70 L 211.90 340.80 L 218.90 329.20 L 226.50 317.90 L 234.50 306.80 L 250.10 293.20 Z M 478.40 284.30 L 476.80 286.80 L 475.90 289.10 L 475.60 291.30 L 475.80 293.50 L 476.40 295.60 L 477.40 297.50 L 480.40 300.80 L 482.40 302.20 L 486.70 304.00 L 489.10 304.50 L 493.70 304.40 L 496.00 303.70 L 498.10 302.70 L 500.00 301.20 L 501.70 299.20 L 503.70 296.60 L 504.80 294.20 L 505.20 292.00 L 505.20 289.70 L 504.60 287.60 L 503.60 285.70 L 500.50 282.30 L 498.50 281.00 L 493.90 279.10 L 491.50 278.70 L 486.60 278.90 L 484.20 279.50 L 482.10 280.60 L 480.10 282.20 L 478.40 284.30 Z M 246.80 326.90 L 244.70 329.20 L 243.50 331.10 L 243.00 332.80 L 242.90 334.50 L 243.20 336.00 L 244.00 337.40 L 246.60 339.50 L 248.40 340.30 L 251.30 341.10 L 254.50 341.30 L 257.70 340.90 L 260.70 340.00 L 264.10 337.70 L 267.60 333.80 L 268.90 331.90 L 269.40 330.20 L 269.60 328.50 L 269.20 327.00 L 267.20 324.40 L 263.90 322.50 L 261.00 321.70 L 257.70 321.50 L 253.40 322.10 L 249.60 323.80 L 248.10 325.20 L 246.80 326.90 Z M 285.20 335.90 L 279.90 337.20 L 274.80 339.00 L 270.00 341.10 L 265.30 343.70 L 256.60 349.80 L 248.90 357.10 L 244.40 362.60 L 240.30 368.40 L 236.90 374.60 L 234.60 379.50 L 232.70 384.40 L 230.00 394.60 L 229.20 399.80 L 228.70 410.10 L 229.10 415.20 L 229.90 420.30 L 231.10 425.30 L 232.80 430.20 L 234.90 435.00 L 237.50 439.60 L 240.60 444.00 L 244.20 448.20 L 253.80 457.50 L 259.40 462.30 L 265.10 466.50 L 270.90 470.20 L 276.90 473.50 L 284.70 477.10 L 292.70 480.00 L 300.80 482.40 L 309.20 484.10 L 317.60 485.30 L 326.20 486.00 L 334.80 486.20 L 343.60 485.90 L 352.30 485.10 L 361.00 483.90 L 369.70 482.30 L 378.50 480.30 L 389.90 477.10 L 401.20 473.30 L 412.20 469.00 L 423.00 464.20 L 433.30 459.10 L 443.10 453.70 L 444.30 449.90 L 444.80 446.40 L 444.80 442.90 L 444.10 439.50 L 443.10 436.10 L 441.60 432.80 L 438.80 428.00 L 435.50 423.20 L 424.80 409.80 L 421.90 405.60 L 404.00 386.10 L 390.80 373.50 L 383.80 367.40 L 376.70 361.60 L 369.30 356.20 L 361.70 351.20 L 353.90 346.60 L 345.90 342.70 L 337.80 339.30 L 331.50 337.30 L 325.20 335.60 L 318.80 334.40 L 312.20 333.60 L 305.70 333.40 L 299.00 333.70 L 292.20 334.50 L 285.20 335.90 Z M 670.10 351.80 L 658.70 359.40 L 639.90 373.50 L 625.60 385.80 L 618.80 392.50 L 612.40 399.40 L 606.40 406.50 L 600.80 414.00 L 595.70 421.80 L 591.20 429.80 L 588.30 436.10 L 585.70 442.50 L 583.50 449.10 L 581.70 456.00 L 624.90 470.00 L 639.60 474.20 L 649.50 476.70 L 659.30 478.80 L 669.20 480.40 L 684.20 481.90 L 699.10 481.90 L 706.50 481.30 L 714.00 480.20 L 721.50 478.60 L 735.50 474.50 L 741.90 471.90 L 748.10 468.70 L 754.10 465.10 L 759.80 460.90 L 765.10 456.40 L 770.10 451.40 L 774.70 446.10 L 778.70 440.40 L 782.30 434.50 L 785.30 428.30 L 787.60 421.90 L 788.90 417.00 L 789.80 412.10 L 790.30 407.00 L 790.40 401.90 L 790.00 396.90 L 789.10 391.70 L 787.70 386.60 L 785.80 381.40 L 783.30 375.90 L 780.40 370.80 L 777.20 366.20 L 773.60 361.90 L 769.70 357.90 L 765.50 354.30 L 761.00 351.10 L 756.20 348.20 L 746.10 343.60 L 740.80 341.80 L 729.80 339.30 L 718.60 338.30 L 712.90 338.30 L 707.20 338.70 L 696.00 340.60 L 685.10 344.00 L 679.90 346.20 L 674.90 348.80 L 670.10 351.80 Z M 498.40 374.90 L 496.10 377.20 L 494.50 379.50 L 493.60 381.80 L 493.30 384.30 L 493.40 386.70 L 494.00 389.10 L 496.40 393.50 L 500.10 397.10 L 502.20 398.40 L 504.60 399.40 L 507.10 400.00 L 509.50 400.20 L 512.10 399.80 L 514.50 398.90 L 516.80 397.50 L 521.30 392.90 L 522.70 390.60 L 523.40 388.30 L 523.70 385.90 L 523.50 383.60 L 522.90 381.30 L 520.50 377.10 L 518.80 375.30 L 514.80 372.40 L 510.20 370.80 L 507.80 370.60 L 505.30 370.90 L 503.00 371.60 L 500.70 372.90 L 498.40 374.90 Z M 475.50 488.90 L 476.20 493.30 L 477.70 512.40 L 478.50 517.00 L 480.40 522.80 L 483.60 527.90 L 490.80 534.50 L 493.20 536.30 L 495.60 537.60 L 498.10 538.40 L 501.50 538.90 L 505.10 538.90 L 508.70 538.20 L 512.20 536.90 L 515.60 535.30 L 518.90 533.10 L 522.00 530.50 L 524.80 527.70 L 527.30 524.60 L 529.50 521.20 L 531.20 517.70 L 532.50 514.20 L 533.30 510.50 L 533.50 506.90 L 533.10 503.30 L 532.30 500.70 L 531.20 498.30 L 529.60 495.90 L 527.50 493.50 L 523.50 491.70 L 519.40 490.40 L 515.10 489.60 L 508.60 488.90 L 502.00 488.80 L 481.90 489.30 L 475.50 488.90 Z M 177.90 518.10 L 176.70 522.90 L 176.10 526.50 L 176.20 529.30 L 176.70 531.50 L 177.60 533.10 L 178.80 534.30 L 180.40 535.10 L 182.60 535.60 L 185.50 535.60 L 189.20 535.10 L 194.00 533.70 L 195.30 528.80 L 195.80 525.00 L 195.80 522.20 L 195.20 520.00 L 194.40 518.40 L 193.10 517.20 L 191.50 516.40 L 189.30 516.00 L 186.50 516.00 L 182.80 516.60 L 177.90 518.10 Z M 237.20 529.60 L 241.50 548.30 L 244.20 557.60 L 247.50 566.80 L 252.90 578.60 L 256.10 584.10 L 259.70 589.40 L 263.60 594.30 L 268.10 598.80 L 275.50 604.80 L 284.30 609.70 L 293.90 613.70 L 303.60 617.20 L 313.50 620.10 L 323.50 622.60 L 333.60 624.80 L 343.80 626.50 L 359.20 628.50 L 374.80 629.90 L 390.40 631.00 L 437.00 633.00 L 538.20 633.60 L 563.50 633.10 L 588.80 632.10 L 605.60 630.90 L 622.40 629.40 L 639.10 627.40 L 655.70 624.90 L 672.30 621.90 L 688.80 618.20 L 695.10 616.30 L 701.20 613.90 L 706.90 611.20 L 712.40 608.00 L 717.60 604.50 L 722.60 600.70 L 727.40 596.60 L 731.90 592.10 L 737.40 585.80 L 742.60 579.10 L 747.30 572.00 L 751.50 564.60 L 755.40 556.90 L 758.80 549.00 L 761.80 541.00 L 764.30 532.90 L 766.40 524.70 L 748.70 534.30 L 730.60 543.60 L 712.20 552.40 L 698.20 558.70 L 669.70 570.30 L 655.20 575.60 L 640.60 580.50 L 626.00 585.00 L 611.20 589.10 L 596.30 592.70 L 581.40 595.90 L 566.30 598.50 L 551.30 600.60 L 536.20 602.20 L 521.00 603.20 L 505.80 603.60 L 490.70 603.40 L 475.50 602.60 L 463.30 601.40 L 451.20 599.80 L 439.10 597.80 L 427.00 595.20 L 414.90 592.20 L 408.40 592.30 L 392.00 585.50 L 396.30 584.80 L 386.80 583.60 L 377.50 582.00 L 368.30 579.80 L 350.40 574.30 L 328.50 565.70 L 276.90 542.90 L 263.80 537.70 L 255.00 534.70 L 237.20 529.60 Z M 673.50 662.90 L 671.70 665.30 L 670.80 667.40 L 670.30 669.20 L 670.40 671.10 L 670.80 672.90 L 671.70 674.40 L 674.30 677.00 L 676.10 678.10 L 679.00 679.10 L 682.20 679.60 L 686.50 679.30 L 690.50 677.80 L 692.20 676.50 L 695.90 672.30 L 697.30 670.10 L 697.90 668.00 L 698.00 665.90 L 697.70 664.00 L 696.80 662.20 L 695.60 660.60 L 694.00 659.20 L 690.00 657.10 L 685.50 656.20 L 680.90 656.70 L 678.70 657.60 L 676.80 658.90 L 675.00 660.60 L 673.50 662.90 Z M 304.70 681.50 L 303.70 685.80 L 303.40 689.10 L 303.70 691.70 L 304.40 693.70 L 305.40 695.30 L 306.90 696.50 L 308.90 697.40 L 311.50 697.90 L 314.90 698.00 L 319.30 697.40 L 320.40 693.00 L 320.60 689.60 L 320.40 686.90 L 319.70 684.90 L 318.60 683.30 L 317.10 682.10 L 315.10 681.30 L 312.50 680.80 L 309.10 680.80 L 304.70 681.50 Z M 292.80 730.70 L 291.70 735.50 L 291.30 739.20 L 291.50 742.00 L 292.10 744.20 L 293.00 745.90 L 294.30 747.20 L 296.00 748.10 L 298.30 748.70 L 301.10 748.80 L 304.80 748.30 L 309.60 747.10 L 310.60 742.30 L 310.90 738.50 L 310.70 735.60 L 310.10 733.40 L 309.10 731.70 L 307.80 730.40 L 306.10 729.50 L 303.90 729.00 L 301.10 729.00 L 297.40 729.50 L 292.80 730.70 Z M 332.00 730.10 L 331.40 734.40 L 331.30 737.80 L 331.80 740.30 L 332.60 742.30 L 333.80 743.70 L 335.30 744.80 L 337.30 745.50 L 339.90 745.70 L 343.30 745.40 L 347.60 744.40 L 348.30 739.90 L 348.30 736.40 L 347.90 733.80 L 347.00 731.90 L 345.80 730.40 L 344.30 729.40 L 342.30 728.70 L 339.70 728.50 L 336.40 728.90 L 332.00 730.10 Z M 632.80 729.60 L 630.20 730.30 L 628.20 731.30 L 626.60 732.50 L 624.50 735.60 L 623.90 737.30 L 623.80 740.80 L 625.00 744.10 L 625.90 745.60 L 628.60 747.80 L 632.20 748.80 L 634.10 748.80 L 636.30 748.20 L 643.70 745.40 L 645.40 744.20 L 646.70 742.60 L 648.20 739.20 L 648.30 735.60 L 647.20 732.10 L 646.20 730.60 L 643.40 728.40 L 641.70 727.70 L 639.70 727.40 L 637.70 727.60 L 635.40 728.30 L 632.80 729.60 Z M 352.80 770.60 L 351.70 775.40 L 351.40 779.10 L 351.60 782.00 L 352.20 784.30 L 353.20 786.00 L 354.50 787.30 L 356.20 788.20 L 358.40 788.80 L 361.20 789.00 L 364.80 788.60 L 369.40 787.40 L 370.40 782.50 L 370.70 778.60 L 370.50 775.70 L 369.80 773.40 L 368.90 771.70 L 367.60 770.40 L 365.90 769.50 L 363.70 769.00 L 360.90 768.90 L 357.30 769.30 L 352.80 770.60 Z M 295.00 778.80 L 294.20 783.30 L 294.10 786.60 L 294.40 789.20 L 295.20 791.10 L 296.30 792.60 L 297.80 793.60 L 299.70 794.20 L 302.30 794.50 L 305.60 794.10 L 309.90 793.10 L 310.80 788.40 L 310.90 784.90 L 310.50 782.30 L 309.70 780.30 L 308.60 778.90 L 307.10 777.90 L 305.20 777.30 L 302.70 777.20 L 299.30 777.60 L 295.00 778.80 Z M 284.50 837.30 L 282.70 839.00 L 281.40 840.90 L 279.90 845.30 L 279.80 850.20 L 280.20 852.70 L 281.90 857.30 L 283.10 859.40 L 286.20 862.70 L 288.10 863.80 L 290.00 864.50 L 292.20 864.80 L 294.30 864.60 L 296.60 863.70 L 299.20 862.20 L 301.10 860.40 L 302.50 858.40 L 303.50 856.10 L 304.20 853.70 L 304.30 848.60 L 303.90 846.10 L 302.20 841.30 L 300.90 839.20 L 297.80 835.90 L 295.90 834.80 L 293.80 834.20 L 291.60 834.00 L 289.50 834.40 L 287.10 835.40 L 284.50 837.30 Z M 329.30 835.70 L 328.30 840.40 L 328.00 844.10 L 328.20 847.00 L 328.90 849.20 L 329.90 850.90 L 331.20 852.10 L 332.90 853.00 L 335.10 853.50 L 338.00 853.60 L 341.70 853.10 L 346.40 851.90 L 347.30 847.00 L 347.60 843.20 L 347.30 840.30 L 346.70 838.10 L 345.70 836.40 L 344.30 835.20 L 342.60 834.30 L 340.40 833.80 L 337.60 833.80 L 334.00 834.40 L 329.30 835.70 Z M 668.90 839.60 L 667.20 844.30 L 666.50 847.90 L 666.30 850.60 L 666.70 852.60 L 667.50 854.10 L 668.60 855.20 L 670.10 856.00 L 672.30 856.40 L 675.20 856.40 L 679.20 855.70 L 684.40 854.20 L 686.00 849.50 L 686.70 845.90 L 686.80 843.20 L 686.40 841.20 L 685.60 839.70 L 684.50 838.60 L 682.90 837.80 L 680.70 837.40 L 677.90 837.40 L 674.00 838.10 L 668.90 839.60 Z M 712.70 847.00 L 719.10 844.20 L 721.00 843.70 L 723.00 843.70 L 724.30 844.10 L 725.10 844.70 L 726.00 846.90 L 725.40 850.60 L 724.40 853.00 L 723.00 855.10 L 720.20 857.70 L 717.90 858.20 L 716.80 857.90 L 715.80 857.10 L 714.70 855.50 L 713.30 851.00 L 712.70 847.00 Z" fill="#f49190" fill-rule="nonzero" node-id="81" stroke="none" target-height="732.6" target-width="744.8" target-x="87.2" target-y="204.9"></path><path d="M 497.70 503.40 L 501.40 502.00 L 506.80 500.90 L 510.90 501.30 L 513.80 502.80 L 514.80 504.00 L 515.80 505.80 L 516.30 507.90 L 516.20 512.90 L 514.70 518.10 L 513.50 520.60 L 510.40 524.90 L 508.50 526.70 L 506.50 527.90 L 504.40 528.70 L 501.10 528.80 L 497.60 527.30 L 496.00 526.00 L 492.60 521.80 L 490.80 518.50 L 497.70 503.40 Z" fill="#f9e964" fill-rule="nonzero" node-id="83" stroke="none" target-height="27.899994" target-width="25.5" target-x="490.8" target-y="500.9"></path><path d="M 462.60 189.20 L 466.50 178.70 L 477.70 143.80 L 481.80 132.10 L 486.40 120.70 L 489.80 113.30 L 493.50 106.30 L 497.70 99.80 L 501.10 95.10 L 504.80 90.70 L 508.80 86.70 L 513.10 82.90 L 517.70 79.60 L 522.70 76.70 L 528.20 74.10 L 534.10 72.00 L 538.60 75.40 L 542.70 79.10 L 546.40 83.00 L 549.70 87.10 L 553.70 92.90 L 557.20 99.10 L 560.20 105.60 L 562.80 112.30 L 567.00 126.50 L 569.40 137.40 L 576.90 181.50 L 579.10 191.80 L 600.20 166.90 L 611.60 155.30 L 618.50 154.20 L 623.20 154.60 L 625.30 155.40 L 628.50 157.70 L 631.10 161.70 L 632.10 164.50 L 633.60 172.80 L 634.30 189.40 L 634.80 194.70 L 635.60 199.30 L 652.20 205.60 L 668.70 212.30 L 684.90 219.50 L 701.00 227.20 L 716.80 235.30 L 741.10 218.30 L 753.00 209.40 L 764.60 200.20 L 779.40 187.10 L 793.30 173.10 L 809.10 154.20 L 818.10 142.40 L 821.30 138.70 L 824.70 135.40 L 827.10 133.40 L 832.50 130.40 L 835.40 129.50 L 838.70 128.90 L 842.30 128.90 L 845.50 134.30 L 848.30 139.80 L 850.60 145.40 L 852.60 151.00 L 854.70 158.80 L 856.30 166.70 L 857.30 174.80 L 857.80 182.90 L 857.90 191.10 L 857.70 199.40 L 856.60 211.70 L 855.00 224.00 L 850.70 247.90 L 839.40 235.00 L 840.80 219.80 L 842.50 189.50 L 842.40 166.80 L 840.80 144.10 L 813.90 173.60 L 800.20 188.10 L 786.10 202.20 L 776.40 211.30 L 766.50 220.00 L 756.20 228.40 L 748.30 234.40 L 731.60 245.40 L 722.80 250.50 L 703.30 244.90 L 693.80 241.60 L 636.90 219.80 L 617.60 213.40 L 607.90 210.60 L 598.10 208.20 L 588.00 206.40 L 577.80 205.10 L 577.30 210.90 L 577.00 229.10 L 576.60 235.20 L 575.70 241.10 L 574.70 245.00 L 573.40 248.70 L 571.60 252.50 L 566.60 255.90 L 561.40 258.90 L 555.90 261.60 L 550.10 263.90 L 544.20 265.70 L 538.20 267.20 L 532.10 268.30 L 525.90 268.90 L 519.70 269.10 L 513.50 268.90 L 507.40 268.20 L 501.30 267.10 L 495.40 265.60 L 489.70 263.50 L 484.20 261.00 L 478.90 258.00 L 475.30 255.60 L 472.40 253.00 L 470.10 250.10 L 468.20 246.90 L 466.70 243.50 L 465.50 239.80 L 464.30 234.10 L 461.70 210.30 L 460.70 204.90 L 449.00 205.90 L 437.40 207.40 L 426.00 209.40 L 414.80 211.90 L 403.70 214.90 L 392.70 218.20 L 381.80 221.90 L 371.10 226.00 L 357.00 232.00 L 343.10 238.50 L 329.30 245.40 L 302.40 260.40 L 269.50 280.70 L 250.10 293.20 L 261.80 282.80 L 273.10 272.20 L 284.00 261.20 L 294.60 249.90 L 284.10 242.30 L 273.90 234.20 L 264.10 225.80 L 245.40 208.00 L 236.40 198.70 L 223.40 184.30 L 210.70 169.50 L 186.20 139.50 L 185.30 151.20 L 184.90 163.20 L 184.90 175.30 L 185.40 187.40 L 186.40 199.40 L 188.10 211.40 L 189.70 220.40 L 194.00 237.80 L 196.80 246.40 L 199.90 254.80 L 203.50 263.00 L 207.50 270.90 L 211.90 278.70 L 216.80 286.10 L 222.20 293.30 L 228.10 300.20 L 234.50 306.80 L 226.40 317.90 L 218.90 329.20 L 211.90 340.80 L 205.50 352.70 L 199.60 364.80 L 194.10 377.10 L 189.10 389.60 L 184.50 402.40 L 180.40 415.30 L 176.70 428.30 L 173.30 441.50 L 170.40 454.80 L 161.00 468.90 L 131.60 510.80 L 122.10 525.00 L 113.20 539.50 L 107.60 549.40 L 102.50 559.50 L 97.80 569.80 L 94.70 577.70 L 89.40 594.00 L 87.20 602.50 L 124.10 569.30 L 136.60 558.50 L 153.80 544.70 L 162.60 538.10 L 167.10 575.10 L 169.90 593.60 L 173.10 612.10 L 176.80 630.40 L 181.00 648.70 L 185.70 666.80 L 191.00 684.70 L 196.90 702.40 L 201.70 715.50 L 207.00 728.50 L 212.60 741.40 L 218.60 754.10 L 225.80 767.90 L 232.40 781.80 L 238.40 796.00 L 243.70 810.40 L 248.50 825.00 L 252.70 839.80 L 256.30 854.80 L 259.30 869.90 L 261.80 885.10 L 263.70 900.50 L 248.50 902.90 L 233.50 905.70 L 223.60 908.00 L 204.00 913.60 L 214.00 918.70 L 224.10 923.10 L 234.50 927.00 L 245.20 930.30 L 255.90 933.00 L 266.90 935.10 L 275.10 936.20 L 291.80 937.40 L 300.20 937.50 L 310.90 927.40 L 315.90 922.00 L 322.90 913.50 L 329.50 904.60 L 335.80 895.50 L 353.70 867.70 L 423.10 874.00 L 446.30 875.70 L 469.50 876.90 L 492.60 877.70 L 510.00 877.90 L 544.80 877.20 L 562.20 876.20 L 574.80 891.00 L 557.00 892.70 L 539.10 893.80 L 521.30 894.40 L 503.40 894.40 L 485.60 894.00 L 467.70 893.20 L 432.00 890.60 L 387.60 885.90 L 361.00 882.60 L 351.40 897.00 L 341.40 911.20 L 331.00 925.00 L 320.30 938.70 L 309.30 952.00 L 239.00 952.00 L 203.80 942.70 L 192.10 939.30 L 180.60 935.40 L 169.40 931.00 L 162.00 927.80 L 147.70 920.20 L 148.70 906.70 L 156.00 903.00 L 163.50 899.90 L 171.20 897.30 L 179.00 895.20 L 186.90 893.50 L 194.90 892.20 L 207.10 890.70 L 219.30 889.80 L 243.70 888.60 L 241.60 876.70 L 239.00 865.00 L 236.10 853.40 L 229.00 830.50 L 218.60 802.50 L 211.80 785.90 L 190.70 736.30 L 184.00 719.70 L 182.80 716.00 L 181.20 712.90 L 179.20 710.30 L 174.20 706.10 L 166.60 702.30 L 152.10 696.10 L 146.50 692.50 L 144.00 690.30 L 142.00 687.70 L 140.30 684.60 L 139.10 680.90 L 147.50 672.10 L 164.90 655.60 L 157.90 611.60 L 152.40 567.50 L 133.60 585.90 L 114.40 603.90 L 94.80 621.50 L 87.30 613.40 L 83.80 609.00 L 80.90 604.60 L 79.30 601.40 L 78.10 598.10 L 77.30 594.70 L 77.00 591.30 L 77.30 587.50 L 79.90 576.00 L 82.00 568.70 L 84.40 561.50 L 87.20 554.40 L 91.50 545.20 L 96.20 536.30 L 101.40 527.50 L 112.80 510.70 L 128.50 490.50 L 141.70 474.70 L 144.70 470.20 L 147.30 465.60 L 151.70 455.80 L 155.60 443.00 L 164.40 403.60 L 148.70 389.50 L 145.20 385.60 L 142.00 381.60 L 138.70 375.50 L 137.50 372.20 L 138.10 368.10 L 139.00 365.00 L 140.20 362.60 L 141.90 360.50 L 143.90 358.90 L 146.20 357.70 L 151.40 356.30 L 158.90 356.20 L 181.50 359.20 L 210.30 315.60 L 204.30 306.40 L 198.50 296.70 L 193.10 286.60 L 188.10 276.30 L 183.60 265.70 L 179.50 254.80 L 176.00 243.80 L 173.10 232.70 L 170.90 221.40 L 169.60 212.90 L 168.80 204.40 L 168.40 196.00 L 168.40 187.50 L 168.90 179.10 L 169.80 170.80 L 171.30 162.50 L 173.30 154.30 L 175.80 146.20 L 178.80 138.30 L 182.50 130.50 L 186.80 122.80 L 202.70 138.30 L 244.30 183.30 L 263.90 203.00 L 272.10 210.50 L 280.60 217.60 L 289.40 224.40 L 298.70 230.60 L 308.40 236.50 L 322.40 228.60 L 336.70 221.20 L 351.20 214.20 L 362.20 209.30 L 373.30 204.80 L 384.60 200.70 L 396.10 196.90 L 423.30 191.50 L 432.50 163.90 L 434.60 168.20 L 437.00 172.10 L 439.60 175.70 L 442.60 179.00 L 445.90 181.90 L 449.60 184.40 L 453.50 186.40 L 457.80 188.00 L 462.60 189.20 Z M 477.30 243.60 L 501.70 238.90 L 500.40 263.10 L 518.90 243.60 L 531.00 266.30 L 547.00 249.20 L 561.10 245.50 L 558.00 179.80 L 557.20 168.80 L 554.50 147.10 L 552.50 136.40 L 549.90 125.90 L 546.80 115.50 L 544.10 107.90 L 540.80 100.30 L 537.20 92.90 L 533.00 85.60 L 527.20 90.30 L 521.80 95.20 L 516.90 100.40 L 512.50 105.90 L 508.40 111.60 L 504.70 117.60 L 501.30 123.80 L 498.30 130.30 L 494.80 139.10 L 491.70 148.20 L 489.20 157.50 L 485.10 176.60 L 481.60 201.00 L 477.30 243.60 Z" fill="#53455f" fill-rule="nonzero" node-id="85" stroke="none" target-height="880" target-width="780.9" target-x="77" target-y="72"></path><path d="M 477.30 243.60 L 481.60 201.00 L 485.10 176.60 L 489.20 157.50 L 491.70 148.20 L 494.80 139.10 L 498.30 130.30 L 501.30 123.80 L 504.70 117.60 L 508.40 111.60 L 512.50 105.90 L 516.90 100.40 L 521.80 95.20 L 527.20 90.30 L 533.00 85.60 L 537.20 92.90 L 540.80 100.30 L 544.10 107.90 L 546.80 115.50 L 549.90 125.90 L 552.50 136.40 L 554.50 147.10 L 557.20 168.80 L 558.00 179.80 L 561.10 245.50 L 547.00 249.20 L 531.00 266.30 L 518.90 243.60 L 500.40 263.10 L 501.70 238.90 L 477.30 243.60 Z" fill="#fcef53" fill-rule="nonzero" node-id="87" stroke="none" target-height="180.69998" target-width="83.79999" target-x="477.3" target-y="85.6"></path><path d="M 186.20 139.50 L 210.70 169.50 L 223.40 184.30 L 236.40 198.70 L 245.40 208.00 L 264.10 225.80 L 273.90 234.20 L 284.10 242.30 L 294.60 249.90 L 284.00 261.20 L 273.10 272.20 L 261.80 282.80 L 234.50 306.80 L 228.10 300.20 L 222.20 293.30 L 216.80 286.10 L 211.90 278.70 L 207.50 270.90 L 203.50 263.00 L 199.90 254.80 L 196.80 246.40 L 194.00 237.80 L 189.70 220.40 L 188.10 211.40 L 186.40 199.40 L 185.40 187.40 L 184.90 175.30 L 184.90 163.20 L 185.30 151.20 L 186.20 139.50 Z" fill="#fcf156" fill-rule="nonzero" node-id="89" stroke="none" target-height="167.29999" target-width="109.70001" target-x="184.9" target-y="139.5"></path><path d="M 722.80 250.50 L 731.60 245.40 L 748.20 234.40 L 756.20 228.40 L 766.50 220.00 L 776.40 211.30 L 786.10 202.20 L 800.20 188.10 L 813.90 173.60 L 840.80 144.10 L 842.40 166.80 L 842.50 189.50 L 840.80 219.80 L 839.40 235.00 L 831.30 257.80 L 826.60 268.90 L 821.30 279.90 L 817.50 287.00 L 808.90 300.50 L 804.10 307.00 L 798.80 313.10 L 793.20 319.00 L 780.90 308.20 L 768.90 297.10 L 745.60 274.00 L 722.80 250.50 Z" fill="#fdf149" fill-rule="nonzero" node-id="91" stroke="none" target-height="174.9" target-width="119.70001" target-x="722.8" target-y="144.1"></path><path d="M 408.50 155.20 L 412.90 155.30 L 417.10 156.00 L 421.10 157.20 L 425.00 158.90 L 428.80 161.10 L 432.50 163.90 L 423.30 191.50 L 396.10 196.90 L 399.90 175.20 L 401.90 168.20 L 403.60 163.70 L 405.80 159.30 L 408.50 155.20 Z" fill="#7f536e" fill-rule="nonzero" node-id="93" stroke="none" target-height="41.699997" target-width="36.399994" target-x="396.1" target-y="155.2"></path><path d="M 793.20 319.00 L 798.80 313.10 L 804.10 307.00 L 808.90 300.50 L 817.50 287.00 L 821.30 279.90 L 826.60 268.90 L 831.30 257.80 L 839.40 235.00 L 850.70 247.90 L 848.80 256.50 L 846.40 264.80 L 843.60 272.90 L 840.20 280.90 L 836.40 288.60 L 832.20 296.10 L 827.70 303.50 L 822.80 310.70 L 815.90 319.90 L 808.50 328.80 L 800.70 337.40 L 807.70 346.60 L 814.20 356.00 L 820.20 365.70 L 831.20 385.70 L 836.30 395.90 L 843.40 411.60 L 850.00 427.40 L 862.70 459.40 L 871.20 470.40 L 907.90 513.60 L 916.60 524.70 L 922.10 532.30 L 927.10 540.20 L 931.80 548.30 L 937.90 561.00 L 940.50 567.70 L 944.10 579.00 L 945.30 584.10 L 946.00 589.40 L 946.30 594.90 L 945.60 602.00 L 944.80 605.30 L 943.60 608.40 L 942.00 611.20 L 940.00 613.70 L 938.20 615.30 L 933.70 617.70 L 930.90 618.60 L 925.30 617.20 L 920.10 615.40 L 915.20 613.10 L 905.90 607.30 L 901.60 603.90 L 895.30 598.40 L 889.30 592.50 L 866.40 568.20 L 864.80 582.20 L 862.70 596.00 L 860.10 609.70 L 857.20 623.30 L 852.70 641.20 L 847.70 659.00 L 842.10 676.60 L 829.90 711.50 L 792.90 806.70 L 783.20 832.70 L 777.10 850.20 L 771.50 867.90 L 766.20 885.60 L 803.90 885.30 L 822.70 886.50 L 832.00 887.60 L 841.20 889.30 L 850.30 891.60 L 856.90 893.70 L 863.50 896.20 L 869.90 899.20 L 876.30 902.70 L 869.20 908.50 L 861.80 913.80 L 854.20 918.50 L 846.30 922.80 L 838.20 926.70 L 821.50 933.40 L 804.30 939.00 L 778.00 945.90 L 751.70 952.00 L 712.20 952.00 L 703.30 940.20 L 686.10 916.20 L 673.70 897.80 L 661.80 879.20 L 618.40 885.80 L 596.60 888.60 L 574.80 891.00 L 562.20 876.20 L 597.70 873.50 L 615.50 871.60 L 668.60 865.30 L 685.50 893.30 L 697.40 911.60 L 708.40 926.00 L 718.30 936.70 L 749.30 932.90 L 760.00 931.20 L 767.00 929.80 L 780.50 926.00 L 786.90 923.40 L 793.00 920.40 L 798.70 916.80 L 802.70 913.70 L 806.40 910.20 L 809.90 906.30 L 813.10 901.90 L 780.50 900.80 L 747.80 900.80 L 771.20 811.80 L 795.40 757.90 L 810.90 721.40 L 818.10 702.90 L 825.00 684.30 L 831.20 665.50 L 836.80 646.60 L 840.60 632.40 L 843.90 618.00 L 846.70 603.50 L 849.00 589.00 L 850.50 577.30 L 851.50 565.60 L 852.10 553.70 L 852.40 541.80 L 852.20 529.80 L 890.90 567.90 L 904.10 580.30 L 917.60 592.40 L 931.50 604.00 L 930.60 596.50 L 929.30 589.20 L 927.60 582.10 L 925.50 575.20 L 922.20 566.20 L 918.30 557.40 L 913.80 548.90 L 908.80 540.60 L 903.40 532.60 L 891.40 517.20 L 878.40 502.60 L 868.10 492.10 L 853.60 478.20 L 850.00 474.10 L 843.60 465.10 L 838.30 455.40 L 834.90 447.80 L 819.10 407.80 L 809.30 387.50 L 796.10 363.80 L 775.60 328.70 L 793.20 319.00 Z" fill="#283b63" fill-rule="nonzero" node-id="95" stroke="none" target-height="717" target-width="384.09998" target-x="562.2" target-y="235"></path><path d="M 246.80 326.90 L 248.10 325.20 L 249.60 323.80 L 253.40 322.10 L 257.70 321.50 L 261.00 321.70 L 263.90 322.50 L 267.20 324.40 L 269.20 327.00 L 269.60 328.50 L 269.40 330.20 L 268.90 331.90 L 267.60 333.80 L 264.10 337.70 L 260.70 340.00 L 257.70 340.90 L 254.50 341.30 L 251.30 341.10 L 248.40 340.30 L 246.60 339.50 L 244.00 337.40 L 243.20 336.00 L 242.90 334.50 L 243.00 332.80 L 243.50 331.10 L 244.70 329.20 L 246.80 326.90 Z" fill="#8f4e65" fill-rule="nonzero" node-id="97" stroke="none" target-height="19.799988" target-width="26.700012" target-x="242.9" target-y="321.5"></path><path d="M 241.70 399.40 L 242.40 393.90 L 243.50 388.70 L 245.20 383.80 L 247.30 379.00 L 249.90 374.40 L 252.90 370.10 L 256.30 366.10 L 260.10 362.30 L 264.10 358.90 L 268.40 355.80 L 272.90 353.00 L 277.70 350.50 L 282.70 348.50 L 287.70 346.80 L 292.90 345.60 L 298.10 344.80 L 303.40 344.40 L 308.70 344.60 L 313.90 345.20 L 319.10 346.30 L 326.60 348.40 L 333.80 350.90 L 340.70 353.80 L 347.50 357.10 L 356.10 362.10 L 364.50 367.50 L 372.50 373.60 L 380.20 380.00 L 387.60 386.90 L 394.80 394.10 L 405.20 405.30 L 415.00 417.00 L 433.60 440.80 L 420.60 447.00 L 397.90 456.70 L 379.20 463.20 L 369.60 465.80 L 360.10 467.90 L 350.50 469.50 L 335.90 470.80 L 321.40 470.40 L 314.20 469.60 L 307.10 468.20 L 299.90 466.40 L 292.70 464.00 L 282.10 459.40 L 271.80 453.30 L 266.90 449.80 L 262.40 446.00 L 258.10 441.90 L 254.20 437.40 L 250.70 432.80 L 247.70 427.80 L 245.20 422.60 L 243.30 417.10 L 242.30 412.90 L 241.70 408.60 L 241.50 404.10 L 241.70 399.40 Z M 334.60 397.00 L 331.50 398.00 L 328.70 399.50 L 326.10 401.30 L 323.90 403.60 L 322.00 406.10 L 320.40 408.80 L 319.20 411.80 L 318.00 417.90 L 318.00 421.10 L 318.40 424.20 L 319.30 427.20 L 320.60 430.10 L 322.50 432.80 L 326.90 437.50 L 329.00 439.30 L 333.50 441.80 L 336.80 442.70 L 340.20 443.10 L 343.60 442.90 L 346.90 442.30 L 350.20 441.20 L 353.30 439.60 L 356.20 437.70 L 358.90 435.50 L 361.20 432.90 L 363.10 430.00 L 364.60 426.90 L 365.60 423.60 L 366.00 418.40 L 363.80 407.10 L 361.50 402.70 L 359.40 400.20 L 357.00 398.20 L 354.20 396.60 L 351.20 395.50 L 348.00 394.90 L 344.70 394.70 L 341.30 395.00 L 337.90 395.70 L 334.60 397.00 Z" fill="#fef89a" fill-rule="nonzero" node-id="99" stroke="none" target-height="126.399994" target-width="192.1" target-x="241.5" target-y="344.4"></path><path d="M 594.60 442.20 L 611.70 420.40 L 620.90 409.50 L 630.70 398.80 L 637.40 391.90 L 644.40 385.40 L 651.60 379.20 L 659.10 373.40 L 666.80 368.20 L 674.80 363.60 L 680.90 360.40 L 687.20 357.80 L 693.70 355.50 L 700.40 353.60 L 707.10 352.30 L 714.10 351.40 L 721.30 351.10 L 733.90 351.80 L 738.80 352.70 L 743.40 354.10 L 747.90 356.00 L 752.10 358.30 L 756.10 360.90 L 759.80 363.90 L 763.20 367.20 L 769.10 374.60 L 773.70 382.90 L 775.50 387.40 L 776.80 391.90 L 777.80 396.40 L 778.30 401.10 L 778.40 405.80 L 778.00 410.50 L 777.20 415.10 L 775.90 419.80 L 774.10 424.20 L 771.80 428.50 L 768.90 432.70 L 760.50 442.10 L 755.40 446.80 L 750.20 450.80 L 744.90 454.40 L 739.20 457.50 L 733.50 460.20 L 727.60 462.40 L 721.60 464.20 L 715.40 465.60 L 702.80 467.30 L 696.30 467.60 L 687.70 467.50 L 679.00 466.90 L 670.10 465.80 L 661.30 464.20 L 643.80 460.10 L 630.90 456.20 L 618.30 451.80 L 594.60 442.20 Z M 683.90 396.30 L 680.80 398.00 L 678.20 400.10 L 676.10 402.60 L 674.30 405.40 L 673.00 408.40 L 672.10 411.60 L 671.50 415.00 L 671.60 421.70 L 672.20 425.00 L 674.30 431.00 L 675.90 433.70 L 677.80 436.00 L 679.90 437.90 L 682.40 439.30 L 685.10 440.20 L 688.20 440.60 L 692.90 439.90 L 701.50 436.20 L 703.90 434.90 L 707.70 431.60 L 709.60 428.90 L 711.00 426.00 L 711.90 422.90 L 712.30 419.60 L 712.40 416.30 L 712.00 412.90 L 710.10 406.50 L 708.60 403.60 L 706.80 400.80 L 704.70 398.50 L 702.40 396.50 L 699.80 394.90 L 697.00 393.90 L 693.90 393.50 L 691.70 393.50 L 686.70 394.90 L 683.90 396.30 Z" fill="#fff99e" fill-rule="nonzero" node-id="101" stroke="none" target-height="116.5" target-width="183.80005" target-x="594.6" target-y="351.1"></path><path d="M 498.40 374.90 L 500.70 372.90 L 503.00 371.60 L 505.30 370.90 L 507.80 370.60 L 510.20 370.80 L 512.60 371.40 L 516.90 373.70 L 518.80 375.30 L 520.50 377.10 L 522.90 381.30 L 523.50 383.60 L 523.70 385.90 L 523.40 388.30 L 522.70 390.60 L 521.30 392.90 L 519.20 395.20 L 516.80 397.50 L 514.50 398.90 L 512.10 399.80 L 509.50 400.20 L 507.10 400.00 L 504.60 399.40 L 500.10 397.10 L 498.10 395.40 L 496.40 393.50 L 494.00 389.10 L 493.40 386.70 L 493.30 384.30 L 493.60 381.80 L 494.50 379.50 L 496.10 377.20 L 498.40 374.90 Z" fill="#62455d" fill-rule="nonzero" node-id="103" stroke="none" target-height="29.600006" target-width="30.400024" target-x="493.3" target-y="370.6"></path><path d="M 334.60 397.00 L 337.90 395.70 L 341.30 395.00 L 344.70 394.70 L 348.00 394.90 L 351.20 395.50 L 354.20 396.60 L 357.00 398.20 L 359.40 400.20 L 361.50 402.70 L 363.80 407.10 L 365.60 415.60 L 366.00 421.00 L 365.60 423.60 L 364.60 426.90 L 363.10 430.00 L 361.20 432.90 L 358.90 435.50 L 356.20 437.70 L 353.30 439.60 L 350.20 441.20 L 346.90 442.30 L 343.60 442.90 L 340.20 443.10 L 336.80 442.70 L 333.50 441.80 L 331.20 440.70 L 326.90 437.50 L 322.50 432.80 L 320.60 430.10 L 319.30 427.20 L 318.40 424.20 L 318.00 421.10 L 318.00 417.90 L 318.40 414.80 L 319.20 411.80 L 320.40 408.80 L 322.00 406.10 L 323.90 403.60 L 326.10 401.30 L 328.70 399.50 L 331.50 398.00 L 334.60 397.00 Z" fill="#2f3f69" fill-rule="nonzero" node-id="105" stroke="none" target-height="48.399994" target-width="48" target-x="318" target-y="394.7"></path><path d="M 683.90 396.30 L 686.70 394.90 L 691.70 393.50 L 693.90 393.50 L 697.00 393.90 L 699.80 394.90 L 702.40 396.50 L 704.70 398.50 L 706.80 400.80 L 708.60 403.60 L 711.20 409.60 L 712.00 412.90 L 712.40 416.30 L 712.30 419.60 L 711.90 422.90 L 711.00 426.00 L 709.60 428.90 L 707.70 431.60 L 703.90 434.90 L 701.50 436.20 L 692.90 439.90 L 688.20 440.60 L 685.10 440.20 L 682.40 439.30 L 679.90 437.90 L 677.80 436.00 L 675.90 433.70 L 674.30 431.00 L 672.20 425.00 L 671.60 421.70 L 671.50 415.00 L 672.10 411.60 L 673.00 408.40 L 674.30 405.40 L 676.10 402.60 L 678.20 400.10 L 680.80 398.00 L 683.90 396.30 Z" fill="#233e6a" fill-rule="nonzero" node-id="107" stroke="none" target-height="47.100006" target-width="40.900024" target-x="671.5" target-y="393.5"></path><path d="M 825.60 424.70 L 834.90 447.80 L 838.30 455.40 L 840.90 460.30 L 846.60 469.70 L 850.00 474.10 L 853.60 478.20 L 868.10 492.10 L 878.40 502.60 L 891.40 517.20 L 903.40 532.60 L 908.80 540.60 L 913.80 548.90 L 918.30 557.40 L 922.20 566.20 L 925.50 575.20 L 927.60 582.10 L 929.30 589.20 L 930.60 596.50 L 931.50 604.00 L 917.60 592.40 L 904.10 580.30 L 890.90 567.90 L 852.20 529.80 L 852.40 541.80 L 852.10 553.70 L 851.50 565.60 L 850.50 577.30 L 849.00 589.00 L 846.70 603.50 L 843.90 618.00 L 840.60 632.40 L 836.80 646.60 L 831.20 665.50 L 825.00 684.30 L 818.10 702.90 L 810.90 721.40 L 795.40 757.90 L 771.20 811.80 L 769.80 804.80 L 769.10 798.00 L 769.10 791.40 L 769.60 784.80 L 770.50 778.30 L 772.00 771.90 L 774.70 762.40 L 778.20 753.00 L 793.90 715.70 L 797.30 706.30 L 800.00 696.70 L 805.50 675.40 L 810.40 653.90 L 829.80 558.10 L 831.00 548.60 L 831.70 539.10 L 832.00 520.10 L 830.80 496.20 L 827.10 453.30 L 826.10 439.00 L 825.60 424.70 Z" fill="#e67a92" fill-rule="nonzero" node-id="109" stroke="none" target-height="387.09998" target-width="162.40002" target-x="769.1" target-y="424.7"></path><path d="M 177.90 518.10 L 182.80 516.60 L 186.50 516.00 L 189.30 516.00 L 191.50 516.40 L 193.10 517.20 L 194.40 518.40 L 195.20 520.00 L 195.80 522.20 L 195.80 525.00 L 195.30 528.80 L 194.00 533.70 L 189.20 535.10 L 185.50 535.60 L 182.60 535.60 L 180.40 535.10 L 178.80 534.30 L 177.60 533.10 L 176.70 531.50 L 176.20 529.30 L 176.10 526.50 L 176.70 522.90 L 177.90 518.10 Z" fill="#925c65" fill-rule="nonzero" node-id="111" stroke="none" target-height="19.599976" target-width="19.699997" target-x="176.1" target-y="516"></path><path d="M 237.20 529.60 L 255.00 534.70 L 263.80 537.70 L 276.90 542.90 L 328.50 565.70 L 350.40 574.30 L 368.30 579.80 L 377.50 582.00 L 386.80 583.60 L 396.30 584.80 L 387.80 586.00 L 378.20 611.30 L 428.80 617.10 L 408.40 592.30 L 414.90 592.20 L 427.00 595.20 L 439.10 597.80 L 451.20 599.80 L 463.30 601.40 L 475.50 602.60 L 490.70 603.40 L 505.80 603.60 L 521.00 603.20 L 536.20 602.20 L 551.30 600.60 L 566.30 598.50 L 581.40 595.90 L 596.30 592.70 L 611.20 589.10 L 626.00 585.00 L 640.60 580.50 L 669.70 570.30 L 684.00 564.70 L 712.20 552.40 L 730.60 543.60 L 748.70 534.30 L 766.40 524.70 L 764.30 532.90 L 761.80 541.00 L 758.80 549.00 L 755.40 556.90 L 751.50 564.60 L 747.30 572.00 L 742.60 579.10 L 737.40 585.80 L 731.90 592.10 L 727.40 596.60 L 722.60 600.70 L 717.60 604.50 L 712.40 608.00 L 706.90 611.20 L 701.20 613.90 L 695.10 616.30 L 688.80 618.20 L 672.30 621.90 L 655.70 624.90 L 639.10 627.40 L 622.40 629.40 L 605.60 630.90 L 588.80 632.10 L 563.50 633.10 L 538.20 633.60 L 437.00 633.00 L 390.40 631.00 L 374.80 629.90 L 359.20 628.50 L 343.80 626.50 L 333.60 624.80 L 323.50 622.60 L 313.50 620.10 L 303.60 617.20 L 293.90 613.70 L 284.30 609.70 L 275.50 604.80 L 268.10 598.80 L 263.60 594.30 L 259.70 589.40 L 256.10 584.10 L 252.90 578.60 L 247.50 566.80 L 244.20 557.60 L 241.50 548.30 L 237.20 529.60 Z M 735.80 557.10 L 718.90 565.00 L 709.80 570.10 L 703.70 574.90 L 701.30 577.80 L 699.40 581.00 L 697.90 584.50 L 697.30 587.30 L 697.00 590.40 L 697.20 593.90 L 697.80 597.90 L 702.40 595.90 L 710.70 591.00 L 714.50 588.20 L 719.20 584.00 L 723.40 579.40 L 727.20 574.30 L 730.50 568.90 L 733.40 563.20 L 735.80 557.10 Z M 263.60 565.60 L 271.30 575.10 L 279.60 584.30 L 291.40 595.80 L 297.60 601.30 L 300.30 567.00 L 281.80 566.10 L 263.60 565.60 Z M 316.00 576.90 L 314.80 582.20 L 314.40 586.50 L 314.60 590.10 L 315.30 593.50 L 316.60 596.40 L 318.30 598.90 L 320.40 601.00 L 322.90 602.90 L 325.80 604.40 L 330.60 606.20 L 336.00 607.60 L 341.60 608.60 L 359.10 610.80 L 369.50 612.90 L 369.70 609.20 L 369.40 605.90 L 368.80 603.10 L 367.80 600.60 L 366.00 597.50 L 363.80 594.80 L 361.00 592.40 L 354.60 588.70 L 345.00 585.30 L 326.60 580.70 L 320.90 578.90 L 316.00 576.90 Z M 629.20 612.20 L 634.30 610.70 L 640.10 609.50 L 664.80 605.90 L 668.80 605.00 L 676.00 602.30 L 679.30 600.60 L 682.20 598.40 L 684.70 595.80 L 687.60 591.20 L 689.50 585.10 L 659.10 588.40 L 653.00 589.70 L 645.30 592.10 L 641.90 593.80 L 638.70 595.80 L 635.90 598.10 L 633.50 600.90 L 630.80 605.80 L 629.20 612.20 Z M 572.30 617.40 L 577.50 616.70 L 600.70 615.40 L 606.30 614.50 L 609.80 613.50 L 613.20 612.10 L 616.30 610.40 L 619.10 608.20 L 621.60 605.50 L 623.90 602.00 L 618.60 602.60 L 600.60 602.70 L 594.60 603.00 L 588.90 603.80 L 585.30 604.80 L 582.00 606.20 L 579.00 608.10 L 577.00 609.80 L 575.30 611.90 L 573.70 614.40 L 572.30 617.40 Z M 439.70 614.80 L 440.40 617.30 L 441.60 619.30 L 443.20 620.90 L 447.50 623.10 L 450.10 623.70 L 454.30 624.10 L 458.80 624.00 L 463.20 623.40 L 467.40 622.40 L 471.20 621.10 L 474.20 619.60 L 473.60 617.00 L 472.40 614.90 L 470.80 613.20 L 468.80 611.80 L 466.50 610.70 L 461.00 609.40 L 455.00 609.40 L 450.50 610.00 L 446.30 611.20 L 443.70 612.20 L 439.70 614.80 Z M 526.50 619.60 L 530.70 621.80 L 534.80 623.30 L 538.80 624.20 L 542.80 624.50 L 546.80 624.20 L 550.90 623.40 L 555.00 621.90 L 559.30 619.80 L 559.10 617.50 L 558.40 615.60 L 557.20 613.90 L 555.60 612.40 L 551.10 610.30 L 547.20 609.40 L 543.00 609.00 L 538.80 609.30 L 534.90 610.20 L 530.40 612.30 L 528.70 613.70 L 527.40 615.40 L 526.70 617.30 L 526.50 619.60 Z" fill="#454874" fill-rule="nonzero" node-id="113" stroke="none" target-height="108.89996" target-width="529.2" target-x="237.2" target-y="524.7"></path><path d="M 439.70 614.80 L 443.70 612.20 L 446.30 611.20 L 450.50 610.00 L 455.00 609.40 L 461.00 609.40 L 466.50 610.70 L 468.80 611.80 L 470.80 613.20 L 472.40 614.90 L 473.60 617.00 L 474.20 619.60 L 471.20 621.10 L 467.40 622.40 L 463.20 623.40 L 458.80 624.00 L 454.30 624.10 L 450.10 623.70 L 447.50 623.10 L 443.20 620.90 L 441.60 619.30 L 440.40 617.30 L 439.70 614.80 Z" fill="#b3b7cb" fill-rule="nonzero" node-id="115" stroke="none" target-height="14.699951" target-width="34.5" target-x="439.7" target-y="609.4"></path><path d="M 526.50 619.60 L 526.70 617.30 L 527.40 615.40 L 528.70 613.70 L 532.40 611.10 L 534.90 610.10 L 538.80 609.30 L 543.00 609.00 L 547.20 609.40 L 551.10 610.30 L 553.50 611.20 L 557.20 613.90 L 558.40 615.60 L 559.10 617.50 L 559.30 619.80 L 555.00 621.90 L 550.90 623.40 L 546.80 624.20 L 542.80 624.50 L 538.80 624.20 L 534.80 623.30 L 530.70 621.80 L 526.50 619.60 Z" fill="#a7aec4" fill-rule="nonzero" node-id="117" stroke="none" target-height="15.5" target-width="32.799988" target-x="526.5" target-y="609"></path><path d="M 304.70 681.50 L 309.10 680.80 L 312.50 680.80 L 315.10 681.30 L 317.10 682.10 L 318.60 683.30 L 319.70 684.90 L 320.40 686.90 L 320.60 689.60 L 320.40 693.00 L 319.30 697.40 L 314.90 698.00 L 311.50 697.90 L 308.90 697.40 L 306.90 696.50 L 305.40 695.30 L 304.40 693.70 L 303.70 691.70 L 303.40 689.10 L 303.70 685.80 L 304.70 681.50 Z" fill="#8c5860" fill-rule="nonzero" node-id="119" stroke="none" target-height="17.200012" target-width="17.200012" target-x="303.4" target-y="680.8"></path><path d="M 292.80 730.70 L 297.40 729.50 L 301.10 729.00 L 303.90 729.00 L 306.10 729.50 L 307.80 730.40 L 309.10 731.70 L 310.10 733.40 L 310.70 735.60 L 310.90 738.50 L 310.60 742.30 L 309.60 747.10 L 304.80 748.30 L 301.10 748.80 L 298.30 748.70 L 296.00 748.10 L 294.30 747.20 L 293.00 745.90 L 292.10 744.20 L 291.50 742.00 L 291.30 739.20 L 291.70 735.50 L 292.80 730.70 Z" fill="#9a6367" fill-rule="nonzero" node-id="123" stroke="none" target-height="19.799988" target-width="19.600006" target-x="291.3" target-y="729"></path><path d="M 332.00 730.10 L 336.40 728.90 L 339.70 728.50 L 342.30 728.70 L 344.30 729.40 L 345.80 730.40 L 347.00 731.90 L 347.90 733.80 L 348.30 736.40 L 348.30 739.90 L 347.60 744.40 L 343.30 745.40 L 339.90 745.70 L 337.30 745.50 L 335.30 744.80 L 333.80 743.70 L 332.60 742.30 L 331.80 740.30 L 331.30 737.80 L 331.40 734.40 L 332.00 730.10 Z" fill="#a4676f" fill-rule="nonzero" node-id="125" stroke="none" target-height="17.200012" target-width="17" target-x="331.3" target-y="728.5"></path><path d="M 632.80 729.60 L 635.40 728.30 L 637.70 727.60 L 639.70 727.40 L 641.70 727.70 L 643.40 728.40 L 646.20 730.60 L 647.20 732.10 L 648.30 735.60 L 648.20 739.20 L 647.70 741.00 L 645.40 744.20 L 643.70 745.40 L 641.60 746.40 L 638.90 747.10 L 636.30 748.20 L 634.10 748.80 L 632.20 748.80 L 628.60 747.80 L 625.90 745.60 L 625.00 744.10 L 623.80 740.80 L 623.90 737.30 L 625.30 734.00 L 628.20 731.30 L 630.20 730.30 L 632.80 729.60 Z" fill="#7f555e" fill-rule="nonzero" node-id="127" stroke="none" target-height="21.399963" target-width="24.5" target-x="623.8" target-y="727.4"></path><path d="M 295.00 778.80 L 299.30 777.60 L 302.70 777.10 L 305.20 777.30 L 307.10 777.90 L 308.60 778.90 L 309.70 780.30 L 310.50 782.30 L 310.90 784.90 L 310.80 788.40 L 309.90 793.10 L 305.60 794.10 L 302.30 794.50 L 299.70 794.20 L 297.80 793.60 L 296.30 792.60 L 295.20 791.10 L 294.40 789.20 L 294.10 786.60 L 294.20 783.30 L 295.00 778.80 Z" fill="#88555f" fill-rule="nonzero" node-id="129" stroke="none" target-height="17.400024" target-width="16.799988" target-x="294.1" target-y="777.1"></path><path d="M 284.50 837.30 L 287.10 835.40 L 289.50 834.40 L 291.60 834.00 L 293.80 834.20 L 295.90 834.80 L 297.80 835.90 L 300.90 839.20 L 302.20 841.30 L 303.90 846.10 L 304.40 851.20 L 303.50 856.10 L 302.50 858.40 L 301.10 860.40 L 299.20 862.20 L 296.60 863.70 L 294.30 864.60 L 292.20 864.80 L 290.00 864.50 L 288.10 863.80 L 286.20 862.70 L 283.10 859.40 L 281.90 857.30 L 280.20 852.70 L 279.70 847.70 L 280.50 843.00 L 281.40 840.90 L 282.70 839.00 L 284.50 837.30 Z" fill="#7d505f" fill-rule="nonzero" node-id="133" stroke="none" target-height="30.799988" target-width="24.699982" target-x="279.7" target-y="834"></path><path d="M 712.70 847.00 L 719.10 844.20 L 723.00 843.70 L 724.30 844.10 L 725.10 844.70 L 726.00 846.90 L 725.40 850.60 L 724.40 853.00 L 723.00 855.10 L 720.20 857.70 L 717.90 858.20 L 716.80 857.90 L 715.80 857.10 L 714.70 855.50 L 713.30 851.00 L 712.70 847.00 Z" fill="#6c3e4c" fill-rule="nonzero" node-id="135" stroke="none" target-height="14.5" target-width="13.299988" target-x="712.7" target-y="843.7"></path></svg>