<?xml version="1.0" standalone="no"?><!DOCTYPE svg PUBLIC "-//W3C//DTD SVG 1.1//EN" "http://www.w3.org/Graphics/SVG/1.1/DTD/svg11.dtd"><svg height="1024" node-id="1" sillyvg="true" template-height="1024" template-width="1024" version="1.1" viewBox="0 0 1024 1024" width="1024" xmlns="http://www.w3.org/2000/svg" xmlns:xlink="http://www.w3.org/1999/xlink"><defs node-id="25"></defs><path d="M 0.00 0.00 L 1024.00 0.00 L 1024.00 1024.00 L 0.00 1024.00 Z" fill="#ffffff" fill-rule="nonzero" node-id="27" stroke="none" target-height="1024" target-width="1024" target-x="0" target-y="0"></path><path d="M 286.70 169.50 L 291.80 167.20 L 297.10 165.30 L 302.40 163.80 L 308.00 162.70 L 315.40 161.80 L 322.90 161.60 L 330.60 162.00 L 338.10 163.00 L 345.70 164.60 L 353.10 166.70 L 360.40 169.30 L 367.40 172.30 L 374.20 175.90 L 380.70 179.80 L 386.80 184.10 L 392.50 188.80 L 381.80 185.90 L 349.90 175.70 L 342.80 173.70 L 328.40 170.70 L 321.10 169.80 L 313.70 169.40 L 306.20 169.60 L 286.70 169.50 Z" fill="#f0eedb" fill-rule="nonzero" node-id="29" stroke="none" target-height="27.199997" target-width="105.79999" target-x="286.7" target-y="161.6"></path><path d="M 392.80 386.80 L 398.30 385.50 L 403.80 384.80 L 409.20 384.60 L 414.60 384.90 L 419.90 385.70 L 425.20 386.90 L 430.40 388.60 L 435.50 390.70 L 445.10 395.90 L 454.20 402.60 L 459.70 407.60 L 464.80 413.10 L 469.50 419.10 L 473.60 425.30 L 477.20 431.90 L 480.20 438.60 L 482.00 443.90 L 483.40 449.20 L 484.50 454.50 L 485.10 459.80 L 485.30 465.20 L 485.00 470.60 L 484.20 475.90 L 483.00 481.10 L 481.20 486.20 L 479.00 491.20 L 476.10 496.20 L 472.60 501.00 L 468.90 505.60 L 464.90 509.60 L 460.70 513.10 L 456.10 516.20 L 451.30 518.90 L 446.20 521.20 L 441.10 523.00 L 435.70 524.40 L 430.20 525.30 L 424.70 525.90 L 419.10 526.00 L 413.50 525.80 L 407.90 525.10 L 402.40 524.00 L 397.10 522.60 L 391.70 520.70 L 386.60 518.50 L 381.60 515.90 L 376.90 513.00 L 372.40 509.60 L 368.20 505.90 L 364.40 501.90 L 360.90 497.50 L 354.80 488.10 L 352.20 483.30 L 350.00 478.40 L 348.30 473.30 L 347.00 468.00 L 346.10 462.70 L 345.60 457.30 L 345.50 451.90 L 345.80 446.50 L 347.50 435.80 L 350.80 425.50 L 352.90 420.60 L 358.30 411.40 L 361.50 407.10 L 365.00 403.10 L 368.80 399.50 L 373.00 396.10 L 377.40 393.20 L 382.20 390.60 L 387.30 388.50 L 392.80 386.80 Z M 383.30 404.00 L 378.80 407.10 L 374.80 410.50 L 371.30 414.10 L 368.20 418.00 L 365.60 422.30 L 363.30 426.60 L 361.50 431.20 L 360.10 435.90 L 359.10 440.80 L 358.30 450.70 L 358.40 455.80 L 359.90 465.80 L 362.70 475.50 L 364.70 480.20 L 369.50 489.00 L 375.70 497.00 L 379.20 500.60 L 383.00 503.80 L 387.10 506.70 L 391.40 509.20 L 396.00 511.30 L 400.90 513.00 L 410.50 515.40 L 414.90 516.20 L 419.40 516.50 L 423.80 516.40 L 432.60 515.20 L 441.10 512.40 L 446.50 509.90 L 451.60 506.90 L 456.40 503.30 L 460.70 499.30 L 464.60 494.90 L 467.90 490.10 L 470.00 486.30 L 471.70 482.40 L 473.00 478.30 L 473.90 474.00 L 474.40 469.70 L 474.40 465.30 L 473.90 460.70 L 471.60 450.80 L 469.80 445.50 L 467.50 440.00 L 461.80 429.60 L 454.60 419.70 L 450.60 415.10 L 446.30 410.90 L 441.60 407.00 L 436.90 403.60 L 431.90 400.60 L 426.80 398.20 L 421.50 396.30 L 416.20 395.10 L 412.10 394.60 L 408.00 394.60 L 403.90 395.00 L 399.70 395.80 L 395.70 397.00 L 391.70 398.80 L 387.50 401.10 L 383.30 404.00 Z" fill="#37384d" fill-rule="nonzero" node-id="31" stroke="none" target-height="141.4" target-width="139.79999" target-x="345.5" target-y="384.6"></path><path d="M 603.30 387.80 L 608.90 385.20 L 614.30 383.30 L 619.70 382.00 L 625.00 381.30 L 630.40 381.20 L 635.70 381.60 L 640.90 382.50 L 646.00 383.90 L 650.90 385.70 L 655.70 388.00 L 660.40 390.60 L 664.80 393.70 L 673.00 400.80 L 680.10 409.10 L 683.20 413.70 L 686.00 418.40 L 688.40 423.30 L 690.40 428.40 L 692.00 433.70 L 693.20 439.00 L 693.90 444.30 L 694.20 449.80 L 694.00 455.30 L 693.30 460.70 L 692.00 466.10 L 688.50 477.10 L 686.50 482.40 L 684.10 487.30 L 681.20 492.00 L 678.00 496.50 L 674.50 500.60 L 670.60 504.50 L 666.40 508.10 L 662.00 511.30 L 652.60 516.90 L 647.60 519.20 L 637.20 522.70 L 626.40 524.70 L 621.00 525.20 L 615.60 525.30 L 604.80 524.20 L 599.50 523.10 L 594.40 521.50 L 589.40 519.50 L 584.50 517.00 L 579.90 514.20 L 575.50 510.80 L 571.30 507.00 L 567.40 502.60 L 563.50 497.70 L 560.40 492.70 L 557.80 487.50 L 555.80 482.20 L 554.30 476.80 L 553.30 471.30 L 552.90 465.70 L 552.90 460.00 L 553.40 454.40 L 554.30 448.80 L 555.60 443.30 L 557.40 437.70 L 559.50 432.40 L 564.90 422.00 L 568.10 417.10 L 571.60 412.40 L 579.50 403.80 L 583.80 399.90 L 588.40 396.30 L 593.20 393.10 L 598.20 390.30 L 603.30 387.80 Z M 612.10 395.50 L 606.40 398.50 L 600.80 402.00 L 595.40 406.10 L 590.40 410.50 L 585.60 415.40 L 581.20 420.60 L 577.20 426.20 L 573.70 432.00 L 570.70 438.00 L 568.80 442.70 L 567.20 447.40 L 565.30 456.90 L 564.90 461.80 L 564.90 466.60 L 565.40 471.40 L 566.30 476.20 L 567.70 480.90 L 569.60 485.50 L 572.10 490.00 L 575.20 494.60 L 578.60 498.70 L 582.30 502.20 L 586.10 505.30 L 590.20 507.90 L 594.50 510.10 L 599.00 511.80 L 603.60 513.10 L 608.40 514.00 L 618.00 514.70 L 627.80 513.80 L 634.30 512.40 L 640.50 510.40 L 646.60 507.80 L 651.00 505.40 L 659.10 499.90 L 666.30 493.20 L 669.50 489.50 L 672.20 485.50 L 674.70 481.20 L 676.70 476.80 L 678.30 472.10 L 679.50 467.30 L 681.20 457.30 L 681.60 452.60 L 681.70 447.80 L 681.20 443.00 L 680.30 438.20 L 677.40 429.00 L 675.30 424.50 L 670.20 416.10 L 664.00 408.50 L 660.50 405.10 L 652.80 399.40 L 648.70 397.10 L 644.40 395.10 L 640.00 393.60 L 635.60 392.60 L 630.90 392.00 L 626.30 392.00 L 621.70 392.60 L 616.90 393.70 L 612.10 395.50 Z" fill="#37384d" fill-rule="nonzero" node-id="33" stroke="none" target-height="144.09998" target-width="141.29999" target-x="552.9" target-y="381.2"></path><path d="M 613.90 249.50 L 618.20 241.70 L 623.10 234.30 L 628.30 227.30 L 634.00 220.70 L 640.10 214.50 L 646.50 208.70 L 653.30 203.30 L 660.40 198.30 L 667.80 193.70 L 675.40 189.60 L 683.30 185.90 L 691.40 182.60 L 699.70 179.80 L 708.10 177.40 L 716.60 175.50 L 725.30 173.90 L 734.00 172.90 L 742.80 172.30 L 751.50 172.20 L 760.30 172.50 L 742.50 183.10 L 724.30 193.10 L 711.80 192.70 L 701.50 193.90 L 694.80 195.40 L 688.30 197.50 L 682.00 200.10 L 675.80 203.10 L 663.70 210.20 L 655.00 216.30 L 646.50 222.80 L 613.90 249.50 Z" fill="#ffdbc2" fill-rule="nonzero" node-id="35" stroke="none" target-height="77.3" target-width="146.39996" target-x="613.9" target-y="172.2"></path><path d="M 628.10 644.20 L 642.60 611.40 L 658.40 630.80 L 649.60 636.90 L 658.50 647.30 L 640.00 659.60 L 635.60 660.80 L 628.10 644.20 Z" fill="#ffdbc2" fill-rule="nonzero" node-id="37" stroke="none" target-height="49.399963" target-width="30.400024" target-x="628.1" target-y="611.4"></path><path d="M 306.20 169.60 L 313.70 169.40 L 321.10 169.80 L 328.40 170.70 L 335.60 172.00 L 349.90 175.70 L 381.80 185.90 L 396.90 190.00 L 402.40 197.10 L 407.40 204.40 L 411.90 211.90 L 419.70 227.60 L 427.90 248.10 L 440.40 285.90 L 453.20 282.90 L 466.00 280.50 L 478.90 278.50 L 491.90 277.10 L 504.90 276.20 L 517.90 275.90 L 530.90 276.00 L 543.90 276.70 L 556.90 277.90 L 569.80 279.60 L 582.70 281.80 L 595.60 284.60 L 603.60 266.40 L 606.50 260.40 L 611.10 253.00 L 613.90 249.50 L 646.50 222.80 L 655.00 216.30 L 663.70 210.20 L 669.70 206.40 L 682.00 200.10 L 688.30 197.50 L 694.80 195.40 L 701.50 193.90 L 706.60 193.10 L 717.20 192.70 L 722.70 193.10 L 697.00 219.40 L 688.70 228.70 L 683.40 235.10 L 678.50 241.70 L 674.00 248.50 L 668.30 259.10 L 664.00 270.30 L 662.50 276.10 L 661.50 282.10 L 661.00 288.30 L 661.00 294.90 L 662.40 302.10 L 664.30 309.10 L 666.70 315.70 L 672.80 328.60 L 676.40 334.70 L 682.30 343.70 L 688.60 352.50 L 715.20 387.00 L 723.20 399.00 L 731.20 412.40 L 735.20 419.90 L 738.80 427.40 L 741.90 435.20 L 744.70 443.00 L 749.10 459.10 L 750.80 467.30 L 752.60 478.40 L 753.90 489.50 L 754.70 500.70 L 755.10 511.90 L 754.90 534.20 L 786.70 557.10 L 804.70 569.40 L 819.70 578.20 L 827.50 582.00 L 835.50 585.40 L 843.80 588.30 L 853.10 589.80 L 862.40 590.80 L 871.80 591.40 L 900.10 592.30 L 918.90 593.60 L 916.20 597.60 L 913.20 601.10 L 909.90 604.20 L 902.40 609.60 L 892.10 615.00 L 872.90 623.60 L 888.00 639.10 L 895.30 647.10 L 902.10 655.60 L 906.30 661.40 L 914.00 673.70 L 884.10 662.90 L 854.50 651.50 L 856.20 679.60 L 857.20 708.10 L 849.20 696.50 L 841.60 684.50 L 819.60 647.60 L 812.10 635.50 L 806.80 627.60 L 795.70 612.30 L 789.70 605.10 L 783.40 598.20 L 776.60 591.60 L 765.80 582.50 L 753.70 574.30 L 751.20 587.00 L 748.20 599.50 L 744.70 611.70 L 740.70 623.70 L 736.20 635.60 L 731.30 647.30 L 725.90 658.70 L 720.00 670.00 L 713.80 681.00 L 707.10 691.80 L 700.10 702.40 L 692.70 712.80 L 685.00 723.00 L 668.70 742.60 L 660.10 752.10 L 636.90 754.60 L 625.50 755.30 L 614.20 755.40 L 606.80 755.10 L 599.30 754.20 L 592.00 752.90 L 581.20 749.80 L 570.60 745.10 L 571.10 727.10 L 568.80 719.20 L 553.40 714.00 L 538.10 709.30 L 554.80 690.10 L 527.70 689.00 L 514.20 688.00 L 491.90 685.40 L 474.10 682.10 L 493.20 683.20 L 512.40 683.90 L 525.20 684.00 L 538.00 683.70 L 550.80 682.90 L 563.50 681.70 L 576.10 680.00 L 588.70 677.60 L 599.10 674.50 L 619.70 667.30 L 635.60 660.80 L 640.00 659.60 L 658.50 647.30 L 658.00 646.60 L 659.60 648.40 L 673.50 637.10 L 680.00 630.90 L 686.10 624.20 L 689.80 619.50 L 693.20 614.60 L 696.20 609.60 L 698.80 604.20 L 700.90 598.70 L 702.50 592.90 L 703.30 586.70 L 703.70 580.60 L 703.50 574.50 L 702.70 565.40 L 698.50 538.20 L 683.10 543.90 L 637.40 562.70 L 622.10 568.70 L 606.70 574.00 L 596.20 577.10 L 585.60 579.80 L 574.80 582.00 L 562.90 584.10 L 551.00 585.80 L 539.00 587.00 L 526.90 587.80 L 514.80 588.00 L 502.80 587.80 L 490.70 587.20 L 478.70 586.10 L 466.70 584.60 L 454.80 582.70 L 442.90 580.40 L 431.20 577.70 L 422.00 575.10 L 412.90 572.20 L 404.10 569.00 L 390.90 563.60 L 352.10 546.10 L 338.90 540.60 L 325.60 535.60 L 323.90 547.30 L 322.80 559.10 L 322.20 570.80 L 322.20 582.60 L 322.80 594.50 L 321.50 597.70 L 320.00 600.20 L 318.40 602.10 L 316.80 603.60 L 314.20 605.00 L 311.40 605.90 L 308.40 606.10 L 305.40 605.90 L 298.80 604.50 L 284.00 599.00 L 277.20 596.80 L 274.90 596.60 L 272.60 596.80 L 269.20 597.90 L 265.90 599.60 L 256.30 606.20 L 253.40 607.90 L 244.00 614.70 L 235.00 621.80 L 226.40 629.30 L 218.10 637.20 L 210.10 645.40 L 195.00 662.60 L 187.80 671.60 L 178.50 683.80 L 169.60 696.30 L 161.10 708.90 L 164.20 683.30 L 167.70 657.70 L 144.70 664.30 L 133.20 667.10 L 113.70 670.70 L 97.80 672.20 L 101.90 667.60 L 110.80 659.00 L 117.90 653.10 L 139.80 636.10 L 146.80 630.10 L 153.50 623.70 L 133.30 615.20 L 122.40 609.90 L 114.60 604.40 L 111.20 601.20 L 108.20 597.40 L 105.60 593.10 L 116.60 592.50 L 150.60 592.10 L 161.90 591.70 L 173.10 590.80 L 180.40 589.80 L 187.70 588.30 L 194.90 586.40 L 200.10 584.70 L 210.40 580.10 L 215.40 577.20 L 225.80 570.70 L 236.00 563.90 L 253.30 551.10 L 260.40 545.20 L 273.70 532.60 L 274.00 521.10 L 274.80 509.70 L 276.00 498.20 L 277.60 486.80 L 279.70 475.40 L 282.20 464.20 L 285.20 453.20 L 288.70 442.30 L 292.80 431.60 L 297.40 421.10 L 302.50 411.00 L 308.20 401.10 L 313.20 393.40 L 318.50 386.00 L 324.30 378.80 L 330.40 371.90 L 349.20 353.10 L 355.10 346.60 L 360.60 339.70 L 365.70 332.60 L 370.40 325.20 L 373.60 319.50 L 378.90 307.70 L 381.00 301.70 L 382.70 295.50 L 384.00 289.30 L 384.70 283.00 L 385.00 276.70 L 384.80 270.30 L 383.90 263.90 L 382.50 257.30 L 379.00 244.80 L 377.20 239.30 L 375.10 234.10 L 372.60 229.10 L 368.70 222.80 L 364.40 216.80 L 359.60 211.10 L 348.90 200.70 L 334.10 188.90 L 306.20 169.60 Z M 392.80 386.80 L 387.30 388.50 L 382.20 390.60 L 377.40 393.20 L 373.00 396.10 L 368.80 399.50 L 365.00 403.10 L 361.50 407.10 L 358.30 411.40 L 352.90 420.60 L 349.00 430.60 L 347.50 435.80 L 345.80 446.50 L 345.60 457.30 L 346.10 462.70 L 347.00 468.00 L 348.30 473.30 L 350.00 478.40 L 352.20 483.30 L 354.80 488.10 L 360.90 497.50 L 364.40 501.90 L 368.20 505.90 L 372.40 509.60 L 376.90 513.00 L 381.60 515.90 L 386.60 518.50 L 391.70 520.70 L 397.10 522.60 L 402.40 524.00 L 407.90 525.10 L 413.50 525.80 L 419.10 526.00 L 424.70 525.90 L 430.20 525.30 L 435.70 524.40 L 441.10 523.00 L 446.20 521.20 L 451.30 518.90 L 456.10 516.20 L 460.70 513.10 L 464.90 509.60 L 468.90 505.60 L 476.10 496.20 L 479.00 491.20 L 481.20 486.20 L 483.00 481.10 L 484.20 475.90 L 485.00 470.60 L 485.30 465.20 L 485.10 459.80 L 484.50 454.50 L 483.40 449.20 L 482.00 443.90 L 480.20 438.60 L 477.20 431.90 L 473.60 425.30 L 469.50 419.10 L 464.80 413.10 L 459.70 407.60 L 454.20 402.60 L 445.10 395.90 L 435.50 390.70 L 430.40 388.60 L 425.20 386.90 L 419.90 385.70 L 414.60 384.90 L 409.20 384.60 L 403.80 384.80 L 398.30 385.50 L 392.80 386.80 Z M 603.30 387.80 L 598.20 390.30 L 593.20 393.10 L 588.40 396.30 L 579.50 403.80 L 571.60 412.40 L 568.10 417.10 L 564.90 422.00 L 559.50 432.40 L 557.40 437.70 L 555.60 443.30 L 554.30 448.80 L 553.40 454.40 L 552.90 460.00 L 552.90 465.70 L 553.30 471.30 L 554.30 476.80 L 555.80 482.20 L 557.80 487.50 L 560.40 492.70 L 563.50 497.70 L 567.40 502.60 L 571.30 507.00 L 575.50 510.80 L 579.90 514.20 L 584.50 517.00 L 589.40 519.50 L 594.40 521.50 L 599.50 523.10 L 604.80 524.20 L 615.60 525.30 L 621.00 525.20 L 626.40 524.70 L 637.20 522.70 L 647.60 519.20 L 652.60 516.90 L 662.00 511.30 L 666.50 508.10 L 670.60 504.50 L 674.50 500.60 L 678.00 496.50 L 681.20 492.00 L 684.10 487.30 L 686.50 482.40 L 688.50 477.10 L 692.00 466.10 L 693.30 460.70 L 694.00 455.30 L 694.20 449.80 L 693.90 444.30 L 693.20 439.00 L 692.00 433.70 L 690.40 428.40 L 688.40 423.30 L 686.00 418.40 L 683.20 413.70 L 680.10 409.10 L 673.00 400.80 L 669.10 397.10 L 664.80 393.70 L 660.40 390.60 L 655.70 388.00 L 650.90 385.70 L 646.00 383.90 L 640.90 382.50 L 635.70 381.60 L 630.40 381.20 L 625.00 381.30 L 619.70 382.00 L 614.30 383.30 L 608.90 385.20 L 603.30 387.80 Z M 503.00 530.90 L 502.20 560.70 L 513.60 558.10 L 528.40 557.90 L 541.10 561.20 L 541.80 557.40 L 542.00 550.50 L 541.60 547.30 L 540.50 543.10 L 538.80 539.30 L 536.70 535.90 L 534.10 532.90 L 531.10 530.50 L 527.70 528.50 L 525.00 527.50 L 519.20 526.40 L 516.10 526.40 L 513.00 526.80 L 509.80 527.70 L 506.50 529.00 L 503.00 530.90 Z" fill="#f7b243" fill-rule="nonzero" node-id="39" stroke="none" target-height="586" target-width="821.10004" target-x="97.8" target-y="169.4"></path><path d="M 392.50 576.90 L 395.90 577.40 L 399.10 578.40 L 402.00 580.00 L 404.70 582.00 L 407.00 584.30 L 410.90 589.80 L 413.40 595.90 L 414.10 599.10 L 414.30 605.10 L 413.80 608.00 L 412.90 610.50 L 411.50 612.70 L 410.20 614.10 L 406.80 616.20 L 402.40 617.20 L 396.70 616.70 L 393.00 615.80 L 400.90 648.90 L 385.20 639.00 L 375.30 631.80 L 370.80 627.70 L 370.10 625.00 L 370.00 622.80 L 370.40 620.90 L 371.20 619.20 L 373.90 616.30 L 376.60 614.50 L 389.30 608.10 L 391.80 606.30 L 393.20 604.80 L 394.10 603.10 L 394.70 601.30 L 394.80 599.30 L 394.40 596.90 L 393.40 594.00 L 392.50 576.90 Z" fill="#f15a5e" fill-rule="nonzero" node-id="41" stroke="none" target-height="72" target-width="44.299988" target-x="370" target-y="576.9"></path><path d="M 259.20 165.70 L 265.50 162.20 L 272.00 159.20 L 278.70 156.50 L 285.70 154.30 L 292.80 152.40 L 300.00 151.00 L 307.30 149.90 L 314.70 149.20 L 322.20 149.00 L 329.60 149.20 L 337.00 149.70 L 344.40 150.70 L 351.80 152.10 L 359.00 153.80 L 366.00 156.00 L 373.00 158.60 L 379.70 161.60 L 386.20 165.00 L 392.50 168.70 L 398.50 172.90 L 404.20 177.50 L 409.60 182.50 L 414.50 188.00 L 423.40 199.50 L 427.20 205.40 L 430.50 211.50 L 436.30 224.20 L 438.80 230.80 L 442.10 240.80 L 445.00 251.00 L 450.10 271.40 L 465.40 268.80 L 480.80 266.80 L 496.30 265.30 L 508.00 264.60 L 519.60 264.40 L 531.20 264.60 L 542.80 265.20 L 554.40 266.40 L 565.90 268.10 L 577.30 270.30 L 588.60 273.20 L 592.60 263.40 L 596.90 253.80 L 601.80 244.30 L 607.10 235.20 L 612.80 226.30 L 619.10 217.80 L 624.10 211.70 L 629.40 205.90 L 635.00 200.40 L 640.80 195.10 L 647.00 190.20 L 653.40 185.70 L 660.20 181.50 L 667.30 177.70 L 680.20 171.50 L 693.50 166.80 L 702.60 164.30 L 711.80 162.30 L 721.10 160.80 L 739.90 158.80 L 749.50 158.30 L 763.80 158.00 L 806.30 158.30 L 813.10 167.80 L 798.10 172.60 L 773.10 181.70 L 753.80 190.40 L 744.50 195.30 L 735.50 200.70 L 726.90 206.70 L 720.70 211.50 L 714.80 216.70 L 709.10 222.30 L 703.70 228.30 L 698.30 235.40 L 689.80 248.20 L 684.10 259.10 L 681.70 264.80 L 679.70 270.60 L 678.10 276.40 L 677.00 282.40 L 676.40 288.30 L 676.40 294.30 L 677.40 303.30 L 679.90 312.30 L 686.90 326.00 L 690.90 332.60 L 697.20 342.20 L 704.00 351.60 L 725.10 379.30 L 731.90 388.60 L 738.30 398.20 L 744.20 408.10 L 747.70 414.90 L 750.90 422.00 L 756.50 437.00 L 758.80 444.70 L 760.70 452.50 L 762.20 460.40 L 764.20 476.40 L 765.00 488.40 L 766.10 524.80 L 798.40 550.00 L 816.80 563.30 L 832.40 572.80 L 839.90 576.10 L 847.60 578.80 L 855.30 580.90 L 863.10 582.50 L 871.10 583.70 L 879.10 584.50 L 891.20 585.20 L 940.00 585.50 L 952.00 586.10 L 946.50 592.80 L 940.70 599.10 L 934.60 605.00 L 928.10 610.60 L 921.30 615.70 L 914.10 620.30 L 906.70 624.60 L 898.80 628.40 L 913.40 648.00 L 920.20 658.20 L 926.40 668.70 L 930.20 675.90 L 933.60 683.40 L 936.70 691.00 L 928.00 690.20 L 919.50 688.90 L 911.10 687.20 L 902.80 685.00 L 886.60 679.50 L 870.80 672.60 L 871.40 685.20 L 871.50 697.90 L 870.50 714.80 L 869.40 723.20 L 868.00 731.50 L 866.10 739.80 L 863.80 748.00 L 859.60 744.60 L 855.90 740.90 L 852.70 737.00 L 847.00 728.40 L 841.20 716.80 L 834.90 702.50 L 824.80 681.30 L 817.50 667.40 L 809.60 653.80 L 801.10 640.50 L 793.90 630.20 L 786.40 620.10 L 778.50 610.30 L 770.30 600.80 L 761.70 591.60 L 759.40 603.30 L 756.60 614.70 L 753.30 626.00 L 749.60 637.10 L 745.30 648.10 L 740.60 658.80 L 735.50 669.30 L 730.00 679.70 L 724.00 689.80 L 717.70 699.70 L 711.00 709.30 L 703.90 718.80 L 696.50 727.90 L 688.80 736.80 L 680.80 745.50 L 672.60 753.80 L 671.00 809.70 L 684.50 808.00 L 698.20 807.70 L 711.80 809.10 L 718.50 810.30 L 725.10 812.00 L 731.60 814.00 L 737.90 816.40 L 744.10 819.30 L 750.10 822.50 L 755.80 826.20 L 761.30 830.20 L 766.50 834.70 L 771.50 839.60 L 768.60 844.10 L 765.40 848.20 L 761.90 851.90 L 758.10 855.20 L 749.80 861.00 L 740.50 865.70 L 734.00 868.20 L 727.30 870.20 L 720.30 871.90 L 706.20 874.00 L 699.10 874.50 L 688.60 874.80 L 678.60 874.50 L 670.40 875.00 L 662.20 875.00 L 654.10 874.40 L 642.10 872.30 L 630.50 868.90 L 624.90 866.70 L 619.40 864.00 L 614.10 861.00 L 608.90 857.50 L 607.40 849.90 L 605.60 834.50 L 604.80 822.90 L 603.70 788.20 L 586.90 790.10 L 570.20 791.50 L 553.40 792.40 L 536.70 792.80 L 519.90 792.60 L 503.10 792.00 L 486.40 790.70 L 469.80 788.80 L 453.20 786.40 L 436.60 783.40 L 434.80 801.00 L 432.40 836.30 L 431.30 845.10 L 429.70 853.80 L 422.80 859.20 L 401.50 874.50 L 365.50 875.20 L 345.10 874.60 L 329.20 872.90 L 321.40 871.50 L 313.70 869.70 L 306.30 867.40 L 295.40 863.10 L 285.20 857.30 L 280.30 854.00 L 275.70 850.20 L 271.10 845.90 L 266.70 841.20 L 271.40 836.10 L 276.20 831.50 L 281.40 827.30 L 286.80 823.70 L 292.40 820.40 L 298.30 817.50 L 304.30 815.00 L 310.60 812.80 L 319.10 810.40 L 327.70 808.40 L 336.50 806.90 L 349.80 805.30 L 363.00 804.40 L 362.50 799.10 L 362.90 776.60 L 362.60 771.20 L 361.30 764.20 L 360.10 760.90 L 358.50 757.90 L 356.40 755.00 L 343.90 742.40 L 334.60 732.20 L 325.50 721.50 L 319.10 713.30 L 307.10 696.20 L 301.60 687.40 L 296.40 678.30 L 291.60 669.10 L 287.20 659.70 L 283.20 650.10 L 279.60 640.40 L 276.50 630.40 L 273.90 620.30 L 271.70 610.00 L 261.70 617.10 L 252.00 624.60 L 242.50 632.40 L 233.30 640.50 L 224.40 649.00 L 215.90 657.90 L 207.80 667.10 L 200.10 676.70 L 187.10 694.40 L 170.80 718.80 L 165.10 726.80 L 158.90 734.30 L 154.50 739.10 L 149.80 743.50 L 144.70 747.70 L 144.10 736.10 L 144.10 724.50 L 144.50 713.00 L 146.40 690.00 L 147.90 678.50 L 119.50 684.30 L 109.90 685.60 L 103.50 686.10 L 97.10 686.20 L 90.80 685.90 L 84.50 685.10 L 78.30 683.70 L 72.00 681.70 L 80.10 672.20 L 88.60 663.10 L 97.40 654.30 L 124.60 628.50 L 99.80 607.60 L 93.90 602.10 L 88.40 596.40 L 84.90 592.30 L 78.80 583.40 L 123.80 584.60 L 148.80 584.30 L 168.80 582.80 L 176.90 581.20 L 184.60 579.00 L 192.10 576.20 L 199.40 572.90 L 206.50 569.20 L 213.40 565.00 L 223.50 558.30 L 233.30 551.00 L 256.90 531.80 L 258.60 529.60 L 261.20 524.70 L 262.80 517.80 L 265.40 485.40 L 266.80 474.90 L 268.80 464.50 L 271.30 454.30 L 274.40 444.20 L 277.90 434.30 L 282.00 424.60 L 286.50 415.00 L 291.50 405.70 L 296.90 396.60 L 302.70 387.70 L 308.80 379.10 L 315.40 370.70 L 322.20 362.70 L 329.30 354.90 L 341.40 342.90 L 349.60 333.10 L 356.60 322.40 L 359.60 316.80 L 362.20 311.10 L 364.40 305.20 L 366.30 299.10 L 367.60 293.00 L 368.50 286.80 L 369.00 280.40 L 369.00 274.10 L 368.50 267.80 L 367.40 261.50 L 363.80 247.70 L 361.20 240.70 L 358.10 234.20 L 354.50 228.00 L 350.50 222.10 L 346.10 216.50 L 341.30 211.20 L 336.10 206.10 L 324.90 197.00 L 312.60 188.90 L 304.00 184.10 L 295.30 179.60 L 286.30 175.60 L 277.10 172.00 L 259.20 165.70 Z M 286.70 169.50 L 306.20 169.60 L 334.10 188.90 L 348.90 200.70 L 359.60 211.10 L 364.40 216.80 L 368.70 222.80 L 372.60 229.10 L 375.10 234.10 L 377.20 239.30 L 382.50 257.30 L 383.90 263.90 L 384.80 270.30 L 385.00 276.70 L 384.70 283.00 L 384.00 289.30 L 382.70 295.50 L 381.00 301.70 L 378.90 307.70 L 373.60 319.50 L 370.40 325.20 L 365.70 332.60 L 360.60 339.70 L 355.10 346.60 L 349.20 353.10 L 330.40 371.90 L 324.30 378.80 L 318.50 386.00 L 313.20 393.40 L 308.20 401.10 L 302.50 411.00 L 297.40 421.10 L 292.80 431.60 L 288.70 442.30 L 285.20 453.20 L 282.20 464.20 L 279.70 475.40 L 277.60 486.80 L 276.00 498.20 L 274.80 509.70 L 274.00 521.10 L 273.70 532.60 L 260.40 545.20 L 253.30 551.10 L 236.00 563.90 L 225.80 570.70 L 215.40 577.20 L 210.40 580.10 L 200.10 584.70 L 194.90 586.40 L 187.70 588.30 L 180.40 589.80 L 173.10 590.80 L 161.90 591.70 L 150.60 592.10 L 116.60 592.50 L 105.60 593.10 L 108.20 597.40 L 111.20 601.20 L 114.60 604.40 L 122.40 609.90 L 133.30 615.20 L 153.50 623.70 L 146.80 630.10 L 139.80 636.10 L 117.90 653.10 L 110.80 659.00 L 101.90 667.60 L 97.80 672.20 L 113.70 670.70 L 133.20 667.10 L 144.70 664.30 L 167.70 657.70 L 164.20 683.30 L 161.10 708.90 L 169.60 696.30 L 178.50 683.80 L 187.80 671.60 L 202.40 653.90 L 218.10 637.20 L 226.40 629.30 L 235.00 621.80 L 244.00 614.70 L 253.40 607.90 L 256.30 606.20 L 265.90 599.60 L 269.20 597.90 L 272.60 596.80 L 274.90 596.60 L 277.20 596.80 L 279.70 597.60 L 282.10 608.30 L 285.00 618.90 L 288.40 629.20 L 292.20 639.50 L 296.40 649.50 L 301.00 659.40 L 306.00 669.10 L 311.40 678.50 L 317.20 687.80 L 323.30 696.90 L 329.80 705.70 L 336.60 714.20 L 343.70 722.50 L 351.20 730.50 L 362.40 741.70 L 365.20 745.20 L 367.50 749.00 L 369.40 752.90 L 370.80 757.00 L 371.90 761.30 L 373.00 767.90 L 373.60 774.80 L 374.00 802.90 L 374.40 809.80 L 375.40 816.30 L 359.00 816.60 L 350.80 817.10 L 342.70 818.20 L 337.40 819.30 L 332.30 820.90 L 327.40 822.80 L 320.40 826.70 L 313.80 832.10 L 325.10 853.20 L 348.70 855.00 L 372.30 855.30 L 384.10 854.80 L 395.90 854.00 L 407.60 852.70 L 419.40 851.00 L 420.20 830.70 L 421.50 810.50 L 422.80 797.00 L 424.50 783.60 L 426.60 770.30 L 450.00 773.70 L 473.40 776.60 L 489.10 778.30 L 504.80 779.40 L 520.50 780.20 L 536.20 780.50 L 551.80 780.20 L 567.50 779.30 L 579.20 778.20 L 590.90 776.70 L 602.60 774.70 L 614.30 772.20 L 617.40 851.50 L 646.70 854.20 L 661.50 855.20 L 676.30 855.80 L 686.10 855.70 L 695.90 855.20 L 705.80 854.20 L 708.90 852.90 L 711.40 851.40 L 713.50 849.60 L 715.40 847.60 L 718.10 842.90 L 719.50 839.00 L 720.50 834.80 L 721.60 826.20 L 705.90 822.10 L 690.00 819.50 L 679.30 818.60 L 668.60 818.20 L 657.80 818.30 L 659.00 801.70 L 659.60 785.10 L 659.80 768.60 L 659.50 752.10 L 660.10 752.10 L 677.00 732.90 L 692.70 712.80 L 700.10 702.40 L 707.10 691.80 L 713.80 681.00 L 720.00 670.00 L 725.90 658.70 L 731.30 647.30 L 736.20 635.60 L 740.70 623.70 L 744.70 611.70 L 748.20 599.50 L 751.20 587.00 L 753.70 574.30 L 765.80 582.50 L 776.60 591.60 L 783.40 598.20 L 789.70 605.10 L 795.70 612.30 L 806.80 627.60 L 812.10 635.50 L 819.60 647.60 L 841.60 684.50 L 849.20 696.50 L 857.20 708.10 L 856.20 679.60 L 854.50 651.50 L 884.10 662.90 L 914.00 673.70 L 906.30 661.40 L 902.10 655.60 L 895.30 647.10 L 888.00 639.10 L 872.90 623.60 L 892.10 615.00 L 902.40 609.60 L 909.90 604.20 L 913.20 601.10 L 916.20 597.60 L 918.90 593.60 L 900.10 592.30 L 871.80 591.40 L 862.40 590.80 L 853.10 589.80 L 843.80 588.30 L 835.50 585.40 L 827.50 582.00 L 819.70 578.20 L 804.70 569.40 L 786.70 557.10 L 754.90 534.20 L 755.10 511.90 L 754.70 500.70 L 753.90 489.50 L 752.60 478.40 L 750.80 467.30 L 749.10 459.10 L 744.70 443.00 L 741.90 435.20 L 738.80 427.40 L 735.20 419.90 L 731.20 412.40 L 719.30 392.90 L 708.70 378.30 L 688.60 352.50 L 682.30 343.70 L 676.40 334.70 L 672.80 328.60 L 669.60 322.20 L 666.70 315.70 L 664.30 309.10 L 662.40 302.10 L 661.00 294.90 L 661.00 288.30 L 661.50 282.10 L 662.50 276.10 L 664.00 270.30 L 668.30 259.10 L 674.00 248.50 L 678.50 241.70 L 683.40 235.10 L 688.70 228.70 L 697.00 219.40 L 722.70 193.10 L 724.30 193.10 L 742.50 183.10 L 760.30 172.50 L 751.50 172.20 L 742.80 172.30 L 734.00 172.90 L 725.30 173.90 L 716.60 175.50 L 708.10 177.40 L 699.70 179.80 L 691.40 182.60 L 683.30 185.90 L 675.40 189.60 L 667.80 193.70 L 660.40 198.30 L 653.30 203.30 L 646.50 208.70 L 640.10 214.50 L 634.00 220.70 L 628.30 227.30 L 623.10 234.30 L 618.20 241.70 L 613.90 249.50 L 611.10 253.00 L 606.50 260.40 L 603.60 266.40 L 595.60 284.60 L 582.70 281.80 L 569.80 279.60 L 556.90 277.90 L 543.90 276.70 L 530.90 276.00 L 517.90 275.90 L 504.90 276.20 L 491.90 277.10 L 478.90 278.50 L 466.00 280.50 L 453.20 282.90 L 440.40 285.90 L 427.90 248.10 L 419.70 227.60 L 411.90 211.90 L 407.40 204.40 L 402.40 197.10 L 396.90 190.00 L 392.50 188.80 L 386.80 184.10 L 380.70 179.80 L 374.20 175.90 L 367.40 172.30 L 360.40 169.30 L 353.10 166.70 L 345.70 164.60 L 338.10 163.00 L 330.60 162.00 L 322.90 161.60 L 315.40 161.80 L 308.00 162.70 L 302.40 163.80 L 297.10 165.30 L 291.80 167.20 L 286.70 169.50 Z" fill="#2d4059" fill-rule="nonzero" node-id="43" stroke="none" target-height="726.2" target-width="880" target-x="72" target-y="149"></path><path d="M 612.10 395.50 L 616.90 393.70 L 621.70 392.60 L 626.30 392.00 L 630.90 392.10 L 635.60 392.60 L 640.00 393.60 L 644.40 395.10 L 648.70 397.10 L 656.70 402.10 L 660.50 405.10 L 667.30 412.20 L 672.90 420.20 L 675.30 424.50 L 679.00 433.60 L 681.20 443.00 L 681.70 447.80 L 681.60 452.60 L 681.20 457.40 L 679.50 467.30 L 678.30 472.20 L 676.70 476.80 L 674.70 481.20 L 672.20 485.50 L 669.50 489.50 L 666.30 493.20 L 659.10 499.90 L 651.00 505.40 L 646.60 507.80 L 640.50 510.40 L 634.30 512.40 L 627.80 513.80 L 622.90 514.40 L 618.00 514.70 L 608.40 514.00 L 603.60 513.10 L 599.00 511.80 L 594.50 510.10 L 590.20 507.90 L 586.10 505.30 L 582.30 502.30 L 578.60 498.70 L 575.20 494.60 L 572.10 490.00 L 569.60 485.50 L 567.70 480.90 L 566.30 476.20 L 565.40 471.40 L 564.90 466.60 L 564.90 461.80 L 565.30 456.90 L 567.20 447.40 L 568.80 442.70 L 570.70 438.00 L 573.70 432.00 L 577.20 426.20 L 581.20 420.60 L 585.60 415.40 L 590.40 410.50 L 595.40 406.10 L 600.80 402.00 L 606.40 398.50 L 612.10 395.50 Z M 602.40 447.20 L 600.20 449.80 L 598.50 452.30 L 597.30 454.90 L 596.60 457.40 L 596.30 460.10 L 596.80 465.30 L 597.60 467.90 L 599.20 471.20 L 601.10 474.20 L 603.60 477.00 L 606.50 479.40 L 609.50 481.40 L 612.90 482.90 L 616.40 483.90 L 619.90 484.20 L 623.50 483.90 L 626.20 483.20 L 628.70 482.10 L 631.30 480.50 L 633.90 478.30 L 636.70 475.30 L 638.60 472.30 L 639.90 469.30 L 640.70 466.10 L 640.90 463.00 L 640.60 460.00 L 639.80 457.00 L 638.60 454.10 L 636.90 451.40 L 634.90 448.90 L 630.10 444.70 L 627.40 443.10 L 624.40 441.80 L 621.40 441.00 L 618.20 440.60 L 615.00 440.80 L 611.70 441.50 L 608.60 442.70 L 605.50 444.60 L 602.40 447.20 Z" fill="#fef983" fill-rule="nonzero" node-id="45" stroke="none" target-height="122.70001" target-width="116.79999" target-x="564.9" target-y="392"></path><path d="M 383.30 404.00 L 387.50 401.10 L 391.70 398.80 L 395.70 397.00 L 399.70 395.80 L 403.90 395.00 L 408.00 394.60 L 412.10 394.60 L 416.20 395.10 L 421.50 396.30 L 426.80 398.20 L 431.90 400.60 L 436.90 403.60 L 441.60 407.00 L 446.30 410.90 L 450.60 415.10 L 454.60 419.70 L 461.80 429.60 L 467.50 440.00 L 469.80 445.50 L 471.60 450.80 L 473.90 460.70 L 474.40 465.30 L 474.40 469.70 L 473.90 474.00 L 473.00 478.30 L 471.70 482.40 L 470.00 486.30 L 467.90 490.10 L 464.60 494.90 L 460.70 499.30 L 456.40 503.30 L 451.60 506.90 L 446.50 509.90 L 441.10 512.40 L 432.60 515.20 L 423.80 516.40 L 419.40 516.50 L 414.90 516.20 L 410.50 515.40 L 400.90 513.00 L 396.00 511.30 L 391.40 509.20 L 387.10 506.70 L 383.00 503.80 L 379.20 500.60 L 375.70 497.00 L 369.50 489.00 L 364.70 480.20 L 362.70 475.50 L 359.90 465.80 L 358.40 455.80 L 358.30 450.70 L 359.10 440.80 L 360.10 435.90 L 361.50 431.20 L 363.30 426.60 L 365.60 422.30 L 368.20 418.00 L 371.30 414.10 L 374.80 410.50 L 378.80 407.10 L 383.30 404.00 Z M 400.70 448.00 L 398.70 451.30 L 397.30 454.30 L 396.50 457.30 L 396.10 460.10 L 396.10 463.10 L 396.50 465.90 L 398.40 471.10 L 400.30 474.20 L 402.70 477.00 L 405.50 479.50 L 408.70 481.50 L 412.00 483.00 L 415.50 484.00 L 418.30 484.40 L 423.70 484.00 L 426.50 483.30 L 429.00 482.20 L 431.50 480.60 L 434.00 478.50 L 436.30 475.90 L 438.30 472.80 L 439.60 469.90 L 440.50 467.20 L 440.90 464.60 L 440.90 461.90 L 439.90 456.90 L 438.90 454.60 L 437.10 451.70 L 434.90 449.10 L 432.10 446.90 L 429.10 445.00 L 425.90 443.60 L 422.30 442.50 L 418.70 442.00 L 415.00 442.00 L 411.30 442.60 L 408.50 443.40 L 403.30 446.10 L 400.70 448.00 Z" fill="#fef689" fill-rule="nonzero" node-id="47" stroke="none" target-height="121.899994" target-width="116.100006" target-x="358.3" target-y="394.6"></path><path d="M 400.70 448.00 L 403.30 446.10 L 408.50 443.40 L 411.30 442.60 L 415.00 442.00 L 418.70 442.00 L 422.30 442.50 L 425.90 443.60 L 429.10 445.00 L 432.10 446.90 L 434.90 449.10 L 437.10 451.70 L 438.90 454.60 L 440.60 459.30 L 440.90 464.60 L 440.50 467.20 L 439.60 469.90 L 438.30 472.80 L 436.30 475.90 L 434.00 478.50 L 431.50 480.60 L 429.00 482.20 L 426.50 483.30 L 423.70 484.00 L 418.30 484.40 L 415.50 484.00 L 412.00 483.00 L 408.70 481.50 L 405.50 479.50 L 402.70 477.00 L 400.30 474.20 L 398.40 471.10 L 396.50 465.90 L 396.10 460.10 L 396.50 457.30 L 397.30 454.30 L 398.70 451.30 L 400.70 448.00 Z" fill="#204562" fill-rule="nonzero" node-id="49" stroke="none" target-height="42.399994" target-width="44.799988" target-x="396.1" target-y="442"></path><path d="M 602.40 447.20 L 605.50 444.60 L 608.60 442.70 L 611.70 441.50 L 615.00 440.80 L 618.20 440.60 L 621.40 441.00 L 624.40 441.80 L 627.40 443.10 L 630.10 444.70 L 632.70 446.60 L 636.90 451.40 L 638.60 454.10 L 639.80 457.00 L 640.60 460.00 L 640.90 463.00 L 640.70 466.10 L 639.90 469.30 L 638.60 472.30 L 636.70 475.30 L 633.90 478.30 L 631.30 480.50 L 628.70 482.10 L 626.20 483.20 L 623.50 483.90 L 619.90 484.20 L 616.40 483.90 L 612.90 482.90 L 609.50 481.40 L 606.50 479.40 L 603.60 477.00 L 601.10 474.20 L 599.20 471.20 L 597.60 467.90 L 596.40 462.70 L 596.60 457.40 L 597.30 454.90 L 598.50 452.30 L 600.20 449.80 L 602.40 447.20 Z" fill="#25426e" fill-rule="nonzero" node-id="51" stroke="none" target-height="43.600006" target-width="44.5" target-x="596.4" target-y="440.6"></path><path d="M 503.00 530.90 L 506.50 529.00 L 509.80 527.70 L 513.00 526.80 L 516.10 526.40 L 519.20 526.40 L 525.00 527.50 L 527.70 528.50 L 531.10 530.50 L 534.10 532.90 L 536.70 535.90 L 538.80 539.30 L 540.50 543.10 L 541.60 547.30 L 542.10 553.90 L 541.10 561.20 L 528.40 557.90 L 529.90 554.50 L 530.60 551.60 L 530.80 549.30 L 530.50 547.00 L 529.80 545.20 L 528.70 543.70 L 525.70 541.50 L 523.90 540.90 L 520.10 540.60 L 516.40 541.60 L 514.80 542.60 L 513.40 543.90 L 512.30 545.40 L 511.60 547.30 L 511.30 549.60 L 511.40 552.00 L 512.10 554.80 L 513.60 558.10 L 502.20 560.70 L 503.00 530.90 Z" fill="#605641" fill-rule="nonzero" node-id="53" stroke="none" target-height="34.799988" target-width="39.899963" target-x="502.2" target-y="526.4"></path><path d="M 325.60 535.60 L 338.90 540.60 L 352.10 546.10 L 390.90 563.60 L 404.10 569.00 L 412.90 572.20 L 422.00 575.10 L 431.20 577.70 L 442.90 580.40 L 454.80 582.70 L 466.70 584.60 L 478.70 586.10 L 490.70 587.20 L 502.80 587.80 L 514.80 588.00 L 526.90 587.80 L 539.00 587.00 L 551.00 585.80 L 562.90 584.10 L 574.80 582.00 L 585.60 579.80 L 596.20 577.10 L 606.70 574.00 L 622.10 568.70 L 637.40 562.70 L 683.10 543.90 L 698.50 538.20 L 702.70 565.40 L 703.50 574.50 L 703.70 580.60 L 703.30 586.70 L 702.50 592.90 L 700.90 598.70 L 698.80 604.20 L 696.20 609.60 L 693.20 614.60 L 689.80 619.50 L 686.10 624.20 L 680.00 630.90 L 673.50 637.10 L 659.60 648.40 L 649.60 636.90 L 658.40 630.80 L 642.60 611.40 L 628.10 644.20 L 635.60 660.80 L 629.80 663.30 L 609.40 671.00 L 599.10 674.50 L 588.70 677.60 L 585.90 670.90 L 582.70 664.70 L 579.00 659.10 L 574.80 653.90 L 570.30 649.10 L 565.30 644.70 L 560.10 640.80 L 554.60 637.30 L 548.70 634.20 L 542.70 631.60 L 536.60 629.50 L 530.10 627.80 L 523.60 626.50 L 517.10 625.70 L 510.50 625.40 L 503.90 625.50 L 497.20 626.10 L 490.70 627.10 L 484.30 628.60 L 478.00 630.60 L 471.80 633.00 L 465.90 635.90 L 460.20 639.30 L 454.80 643.10 L 449.70 647.40 L 444.90 652.10 L 440.60 657.40 L 436.50 663.20 L 474.10 669.50 L 486.70 671.20 L 463.60 679.70 L 442.10 673.70 L 420.70 666.40 L 410.20 662.20 L 399.90 657.60 L 389.80 652.60 L 380.00 647.20 L 370.50 641.30 L 363.70 636.50 L 350.60 626.10 L 344.50 620.50 L 338.60 614.50 L 333.00 608.20 L 327.80 601.60 L 322.80 594.50 L 322.20 582.60 L 322.30 570.80 L 322.80 559.10 L 323.90 547.30 L 325.60 535.60 Z M 392.50 576.90 L 393.40 594.00 L 394.40 596.90 L 394.80 599.30 L 394.70 601.30 L 394.10 603.10 L 393.20 604.80 L 391.80 606.30 L 389.30 608.10 L 376.60 614.50 L 372.40 617.70 L 370.40 620.90 L 370.00 622.80 L 370.10 625.00 L 370.80 627.70 L 375.30 631.70 L 385.20 639.00 L 400.90 648.90 L 393.00 615.80 L 396.70 616.70 L 402.40 617.20 L 406.80 616.20 L 410.20 614.10 L 411.50 612.70 L 412.90 610.50 L 413.80 608.00 L 414.30 605.10 L 414.10 599.10 L 413.40 595.90 L 410.90 589.80 L 407.00 584.30 L 404.70 582.00 L 402.00 580.00 L 399.10 578.40 L 395.90 577.40 L 392.50 576.90 Z M 617.90 633.30 L 619.40 628.40 L 627.10 608.40 L 629.20 600.00 L 629.80 593.20 L 629.50 589.90 L 628.80 586.50 L 627.60 583.00 L 623.90 582.00 L 617.70 581.40 L 615.10 581.70 L 610.30 583.40 L 606.60 586.20 L 604.60 588.70 L 603.10 591.50 L 601.90 594.80 L 601.10 598.20 L 600.80 601.80 L 601.30 609.40 L 603.30 616.80 L 604.90 620.40 L 606.80 623.70 L 609.00 626.70 L 611.70 629.30 L 614.60 631.50 L 617.90 633.30 Z" fill="#313b60" fill-rule="nonzero" node-id="55" stroke="none" target-height="144.10004" target-width="381.5" target-x="322.2" target-y="535.6"></path><path d="M 513.60 558.10 L 512.10 554.80 L 511.40 552.00 L 511.30 549.60 L 511.60 547.30 L 512.30 545.40 L 513.40 543.90 L 514.80 542.60 L 516.40 541.60 L 520.10 540.60 L 523.90 540.90 L 525.70 541.50 L 528.70 543.70 L 529.80 545.20 L 530.50 547.00 L 530.80 549.30 L 530.60 551.60 L 529.90 554.50 L 528.40 557.90 L 513.60 558.10 Z" fill="#eac88f" fill-rule="nonzero" node-id="57" stroke="none" target-height="17.5" target-width="19.5" target-x="511.3" target-y="540.6"></path><path d="M 617.90 633.30 L 614.60 631.50 L 611.70 629.30 L 609.00 626.70 L 606.80 623.70 L 604.90 620.40 L 603.30 616.80 L 602.10 613.10 L 600.80 605.60 L 600.80 601.80 L 601.10 598.20 L 601.90 594.80 L 603.10 591.50 L 604.60 588.70 L 606.60 586.20 L 610.30 583.40 L 615.10 581.70 L 617.70 581.40 L 623.90 582.00 L 627.60 583.00 L 628.80 586.50 L 629.50 589.90 L 629.80 593.20 L 629.20 600.00 L 627.10 608.40 L 619.40 628.40 L 617.90 633.30 Z" fill="#c8444c" fill-rule="nonzero" node-id="59" stroke="none" target-height="51.899963" target-width="29" target-x="600.8" target-y="581.4"></path><path d="M 279.70 597.60 L 298.80 604.50 L 302.10 605.40 L 308.40 606.10 L 311.40 605.90 L 314.20 605.00 L 316.80 603.60 L 318.40 602.10 L 320.00 600.20 L 321.50 597.70 L 322.80 594.50 L 327.80 601.60 L 333.00 608.20 L 338.60 614.50 L 344.50 620.50 L 350.60 626.10 L 363.70 636.50 L 370.50 641.30 L 380.00 647.20 L 389.80 652.60 L 399.90 657.60 L 410.20 662.20 L 420.70 666.40 L 431.30 670.20 L 442.10 673.70 L 463.60 679.70 L 483.00 683.90 L 491.90 685.40 L 514.20 688.00 L 527.70 689.00 L 554.80 690.10 L 538.10 709.30 L 553.40 714.00 L 568.80 719.20 L 571.10 727.10 L 565.70 724.70 L 562.00 724.20 L 559.60 724.60 L 557.80 725.50 L 556.40 726.80 L 555.30 728.50 L 554.70 730.40 L 554.40 732.60 L 555.10 737.00 L 556.10 739.20 L 557.50 741.20 L 559.20 742.80 L 561.50 744.20 L 563.30 744.90 L 567.80 745.40 L 570.60 745.10 L 575.90 747.70 L 586.60 751.50 L 592.00 752.90 L 599.30 754.20 L 606.80 755.10 L 614.20 755.40 L 625.50 755.30 L 636.90 754.60 L 659.50 752.10 L 659.80 768.60 L 659.60 785.10 L 659.00 801.70 L 657.80 818.30 L 668.60 818.20 L 679.30 818.60 L 690.00 819.50 L 705.90 822.10 L 721.60 826.20 L 720.50 834.80 L 719.50 839.00 L 718.10 842.90 L 716.90 845.30 L 713.50 849.60 L 711.40 851.40 L 708.90 852.90 L 705.80 854.20 L 695.90 855.20 L 686.10 855.70 L 676.30 855.80 L 661.50 855.20 L 646.70 854.20 L 617.40 851.50 L 614.30 772.20 L 602.60 774.70 L 590.90 776.70 L 579.20 778.20 L 567.50 779.30 L 551.80 780.20 L 536.20 780.50 L 520.50 780.20 L 504.80 779.40 L 489.10 778.30 L 473.40 776.60 L 450.00 773.70 L 426.60 770.30 L 424.50 783.60 L 422.80 797.00 L 421.50 810.50 L 420.20 830.70 L 419.40 851.00 L 407.60 852.70 L 395.90 854.00 L 384.10 854.80 L 372.30 855.30 L 348.70 855.00 L 325.10 853.20 L 313.80 832.10 L 320.40 826.70 L 327.40 822.80 L 332.30 820.80 L 337.40 819.30 L 342.70 818.20 L 350.80 817.10 L 359.00 816.60 L 375.40 816.30 L 374.40 809.80 L 374.00 802.90 L 373.60 774.80 L 373.00 767.90 L 371.90 761.30 L 370.80 757.00 L 369.40 752.90 L 367.50 749.00 L 365.20 745.20 L 362.40 741.70 L 351.20 730.50 L 343.70 722.50 L 336.60 714.20 L 329.80 705.70 L 323.30 696.90 L 317.20 687.80 L 311.40 678.50 L 306.00 669.10 L 301.00 659.40 L 296.40 649.50 L 292.20 639.50 L 288.40 629.20 L 285.00 618.90 L 282.10 608.30 L 279.70 597.60 Z M 539.10 727.90 L 545.10 728.70 L 548.20 730.20 L 549.00 731.20 L 549.30 732.10 L 548.90 734.30 L 546.80 737.10 L 542.90 739.50 L 539.60 740.20 L 537.70 739.50 L 537.00 738.80 L 536.60 737.60 L 536.60 735.80 L 537.60 731.40 L 539.10 727.90 Z" fill="#f7b24c" fill-rule="nonzero" node-id="61" stroke="none" target-height="261.3" target-width="441.89996" target-x="279.7" target-y="594.5"></path><path d="M 436.50 663.20 L 440.60 657.40 L 444.90 652.10 L 449.70 647.40 L 454.80 643.10 L 460.20 639.30 L 465.90 635.90 L 471.80 633.00 L 478.00 630.60 L 484.30 628.60 L 490.70 627.10 L 497.20 626.10 L 503.90 625.50 L 510.50 625.40 L 517.10 625.70 L 523.60 626.50 L 530.10 627.80 L 536.60 629.50 L 542.70 631.60 L 548.70 634.20 L 554.60 637.30 L 560.10 640.80 L 565.30 644.70 L 570.30 649.10 L 574.80 653.90 L 579.00 659.10 L 582.70 664.70 L 585.90 670.90 L 588.70 677.60 L 580.40 675.40 L 572.00 673.80 L 563.50 672.60 L 546.50 671.20 L 525.20 670.90 L 486.70 671.20 L 474.10 669.50 L 436.50 663.20 Z" fill="#fc5376" fill-rule="nonzero" node-id="63" stroke="none" target-height="52.19995" target-width="152.20001" target-x="436.5" target-y="625.4"></path><path d="M 463.60 679.70 L 486.70 671.20 L 525.20 670.90 L 546.50 671.20 L 563.50 672.60 L 572.00 673.80 L 580.40 675.40 L 588.70 677.60 L 576.10 680.00 L 563.50 681.70 L 550.80 682.90 L 538.00 683.70 L 525.20 684.00 L 512.40 683.90 L 493.20 683.20 L 474.10 682.10 L 463.60 679.70 Z" fill="#533037" fill-rule="nonzero" node-id="65" stroke="none" target-height="13.099976" target-width="125.100006" target-x="463.6" target-y="670.9"></path><path d="M 539.10 727.90 L 545.10 728.70 L 548.20 730.20 L 548.90 731.20 L 549.30 732.10 L 548.90 734.30 L 546.80 737.10 L 542.90 739.50 L 539.60 740.20 L 537.70 739.50 L 537.00 738.80 L 536.60 737.60 L 536.60 735.80 L 537.60 731.40 L 539.10 727.90 Z" fill="#5b4b35" fill-rule="nonzero" node-id="67" stroke="none" target-height="12.299988" target-width="12.700012" target-x="536.6" target-y="727.9"></path><path d="M 570.60 745.10 L 567.80 745.40 L 563.30 744.90 L 561.50 744.20 L 559.20 742.80 L 557.50 741.20 L 556.10 739.20 L 555.10 737.00 L 554.60 734.90 L 554.40 732.60 L 554.70 730.40 L 555.30 728.50 L 556.40 726.80 L 557.80 725.50 L 559.60 724.60 L 562.00 724.20 L 565.70 724.70 L 571.10 727.10 L 570.60 745.10 Z" fill="#91745e" fill-rule="nonzero" node-id="69" stroke="none" target-height="21.200012" target-width="16.699951" target-x="554.4" target-y="724.2"></path></svg>