<?xml version="1.0" standalone="no"?><!DOCTYPE svg PUBLIC "-//W3C//DTD SVG 1.1//EN" "http://www.w3.org/Graphics/SVG/1.1/DTD/svg11.dtd"><svg height="1024" node-id="1" sillyvg="true" template-height="1024" template-width="1024" version="1.1" viewBox="0 0 1024 1024" width="1024" xmlns="http://www.w3.org/2000/svg" xmlns:xlink="http://www.w3.org/1999/xlink"><defs node-id="42"></defs><path d="M 0.00 0.00 L 1024.00 0.00 L 1024.00 1024.00 L 0.00 1024.00 Z" fill="#ffffff" fill-rule="nonzero" node-id="44" stroke="none" target-height="1024" target-width="1024" target-x="0" target-y="0"></path><path d="M 745.80 549.80 L 753.60 551.60 L 761.20 553.90 L 768.60 556.70 L 775.90 560.10 L 773.50 564.70 L 770.70 569.00 L 767.50 572.90 L 763.90 576.50 L 756.00 583.00 L 743.40 591.90 L 744.40 570.70 L 745.80 549.80 Z" fill="#ffffff" fill-rule="nonzero" node-id="46" stroke="none" target-height="42.100037" target-width="32.5" target-x="743.4" target-y="549.8"></path><path d="M 331.00 586.70 L 333.00 584.40 L 340.30 572.50 L 342.30 570.00 L 343.90 568.60 L 347.30 566.90 L 349.20 566.60 L 351.40 566.90 L 354.00 567.70 L 359.70 581.70 L 364.90 596.10 L 331.00 586.70 Z" fill="#ffffff" fill-rule="nonzero" node-id="48" stroke="none" target-height="29.5" target-width="33.899994" target-x="331" target-y="566.6"></path><path d="M 385.70 867.10 L 403.20 870.00 L 420.80 872.60 L 438.50 874.70 L 456.30 876.40 L 474.10 877.60 L 492.00 878.40 L 509.80 878.70 L 527.60 878.60 L 545.40 877.90 L 563.20 876.80 L 581.00 875.20 L 598.70 873.00 L 616.30 870.30 L 633.80 867.10 L 651.30 863.40 L 650.50 874.90 L 650.20 894.20 L 651.40 909.60 L 652.70 917.10 L 654.50 924.50 L 656.80 931.70 L 659.00 937.00 L 661.60 942.10 L 664.60 947.10 L 668.10 952.00 L 366.60 952.00 L 370.30 948.70 L 373.50 945.20 L 376.20 941.60 L 378.50 937.90 L 381.00 932.60 L 383.00 927.10 L 384.50 921.40 L 386.10 909.50 L 386.40 903.40 L 386.50 894.20 L 385.70 867.10 Z" fill="#ffffff" fill-rule="nonzero" node-id="50" stroke="none" target-height="88.599976" target-width="301.49997" target-x="366.6" target-y="863.4"></path><path d="M 709.80 925.00 L 714.50 934.70 L 717.30 939.40 L 720.40 943.90 L 723.90 948.10 L 727.80 952.00 L 688.90 952.00 L 699.80 938.80 L 709.80 925.00 Z" fill="#ffffff" fill-rule="nonzero" node-id="52" stroke="none" target-height="27" target-width="38.899963" target-x="688.9" target-y="925"></path><path d="M 351.80 303.60 L 357.40 301.20 L 363.00 299.40 L 368.50 298.10 L 374.20 297.30 L 379.80 297.00 L 385.50 297.20 L 391.00 297.80 L 396.60 298.90 L 402.00 300.50 L 407.30 302.40 L 412.50 304.60 L 422.40 310.30 L 431.50 317.30 L 435.60 321.20 L 439.60 325.40 L 446.40 334.50 L 449.30 339.40 L 451.90 344.50 L 454.00 349.70 L 455.70 355.10 L 457.10 360.70 L 457.90 366.30 L 458.30 372.00 L 458.10 377.90 L 456.90 389.80 L 456.00 395.50 L 454.50 401.00 L 452.60 406.20 L 450.20 411.40 L 447.50 416.20 L 444.40 420.80 L 440.90 425.20 L 437.10 429.40 L 428.80 436.80 L 424.20 440.00 L 414.40 445.60 L 404.00 449.80 L 398.60 451.30 L 393.20 452.50 L 387.70 453.20 L 382.10 453.60 L 376.50 453.50 L 371.00 453.00 L 365.50 452.00 L 360.10 450.60 L 354.80 448.70 L 349.70 446.30 L 344.60 443.40 L 334.50 436.40 L 329.80 432.50 L 325.60 428.30 L 321.80 423.80 L 318.40 418.90 L 315.40 413.90 L 312.90 408.70 L 310.70 403.20 L 309.00 397.50 L 307.70 391.80 L 306.80 386.00 L 306.40 380.10 L 306.30 374.20 L 306.60 368.30 L 307.40 362.50 L 308.50 356.60 L 310.00 350.90 L 311.90 345.30 L 314.20 340.00 L 316.90 334.70 L 319.90 329.70 L 323.40 325.00 L 327.20 320.50 L 331.40 316.40 L 335.90 312.60 L 340.80 309.20 L 346.10 306.20 L 351.80 303.60 Z M 390.20 333.20 L 390.60 339.80 L 390.50 346.20 L 390.00 350.40 L 389.10 354.40 L 387.60 358.30 L 386.20 361.10 L 382.20 366.30 L 379.60 368.80 L 357.20 347.90 L 351.30 354.00 L 346.70 360.90 L 344.40 366.00 L 342.70 371.20 L 341.60 376.50 L 341.20 384.70 L 342.10 392.70 L 343.20 396.60 L 344.60 400.30 L 346.40 403.90 L 348.60 407.30 L 351.10 410.50 L 354.00 413.30 L 357.40 416.00 L 365.20 420.90 L 369.20 422.90 L 373.20 424.40 L 377.40 425.40 L 381.60 426.00 L 385.80 426.20 L 390.00 426.00 L 394.30 425.40 L 399.80 424.00 L 405.10 422.10 L 410.20 419.50 L 415.00 416.40 L 419.40 412.80 L 423.40 408.70 L 428.40 401.80 L 432.10 394.10 L 433.40 390.00 L 434.30 385.80 L 434.80 381.40 L 434.80 372.90 L 433.90 365.90 L 433.00 362.70 L 431.20 358.60 L 429.00 354.80 L 426.30 351.30 L 423.20 348.10 L 419.80 345.20 L 412.00 340.30 L 403.50 336.50 L 399.00 335.10 L 390.20 333.20 Z" fill="#fefefd" fill-rule="nonzero" node-id="54" stroke="none" target-height="156.6" target-width="152" target-x="306.3" target-y="297"></path><path d="M 454.40 234.60 L 477.10 232.20 L 488.40 231.60 L 522.60 230.50 L 520.70 233.80 L 516.80 238.30 L 512.80 240.90 L 510.60 241.80 L 508.20 242.40 L 494.60 244.10 L 483.50 245.10 L 455.90 246.40 L 439.40 246.60 L 440.50 243.20 L 442.00 240.50 L 443.80 238.40 L 445.80 236.80 L 448.30 235.60 L 451.10 234.80 L 454.40 234.60 Z" fill="#37384d" fill-rule="nonzero" node-id="56" stroke="none" target-height="16.100006" target-width="83.19998" target-x="439.4" target-y="230.5"></path><path d="M 359.00 288.30 L 365.60 286.60 L 372.10 285.50 L 378.60 284.90 L 385.10 284.90 L 391.60 285.50 L 398.00 286.50 L 404.30 288.00 L 410.50 290.00 L 416.60 292.50 L 422.40 295.40 L 428.00 298.60 L 433.50 302.30 L 438.70 306.40 L 443.50 310.80 L 448.00 315.50 L 452.20 320.50 L 456.10 325.80 L 459.50 331.30 L 462.40 337.10 L 465.00 343.10 L 467.00 349.30 L 468.50 355.70 L 469.50 362.20 L 470.40 375.30 L 470.40 381.60 L 470.00 387.90 L 469.00 394.10 L 467.60 400.20 L 465.80 406.10 L 463.50 411.90 L 460.90 417.60 L 457.80 423.10 L 454.50 428.30 L 450.80 433.30 L 446.70 438.00 L 442.30 442.50 L 437.70 446.60 L 432.80 450.40 L 427.60 453.90 L 422.20 457.00 L 416.70 459.60 L 410.90 461.90 L 404.90 463.70 L 398.90 465.00 L 392.70 465.80 L 386.30 466.10 L 372.70 465.80 L 365.90 465.10 L 359.30 463.90 L 352.90 462.00 L 346.60 459.60 L 340.60 456.70 L 334.90 453.40 L 329.40 449.60 L 324.20 445.30 L 319.30 440.70 L 314.80 435.80 L 310.60 430.50 L 306.80 424.90 L 303.40 419.10 L 300.40 413.10 L 297.90 406.90 L 295.80 400.40 L 294.10 393.90 L 293.00 387.30 L 292.40 380.60 L 292.30 373.90 L 292.80 367.20 L 293.80 360.40 L 297.10 348.00 L 301.60 336.80 L 304.30 331.40 L 307.30 326.20 L 314.30 316.50 L 322.50 307.80 L 327.00 303.90 L 331.70 300.40 L 336.80 297.10 L 342.00 294.30 L 347.40 291.90 L 353.10 289.90 L 359.00 288.30 Z M 351.80 303.60 L 346.10 306.20 L 340.80 309.20 L 335.90 312.60 L 331.40 316.40 L 327.20 320.50 L 323.40 325.00 L 319.90 329.70 L 316.90 334.70 L 314.20 340.00 L 311.90 345.30 L 310.00 350.90 L 308.50 356.60 L 307.40 362.50 L 306.30 374.20 L 306.40 380.10 L 306.80 386.00 L 307.70 391.80 L 309.00 397.50 L 310.70 403.20 L 312.90 408.70 L 315.40 413.90 L 318.40 418.90 L 321.80 423.80 L 325.60 428.30 L 329.80 432.50 L 334.50 436.40 L 344.60 443.40 L 349.70 446.30 L 354.80 448.70 L 360.10 450.60 L 365.50 452.00 L 371.00 453.00 L 376.50 453.50 L 382.10 453.60 L 387.70 453.20 L 393.20 452.50 L 398.60 451.30 L 409.30 447.90 L 419.40 443.00 L 424.20 440.00 L 428.80 436.80 L 437.10 429.40 L 440.90 425.20 L 444.40 420.80 L 447.50 416.20 L 450.20 411.40 L 452.60 406.20 L 454.50 401.00 L 455.90 395.50 L 456.90 389.80 L 458.10 377.90 L 458.30 372.00 L 457.90 366.30 L 457.10 360.70 L 455.70 355.10 L 454.00 349.70 L 451.90 344.50 L 449.30 339.40 L 446.40 334.50 L 439.60 325.40 L 435.60 321.20 L 427.10 313.60 L 417.60 307.30 L 412.50 304.60 L 407.30 302.40 L 402.00 300.50 L 396.60 298.90 L 391.00 297.80 L 385.50 297.20 L 379.80 297.00 L 374.20 297.30 L 368.50 298.10 L 363.00 299.40 L 357.40 301.20 L 351.80 303.60 Z" fill="#37384d" fill-rule="nonzero" node-id="58" stroke="none" target-height="181.20001" target-width="178.1" target-x="292.3" target-y="284.9"></path><path d="M 610.90 290.90 L 617.10 288.50 L 623.20 286.60 L 629.40 285.30 L 635.70 284.50 L 642.00 284.30 L 648.30 284.50 L 654.50 285.20 L 660.70 286.40 L 666.80 288.00 L 672.70 290.00 L 678.50 292.40 L 684.20 295.30 L 689.60 298.50 L 694.80 302.10 L 699.80 306.00 L 704.50 310.20 L 708.90 314.80 L 712.90 319.70 L 716.60 324.80 L 719.90 330.20 L 722.80 335.80 L 725.20 341.60 L 727.20 347.70 L 730.20 360.40 L 731.20 366.70 L 731.80 373.10 L 731.80 379.50 L 731.30 385.90 L 730.40 392.10 L 729.10 398.40 L 727.30 404.50 L 725.10 410.50 L 722.50 416.30 L 719.50 421.90 L 716.10 427.30 L 712.40 432.50 L 708.40 437.40 L 704.00 442.00 L 699.40 446.20 L 694.40 450.20 L 689.20 453.70 L 683.70 456.70 L 677.90 459.40 L 672.00 461.60 L 665.80 463.30 L 659.40 464.40 L 646.70 465.70 L 640.80 465.90 L 634.90 465.60 L 629.00 464.90 L 623.20 463.70 L 617.50 462.20 L 612.00 460.30 L 606.50 458.00 L 601.20 455.30 L 591.30 449.10 L 582.10 441.50 L 578.00 437.40 L 570.50 428.30 L 567.20 423.40 L 564.20 418.30 L 561.70 413.00 L 559.40 407.50 L 557.60 401.90 L 556.30 396.20 L 555.30 390.30 L 554.40 378.30 L 554.40 372.50 L 554.80 366.70 L 556.70 355.20 L 560.00 344.10 L 562.20 338.60 L 565.70 331.70 L 569.60 325.00 L 574.20 318.70 L 581.90 310.00 L 590.60 302.30 L 595.40 299.00 L 600.30 295.90 L 605.50 293.20 L 610.90 290.90 Z M 615.60 302.10 L 610.00 304.50 L 604.80 307.20 L 600.00 310.30 L 595.40 313.80 L 591.20 317.70 L 587.30 321.80 L 583.70 326.30 L 580.50 331.00 L 575.10 341.00 L 572.90 346.30 L 569.60 357.30 L 567.80 368.60 L 567.50 374.40 L 567.50 380.10 L 568.80 391.40 L 570.10 396.90 L 571.70 402.40 L 573.80 407.70 L 576.30 412.80 L 579.20 417.70 L 582.50 422.40 L 586.20 426.80 L 590.40 431.00 L 599.60 438.70 L 604.30 442.10 L 609.20 444.90 L 614.30 447.30 L 619.50 449.20 L 624.90 450.70 L 630.30 451.80 L 635.90 452.40 L 641.50 452.60 L 652.60 451.90 L 658.10 450.90 L 668.90 447.90 L 679.20 443.50 L 684.10 440.70 L 693.20 434.30 L 697.30 430.60 L 701.20 426.60 L 704.70 422.30 L 707.90 417.80 L 710.70 412.90 L 713.10 407.90 L 715.10 402.60 L 716.60 397.00 L 718.90 385.00 L 719.50 379.10 L 719.70 373.20 L 719.30 367.30 L 718.40 361.50 L 717.00 355.80 L 715.30 350.20 L 713.00 344.80 L 710.40 339.50 L 707.40 334.50 L 704.10 329.60 L 700.40 325.00 L 696.40 320.60 L 692.20 316.60 L 687.70 312.80 L 682.90 309.40 L 677.90 306.30 L 672.70 303.60 L 667.40 301.30 L 661.90 299.40 L 656.30 298.00 L 650.60 297.00 L 644.90 296.50 L 639.00 296.50 L 633.20 297.00 L 627.40 298.10 L 621.50 299.80 L 615.60 302.10 Z" fill="#37384d" fill-rule="nonzero" node-id="60" stroke="none" target-height="181.6" target-width="177.39996" target-x="554.4" target-y="284.3"></path><path d="M 493.90 443.40 L 491.10 440.00 L 490.10 436.80 L 490.20 434.70 L 490.80 432.70 L 491.90 430.70 L 493.50 428.90 L 497.60 426.00 L 502.60 424.10 L 508.00 423.50 L 510.50 423.80 L 513.00 424.50 L 512.90 430.10 L 511.30 436.90 L 509.90 440.30 L 508.30 443.20 L 505.70 446.40 L 502.80 448.20 L 501.20 448.40 L 499.40 448.10 L 497.80 447.30 L 496.00 445.80 L 493.90 443.40 Z" fill="#37384d" fill-rule="nonzero" node-id="62" stroke="none" target-height="24.899994" target-width="22.899994" target-x="490.1" target-y="423.5"></path><path d="M 534.50 424.40 L 536.80 424.10 L 539.00 424.30 L 541.10 424.90 L 545.10 427.00 L 546.80 428.40 L 549.50 431.90 L 550.90 435.70 L 551.00 437.60 L 550.70 439.40 L 550.00 441.10 L 548.70 442.60 L 544.50 445.90 L 542.60 447.10 L 541.00 447.50 L 539.30 447.60 L 537.80 447.20 L 535.30 445.20 L 533.30 442.00 L 532.30 439.00 L 531.70 435.80 L 531.60 432.60 L 532.00 429.50 L 532.60 427.50 L 534.50 424.40 Z" fill="#37384d" fill-rule="nonzero" node-id="64" stroke="none" target-height="23.5" target-width="19.400024" target-x="531.6" target-y="424.1"></path><path d="M 189.10 792.30 L 190.00 788.50 L 191.20 785.30 L 192.60 782.60 L 196.20 778.20 L 200.60 775.20 L 203.00 774.20 L 206.30 773.40 L 209.80 773.10 L 213.30 773.30 L 216.80 774.00 L 220.20 775.20 L 223.40 776.80 L 226.40 778.80 L 229.10 781.10 L 231.40 783.90 L 233.30 786.90 L 234.60 790.20 L 235.40 793.80 L 235.50 796.50 L 235.30 799.40 L 233.50 805.80 L 230.10 811.10 L 226.40 814.60 L 223.50 816.20 L 220.60 817.30 L 217.60 817.90 L 214.40 817.90 L 211.30 817.40 L 208.20 816.50 L 205.30 815.20 L 202.50 813.40 L 199.80 811.30 L 197.40 808.80 L 195.30 806.10 L 193.60 803.00 L 192.20 799.70 L 191.30 796.10 L 190.90 792.30 L 193.00 792.90 L 195.80 794.40 L 208.00 803.00 L 211.10 804.90 L 214.00 806.00 L 215.80 806.40 L 217.50 806.30 L 218.90 805.80 L 220.10 804.80 L 221.30 803.10 L 222.20 800.50 L 223.10 796.70 L 223.20 793.70 L 222.80 791.40 L 221.90 789.30 L 220.60 787.80 L 218.90 786.60 L 214.70 785.30 L 212.10 785.10 L 208.10 785.40 L 203.80 786.20 L 195.70 788.80 L 189.10 792.30 Z" fill="#37384d" fill-rule="nonzero" node-id="66" stroke="none" target-height="44.80005" target-width="46.399994" target-x="189.1" target-y="773.1"></path><path d="M 472.70 575.20 L 476.30 576.50 L 479.30 578.30 L 481.70 580.50 L 483.80 583.10 L 485.60 585.90 L 487.00 589.10 L 488.70 594.20 L 493.60 615.80 L 495.20 620.40 L 450.30 615.40 L 458.50 593.20 L 462.00 586.30 L 464.20 583.10 L 466.60 580.10 L 469.40 577.50 L 472.70 575.20 Z" fill="#fdfdfd" fill-rule="nonzero" node-id="68" stroke="none" target-height="45.200012" target-width="44.900024" target-x="450.3" target-y="575.2"></path><path d="M 658.20 621.10 L 662.00 594.70 L 664.60 586.40 L 667.80 580.50 L 670.00 577.90 L 672.60 575.60 L 675.70 573.60 L 679.30 574.00 L 682.40 575.00 L 685.00 576.40 L 687.40 578.30 L 689.50 580.60 L 691.30 583.30 L 693.60 587.60 L 695.50 592.50 L 701.60 611.40 L 680.00 616.50 L 658.20 621.10 Z" fill="#fdfdfd" fill-rule="nonzero" node-id="70" stroke="none" target-height="47.5" target-width="43.399963" target-x="658.2" target-y="573.6"></path><path d="M 473.30 520.90 L 505.90 518.80 L 538.40 516.00 L 534.80 525.80 L 530.60 535.40 L 526.00 544.70 L 522.20 551.50 L 518.00 558.10 L 513.30 564.50 L 508.30 570.60 L 504.60 568.80 L 498.00 564.40 L 495.20 561.80 L 491.70 558.10 L 488.60 554.00 L 485.80 549.60 L 482.20 542.70 L 479.00 535.50 L 473.30 520.90 Z" fill="#fdfcfd" fill-rule="nonzero" node-id="72" stroke="none" target-height="54.599976" target-width="65.10004" target-x="473.3" target-y="516"></path><path d="M 615.60 302.10 L 621.50 299.80 L 627.40 298.10 L 633.20 297.00 L 639.00 296.50 L 644.90 296.50 L 650.60 297.00 L 656.30 298.00 L 661.90 299.40 L 667.40 301.30 L 672.70 303.60 L 677.90 306.30 L 682.90 309.40 L 687.70 312.80 L 696.40 320.60 L 700.40 325.00 L 704.10 329.60 L 707.40 334.50 L 710.40 339.50 L 713.00 344.80 L 715.30 350.20 L 717.00 355.80 L 718.40 361.50 L 719.30 367.30 L 719.70 373.20 L 719.50 379.10 L 718.90 385.00 L 716.60 397.00 L 715.10 402.60 L 713.10 407.90 L 710.70 412.90 L 707.90 417.80 L 704.70 422.30 L 701.20 426.60 L 697.30 430.60 L 688.80 437.60 L 684.10 440.70 L 674.10 445.90 L 663.60 449.60 L 658.10 450.90 L 652.60 451.90 L 641.50 452.60 L 635.90 452.40 L 630.30 451.80 L 624.90 450.70 L 619.50 449.20 L 614.30 447.30 L 609.20 444.90 L 604.30 442.10 L 599.60 438.70 L 590.40 431.00 L 586.20 426.80 L 582.50 422.40 L 579.20 417.70 L 576.30 412.80 L 573.80 407.70 L 571.70 402.40 L 570.10 396.90 L 568.80 391.40 L 568.00 385.80 L 567.50 380.10 L 567.50 374.40 L 568.50 362.90 L 571.10 351.80 L 572.90 346.30 L 577.60 335.90 L 580.50 331.00 L 583.70 326.30 L 587.30 321.80 L 591.20 317.70 L 595.40 313.80 L 600.00 310.30 L 604.80 307.20 L 610.00 304.50 L 615.60 302.10 Z M 646.50 330.60 L 645.90 334.10 L 645.80 338.20 L 646.20 350.90 L 645.90 354.80 L 645.40 357.30 L 644.50 359.60 L 643.30 361.60 L 641.70 363.20 L 639.50 364.60 L 636.60 365.60 L 625.20 357.70 L 614.20 349.50 L 611.40 352.90 L 608.90 356.50 L 606.90 360.30 L 605.20 364.30 L 603.90 368.40 L 602.50 376.80 L 602.50 385.30 L 604.10 393.50 L 605.40 397.50 L 607.10 401.30 L 609.20 404.90 L 611.70 408.20 L 614.50 411.40 L 617.70 414.10 L 621.20 416.50 L 625.20 418.60 L 633.80 422.00 L 637.90 423.10 L 642.00 423.80 L 646.00 424.10 L 650.10 423.90 L 657.90 422.50 L 661.70 421.20 L 666.60 419.00 L 671.20 416.30 L 675.60 413.10 L 679.70 409.50 L 683.30 405.50 L 686.60 401.10 L 689.40 396.40 L 691.70 391.50 L 693.50 386.40 L 694.40 382.50 L 695.30 374.50 L 694.60 366.40 L 693.70 362.50 L 692.30 358.50 L 688.30 350.30 L 685.70 346.70 L 682.80 343.70 L 679.50 341.00 L 675.90 338.70 L 668.00 335.20 L 659.50 332.80 L 646.50 330.60 Z" fill="#fefdfd" fill-rule="nonzero" node-id="74" stroke="none" target-height="156.1" target-width="152.20001" target-x="567.5" target-y="296.5"></path><path d="M 365.20 103.70 L 402.30 95.60 L 421.10 92.10 L 440.00 89.00 L 458.90 86.40 L 477.80 84.40 L 492.10 83.30 L 506.30 82.60 L 520.60 82.40 L 534.90 82.60 L 549.10 83.20 L 563.30 84.40 L 577.50 86.20 L 591.70 88.50 L 611.20 92.20 L 630.70 96.30 L 643.80 99.40 L 669.50 106.60 L 682.20 110.80 L 694.70 115.40 L 706.90 120.50 L 715.90 124.70 L 733.40 134.00 L 741.90 139.20 L 750.20 144.80 L 758.20 150.70 L 766.00 157.10 L 781.80 171.30 L 789.70 178.90 L 797.10 186.80 L 804.10 194.90 L 810.70 203.40 L 816.90 212.10 L 822.80 221.00 L 828.40 230.20 L 835.30 242.70 L 841.80 255.50 L 847.70 268.70 L 858.40 295.60 L 863.20 309.30 L 869.90 330.00 L 876.10 350.90 L 891.40 407.20 L 894.80 422.10 L 897.90 437.00 L 900.50 452.10 L 902.70 467.20 L 906.00 497.50 L 907.20 512.70 L 908.20 533.10 L 908.70 553.50 L 908.70 573.80 L 908.20 594.20 L 906.30 634.90 L 904.90 651.30 L 903.00 667.60 L 900.60 683.90 L 897.90 700.00 L 891.50 732.30 L 886.20 756.30 L 869.10 828.20 L 864.70 842.20 L 859.70 856.00 L 856.00 865.10 L 851.90 874.00 L 847.50 882.70 L 842.60 891.20 L 837.30 899.30 L 831.50 907.20 L 826.90 912.80 L 816.70 923.30 L 811.10 928.20 L 787.10 902.40 L 766.30 921.50 L 755.50 930.40 L 747.60 935.50 L 743.50 937.70 L 739.90 936.60 L 736.90 935.10 L 734.50 933.20 L 732.40 930.90 L 730.60 928.30 L 729.00 925.40 L 727.20 920.70 L 721.50 900.60 L 719.50 896.30 L 713.60 901.70 L 710.90 904.70 L 699.70 919.50 L 693.10 927.20 L 687.20 932.30 L 683.90 934.40 L 680.30 936.10 L 676.40 937.30 L 673.80 932.20 L 671.60 927.10 L 669.90 921.80 L 668.60 916.50 L 667.30 909.40 L 666.50 902.10 L 666.10 894.70 L 666.20 883.50 L 668.10 850.30 L 649.80 854.60 L 631.30 858.50 L 612.70 861.90 L 593.90 864.80 L 575.10 867.20 L 556.30 869.00 L 537.40 870.20 L 518.50 870.90 L 499.60 871.00 L 480.70 870.40 L 461.90 869.20 L 443.10 867.40 L 428.10 865.40 L 413.20 863.00 L 398.40 860.20 L 383.60 856.90 L 368.80 853.10 L 368.80 860.40 L 371.10 891.80 L 371.30 899.60 L 371.10 904.80 L 369.70 914.60 L 368.40 919.30 L 366.60 923.80 L 364.20 928.10 L 359.70 934.00 L 353.40 939.40 L 346.00 930.40 L 335.50 915.90 L 331.80 911.30 L 327.80 907.20 L 323.40 903.50 L 320.30 901.40 L 316.90 899.70 L 313.20 898.30 L 308.00 914.90 L 303.60 931.90 L 298.20 931.00 L 293.00 929.70 L 288.20 927.90 L 278.90 923.20 L 268.20 915.60 L 250.30 900.00 L 228.00 926.40 L 222.10 921.50 L 216.60 916.40 L 211.60 911.00 L 206.90 905.50 L 201.20 897.80 L 195.90 889.80 L 191.20 881.40 L 186.90 872.90 L 182.90 864.10 L 179.30 855.00 L 174.40 841.20 L 170.00 827.10 L 157.70 784.30 L 153.30 770.20 L 150.20 760.90 L 143.30 743.00 L 129.20 685.70 L 125.00 666.40 L 121.30 647.10 L 118.30 627.70 L 115.40 601.70 L 114.60 588.50 L 114.20 576.40 L 114.50 552.40 L 115.20 540.40 L 116.60 524.50 L 118.50 508.60 L 120.90 492.80 L 127.00 461.40 L 130.50 445.70 L 136.30 422.30 L 149.20 375.90 L 155.90 353.00 L 167.70 316.20 L 173.90 297.90 L 185.20 267.70 L 195.40 244.20 L 201.00 232.60 L 206.90 221.20 L 213.30 210.00 L 218.50 201.90 L 223.90 194.10 L 229.70 186.60 L 235.80 179.30 L 242.30 172.30 L 250.70 164.00 L 259.60 156.10 L 268.80 148.70 L 278.50 141.70 L 288.50 135.20 L 298.70 129.20 L 309.30 123.70 L 320.10 118.70 L 331.10 114.20 L 342.30 110.20 L 353.70 106.70 L 365.20 103.70 Z M 425.70 119.30 L 394.30 125.30 L 373.60 130.20 L 363.50 133.30 L 356.90 135.80 L 350.40 138.70 L 344.10 141.90 L 345.50 154.80 L 362.40 149.80 L 396.70 140.80 L 413.90 136.90 L 431.20 133.50 L 448.70 130.60 L 466.20 128.20 L 483.80 126.50 L 501.50 125.30 L 514.30 123.30 L 517.60 122.40 L 520.40 121.20 L 522.10 120.10 L 523.30 118.80 L 524.20 117.20 L 524.70 115.50 L 524.60 113.20 L 524.00 110.30 L 515.80 109.60 L 507.50 109.40 L 499.30 109.50 L 487.00 110.40 L 474.70 111.80 L 425.70 119.30 Z M 388.10 181.40 L 389.30 194.30 L 398.40 196.70 L 407.60 198.60 L 416.80 199.80 L 426.20 200.60 L 445.00 201.20 L 459.10 201.00 L 487.40 200.10 L 501.40 200.00 L 507.60 199.50 L 531.30 198.60 L 539.50 197.10 L 543.40 195.80 L 547.20 194.00 L 550.70 191.60 L 551.50 189.00 L 551.60 187.00 L 551.30 185.60 L 550.60 184.30 L 549.60 183.20 L 548.10 182.50 L 545.70 181.70 L 542.70 181.40 L 531.00 181.30 L 507.20 182.80 L 483.40 183.50 L 459.60 183.70 L 435.70 183.40 L 411.90 182.60 L 388.10 181.40 Z M 454.40 234.60 L 451.10 234.80 L 448.30 235.60 L 445.80 236.80 L 443.80 238.40 L 442.00 240.50 L 440.50 243.20 L 439.40 246.60 L 472.50 245.80 L 494.60 244.10 L 508.20 242.40 L 512.80 240.90 L 516.80 238.30 L 518.50 236.60 L 520.70 233.80 L 522.60 230.50 L 488.40 231.60 L 477.10 232.20 L 454.40 234.60 Z M 475.50 262.90 L 475.30 265.80 L 475.90 270.30 L 476.70 272.00 L 478.20 274.10 L 480.10 275.70 L 482.50 276.90 L 485.20 277.70 L 488.00 278.10 L 491.10 278.10 L 497.20 277.00 L 500.20 275.90 L 503.10 274.50 L 505.60 272.80 L 507.80 270.80 L 509.70 268.50 L 511.00 265.90 L 511.80 263.10 L 475.50 262.90 Z M 359.00 288.30 L 353.10 289.90 L 347.40 291.90 L 342.00 294.30 L 336.80 297.10 L 331.70 300.40 L 327.00 303.90 L 322.50 307.80 L 314.30 316.50 L 307.30 326.20 L 304.30 331.40 L 301.60 336.80 L 297.10 348.00 L 293.80 360.40 L 292.80 367.20 L 292.30 373.90 L 292.40 380.60 L 293.00 387.30 L 294.10 393.90 L 295.80 400.40 L 297.90 406.90 L 300.40 413.10 L 303.40 419.10 L 306.80 424.90 L 310.60 430.50 L 314.80 435.80 L 319.30 440.70 L 324.20 445.30 L 329.40 449.60 L 334.90 453.40 L 340.60 456.70 L 346.60 459.60 L 352.90 462.00 L 359.30 463.90 L 365.90 465.10 L 372.70 465.80 L 386.30 466.10 L 392.70 465.80 L 398.90 465.00 L 404.90 463.70 L 410.90 461.90 L 416.70 459.60 L 422.20 457.00 L 427.60 453.90 L 432.80 450.40 L 437.70 446.60 L 442.30 442.50 L 446.70 438.00 L 450.80 433.30 L 454.50 428.30 L 457.80 423.10 L 460.90 417.60 L 463.50 411.90 L 465.80 406.10 L 467.60 400.20 L 469.00 394.10 L 470.00 387.90 L 470.40 381.60 L 470.40 375.30 L 469.50 362.20 L 468.50 355.70 L 467.00 349.30 L 465.00 343.10 L 462.40 337.10 L 459.50 331.30 L 456.10 325.80 L 452.20 320.50 L 448.00 315.50 L 443.50 310.80 L 438.70 306.40 L 433.50 302.30 L 428.00 298.60 L 422.40 295.40 L 416.60 292.50 L 410.50 290.00 L 404.30 288.00 L 398.00 286.50 L 391.60 285.50 L 385.10 284.90 L 378.60 284.90 L 372.10 285.50 L 365.60 286.60 L 359.00 288.30 Z M 610.90 290.90 L 605.50 293.20 L 600.30 295.90 L 595.40 299.00 L 590.60 302.30 L 581.90 310.00 L 574.20 318.70 L 569.60 325.00 L 565.70 331.70 L 562.20 338.60 L 560.00 344.10 L 556.70 355.20 L 554.80 366.70 L 554.40 372.50 L 554.40 378.30 L 555.30 390.30 L 556.30 396.20 L 557.60 401.90 L 559.40 407.50 L 561.70 413.00 L 564.20 418.30 L 567.20 423.40 L 570.50 428.30 L 578.00 437.40 L 582.10 441.50 L 591.30 449.10 L 601.20 455.30 L 606.50 458.00 L 612.00 460.30 L 617.50 462.20 L 623.20 463.70 L 629.00 464.90 L 634.90 465.60 L 640.80 465.90 L 646.70 465.70 L 659.40 464.40 L 665.80 463.30 L 672.00 461.60 L 677.90 459.40 L 683.70 456.70 L 689.20 453.70 L 694.40 450.20 L 699.40 446.20 L 704.00 442.00 L 708.40 437.40 L 712.40 432.50 L 716.10 427.30 L 719.50 421.90 L 722.50 416.30 L 725.10 410.50 L 727.30 404.50 L 729.10 398.40 L 730.40 392.10 L 731.30 385.90 L 731.80 379.50 L 731.80 373.10 L 731.30 366.70 L 730.20 360.40 L 727.20 347.70 L 725.20 341.60 L 722.80 335.80 L 719.90 330.20 L 716.60 324.80 L 712.90 319.70 L 708.90 314.80 L 704.50 310.20 L 699.80 306.00 L 694.80 302.10 L 689.60 298.50 L 684.20 295.30 L 678.50 292.40 L 672.70 290.00 L 666.80 288.00 L 660.70 286.40 L 654.50 285.20 L 648.30 284.50 L 642.00 284.30 L 635.70 284.50 L 629.40 285.30 L 623.20 286.60 L 617.10 288.50 L 610.90 290.90 Z M 192.30 427.40 L 194.70 427.60 L 197.20 427.30 L 199.80 426.40 L 204.60 423.50 L 206.80 421.50 L 208.70 419.30 L 211.40 414.50 L 212.10 411.80 L 212.30 409.30 L 211.90 406.90 L 209.70 406.20 L 207.60 406.00 L 203.40 406.90 L 199.40 409.20 L 196.70 411.60 L 194.50 414.50 L 192.40 418.70 L 191.60 423.20 L 191.70 425.30 L 192.30 427.40 Z M 213.20 444.90 L 217.60 443.20 L 221.80 441.20 L 226.00 438.70 L 229.80 435.80 L 233.40 432.70 L 236.60 429.20 L 239.50 425.40 L 241.90 421.30 L 243.90 417.10 L 245.30 412.60 L 246.10 408.00 L 246.30 403.20 L 242.30 405.60 L 235.10 411.00 L 231.90 414.10 L 228.00 418.60 L 224.40 423.40 L 221.20 428.60 L 216.90 436.60 L 213.20 444.90 Z M 820.90 408.10 L 821.20 410.90 L 822.00 413.80 L 823.50 416.80 L 827.60 422.20 L 830.20 424.70 L 833.10 426.90 L 839.10 430.40 L 842.20 431.70 L 845.20 432.40 L 848.00 432.70 L 848.60 430.10 L 848.60 427.40 L 848.10 424.70 L 845.70 419.60 L 841.90 414.90 L 837.00 411.00 L 831.60 408.40 L 828.80 407.60 L 826.00 407.30 L 823.40 407.40 L 820.90 408.10 Z M 493.90 443.40 L 496.00 445.80 L 497.80 447.30 L 499.40 448.10 L 501.20 448.40 L 502.80 448.20 L 505.70 446.40 L 508.30 443.20 L 511.30 436.90 L 512.90 430.10 L 513.00 424.50 L 510.50 423.80 L 508.00 423.50 L 502.60 424.10 L 497.60 426.00 L 493.50 428.90 L 491.90 430.70 L 490.80 432.70 L 490.20 434.70 L 490.10 436.80 L 491.10 440.00 L 493.90 443.40 Z M 534.50 424.40 L 532.60 427.50 L 532.00 429.50 L 531.60 432.60 L 531.70 435.80 L 532.30 439.00 L 533.30 442.00 L 535.30 445.20 L 537.80 447.20 L 539.30 447.60 L 541.00 447.50 L 542.60 447.10 L 544.50 445.90 L 548.70 442.60 L 550.00 441.10 L 550.70 439.40 L 551.00 437.60 L 550.90 435.70 L 550.40 433.70 L 548.30 430.10 L 546.80 428.40 L 543.20 425.80 L 539.00 424.30 L 536.80 424.10 L 534.50 424.40 Z M 800.90 423.50 L 800.80 425.80 L 801.00 428.00 L 802.70 432.50 L 805.70 436.60 L 808.60 439.30 L 811.90 441.60 L 815.40 443.40 L 819.00 444.50 L 821.40 444.80 L 825.90 444.30 L 826.10 442.10 L 825.80 439.80 L 824.10 435.20 L 821.10 430.90 L 818.20 428.10 L 814.90 425.70 L 810.20 423.50 L 805.40 422.70 L 803.10 422.90 L 800.90 423.50 Z M 364.00 501.30 L 351.70 500.10 L 327.30 496.80 L 254.50 484.00 L 236.20 481.20 L 217.90 479.00 L 217.00 484.90 L 216.70 490.60 L 216.80 496.20 L 217.40 501.60 L 218.50 507.10 L 221.70 517.60 L 223.90 522.70 L 227.30 529.20 L 231.20 535.60 L 235.60 541.70 L 240.50 547.50 L 245.60 552.90 L 251.20 558.10 L 257.00 563.00 L 269.00 571.60 L 279.20 577.80 L 289.60 583.50 L 300.20 588.80 L 310.90 593.60 L 325.50 599.50 L 340.40 604.90 L 355.40 609.70 L 385.90 618.10 L 401.30 621.80 L 447.50 632.00 L 472.60 636.00 L 498.00 639.50 L 532.20 643.10 L 549.40 644.40 L 566.60 645.10 L 583.70 645.40 L 600.90 645.10 L 626.50 643.50 L 651.80 640.40 L 664.30 638.20 L 676.80 635.60 L 689.10 632.50 L 701.30 628.90 L 713.40 624.80 L 725.30 620.10 L 737.10 614.90 L 748.80 609.10 L 756.00 605.10 L 762.80 600.90 L 769.30 596.20 L 775.50 591.20 L 781.40 585.90 L 787.00 580.20 L 792.30 574.30 L 797.20 568.10 L 801.80 561.60 L 810.00 548.00 L 813.60 540.80 L 819.80 526.10 L 824.60 510.80 L 827.00 500.40 L 828.80 489.80 L 829.90 479.20 L 850.60 470.10 L 827.30 470.30 L 804.10 471.00 L 780.90 472.30 L 734.60 476.00 L 676.80 482.40 L 572.80 495.00 L 549.60 497.50 L 503.40 501.50 L 480.20 503.00 L 457.00 503.90 L 433.80 504.30 L 416.40 504.20 L 399.00 503.60 L 381.50 502.70 L 364.00 501.30 Z M 144.30 668.60 L 145.60 674.80 L 150.30 703.50 L 153.30 715.30 L 156.70 723.80 L 158.90 727.80 L 161.50 731.30 L 164.50 734.50 L 169.60 738.40 L 176.10 741.30 L 169.60 708.70 L 166.50 697.90 L 164.60 692.70 L 162.40 687.70 L 159.70 683.10 L 156.70 678.80 L 154.10 675.90 L 151.20 673.20 L 147.90 670.80 L 144.30 668.60 Z M 189.10 792.30 L 195.70 788.80 L 199.60 787.40 L 203.80 786.20 L 208.10 785.40 L 212.10 785.10 L 214.70 785.30 L 218.90 786.60 L 220.60 787.80 L 221.90 789.30 L 222.80 791.40 L 223.20 793.70 L 223.10 796.70 L 222.20 800.50 L 221.30 803.10 L 220.10 804.80 L 218.90 805.80 L 217.50 806.30 L 215.80 806.40 L 214.00 806.00 L 211.20 804.90 L 208.00 803.00 L 195.80 794.40 L 193.00 792.90 L 190.90 792.30 L 191.30 796.10 L 192.20 799.70 L 193.60 803.00 L 195.30 806.10 L 197.40 808.80 L 199.80 811.30 L 202.50 813.40 L 205.30 815.20 L 208.20 816.50 L 211.30 817.40 L 214.40 817.90 L 217.60 817.90 L 220.60 817.30 L 223.50 816.20 L 226.40 814.60 L 230.10 811.10 L 231.80 808.70 L 233.50 805.80 L 234.60 802.50 L 235.30 799.40 L 235.50 796.50 L 235.40 793.80 L 234.60 790.20 L 233.30 786.90 L 231.40 783.90 L 229.10 781.10 L 226.40 778.80 L 223.40 776.80 L 220.20 775.20 L 216.80 774.00 L 213.30 773.30 L 209.80 773.10 L 206.30 773.40 L 203.00 774.20 L 198.30 776.50 L 194.30 780.30 L 192.60 782.60 L 191.20 785.30 L 190.00 788.50 L 189.10 792.30 Z M 617.60 773.10 L 616.00 775.10 L 614.70 777.90 L 613.80 781.00 L 613.30 784.30 L 613.30 787.70 L 613.70 790.80 L 614.30 792.80 L 616.30 795.80 L 617.70 796.90 L 619.40 797.60 L 621.40 797.90 L 622.90 795.80 L 624.20 793.00 L 625.10 789.90 L 625.60 786.50 L 625.60 783.20 L 625.10 780.10 L 624.50 778.10 L 622.60 775.10 L 621.20 774.00 L 619.60 773.40 L 617.60 773.10 Z" fill="#fab049" fill-rule="nonzero" node-id="76" stroke="none" target-height="857" target-width="794.5" target-x="114.2" target-y="82.4"></path><path d="M 654.50 502.80 L 683.60 499.90 L 712.80 498.10 L 711.10 503.50 L 705.10 526.80 L 701.60 536.10 L 697.80 542.70 L 695.50 545.70 L 692.80 548.40 L 689.70 550.80 L 683.40 549.30 L 678.20 546.50 L 675.20 544.00 L 672.40 541.10 L 669.80 537.80 L 666.60 532.30 L 663.70 526.40 L 654.50 502.80 Z" fill="#fefdfc" fill-rule="nonzero" node-id="78" stroke="none" target-height="52.69998" target-width="58.299988" target-x="654.5" target-y="498.1"></path><path d="M 289.30 122.00 L 304.60 115.20 L 320.00 108.90 L 335.70 103.10 L 351.50 97.80 L 367.60 93.00 L 383.70 88.70 L 400.00 84.90 L 416.40 81.60 L 433.00 78.80 L 449.50 76.50 L 466.20 74.70 L 482.90 73.30 L 499.60 72.40 L 516.30 72.00 L 532.90 72.10 L 549.60 72.60 L 585.60 77.40 L 603.70 80.40 L 621.70 83.80 L 639.50 87.90 L 657.20 92.40 L 670.40 96.30 L 683.30 100.60 L 696.10 105.40 L 708.80 110.60 L 721.20 116.20 L 733.30 122.40 L 745.20 129.10 L 756.90 136.50 L 770.00 132.80 L 783.30 129.70 L 796.90 127.20 L 807.20 125.70 L 817.40 124.70 L 827.70 124.00 L 838.00 123.80 L 848.30 124.10 L 858.60 124.90 L 868.70 126.20 L 878.70 128.00 L 886.70 129.90 L 894.50 132.20 L 902.30 134.90 L 909.90 138.10 L 917.40 141.60 L 888.30 161.40 L 878.70 168.40 L 872.60 173.40 L 866.70 178.50 L 861.30 184.00 L 853.90 192.80 L 847.70 202.40 L 845.10 207.60 L 843.00 213.00 L 841.20 218.80 L 839.90 224.90 L 869.20 299.70 L 876.20 318.50 L 882.70 337.50 L 886.70 350.30 L 890.30 363.20 L 893.50 376.30 L 898.70 394.70 L 903.30 413.10 L 907.30 431.60 L 910.70 450.20 L 913.50 468.90 L 915.70 487.60 L 917.40 506.40 L 918.50 525.20 L 919.10 544.00 L 919.30 562.90 L 918.90 581.80 L 918.10 600.70 L 916.80 619.60 L 915.10 638.40 L 912.90 657.30 L 909.70 680.80 L 905.90 704.20 L 901.50 727.50 L 896.50 750.70 L 891.10 773.80 L 885.20 796.70 L 878.80 819.40 L 872.10 841.90 L 869.10 828.20 L 886.20 756.30 L 894.80 716.20 L 900.60 683.90 L 903.00 667.60 L 904.90 651.30 L 906.30 634.90 L 907.50 614.60 L 908.70 573.80 L 908.70 553.50 L 908.20 533.10 L 907.20 512.70 L 906.00 497.50 L 902.70 467.20 L 900.50 452.10 L 897.90 437.00 L 894.80 422.10 L 891.40 407.20 L 881.90 371.80 L 869.90 330.00 L 863.20 309.30 L 858.40 295.60 L 847.70 268.70 L 841.80 255.50 L 835.30 242.70 L 828.40 230.20 L 822.80 221.00 L 816.90 212.10 L 810.70 203.40 L 804.10 194.90 L 797.10 186.80 L 789.70 178.90 L 781.80 171.30 L 766.00 157.10 L 758.20 150.70 L 750.20 144.80 L 741.90 139.20 L 733.40 134.00 L 715.90 124.70 L 706.90 120.50 L 694.70 115.40 L 682.20 110.80 L 669.50 106.60 L 656.70 102.90 L 630.70 96.30 L 611.20 92.20 L 591.70 88.50 L 577.50 86.20 L 563.30 84.40 L 549.10 83.20 L 534.90 82.60 L 520.60 82.40 L 506.30 82.60 L 492.10 83.30 L 477.80 84.40 L 458.90 86.40 L 440.00 89.00 L 421.10 92.10 L 383.70 99.50 L 353.70 106.70 L 342.30 110.20 L 331.10 114.20 L 320.10 118.70 L 309.30 123.70 L 298.70 129.20 L 288.50 135.20 L 278.50 141.70 L 268.80 148.70 L 259.60 156.10 L 250.70 164.00 L 242.30 172.30 L 235.80 179.30 L 229.70 186.60 L 223.90 194.10 L 218.50 201.90 L 213.30 210.00 L 206.90 221.20 L 201.00 232.60 L 195.40 244.20 L 185.20 267.70 L 173.90 297.90 L 167.70 316.20 L 155.90 353.00 L 142.60 399.10 L 136.30 422.30 L 130.50 445.70 L 123.80 477.10 L 120.90 492.80 L 118.50 508.60 L 116.60 524.50 L 115.20 540.40 L 114.20 564.40 L 114.60 588.50 L 116.70 614.70 L 118.30 627.70 L 121.30 647.10 L 125.00 666.40 L 133.70 704.80 L 143.30 743.00 L 133.90 736.30 L 128.90 720.60 L 124.30 704.70 L 120.20 688.70 L 116.40 672.50 L 113.10 656.30 L 110.30 640.00 L 107.90 623.60 L 106.10 607.10 L 104.80 590.60 L 104.10 574.20 L 104.00 557.70 L 104.50 541.20 L 105.30 528.00 L 106.60 514.80 L 108.30 501.70 L 110.40 488.60 L 112.90 475.50 L 119.50 446.10 L 126.70 416.90 L 134.40 387.70 L 140.50 366.00 L 154.00 322.80 L 161.30 301.50 L 169.00 280.20 L 177.10 259.20 L 185.80 238.30 L 194.80 217.60 L 192.90 211.50 L 190.60 205.60 L 187.90 200.20 L 185.00 195.00 L 180.50 188.40 L 175.60 182.10 L 170.20 176.30 L 164.50 170.80 L 158.40 165.60 L 152.00 160.60 L 142.10 153.60 L 131.80 147.00 L 111.00 134.60 L 116.30 127.90 L 124.40 124.20 L 132.70 120.90 L 141.00 118.00 L 149.40 115.60 L 158.00 113.70 L 175.40 110.80 L 184.20 109.90 L 195.90 109.30 L 207.70 109.30 L 219.60 109.80 L 231.40 110.80 L 243.20 112.20 L 254.90 114.10 L 266.50 116.40 L 289.30 122.00 Z M 128.50 135.00 L 136.30 139.30 L 151.40 149.00 L 158.60 154.30 L 165.40 160.00 L 171.80 166.00 L 177.90 172.50 L 183.40 179.30 L 188.50 186.50 L 191.90 192.20 L 195.00 198.10 L 197.70 204.40 L 200.10 210.90 L 205.30 202.90 L 216.40 187.90 L 230.70 171.50 L 239.30 162.60 L 248.20 153.90 L 275.90 128.80 L 263.70 126.30 L 251.30 124.20 L 238.90 122.60 L 226.50 121.50 L 214.00 121.00 L 201.60 121.00 L 183.00 122.20 L 164.50 124.90 L 155.40 126.80 L 146.40 129.10 L 137.40 131.80 L 128.50 135.00 Z M 765.30 143.90 L 789.80 167.30 L 801.80 179.30 L 813.30 191.60 L 820.70 200.10 L 827.70 209.00 L 834.40 218.10 L 837.40 210.20 L 841.00 202.60 L 845.00 195.30 L 849.50 188.50 L 854.40 181.80 L 859.70 175.50 L 865.30 169.50 L 871.30 163.80 L 879.70 156.60 L 888.50 149.80 L 897.70 143.50 L 886.80 141.10 L 875.80 139.10 L 864.80 137.50 L 853.70 136.50 L 842.60 135.80 L 831.50 135.60 L 820.40 135.90 L 809.30 136.60 L 798.20 137.70 L 787.20 139.40 L 776.30 141.40 L 765.30 143.90 Z" fill="#42453d" fill-rule="nonzero" node-id="80" stroke="none" target-height="769.9" target-width="815.3" target-x="104" target-y="72"></path><path d="M 425.70 119.30 L 474.70 111.80 L 487.00 110.40 L 499.30 109.50 L 507.50 109.40 L 515.80 109.60 L 524.00 110.30 L 524.60 113.20 L 524.70 115.50 L 524.20 117.20 L 523.30 118.80 L 522.10 120.10 L 520.40 121.20 L 517.60 122.40 L 514.30 123.30 L 501.50 125.30 L 483.80 126.50 L 466.20 128.20 L 448.70 130.60 L 431.20 133.50 L 413.90 136.90 L 396.70 140.80 L 362.40 149.80 L 345.50 154.80 L 344.10 141.90 L 350.40 138.70 L 356.90 135.80 L 363.50 133.30 L 373.60 130.20 L 394.30 125.30 L 425.70 119.30 Z" fill="#563b39" fill-rule="nonzero" node-id="82" stroke="none" target-height="45.4" target-width="180.6" target-x="344.1" target-y="109.4"></path><path d="M 128.40 135.00 L 137.40 131.80 L 146.40 129.10 L 155.40 126.80 L 164.50 124.90 L 183.00 122.20 L 201.60 121.00 L 214.00 121.00 L 226.50 121.50 L 238.90 122.60 L 251.30 124.20 L 263.70 126.30 L 275.90 128.80 L 248.20 153.90 L 239.30 162.60 L 230.70 171.50 L 216.40 187.90 L 205.30 202.90 L 200.10 210.90 L 197.70 204.40 L 195.00 198.10 L 191.90 192.20 L 188.50 186.50 L 183.40 179.30 L 177.90 172.50 L 171.80 166.00 L 165.40 160.00 L 158.60 154.30 L 151.40 149.00 L 136.30 139.30 L 128.40 135.00 Z" fill="#fbb145" fill-rule="nonzero" node-id="84" stroke="none" target-height="89.899994" target-width="147.5" target-x="128.4" target-y="121"></path><path d="M 765.30 143.90 L 776.30 141.40 L 787.20 139.40 L 798.20 137.70 L 809.30 136.60 L 820.40 135.90 L 831.50 135.60 L 842.60 135.80 L 853.70 136.50 L 864.80 137.50 L 875.80 139.10 L 886.80 141.10 L 897.70 143.50 L 888.50 149.80 L 879.70 156.60 L 871.30 163.80 L 865.30 169.50 L 859.70 175.50 L 854.40 181.80 L 849.50 188.50 L 845.00 195.30 L 841.00 202.60 L 837.40 210.20 L 834.40 218.10 L 827.70 209.00 L 820.70 200.10 L 813.30 191.60 L 801.80 179.30 L 789.80 167.30 L 765.30 143.90 Z" fill="#fab446" fill-rule="nonzero" node-id="86" stroke="none" target-height="82.5" target-width="132.40002" target-x="765.3" target-y="135.6"></path><path d="M 388.10 181.40 L 411.90 182.60 L 435.70 183.40 L 459.60 183.70 L 483.40 183.50 L 507.20 182.80 L 531.00 181.30 L 542.70 181.40 L 545.70 181.70 L 548.10 182.50 L 549.60 183.20 L 550.60 184.30 L 551.30 185.60 L 551.60 187.00 L 551.50 189.00 L 550.70 191.60 L 547.20 194.00 L 543.40 195.80 L 539.50 197.10 L 531.30 198.60 L 507.60 199.50 L 501.40 200.00 L 487.40 200.10 L 459.10 201.00 L 435.50 201.10 L 416.80 199.80 L 407.60 198.60 L 398.40 196.70 L 389.30 194.30 L 388.10 181.40 Z" fill="#3a2f3b" fill-rule="nonzero" node-id="88" stroke="none" target-height="19.800003" target-width="163.49997" target-x="388.1" target-y="181.3"></path><path d="M 475.50 262.90 L 511.80 263.10 L 511.00 265.90 L 509.70 268.50 L 507.80 270.80 L 505.60 272.80 L 503.10 274.50 L 497.20 277.00 L 491.10 278.10 L 488.00 278.10 L 485.20 277.70 L 482.50 276.90 L 480.10 275.70 L 478.20 274.10 L 476.70 272.00 L 475.90 270.30 L 475.30 265.80 L 475.50 262.90 Z" fill="#724d2d" fill-rule="nonzero" node-id="90" stroke="none" target-height="15.200012" target-width="36.5" target-x="475.3" target-y="262.9"></path><path d="M 272.90 500.50 L 300.80 505.60 L 328.70 511.10 L 324.50 523.90 L 319.60 536.50 L 317.60 540.50 L 312.90 548.10 L 310.20 551.60 L 307.00 554.80 L 303.50 557.70 L 299.90 557.70 L 296.80 557.30 L 294.00 556.50 L 291.60 555.30 L 288.60 553.30 L 286.10 550.80 L 283.90 547.80 L 280.50 540.80 L 277.70 530.60 L 273.90 505.50 L 272.90 500.50 Z" fill="#fcfbf9" fill-rule="nonzero" node-id="92" stroke="none" target-height="57.200012" target-width="55.80002" target-x="272.9" target-y="500.5"></path><path d="M 367.90 517.30 L 426.20 521.30 L 421.00 531.30 L 413.90 547.30 L 409.20 555.50 L 404.60 561.40 L 402.00 563.90 L 399.00 566.20 L 395.70 568.10 L 392.00 566.10 L 388.90 563.70 L 386.10 561.00 L 381.60 554.80 L 377.40 545.80 L 370.00 522.60 L 367.90 517.30 Z" fill="#fcfbf9" fill-rule="nonzero" node-id="94" stroke="none" target-height="50.799988" target-width="58.30002" target-x="367.9" target-y="517.3"></path><path d="M 390.20 333.20 L 399.00 335.10 L 403.50 336.50 L 407.80 338.30 L 416.00 342.60 L 419.80 345.20 L 423.20 348.10 L 426.30 351.30 L 429.00 354.80 L 431.20 358.60 L 433.00 362.70 L 434.60 369.30 L 434.80 372.90 L 434.80 381.40 L 434.30 385.80 L 433.40 390.00 L 432.10 394.10 L 430.40 398.10 L 426.10 405.30 L 423.40 408.70 L 419.40 412.80 L 415.00 416.40 L 410.20 419.50 L 405.10 422.10 L 399.80 424.00 L 394.30 425.40 L 390.00 426.00 L 385.80 426.20 L 381.60 426.00 L 377.40 425.40 L 373.20 424.40 L 369.20 422.90 L 365.20 420.90 L 357.40 416.00 L 354.00 413.30 L 351.10 410.50 L 348.60 407.30 L 346.40 403.90 L 344.60 400.30 L 343.20 396.60 L 342.10 392.70 L 341.20 384.70 L 341.60 376.50 L 342.70 371.20 L 344.40 366.00 L 346.70 360.90 L 348.90 357.30 L 354.00 350.80 L 357.10 347.90 L 379.60 368.80 L 382.20 366.30 L 384.40 363.70 L 387.60 358.30 L 389.10 354.40 L 390.00 350.40 L 390.50 346.20 L 390.60 339.80 L 390.20 333.20 Z" fill="#3b3645" fill-rule="nonzero" node-id="96" stroke="none" target-height="93" target-width="93.599976" target-x="341.2" target-y="333.2"></path><path d="M 646.50 330.60 L 659.50 332.80 L 663.80 333.80 L 672.00 336.80 L 675.90 338.70 L 679.50 341.00 L 682.80 343.70 L 685.70 346.70 L 688.30 350.30 L 690.50 354.50 L 692.30 358.50 L 693.70 362.50 L 694.60 366.40 L 695.10 370.50 L 695.30 374.50 L 694.40 382.50 L 693.50 386.40 L 691.70 391.50 L 689.40 396.40 L 686.60 401.10 L 683.30 405.50 L 679.70 409.50 L 675.60 413.10 L 671.20 416.30 L 666.60 419.00 L 661.70 421.20 L 657.90 422.50 L 650.10 423.90 L 646.00 424.10 L 642.00 423.80 L 637.90 423.10 L 633.80 422.00 L 625.20 418.60 L 621.20 416.50 L 617.70 414.10 L 614.50 411.40 L 611.70 408.20 L 609.20 404.90 L 607.10 401.30 L 605.40 397.50 L 603.10 389.50 L 602.50 385.30 L 602.50 376.80 L 603.90 368.40 L 605.20 364.30 L 606.90 360.30 L 608.90 356.50 L 611.40 352.90 L 614.20 349.50 L 625.20 357.70 L 636.60 365.60 L 639.50 364.60 L 641.70 363.20 L 643.30 361.60 L 644.50 359.60 L 645.40 357.30 L 645.90 354.80 L 646.20 350.90 L 645.80 338.20 L 645.90 334.10 L 646.50 330.60 Z" fill="#3b3745" fill-rule="nonzero" node-id="98" stroke="none" target-height="93.5" target-width="92.79999" target-x="602.5" target-y="330.6"></path><path d="M 192.30 427.40 L 191.70 425.30 L 191.60 423.20 L 191.80 420.90 L 193.30 416.60 L 194.50 414.50 L 196.70 411.60 L 199.40 409.20 L 201.30 407.90 L 205.50 406.30 L 207.60 406.00 L 209.70 406.20 L 211.90 406.90 L 212.30 409.30 L 212.10 411.80 L 211.40 414.50 L 208.70 419.30 L 204.60 423.50 L 199.80 426.40 L 197.20 427.30 L 194.70 427.60 L 192.30 427.40 Z" fill="#5f4423" fill-rule="nonzero" node-id="100" stroke="none" target-height="21.600006" target-width="20.699997" target-x="191.6" target-y="406"></path><path d="M 213.20 444.90 L 216.90 436.60 L 221.20 428.60 L 224.40 423.40 L 228.00 418.60 L 231.90 414.10 L 235.10 411.00 L 242.30 405.60 L 246.30 403.20 L 246.10 408.00 L 245.30 412.60 L 243.90 417.10 L 241.90 421.30 L 239.50 425.40 L 236.60 429.20 L 233.40 432.70 L 229.80 435.80 L 226.00 438.70 L 221.80 441.20 L 217.60 443.20 L 213.20 444.90 Z" fill="#85592e" fill-rule="nonzero" node-id="102" stroke="none" target-height="41.69998" target-width="33.100006" target-x="213.2" target-y="403.2"></path><path d="M 820.90 408.10 L 823.40 407.40 L 826.00 407.30 L 828.80 407.60 L 834.30 409.50 L 837.00 411.00 L 841.90 414.90 L 845.70 419.60 L 848.10 424.70 L 848.60 427.40 L 848.60 430.10 L 848.00 432.70 L 845.20 432.40 L 842.20 431.70 L 839.10 430.40 L 833.10 426.90 L 827.60 422.20 L 823.50 416.80 L 822.00 413.80 L 821.20 410.90 L 820.90 408.10 Z" fill="#5c4428" fill-rule="nonzero" node-id="104" stroke="none" target-height="25.400024" target-width="27.699951" target-x="820.9" target-y="407.3"></path><path d="M 800.90 423.50 L 803.10 422.90 L 805.40 422.70 L 810.20 423.50 L 814.90 425.70 L 818.20 428.10 L 821.10 430.90 L 824.10 435.20 L 825.80 439.80 L 826.10 442.10 L 825.90 444.30 L 821.40 444.80 L 819.00 444.50 L 815.40 443.40 L 811.90 441.60 L 808.60 439.30 L 805.70 436.60 L 802.70 432.50 L 801.00 428.00 L 800.80 425.80 L 800.90 423.50 Z" fill="#594025" fill-rule="nonzero" node-id="106" stroke="none" target-height="22.099976" target-width="25.299988" target-x="800.8" target-y="422.7"></path><path d="M 364.00 501.30 L 381.50 502.70 L 399.00 503.60 L 416.40 504.20 L 433.80 504.30 L 457.00 503.90 L 480.20 503.00 L 503.40 501.50 L 549.60 497.50 L 572.80 495.00 L 676.80 482.40 L 734.60 476.00 L 780.90 472.30 L 804.10 471.00 L 827.30 470.30 L 850.60 470.10 L 829.90 479.20 L 828.80 489.80 L 827.00 500.40 L 824.60 510.80 L 819.80 526.10 L 813.60 540.80 L 810.00 548.00 L 806.10 554.90 L 797.20 568.10 L 792.30 574.30 L 787.00 580.20 L 781.40 585.90 L 775.50 591.20 L 769.30 596.20 L 762.80 600.90 L 756.00 605.10 L 748.80 609.10 L 737.10 614.90 L 725.30 620.10 L 713.40 624.80 L 701.30 628.90 L 689.10 632.50 L 676.80 635.60 L 664.30 638.20 L 651.80 640.40 L 626.50 643.50 L 613.70 644.50 L 600.90 645.10 L 583.70 645.40 L 566.60 645.10 L 549.40 644.40 L 515.10 641.50 L 498.00 639.50 L 472.60 636.00 L 447.50 632.00 L 401.30 621.80 L 385.90 618.10 L 355.40 609.70 L 340.40 604.90 L 325.50 599.50 L 310.90 593.60 L 300.20 588.80 L 289.60 583.50 L 279.20 577.80 L 269.00 571.60 L 257.00 563.00 L 251.20 558.10 L 245.60 552.90 L 240.50 547.50 L 235.60 541.70 L 231.20 535.60 L 227.30 529.20 L 223.90 522.70 L 221.70 517.60 L 218.50 507.10 L 217.40 501.60 L 216.80 496.20 L 216.70 490.60 L 217.00 484.90 L 217.90 479.00 L 236.20 481.20 L 254.50 484.00 L 327.30 496.80 L 351.70 500.10 L 364.00 501.30 Z M 747.80 492.00 L 753.20 507.40 L 755.50 512.80 L 759.30 519.50 L 761.50 522.30 L 764.00 524.80 L 766.70 526.70 L 769.70 528.10 L 772.00 528.60 L 774.60 528.80 L 777.40 528.50 L 780.60 527.70 L 783.40 524.10 L 785.60 520.40 L 787.50 516.40 L 789.80 510.20 L 795.30 491.20 L 779.40 491.10 L 747.80 492.00 Z M 654.50 502.80 L 663.70 526.40 L 666.60 532.30 L 669.80 537.80 L 672.40 541.10 L 675.20 544.00 L 678.20 546.50 L 683.40 549.30 L 689.70 550.80 L 692.80 548.40 L 695.50 545.70 L 697.80 542.70 L 701.60 536.10 L 705.10 526.80 L 711.10 503.50 L 712.80 498.10 L 683.60 499.90 L 654.50 502.80 Z M 272.90 500.50 L 273.90 505.50 L 277.70 530.60 L 280.50 540.80 L 283.90 547.80 L 286.10 550.80 L 288.60 553.30 L 291.60 555.30 L 294.00 556.50 L 296.80 557.30 L 299.90 557.70 L 303.50 557.70 L 307.00 554.80 L 310.20 551.60 L 312.90 548.10 L 317.60 540.50 L 319.60 536.50 L 324.50 523.90 L 328.70 511.10 L 300.80 505.60 L 272.90 500.50 Z M 571.20 512.40 L 573.30 516.50 L 575.30 521.30 L 580.90 537.30 L 583.10 542.40 L 584.70 545.70 L 588.40 551.30 L 590.60 553.60 L 593.00 555.50 L 595.80 556.90 L 600.40 558.00 L 606.10 557.70 L 609.80 552.30 L 616.30 541.10 L 620.40 532.30 L 624.20 523.30 L 631.00 505.20 L 601.00 508.50 L 571.20 512.40 Z M 367.90 517.30 L 370.00 522.60 L 377.40 545.80 L 381.60 554.80 L 386.10 561.00 L 388.90 563.70 L 392.00 566.10 L 395.70 568.10 L 399.00 566.20 L 402.00 563.90 L 404.60 561.40 L 409.20 555.50 L 413.90 547.30 L 421.00 531.30 L 426.20 521.30 L 367.90 517.30 Z M 473.30 520.90 L 479.00 535.50 L 482.20 542.70 L 485.80 549.60 L 488.60 554.00 L 491.70 558.10 L 495.20 561.80 L 498.00 564.40 L 504.60 568.80 L 508.30 570.60 L 513.30 564.50 L 518.00 558.10 L 522.20 551.50 L 526.00 544.70 L 530.60 535.40 L 534.80 525.80 L 538.40 516.00 L 505.90 518.80 L 473.30 520.90 Z M 745.80 549.80 L 744.40 570.70 L 743.40 591.90 L 756.00 583.00 L 763.90 576.50 L 767.50 572.90 L 770.70 569.00 L 773.50 564.70 L 775.90 560.10 L 768.60 556.70 L 761.20 553.90 L 753.60 551.60 L 745.80 549.80 Z M 331.00 586.70 L 364.90 596.10 L 359.70 581.70 L 354.00 567.70 L 351.40 566.90 L 349.20 566.60 L 347.30 566.90 L 343.90 568.60 L 342.30 570.00 L 340.30 572.50 L 333.00 584.40 L 331.00 586.70 Z M 472.70 575.20 L 469.40 577.50 L 466.60 580.10 L 464.20 583.10 L 462.00 586.30 L 458.50 593.20 L 450.30 615.40 L 495.20 620.40 L 493.60 615.80 L 488.70 594.20 L 487.00 589.10 L 485.60 585.90 L 483.80 583.10 L 481.70 580.50 L 479.30 578.30 L 476.30 576.50 L 472.70 575.20 Z M 658.20 621.10 L 680.00 616.50 L 701.60 611.40 L 695.50 592.50 L 693.60 587.60 L 691.30 583.30 L 689.50 580.60 L 687.40 578.30 L 685.00 576.40 L 682.40 575.00 L 679.30 574.00 L 675.70 573.60 L 672.60 575.60 L 670.00 577.90 L 667.80 580.50 L 664.60 586.40 L 662.00 594.70 L 658.20 621.10 Z M 568.50 627.80 L 616.40 625.90 L 614.20 605.60 L 612.30 594.40 L 609.50 586.00 L 607.60 582.10 L 605.10 578.40 L 602.00 574.80 L 597.50 577.90 L 593.40 581.40 L 589.80 585.20 L 583.60 593.70 L 581.00 598.30 L 577.50 605.40 L 568.50 627.80 Z" fill="#3b3845" fill-rule="nonzero" node-id="108" stroke="none" target-height="175.30002" target-width="633.89996" target-x="216.7" target-y="470.1"></path><path d="M 747.80 492.00 L 779.40 491.10 L 795.30 491.20 L 789.80 510.20 L 787.50 516.40 L 785.60 520.40 L 783.40 524.10 L 780.60 527.70 L 777.40 528.50 L 774.60 528.80 L 772.00 528.60 L 769.70 528.10 L 766.70 526.70 L 764.00 524.80 L 761.50 522.30 L 759.30 519.50 L 755.50 512.80 L 753.20 507.40 L 747.80 492.00 Z" fill="#fdfcfb" fill-rule="nonzero" node-id="110" stroke="none" target-height="37.69998" target-width="47.5" target-x="747.8" target-y="491.1"></path><path d="M 571.20 512.40 L 601.00 508.50 L 631.00 505.20 L 624.20 523.30 L 620.40 532.30 L 616.30 541.10 L 609.80 552.30 L 606.10 557.70 L 600.40 558.00 L 595.80 556.90 L 593.00 555.50 L 590.60 553.60 L 588.40 551.30 L 584.70 545.70 L 583.10 542.40 L 580.90 537.30 L 575.30 521.30 L 573.30 516.50 L 571.20 512.40 Z" fill="#fdfcfb" fill-rule="nonzero" node-id="112" stroke="none" target-height="52.799988" target-width="59.799988" target-x="571.2" target-y="505.2"></path><path d="M 568.50 627.80 L 577.50 605.40 L 581.00 598.30 L 583.60 593.70 L 589.80 585.20 L 593.40 581.40 L 597.50 577.90 L 602.00 574.80 L 605.10 578.40 L 607.60 582.10 L 609.50 586.00 L 612.30 594.40 L 614.20 605.60 L 616.40 625.90 L 568.50 627.80 Z" fill="#fdfdfb" fill-rule="nonzero" node-id="114" stroke="none" target-height="53" target-width="47.900024" target-x="568.5" target-y="574.8"></path><path d="M 144.30 668.60 L 147.90 670.80 L 151.20 673.20 L 154.10 675.90 L 156.70 678.80 L 159.70 683.10 L 162.40 687.70 L 164.60 692.70 L 168.20 703.20 L 169.60 708.70 L 176.10 741.30 L 172.70 740.00 L 166.90 736.60 L 164.40 734.50 L 161.50 731.30 L 158.90 727.80 L 156.70 723.80 L 154.90 719.70 L 151.90 710.60 L 150.30 703.50 L 145.60 674.80 L 144.30 668.60 Z" fill="#755236" fill-rule="nonzero" node-id="116" stroke="none" target-height="72.70001" target-width="31.800003" target-x="144.3" target-y="668.6"></path><path d="M 133.90 736.30 L 143.30 743.00 L 146.90 751.90 L 153.30 770.20 L 157.70 784.30 L 170.00 827.10 L 174.40 841.20 L 179.30 855.00 L 182.90 864.10 L 186.90 872.90 L 191.20 881.40 L 195.90 889.80 L 201.20 897.80 L 206.90 905.50 L 211.60 911.00 L 216.60 916.40 L 222.10 921.50 L 228.00 926.40 L 250.30 900.00 L 268.20 915.60 L 278.90 923.20 L 288.20 927.90 L 293.00 929.70 L 298.20 931.00 L 303.60 931.90 L 308.00 914.90 L 313.20 898.30 L 316.90 899.70 L 320.30 901.40 L 323.40 903.50 L 327.80 907.20 L 331.80 911.30 L 335.50 915.90 L 346.00 930.40 L 353.40 939.40 L 359.70 934.00 L 364.20 928.10 L 366.60 923.80 L 368.40 919.30 L 369.70 914.60 L 371.10 904.80 L 371.30 899.60 L 371.10 891.80 L 368.80 860.40 L 368.80 853.10 L 383.60 856.90 L 398.40 860.20 L 413.20 863.00 L 428.10 865.40 L 443.10 867.40 L 461.90 869.20 L 480.70 870.40 L 499.60 871.00 L 518.50 870.90 L 537.40 870.20 L 556.30 869.00 L 575.10 867.20 L 593.90 864.80 L 612.70 861.90 L 631.30 858.50 L 649.80 854.60 L 668.10 850.30 L 666.20 883.50 L 666.10 894.70 L 666.50 902.10 L 667.30 909.40 L 668.60 916.50 L 669.90 921.80 L 671.60 927.10 L 673.80 932.20 L 676.40 937.30 L 680.30 936.10 L 683.90 934.40 L 687.20 932.30 L 693.10 927.20 L 699.70 919.50 L 710.90 904.70 L 713.60 901.70 L 719.50 896.30 L 721.50 900.60 L 727.20 920.70 L 729.00 925.40 L 730.60 928.30 L 732.40 930.90 L 734.50 933.20 L 736.90 935.10 L 739.90 936.60 L 743.50 937.70 L 747.60 935.50 L 755.40 930.40 L 766.30 921.50 L 787.10 902.40 L 811.10 928.20 L 816.70 923.30 L 826.90 912.80 L 831.50 907.20 L 837.30 899.30 L 842.60 891.20 L 847.50 882.70 L 851.90 874.00 L 856.00 865.10 L 859.70 856.00 L 864.70 842.20 L 869.10 828.20 L 872.10 841.90 L 868.20 855.10 L 863.80 868.40 L 860.50 877.20 L 852.90 894.20 L 848.40 902.40 L 843.50 910.20 L 838.20 917.70 L 833.80 923.00 L 829.10 928.10 L 824.10 932.80 L 818.60 937.30 L 816.20 939.30 L 813.90 940.60 L 811.70 941.30 L 806.90 941.50 L 804.50 941.00 L 801.00 939.80 L 797.40 938.00 L 784.00 930.30 L 757.80 952.00 L 727.80 952.00 L 723.90 948.10 L 720.40 943.90 L 717.30 939.40 L 714.50 934.70 L 709.80 925.00 L 699.80 938.80 L 688.90 952.00 L 668.10 952.00 L 664.60 947.10 L 661.60 942.10 L 659.00 937.00 L 656.80 931.70 L 654.50 924.50 L 652.70 917.10 L 651.40 909.60 L 650.20 894.20 L 650.50 874.90 L 651.30 863.40 L 633.80 867.10 L 616.30 870.30 L 598.70 873.00 L 581.00 875.20 L 563.20 876.80 L 545.40 877.90 L 527.60 878.60 L 509.80 878.70 L 492.00 878.40 L 474.10 877.60 L 456.30 876.40 L 438.50 874.70 L 420.80 872.60 L 403.20 870.00 L 385.70 867.10 L 386.50 894.20 L 386.40 903.40 L 386.10 909.50 L 384.50 921.40 L 383.00 927.10 L 381.00 932.60 L 378.50 937.90 L 376.20 941.60 L 373.50 945.20 L 370.30 948.70 L 366.60 952.00 L 350.60 952.00 L 338.20 938.70 L 326.60 925.00 L 317.00 938.90 L 313.50 943.30 L 308.00 948.30 L 304.80 950.50 L 300.20 950.50 L 295.80 950.00 L 291.50 949.00 L 283.30 945.70 L 273.40 940.20 L 256.40 929.40 L 243.20 936.90 L 239.70 938.60 L 236.30 939.80 L 231.60 940.50 L 229.30 940.30 L 227.10 939.70 L 224.90 938.50 L 222.50 936.70 L 216.90 932.20 L 211.60 927.50 L 206.70 922.50 L 202.20 917.10 L 196.60 909.60 L 191.50 901.70 L 186.90 893.50 L 182.70 884.90 L 178.90 876.20 L 175.50 867.40 L 170.80 853.90 L 156.40 805.60 L 133.90 736.30 Z" fill="#352e3d" fill-rule="nonzero" node-id="118" stroke="none" target-height="215.70001" target-width="738.19995" target-x="133.9" target-y="736.3"></path><path d="M 617.60 773.10 L 619.60 773.40 L 621.20 774.00 L 622.60 775.10 L 624.50 778.10 L 625.10 780.10 L 625.60 783.20 L 625.60 786.50 L 625.10 789.90 L 624.20 793.00 L 622.90 795.80 L 621.40 797.90 L 619.40 797.60 L 617.70 796.90 L 616.30 795.80 L 614.30 792.80 L 613.70 790.80 L 613.30 787.70 L 613.30 784.30 L 613.80 781.00 L 614.70 777.90 L 616.00 775.10 L 617.60 773.10 Z" fill="#d4943f" fill-rule="nonzero" node-id="120" stroke="none" target-height="24.800049" target-width="12.299988" target-x="613.3" target-y="773.1"></path></svg>