<?xml version="1.0" standalone="no"?><!DOCTYPE svg PUBLIC "-//W3C//DTD SVG 1.1//EN" "http://www.w3.org/Graphics/SVG/1.1/DTD/svg11.dtd"><svg height="1024" node-id="1" sillyvg="true" template-height="1024" template-width="1024" version="1.1" viewBox="0 0 1024 1024" width="1024" xmlns="http://www.w3.org/2000/svg" xmlns:xlink="http://www.w3.org/1999/xlink"><defs node-id="62"></defs><path d="M 0.00 0.00 L 1024.00 0.00 L 1024.00 1024.00 L 0.00 1024.00 Z" fill="#ffffff" fill-rule="nonzero" node-id="64" stroke="none" target-height="1024" target-width="1024" target-x="0" target-y="0"></path><path d="M 596.40 457.40 L 612.20 443.70 L 613.10 472.70 L 596.40 457.40 Z" fill="#ffffff" fill-rule="nonzero" node-id="66" stroke="none" target-height="29" target-width="16.699951" target-x="596.4" target-y="443.7"></path><path d="M 458.50 496.20 L 465.60 485.40 L 468.40 482.20 L 471.50 479.20 L 475.00 476.70 L 477.40 478.50 L 481.40 482.90 L 491.20 498.50 L 458.50 496.20 Z" fill="#ffffff" fill-rule="nonzero" node-id="68" stroke="none" target-height="21.799988" target-width="32.700012" target-x="458.5" target-y="476.7"></path><path d="M 457.10 905.50 L 460.80 903.90 L 464.60 902.70 L 468.40 901.90 L 474.40 901.20 L 504.10 900.40 L 550.90 897.70 L 570.40 897.60 L 586.00 898.90 L 591.20 925.30 L 593.40 938.60 L 595.00 952.00 L 450.20 952.00 L 454.00 920.80 L 457.10 905.50 Z" fill="#ffffff" fill-rule="nonzero" node-id="70" stroke="none" target-height="54.400024" target-width="144.79999" target-x="450.2" target-y="897.6"></path><path d="M 348.60 251.30 L 354.20 249.50 L 359.90 248.30 L 365.60 247.40 L 371.50 247.00 L 377.40 246.90 L 389.10 248.00 L 395.00 249.10 L 400.70 250.60 L 411.80 254.60 L 422.40 259.90 L 427.40 263.10 L 436.60 270.30 L 440.80 274.40 L 444.60 278.80 L 448.20 283.40 L 451.30 288.30 L 454.10 293.40 L 456.50 298.70 L 458.40 304.30 L 459.80 310.20 L 460.80 315.50 L 461.60 326.00 L 461.40 331.30 L 460.60 338.30 L 459.20 345.20 L 457.20 352.00 L 454.60 358.60 L 451.50 365.00 L 447.90 371.00 L 443.80 376.80 L 439.20 382.20 L 434.20 387.10 L 426.00 393.60 L 416.90 399.00 L 412.10 401.10 L 407.10 402.90 L 402.00 404.30 L 396.60 405.30 L 390.70 406.10 L 384.90 406.40 L 379.20 406.30 L 373.50 405.60 L 367.90 404.60 L 362.40 403.10 L 357.00 401.20 L 351.70 399.00 L 346.60 396.30 L 337.00 390.10 L 332.50 386.50 L 324.20 378.50 L 317.00 369.50 L 313.80 364.60 L 308.50 354.40 L 306.40 349.10 L 304.70 343.60 L 303.40 338.00 L 302.50 332.30 L 301.60 320.10 L 301.70 313.70 L 302.40 307.30 L 303.70 301.10 L 305.50 295.00 L 307.90 289.10 L 310.70 283.40 L 314.00 278.00 L 317.80 272.90 L 322.00 268.20 L 326.50 263.80 L 331.50 259.90 L 336.90 256.50 L 342.50 253.60 L 348.60 251.30 Z M 369.20 317.30 L 366.00 315.90 L 362.90 315.10 L 360.10 314.70 L 357.40 314.70 L 352.30 316.00 L 347.70 318.60 L 345.00 320.90 L 342.50 323.70 L 340.30 326.90 L 338.40 330.40 L 335.70 338.00 L 334.80 342.00 L 334.20 350.00 L 334.50 353.90 L 335.20 357.60 L 336.30 361.10 L 337.60 365.00 L 339.30 368.60 L 341.20 371.90 L 343.50 375.00 L 347.00 378.80 L 350.80 382.10 L 355.10 384.90 L 359.70 387.30 L 364.50 389.20 L 369.50 390.70 L 374.70 391.60 L 379.80 392.00 L 385.00 391.90 L 390.20 391.40 L 395.10 390.20 L 399.90 388.60 L 403.40 387.00 L 409.60 382.90 L 415.10 377.50 L 417.40 374.40 L 419.40 370.90 L 422.70 363.70 L 424.60 357.00 L 424.90 353.60 L 424.90 348.90 L 424.30 344.40 L 423.10 339.80 L 421.40 335.30 L 419.20 331.10 L 416.70 327.10 L 413.70 323.30 L 410.50 319.90 L 406.90 316.90 L 403.10 314.40 L 399.10 312.40 L 395.00 310.90 L 388.60 309.90 L 382.10 310.50 L 378.90 311.40 L 375.70 312.80 L 372.50 314.80 L 369.20 317.30 Z" fill="#fffffe" fill-rule="nonzero" node-id="72" stroke="none" target-height="159.5" target-width="160" target-x="301.6" target-y="246.9"></path><path d="M 471.40 193.10 L 474.50 194.50 L 477.10 196.30 L 479.20 198.40 L 482.70 203.50 L 485.70 211.00 L 490.20 224.70 L 487.20 224.00 L 484.80 223.10 L 482.70 221.80 L 479.30 218.20 L 478.00 216.10 L 476.40 212.60 L 475.10 208.70 L 471.40 193.10 Z" fill="#37384d" fill-rule="nonzero" node-id="74" stroke="none" target-height="31.59999" target-width="18.800018" target-x="471.4" target-y="193.1"></path><path d="M 358.70 238.80 L 365.00 238.00 L 371.30 237.60 L 377.60 237.60 L 390.40 238.90 L 402.90 241.70 L 409.00 243.60 L 415.10 245.90 L 426.50 251.60 L 432.00 255.00 L 437.20 258.70 L 442.10 262.70 L 446.70 267.00 L 451.00 271.70 L 455.00 276.60 L 458.50 281.90 L 461.70 287.40 L 464.50 293.30 L 466.70 299.10 L 468.60 305.00 L 469.90 311.00 L 470.80 317.10 L 471.20 323.30 L 471.30 329.40 L 470.90 335.50 L 470.10 341.70 L 468.80 347.70 L 465.30 359.50 L 462.90 365.20 L 460.20 370.70 L 457.10 376.00 L 453.70 381.10 L 449.90 386.00 L 445.80 390.60 L 441.50 394.80 L 436.80 398.70 L 431.80 402.30 L 426.50 405.40 L 421.00 408.20 L 415.20 410.50 L 402.70 414.10 L 396.40 415.20 L 390.10 415.90 L 383.80 416.00 L 377.50 415.60 L 371.30 414.80 L 365.20 413.50 L 359.10 411.70 L 353.20 409.60 L 347.40 407.10 L 341.80 404.10 L 336.40 400.80 L 331.20 397.20 L 321.50 389.00 L 312.80 379.70 L 309.00 374.70 L 305.50 369.40 L 302.30 363.90 L 299.50 358.20 L 297.10 352.40 L 295.20 346.40 L 293.60 340.30 L 292.50 334.10 L 292.00 327.80 L 291.90 321.40 L 292.60 309.30 L 293.20 303.80 L 294.30 298.40 L 297.60 288.00 L 302.30 278.30 L 305.20 273.60 L 308.40 269.20 L 315.60 261.00 L 323.80 253.90 L 328.30 250.70 L 337.80 245.30 L 342.80 243.10 L 353.20 239.80 L 358.70 238.80 Z M 348.60 251.30 L 342.50 253.60 L 336.90 256.50 L 331.50 259.90 L 326.50 263.80 L 322.00 268.20 L 317.80 272.90 L 314.00 278.00 L 310.70 283.40 L 307.90 289.10 L 305.50 295.00 L 303.70 301.10 L 302.40 307.30 L 301.70 313.70 L 301.60 320.10 L 302.50 332.30 L 303.40 338.00 L 304.70 343.60 L 306.40 349.10 L 311.00 359.60 L 313.80 364.60 L 320.40 374.10 L 328.20 382.60 L 332.50 386.50 L 337.00 390.10 L 346.60 396.30 L 357.00 401.20 L 362.40 403.10 L 367.90 404.60 L 373.50 405.60 L 379.20 406.30 L 384.90 406.40 L 390.70 406.10 L 402.00 404.30 L 407.10 402.90 L 412.10 401.10 L 421.50 396.40 L 430.20 390.50 L 434.20 387.10 L 439.20 382.20 L 443.80 376.80 L 447.90 371.00 L 451.50 365.00 L 454.60 358.60 L 457.20 352.00 L 459.20 345.20 L 460.60 338.30 L 461.40 331.30 L 461.60 326.00 L 460.80 315.50 L 459.80 310.20 L 458.40 304.30 L 456.50 298.70 L 454.10 293.40 L 451.30 288.20 L 448.20 283.40 L 444.60 278.80 L 440.80 274.40 L 436.60 270.30 L 427.40 263.10 L 422.40 259.90 L 411.80 254.60 L 400.70 250.60 L 395.00 249.10 L 389.10 248.00 L 377.40 246.90 L 371.50 246.90 L 365.60 247.40 L 359.90 248.30 L 354.20 249.50 L 348.60 251.30 Z" fill="#37384d" fill-rule="nonzero" node-id="76" stroke="none" target-height="178.4" target-width="179.4" target-x="291.9" target-y="237.6"></path><path d="M 615.30 238.50 L 621.20 237.10 L 627.20 236.10 L 633.30 235.60 L 639.40 235.40 L 651.60 236.30 L 663.70 238.80 L 669.60 240.60 L 680.90 245.20 L 686.30 248.10 L 691.50 251.40 L 696.40 254.90 L 701.00 258.90 L 705.40 263.10 L 709.40 267.70 L 713.00 272.60 L 716.20 277.80 L 719.10 283.30 L 721.30 288.60 L 724.60 299.50 L 725.80 305.10 L 726.80 312.60 L 727.20 320.20 L 727.00 327.80 L 726.20 335.50 L 724.90 343.00 L 723.00 350.40 L 720.50 357.60 L 717.50 364.60 L 713.90 371.30 L 710.90 376.20 L 704.00 385.20 L 700.10 389.40 L 694.50 394.30 L 688.60 398.70 L 682.20 402.70 L 675.60 406.20 L 668.70 409.20 L 661.60 411.70 L 654.40 413.70 L 647.00 415.00 L 639.60 415.80 L 628.50 415.80 L 617.50 414.20 L 612.10 412.90 L 606.80 411.10 L 601.60 409.00 L 596.50 406.30 L 591.20 403.30 L 586.30 400.00 L 581.60 396.30 L 577.30 392.30 L 569.40 383.40 L 566.00 378.60 L 560.10 368.20 L 555.50 357.20 L 553.70 351.50 L 552.30 345.70 L 550.50 333.90 L 550.10 321.90 L 550.50 316.00 L 551.30 310.10 L 553.80 298.40 L 555.70 292.70 L 557.90 287.20 L 560.50 281.80 L 563.50 276.50 L 566.80 271.60 L 570.50 266.80 L 574.50 262.30 L 578.70 258.10 L 583.30 254.20 L 588.00 250.70 L 593.10 247.40 L 598.40 244.60 L 603.80 242.10 L 609.40 240.10 L 615.30 238.50 Z M 606.20 252.10 L 600.80 254.60 L 595.80 257.50 L 591.00 260.80 L 586.60 264.50 L 582.40 268.50 L 578.60 272.80 L 575.20 277.40 L 572.00 282.20 L 569.20 287.30 L 564.70 297.90 L 563.00 303.50 L 560.80 314.90 L 560.10 326.50 L 560.30 332.40 L 561.00 338.10 L 562.10 343.80 L 565.20 354.40 L 567.00 359.40 L 571.80 368.70 L 575.60 374.60 L 580.00 380.10 L 584.80 385.20 L 590.10 389.90 L 595.70 394.00 L 601.70 397.60 L 606.30 400.00 L 616.10 403.70 L 621.20 405.00 L 626.30 405.90 L 631.50 406.40 L 636.80 406.40 L 648.20 405.30 L 654.10 404.20 L 659.70 402.60 L 665.20 400.50 L 670.60 398.00 L 675.70 395.20 L 680.60 392.00 L 689.80 384.60 L 697.80 376.10 L 701.50 371.40 L 704.80 366.50 L 710.30 356.20 L 712.60 350.70 L 714.50 345.20 L 716.00 339.50 L 717.00 333.70 L 717.70 327.90 L 717.90 322.00 L 717.70 316.10 L 717.00 310.20 L 714.50 298.20 L 712.80 292.60 L 710.60 287.30 L 707.90 282.30 L 704.80 277.50 L 701.30 273.00 L 697.40 268.80 L 693.20 264.90 L 688.70 261.30 L 684.00 258.10 L 679.00 255.20 L 668.40 250.40 L 657.20 247.10 L 651.50 246.00 L 645.70 245.30 L 639.90 245.00 L 634.10 245.10 L 628.30 245.70 L 622.60 246.60 L 617.00 248.00 L 611.50 249.80 L 606.20 252.10 Z" fill="#37384d" fill-rule="nonzero" node-id="78" stroke="none" target-height="180.4" target-width="177.10004" target-x="550.1" target-y="235.4"></path><path d="M 636.90 636.40 L 639.20 621.70 L 641.70 611.30 L 643.60 606.70 L 645.20 603.80 L 647.10 601.20 L 649.20 599.00 L 651.70 597.30 L 654.60 595.90 L 658.10 595.10 L 655.80 600.40 L 649.90 617.30 L 647.60 622.80 L 644.80 627.80 L 642.60 631.00 L 640.00 633.80 L 636.90 636.40 Z" fill="#37384d" fill-rule="nonzero" node-id="80" stroke="none" target-height="41.30005" target-width="21.199951" target-x="636.9" target-y="595.1"></path><path d="M 352.50 628.20 L 362.70 633.20 L 372.20 639.40 L 376.60 643.00 L 380.80 646.80 L 384.60 651.00 L 388.10 655.50 L 391.20 660.30 L 386.90 659.50 L 382.80 658.20 L 379.10 656.30 L 375.60 654.00 L 369.10 648.30 L 364.70 643.40 L 352.50 628.20 Z" fill="#37384d" fill-rule="nonzero" node-id="82" stroke="none" target-height="32.099976" target-width="38.700012" target-x="352.5" target-y="628.2"></path><path d="M 561.10 734.90 L 562.40 733.30 L 563.80 732.20 L 565.20 731.60 L 568.40 731.40 L 570.00 731.80 L 572.10 733.00 L 573.90 734.70 L 574.80 736.00 L 575.60 739.10 L 575.50 740.70 L 574.90 742.30 L 572.40 745.50 L 571.10 746.50 L 568.10 747.30 L 565.00 746.70 L 563.00 745.60 L 561.20 743.90 L 559.80 741.20 L 559.60 738.10 L 560.10 736.60 L 561.10 734.90 Z" fill="#37384d" fill-rule="nonzero" node-id="84" stroke="none" target-height="15.899963" target-width="16" target-x="559.6" target-y="731.4"></path><path d="M 470.20 612.80 L 478.80 609.20 L 494.00 604.00 L 506.50 601.20 L 512.90 600.40 L 519.20 600.10 L 525.40 600.30 L 530.10 600.80 L 539.20 603.10 L 543.80 604.90 L 534.60 604.10 L 525.30 604.00 L 515.90 604.40 L 508.80 605.10 L 495.00 607.70 L 488.30 609.50 L 481.60 611.80 L 475.20 614.40 L 469.00 617.50 L 463.10 621.00 L 457.40 625.00 L 452.10 629.40 L 447.10 634.40 L 442.40 639.80 L 436.80 648.20 L 431.70 656.80 L 427.10 665.70 L 423.10 675.00 L 419.50 684.40 L 416.40 694.00 L 413.80 703.80 L 411.70 713.60 L 410.10 723.50 L 408.70 739.90 L 408.60 756.70 L 409.30 765.00 L 410.40 773.20 L 411.60 779.40 L 415.00 791.20 L 417.20 797.00 L 419.80 802.50 L 422.80 807.90 L 426.30 813.10 L 430.20 818.10 L 435.10 823.60 L 440.40 828.50 L 446.00 832.80 L 452.00 836.80 L 458.20 840.30 L 464.70 843.40 L 478.20 848.60 L 485.10 850.70 L 495.60 853.50 L 506.00 855.90 L 500.20 855.90 L 488.80 854.90 L 483.10 853.80 L 475.70 851.80 L 468.50 849.20 L 461.40 846.00 L 454.60 842.40 L 448.00 838.30 L 441.80 833.70 L 435.90 828.70 L 430.40 823.40 L 425.30 817.70 L 420.80 811.30 L 416.80 804.70 L 413.50 797.90 L 410.70 790.90 L 408.30 783.70 L 406.50 776.40 L 405.10 768.90 L 404.20 761.30 L 403.60 746.00 L 404.40 730.60 L 405.80 720.40 L 407.70 710.40 L 410.00 700.60 L 413.00 690.20 L 419.10 672.80 L 425.20 659.30 L 428.70 652.70 L 432.50 646.50 L 436.70 640.50 L 441.20 634.80 L 446.20 629.50 L 451.50 624.60 L 455.70 621.20 L 465.10 615.30 L 470.20 612.80 Z" fill="#5c6170" fill-rule="nonzero" node-id="86" stroke="none" target-height="255.80005" target-width="140.19998" target-x="403.6" target-y="600.1"></path><path d="M 488.80 477.30 L 531.40 479.30 L 520.50 491.60 L 508.90 503.20 L 503.40 497.10 L 498.20 490.70 L 488.80 477.30 Z" fill="#fdfdfd" fill-rule="nonzero" node-id="88" stroke="none" target-height="25.900024" target-width="42.600037" target-x="488.8" target-y="477.3"></path><path d="M 414.10 186.60 L 417.60 188.10 L 423.90 191.90 L 426.70 194.40 L 430.10 198.00 L 433.10 201.90 L 435.60 206.20 L 437.80 210.80 L 439.50 215.40 L 440.90 220.20 L 436.40 218.00 L 432.40 215.30 L 428.70 212.00 L 425.40 208.40 L 422.40 204.50 L 419.80 200.20 L 417.60 195.70 L 414.10 186.60 Z" fill="#293e5b" fill-rule="nonzero" node-id="90" stroke="none" target-height="33.59999" target-width="26.799988" target-x="414.1" target-y="186.6"></path><path d="M 707.10 423.10 L 710.90 423.20 L 713.10 423.70 L 716.30 425.00 L 719.30 426.80 L 721.10 428.30 L 723.50 431.60 L 724.20 433.50 L 724.30 435.50 L 723.90 437.70 L 722.20 438.50 L 720.50 438.90 L 717.10 438.60 L 713.70 437.10 L 711.40 435.30 L 709.40 433.20 L 707.90 430.70 L 706.90 428.10 L 706.60 426.40 L 707.10 423.10 Z" fill="#293e5b" fill-rule="nonzero" node-id="92" stroke="none" target-height="15.799988" target-width="17.700012" target-x="706.6" target-y="423.1"></path><path d="M 546.40 605.80 L 552.00 607.00 L 562.80 610.40 L 567.90 612.60 L 574.60 616.10 L 580.90 620.10 L 587.00 624.70 L 592.70 629.60 L 598.20 634.90 L 603.30 640.50 L 612.50 652.60 L 616.60 658.80 L 620.80 667.20 L 624.50 675.70 L 627.80 684.50 L 630.60 693.60 L 633.00 702.70 L 634.80 712.00 L 636.20 721.30 L 637.00 730.70 L 637.30 740.10 L 636.90 749.50 L 636.00 758.80 L 634.60 768.00 L 632.90 775.40 L 630.90 782.50 L 628.50 789.60 L 625.60 796.60 L 622.30 803.50 L 618.00 810.10 L 613.20 816.60 L 607.90 822.90 L 602.30 828.80 L 596.30 834.30 L 589.90 839.40 L 579.70 846.00 L 568.90 851.20 L 563.20 853.20 L 557.40 854.70 L 551.40 855.70 L 545.30 856.30 L 558.30 852.40 L 564.60 849.90 L 576.90 843.80 L 582.70 840.30 L 593.80 832.30 L 599.00 827.90 L 603.80 823.10 L 608.30 818.10 L 612.50 812.80 L 616.30 807.20 L 619.80 801.40 L 622.80 795.20 L 625.40 788.80 L 627.90 781.40 L 629.90 773.80 L 631.60 766.20 L 632.80 758.30 L 633.70 750.40 L 634.10 742.50 L 634.10 734.60 L 633.70 726.60 L 632.90 718.60 L 631.70 710.80 L 630.10 703.00 L 628.10 695.30 L 625.80 687.70 L 623.00 680.20 L 619.90 673.00 L 616.40 665.90 L 612.50 659.10 L 608.30 652.50 L 603.70 646.20 L 598.70 640.20 L 593.40 634.50 L 587.70 629.20 L 581.70 624.20 L 575.30 619.60 L 568.60 615.50 L 561.60 611.80 L 554.20 608.60 L 546.40 605.80 Z" fill="#293e5b" fill-rule="nonzero" node-id="94" stroke="none" target-height="250.5" target-width="92" target-x="545.3" target-y="605.8"></path><path d="M 738.70 607.10 L 748.90 619.60 L 759.30 605.50 L 757.90 611.20 L 756.10 616.80 L 751.20 627.70 L 747.20 625.70 L 739.10 622.80 L 732.80 621.20 L 726.40 619.90 L 738.70 607.10 Z" fill="#293e5b" fill-rule="nonzero" node-id="96" stroke="none" target-height="22.200012" target-width="32.899963" target-x="726.4" target-y="605.5"></path><path d="M 447.40 902.10 L 448.10 899.70 L 449.10 897.70 L 450.40 896.30 L 453.90 894.10 L 459.20 892.70 L 469.10 891.60 L 517.00 889.20 L 564.90 887.40 L 576.60 887.90 L 583.20 888.80 L 587.80 890.60 L 589.70 892.00 L 591.40 893.90 L 592.90 896.40 L 595.20 902.30 L 598.90 914.50 L 606.90 952.00 L 595.00 952.00 L 593.40 938.60 L 591.20 925.30 L 586.00 898.90 L 578.20 898.10 L 562.60 897.50 L 550.90 897.70 L 504.10 900.40 L 474.40 901.20 L 468.40 901.90 L 464.60 902.70 L 460.80 903.90 L 457.10 905.50 L 454.00 920.80 L 450.20 952.00 L 437.80 952.00 L 443.50 918.60 L 445.20 910.30 L 447.40 902.10 Z" fill="#293e5b" fill-rule="nonzero" node-id="98" stroke="none" target-height="64.599976" target-width="169.10004" target-x="437.8" target-y="887.4"></path><path d="M 430.80 456.90 L 464.20 471.60 L 459.40 476.80 L 452.20 486.20 L 447.80 490.50 L 443.90 492.70 L 441.80 493.20 L 439.50 493.30 L 436.90 492.80 L 435.20 487.00 L 433.90 481.00 L 430.80 456.90 Z" fill="#fcfcfc" fill-rule="nonzero" node-id="100" stroke="none" target-height="36.399994" target-width="33.400024" target-x="430.8" target-y="456.9"></path><path d="M 329.80 162.10 L 342.60 157.20 L 355.40 152.80 L 368.50 148.90 L 381.70 145.60 L 395.00 142.80 L 408.40 140.50 L 421.90 138.70 L 435.50 137.40 L 460.50 135.50 L 485.60 134.30 L 502.40 133.90 L 535.90 134.10 L 552.60 134.90 L 569.30 136.20 L 585.90 138.00 L 598.40 139.80 L 623.10 144.30 L 635.30 147.20 L 620.00 170.60 L 625.10 177.30 L 630.70 183.90 L 634.80 188.00 L 643.50 195.50 L 648.30 198.70 L 653.20 201.40 L 658.40 203.60 L 662.40 204.80 L 666.50 205.70 L 670.80 206.20 L 678.60 206.10 L 681.50 205.40 L 684.00 204.20 L 688.60 200.80 L 693.40 194.90 L 701.10 183.70 L 708.50 190.30 L 715.40 197.10 L 721.90 204.30 L 727.80 211.90 L 733.30 219.80 L 738.30 228.00 L 742.90 236.50 L 747.10 245.20 L 750.80 254.20 L 754.00 263.30 L 756.90 272.50 L 759.30 282.00 L 761.30 291.50 L 762.80 301.10 L 764.00 310.70 L 765.80 338.80 L 766.10 357.70 L 766.00 370.30 L 765.40 382.90 L 764.40 395.50 L 762.90 408.10 L 760.80 420.40 L 758.10 432.60 L 755.70 441.70 L 752.80 450.50 L 749.50 459.20 L 745.80 467.80 L 741.70 476.10 L 737.00 484.20 L 731.80 492.10 L 721.50 505.50 L 711.60 515.80 L 706.40 520.50 L 699.00 526.50 L 691.30 532.10 L 683.40 537.30 L 671.10 544.50 L 658.50 551.30 L 632.90 564.00 L 633.90 570.90 L 641.10 569.00 L 648.20 566.60 L 675.80 555.00 L 682.70 572.20 L 689.10 589.60 L 695.00 607.10 L 700.50 624.80 L 705.50 642.70 L 710.00 660.70 L 714.00 678.80 L 717.60 697.00 L 720.60 715.20 L 723.20 733.60 L 725.30 752.10 L 726.90 770.50 L 728.00 789.00 L 728.70 807.50 L 728.80 826.10 L 728.40 844.60 L 727.50 863.10 L 726.20 881.60 L 724.30 900.00 L 721.90 918.40 L 719.50 933.10 L 717.10 941.00 L 713.90 946.90 L 700.50 929.80 L 695.40 924.70 L 692.50 922.60 L 689.50 923.00 L 686.90 923.80 L 684.70 924.90 L 680.80 928.20 L 676.90 933.70 L 669.30 948.70 L 667.20 952.00 L 651.90 952.00 L 647.30 939.90 L 642.30 928.10 L 639.00 928.70 L 636.00 929.70 L 633.40 931.10 L 630.90 932.90 L 626.40 937.30 L 617.10 948.60 L 613.90 952.00 L 606.90 952.00 L 598.90 914.50 L 595.20 902.30 L 592.90 896.40 L 591.40 893.90 L 589.70 892.00 L 587.80 890.60 L 583.20 888.80 L 576.60 887.90 L 564.90 887.40 L 517.00 889.20 L 469.10 891.60 L 459.20 892.70 L 453.90 894.10 L 450.40 896.30 L 449.10 897.70 L 448.10 899.70 L 447.40 902.10 L 445.20 910.30 L 443.50 918.60 L 437.80 952.00 L 432.50 952.00 L 418.70 932.90 L 413.80 926.90 L 410.60 927.40 L 408.00 928.40 L 405.90 929.80 L 404.10 931.60 L 401.10 936.20 L 394.70 952.00 L 382.40 952.00 L 373.40 938.90 L 368.70 932.60 L 363.50 926.80 L 360.30 927.30 L 357.40 928.30 L 354.90 929.70 L 352.50 931.50 L 348.20 935.80 L 339.70 947.00 L 336.70 950.30 L 333.50 940.30 L 330.60 930.20 L 328.20 920.00 L 326.30 909.80 L 323.60 892.30 L 321.40 874.90 L 319.60 857.40 L 318.30 839.80 L 317.50 822.30 L 317.10 804.70 L 317.10 787.10 L 317.50 769.50 L 318.30 752.00 L 319.50 734.40 L 321.60 712.50 L 324.30 690.60 L 327.60 668.90 L 331.50 647.20 L 335.90 625.60 L 340.90 604.10 L 346.40 582.80 L 352.40 561.70 L 367.50 567.00 L 375.20 569.20 L 383.00 570.90 L 388.20 571.60 L 393.60 571.90 L 399.00 571.80 L 386.80 564.80 L 380.60 561.70 L 341.80 545.40 L 332.30 540.90 L 323.10 535.90 L 317.30 532.10 L 311.60 528.00 L 299.40 517.40 L 293.20 511.20 L 287.50 504.60 L 282.40 497.80 L 277.60 490.60 L 273.30 483.20 L 269.40 475.60 L 265.80 467.70 L 261.70 456.90 L 258.20 445.90 L 255.20 434.60 L 252.70 423.10 L 250.70 411.60 L 247.90 388.40 L 246.30 365.60 L 246.20 346.90 L 246.50 327.90 L 247.20 315.30 L 248.20 302.70 L 249.70 290.20 L 251.20 280.90 L 253.10 271.60 L 257.80 253.50 L 260.80 244.60 L 264.20 235.90 L 268.20 227.30 L 272.60 218.90 L 277.20 219.60 L 286.10 219.80 L 290.30 219.30 L 295.80 218.20 L 301.20 216.40 L 306.40 214.10 L 311.30 211.40 L 316.00 208.20 L 320.60 204.60 L 328.90 196.40 L 336.30 187.30 L 342.50 177.50 L 329.80 162.10 Z M 414.10 186.60 L 417.60 195.70 L 419.80 200.20 L 422.40 204.50 L 425.40 208.40 L 428.70 212.00 L 432.40 215.30 L 436.40 218.00 L 440.90 220.20 L 439.50 215.40 L 437.80 210.80 L 435.60 206.20 L 433.10 201.90 L 430.10 198.00 L 426.70 194.40 L 423.90 191.90 L 417.60 188.10 L 414.10 186.60 Z M 576.20 214.30 L 591.20 214.50 L 598.80 200.60 L 605.40 186.30 L 599.40 186.60 L 594.60 188.40 L 591.80 190.30 L 589.20 192.50 L 586.80 195.20 L 583.80 199.70 L 581.00 204.60 L 576.20 214.30 Z M 471.40 193.10 L 475.10 208.70 L 476.40 212.60 L 479.30 218.20 L 482.70 221.80 L 484.80 223.10 L 487.20 224.00 L 490.20 224.70 L 484.00 206.40 L 482.70 203.50 L 479.20 198.40 L 477.10 196.30 L 474.50 194.50 L 471.40 193.10 Z M 536.20 234.70 L 539.20 232.80 L 541.70 230.80 L 543.60 228.50 L 545.20 225.90 L 547.30 220.20 L 548.10 215.50 L 548.40 210.60 L 548.40 205.70 L 547.30 191.50 L 542.70 195.50 L 539.70 200.20 L 538.30 203.60 L 537.30 207.30 L 536.70 211.10 L 536.20 217.00 L 536.20 234.70 Z M 358.70 238.80 L 353.20 239.80 L 342.80 243.10 L 337.80 245.30 L 328.30 250.70 L 323.80 253.90 L 315.60 261.00 L 308.40 269.20 L 305.20 273.60 L 302.30 278.30 L 297.60 288.00 L 294.30 298.40 L 293.20 303.80 L 292.60 309.30 L 291.90 321.40 L 292.00 327.80 L 292.50 334.10 L 293.60 340.30 L 295.20 346.40 L 297.10 352.40 L 299.50 358.20 L 302.30 363.90 L 305.50 369.40 L 309.00 374.70 L 312.80 379.70 L 317.00 384.50 L 321.50 389.00 L 331.20 397.20 L 336.40 400.80 L 341.80 404.10 L 347.40 407.10 L 353.20 409.60 L 359.10 411.70 L 365.20 413.50 L 371.30 414.80 L 377.50 415.60 L 383.80 416.00 L 390.10 415.90 L 396.40 415.20 L 402.70 414.10 L 415.20 410.50 L 421.00 408.20 L 426.50 405.40 L 431.80 402.30 L 436.80 398.70 L 441.50 394.80 L 445.80 390.60 L 449.90 386.00 L 453.70 381.10 L 457.10 376.00 L 460.20 370.70 L 462.90 365.20 L 465.30 359.50 L 467.20 353.70 L 468.80 347.70 L 470.10 341.70 L 470.90 335.50 L 471.30 329.40 L 471.20 323.30 L 470.80 317.10 L 469.90 311.00 L 468.60 305.10 L 466.70 299.10 L 464.50 293.30 L 461.70 287.40 L 458.50 281.90 L 455.00 276.60 L 451.00 271.70 L 446.70 267.00 L 442.10 262.70 L 437.20 258.70 L 432.00 255.00 L 420.90 248.60 L 415.10 245.90 L 409.00 243.60 L 396.70 240.10 L 384.00 238.10 L 377.60 237.60 L 371.30 237.60 L 365.00 238.00 L 358.70 238.80 Z M 615.30 238.50 L 609.40 240.10 L 603.80 242.10 L 598.40 244.60 L 593.10 247.40 L 588.00 250.70 L 583.30 254.20 L 578.70 258.10 L 574.50 262.30 L 570.50 266.80 L 566.80 271.60 L 563.50 276.50 L 560.50 281.80 L 557.90 287.20 L 555.70 292.70 L 553.80 298.40 L 551.30 310.10 L 550.10 321.90 L 550.10 327.90 L 550.50 333.90 L 552.30 345.70 L 555.50 357.20 L 557.60 362.80 L 562.90 373.50 L 566.00 378.60 L 573.20 388.00 L 577.30 392.30 L 581.60 396.30 L 586.30 400.00 L 591.20 403.30 L 601.60 409.00 L 606.80 411.10 L 612.10 412.90 L 617.50 414.20 L 623.00 415.20 L 634.00 416.00 L 639.60 415.80 L 647.00 415.00 L 654.40 413.70 L 661.60 411.70 L 668.70 409.20 L 675.60 406.20 L 682.20 402.70 L 688.60 398.70 L 694.50 394.30 L 700.10 389.40 L 704.00 385.20 L 710.90 376.20 L 713.90 371.30 L 717.50 364.60 L 720.50 357.60 L 723.00 350.40 L 724.90 343.00 L 726.20 335.50 L 727.00 327.80 L 727.20 320.20 L 726.80 312.60 L 725.80 305.10 L 724.60 299.50 L 721.30 288.60 L 719.10 283.30 L 716.20 277.80 L 713.00 272.60 L 709.40 267.70 L 705.40 263.10 L 701.00 258.90 L 696.40 254.90 L 691.50 251.40 L 686.30 248.10 L 680.90 245.20 L 669.60 240.60 L 663.70 238.80 L 651.60 236.30 L 639.40 235.40 L 633.30 235.60 L 627.20 236.10 L 621.20 237.10 L 615.30 238.50 Z M 285.90 388.60 L 284.90 392.20 L 284.80 394.70 L 285.10 396.40 L 285.90 397.60 L 287.10 398.30 L 288.80 398.70 L 291.40 398.60 L 295.10 397.60 L 296.10 394.00 L 296.30 391.50 L 295.90 389.80 L 295.20 388.60 L 294.00 387.80 L 292.20 387.50 L 289.60 387.70 L 285.90 388.60 Z M 717.00 394.50 L 716.00 396.30 L 715.60 397.80 L 715.70 399.20 L 716.90 401.90 L 718.00 403.00 L 719.90 404.40 L 722.30 405.30 L 724.80 405.60 L 727.20 405.40 L 730.10 404.00 L 731.30 402.80 L 732.50 401.00 L 733.00 399.30 L 733.00 397.80 L 731.80 394.90 L 730.70 393.70 L 728.70 392.30 L 726.20 391.40 L 724.50 391.10 L 721.10 391.40 L 719.60 392.00 L 718.20 393.10 L 717.00 394.50 Z M 481.60 422.70 L 485.10 422.10 L 488.50 422.00 L 491.80 422.40 L 496.60 423.60 L 510.60 429.10 L 515.30 430.70 L 520.30 431.60 L 519.20 428.50 L 517.60 425.60 L 515.50 422.90 L 513.10 420.50 L 510.40 418.50 L 507.50 416.70 L 504.40 415.40 L 501.20 414.50 L 498.00 414.00 L 494.80 414.10 L 491.80 414.60 L 488.80 415.70 L 484.90 418.40 L 481.60 422.70 Z M 523.40 428.90 L 528.10 428.70 L 532.60 427.90 L 536.80 426.60 L 540.90 424.70 L 544.90 422.30 L 560.50 427.30 L 559.50 424.80 L 556.70 420.80 L 555.00 419.20 L 552.30 417.40 L 549.40 416.20 L 546.20 415.40 L 543.00 415.00 L 539.80 415.20 L 536.60 415.80 L 533.50 416.80 L 530.80 418.30 L 528.30 420.30 L 525.30 424.00 L 523.40 428.90 Z M 292.80 421.70 L 286.80 428.70 L 287.70 431.30 L 288.60 432.90 L 289.70 434.00 L 291.00 434.60 L 292.30 434.80 L 293.70 434.60 L 295.80 433.70 L 297.80 432.20 L 299.60 430.30 L 301.60 426.70 L 301.90 424.10 L 301.50 423.00 L 300.80 422.10 L 299.50 421.40 L 295.90 421.20 L 292.80 421.70 Z M 707.10 423.10 L 706.60 426.40 L 706.90 428.10 L 707.90 430.70 L 709.40 433.20 L 711.40 435.30 L 715.40 438.00 L 718.80 438.90 L 720.50 438.90 L 722.20 438.50 L 723.90 437.70 L 724.30 435.50 L 724.20 433.50 L 723.50 431.60 L 722.50 429.90 L 719.30 426.80 L 716.30 425.00 L 710.90 423.20 L 707.10 423.10 Z M 397.60 425.90 L 393.80 435.50 L 392.30 440.70 L 391.10 446.00 L 390.30 451.20 L 389.90 456.60 L 390.00 461.90 L 390.70 467.00 L 391.90 472.10 L 393.20 475.70 L 394.90 479.20 L 397.00 482.50 L 399.50 485.80 L 404.90 489.30 L 410.40 492.50 L 416.10 495.30 L 421.90 497.60 L 429.80 500.30 L 438.00 502.40 L 446.30 504.10 L 458.90 506.00 L 496.90 509.50 L 538.20 510.80 L 552.00 510.70 L 570.20 509.50 L 579.30 508.30 L 590.40 504.00 L 601.50 498.20 L 606.60 494.80 L 611.50 491.00 L 614.90 487.80 L 620.70 481.00 L 623.10 477.30 L 625.20 473.30 L 626.80 469.10 L 627.90 464.70 L 628.60 460.00 L 628.20 451.30 L 627.60 446.80 L 626.50 442.40 L 625.50 439.70 L 622.50 435.00 L 620.50 433.10 L 618.10 431.70 L 615.10 430.60 L 611.10 432.20 L 603.60 436.20 L 587.70 447.40 L 576.70 454.40 L 570.90 457.50 L 565.00 460.20 L 558.90 462.50 L 550.70 464.90 L 542.20 466.70 L 533.60 467.90 L 525.00 468.50 L 516.20 468.70 L 507.40 468.30 L 498.60 467.40 L 481.30 464.60 L 464.30 460.40 L 451.90 456.40 L 443.80 452.70 L 438.00 449.30 L 421.40 437.80 L 410.10 430.90 L 401.90 427.30 L 397.60 425.90 Z M 693.40 435.40 L 692.90 438.60 L 692.90 440.80 L 693.40 442.30 L 694.20 443.40 L 695.30 444.20 L 696.90 444.50 L 699.10 444.50 L 702.20 443.80 L 702.60 440.60 L 702.50 438.30 L 702.00 436.80 L 701.20 435.70 L 700.00 435.00 L 698.50 434.60 L 696.30 434.70 L 693.40 435.40 Z M 308.60 439.60 L 307.70 443.20 L 307.50 445.80 L 307.90 447.50 L 308.70 448.60 L 309.90 449.30 L 311.60 449.60 L 314.10 449.40 L 317.80 448.30 L 318.70 444.60 L 318.80 442.10 L 318.50 440.30 L 317.70 439.20 L 316.50 438.50 L 314.80 438.20 L 312.30 438.50 L 308.60 439.60 Z M 636.90 636.40 L 640.00 633.80 L 642.60 631.00 L 644.80 627.80 L 647.60 622.80 L 649.90 617.30 L 655.80 600.40 L 658.10 595.10 L 654.60 595.90 L 651.70 597.30 L 649.20 599.00 L 647.10 601.20 L 645.20 603.80 L 643.60 606.70 L 641.70 611.30 L 640.30 616.50 L 639.20 621.70 L 636.90 636.40 Z M 470.20 612.80 L 460.30 618.10 L 451.50 624.60 L 446.20 629.50 L 441.20 634.80 L 436.70 640.50 L 432.50 646.50 L 428.70 652.70 L 425.20 659.30 L 419.10 672.80 L 413.00 690.20 L 410.00 700.60 L 407.70 710.40 L 405.80 720.40 L 404.40 730.60 L 403.60 746.00 L 404.20 761.30 L 405.10 768.90 L 406.50 776.40 L 408.30 783.70 L 410.70 790.90 L 413.50 797.90 L 416.80 804.70 L 420.80 811.30 L 425.30 817.70 L 430.40 823.40 L 435.90 828.70 L 441.80 833.70 L 448.00 838.30 L 454.60 842.40 L 461.40 846.00 L 468.50 849.20 L 475.70 851.80 L 483.10 853.80 L 494.50 855.60 L 511.20 856.00 L 511.80 858.00 L 513.00 859.70 L 514.70 861.20 L 516.70 862.40 L 521.60 864.00 L 527.00 864.40 L 532.30 863.60 L 536.60 861.70 L 538.30 860.20 L 539.50 858.50 L 540.10 856.40 L 545.30 856.30 L 551.40 855.70 L 557.40 854.70 L 563.20 853.20 L 568.90 851.20 L 579.70 846.00 L 589.90 839.40 L 596.30 834.30 L 602.30 828.80 L 607.90 822.90 L 613.20 816.60 L 618.00 810.10 L 622.30 803.50 L 625.60 796.60 L 628.50 789.60 L 630.90 782.50 L 632.90 775.40 L 634.60 768.00 L 636.00 758.80 L 636.90 749.50 L 637.30 740.10 L 637.00 730.70 L 636.20 721.30 L 634.80 712.00 L 633.00 702.70 L 630.60 693.60 L 627.80 684.50 L 624.50 675.70 L 620.80 667.20 L 616.60 658.80 L 608.10 646.50 L 603.30 640.50 L 598.20 634.90 L 592.70 629.60 L 587.00 624.70 L 580.90 620.10 L 574.60 616.10 L 567.90 612.60 L 562.80 610.40 L 557.50 608.50 L 552.00 607.00 L 546.40 605.80 L 539.20 603.10 L 534.70 601.80 L 525.40 600.30 L 519.20 600.10 L 512.90 600.40 L 506.50 601.20 L 494.00 604.00 L 478.80 609.20 L 470.20 612.80 Z M 372.60 604.30 L 373.80 608.40 L 377.20 615.90 L 379.50 619.50 L 382.90 623.90 L 386.70 628.00 L 390.90 631.90 L 395.30 635.40 L 404.70 641.40 L 403.70 637.20 L 402.30 633.20 L 400.50 629.40 L 395.80 622.50 L 393.00 619.30 L 388.40 614.90 L 383.40 610.90 L 378.10 607.40 L 372.60 604.30 Z M 352.50 628.20 L 364.70 643.40 L 369.10 648.30 L 375.60 654.00 L 379.10 656.30 L 382.80 658.20 L 386.90 659.50 L 391.20 660.30 L 388.10 655.50 L 384.60 651.00 L 380.80 646.80 L 372.20 639.40 L 367.60 636.20 L 362.70 633.20 L 352.50 628.20 Z M 673.30 629.80 L 671.20 631.30 L 669.20 633.30 L 667.50 635.50 L 666.10 638.00 L 665.20 640.60 L 664.90 643.30 L 665.10 645.10 L 666.40 648.50 L 668.20 649.20 L 669.90 649.30 L 671.60 648.90 L 673.20 648.10 L 676.20 645.50 L 678.10 642.90 L 679.50 640.00 L 680.40 637.10 L 680.60 634.40 L 680.40 632.70 L 679.80 631.40 L 678.80 630.40 L 677.60 629.80 L 675.80 629.50 L 673.30 629.80 Z M 661.80 735.00 L 659.70 735.70 L 657.80 737.00 L 656.20 738.70 L 654.80 740.70 L 653.90 742.90 L 653.50 746.50 L 654.50 749.00 L 655.40 749.90 L 656.70 750.70 L 658.60 751.30 L 660.60 751.50 L 662.40 751.30 L 665.60 749.70 L 668.20 747.00 L 669.60 744.60 L 670.50 742.10 L 670.80 738.80 L 669.90 736.10 L 669.10 735.20 L 667.80 734.50 L 666.30 734.20 L 664.40 734.30 L 661.80 735.00 Z M 369.80 773.40 L 367.70 774.40 L 366.10 775.70 L 364.00 778.90 L 363.20 782.70 L 363.50 785.60 L 364.30 788.50 L 365.70 791.10 L 367.50 793.30 L 369.00 794.40 L 372.30 795.60 L 374.10 795.60 L 376.10 795.20 L 380.70 793.30 L 382.60 792.10 L 384.00 790.80 L 385.10 789.20 L 385.80 787.40 L 386.10 785.50 L 385.80 781.60 L 385.10 779.70 L 383.10 776.30 L 380.10 773.60 L 376.30 772.20 L 374.30 772.10 L 372.20 772.50 L 369.80 773.40 Z M 666.80 785.80 L 664.20 787.30 L 661.60 789.70 L 661.10 791.00 L 661.00 792.10 L 662.10 794.20 L 664.50 795.80 L 666.80 796.60 L 669.50 796.90 L 672.20 796.70 L 674.80 795.90 L 676.40 795.00 L 679.00 792.10 L 680.80 789.10 L 680.90 787.90 L 680.00 785.90 L 677.30 784.30 L 675.10 783.80 L 672.80 783.70 L 670.50 784.00 L 668.40 784.70 L 666.80 785.80 Z M 385.90 802.20 L 385.00 805.80 L 384.90 808.30 L 385.20 810.00 L 386.00 811.20 L 387.20 812.00 L 389.00 812.30 L 391.60 812.20 L 395.30 811.30 L 396.20 807.70 L 396.40 805.10 L 396.00 803.40 L 395.20 802.20 L 394.00 801.50 L 392.30 801.10 L 389.70 801.30 L 385.90 802.20 Z" fill="#8ec5bf" fill-rule="nonzero" node-id="102" stroke="none" target-height="818.1" target-width="519.89996" target-x="246.2" target-y="133.9"></path><path d="M 369.20 317.30 L 372.50 314.80 L 375.70 312.80 L 378.90 311.40 L 382.10 310.50 L 388.60 309.90 L 395.00 310.90 L 399.10 312.40 L 403.10 314.40 L 406.90 316.90 L 410.50 319.90 L 413.70 323.30 L 416.70 327.10 L 419.20 331.10 L 421.40 335.30 L 423.10 339.80 L 424.30 344.40 L 424.90 348.90 L 424.90 353.60 L 424.60 357.00 L 422.70 363.70 L 419.40 370.90 L 417.40 374.40 L 415.10 377.50 L 412.50 380.30 L 409.60 382.90 L 403.40 387.00 L 399.90 388.60 L 395.10 390.20 L 390.20 391.40 L 385.00 391.90 L 379.80 392.00 L 374.70 391.60 L 369.50 390.70 L 364.50 389.20 L 359.70 387.30 L 355.10 384.90 L 350.80 382.10 L 347.00 378.80 L 343.50 375.00 L 341.20 371.90 L 339.30 368.60 L 337.60 365.00 L 336.30 361.10 L 335.20 357.60 L 334.50 353.90 L 334.20 350.00 L 334.80 342.00 L 336.90 334.00 L 340.30 326.90 L 342.50 323.70 L 345.00 320.90 L 347.70 318.60 L 352.30 316.00 L 357.40 314.70 L 360.10 314.70 L 362.90 315.10 L 366.00 315.90 L 369.20 317.30 Z" fill="#3c3747" fill-rule="nonzero" node-id="104" stroke="none" target-height="82.100006" target-width="90.69998" target-x="334.2" target-y="309.9"></path><path d="M 292.20 80.70 L 301.80 107.10 L 307.10 120.10 L 312.80 132.90 L 319.00 145.60 L 325.60 158.00 L 337.80 152.10 L 350.30 146.80 L 363.10 142.10 L 372.80 139.00 L 382.60 136.30 L 392.50 133.90 L 402.50 132.00 L 422.10 128.80 L 441.80 126.20 L 461.60 124.20 L 476.50 123.20 L 506.30 122.30 L 521.20 122.40 L 536.10 122.90 L 550.90 123.90 L 565.70 125.40 L 580.50 127.30 L 595.20 129.60 L 609.80 132.50 L 624.30 135.80 L 638.80 139.70 L 638.80 128.40 L 638.30 117.10 L 637.50 105.80 L 634.30 72.00 L 640.10 73.20 L 645.60 74.80 L 650.80 76.80 L 655.60 79.20 L 660.30 82.00 L 664.70 85.10 L 668.90 88.60 L 672.80 92.40 L 677.60 97.90 L 682.00 103.80 L 685.90 110.20 L 689.40 116.80 L 692.40 123.70 L 694.90 130.90 L 697.10 138.20 L 698.70 145.60 L 700.00 153.00 L 700.70 160.40 L 701.10 167.70 L 701.00 174.90 L 717.80 189.30 L 725.90 196.90 L 733.50 204.90 L 738.30 210.50 L 742.70 216.40 L 746.80 222.60 L 751.70 230.70 L 756.00 238.90 L 760.00 247.30 L 763.50 255.90 L 766.50 264.60 L 771.60 282.50 L 773.60 291.60 L 775.80 303.90 L 777.40 316.20 L 778.60 328.60 L 779.80 353.50 L 779.60 378.90 L 778.80 392.10 L 777.50 405.40 L 776.20 415.30 L 774.40 425.10 L 769.90 444.50 L 767.00 454.00 L 763.70 463.30 L 759.90 472.40 L 755.60 481.30 L 750.90 490.00 L 745.60 498.30 L 739.70 506.40 L 733.30 514.20 L 743.60 528.20 L 753.50 542.50 L 763.10 557.10 L 772.20 572.00 L 780.90 587.20 L 789.00 602.70 L 794.70 614.50 L 805.00 638.40 L 809.60 650.70 L 813.90 663.00 L 817.60 675.50 L 821.00 688.20 L 823.90 701.00 L 825.20 714.30 L 825.20 719.10 L 824.80 723.80 L 823.80 728.10 L 822.70 730.80 L 821.30 733.10 L 819.40 735.10 L 817.90 736.40 L 813.70 738.10 L 811.10 738.60 L 807.30 736.60 L 803.90 734.20 L 800.80 731.50 L 796.40 726.90 L 784.60 712.00 L 785.90 732.30 L 785.80 736.60 L 785.00 741.70 L 784.30 743.70 L 783.20 745.40 L 781.80 746.60 L 780.00 747.40 L 778.10 747.60 L 775.50 747.20 L 772.00 746.00 L 768.10 739.70 L 753.50 713.40 L 746.60 703.10 L 740.10 695.70 L 736.50 692.40 L 732.50 689.30 L 728.20 686.50 L 731.40 708.40 L 734.20 730.50 L 736.40 752.60 L 738.20 774.80 L 739.30 797.10 L 739.80 819.30 L 739.30 852.60 L 737.30 885.90 L 735.70 902.50 L 733.60 919.00 L 731.00 935.50 L 728.00 952.00 L 696.40 952.00 L 697.10 950.20 L 697.50 946.60 L 696.90 944.00 L 695.70 941.50 L 694.10 939.30 L 692.20 937.30 L 689.90 935.60 L 687.70 934.40 L 685.10 936.90 L 683.20 939.50 L 681.90 942.30 L 681.20 945.30 L 681.10 948.50 L 681.60 952.00 L 667.20 952.00 L 669.30 948.70 L 676.90 933.70 L 679.10 930.30 L 680.80 928.20 L 684.70 924.90 L 686.90 923.80 L 689.50 923.00 L 692.50 922.60 L 698.10 927.10 L 703.90 934.00 L 713.90 946.90 L 715.70 944.00 L 718.20 937.90 L 720.40 928.20 L 724.30 900.00 L 726.20 881.60 L 727.50 863.10 L 728.40 844.60 L 728.80 826.10 L 728.70 807.50 L 728.00 789.00 L 726.90 770.50 L 725.30 752.10 L 723.20 733.60 L 720.60 715.20 L 717.60 697.00 L 714.00 678.80 L 710.00 660.70 L 705.50 642.70 L 700.50 624.80 L 695.00 607.10 L 689.10 589.60 L 682.70 572.20 L 675.80 555.00 L 648.20 566.60 L 641.10 569.00 L 633.90 570.90 L 632.90 564.00 L 658.50 551.30 L 671.10 544.50 L 683.40 537.30 L 691.30 532.10 L 699.00 526.50 L 706.40 520.50 L 711.60 515.80 L 721.50 505.50 L 726.10 499.80 L 731.80 492.10 L 737.00 484.20 L 741.70 476.10 L 745.80 467.80 L 749.50 459.20 L 752.80 450.50 L 755.70 441.70 L 758.10 432.60 L 760.80 420.40 L 762.90 408.10 L 764.40 395.50 L 765.40 382.90 L 766.00 370.30 L 766.10 357.70 L 765.80 338.80 L 764.00 310.70 L 762.80 301.10 L 761.30 291.50 L 759.30 282.00 L 756.90 272.50 L 754.00 263.30 L 750.80 254.20 L 747.10 245.20 L 742.90 236.50 L 738.30 228.00 L 733.30 219.80 L 727.80 211.90 L 721.90 204.30 L 715.40 197.10 L 708.50 190.30 L 701.10 183.70 L 693.40 194.90 L 688.60 200.80 L 684.00 204.20 L 681.50 205.40 L 678.60 206.10 L 670.80 206.20 L 666.50 205.70 L 662.40 204.80 L 658.40 203.60 L 653.20 201.40 L 648.30 198.70 L 643.50 195.50 L 634.80 188.00 L 630.70 183.90 L 625.10 177.30 L 620.00 170.60 L 635.30 147.20 L 610.70 141.90 L 585.90 138.00 L 569.30 136.20 L 552.60 134.90 L 535.90 134.10 L 502.40 133.90 L 485.60 134.30 L 460.50 135.50 L 421.90 138.70 L 408.40 140.50 L 395.00 142.80 L 381.70 145.60 L 368.50 148.90 L 355.40 152.80 L 342.60 157.20 L 329.80 162.10 L 342.50 177.50 L 336.30 187.30 L 328.90 196.40 L 320.60 204.60 L 316.00 208.20 L 311.30 211.40 L 306.40 214.10 L 301.20 216.40 L 295.80 218.20 L 290.30 219.30 L 286.10 219.80 L 277.20 219.60 L 272.60 218.90 L 268.20 227.30 L 264.20 235.90 L 260.80 244.60 L 257.80 253.50 L 253.10 271.60 L 251.20 280.90 L 249.70 290.20 L 248.20 302.70 L 247.20 315.30 L 246.50 327.90 L 246.20 346.90 L 246.30 365.60 L 247.90 388.40 L 250.70 411.60 L 252.70 423.10 L 255.20 434.60 L 258.20 445.90 L 261.70 456.90 L 265.80 467.70 L 269.40 475.60 L 273.30 483.20 L 277.60 490.60 L 282.40 497.80 L 287.50 504.60 L 293.20 511.20 L 299.40 517.40 L 311.60 528.00 L 317.30 532.10 L 323.10 535.90 L 332.30 540.90 L 341.80 545.40 L 380.60 561.70 L 386.80 564.80 L 399.00 571.80 L 393.60 571.90 L 388.20 571.60 L 383.00 570.90 L 375.20 569.20 L 367.50 567.00 L 352.40 561.70 L 346.40 582.80 L 340.90 604.10 L 335.90 625.60 L 331.50 647.20 L 327.60 668.90 L 324.30 690.60 L 321.60 712.50 L 319.50 734.40 L 318.30 752.00 L 317.50 769.50 L 317.10 787.10 L 317.10 804.70 L 317.50 822.30 L 318.30 839.80 L 319.60 857.40 L 321.40 874.90 L 323.60 892.30 L 326.30 909.80 L 328.20 920.00 L 330.60 930.20 L 333.50 940.30 L 336.70 950.30 L 339.70 947.00 L 348.20 935.80 L 352.50 931.50 L 357.40 928.30 L 360.30 927.30 L 363.50 926.80 L 368.70 932.60 L 373.40 938.90 L 382.40 952.00 L 366.60 952.00 L 367.10 949.00 L 367.00 946.60 L 366.40 944.70 L 365.30 943.10 L 363.80 941.80 L 361.70 940.80 L 358.80 940.00 L 352.80 952.00 L 323.30 952.00 L 319.50 934.40 L 316.30 916.70 L 313.50 899.00 L 311.20 881.20 L 309.40 863.40 L 307.80 841.10 L 306.80 818.70 L 306.50 796.30 L 306.80 773.80 L 307.60 751.40 L 309.00 729.00 L 310.80 706.70 L 313.20 684.40 L 307.50 687.10 L 302.10 690.10 L 296.90 693.40 L 291.90 697.10 L 287.30 701.20 L 282.90 705.60 L 279.00 710.30 L 275.40 715.40 L 269.10 726.00 L 261.00 742.60 L 258.10 748.00 L 254.80 753.10 L 252.40 756.30 L 249.60 759.20 L 246.40 761.80 L 243.80 760.90 L 240.00 758.60 L 238.70 757.20 L 237.30 755.00 L 236.30 752.50 L 235.70 749.70 L 235.50 745.30 L 237.30 726.30 L 237.30 722.10 L 225.70 734.70 L 221.70 738.70 L 215.70 743.30 L 212.40 745.30 L 209.50 745.20 L 207.20 744.80 L 205.30 743.90 L 203.60 742.60 L 202.30 741.00 L 201.20 739.10 L 200.00 735.90 L 199.30 732.30 L 199.00 728.60 L 199.50 718.10 L 201.50 704.80 L 204.00 691.50 L 206.90 678.40 L 210.20 665.40 L 214.10 652.50 L 218.30 639.80 L 222.90 627.10 L 228.00 614.60 L 233.40 602.30 L 245.30 578.20 L 251.70 566.30 L 260.90 550.80 L 270.50 535.70 L 280.60 520.90 L 274.90 513.90 L 269.70 506.70 L 264.80 499.30 L 260.50 491.70 L 256.40 483.90 L 249.50 467.80 L 246.60 459.50 L 243.20 448.30 L 240.30 436.90 L 237.90 425.30 L 235.90 413.60 L 234.40 401.90 L 233.30 390.10 L 232.20 372.30 L 231.80 354.90 L 232.00 342.20 L 233.40 316.80 L 234.70 304.10 L 236.60 291.50 L 238.90 279.00 L 241.00 269.70 L 243.60 260.50 L 246.50 251.50 L 249.70 242.60 L 253.40 233.90 L 257.60 225.40 L 262.30 217.00 L 267.40 208.90 L 265.60 202.80 L 264.00 196.30 L 261.90 182.00 L 261.10 167.00 L 261.20 155.50 L 261.70 144.00 L 264.00 122.20 L 265.60 111.90 L 269.20 94.80 L 271.00 88.60 L 272.90 83.20 L 274.30 80.40 L 280.60 78.30 L 284.30 77.60 L 286.60 77.90 L 292.20 80.70 Z M 646.10 83.10 L 647.30 101.80 L 647.70 111.30 L 647.50 120.70 L 647.10 127.00 L 645.20 139.20 L 643.70 145.10 L 641.60 150.80 L 639.00 156.40 L 634.00 164.20 L 627.40 171.60 L 631.40 176.90 L 639.50 185.90 L 647.00 192.30 L 651.10 195.10 L 655.30 197.50 L 659.50 199.40 L 663.90 200.80 L 668.30 201.60 L 672.80 201.70 L 676.10 201.40 L 679.40 200.50 L 682.70 199.20 L 686.10 197.40 L 688.40 191.20 L 690.20 184.90 L 691.40 178.50 L 692.20 172.00 L 692.50 165.40 L 692.30 158.90 L 691.60 152.40 L 690.50 145.80 L 689.00 139.40 L 687.00 133.10 L 684.60 126.90 L 681.80 120.90 L 678.60 115.10 L 675.00 109.50 L 671.10 104.30 L 666.80 99.30 L 662.10 94.60 L 657.10 90.40 L 651.80 86.60 L 646.10 83.10 Z M 269.40 159.10 L 269.60 170.70 L 270.50 182.90 L 271.40 189.00 L 272.90 194.70 L 274.20 198.40 L 275.90 201.90 L 278.00 205.10 L 280.40 208.00 L 283.30 210.70 L 286.70 213.10 L 290.90 213.10 L 294.90 212.60 L 298.70 211.60 L 305.90 208.50 L 309.30 206.50 L 314.20 202.90 L 318.90 198.90 L 335.80 181.40 L 329.80 174.90 L 324.30 168.10 L 319.30 161.10 L 310.20 146.20 L 300.30 126.80 L 284.80 90.70 L 282.00 94.30 L 277.60 101.90 L 275.90 106.00 L 274.00 111.50 L 272.60 117.30 L 271.60 123.20 L 270.60 132.20 L 269.40 159.10 Z M 684.90 550.20 L 691.60 565.70 L 697.70 581.40 L 703.40 597.20 L 708.70 613.20 L 715.10 634.70 L 721.00 656.40 L 726.30 678.30 L 731.20 680.10 L 735.80 682.20 L 740.20 684.60 L 744.30 687.50 L 749.50 691.70 L 754.30 696.30 L 758.80 701.40 L 763.00 706.80 L 770.50 718.10 L 772.30 688.50 L 776.20 688.30 L 779.80 688.70 L 783.00 689.70 L 786.10 691.10 L 791.80 695.10 L 807.60 709.70 L 805.40 696.90 L 802.70 684.20 L 799.40 671.80 L 795.60 659.50 L 791.40 647.30 L 786.80 635.30 L 781.80 623.40 L 776.40 611.60 L 768.70 596.20 L 760.70 580.90 L 752.20 565.90 L 739.00 543.60 L 725.40 521.80 L 715.70 529.60 L 705.80 536.90 L 695.50 543.80 L 684.90 550.20 Z M 288.10 527.80 L 271.20 557.10 L 263.30 572.20 L 255.70 587.40 L 248.70 602.80 L 242.10 618.40 L 237.50 630.20 L 229.40 654.30 L 225.90 666.50 L 222.90 678.80 L 220.20 691.20 L 218.00 703.70 L 216.30 716.40 L 220.40 713.70 L 232.30 703.90 L 236.50 700.90 L 240.80 698.60 L 243.80 697.40 L 247.00 696.70 L 250.50 696.50 L 252.40 698.60 L 253.70 700.90 L 254.50 703.30 L 254.90 705.80 L 254.90 711.30 L 253.30 723.90 L 253.10 727.80 L 256.60 721.60 L 260.40 715.70 L 264.50 710.10 L 268.90 704.70 L 273.70 699.70 L 278.80 695.00 L 284.20 690.80 L 289.90 687.00 L 295.90 683.60 L 302.20 680.80 L 308.90 678.50 L 315.90 676.70 L 317.60 663.20 L 319.70 649.90 L 322.30 636.60 L 326.60 616.80 L 341.00 557.60 L 334.60 555.10 L 322.50 549.30 L 313.60 544.30 L 305.00 538.90 L 288.10 527.80 Z" fill="#394859" fill-rule="nonzero" node-id="106" stroke="none" target-height="880" target-width="626.2" target-x="199" target-y="72"></path><path d="M 646.10 83.10 L 651.80 86.60 L 657.10 90.40 L 662.10 94.60 L 666.80 99.30 L 671.10 104.30 L 675.00 109.50 L 678.60 115.10 L 681.80 120.90 L 684.60 126.90 L 687.00 133.10 L 689.00 139.40 L 690.50 145.80 L 691.60 152.40 L 692.30 158.90 L 692.50 165.40 L 692.20 172.00 L 691.40 178.50 L 690.20 184.90 L 688.40 191.20 L 686.10 197.40 L 682.70 199.20 L 679.40 200.50 L 676.10 201.40 L 672.80 201.70 L 668.30 201.60 L 663.90 200.80 L 659.50 199.40 L 655.30 197.50 L 651.10 195.10 L 647.00 192.30 L 639.50 185.90 L 631.40 176.90 L 627.40 171.60 L 634.00 164.20 L 639.00 156.40 L 641.60 150.80 L 643.70 145.10 L 645.20 139.20 L 647.10 127.00 L 647.50 120.70 L 647.70 111.30 L 647.30 101.80 L 646.10 83.10 Z" fill="#fbd034" fill-rule="nonzero" node-id="108" stroke="none" target-height="118.6" target-width="65.099976" target-x="627.4" target-y="83.1"></path><path d="M 269.40 159.10 L 270.60 132.20 L 271.60 123.20 L 272.60 117.30 L 274.00 111.50 L 275.90 106.00 L 277.60 101.90 L 282.00 94.30 L 284.80 90.70 L 300.30 126.80 L 310.20 146.20 L 319.30 161.10 L 324.30 168.10 L 329.80 174.90 L 335.80 181.40 L 318.90 198.90 L 314.20 202.90 L 309.30 206.50 L 305.90 208.50 L 298.70 211.60 L 294.90 212.60 L 290.90 213.10 L 286.70 213.10 L 283.30 210.70 L 280.40 208.00 L 278.00 205.10 L 275.90 201.90 L 274.20 198.40 L 272.90 194.70 L 271.40 189.00 L 270.50 182.90 L 269.60 170.70 L 269.40 159.10 Z" fill="#fcd035" fill-rule="nonzero" node-id="110" stroke="none" target-height="122.40001" target-width="66.399994" target-x="269.4" target-y="90.7"></path><path d="M 576.20 214.30 L 583.80 199.70 L 586.80 195.20 L 589.20 192.50 L 591.80 190.30 L 594.60 188.40 L 596.90 187.40 L 602.20 186.30 L 605.40 186.30 L 598.80 200.60 L 591.20 214.50 L 576.20 214.30 Z" fill="#455b67" fill-rule="nonzero" node-id="112" stroke="none" target-height="28.199997" target-width="29.200012" target-x="576.2" target-y="186.3"></path><path d="M 536.20 234.70 L 536.20 217.00 L 536.70 211.10 L 537.30 207.30 L 538.30 203.60 L 541.00 197.80 L 544.80 193.40 L 547.30 191.50 L 548.40 205.70 L 548.40 210.60 L 548.10 215.50 L 547.30 220.20 L 546.40 223.10 L 543.60 228.50 L 541.70 230.80 L 539.20 232.80 L 536.20 234.70 Z" fill="#415a69" fill-rule="nonzero" node-id="114" stroke="none" target-height="43.199997" target-width="12.200012" target-x="536.2" target-y="191.5"></path><path d="M 606.20 252.10 L 611.50 249.80 L 617.00 248.00 L 622.60 246.60 L 628.30 245.70 L 634.10 245.10 L 639.90 245.00 L 645.70 245.30 L 651.50 246.00 L 657.20 247.10 L 668.40 250.40 L 679.00 255.20 L 684.00 258.10 L 688.70 261.30 L 693.20 264.90 L 697.40 268.80 L 701.30 273.00 L 704.80 277.50 L 707.90 282.30 L 710.60 287.30 L 712.80 292.60 L 714.50 298.20 L 717.00 310.20 L 717.70 316.10 L 717.90 322.00 L 717.70 327.90 L 717.00 333.70 L 716.00 339.50 L 714.50 345.20 L 712.60 350.70 L 710.30 356.20 L 704.80 366.50 L 697.80 376.10 L 694.00 380.50 L 685.30 388.50 L 680.60 392.00 L 675.70 395.20 L 670.60 398.00 L 665.20 400.50 L 659.70 402.60 L 654.10 404.20 L 648.20 405.30 L 636.80 406.40 L 631.50 406.40 L 626.30 405.90 L 621.20 405.00 L 611.20 402.00 L 601.70 397.60 L 595.70 394.00 L 590.10 389.90 L 584.80 385.20 L 580.00 380.10 L 575.60 374.60 L 571.80 368.70 L 567.00 359.40 L 565.20 354.40 L 562.10 343.80 L 561.00 338.10 L 560.30 332.40 L 560.10 326.50 L 560.80 314.90 L 563.00 303.50 L 564.70 297.90 L 569.20 287.30 L 572.00 282.20 L 575.20 277.40 L 578.60 272.80 L 582.40 268.50 L 586.60 264.50 L 591.00 260.80 L 595.80 257.50 L 600.80 254.60 L 606.20 252.10 Z M 626.00 321.30 L 608.30 317.60 L 605.60 321.00 L 603.50 324.50 L 601.70 328.10 L 600.30 331.80 L 598.90 337.00 L 598.30 342.20 L 598.20 347.50 L 598.70 352.70 L 599.80 357.80 L 601.50 362.80 L 603.70 367.60 L 606.40 372.00 L 609.60 376.10 L 615.20 381.50 L 621.80 385.70 L 625.40 387.30 L 629.30 388.50 L 633.30 389.40 L 641.60 390.40 L 645.50 390.60 L 652.80 389.80 L 657.50 388.50 L 662.00 386.60 L 666.20 384.20 L 670.10 381.30 L 673.70 377.90 L 676.90 374.20 L 679.70 370.20 L 682.00 365.90 L 683.80 361.30 L 685.10 356.60 L 685.80 351.80 L 686.00 346.90 L 684.90 339.60 L 683.80 336.00 L 680.80 328.70 L 678.80 325.20 L 676.30 321.80 L 673.40 318.70 L 670.30 315.90 L 666.80 313.40 L 663.10 311.20 L 659.40 309.40 L 655.50 308.10 L 651.50 307.10 L 647.60 306.80 L 643.80 306.90 L 638.40 308.20 L 633.50 311.00 L 631.40 312.80 L 629.40 315.10 L 627.60 317.90 L 626.00 321.30 Z" fill="#fffefe" fill-rule="nonzero" node-id="116" stroke="none" target-height="161.4" target-width="157.80005" target-x="560.1" target-y="245"></path><path d="M 626.00 321.30 L 627.60 317.90 L 629.40 315.10 L 631.40 312.80 L 633.50 311.00 L 638.40 308.20 L 643.80 306.90 L 647.60 306.80 L 651.50 307.10 L 655.50 308.10 L 659.40 309.40 L 663.10 311.20 L 666.80 313.40 L 670.30 315.90 L 673.40 318.70 L 676.30 321.80 L 678.80 325.20 L 680.80 328.70 L 683.80 336.00 L 685.60 343.20 L 686.00 346.90 L 685.80 351.80 L 685.10 356.60 L 683.80 361.30 L 682.00 365.90 L 679.70 370.20 L 676.90 374.20 L 673.70 377.90 L 670.10 381.30 L 666.20 384.20 L 662.00 386.60 L 657.50 388.50 L 652.80 389.80 L 645.50 390.60 L 633.30 389.40 L 629.30 388.50 L 625.40 387.30 L 621.80 385.70 L 615.20 381.50 L 609.60 376.10 L 606.40 372.00 L 603.70 367.60 L 601.50 362.80 L 599.80 357.80 L 598.70 352.70 L 598.20 347.50 L 598.30 342.20 L 598.90 337.00 L 600.30 331.80 L 601.70 328.10 L 603.50 324.50 L 605.60 321.00 L 608.30 317.60 L 626.00 321.30 Z" fill="#3d3747" fill-rule="nonzero" node-id="118" stroke="none" target-height="83.80002" target-width="87.79999" target-x="598.2" target-y="306.8"></path><path d="M 285.90 388.60 L 289.60 387.70 L 292.20 387.50 L 294.00 387.80 L 295.20 388.60 L 295.90 389.80 L 296.30 391.50 L 296.10 394.00 L 295.10 397.60 L 291.40 398.60 L 288.80 398.70 L 287.10 398.30 L 285.90 397.60 L 285.10 396.40 L 284.80 394.70 L 284.90 392.20 L 285.90 388.60 Z" fill="#3c575e" fill-rule="nonzero" node-id="120" stroke="none" target-height="11.200012" target-width="11.5" target-x="284.8" target-y="387.5"></path><path d="M 717.00 394.50 L 718.20 393.10 L 719.60 392.00 L 721.10 391.40 L 724.50 391.10 L 726.20 391.40 L 728.70 392.30 L 730.70 393.70 L 732.60 396.30 L 733.00 397.80 L 733.00 399.30 L 732.50 401.00 L 731.30 402.80 L 730.10 404.00 L 727.20 405.40 L 724.80 405.60 L 722.30 405.30 L 719.90 404.40 L 718.00 403.00 L 716.90 401.90 L 715.70 399.20 L 715.60 397.80 L 716.00 396.30 L 717.00 394.50 Z" fill="#4e6b75" fill-rule="nonzero" node-id="122" stroke="none" target-height="14.5" target-width="17.400024" target-x="715.6" target-y="391.1"></path><path d="M 481.60 422.70 L 484.90 418.40 L 488.80 415.70 L 491.80 414.60 L 494.80 414.10 L 498.00 414.00 L 501.20 414.50 L 504.40 415.40 L 507.50 416.70 L 510.40 418.50 L 513.10 420.50 L 515.50 422.90 L 517.60 425.60 L 519.20 428.50 L 520.30 431.60 L 515.30 430.70 L 510.60 429.10 L 496.60 423.60 L 491.80 422.40 L 488.50 422.00 L 485.10 422.10 L 481.60 422.70 Z" fill="#406069" fill-rule="nonzero" node-id="124" stroke="none" target-height="17.600006" target-width="38.69998" target-x="481.6" target-y="414"></path><path d="M 523.40 428.90 L 525.30 424.00 L 528.30 420.30 L 530.80 418.30 L 533.50 416.80 L 536.60 415.80 L 539.80 415.20 L 543.00 415.00 L 546.20 415.40 L 549.40 416.20 L 552.30 417.40 L 554.90 419.20 L 556.70 420.80 L 559.50 424.80 L 560.50 427.30 L 544.90 422.30 L 540.90 424.70 L 536.80 426.60 L 532.60 427.90 L 528.10 428.70 L 523.40 428.90 Z" fill="#3e5e66" fill-rule="nonzero" node-id="126" stroke="none" target-height="13.899994" target-width="37.099976" target-x="523.4" target-y="415"></path><path d="M 292.80 421.70 L 298.10 421.10 L 299.50 421.40 L 300.80 422.10 L 301.50 423.00 L 301.90 424.10 L 301.60 426.70 L 299.60 430.30 L 297.80 432.20 L 295.80 433.70 L 293.70 434.60 L 292.30 434.80 L 291.00 434.60 L 289.70 434.00 L 288.60 432.90 L 287.70 431.30 L 286.80 428.70 L 292.80 421.70 Z" fill="#48646d" fill-rule="nonzero" node-id="128" stroke="none" target-height="13.699982" target-width="15.100006" target-x="286.8" target-y="421.1"></path><path d="M 397.60 425.90 L 401.90 427.30 L 410.10 430.90 L 421.40 437.80 L 438.00 449.30 L 443.80 452.70 L 451.90 456.40 L 464.30 460.40 L 481.30 464.60 L 489.90 466.20 L 498.60 467.40 L 507.40 468.30 L 516.20 468.70 L 525.00 468.50 L 533.60 467.90 L 542.20 466.70 L 550.70 464.90 L 558.90 462.50 L 565.00 460.20 L 570.90 457.50 L 576.70 454.40 L 587.70 447.40 L 603.60 436.20 L 611.10 432.20 L 615.10 430.60 L 618.10 431.70 L 620.50 433.10 L 622.50 435.00 L 625.50 439.70 L 626.50 442.40 L 627.60 446.80 L 628.20 451.30 L 628.60 460.00 L 627.90 464.70 L 626.80 469.10 L 625.20 473.30 L 623.10 477.30 L 617.90 484.50 L 611.50 491.00 L 606.60 494.80 L 601.50 498.20 L 596.10 501.30 L 590.40 504.00 L 579.30 508.30 L 570.20 509.50 L 552.00 510.70 L 538.20 510.80 L 496.90 509.50 L 458.90 506.00 L 446.30 504.10 L 438.00 502.40 L 429.80 500.30 L 421.90 497.60 L 416.10 495.30 L 410.40 492.50 L 404.90 489.30 L 399.50 485.80 L 397.00 482.50 L 394.90 479.20 L 393.20 475.70 L 391.90 472.10 L 390.70 467.00 L 390.00 461.90 L 389.90 456.60 L 390.30 451.20 L 391.10 446.00 L 392.30 440.70 L 393.80 435.50 L 397.60 425.90 Z M 400.90 440.70 L 400.60 452.40 L 401.00 458.30 L 403.30 475.90 L 425.70 454.80 L 423.40 453.30 L 420.90 451.20 L 413.80 444.10 L 409.70 441.00 L 406.40 439.70 L 404.60 439.50 L 402.80 439.90 L 400.90 440.70 Z M 596.40 457.40 L 613.10 472.70 L 612.20 443.70 L 596.40 457.40 Z M 430.80 456.90 L 433.90 481.00 L 435.20 487.00 L 436.90 492.80 L 439.50 493.30 L 441.80 493.20 L 443.90 492.70 L 447.80 490.50 L 452.20 486.20 L 459.40 476.80 L 464.20 471.60 L 430.80 456.90 Z M 553.90 476.80 L 556.20 478.90 L 558.40 481.60 L 564.60 490.70 L 568.40 495.10 L 571.80 497.40 L 573.70 498.00 L 575.80 498.20 L 578.20 498.00 L 581.80 488.80 L 591.50 460.80 L 579.10 466.50 L 553.90 476.80 Z M 458.50 496.20 L 491.20 498.50 L 481.40 482.90 L 477.40 478.50 L 475.00 476.70 L 471.50 479.20 L 468.40 482.20 L 465.60 485.40 L 458.50 496.20 Z M 488.80 477.30 L 498.20 490.70 L 503.40 497.10 L 508.90 503.20 L 520.50 491.60 L 531.40 479.30 L 488.80 477.30 Z M 528.40 499.80 L 560.10 499.80 L 544.40 480.80 L 536.10 490.00 L 528.40 499.80 Z" fill="#3b3e54" fill-rule="nonzero" node-id="130" stroke="none" target-height="84.899994" target-width="238.69998" target-x="389.9" target-y="425.9"></path><path d="M 693.40 435.40 L 696.30 434.70 L 698.50 434.60 L 700.00 435.00 L 701.20 435.70 L 702.00 436.80 L 702.50 438.30 L 702.60 440.60 L 702.20 443.80 L 699.10 444.50 L 696.90 444.50 L 695.30 444.20 L 694.20 443.40 L 693.40 442.30 L 692.90 440.80 L 692.90 438.60 L 693.40 435.40 Z" fill="#4d7476" fill-rule="nonzero" node-id="132" stroke="none" target-height="9.899994" target-width="9.699951" target-x="692.9" target-y="434.6"></path><path d="M 308.60 439.60 L 312.30 438.50 L 314.80 438.20 L 316.50 438.50 L 317.70 439.20 L 318.50 440.30 L 318.80 442.10 L 318.70 444.60 L 317.80 448.30 L 314.10 449.40 L 311.60 449.60 L 309.90 449.30 L 308.70 448.60 L 307.90 447.50 L 307.50 445.80 L 307.70 443.20 L 308.60 439.60 Z" fill="#587c80" fill-rule="nonzero" node-id="134" stroke="none" target-height="11.399994" target-width="11.299988" target-x="307.5" target-y="438.2"></path><path d="M 400.90 440.70 L 402.80 439.90 L 404.60 439.50 L 406.40 439.70 L 409.70 441.00 L 413.80 444.10 L 420.90 451.20 L 423.40 453.30 L 425.70 454.80 L 403.30 475.90 L 401.00 458.30 L 400.60 452.40 L 400.90 440.70 Z" fill="#f8f8fb" fill-rule="nonzero" node-id="136" stroke="none" target-height="36.399994" target-width="25.100006" target-x="400.6" target-y="439.5"></path><path d="M 553.90 476.80 L 579.10 466.50 L 591.50 460.80 L 581.80 488.80 L 578.20 498.00 L 575.80 498.20 L 573.70 498.00 L 571.80 497.40 L 568.40 495.10 L 564.60 490.70 L 558.40 481.60 L 556.20 478.90 L 553.90 476.80 Z" fill="#fcfbf9" fill-rule="nonzero" node-id="138" stroke="none" target-height="37.400024" target-width="37.599976" target-x="553.9" target-y="460.8"></path><path d="M 528.40 499.80 L 536.10 490.00 L 544.40 480.80 L 560.10 499.80 L 528.40 499.80 Z" fill="#e6e8ea" fill-rule="nonzero" node-id="140" stroke="none" target-height="19" target-width="31.699951" target-x="528.4" target-y="480.8"></path><path d="M 684.90 550.20 L 695.50 543.80 L 705.80 536.90 L 715.70 529.60 L 725.40 521.80 L 739.00 543.60 L 752.20 565.90 L 760.70 580.90 L 768.70 596.20 L 776.40 611.60 L 781.80 623.40 L 786.80 635.30 L 791.40 647.30 L 795.60 659.50 L 799.40 671.80 L 802.70 684.20 L 805.40 696.90 L 807.60 709.70 L 791.80 695.10 L 786.10 691.10 L 783.00 689.70 L 779.80 688.70 L 776.20 688.30 L 772.30 688.50 L 770.50 718.10 L 763.00 706.80 L 758.80 701.40 L 754.30 696.30 L 749.50 691.70 L 744.30 687.50 L 740.20 684.60 L 735.80 682.20 L 731.20 680.10 L 726.30 678.30 L 721.00 656.40 L 715.10 634.70 L 708.70 613.20 L 703.40 597.20 L 697.70 581.40 L 691.60 565.70 L 684.90 550.20 Z M 738.70 607.10 L 726.40 619.90 L 732.80 621.20 L 739.10 622.80 L 747.20 625.70 L 751.20 627.70 L 756.10 616.80 L 757.90 611.20 L 759.30 605.50 L 748.90 619.60 L 738.70 607.10 Z" fill="#8dc5be" fill-rule="nonzero" node-id="142" stroke="none" target-height="196.29999" target-width="122.69995" target-x="684.9" target-y="521.8"></path><path d="M 288.10 527.80 L 305.00 538.90 L 322.50 549.30 L 334.60 555.10 L 341.00 557.60 L 326.60 616.80 L 322.30 636.60 L 319.70 649.90 L 317.60 663.20 L 315.90 676.70 L 308.90 678.50 L 302.20 680.80 L 295.90 683.60 L 289.90 687.00 L 284.20 690.80 L 278.80 695.00 L 273.70 699.70 L 268.90 704.70 L 264.50 710.10 L 260.40 715.70 L 256.60 721.60 L 253.10 727.80 L 253.30 723.90 L 254.90 711.30 L 254.90 705.80 L 254.50 703.30 L 253.70 700.90 L 252.40 698.60 L 250.50 696.50 L 247.00 696.70 L 243.80 697.40 L 240.80 698.60 L 236.50 700.90 L 232.30 703.90 L 220.40 713.70 L 216.30 716.40 L 218.00 703.70 L 220.20 691.20 L 222.90 678.80 L 225.90 666.50 L 229.40 654.30 L 237.50 630.20 L 242.10 618.40 L 248.70 602.80 L 255.70 587.40 L 263.30 572.20 L 271.20 557.10 L 288.10 527.80 Z M 281.10 595.80 L 280.80 597.50 L 281.30 600.90 L 282.60 603.20 L 284.50 605.40 L 286.90 607.30 L 289.50 608.80 L 292.40 609.80 L 295.20 610.30 L 297.10 610.30 L 300.30 609.40 L 300.80 607.50 L 300.90 605.70 L 299.80 602.30 L 297.40 599.30 L 295.10 597.50 L 292.30 596.00 L 289.40 595.10 L 286.40 594.70 L 284.50 594.80 L 281.10 595.80 Z M 287.50 623.70 L 288.40 626.40 L 289.40 628.20 L 290.50 629.40 L 291.80 630.00 L 293.40 630.20 L 295.20 630.00 L 297.40 629.10 L 300.20 627.40 L 299.40 624.60 L 298.30 622.80 L 297.20 621.60 L 295.90 620.90 L 294.40 620.70 L 292.50 621.00 L 290.30 622.00 L 287.50 623.70 Z" fill="#8dc5be" fill-rule="nonzero" node-id="144" stroke="none" target-height="200" target-width="124.7" target-x="216.3" target-y="527.8"></path><path d="M 281.10 595.80 L 284.50 594.80 L 286.40 594.70 L 289.40 595.10 L 292.30 596.00 L 295.10 597.50 L 297.40 599.30 L 299.80 602.30 L 300.90 605.70 L 300.80 607.50 L 300.30 609.40 L 297.10 610.30 L 295.20 610.30 L 292.40 609.80 L 289.50 608.80 L 286.90 607.30 L 284.50 605.40 L 282.60 603.20 L 281.30 600.90 L 280.90 599.20 L 280.80 597.50 L 281.10 595.80 Z" fill="#49636d" fill-rule="nonzero" node-id="146" stroke="none" target-height="15.599976" target-width="20.100006" target-x="280.8" target-y="594.7"></path><path d="M 372.60 604.30 L 378.10 607.40 L 383.40 610.90 L 388.40 614.90 L 393.00 619.30 L 395.80 622.50 L 400.50 629.40 L 402.30 633.20 L 403.70 637.20 L 404.70 641.40 L 395.30 635.40 L 390.90 631.90 L 386.70 628.00 L 382.90 623.90 L 379.50 619.50 L 377.20 615.90 L 373.80 608.40 L 372.60 604.30 Z" fill="#344c57" fill-rule="nonzero" node-id="148" stroke="none" target-height="37.100037" target-width="32.100006" target-x="372.6" target-y="604.3"></path><path d="M 442.40 639.80 L 447.10 634.40 L 452.10 629.40 L 457.40 625.00 L 463.10 621.00 L 469.00 617.50 L 475.20 614.40 L 481.60 611.80 L 488.30 609.50 L 501.90 606.20 L 515.90 604.40 L 525.30 604.00 L 534.60 604.10 L 543.80 604.90 L 554.20 608.60 L 561.60 611.80 L 568.60 615.50 L 575.30 619.60 L 581.70 624.20 L 587.70 629.20 L 593.40 634.50 L 598.70 640.20 L 603.70 646.20 L 608.30 652.50 L 612.50 659.10 L 616.40 665.90 L 619.90 673.00 L 623.00 680.20 L 625.80 687.70 L 628.10 695.30 L 630.10 703.00 L 632.90 718.60 L 633.70 726.60 L 634.10 734.60 L 634.10 742.50 L 633.70 750.40 L 632.80 758.30 L 631.60 766.20 L 629.90 773.80 L 627.90 781.40 L 625.40 788.80 L 622.80 795.20 L 619.80 801.40 L 616.30 807.20 L 612.50 812.80 L 608.30 818.10 L 603.80 823.10 L 599.00 827.90 L 593.80 832.30 L 588.40 836.50 L 576.90 843.80 L 570.80 847.00 L 558.30 852.40 L 545.30 856.30 L 525.60 855.90 L 506.00 855.90 L 495.60 853.50 L 485.10 850.70 L 471.40 846.10 L 464.70 843.40 L 458.20 840.30 L 452.00 836.80 L 446.00 832.80 L 440.40 828.50 L 435.10 823.60 L 430.20 818.10 L 426.30 813.10 L 422.80 807.90 L 419.80 802.50 L 417.20 797.00 L 413.10 785.30 L 410.40 773.20 L 409.30 765.00 L 408.60 756.70 L 408.70 739.90 L 410.10 723.50 L 411.70 713.60 L 413.80 703.80 L 416.40 694.00 L 419.50 684.40 L 423.10 675.00 L 427.10 665.70 L 431.70 656.80 L 436.80 648.20 L 442.40 639.80 Z M 470.30 728.40 L 467.80 730.60 L 465.40 734.90 L 464.60 737.70 L 464.70 741.20 L 465.30 742.70 L 466.20 743.90 L 467.70 744.90 L 472.30 746.40 L 474.30 746.70 L 476.00 746.50 L 477.50 745.70 L 478.80 744.70 L 480.50 741.50 L 481.20 737.70 L 480.70 733.80 L 479.10 730.50 L 477.90 729.20 L 476.40 728.30 L 474.80 727.80 L 472.80 727.80 L 470.30 728.40 Z M 521.40 729.00 L 518.20 730.70 L 515.70 733.80 L 514.20 737.40 L 513.90 739.40 L 514.10 741.10 L 514.60 742.80 L 515.50 744.10 L 517.00 745.20 L 519.20 745.90 L 522.90 745.70 L 526.00 744.00 L 528.40 741.30 L 529.60 738.90 L 530.40 736.30 L 530.60 733.80 L 530.20 731.60 L 529.50 730.30 L 528.60 729.40 L 527.30 728.70 L 525.90 728.30 L 524.00 728.40 L 521.40 729.00 Z M 561.10 734.90 L 560.10 736.60 L 559.60 738.10 L 559.50 739.70 L 560.30 742.60 L 561.20 743.90 L 563.00 745.60 L 565.00 746.70 L 566.60 747.20 L 569.60 747.10 L 571.10 746.50 L 572.40 745.50 L 573.70 744.00 L 574.90 742.30 L 575.50 740.70 L 575.60 739.10 L 574.80 736.00 L 573.90 734.70 L 572.10 733.00 L 570.00 731.80 L 568.40 731.40 L 565.20 731.60 L 563.80 732.20 L 562.40 733.30 L 561.10 734.90 Z" fill="#fbce36" fill-rule="nonzero" node-id="150" stroke="none" target-height="252.29999" target-width="225.49997" target-x="408.6" target-y="604"></path><path d="M 287.50 623.70 L 290.30 622.00 L 292.50 621.00 L 294.40 620.70 L 295.90 620.90 L 297.20 621.60 L 298.30 622.80 L 299.40 624.60 L 300.20 627.40 L 297.40 629.10 L 295.20 630.00 L 293.40 630.20 L 291.80 630.00 L 290.50 629.40 L 289.40 628.20 L 288.40 626.40 L 287.50 623.70 Z" fill="#3d6069" fill-rule="nonzero" node-id="152" stroke="none" target-height="9.5" target-width="12.700012" target-x="287.5" target-y="620.7"></path><path d="M 673.30 629.80 L 675.80 629.50 L 677.60 629.80 L 678.80 630.40 L 679.80 631.40 L 680.40 632.70 L 680.60 634.40 L 680.40 637.10 L 679.50 640.00 L 678.10 642.90 L 676.20 645.50 L 673.20 648.10 L 671.60 648.90 L 669.90 649.30 L 668.20 649.20 L 666.40 648.50 L 665.60 646.80 L 664.90 643.30 L 665.20 640.60 L 666.10 638.00 L 667.50 635.50 L 669.20 633.30 L 671.20 631.30 L 673.30 629.80 Z" fill="#52757a" fill-rule="nonzero" node-id="154" stroke="none" target-height="19.799988" target-width="15.699951" target-x="664.9" target-y="629.5"></path><path d="M 470.30 728.40 L 472.80 727.80 L 474.80 727.80 L 476.40 728.30 L 477.90 729.20 L 479.10 730.50 L 480.00 732.10 L 481.10 735.70 L 481.00 739.70 L 479.80 743.20 L 478.80 744.70 L 477.50 745.70 L 476.00 746.50 L 474.30 746.70 L 472.30 746.40 L 467.70 744.90 L 466.20 743.90 L 465.30 742.70 L 464.50 739.60 L 464.60 737.70 L 465.40 734.90 L 467.80 730.60 L 470.30 728.40 Z" fill="#76622c" fill-rule="nonzero" node-id="156" stroke="none" target-height="18.900024" target-width="16.600006" target-x="464.5" target-y="727.8"></path><path d="M 521.40 729.00 L 524.00 728.40 L 525.90 728.30 L 527.30 728.70 L 528.60 729.40 L 529.50 730.30 L 530.20 731.60 L 530.60 733.80 L 530.40 736.30 L 529.60 738.90 L 528.40 741.30 L 526.00 744.00 L 522.90 745.70 L 519.20 745.90 L 517.00 745.20 L 515.50 744.10 L 514.60 742.80 L 514.10 741.10 L 513.90 739.40 L 514.20 737.40 L 515.70 733.80 L 518.20 730.70 L 521.40 729.00 Z" fill="#5e5024" fill-rule="nonzero" node-id="158" stroke="none" target-height="17.600037" target-width="16.699951" target-x="513.9" target-y="728.3"></path><path d="M 661.80 735.00 L 664.40 734.30 L 666.30 734.20 L 667.80 734.50 L 669.10 735.20 L 669.90 736.10 L 670.80 738.80 L 670.50 742.10 L 669.60 744.60 L 668.20 747.00 L 665.60 749.70 L 662.40 751.30 L 660.60 751.50 L 658.60 751.30 L 656.70 750.70 L 654.50 749.00 L 653.50 746.50 L 653.90 742.90 L 654.80 740.70 L 656.20 738.70 L 657.80 737.00 L 659.70 735.70 L 661.80 735.00 Z" fill="#41646c" fill-rule="nonzero" node-id="160" stroke="none" target-height="17.299988" target-width="17.299988" target-x="653.5" target-y="734.2"></path><path d="M 369.80 773.40 L 372.20 772.50 L 374.30 772.10 L 376.30 772.20 L 378.30 772.80 L 381.70 774.80 L 384.20 777.90 L 385.80 781.60 L 386.10 783.60 L 385.80 787.40 L 384.00 790.80 L 382.60 792.10 L 380.70 793.30 L 376.10 795.20 L 374.10 795.60 L 372.30 795.60 L 369.00 794.40 L 367.50 793.30 L 365.70 791.10 L 364.30 788.50 L 363.50 785.60 L 363.20 782.70 L 363.50 780.70 L 364.90 777.20 L 366.10 775.70 L 367.70 774.40 L 369.80 773.40 Z" fill="#4a5d63" fill-rule="nonzero" node-id="162" stroke="none" target-height="23.5" target-width="22.899994" target-x="363.2" target-y="772.1"></path><path d="M 666.80 785.80 L 668.40 784.70 L 670.50 784.00 L 672.80 783.70 L 675.10 783.80 L 677.30 784.30 L 680.00 785.90 L 680.90 787.90 L 680.20 790.40 L 677.80 793.70 L 676.40 795.00 L 674.80 795.90 L 672.20 796.70 L 669.50 796.90 L 666.80 796.60 L 664.50 795.80 L 662.10 794.20 L 661.00 792.10 L 661.10 791.00 L 661.60 789.70 L 664.20 787.30 L 666.80 785.80 Z" fill="#3e636d" fill-rule="nonzero" node-id="164" stroke="none" target-height="13.200012" target-width="19.900024" target-x="661" target-y="783.7"></path><path d="M 385.90 802.20 L 389.70 801.30 L 392.30 801.10 L 394.00 801.50 L 395.20 802.20 L 396.00 803.40 L 396.40 805.10 L 396.20 807.70 L 395.30 811.30 L 391.60 812.20 L 389.00 812.30 L 387.20 812.00 L 386.00 811.20 L 385.20 810.00 L 384.90 808.30 L 385.00 805.80 L 385.90 802.20 Z" fill="#617c7f" fill-rule="nonzero" node-id="166" stroke="none" target-height="11.200012" target-width="11.5" target-x="384.9" target-y="801.1"></path><path d="M 511.20 856.00 L 525.60 855.90 L 540.10 856.40 L 539.50 858.50 L 538.30 860.20 L 536.60 861.70 L 532.30 863.60 L 527.00 864.40 L 521.60 864.00 L 516.70 862.40 L 514.70 861.20 L 513.00 859.70 L 511.80 858.00 L 511.20 856.00 Z" fill="#7aa187" fill-rule="nonzero" node-id="168" stroke="none" target-height="8.5" target-width="28.899963" target-x="511.2" target-y="855.9"></path><path d="M 394.70 952.00 L 401.10 936.20 L 404.10 931.60 L 405.90 929.80 L 408.00 928.40 L 410.60 927.40 L 413.80 926.90 L 418.70 932.90 L 432.50 952.00 L 413.30 952.00 L 414.50 949.30 L 414.90 947.20 L 414.90 945.70 L 414.30 944.20 L 413.50 943.20 L 412.40 942.50 L 409.70 942.20 L 406.80 943.20 L 404.50 945.70 L 403.90 947.30 L 403.60 949.40 L 403.80 952.00 L 394.70 952.00 Z" fill="#355461" fill-rule="nonzero" node-id="170" stroke="none" target-height="25.099976" target-width="37.799988" target-x="394.7" target-y="926.9"></path><path d="M 613.90 952.00 L 617.10 948.60 L 626.40 937.30 L 630.90 932.90 L 633.40 931.10 L 636.00 929.70 L 639.00 928.70 L 642.30 928.10 L 647.30 939.90 L 651.90 952.00 L 636.70 952.00 L 638.00 949.30 L 638.50 947.20 L 638.50 945.70 L 638.00 944.20 L 637.20 943.20 L 636.10 942.60 L 634.80 942.20 L 631.90 942.60 L 629.20 944.30 L 628.10 945.80 L 627.40 947.40 L 627.00 949.40 L 627.10 952.00 L 613.90 952.00 Z" fill="#345462" fill-rule="nonzero" node-id="172" stroke="none" target-height="23.900024" target-width="38" target-x="613.9" target-y="928.1"></path><path d="M 681.60 952.00 L 681.10 948.50 L 681.20 945.30 L 681.90 942.30 L 683.20 939.50 L 685.10 936.90 L 687.70 934.40 L 689.90 935.60 L 692.20 937.30 L 694.10 939.30 L 695.70 941.50 L 696.90 944.00 L 697.50 946.60 L 697.10 950.20 L 696.40 952.00 L 681.60 952.00 Z" fill="#a4c5c8" fill-rule="nonzero" node-id="174" stroke="none" target-height="17.599976" target-width="16.400024" target-x="681.1" target-y="934.4"></path><path d="M 358.80 940.00 L 361.70 940.80 L 363.80 941.80 L 365.30 943.10 L 366.40 944.70 L 367.00 946.60 L 367.10 949.00 L 366.60 952.00 L 352.80 952.00 L 358.80 940.00 Z" fill="#b5cfcc" fill-rule="nonzero" node-id="176" stroke="none" target-height="12" target-width="14.300018" target-x="352.8" target-y="940"></path><path d="M 403.80 952.00 L 403.60 949.40 L 403.90 947.30 L 404.50 945.70 L 406.80 943.20 L 409.70 942.20 L 412.40 942.50 L 413.50 943.20 L 414.30 944.20 L 414.90 945.70 L 414.90 947.20 L 414.50 949.30 L 413.30 952.00 L 403.80 952.00 Z" fill="#89acb8" fill-rule="nonzero" node-id="178" stroke="none" target-height="9.799988" target-width="11.299988" target-x="403.6" target-y="942.2"></path><path d="M 627.10 952.00 L 627.00 949.40 L 627.40 947.40 L 628.10 945.80 L 629.20 944.30 L 631.90 942.60 L 634.80 942.20 L 637.20 943.20 L 638.00 944.20 L 638.50 945.70 L 638.50 947.20 L 638.00 949.30 L 636.70 952.00 L 627.10 952.00 Z" fill="#85a8b4" fill-rule="nonzero" node-id="180" stroke="none" target-height="9.799988" target-width="11.5" target-x="627" target-y="942.2"></path></svg>