<?xml version="1.0" standalone="no"?><!DOCTYPE svg PUBLIC "-//W3C//DTD SVG 1.1//EN" "http://www.w3.org/Graphics/SVG/1.1/DTD/svg11.dtd"><svg height="1024" node-id="1" sillyvg="true" template-height="1024" template-width="1024" version="1.1" viewBox="0 0 1024 1024" width="1024" xmlns="http://www.w3.org/2000/svg" xmlns:xlink="http://www.w3.org/1999/xlink"><defs node-id="41"></defs><path d="M 0.00 0.00 L 1024.00 0.00 L 1024.00 1024.00 L 0.00 1024.00 Z" fill="#ffffff" fill-rule="nonzero" node-id="43" stroke="none" target-height="1024" target-width="1024" target-x="0" target-y="0"></path><path d="M 595.20 803.20 L 602.70 804.10 L 610.40 810.20 L 626.70 821.30 L 635.10 826.40 L 643.80 830.90 L 652.90 835.00 L 655.00 870.00 L 655.90 905.20 L 460.60 905.20 L 464.30 869.70 L 466.90 858.20 L 470.30 849.40 L 476.20 845.30 L 494.90 834.00 L 501.00 830.00 L 506.70 825.60 L 510.20 822.40 L 513.50 818.90 L 524.60 805.00 L 547.70 806.90 L 555.70 807.30 L 563.70 807.20 L 571.60 806.60 L 583.40 805.20 L 595.20 803.20 Z" fill="#ffffff" fill-rule="nonzero" node-id="45" stroke="none" target-height="102" target-width="195.30002" target-x="460.6" target-y="803.2"></path><path d="M 620.90 344.50 L 626.50 342.70 L 632.10 341.50 L 637.80 340.80 L 643.40 340.70 L 649.10 341.00 L 654.70 341.80 L 660.20 343.00 L 665.70 344.70 L 671.00 346.80 L 676.10 349.20 L 681.00 352.10 L 685.70 355.30 L 690.20 358.90 L 694.30 362.80 L 698.10 367.00 L 701.60 371.50 L 704.70 376.30 L 707.40 381.30 L 709.60 386.60 L 711.30 392.10 L 712.80 397.50 L 713.90 402.80 L 714.40 408.20 L 714.60 413.60 L 714.30 418.90 L 712.50 429.50 L 711.00 434.70 L 707.00 444.70 L 701.60 454.10 L 698.40 458.50 L 691.30 466.50 L 687.30 470.20 L 683.10 473.50 L 678.70 476.50 L 674.00 479.20 L 669.20 481.50 L 664.10 483.50 L 659.00 484.90 L 653.60 486.00 L 642.90 487.00 L 637.90 487.00 L 632.90 486.60 L 623.20 484.60 L 613.90 481.20 L 609.50 479.00 L 603.80 475.50 L 598.50 471.60 L 593.50 467.20 L 588.90 462.40 L 584.70 457.20 L 581.10 451.70 L 577.90 445.80 L 575.30 439.70 L 573.30 433.40 L 571.40 423.60 L 571.10 418.60 L 571.50 407.80 L 572.30 402.20 L 573.40 396.60 L 575.00 391.20 L 577.10 385.80 L 579.40 380.70 L 582.20 375.80 L 585.30 371.00 L 588.70 366.50 L 592.50 362.40 L 596.50 358.50 L 600.90 354.90 L 605.50 351.70 L 610.40 348.80 L 615.50 346.40 L 620.90 344.50 Z M 600.70 437.50 L 602.20 441.30 L 604.00 444.80 L 606.20 448.00 L 608.60 450.90 L 612.40 454.40 L 616.50 457.40 L 620.90 459.90 L 625.70 461.90 L 630.60 463.40 L 635.70 464.40 L 640.90 464.80 L 646.00 464.60 L 651.10 463.90 L 654.80 462.90 L 661.80 460.00 L 668.10 455.80 L 670.90 453.20 L 673.40 450.20 L 677.90 443.30 L 679.60 439.80 L 680.80 436.20 L 682.00 428.90 L 681.60 421.50 L 680.90 417.80 L 679.40 413.00 L 677.50 408.30 L 675.10 403.80 L 672.20 399.50 L 669.10 395.50 L 665.60 391.90 L 648.70 404.90 L 642.70 408.70 L 640.30 408.20 L 638.40 407.30 L 635.60 404.60 L 633.90 400.80 L 632.60 394.20 L 631.80 384.00 L 631.30 381.30 L 623.90 383.00 L 617.30 386.20 L 613.30 388.90 L 609.70 392.10 L 606.50 395.80 L 603.70 399.80 L 601.40 404.10 L 599.60 408.60 L 598.30 413.40 L 597.60 418.20 L 597.40 423.10 L 598.30 430.40 L 600.70 437.50 Z" fill="#fefefd" fill-rule="nonzero" node-id="47" stroke="none" target-height="146.29999" target-width="143.5" target-x="571.1" target-y="340.7"></path><path d="M 128.00 184.80 L 134.80 180.70 L 141.70 176.80 L 148.80 173.40 L 156.20 170.20 L 171.30 165.10 L 186.90 161.50 L 194.80 160.30 L 202.70 159.50 L 210.60 159.00 L 218.60 159.10 L 226.60 159.50 L 234.40 160.30 L 242.20 161.60 L 250.00 163.40 L 257.60 165.60 L 265.10 168.20 L 272.40 171.30 L 279.60 174.90 L 282.40 176.40 L 284.70 178.10 L 286.50 180.20 L 288.00 182.60 L 290.20 187.90 L 292.30 196.60 L 262.10 191.20 L 245.30 188.90 L 231.80 188.40 L 225.10 188.80 L 218.40 189.80 L 205.30 193.20 L 198.80 195.20 L 186.00 200.30 L 179.90 203.40 L 174.00 206.90 L 165.80 213.00 L 158.70 220.10 L 155.60 224.00 L 152.80 228.20 L 150.50 232.80 L 148.50 237.70 L 147.10 242.60 L 146.40 247.30 L 146.20 252.10 L 146.70 256.80 L 147.60 261.50 L 148.90 266.20 L 152.70 275.20 L 155.00 279.60 L 162.60 292.10 L 162.80 301.00 L 158.20 297.20 L 153.90 293.00 L 150.10 288.40 L 146.60 283.50 L 143.70 278.30 L 141.20 272.90 L 139.30 267.20 L 137.90 261.50 L 137.10 255.70 L 136.90 251.30 L 137.60 242.60 L 138.60 238.30 L 139.90 234.10 L 141.60 230.10 L 143.80 226.10 L 150.20 216.80 L 154.20 211.90 L 158.40 207.50 L 162.90 203.50 L 167.70 199.90 L 178.00 193.60 L 183.50 190.90 L 191.00 187.90 L 198.80 185.20 L 206.80 182.90 L 218.90 180.10 L 231.20 177.80 L 255.40 174.00 L 244.00 171.90 L 224.60 169.50 L 209.00 168.90 L 201.20 169.10 L 193.50 169.80 L 185.80 170.90 L 178.20 172.50 L 170.70 174.60 L 159.00 178.70 L 146.00 183.90 L 141.60 185.20 L 137.20 185.90 L 134.20 186.00 L 131.20 185.70 L 128.00 184.80 Z" fill="#3d3a4f" fill-rule="nonzero" node-id="49" stroke="none" target-height="142" target-width="164.29999" target-x="128" target-y="159"></path><path d="M 938.40 249.10 L 939.70 244.80 L 940.60 240.50 L 941.10 236.10 L 941.30 229.50 L 940.10 202.90 L 940.60 196.40 L 941.30 192.20 L 942.40 188.00 L 944.10 183.80 L 946.60 191.30 L 948.60 198.80 L 950.20 206.60 L 951.40 214.40 L 951.90 222.20 L 951.90 230.00 L 951.50 235.90 L 950.70 241.70 L 949.40 247.40 L 947.80 253.20 L 944.70 261.90 L 941.20 270.30 L 937.30 278.40 L 932.90 286.40 L 928.10 294.10 L 923.00 301.50 L 917.50 308.70 L 911.60 315.70 L 899.00 328.80 L 885.30 340.90 L 875.70 348.30 L 865.70 355.20 L 855.40 361.50 L 847.20 358.60 L 869.50 340.20 L 880.50 330.70 L 891.10 320.70 L 898.00 313.90 L 910.80 299.50 L 916.60 291.90 L 922.00 284.00 L 927.00 275.80 L 933.40 262.90 L 938.40 249.10 Z" fill="#3d3a4f" fill-rule="nonzero" node-id="51" stroke="none" target-height="177.7" target-width="104.70001" target-x="847.2" target-y="183.8"></path><path d="M 638.40 331.20 L 645.50 331.30 L 652.50 331.90 L 659.50 333.20 L 666.40 335.00 L 673.00 337.30 L 679.50 340.20 L 685.80 343.50 L 691.70 347.30 L 697.30 351.60 L 701.90 356.90 L 706.20 362.60 L 710.10 368.50 L 713.50 374.80 L 716.60 381.20 L 719.10 387.80 L 721.20 394.60 L 722.70 401.50 L 723.70 408.50 L 724.00 413.80 L 723.60 424.20 L 721.70 434.60 L 720.20 439.70 L 718.20 444.70 L 713.20 455.30 L 710.20 460.60 L 706.80 465.50 L 703.10 470.00 L 698.90 474.20 L 694.50 478.10 L 689.80 481.60 L 684.80 484.80 L 679.50 487.60 L 674.10 490.00 L 668.60 492.00 L 662.90 493.70 L 651.20 495.90 L 639.30 496.50 L 633.40 496.20 L 627.50 495.40 L 621.80 494.30 L 616.10 492.80 L 610.50 490.80 L 605.20 488.50 L 600.00 485.70 L 595.10 482.40 L 590.40 478.80 L 586.10 474.70 L 582.00 470.10 L 574.10 459.60 L 570.60 454.10 L 567.70 448.40 L 565.40 442.50 L 563.60 436.50 L 562.30 430.30 L 561.60 424.10 L 561.30 417.80 L 561.60 411.50 L 562.30 405.30 L 563.50 399.00 L 565.10 392.90 L 567.10 386.80 L 569.60 380.90 L 572.40 375.20 L 575.70 369.70 L 579.30 364.40 L 583.20 359.40 L 587.50 354.70 L 592.10 350.40 L 597.00 346.30 L 602.20 342.80 L 607.60 339.60 L 613.30 336.90 L 619.30 334.60 L 625.40 332.90 L 631.80 331.80 L 638.40 331.20 Z M 620.90 344.50 L 615.50 346.40 L 610.40 348.80 L 605.50 351.70 L 600.90 354.90 L 596.50 358.50 L 592.50 362.40 L 588.70 366.50 L 585.30 371.00 L 582.20 375.80 L 579.40 380.70 L 577.10 385.80 L 575.00 391.20 L 573.40 396.60 L 572.30 402.20 L 571.50 407.80 L 571.10 418.60 L 571.40 423.60 L 573.30 433.40 L 575.30 439.70 L 577.90 445.80 L 581.10 451.70 L 584.70 457.20 L 588.90 462.40 L 593.50 467.20 L 598.50 471.60 L 603.80 475.50 L 609.50 479.00 L 613.90 481.20 L 623.20 484.60 L 632.90 486.60 L 637.90 487.00 L 642.90 487.00 L 653.60 486.00 L 659.00 484.90 L 664.10 483.50 L 669.20 481.50 L 674.00 479.20 L 678.70 476.50 L 683.10 473.50 L 687.30 470.20 L 691.30 466.50 L 698.40 458.50 L 701.60 454.10 L 707.00 444.70 L 711.00 434.70 L 712.50 429.50 L 714.30 418.90 L 714.60 413.60 L 714.40 408.20 L 713.90 402.80 L 712.80 397.50 L 711.30 392.10 L 709.60 386.60 L 707.40 381.30 L 704.70 376.30 L 701.60 371.50 L 698.10 367.00 L 694.30 362.80 L 690.20 358.90 L 685.70 355.30 L 681.00 352.10 L 676.10 349.20 L 671.00 346.80 L 665.70 344.70 L 660.20 343.00 L 654.70 341.80 L 649.10 341.00 L 643.40 340.70 L 637.80 340.80 L 632.10 341.50 L 626.50 342.70 L 620.90 344.50 Z" fill="#3d3a4f" fill-rule="nonzero" node-id="53" stroke="none" target-height="165.29999" target-width="162.70001" target-x="561.3" target-y="331.2"></path><path d="M 894.10 562.80 L 902.80 564.60 L 914.90 593.80 L 920.70 608.50 L 926.00 623.50 L 929.10 633.60 L 931.70 643.70 L 933.80 654.00 L 935.00 661.70 L 935.90 669.60 L 936.30 677.50 L 936.30 685.50 L 929.90 681.60 L 923.90 677.20 L 918.10 672.50 L 912.70 667.40 L 902.20 656.90 L 895.00 685.60 L 890.30 699.70 L 887.60 699.80 L 885.40 699.30 L 883.50 698.30 L 880.40 695.00 L 877.50 688.90 L 873.80 676.10 L 872.50 672.10 L 871.10 669.00 L 871.20 661.10 L 886.40 675.40 L 897.70 641.20 L 927.00 662.00 L 922.20 645.30 L 916.80 628.70 L 899.50 579.40 L 894.10 562.80 Z" fill="#3d3a4f" fill-rule="nonzero" node-id="55" stroke="none" target-height="137" target-width="65.20001" target-x="871.1" target-y="562.8"></path><path d="M 374.30 351.90 L 379.00 348.00 L 384.00 344.50 L 389.50 341.50 L 395.20 338.90 L 401.10 336.70 L 407.20 335.00 L 413.40 333.80 L 419.70 333.10 L 426.00 332.90 L 432.30 333.20 L 438.40 334.00 L 444.40 335.40 L 450.20 337.30 L 455.80 339.70 L 461.10 342.70 L 464.80 345.40 L 468.20 348.30 L 471.50 351.60 L 474.50 355.30 L 464.40 353.00 L 452.70 347.70 L 446.60 345.60 L 440.40 343.90 L 434.10 342.70 L 427.80 342.00 L 421.40 341.80 L 415.10 342.20 L 408.90 343.10 L 404.30 344.30 L 399.70 345.90 L 395.30 347.80 L 385.90 353.00 L 381.40 356.00 L 377.20 359.40 L 373.30 363.20 L 369.70 367.20 L 363.50 375.90 L 360.90 380.60 L 358.60 385.50 L 355.10 395.70 L 352.90 406.30 L 352.40 411.70 L 352.40 422.50 L 353.00 427.80 L 355.30 438.30 L 357.10 443.40 L 359.20 448.40 L 361.70 453.10 L 364.70 457.70 L 371.90 466.50 L 376.00 470.50 L 380.30 474.00 L 385.00 477.20 L 390.00 479.90 L 395.10 482.30 L 400.40 484.20 L 405.90 485.70 L 411.40 486.80 L 417.00 487.40 L 422.70 487.70 L 428.40 487.50 L 434.00 486.90 L 439.50 485.80 L 444.90 484.30 L 450.30 482.40 L 455.40 480.00 L 460.30 477.20 L 465.00 474.00 L 469.40 470.20 L 476.80 463.10 L 482.90 455.10 L 486.20 449.30 L 489.00 443.20 L 491.30 436.90 L 492.90 430.30 L 494.00 423.70 L 494.60 417.00 L 494.50 410.20 L 493.90 403.50 L 492.80 396.80 L 491.10 390.30 L 488.80 383.90 L 486.00 377.80 L 488.70 377.40 L 490.90 377.60 L 492.70 378.30 L 495.60 380.90 L 498.10 385.80 L 501.00 395.30 L 502.30 401.40 L 503.10 407.50 L 503.50 413.70 L 503.40 420.00 L 502.90 426.30 L 502.00 432.50 L 500.60 438.50 L 498.80 444.50 L 496.50 450.40 L 493.90 455.90 L 490.80 461.20 L 487.20 466.30 L 483.30 471.10 L 478.90 475.40 L 474.00 479.40 L 463.90 486.10 L 458.90 488.80 L 453.70 491.20 L 448.30 493.10 L 442.70 494.70 L 431.50 496.70 L 425.80 497.10 L 414.30 496.80 L 403.10 494.90 L 397.60 493.40 L 392.20 491.50 L 387.00 489.20 L 382.00 486.50 L 377.20 483.50 L 372.70 480.10 L 368.40 476.20 L 360.60 467.70 L 357.20 463.20 L 354.20 458.40 L 351.50 453.40 L 349.20 448.30 L 345.70 437.60 L 344.50 432.00 L 343.10 420.80 L 343.20 409.40 L 343.80 403.80 L 344.70 398.20 L 347.70 387.40 L 349.70 382.10 L 352.10 377.10 L 354.90 372.30 L 358.00 367.60 L 361.50 363.30 L 365.40 359.20 L 369.60 355.40 L 374.30 351.90 Z" fill="#37384d" fill-rule="nonzero" node-id="57" stroke="none" target-height="164.20001" target-width="160.4" target-x="343.1" target-y="332.9"></path><path d="M 125.20 369.40 L 154.20 384.50 L 174.10 393.50 L 191.70 400.20 L 214.60 408.00 L 222.00 411.00 L 229.10 414.50 L 233.70 417.10 L 238.10 420.20 L 242.30 423.60 L 227.00 420.00 L 201.40 413.00 L 181.40 406.20 L 171.50 402.30 L 161.90 398.10 L 152.40 393.50 L 143.10 388.50 L 134.10 383.00 L 125.30 377.10 L 125.20 369.40 Z" fill="#37384d" fill-rule="nonzero" node-id="59" stroke="none" target-height="54.200012" target-width="117.100006" target-x="125.2" target-y="369.4"></path><path d="M 390.80 350.20 L 395.30 347.80 L 404.30 344.30 L 408.90 343.10 L 415.10 342.20 L 421.40 341.80 L 427.80 342.00 L 434.10 342.70 L 440.40 343.90 L 446.60 345.60 L 452.70 347.70 L 464.40 353.00 L 475.60 365.00 L 486.00 377.80 L 488.80 383.90 L 491.10 390.30 L 492.80 396.80 L 493.90 403.50 L 494.50 410.20 L 494.60 417.00 L 494.00 423.70 L 492.90 430.30 L 491.30 436.90 L 489.00 443.20 L 486.20 449.30 L 482.90 455.10 L 476.80 463.10 L 473.30 466.80 L 465.00 474.00 L 460.30 477.20 L 455.40 480.00 L 450.30 482.40 L 444.90 484.30 L 439.50 485.80 L 434.00 486.90 L 428.40 487.50 L 422.70 487.70 L 417.00 487.40 L 411.40 486.80 L 405.90 485.70 L 400.40 484.20 L 395.10 482.30 L 390.00 479.90 L 385.00 477.20 L 380.30 474.00 L 376.00 470.50 L 371.90 466.50 L 364.70 457.70 L 361.70 453.10 L 359.20 448.40 L 357.10 443.40 L 355.30 438.30 L 353.00 427.80 L 352.40 422.50 L 352.20 417.10 L 352.90 406.30 L 355.10 395.70 L 356.70 390.60 L 360.90 380.60 L 363.50 375.90 L 369.70 367.20 L 373.30 363.20 L 377.20 359.40 L 381.40 356.00 L 385.90 353.00 L 390.80 350.20 Z M 384.40 448.00 L 387.20 452.00 L 390.50 455.50 L 394.10 458.60 L 398.20 461.20 L 402.40 463.30 L 407.00 465.00 L 411.60 466.30 L 416.40 467.00 L 421.20 467.20 L 426.00 467.00 L 430.70 466.20 L 435.30 465.00 L 439.60 463.20 L 443.70 460.90 L 447.60 458.10 L 450.10 455.70 L 454.60 450.00 L 458.40 442.50 L 459.80 438.40 L 460.70 434.30 L 461.00 430.30 L 460.80 426.20 L 460.20 422.20 L 459.20 418.30 L 457.80 414.40 L 453.80 407.20 L 448.50 400.80 L 445.40 398.00 L 438.50 393.20 L 434.70 391.30 L 432.80 393.70 L 427.80 402.10 L 425.90 404.70 L 423.80 407.00 L 420.40 409.30 L 418.30 410.10 L 415.50 410.10 L 413.10 409.70 L 411.20 408.70 L 407.80 405.70 L 406.40 403.70 L 401.00 393.70 L 399.20 391.00 L 395.20 393.20 L 391.60 395.80 L 388.30 398.90 L 385.50 402.30 L 383.10 405.90 L 381.10 409.90 L 379.50 414.00 L 378.40 418.20 L 377.80 422.60 L 377.60 427.00 L 377.90 431.40 L 378.70 435.70 L 380.10 440.00 L 381.90 444.00 L 384.40 448.00 Z" fill="#fefefe" fill-rule="nonzero" node-id="61" stroke="none" target-height="145.90002" target-width="142.4" target-x="352.2" target-y="341.8"></path><path d="M 678.70 905.20 L 684.60 894.90 L 701.60 863.30 L 712.40 905.20 L 678.70 905.20 Z" fill="#fdfdfd" fill-rule="nonzero" node-id="63" stroke="none" target-height="41.900024" target-width="33.700012" target-x="678.7" target-y="863.3"></path><path d="M 554.20 209.90 L 557.00 203.40 L 560.40 197.10 L 564.20 191.00 L 568.40 185.10 L 573.00 179.50 L 578.00 174.30 L 583.30 169.50 L 589.00 165.20 L 595.00 161.50 L 599.70 159.00 L 604.50 157.00 L 609.50 155.30 L 614.60 154.00 L 619.80 153.10 L 625.20 152.70 L 630.60 152.80 L 636.30 153.40 L 634.20 165.60 L 633.00 171.60 L 631.30 177.60 L 624.10 184.50 L 614.00 191.60 L 587.80 206.60 L 577.60 213.50 L 570.30 220.00 L 567.10 223.70 L 564.20 227.80 L 561.60 232.30 L 568.40 230.00 L 575.00 227.30 L 581.40 224.30 L 593.70 217.10 L 599.60 213.00 L 639.20 218.60 L 665.40 223.30 L 678.30 226.40 L 686.90 228.70 L 703.70 234.40 L 694.70 237.40 L 720.10 253.40 L 733.80 262.90 L 743.80 271.50 L 748.40 276.30 L 752.50 281.40 L 756.30 287.10 L 761.80 296.20 L 766.70 305.60 L 771.00 315.10 L 774.80 324.90 L 778.20 334.80 L 781.10 344.90 L 784.90 360.20 L 788.10 375.70 L 798.70 438.00 L 802.40 453.40 L 805.50 468.80 L 808.00 484.40 L 810.00 500.00 L 811.50 515.70 L 812.60 531.40 L 813.60 555.10 L 813.90 578.80 L 813.50 626.10 L 813.00 641.50 L 812.00 656.80 L 810.50 672.00 L 808.70 687.20 L 804.10 717.50 L 785.70 817.60 L 783.50 836.80 L 779.90 880.20 L 778.10 894.70 L 773.50 887.50 L 756.70 858.00 L 752.00 850.90 L 737.80 871.70 L 724.00 892.90 L 717.90 873.80 L 713.10 861.40 L 710.10 855.50 L 708.10 853.20 L 706.20 851.80 L 704.40 851.00 L 702.70 850.70 L 700.90 850.80 L 699.10 851.50 L 697.20 852.90 L 688.50 861.40 L 669.60 882.10 L 667.10 856.10 L 666.00 847.50 L 663.60 836.20 L 661.80 830.70 L 653.60 823.90 L 649.20 820.90 L 621.70 803.90 L 613.10 797.50 L 609.00 793.90 L 622.30 789.30 L 635.50 784.30 L 652.80 776.60 L 661.20 772.30 L 669.40 767.70 L 677.30 762.70 L 684.90 757.30 L 695.70 748.30 L 700.70 743.30 L 705.60 738.10 L 710.10 732.50 L 714.10 726.60 L 717.60 720.40 L 723.40 707.30 L 728.90 690.20 L 731.60 679.90 L 736.20 693.50 L 737.70 682.10 L 738.60 670.80 L 739.10 659.40 L 739.20 648.00 L 738.80 636.70 L 738.10 625.30 L 731.30 633.00 L 726.00 614.10 L 723.10 604.70 L 719.80 595.40 L 716.10 586.30 L 711.80 577.50 L 708.50 571.90 L 701.10 561.10 L 696.80 557.70 L 692.30 555.00 L 687.50 552.70 L 682.50 551.00 L 677.40 549.80 L 672.00 548.90 L 661.30 548.50 L 650.50 549.60 L 640.20 551.70 L 612.10 559.70 L 598.10 564.00 L 584.30 568.90 L 575.30 572.50 L 566.40 576.50 L 557.70 580.90 L 548.10 573.10 L 543.20 569.60 L 537.90 566.50 L 534.30 566.20 L 530.70 566.30 L 527.20 566.90 L 522.10 568.30 L 506.70 573.60 L 502.20 569.80 L 497.40 566.50 L 492.40 563.80 L 481.90 559.40 L 476.40 557.70 L 468.00 555.70 L 459.40 554.20 L 433.40 550.20 L 425.00 548.60 L 437.00 555.50 L 441.00 558.20 L 444.70 561.10 L 447.80 564.30 L 449.50 566.70 L 450.90 569.20 L 451.90 572.00 L 452.40 574.80 L 452.40 578.00 L 451.90 581.50 L 443.20 593.40 L 438.70 566.50 L 432.30 566.00 L 426.20 566.20 L 420.20 567.00 L 414.30 568.40 L 408.60 570.30 L 403.10 572.70 L 397.80 575.60 L 392.60 579.00 L 387.60 582.90 L 373.90 579.30 L 369.90 587.40 L 366.40 595.80 L 363.40 604.50 L 360.80 613.40 L 358.90 622.50 L 357.50 631.60 L 356.90 638.60 L 356.70 652.30 L 358.10 666.00 L 359.30 672.70 L 361.00 679.30 L 363.10 685.80 L 365.70 692.20 L 368.70 698.30 L 372.10 704.30 L 376.10 710.20 L 383.30 719.60 L 391.00 728.60 L 399.20 737.20 L 405.60 743.40 L 419.20 754.80 L 426.40 760.10 L 433.80 765.10 L 441.40 769.70 L 449.10 774.00 L 457.10 777.90 L 465.30 781.40 L 473.60 784.50 L 482.10 787.20 L 490.80 789.40 L 498.10 791.00 L 520.50 794.80 L 530.20 797.30 L 534.90 799.00 L 539.30 801.10 L 543.60 803.70 L 547.70 806.90 L 524.60 805.00 L 516.50 815.00 L 517.20 805.80 L 487.20 823.60 L 477.30 829.80 L 464.90 838.90 L 459.00 844.00 L 455.20 853.60 L 453.80 858.60 L 452.30 866.20 L 447.90 905.20 L 437.50 905.20 L 434.70 902.30 L 424.10 887.30 L 421.30 884.10 L 419.20 882.30 L 417.00 880.90 L 414.60 879.90 L 412.10 879.50 L 409.20 879.60 L 405.90 880.40 L 403.20 886.40 L 400.80 892.60 L 396.60 905.20 L 379.30 905.20 L 377.30 901.80 L 370.40 887.30 L 366.50 882.10 L 362.40 878.80 L 359.60 878.80 L 357.30 879.30 L 355.50 880.20 L 352.40 883.00 L 349.70 888.10 L 345.30 902.30 L 344.00 905.20 L 332.10 905.20 L 324.60 877.60 L 317.50 849.80 L 310.90 821.90 L 304.70 793.80 L 293.30 737.60 L 277.80 653.00 L 286.20 650.50 L 294.50 647.70 L 305.20 643.10 L 310.40 640.30 L 283.20 638.50 L 274.20 637.40 L 271.50 616.70 L 269.50 596.00 L 268.00 575.20 L 267.20 554.30 L 267.00 537.60 L 267.20 521.00 L 267.80 504.30 L 268.90 487.70 L 270.40 471.10 L 272.40 454.50 L 274.80 438.00 L 277.70 421.60 L 281.10 405.30 L 287.50 377.00 L 290.40 365.00 L 293.70 353.30 L 297.50 341.60 L 301.60 330.00 L 306.10 318.70 L 310.90 307.40 L 316.20 296.30 L 308.60 298.00 L 313.20 291.30 L 318.10 284.90 L 323.40 278.90 L 329.20 273.20 L 335.20 267.80 L 341.50 262.80 L 348.00 258.20 L 367.00 246.70 L 379.40 240.20 L 392.10 234.10 L 401.80 229.90 L 411.60 226.20 L 421.50 222.90 L 431.60 219.90 L 441.80 217.50 L 452.10 215.50 L 462.60 214.10 L 473.10 213.30 L 476.10 216.00 L 479.20 218.10 L 482.50 219.70 L 486.00 220.70 L 489.60 221.40 L 493.30 221.50 L 496.90 221.20 L 500.60 220.50 L 504.20 219.30 L 510.90 216.00 L 514.10 213.90 L 524.80 212.90 L 545.80 234.70 L 549.10 231.10 L 551.70 227.40 L 554.10 221.90 L 554.80 219.10 L 555.00 216.20 L 554.80 213.10 L 554.20 209.90 Z M 570.40 293.20 L 569.50 296.60 L 569.60 298.50 L 570.20 301.40 L 571.40 304.10 L 573.10 306.60 L 575.20 308.50 L 576.70 309.50 L 580.00 310.30 L 581.70 310.10 L 583.50 309.40 L 598.90 299.40 L 627.30 280.30 L 628.40 279.20 L 629.30 276.80 L 629.00 274.10 L 627.00 269.80 L 622.40 261.90 L 607.60 266.50 L 600.40 269.50 L 593.40 272.90 L 589.00 275.50 L 580.70 281.60 L 577.00 285.10 L 573.50 288.90 L 570.40 293.20 Z M 424.00 272.90 L 421.90 273.30 L 418.90 275.00 L 417.90 276.20 L 416.60 279.10 L 416.40 281.50 L 416.80 284.00 L 417.80 286.30 L 419.30 288.30 L 420.60 289.40 L 450.80 302.80 L 477.50 315.20 L 480.90 308.10 L 482.10 304.30 L 482.80 300.60 L 482.90 298.00 L 482.60 295.60 L 482.00 293.30 L 480.90 291.20 L 479.20 289.30 L 476.80 287.40 L 471.10 283.60 L 464.90 279.90 L 458.40 276.70 L 451.70 274.00 L 447.10 272.70 L 442.50 271.70 L 437.90 271.20 L 433.20 271.20 L 428.60 271.70 L 424.00 272.90 Z M 638.40 331.20 L 631.80 331.80 L 625.40 332.90 L 619.30 334.60 L 613.30 336.90 L 607.60 339.60 L 602.20 342.80 L 597.00 346.30 L 592.10 350.40 L 587.50 354.70 L 583.20 359.40 L 579.30 364.40 L 575.70 369.70 L 572.40 375.20 L 569.60 380.90 L 567.20 386.80 L 565.10 392.90 L 563.50 399.00 L 562.30 405.30 L 561.60 411.50 L 561.30 417.80 L 561.60 424.10 L 562.30 430.30 L 563.60 436.50 L 565.40 442.50 L 567.70 448.40 L 570.60 454.10 L 574.10 459.60 L 582.00 470.10 L 586.10 474.70 L 590.40 478.80 L 595.10 482.40 L 600.00 485.70 L 605.20 488.50 L 610.50 490.80 L 616.10 492.80 L 621.80 494.30 L 627.50 495.40 L 633.40 496.20 L 639.30 496.50 L 645.30 496.40 L 657.00 495.00 L 668.60 492.00 L 674.10 490.00 L 679.50 487.60 L 684.80 484.80 L 689.80 481.60 L 694.50 478.10 L 698.90 474.20 L 703.10 470.00 L 706.80 465.50 L 710.20 460.60 L 713.20 455.30 L 718.20 444.70 L 720.20 439.70 L 721.70 434.60 L 722.80 429.40 L 723.60 424.20 L 724.00 413.80 L 723.70 408.50 L 722.70 401.50 L 721.20 394.60 L 719.10 387.80 L 716.60 381.20 L 713.50 374.80 L 710.10 368.50 L 706.20 362.50 L 701.90 356.90 L 697.30 351.60 L 691.70 347.30 L 685.80 343.50 L 679.50 340.20 L 673.00 337.30 L 666.40 335.00 L 659.50 333.20 L 652.50 331.90 L 645.50 331.30 L 638.40 331.20 Z M 374.30 351.90 L 369.60 355.40 L 365.40 359.20 L 361.50 363.30 L 358.00 367.60 L 354.90 372.30 L 352.10 377.10 L 349.70 382.10 L 347.70 387.40 L 344.70 398.20 L 343.80 403.80 L 343.20 409.40 L 343.10 420.80 L 344.50 432.00 L 345.70 437.60 L 349.20 448.30 L 351.50 453.40 L 354.20 458.40 L 357.20 463.20 L 360.60 467.70 L 368.40 476.20 L 372.70 480.10 L 377.20 483.50 L 382.00 486.50 L 387.00 489.20 L 392.20 491.50 L 397.60 493.40 L 403.10 494.90 L 414.30 496.80 L 425.80 497.10 L 431.50 496.70 L 442.70 494.70 L 448.30 493.10 L 453.70 491.20 L 458.90 488.80 L 463.90 486.10 L 474.00 479.40 L 478.90 475.40 L 483.30 471.10 L 487.20 466.30 L 490.80 461.20 L 493.90 455.90 L 496.50 450.40 L 498.80 444.50 L 500.60 438.50 L 502.00 432.50 L 502.90 426.30 L 503.40 420.00 L 503.50 413.70 L 503.10 407.50 L 502.30 401.40 L 501.00 395.30 L 498.10 385.80 L 496.70 382.80 L 495.60 380.90 L 492.70 378.30 L 490.90 377.60 L 488.70 377.40 L 486.00 377.80 L 475.60 365.00 L 464.40 353.00 L 474.50 355.30 L 471.50 351.60 L 468.20 348.30 L 464.80 345.40 L 461.10 342.70 L 455.80 339.70 L 450.20 337.30 L 444.40 335.40 L 438.40 334.00 L 432.30 333.20 L 426.00 332.90 L 419.70 333.10 L 413.40 333.80 L 407.20 335.00 L 401.10 336.70 L 395.20 338.90 L 389.50 341.50 L 384.00 344.50 L 379.00 348.00 L 374.30 351.90 Z M 494.90 479.80 L 507.30 493.40 L 520.20 506.80 L 524.80 494.10 L 520.60 490.30 L 516.10 486.80 L 509.60 482.90 L 506.20 481.50 L 502.60 480.50 L 498.90 479.90 L 494.90 479.80 Z M 531.20 499.40 L 558.50 490.20 L 557.60 487.30 L 556.40 485.10 L 554.80 483.40 L 552.90 482.00 L 550.90 481.20 L 548.60 480.70 L 544.00 480.90 L 541.60 481.60 L 537.20 483.80 L 535.30 485.40 L 533.60 487.20 L 532.20 489.20 L 531.20 491.50 L 530.70 493.90 L 530.70 496.60 L 531.20 499.40 Z" fill="#5f546a" fill-rule="nonzero" node-id="65" stroke="none" target-height="752.5" target-width="546.9" target-x="267" target-y="152.7"></path><path d="M 730.40 138.50 L 737.50 134.80 L 744.80 131.50 L 752.20 128.50 L 767.40 123.80 L 783.00 120.50 L 790.90 119.40 L 801.50 118.40 L 812.10 118.00 L 822.80 118.20 L 833.40 119.00 L 843.90 120.30 L 854.40 122.20 L 864.70 124.60 L 875.00 127.50 L 888.40 132.40 L 901.30 138.50 L 907.40 142.10 L 913.30 146.10 L 918.90 150.40 L 924.10 155.20 L 929.10 160.40 L 923.30 158.90 L 912.20 154.80 L 904.10 151.20 L 880.10 139.50 L 872.70 136.70 L 865.20 134.40 L 857.70 132.60 L 842.30 130.40 L 834.50 129.80 L 822.70 129.50 L 811.00 129.70 L 787.60 130.60 L 807.20 136.00 L 817.00 139.00 L 826.60 142.50 L 832.80 145.20 L 838.80 148.30 L 844.60 151.80 L 852.60 157.90 L 856.30 161.40 L 863.30 169.20 L 866.20 173.30 L 868.80 177.60 L 871.10 182.20 L 872.90 186.90 L 875.50 196.60 L 876.20 201.70 L 876.50 211.70 L 875.20 221.70 L 874.00 226.60 L 872.40 231.30 L 870.40 235.90 L 868.00 240.40 L 865.30 244.60 L 862.10 248.50 L 858.50 252.20 L 854.50 255.60 L 840.80 265.40 L 833.60 270.00 L 826.00 274.20 L 815.60 278.90 L 804.80 282.40 L 799.30 283.40 L 793.80 284.10 L 788.30 284.20 L 782.70 283.70 L 777.00 282.60 L 815.10 268.50 L 821.50 265.90 L 833.40 259.70 L 839.10 256.20 L 844.30 252.20 L 849.20 247.80 L 852.50 244.20 L 855.50 240.20 L 858.30 235.90 L 860.80 231.10 L 862.90 226.60 L 864.40 222.10 L 865.50 217.50 L 866.10 212.90 L 866.20 203.60 L 865.60 199.10 L 863.20 190.00 L 859.50 181.50 L 857.10 177.50 L 854.40 173.60 L 848.20 166.70 L 840.90 160.70 L 836.90 158.30 L 832.70 156.10 L 822.30 151.80 L 816.30 149.80 L 810.30 148.20 L 804.30 147.00 L 796.10 146.00 L 787.80 145.50 L 779.50 145.60 L 767.00 146.40 L 754.50 147.80 L 729.80 151.30 L 730.40 138.50 Z" fill="#474054" fill-rule="nonzero" node-id="67" stroke="none" target-height="166.20001" target-width="199.29999" target-x="729.8" target-y="118"></path><path d="M 787.60 130.60 L 811.00 129.70 L 822.70 129.50 L 834.50 129.80 L 842.30 130.40 L 857.70 132.60 L 865.20 134.40 L 872.70 136.70 L 880.10 139.50 L 904.10 151.20 L 912.20 154.80 L 923.30 158.90 L 929.10 160.40 L 937.20 171.60 L 944.10 183.80 L 942.40 188.00 L 941.30 192.20 L 940.60 196.40 L 940.10 202.90 L 940.20 209.50 L 941.30 229.50 L 941.10 236.10 L 940.60 240.50 L 939.70 244.80 L 936.00 256.10 L 933.40 262.90 L 930.30 269.50 L 927.00 275.80 L 922.00 284.00 L 916.60 291.90 L 910.80 299.50 L 904.50 306.80 L 891.10 320.70 L 880.50 330.70 L 869.50 340.20 L 847.20 358.60 L 855.40 361.50 L 847.40 366.00 L 830.80 373.80 L 805.10 383.90 L 799.00 367.20 L 776.80 299.50 L 770.70 282.80 L 777.00 282.60 L 782.70 283.70 L 788.30 284.20 L 793.80 284.10 L 799.30 283.40 L 804.80 282.40 L 810.20 280.80 L 820.80 276.70 L 833.60 270.00 L 840.80 265.40 L 854.50 255.60 L 858.50 252.20 L 862.10 248.50 L 865.30 244.60 L 868.00 240.40 L 870.40 235.90 L 872.40 231.30 L 874.00 226.60 L 876.00 216.70 L 876.50 206.70 L 876.20 201.70 L 875.50 196.60 L 872.90 186.90 L 871.10 182.20 L 868.80 177.60 L 866.20 173.30 L 863.30 169.20 L 859.90 165.20 L 856.30 161.40 L 848.70 154.70 L 838.80 148.30 L 832.80 145.20 L 826.60 142.50 L 817.00 139.00 L 807.20 136.00 L 787.60 130.60 Z" fill="#5e5469" fill-rule="nonzero" node-id="69" stroke="none" target-height="254.4" target-width="173.39996" target-x="770.7" target-y="129.5"></path><path d="M 439.00 176.80 L 439.40 172.60 L 440.20 168.80 L 441.30 165.30 L 442.80 162.20 L 446.70 156.50 L 451.60 151.80 L 455.40 149.30 L 459.50 147.20 L 463.90 145.40 L 468.50 144.10 L 473.30 143.30 L 478.20 142.80 L 488.10 143.00 L 497.80 144.70 L 502.30 146.10 L 511.40 150.00 L 515.80 152.50 L 520.00 155.30 L 523.80 158.40 L 528.50 163.00 L 532.80 168.00 L 536.80 173.40 L 543.60 185.10 L 550.60 200.60 L 554.20 209.90 L 554.80 213.10 L 555.00 216.20 L 554.80 219.10 L 553.10 224.70 L 551.70 227.40 L 549.10 231.10 L 545.80 234.70 L 524.80 212.90 L 519.80 208.90 L 514.60 205.50 L 509.30 202.50 L 498.00 197.50 L 492.10 195.40 L 456.10 184.20 L 450.30 182.00 L 439.00 176.80 Z" fill="#5f5168" fill-rule="nonzero" node-id="71" stroke="none" target-height="91.899994" target-width="116" target-x="439" target-y="142.8"></path><path d="M 631.30 177.60 L 633.00 171.60 L 634.20 165.60 L 636.30 153.40 L 645.80 163.40 L 647.10 165.30 L 648.60 169.30 L 648.60 171.30 L 648.10 173.40 L 644.10 180.20 L 641.00 184.10 L 637.50 187.70 L 629.70 193.90 L 605.70 208.70 L 593.70 217.10 L 581.40 224.30 L 575.00 227.30 L 568.40 230.00 L 561.60 232.30 L 564.20 227.80 L 567.10 223.70 L 570.30 220.00 L 577.60 213.50 L 581.50 210.60 L 587.80 206.60 L 614.00 191.60 L 620.20 187.50 L 627.80 181.20 L 631.30 177.60 Z" fill="#494153" fill-rule="nonzero" node-id="73" stroke="none" target-height="78.90001" target-width="87" target-x="561.6" target-y="153.4"></path><path d="M 163.30 177.30 L 170.70 174.60 L 178.20 172.50 L 185.80 170.90 L 193.50 169.80 L 201.20 169.10 L 209.00 168.90 L 224.60 169.50 L 244.00 171.90 L 255.40 174.00 L 231.20 177.80 L 218.90 180.10 L 206.80 182.90 L 198.80 185.20 L 191.00 187.90 L 183.50 190.90 L 172.80 196.60 L 162.90 203.50 L 158.40 207.50 L 154.20 211.90 L 150.20 216.80 L 143.80 226.10 L 141.60 230.10 L 139.90 234.10 L 138.60 238.30 L 137.60 242.60 L 136.90 251.30 L 137.10 255.70 L 137.90 261.50 L 139.30 267.20 L 141.20 272.90 L 143.70 278.30 L 146.60 283.50 L 150.10 288.40 L 153.90 293.00 L 158.20 297.20 L 162.80 301.00 L 162.60 292.10 L 169.10 296.50 L 175.70 300.60 L 182.40 304.20 L 189.30 307.50 L 198.80 311.40 L 208.40 314.90 L 218.30 317.90 L 233.20 321.80 L 278.40 331.80 L 287.00 343.20 L 278.00 380.80 L 269.40 418.60 L 252.40 425.10 L 242.30 423.60 L 238.10 420.20 L 233.70 417.10 L 229.10 414.50 L 222.00 411.00 L 214.60 408.00 L 191.70 400.20 L 174.10 393.50 L 154.20 384.50 L 125.20 369.40 L 125.30 377.10 L 117.20 370.80 L 109.30 363.90 L 99.30 354.00 L 94.70 348.70 L 90.30 343.20 L 86.30 337.50 L 82.70 331.60 L 79.60 325.50 L 76.90 319.20 L 74.80 312.70 L 73.50 307.70 L 72.10 297.30 L 72.00 291.90 L 72.50 284.20 L 73.40 276.40 L 74.80 268.70 L 76.50 261.00 L 78.70 253.50 L 81.20 246.00 L 84.10 238.80 L 87.50 231.70 L 91.20 224.70 L 95.30 218.10 L 99.80 211.70 L 104.70 205.60 L 110.00 199.90 L 115.60 194.50 L 121.60 189.50 L 128.00 184.80 L 131.20 185.70 L 134.20 186.00 L 137.20 185.90 L 141.60 185.20 L 146.00 183.90 L 163.30 177.30 Z" fill="#5e5269" fill-rule="nonzero" node-id="75" stroke="none" target-height="256.2" target-width="215" target-x="72" target-y="168.9"></path><path d="M 473.10 213.30 L 479.90 212.40 L 486.80 212.00 L 493.60 212.00 L 507.30 212.90 L 514.10 213.90 L 510.90 216.00 L 504.20 219.30 L 500.60 220.50 L 496.90 221.20 L 493.30 221.50 L 489.60 221.40 L 486.00 220.80 L 482.50 219.70 L 479.20 218.10 L 476.10 216.00 L 473.10 213.30 Z" fill="#48414f" fill-rule="nonzero" node-id="77" stroke="none" target-height="9.5" target-width="40.99997" target-x="473.1" target-y="212"></path><path d="M 694.70 237.40 L 703.70 234.40 L 710.00 236.80 L 716.20 239.60 L 722.10 242.70 L 727.80 246.10 L 735.10 251.20 L 742.10 256.70 L 748.70 262.70 L 755.00 269.10 L 760.90 275.80 L 766.50 282.80 L 770.70 282.80 L 776.80 299.50 L 799.00 367.20 L 805.10 383.90 L 802.20 385.10 L 803.40 392.00 L 804.10 399.10 L 805.00 421.00 L 806.40 432.70 L 808.90 441.60 L 810.80 445.80 L 813.20 449.70 L 816.20 453.50 L 816.40 467.50 L 817.30 481.40 L 821.30 523.00 L 822.50 536.90 L 823.20 550.80 L 823.60 571.50 L 823.40 592.30 L 823.70 599.30 L 824.40 606.10 L 825.10 610.50 L 827.80 619.00 L 829.70 623.00 L 832.20 626.90 L 835.20 630.60 L 826.90 625.60 L 823.20 654.10 L 819.10 682.50 L 814.50 710.80 L 797.50 804.60 L 796.20 813.70 L 794.00 836.50 L 791.70 877.80 L 790.50 891.50 L 788.90 905.20 L 766.00 905.20 L 754.30 876.30 L 736.50 905.20 L 712.40 905.20 L 701.60 863.30 L 684.60 894.90 L 678.70 905.20 L 655.90 905.20 L 655.00 870.00 L 652.90 835.00 L 643.80 830.90 L 635.10 826.40 L 626.70 821.30 L 610.40 810.20 L 602.70 804.10 L 595.20 803.20 L 586.90 799.10 L 609.00 793.90 L 613.10 797.50 L 621.70 803.90 L 649.20 820.90 L 657.80 827.20 L 661.80 830.70 L 663.60 836.20 L 666.00 847.50 L 667.10 856.10 L 669.60 882.10 L 688.50 861.40 L 697.20 852.90 L 699.10 851.50 L 700.90 850.80 L 702.70 850.70 L 704.40 851.00 L 706.20 851.80 L 708.10 853.20 L 710.10 855.50 L 713.10 861.40 L 717.90 873.80 L 724.00 892.90 L 737.80 871.70 L 752.00 850.90 L 756.70 858.00 L 773.50 887.50 L 778.10 894.70 L 779.90 880.20 L 783.50 836.80 L 785.70 817.60 L 800.10 740.20 L 806.50 702.40 L 810.50 672.00 L 812.00 656.80 L 813.00 641.50 L 813.90 602.50 L 813.90 578.80 L 813.60 555.10 L 812.60 531.40 L 811.50 515.70 L 810.00 500.00 L 808.00 484.40 L 805.50 468.80 L 802.40 453.40 L 798.70 438.00 L 788.10 375.70 L 784.90 360.20 L 781.10 344.90 L 778.20 334.80 L 774.80 324.90 L 771.00 315.10 L 766.70 305.60 L 761.80 296.20 L 756.30 287.10 L 752.50 281.40 L 748.40 276.30 L 743.80 271.50 L 738.90 267.10 L 728.40 258.90 L 720.10 253.40 L 694.70 237.40 Z" fill="#41394b" fill-rule="nonzero" node-id="79" stroke="none" target-height="670.80005" target-width="248.29999" target-x="586.9" target-y="234.4"></path><path d="M 570.40 293.20 L 573.50 288.90 L 577.00 285.10 L 580.70 281.60 L 589.00 275.50 L 593.40 272.90 L 600.40 269.50 L 607.60 266.50 L 622.40 261.90 L 628.20 272.00 L 629.30 275.50 L 629.00 278.10 L 627.30 280.30 L 612.40 290.50 L 583.50 309.40 L 581.70 310.10 L 580.00 310.30 L 576.70 309.50 L 575.20 308.50 L 573.10 306.60 L 571.40 304.10 L 570.20 301.40 L 569.60 298.50 L 569.50 296.60 L 570.40 293.20 Z" fill="#403849" fill-rule="nonzero" node-id="81" stroke="none" target-height="48.399994" target-width="59.799988" target-x="569.5" target-y="261.9"></path><path d="M 424.00 272.90 L 428.60 271.70 L 433.20 271.20 L 437.90 271.20 L 442.50 271.70 L 447.10 272.70 L 451.70 274.00 L 458.40 276.70 L 464.90 279.90 L 471.10 283.60 L 476.80 287.40 L 479.20 289.30 L 480.90 291.20 L 482.00 293.30 L 482.60 295.60 L 482.90 298.00 L 482.80 300.60 L 482.10 304.30 L 480.90 308.10 L 477.50 315.20 L 450.80 302.80 L 420.60 289.40 L 419.30 288.30 L 417.80 286.30 L 416.80 284.00 L 416.40 281.50 L 416.60 279.10 L 417.90 276.20 L 418.90 275.00 L 421.90 273.30 L 424.00 272.90 Z" fill="#3c394a" fill-rule="nonzero" node-id="83" stroke="none" target-height="44" target-width="66.5" target-x="416.4" target-y="271.2"></path><path d="M 308.60 298.00 L 316.20 296.30 L 310.90 307.40 L 306.10 318.70 L 301.60 330.10 L 297.50 341.60 L 293.70 353.30 L 290.40 365.00 L 287.50 377.00 L 281.10 405.30 L 277.70 421.60 L 274.80 438.00 L 272.40 454.50 L 270.40 471.10 L 268.90 487.70 L 267.80 504.30 L 267.20 521.00 L 267.00 537.60 L 267.20 554.30 L 268.00 575.20 L 269.50 596.00 L 271.50 616.70 L 274.20 637.40 L 283.20 638.50 L 310.40 640.30 L 305.20 643.10 L 294.50 647.70 L 286.20 650.50 L 277.80 653.00 L 293.30 737.60 L 304.70 793.80 L 310.90 821.90 L 317.50 849.80 L 324.60 877.60 L 332.10 905.20 L 316.70 905.20 L 289.90 779.70 L 281.30 737.80 L 270.60 681.80 L 265.70 653.60 L 241.70 657.90 L 233.80 659.90 L 228.60 661.50 L 218.80 665.70 L 214.20 668.50 L 209.90 671.80 L 202.30 679.40 L 199.30 683.40 L 196.60 687.70 L 193.00 694.40 L 181.40 719.90 L 175.90 728.50 L 170.40 715.60 L 165.40 702.40 L 156.20 675.90 L 135.20 700.10 L 124.40 712.00 L 115.80 710.20 L 116.40 701.80 L 117.30 693.50 L 118.60 685.20 L 121.10 673.00 L 124.20 660.80 L 131.00 636.60 L 135.70 621.70 L 140.90 606.90 L 146.50 592.20 L 152.70 577.60 L 159.20 563.20 L 166.30 549.10 L 173.80 535.30 L 181.80 521.70 L 190.30 508.40 L 199.30 495.50 L 208.70 482.90 L 218.70 470.70 L 226.90 461.30 L 235.60 452.10 L 244.50 443.30 L 253.70 434.70 L 263.30 426.50 L 252.40 425.10 L 269.40 418.60 L 278.00 380.80 L 287.00 343.20 L 278.40 331.80 L 288.50 333.50 L 301.50 309.60 L 308.60 298.00 Z M 222.30 479.10 L 213.30 491.30 L 204.60 503.80 L 196.40 516.60 L 188.50 529.60 L 180.90 542.80 L 173.80 556.30 L 167.10 570.00 L 160.90 583.80 L 155.20 597.90 L 149.90 612.20 L 145.10 626.60 L 140.80 641.20 L 137.10 655.90 L 133.90 670.80 L 131.20 685.80 L 138.60 678.00 L 142.50 674.40 L 146.60 671.30 L 149.60 669.70 L 152.70 668.40 L 155.90 667.60 L 159.20 667.30 L 162.80 667.50 L 166.80 668.40 L 176.80 698.80 L 188.90 681.70 L 197.30 670.70 L 202.00 665.60 L 206.50 662.10 L 211.20 659.00 L 221.20 654.10 L 231.70 650.40 L 239.90 648.10 L 264.50 642.20 L 262.40 625.10 L 260.80 608.00 L 259.70 590.90 L 259.00 573.80 L 258.70 551.00 L 259.00 528.20 L 259.80 505.40 L 261.10 482.60 L 264.50 437.00 L 249.30 449.90 L 242.10 456.70 L 235.20 463.90 L 228.60 471.40 L 222.30 479.10 Z" fill="#433a4c" fill-rule="nonzero" node-id="85" stroke="none" target-height="608.9" target-width="216.3" target-x="115.8" target-y="296.3"></path><path d="M 600.70 437.50 L 598.30 430.40 L 597.40 423.10 L 597.60 418.20 L 598.30 413.40 L 599.60 408.60 L 601.40 404.10 L 603.70 399.80 L 606.50 395.80 L 609.70 392.10 L 613.30 388.90 L 617.30 386.20 L 623.90 383.00 L 631.30 381.30 L 631.80 384.00 L 632.60 394.20 L 633.90 400.80 L 635.60 404.60 L 638.40 407.30 L 640.30 408.20 L 642.70 408.70 L 648.70 404.90 L 665.60 391.90 L 669.10 395.50 L 672.20 399.50 L 675.10 403.80 L 677.50 408.30 L 679.40 413.00 L 680.90 417.80 L 681.60 421.50 L 682.00 428.90 L 681.60 432.60 L 680.80 436.20 L 679.60 439.80 L 677.90 443.30 L 673.40 450.20 L 670.90 453.20 L 668.10 455.80 L 661.80 460.00 L 654.80 462.90 L 651.10 463.90 L 646.00 464.60 L 640.90 464.80 L 635.70 464.40 L 630.60 463.40 L 625.70 461.90 L 620.90 459.90 L 616.50 457.40 L 612.40 454.40 L 608.60 450.90 L 606.20 448.00 L 604.00 444.80 L 602.20 441.30 L 600.70 437.50 Z" fill="#3b3645" fill-rule="nonzero" node-id="87" stroke="none" target-height="83.5" target-width="84.599976" target-x="597.4" target-y="381.3"></path><path d="M 384.40 448.00 L 381.90 444.00 L 380.10 440.00 L 378.70 435.70 L 377.90 431.40 L 377.60 427.00 L 377.80 422.60 L 378.40 418.20 L 379.50 414.00 L 381.10 409.90 L 383.10 405.90 L 385.50 402.30 L 388.30 398.90 L 391.60 395.80 L 395.20 393.20 L 399.20 391.00 L 401.00 393.70 L 406.40 403.70 L 407.80 405.70 L 411.20 408.70 L 413.10 409.70 L 415.50 410.10 L 418.30 410.10 L 420.40 409.30 L 423.80 407.00 L 425.90 404.70 L 427.80 402.10 L 432.80 393.70 L 434.70 391.30 L 438.50 393.20 L 445.40 398.00 L 448.50 400.80 L 453.80 407.20 L 457.80 414.40 L 459.20 418.30 L 460.20 422.20 L 460.80 426.20 L 461.00 430.30 L 460.70 434.40 L 459.80 438.40 L 458.40 442.50 L 454.60 450.00 L 450.10 455.70 L 447.60 458.10 L 443.70 460.90 L 439.60 463.20 L 435.30 465.00 L 430.70 466.20 L 426.00 467.00 L 421.20 467.20 L 416.40 467.00 L 411.60 466.30 L 407.00 465.00 L 402.40 463.30 L 398.20 461.20 L 394.10 458.60 L 390.50 455.50 L 387.20 452.00 L 384.40 448.00 Z" fill="#3d3646" fill-rule="nonzero" node-id="89" stroke="none" target-height="76.20001" target-width="83.399994" target-x="377.6" target-y="391"></path><path d="M 222.30 479.10 L 228.60 471.40 L 235.20 463.90 L 242.10 456.70 L 249.30 449.90 L 264.50 437.00 L 261.10 482.60 L 259.80 505.40 L 259.00 528.20 L 258.70 551.00 L 259.00 573.80 L 259.70 590.90 L 260.80 608.00 L 262.40 625.10 L 264.50 642.20 L 239.90 648.10 L 231.70 650.40 L 221.20 654.10 L 211.20 659.00 L 206.50 662.10 L 202.00 665.60 L 197.30 670.70 L 188.90 681.70 L 176.80 698.80 L 166.80 668.40 L 162.80 667.50 L 159.20 667.30 L 155.90 667.60 L 152.70 668.40 L 149.60 669.70 L 146.60 671.30 L 142.50 674.40 L 138.60 678.00 L 131.20 685.80 L 133.90 670.80 L 137.10 655.90 L 140.80 641.20 L 145.10 626.60 L 149.90 612.20 L 155.20 597.90 L 160.90 583.80 L 167.10 570.00 L 173.80 556.30 L 180.90 542.80 L 188.50 529.60 L 196.40 516.60 L 204.60 503.80 L 213.30 491.30 L 222.30 479.10 Z" fill="#5e5369" fill-rule="nonzero" node-id="91" stroke="none" target-height="261.8" target-width="133.3" target-x="131.2" target-y="437"></path><path d="M 816.20 453.50 L 825.30 461.10 L 834.20 469.00 L 842.70 477.20 L 850.90 485.80 L 858.70 494.70 L 866.20 503.90 L 873.30 513.40 L 880.00 523.10 L 886.30 533.20 L 892.20 543.40 L 897.70 553.90 L 902.80 564.60 L 894.10 562.80 L 899.50 579.40 L 916.80 628.70 L 922.20 645.30 L 927.00 662.00 L 897.70 641.20 L 886.40 675.40 L 871.20 661.10 L 871.10 669.00 L 868.10 662.90 L 864.60 657.20 L 860.70 651.90 L 856.40 646.90 L 851.60 642.20 L 846.50 637.90 L 841.10 634.10 L 835.20 630.60 L 832.20 626.90 L 829.70 623.00 L 827.80 619.00 L 825.10 610.50 L 824.40 606.10 L 823.70 599.30 L 823.20 550.80 L 822.50 536.90 L 821.30 523.00 L 817.30 481.40 L 816.40 467.50 L 816.20 453.50 Z" fill="#5e5369" fill-rule="nonzero" node-id="93" stroke="none" target-height="221.90002" target-width="110.79999" target-x="816.2" target-y="453.5"></path><path d="M 494.90 479.80 L 498.90 479.90 L 502.60 480.50 L 506.20 481.50 L 509.60 482.90 L 516.10 486.80 L 520.60 490.30 L 524.80 494.10 L 520.20 506.80 L 507.30 493.40 L 494.90 479.80 Z" fill="#443a50" fill-rule="nonzero" node-id="95" stroke="none" target-height="27" target-width="29.899994" target-x="494.9" target-y="479.8"></path><path d="M 531.20 499.40 L 530.70 496.60 L 530.70 493.90 L 531.20 491.50 L 532.20 489.20 L 533.60 487.20 L 535.30 485.40 L 537.20 483.80 L 541.60 481.60 L 544.00 480.90 L 548.60 480.70 L 550.90 481.20 L 552.90 482.10 L 554.80 483.40 L 556.40 485.10 L 557.60 487.30 L 558.50 490.20 L 531.20 499.40 Z" fill="#433850" fill-rule="nonzero" node-id="97" stroke="none" target-height="18.699982" target-width="27.799988" target-x="530.7" target-y="480.7"></path><path d="M 425.00 548.60 L 433.40 550.20 L 459.40 554.20 L 468.00 555.70 L 476.40 557.70 L 481.90 559.40 L 492.40 563.80 L 497.40 566.50 L 502.20 569.80 L 506.70 573.60 L 522.10 568.30 L 527.20 566.90 L 530.70 566.30 L 534.30 566.20 L 537.90 566.50 L 543.20 569.60 L 548.10 573.10 L 557.70 580.90 L 566.40 576.50 L 575.30 572.50 L 584.30 568.90 L 598.10 564.00 L 612.10 559.70 L 640.20 551.70 L 650.50 549.60 L 661.30 548.50 L 672.00 549.00 L 677.40 549.80 L 682.50 551.00 L 687.50 552.70 L 692.30 555.00 L 696.80 557.70 L 701.10 561.10 L 708.50 571.90 L 711.80 577.50 L 716.10 586.30 L 719.80 595.40 L 726.00 614.10 L 731.30 633.00 L 731.60 679.90 L 725.80 700.60 L 723.40 707.30 L 717.60 720.40 L 714.10 726.60 L 710.10 732.50 L 705.60 738.10 L 700.70 743.30 L 690.40 752.90 L 684.90 757.30 L 677.30 762.70 L 669.40 767.70 L 661.20 772.30 L 652.80 776.60 L 635.50 784.30 L 622.30 789.30 L 609.00 793.90 L 586.90 799.10 L 595.20 803.20 L 583.40 805.20 L 571.60 806.60 L 563.70 807.20 L 555.70 807.30 L 547.70 806.90 L 543.60 803.70 L 539.30 801.10 L 534.90 799.00 L 525.40 795.90 L 513.10 793.50 L 498.10 791.00 L 482.10 787.20 L 473.60 784.50 L 465.30 781.40 L 457.10 777.90 L 449.10 774.00 L 441.40 769.70 L 433.80 765.10 L 426.40 760.10 L 419.20 754.80 L 405.60 743.40 L 399.20 737.20 L 391.00 728.60 L 383.30 719.60 L 376.10 710.20 L 372.10 704.30 L 368.70 698.30 L 365.70 692.20 L 363.10 685.80 L 361.00 679.30 L 359.30 672.70 L 358.10 666.00 L 357.20 659.20 L 356.60 645.50 L 356.90 638.60 L 357.50 631.60 L 358.90 622.50 L 360.80 613.40 L 363.40 604.50 L 366.40 595.80 L 369.90 587.40 L 373.90 579.30 L 387.60 582.90 L 392.60 579.00 L 397.80 575.60 L 403.10 572.70 L 408.60 570.30 L 414.30 568.40 L 420.20 567.00 L 426.20 566.20 L 432.30 566.00 L 438.70 566.50 L 443.20 593.40 L 451.90 581.50 L 452.40 578.00 L 452.40 574.80 L 451.90 572.00 L 450.90 569.20 L 449.50 566.70 L 447.80 564.30 L 444.70 561.10 L 441.00 558.20 L 437.00 555.50 L 425.00 548.60 Z M 635.90 559.50 L 630.30 583.80 L 633.20 584.00 L 635.50 583.70 L 637.30 583.00 L 640.10 580.40 L 642.40 575.60 L 645.30 565.70 L 682.10 565.40 L 678.80 562.40 L 675.30 560.00 L 671.70 558.10 L 667.90 556.60 L 664.00 555.50 L 660.00 554.90 L 656.00 554.60 L 647.80 555.40 L 639.90 557.70 L 635.90 559.50 Z M 509.50 688.10 L 507.60 688.90 L 506.10 689.90 L 505.00 691.20 L 503.80 694.30 L 503.90 697.80 L 505.20 701.10 L 507.50 703.70 L 510.60 705.20 L 512.40 705.40 L 514.50 705.10 L 516.40 704.30 L 517.90 703.30 L 519.00 702.00 L 520.10 698.80 L 520.00 695.20 L 518.70 691.90 L 516.40 689.20 L 513.40 687.80 L 511.60 687.70 L 509.50 688.10 Z M 553.10 694.50 L 551.90 696.60 L 551.40 699.20 L 551.80 700.20 L 552.50 701.10 L 553.60 701.70 L 555.60 702.20 L 558.20 702.30 L 563.80 701.40 L 569.00 699.40 L 571.00 698.00 L 572.30 696.60 L 571.90 694.50 L 571.10 692.90 L 569.90 691.80 L 566.50 690.50 L 564.30 690.30 L 561.10 690.60 L 557.90 691.50 L 555.90 692.40 L 553.10 694.50 Z M 553.30 753.90 L 554.00 756.80 L 554.90 758.80 L 556.10 760.00 L 557.40 760.80 L 559.00 761.10 L 561.00 760.80 L 563.50 759.90 L 566.70 758.10 L 566.00 755.10 L 565.00 753.10 L 563.80 751.80 L 562.50 751.00 L 560.90 750.80 L 558.90 751.00 L 556.40 752.00 L 553.30 753.90 Z" fill="#735b80" fill-rule="nonzero" node-id="99" stroke="none" target-height="258.8" target-width="374.99997" target-x="356.6" target-y="548.5"></path><path d="M 635.90 559.50 L 639.90 557.70 L 647.80 555.40 L 656.00 554.60 L 660.00 554.90 L 664.00 555.50 L 667.90 556.60 L 671.70 558.10 L 675.30 560.00 L 678.80 562.40 L 682.10 565.40 L 645.30 565.70 L 642.40 575.60 L 640.10 580.40 L 638.80 581.80 L 637.30 583.00 L 635.50 583.70 L 633.20 584.00 L 630.30 583.80 L 635.90 559.50 Z" fill="#594565" fill-rule="nonzero" node-id="101" stroke="none" target-height="29.400024" target-width="51.799988" target-x="630.3" target-y="554.6"></path><path d="M 731.30 633.00 L 738.10 625.30 L 738.80 636.70 L 739.20 648.00 L 739.10 659.40 L 738.60 670.80 L 737.70 682.10 L 736.20 693.50 L 731.60 679.90 L 731.30 633.00 Z" fill="#4c3f58" fill-rule="nonzero" node-id="103" stroke="none" target-height="68.20001" target-width="7.9000244" target-x="731.3" target-y="625.3"></path><path d="M 509.50 688.10 L 511.60 687.70 L 513.40 687.80 L 515.00 688.30 L 517.70 690.40 L 519.50 693.50 L 520.20 697.00 L 519.70 700.50 L 519.00 702.00 L 517.90 703.30 L 516.40 704.30 L 514.50 705.10 L 512.40 705.40 L 510.60 705.20 L 508.90 704.60 L 506.20 702.50 L 504.40 699.50 L 503.70 696.10 L 504.20 692.70 L 506.10 689.90 L 507.60 688.90 L 509.50 688.10 Z" fill="#4a3a55" fill-rule="nonzero" node-id="105" stroke="none" target-height="17.700012" target-width="16.5" target-x="503.7" target-y="687.7"></path><path d="M 553.10 694.50 L 555.90 692.40 L 557.90 691.50 L 561.10 690.60 L 564.30 690.30 L 566.50 690.50 L 569.90 691.80 L 571.10 692.90 L 571.90 694.50 L 572.30 696.60 L 571.00 698.00 L 569.00 699.40 L 566.60 700.50 L 560.90 702.10 L 555.60 702.20 L 553.60 701.70 L 552.50 701.10 L 551.80 700.20 L 551.40 699.20 L 551.90 696.60 L 553.10 694.50 Z" fill="#513e5d" fill-rule="nonzero" node-id="107" stroke="none" target-height="11.900024" target-width="20.899963" target-x="551.4" target-y="690.3"></path><path d="M 553.30 753.90 L 556.40 752.00 L 558.90 751.00 L 560.90 750.80 L 562.50 751.00 L 563.80 751.80 L 565.00 753.10 L 566.00 755.10 L 566.70 758.10 L 563.50 759.90 L 561.00 760.80 L 559.00 761.10 L 557.40 760.80 L 556.10 760.00 L 554.90 758.80 L 554.00 756.80 L 553.30 753.90 Z" fill="#533e60" fill-rule="nonzero" node-id="109" stroke="none" target-height="10.299988" target-width="13.400024" target-x="553.3" target-y="750.8"></path><path d="M 459.00 844.00 L 464.90 838.90 L 477.30 829.80 L 487.20 823.60 L 517.20 805.80 L 516.50 815.00 L 513.50 818.90 L 510.20 822.40 L 506.70 825.60 L 501.00 830.00 L 476.20 845.30 L 470.30 849.40 L 466.90 858.20 L 464.30 869.70 L 460.60 905.20 L 447.90 905.20 L 452.30 866.20 L 453.80 858.60 L 455.20 853.60 L 459.00 844.00 Z" fill="#453f4e" fill-rule="nonzero" node-id="111" stroke="none" target-height="99.400024" target-width="69.30002" target-x="447.9" target-y="805.8"></path><path d="M 736.50 905.20 L 754.30 876.30 L 766.00 905.20 L 736.50 905.20 Z" fill="#fbfbfe" fill-rule="nonzero" node-id="113" stroke="none" target-height="28.900024" target-width="29.5" target-x="736.5" target-y="876.3"></path><path d="M 344.00 905.20 L 345.30 902.30 L 349.70 888.10 L 352.40 883.00 L 355.50 880.20 L 357.30 879.30 L 359.60 878.80 L 362.40 878.80 L 366.50 882.10 L 370.40 887.30 L 377.30 901.80 L 379.30 905.20 L 344.00 905.20 Z" fill="#474257" fill-rule="nonzero" node-id="115" stroke="none" target-height="26.400024" target-width="35.299988" target-x="344" target-y="878.8"></path><path d="M 405.90 880.40 L 409.20 879.60 L 412.10 879.50 L 414.60 879.90 L 417.00 880.90 L 419.20 882.30 L 421.30 884.10 L 424.10 887.30 L 432.00 898.80 L 434.70 902.30 L 437.50 905.20 L 396.60 905.20 L 400.80 892.60 L 403.20 886.40 L 405.90 880.40 Z" fill="#453d51" fill-rule="nonzero" node-id="117" stroke="none" target-height="25.700012" target-width="40.899994" target-x="396.6" target-y="879.5"></path></svg>