<?xml version="1.0" standalone="no"?><!DOCTYPE svg PUBLIC "-//W3C//DTD SVG 1.1//EN" "http://www.w3.org/Graphics/SVG/1.1/DTD/svg11.dtd"><svg height="1024" node-id="1" sillyvg="true" template-height="1024" template-width="1024" version="1.1" viewBox="0 0 1024 1024" width="1024" xmlns="http://www.w3.org/2000/svg" xmlns:xlink="http://www.w3.org/1999/xlink"><defs node-id="94"></defs><path d="M 0.00 0.00 L 1024.00 0.00 L 1024.00 1024.00 L 0.00 1024.00 Z" fill="#ffffff" fill-rule="nonzero" node-id="96" stroke="none" target-height="1024" target-width="1024" target-x="0" target-y="0"></path><path d="M 750.70 522.40 L 761.10 523.90 L 763.60 524.60 L 765.90 525.60 L 768.50 527.70 L 769.60 529.20 L 773.10 539.60 L 775.30 550.40 L 775.80 555.90 L 775.90 561.40 L 766.00 561.90 L 767.00 543.30 L 752.20 550.70 L 752.80 545.10 L 754.90 540.40 L 756.90 537.70 L 759.50 535.30 L 762.70 533.10 L 756.30 528.10 L 750.70 522.40 Z" fill="#311728" fill-rule="nonzero" node-id="98" stroke="none" target-height="39.5" target-width="25.200012" target-x="750.7" target-y="522.4"></path><path d="M 829.30 364.10 L 834.50 365.10 L 844.50 368.00 L 851.80 371.00 L 859.00 374.30 L 873.00 381.50 L 873.50 392.50 L 867.90 389.20 L 850.00 380.20 L 844.10 376.90 L 838.70 373.30 L 835.30 370.60 L 832.10 367.50 L 829.30 364.10 Z" fill="#442031" fill-rule="nonzero" node-id="100" stroke="none" target-height="28.399994" target-width="44.200012" target-x="829.3" target-y="364.1"></path><path d="M 618.70 391.40 L 631.30 388.80 L 643.90 386.60 L 669.30 383.50 L 694.80 381.00 L 693.00 389.20 L 680.90 389.50 L 669.00 390.40 L 645.20 393.10 L 621.40 396.70 L 611.10 397.50 L 600.80 397.90 L 590.50 397.90 L 580.20 397.50 L 586.60 396.30 L 612.30 392.60 L 618.70 391.40 Z" fill="#442031" fill-rule="nonzero" node-id="102" stroke="none" target-height="16.899994" target-width="114.599976" target-x="580.2" target-y="381"></path><path d="M 141.30 403.20 L 142.00 400.70 L 143.00 398.60 L 144.30 397.00 L 145.90 395.60 L 150.00 393.50 L 157.20 391.90 L 171.70 390.70 L 169.00 393.50 L 166.10 395.80 L 162.90 397.70 L 156.10 400.60 L 146.90 402.60 L 141.30 403.20 Z" fill="#442031" fill-rule="nonzero" node-id="104" stroke="none" target-height="12.5" target-width="30.399994" target-x="141.3" target-y="390.7"></path><path d="M 270.80 435.90 L 279.40 429.80 L 288.40 425.20 L 294.70 422.90 L 301.20 421.00 L 307.80 419.50 L 317.80 417.80 L 359.00 413.60 L 368.90 412.00 L 367.10 422.60 L 358.90 422.00 L 350.70 421.80 L 342.60 422.10 L 326.50 423.70 L 306.50 427.30 L 270.80 435.90 Z" fill="#442031" fill-rule="nonzero" node-id="106" stroke="none" target-height="23.899994" target-width="98.100006" target-x="270.8" target-y="412"></path><path d="M 140.80 431.70 L 142.00 428.70 L 143.50 426.20 L 145.30 424.10 L 149.80 420.90 L 152.40 419.70 L 156.60 418.50 L 161.00 417.80 L 165.60 417.40 L 178.70 417.60 L 176.10 420.00 L 170.50 423.80 L 165.90 425.90 L 161.00 427.60 L 150.90 430.00 L 140.80 431.70 Z" fill="#442031" fill-rule="nonzero" node-id="108" stroke="none" target-height="14.300018" target-width="37.899994" target-x="140.8" target-y="417.4"></path><path d="M 829.40 416.40 L 833.60 416.70 L 837.70 417.50 L 841.60 418.90 L 845.30 420.70 L 848.60 423.00 L 851.60 425.80 L 854.20 428.90 L 856.40 432.40 L 858.10 436.40 L 854.10 435.70 L 850.30 434.40 L 846.70 432.70 L 840.20 428.20 L 837.20 425.50 L 833.10 421.00 L 829.40 416.40 Z" fill="#442031" fill-rule="nonzero" node-id="110" stroke="none" target-height="20" target-width="28.699951" target-x="829.4" target-y="416.4"></path><path d="M 143.50 455.50 L 156.20 448.40 L 165.00 444.50 L 174.20 441.90 L 179.00 441.20 L 184.00 441.00 L 181.50 444.30 L 178.80 447.10 L 175.80 449.60 L 170.90 452.80 L 165.50 455.50 L 160.00 457.80 L 143.30 464.30 L 143.50 455.50 Z" fill="#442031" fill-rule="nonzero" node-id="112" stroke="none" target-height="23.299988" target-width="40.699997" target-x="143.3" target-y="441"></path><path d="M 829.00 443.60 L 841.10 449.40 L 846.90 452.70 L 855.50 458.10 L 863.80 463.80 L 866.60 474.60 L 855.30 469.50 L 849.80 466.40 L 844.50 462.80 L 838.20 457.30 L 832.90 450.90 L 830.80 447.40 L 829.00 443.60 Z" fill="#442031" fill-rule="nonzero" node-id="114" stroke="none" target-height="31" target-width="37.599976" target-x="829" target-y="443.6"></path><path d="M 805.20 458.80 L 819.40 458.40 L 829.80 473.30 L 833.10 478.40 L 836.50 485.60 L 837.60 489.50 L 833.30 487.00 L 825.40 480.90 L 820.00 475.80 L 814.90 470.20 L 805.20 458.80 Z" fill="#442031" fill-rule="nonzero" node-id="116" stroke="none" target-height="31.100006" target-width="32.399963" target-x="805.2" target-y="458.4"></path><path d="M 802.10 486.20 L 804.80 487.40 L 807.10 488.70 L 808.90 490.30 L 810.50 492.10 L 812.10 494.90 L 813.20 497.90 L 813.90 501.20 L 814.10 508.00 L 813.70 511.50 L 812.60 516.70 L 811.00 521.50 L 807.40 520.90 L 803.40 519.90 L 799.50 518.30 L 795.80 516.40 L 793.50 514.80 L 790.00 511.10 L 788.70 509.10 L 787.90 506.90 L 787.60 504.50 L 787.80 502.20 L 788.60 499.60 L 790.10 496.80 L 791.60 498.40 L 796.80 505.90 L 800.40 510.00 L 801.60 510.80 L 802.80 511.00 L 804.00 510.80 L 805.00 510.10 L 806.10 508.70 L 807.40 506.10 L 806.20 503.40 L 804.80 500.90 L 797.80 491.60 L 802.10 486.20 Z" fill="#442031" fill-rule="nonzero" node-id="118" stroke="none" target-height="35.299988" target-width="26.5" target-x="787.6" target-y="486.2"></path><path d="M 237.50 544.50 L 250.60 542.70 L 239.80 560.10 L 256.60 562.10 L 254.20 564.60 L 251.70 566.50 L 249.00 567.90 L 246.10 568.70 L 243.30 568.90 L 240.40 568.50 L 236.30 566.80 L 234.30 565.30 L 232.30 563.40 L 237.50 544.50 Z" fill="#442031" fill-rule="nonzero" node-id="120" stroke="none" target-height="26.200012" target-width="24.300003" target-x="232.3" target-y="542.7"></path><path d="M 275.30 675.30 L 279.60 671.80 L 284.10 668.70 L 289.00 666.20 L 294.10 664.20 L 298.00 682.60 L 275.30 675.30 Z" fill="#e78c4d" fill-rule="nonzero" node-id="122" stroke="none" target-height="18.399963" target-width="22.700012" target-x="275.3" target-y="664.2"></path><path d="M 334.30 131.20 L 349.20 121.90 L 364.60 113.50 L 352.40 127.30 L 316.40 162.90 L 307.00 172.90 L 301.00 179.90 L 295.40 187.20 L 285.40 201.70 L 281.10 209.00 L 269.00 231.20 L 264.50 238.20 L 261.10 242.60 L 257.40 246.80 L 253.30 250.70 L 257.50 239.30 L 262.20 228.00 L 267.40 217.10 L 273.10 206.30 L 279.30 195.80 L 285.90 185.60 L 292.90 175.70 L 300.40 166.00 L 308.30 156.80 L 316.60 147.90 L 325.30 139.30 L 334.30 131.20 Z" fill="#f5eae6" fill-rule="nonzero" node-id="124" stroke="none" target-height="137.2" target-width="111.3" target-x="253.3" target-y="113.5"></path><path d="M 626.40 414.40 L 660.60 414.10 L 679.70 415.00 L 694.70 417.10 L 702.10 418.70 L 709.40 420.80 L 716.70 423.30 L 702.00 423.20 L 658.20 421.80 L 643.50 421.60 L 628.90 421.90 L 626.40 414.40 Z" fill="#35152b" fill-rule="nonzero" node-id="126" stroke="none" target-height="9.199982" target-width="90.29999" target-x="626.4" target-y="414.1"></path><path d="M 571.20 285.40 L 578.00 269.80 L 593.00 283.50 L 571.20 285.40 Z" fill="#f4edea" fill-rule="nonzero" node-id="128" stroke="none" target-height="15.600006" target-width="21.799988" target-x="571.2" target-y="269.8"></path><path d="M 399.50 283.20 L 406.00 281.70 L 410.20 281.80 L 414.10 283.10 L 417.80 286.00 L 408.60 290.60 L 399.20 294.80 L 399.50 283.20 Z" fill="#f3ebe7" fill-rule="nonzero" node-id="130" stroke="none" target-height="13.099976" target-width="18.599976" target-x="399.2" target-y="281.7"></path><path d="M 626.10 448.60 L 635.50 452.20 L 644.70 456.40 L 653.60 461.10 L 662.10 466.40 L 670.40 472.20 L 678.20 478.40 L 685.70 485.20 L 692.80 492.40 L 688.40 494.20 L 673.30 482.10 L 657.90 470.50 L 642.20 459.30 L 626.10 448.60 Z" fill="#301929" fill-rule="nonzero" node-id="132" stroke="none" target-height="45.600006" target-width="66.70001" target-x="626.1" target-y="448.6"></path><path d="M 406.40 570.90 L 418.10 570.10 L 429.70 569.90 L 441.40 570.20 L 487.90 573.20 L 499.50 573.60 L 514.70 573.90 L 560.30 573.80 L 590.70 574.50 L 589.80 591.80 L 584.90 626.00 L 580.80 633.00 L 576.30 639.80 L 571.40 646.20 L 560.90 658.40 L 546.50 672.60 L 537.50 680.70 L 516.00 699.10 L 513.30 702.10 L 511.00 705.40 L 509.10 708.90 L 507.60 712.60 L 506.60 716.40 L 506.00 720.30 L 505.90 724.20 L 506.40 728.20 L 507.40 732.00 L 508.90 735.60 L 511.10 739.20 L 516.60 746.30 L 526.70 757.70 L 535.70 765.80 L 540.60 769.40 L 545.70 772.50 L 551.10 775.20 L 562.00 776.80 L 573.00 777.70 L 580.30 778.00 L 595.00 777.60 L 602.40 776.80 L 609.60 775.50 L 620.30 772.70 L 623.50 771.20 L 626.30 769.30 L 628.80 767.00 L 633.20 761.60 L 635.80 757.00 L 638.00 752.10 L 641.50 742.20 L 646.40 734.40 L 651.70 727.00 L 663.20 712.80 L 667.20 725.40 L 670.60 738.30 L 672.50 746.90 L 673.90 755.60 L 674.90 764.40 L 675.40 773.20 L 675.40 782.00 L 674.70 790.90 L 674.00 794.40 L 673.00 797.80 L 671.70 800.90 L 670.00 803.90 L 667.30 807.60 L 664.30 811.10 L 660.80 814.30 L 655.30 818.80 L 649.70 822.60 L 640.40 828.00 L 630.90 832.70 L 621.30 836.80 L 611.40 840.40 L 601.30 843.60 L 591.10 846.30 L 570.40 850.80 L 559.90 852.70 L 528.50 857.10 L 513.60 858.70 L 498.80 859.80 L 483.90 860.40 L 468.90 860.60 L 454.00 860.40 L 439.10 859.70 L 424.20 858.60 L 409.30 857.00 L 394.50 855.10 L 379.80 852.70 L 365.10 849.90 L 350.50 846.80 L 344.50 845.10 L 332.80 840.80 L 324.20 836.90 L 315.90 832.70 L 314.00 825.00 L 312.50 817.40 L 311.50 809.80 L 310.90 794.50 L 311.00 786.80 L 311.80 775.30 L 313.10 763.80 L 319.40 717.90 L 335.90 742.30 L 341.90 750.00 L 346.20 754.90 L 350.80 759.50 L 355.80 763.80 L 364.20 767.90 L 368.60 769.40 L 375.40 771.20 L 382.30 772.40 L 414.80 776.70 L 419.20 776.80 L 423.50 776.30 L 427.70 775.40 L 431.90 774.10 L 439.90 770.30 L 447.30 765.40 L 452.40 761.10 L 457.10 756.50 L 463.70 749.00 L 466.80 745.00 L 469.60 740.90 L 472.40 735.00 L 473.30 731.90 L 473.70 728.70 L 473.60 725.40 L 472.60 718.30 L 471.00 711.90 L 467.70 705.30 L 465.20 701.90 L 462.30 698.60 L 457.60 694.00 L 437.30 677.70 L 428.40 669.00 L 424.40 664.30 L 419.40 657.60 L 414.90 650.60 L 410.90 643.20 L 407.30 635.70 L 404.30 627.90 L 401.70 620.00 L 401.70 611.80 L 402.80 595.30 L 404.40 583.00 L 406.40 570.90 Z" fill="#f4ebe8" fill-rule="nonzero" node-id="134" stroke="none" target-height="290.69995" target-width="364.50003" target-x="310.9" target-y="569.9"></path><path d="M 277.90 525.50 L 293.20 523.90 L 306.70 528.00 L 320.40 531.70 L 334.10 534.80 L 347.90 537.50 L 375.80 541.90 L 438.70 550.20 L 459.60 553.30 L 443.20 553.60 L 426.90 553.40 L 410.50 552.80 L 399.50 551.80 L 388.60 550.30 L 366.80 546.60 L 371.80 551.60 L 376.30 556.80 L 380.50 562.30 L 384.10 568.00 L 390.40 580.20 L 395.30 593.10 L 397.90 602.00 L 400.00 611.00 L 401.70 620.00 L 404.30 627.90 L 407.30 635.70 L 410.90 643.20 L 414.90 650.60 L 419.40 657.60 L 424.40 664.30 L 432.70 673.50 L 437.30 677.70 L 457.60 694.00 L 462.30 698.60 L 465.20 701.90 L 467.70 705.30 L 471.00 711.90 L 472.60 718.30 L 473.60 725.40 L 473.70 728.70 L 473.30 731.90 L 471.20 738.00 L 466.90 745.00 L 463.70 749.00 L 457.10 756.50 L 452.40 761.10 L 447.30 765.40 L 439.90 770.30 L 431.90 774.10 L 427.80 775.40 L 423.50 776.30 L 419.20 776.80 L 414.80 776.70 L 410.30 776.20 L 382.30 772.40 L 375.40 771.20 L 368.60 769.40 L 360.00 766.00 L 355.80 763.80 L 350.80 759.50 L 346.20 754.90 L 341.90 750.00 L 335.90 742.30 L 330.30 734.20 L 309.80 703.60 L 306.40 699.00 L 302.60 694.70 L 298.40 690.80 L 294.00 688.30 L 289.30 686.50 L 284.50 685.20 L 274.50 683.90 L 261.80 684.10 L 254.30 684.60 L 266.00 695.40 L 290.00 716.50 L 281.30 714.80 L 264.10 710.50 L 238.80 702.40 L 233.30 713.90 L 238.10 718.90 L 248.10 728.20 L 256.00 734.70 L 280.40 753.80 L 257.70 750.10 L 250.10 749.30 L 240.00 749.00 L 234.90 749.40 L 223.40 751.10 L 221.60 751.70 L 218.70 753.70 L 217.70 755.00 L 216.90 756.70 L 216.40 759.00 L 219.30 762.70 L 222.50 766.00 L 226.00 768.70 L 229.80 771.10 L 238.00 775.00 L 244.50 777.40 L 264.60 783.80 L 271.10 786.30 L 277.20 789.30 L 258.40 790.30 L 220.90 791.20 L 224.50 794.80 L 228.20 798.00 L 232.20 800.80 L 238.50 804.60 L 245.10 807.80 L 272.30 819.30 L 278.90 822.60 L 285.20 826.40 L 273.70 825.80 L 259.50 823.50 L 251.00 821.50 L 234.30 816.90 L 238.90 821.30 L 243.60 825.20 L 248.50 828.80 L 253.50 832.10 L 260.60 835.90 L 268.00 839.30 L 275.60 842.20 L 291.20 846.80 L 299.20 848.70 L 323.20 853.40 L 334.30 858.20 L 345.50 862.50 L 356.90 866.30 L 368.50 869.50 L 380.10 872.40 L 391.90 874.80 L 403.70 876.80 L 415.70 878.40 L 431.70 880.10 L 447.70 881.30 L 463.80 881.90 L 479.90 882.20 L 511.90 881.80 L 546.90 878.30 L 581.90 873.50 L 599.30 870.50 L 616.60 867.10 L 633.80 863.10 L 650.80 858.60 L 667.70 853.40 L 676.60 851.40 L 694.60 848.50 L 721.90 845.70 L 735.60 814.40 L 712.60 819.00 L 704.80 820.20 L 689.30 821.80 L 692.90 818.90 L 700.50 814.00 L 712.70 808.10 L 731.50 799.90 L 737.60 796.90 L 740.50 795.10 L 743.00 793.00 L 745.20 790.70 L 747.90 786.70 L 750.20 782.30 L 757.20 763.80 L 736.70 771.50 L 716.00 778.50 L 705.50 781.50 L 694.90 783.90 L 702.30 777.40 L 710.10 771.30 L 734.20 753.70 L 741.90 747.50 L 746.70 743.10 L 751.40 738.40 L 757.30 731.30 L 758.50 729.10 L 759.30 726.70 L 760.00 723.00 L 760.00 719.20 L 759.00 711.70 L 753.10 711.90 L 747.30 712.60 L 741.60 713.60 L 733.10 715.60 L 707.70 722.70 L 696.20 724.90 L 690.30 725.50 L 697.20 718.80 L 704.30 712.40 L 711.80 706.60 L 723.40 698.30 L 759.80 675.40 L 754.60 674.30 L 749.50 673.80 L 744.50 673.70 L 734.40 674.60 L 721.90 677.10 L 699.50 682.80 L 691.90 684.30 L 684.40 685.30 L 688.40 681.10 L 692.70 677.40 L 697.30 674.00 L 704.50 669.50 L 727.20 657.30 L 734.60 653.00 L 741.70 648.10 L 733.10 644.60 L 728.50 643.30 L 724.00 642.40 L 720.90 642.20 L 715.00 643.00 L 712.20 644.00 L 709.50 645.50 L 706.80 647.50 L 695.90 658.10 L 683.50 672.50 L 657.70 706.00 L 653.20 712.60 L 649.20 719.50 L 646.70 724.90 L 644.50 730.50 L 642.80 736.20 L 641.50 742.20 L 639.90 747.10 L 635.80 757.00 L 633.20 761.60 L 628.80 767.00 L 626.30 769.30 L 623.50 771.20 L 620.30 772.70 L 609.60 775.50 L 602.40 776.80 L 587.70 778.00 L 573.00 777.70 L 562.00 776.80 L 551.10 775.20 L 545.70 772.50 L 540.60 769.40 L 535.70 765.80 L 531.10 761.90 L 522.50 753.30 L 516.60 746.30 L 511.10 739.20 L 508.90 735.60 L 507.40 732.00 L 506.40 728.20 L 505.90 724.20 L 506.00 720.30 L 506.60 716.40 L 507.60 712.60 L 509.10 708.90 L 511.00 705.40 L 513.30 702.10 L 516.00 699.10 L 537.50 680.70 L 546.50 672.60 L 560.90 658.40 L 571.40 646.20 L 576.30 639.80 L 580.80 633.00 L 584.90 626.00 L 599.90 615.60 L 606.80 611.20 L 621.00 603.30 L 628.40 599.90 L 650.80 591.50 L 665.20 585.40 L 679.40 578.80 L 693.30 571.70 L 693.70 563.40 L 693.70 555.20 L 693.20 547.00 L 692.30 538.80 L 666.90 543.80 L 641.50 549.20 L 602.40 555.20 L 589.50 556.70 L 576.80 557.20 L 564.00 557.30 L 580.30 554.00 L 646.00 542.60 L 662.30 539.10 L 673.00 536.40 L 683.70 533.20 L 694.30 529.70 L 701.30 534.30 L 702.80 583.50 L 703.90 588.80 L 704.90 591.10 L 707.00 594.20 L 709.60 597.00 L 712.50 599.60 L 722.10 606.80 L 727.70 612.10 L 733.20 618.20 L 738.20 624.40 L 743.00 630.90 L 747.30 637.70 L 751.30 644.60 L 755.90 653.60 L 759.80 662.80 L 763.20 672.30 L 766.10 681.90 L 768.40 691.80 L 770.20 701.70 L 771.40 711.70 L 772.00 721.80 L 772.10 731.90 L 771.70 742.00 L 770.70 752.00 L 769.20 762.00 L 781.50 761.20 L 794.00 760.90 L 794.00 744.70 L 793.60 736.50 L 790.60 699.60 L 790.00 687.40 L 790.20 671.10 L 790.90 663.00 L 792.10 655.00 L 793.90 647.00 L 797.80 634.60 L 799.50 630.40 L 803.90 622.80 L 807.50 618.00 L 811.50 613.60 L 815.80 609.40 L 822.70 603.60 L 829.90 598.30 L 831.00 601.30 L 810.00 624.10 L 819.90 634.10 L 825.10 638.90 L 830.50 643.40 L 838.30 648.60 L 842.50 650.80 L 837.10 656.70 L 832.10 662.90 L 831.20 668.90 L 830.60 680.90 L 831.00 690.00 L 834.70 726.30 L 835.10 735.30 L 835.00 741.30 L 834.50 747.20 L 833.60 753.10 L 832.20 758.90 L 830.20 764.60 L 827.60 770.40 L 815.00 765.90 L 802.40 761.80 L 802.80 773.60 L 819.30 778.30 L 808.10 786.80 L 800.70 821.00 L 787.30 832.10 L 780.30 837.30 L 773.00 842.00 L 767.90 844.70 L 762.60 847.00 L 757.10 848.80 L 750.30 850.60 L 736.60 852.80 L 726.20 853.80 L 705.30 855.20 L 687.90 857.10 L 674.30 860.00 L 640.00 868.90 L 622.60 872.80 L 605.20 876.40 L 587.70 879.50 L 570.10 882.20 L 552.50 884.50 L 534.80 886.20 L 517.10 887.50 L 499.30 888.30 L 481.60 888.50 L 463.90 888.20 L 446.20 887.30 L 428.50 885.90 L 410.80 883.80 L 385.80 879.90 L 378.50 878.40 L 360.50 873.30 L 339.20 866.20 L 321.30 860.70 L 314.00 858.90 L 297.50 855.80 L 288.40 853.70 L 279.40 851.20 L 266.20 846.50 L 253.70 840.50 L 247.70 837.00 L 242.00 833.00 L 236.50 828.70 L 231.30 823.80 L 224.50 815.10 L 219.00 805.80 L 216.00 799.20 L 213.50 792.40 L 211.60 785.50 L 210.20 778.40 L 209.20 771.20 L 208.70 763.90 L 208.60 756.60 L 208.90 749.30 L 209.60 742.10 L 211.80 734.50 L 214.50 727.20 L 217.70 720.30 L 221.30 713.70 L 225.50 707.40 L 230.00 701.30 L 234.80 695.50 L 240.10 690.00 L 245.60 684.70 L 257.50 675.10 L 263.80 670.70 L 272.50 665.20 L 281.40 660.30 L 290.50 655.80 L 289.80 634.30 L 290.20 612.80 L 291.10 602.10 L 292.60 591.40 L 293.90 585.20 L 295.60 579.10 L 297.80 573.30 L 303.20 561.90 L 311.40 548.40 L 316.70 540.50 L 303.40 536.40 L 290.30 531.60 L 284.00 528.80 L 277.90 525.50 Z M 308.40 563.60 L 304.10 586.90 L 327.20 591.90 L 334.80 593.80 L 342.20 596.10 L 349.60 599.00 L 357.00 602.30 L 378.90 613.20 L 393.60 620.00 L 388.20 603.70 L 386.00 598.40 L 383.30 593.40 L 380.20 588.70 L 377.80 585.90 L 375.00 583.30 L 371.80 581.00 L 364.60 576.80 L 357.10 573.20 L 349.40 570.20 L 341.40 567.70 L 333.30 565.70 L 325.10 564.40 L 316.80 563.70 L 308.40 563.60 Z M 705.10 607.30 L 700.90 634.50 L 716.80 626.90 L 720.30 623.80 L 721.50 621.90 L 722.20 619.80 L 722.40 617.10 L 714.00 611.80 L 705.10 607.30 Z M 297.80 635.90 L 300.50 639.70 L 303.40 643.10 L 306.60 646.10 L 313.70 651.40 L 323.40 656.70 L 341.90 664.80 L 332.50 666.70 L 323.00 668.20 L 304.00 670.50 L 308.20 679.70 L 317.50 697.60 L 328.10 714.90 L 333.70 723.30 L 342.50 735.70 L 354.60 751.30 L 357.70 754.40 L 361.00 757.20 L 364.70 759.50 L 368.60 761.60 L 372.60 763.20 L 376.90 764.50 L 381.30 765.30 L 379.40 746.10 L 378.00 727.00 L 384.40 726.00 L 383.80 730.30 L 383.70 734.50 L 384.00 738.60 L 384.90 742.60 L 386.10 746.50 L 387.70 750.20 L 389.80 753.80 L 392.20 757.20 L 397.80 763.30 L 401.10 765.90 L 404.60 768.20 L 410.50 769.50 L 418.00 769.30 L 431.30 767.00 L 423.40 750.50 L 414.40 734.70 L 416.40 731.20 L 424.60 740.60 L 439.20 761.10 L 448.20 754.80 L 450.90 752.40 L 452.50 750.70 L 453.70 748.60 L 454.60 746.30 L 452.70 741.70 L 450.20 737.30 L 438.50 721.30 L 442.20 718.30 L 445.30 722.50 L 452.30 730.30 L 460.20 737.00 L 464.60 740.00 L 464.50 730.30 L 463.40 711.00 L 455.60 702.20 L 451.30 698.20 L 431.00 681.30 L 424.50 675.50 L 420.40 671.40 L 416.60 666.90 L 409.60 656.70 L 400.30 639.60 L 397.00 634.10 L 393.30 628.80 L 390.30 627.00 L 384.00 624.40 L 379.10 623.10 L 374.00 622.40 L 353.30 621.50 L 335.30 621.10 L 329.10 621.20 L 323.10 621.80 L 317.30 622.90 L 313.60 624.00 L 310.00 625.50 L 306.60 627.40 L 303.50 629.60 L 300.60 632.50 L 297.80 635.90 Z M 595.60 630.30 L 572.90 656.70 L 559.90 671.00 L 548.70 681.50 L 542.70 686.30 L 536.30 690.70 L 529.60 694.70 L 530.10 696.20 L 520.60 706.00 L 518.00 709.60 L 516.60 712.20 L 515.50 715.00 L 514.80 718.00 L 514.50 721.10 L 515.20 726.70 L 516.50 730.80 L 518.40 734.70 L 520.70 738.50 L 528.40 749.20 L 538.30 738.50 L 547.70 727.50 L 548.70 733.90 L 544.00 747.10 L 540.60 760.70 L 561.60 769.90 L 564.70 765.70 L 570.10 756.80 L 573.60 749.70 L 576.60 742.50 L 579.80 746.40 L 575.70 772.80 L 589.90 772.10 L 593.30 771.50 L 596.70 770.30 L 598.40 767.50 L 599.60 764.70 L 600.30 761.70 L 600.90 757.10 L 600.90 752.40 L 599.60 738.10 L 599.50 733.50 L 602.00 739.20 L 606.00 751.00 L 608.20 760.10 L 609.80 769.40 L 613.70 767.80 L 617.10 765.80 L 620.10 763.60 L 622.70 760.90 L 625.00 758.00 L 627.00 754.80 L 629.50 749.70 L 631.50 744.20 L 633.10 738.50 L 636.40 721.50 L 607.90 719.90 L 618.20 714.90 L 639.40 706.30 L 643.30 704.30 L 646.90 701.90 L 650.20 699.20 L 654.80 694.50 L 659.00 689.50 L 667.10 679.30 L 649.90 678.80 L 641.40 678.10 L 632.90 676.90 L 638.50 671.50 L 646.30 666.30 L 672.00 653.40 L 676.80 650.40 L 681.30 646.80 L 683.40 644.20 L 686.40 638.40 L 688.00 633.80 L 691.60 619.40 L 645.30 619.10 L 629.90 619.50 L 620.80 620.20 L 611.50 621.60 L 607.10 622.90 L 602.90 624.70 L 600.30 626.20 L 595.60 630.30 Z M 797.30 652.80 L 794.70 671.00 L 793.40 689.40 L 813.40 685.10 L 823.30 682.50 L 824.90 665.60 L 815.90 660.90 L 806.70 656.60 L 797.30 652.80 Z M 275.30 675.30 L 298.00 682.60 L 294.10 664.20 L 289.00 666.20 L 284.10 668.70 L 279.60 671.80 L 275.30 675.30 Z M 796.70 714.60 L 795.70 716.70 L 795.30 718.60 L 795.40 720.50 L 796.20 723.30 L 800.70 731.40 L 827.40 726.30 L 826.20 705.50 L 811.20 709.30 L 806.30 710.80 L 796.70 714.60 Z M 800.60 738.20 L 800.10 753.80 L 821.80 755.10 L 825.30 742.10 L 800.60 738.20 Z M 778.50 766.50 L 775.80 771.20 L 772.80 775.50 L 770.40 778.10 L 767.70 780.30 L 764.70 782.30 L 757.10 793.60 L 749.90 805.10 L 743.10 817.00 L 736.90 829.10 L 734.40 848.80 L 742.00 847.30 L 749.90 845.40 L 757.60 842.90 L 765.20 839.80 L 770.10 837.40 L 779.10 831.70 L 783.30 828.40 L 787.00 824.70 L 790.40 820.80 L 793.40 816.40 L 795.80 811.70 L 797.80 806.60 L 799.80 798.20 L 785.10 798.00 L 799.90 784.80 L 803.50 785.20 L 800.20 781.00 L 796.50 777.10 L 792.50 773.70 L 785.90 769.50 L 778.50 766.50 Z" fill="#2f1c2d" fill-rule="nonzero" node-id="136" stroke="none" target-height="364.59998" target-width="633.9" target-x="208.6" target-y="523.9"></path><path d="M 404.20 366.20 L 413.90 363.40 L 433.80 360.10 L 443.80 361.20 L 434.90 371.80 L 438.70 376.80 L 442.80 381.50 L 447.20 385.80 L 451.90 389.90 L 456.90 393.50 L 462.10 396.80 L 467.60 399.70 L 486.50 408.10 L 489.70 409.80 L 494.20 413.40 L 496.60 417.10 L 497.30 419.20 L 497.50 421.60 L 497.60 428.50 L 497.40 432.30 L 496.80 435.80 L 495.80 439.10 L 493.90 443.30 L 491.60 447.10 L 488.60 450.60 L 485.30 453.70 L 481.60 456.50 L 477.40 459.00 L 473.10 461.10 L 468.60 462.80 L 458.90 465.10 L 449.30 465.90 L 444.40 465.70 L 430.90 463.50 L 426.80 462.40 L 422.90 460.80 L 415.60 456.60 L 412.20 454.10 L 407.20 450.00 L 393.10 436.80 L 394.40 440.90 L 396.10 444.60 L 398.00 448.00 L 400.20 451.10 L 403.70 454.90 L 407.50 458.30 L 411.80 461.30 L 416.30 463.90 L 421.20 466.00 L 426.30 467.80 L 436.80 470.20 L 442.10 470.90 L 452.70 471.10 L 463.30 470.00 L 468.50 468.70 L 473.50 466.80 L 478.20 464.40 L 487.40 458.50 L 500.00 448.40 L 511.30 456.70 L 517.20 460.60 L 523.40 464.00 L 527.60 465.80 L 532.10 467.10 L 536.70 468.00 L 549.80 468.70 L 556.50 468.60 L 567.40 467.40 L 575.80 465.10 L 579.80 463.50 L 583.70 461.50 L 590.40 456.90 L 595.50 451.80 L 598.70 447.50 L 601.60 442.80 L 606.80 433.20 L 613.00 432.20 L 652.00 441.60 L 677.60 449.00 L 690.30 453.20 L 702.80 457.80 L 715.20 462.90 L 727.30 468.60 L 723.80 472.70 L 720.10 476.40 L 716.10 479.90 L 711.80 483.00 L 705.80 486.60 L 699.50 489.80 L 692.80 492.40 L 685.70 485.20 L 678.20 478.40 L 670.40 472.20 L 662.10 466.40 L 653.60 461.10 L 644.70 456.40 L 635.50 452.20 L 626.10 448.60 L 642.20 459.30 L 657.90 470.50 L 673.30 482.10 L 688.40 494.20 L 677.70 500.40 L 651.50 509.00 L 638.30 512.80 L 624.90 516.30 L 611.50 519.40 L 598.00 522.10 L 584.40 524.20 L 570.70 525.80 L 556.90 526.80 L 532.10 527.80 L 507.30 528.30 L 474.20 527.80 L 457.60 527.00 L 441.10 525.70 L 424.70 524.00 L 408.30 521.80 L 392.00 519.00 L 375.80 515.70 L 359.70 511.70 L 352.30 509.50 L 345.00 506.90 L 338.00 503.90 L 327.60 498.70 L 317.50 493.10 L 322.00 488.70 L 331.40 480.70 L 361.20 458.60 L 370.50 450.50 L 374.90 446.10 L 357.70 455.80 L 341.20 466.80 L 330.60 474.70 L 320.40 483.00 L 310.40 491.60 L 294.10 480.80 L 278.10 469.40 L 289.00 463.90 L 300.10 459.00 L 311.40 454.60 L 334.40 446.90 L 363.70 438.90 L 416.70 425.90 L 408.10 425.40 L 399.60 425.40 L 391.00 425.90 L 382.50 426.90 L 374.10 428.50 L 365.70 430.50 L 370.70 403.20 L 378.40 404.20 L 393.80 405.10 L 409.30 404.60 L 417.00 403.80 L 407.70 401.00 L 395.70 399.10 L 388.50 398.60 L 373.90 398.50 L 376.00 389.00 L 389.20 376.20 L 393.80 372.40 L 400.60 368.00 L 404.20 366.20 Z" fill="#f4ebe9" fill-rule="nonzero" node-id="138" stroke="none" target-height="168.19998" target-width="449.19998" target-x="278.1" target-y="360.1"></path><path d="M 328.00 127.30 L 336.80 120.80 L 346.00 114.70 L 355.30 109.10 L 365.00 104.00 L 374.80 99.20 L 384.90 94.90 L 395.10 91.00 L 405.50 87.40 L 426.60 81.50 L 448.20 77.10 L 462.70 75.00 L 477.20 73.40 L 491.60 72.40 L 505.00 72.00 L 518.40 72.20 L 531.70 73.10 L 545.00 74.60 L 558.20 76.60 L 571.40 79.10 L 584.40 82.10 L 597.30 85.60 L 610.10 89.60 L 605.60 97.90 L 609.80 99.40 L 615.40 104.70 L 620.50 110.40 L 623.70 114.40 L 626.50 118.70 L 628.90 123.20 L 622.20 120.40 L 615.40 117.90 L 608.50 115.90 L 601.50 114.20 L 587.20 112.00 L 572.80 111.50 L 565.60 111.80 L 558.40 112.50 L 551.20 113.60 L 544.10 115.10 L 555.40 117.70 L 566.80 120.80 L 574.30 123.20 L 581.60 126.00 L 593.90 131.90 L 603.60 138.10 L 608.10 141.60 L 612.30 145.50 L 616.30 149.70 L 619.90 154.40 L 623.30 159.50 L 602.80 150.40 L 595.80 147.90 L 591.10 146.50 L 586.30 145.50 L 581.30 145.00 L 570.10 144.60 L 558.90 144.80 L 536.60 146.40 L 514.40 148.80 L 514.90 139.80 L 516.00 131.00 L 517.80 122.30 L 520.10 113.70 L 522.40 107.00 L 525.10 100.50 L 528.20 94.10 L 531.70 87.90 L 535.70 81.90 L 522.90 81.20 L 510.00 81.00 L 497.20 81.10 L 484.40 81.90 L 471.70 83.20 L 458.90 85.10 L 470.10 104.50 L 476.40 117.90 L 479.00 124.90 L 481.00 131.90 L 482.50 139.20 L 483.40 146.70 L 442.70 144.80 L 435.90 144.80 L 422.40 145.50 L 415.80 146.50 L 409.40 147.90 L 403.00 149.80 L 398.40 151.70 L 393.90 153.90 L 389.40 156.50 L 385.00 159.60 L 378.40 157.60 L 383.40 152.20 L 388.70 147.30 L 394.30 142.80 L 406.20 134.70 L 422.10 126.20 L 451.80 112.90 L 446.70 111.30 L 441.60 110.10 L 436.60 109.40 L 431.60 109.10 L 424.90 109.30 L 418.30 110.00 L 411.80 111.40 L 405.40 113.20 L 399.00 115.50 L 392.70 118.20 L 383.50 122.80 L 374.60 128.00 L 357.80 139.40 L 373.00 122.20 L 380.10 113.30 L 386.90 104.10 L 375.60 108.30 L 364.60 113.50 L 349.20 121.90 L 334.30 131.20 L 328.00 127.30 Z" fill="#30152c" fill-rule="nonzero" node-id="140" stroke="none" target-height="87.600006" target-width="300.90002" target-x="328" target-y="72"></path><path d="M 458.90 85.10 L 471.70 83.20 L 484.40 81.90 L 497.20 81.10 L 510.00 81.00 L 522.90 81.20 L 535.70 81.90 L 531.70 87.90 L 528.20 94.10 L 525.10 100.50 L 522.40 107.00 L 520.10 113.70 L 517.80 122.30 L 516.00 131.00 L 514.90 139.80 L 514.40 148.80 L 536.60 146.40 L 558.90 144.80 L 570.10 144.60 L 581.30 145.00 L 586.30 145.50 L 591.10 146.50 L 595.80 147.90 L 602.80 150.40 L 623.30 159.50 L 619.90 154.40 L 616.30 149.70 L 612.30 145.50 L 608.10 141.60 L 603.60 138.10 L 593.90 131.90 L 581.60 126.00 L 574.30 123.20 L 566.80 120.80 L 555.40 117.70 L 544.10 115.10 L 551.20 113.60 L 558.40 112.50 L 565.60 111.80 L 572.80 111.50 L 587.20 112.00 L 601.50 114.20 L 608.50 115.90 L 615.40 117.90 L 622.20 120.40 L 628.90 123.20 L 643.20 131.80 L 657.20 140.90 L 666.30 147.30 L 675.00 154.10 L 683.40 161.30 L 689.40 167.00 L 695.10 173.10 L 700.50 179.40 L 705.50 186.10 L 712.80 196.90 L 719.70 208.20 L 724.00 216.00 L 727.90 223.90 L 731.30 231.90 L 735.50 244.30 L 738.20 257.00 L 739.00 263.50 L 739.20 270.00 L 738.90 276.60 L 738.20 283.40 L 729.30 289.70 L 720.90 296.50 L 712.70 303.70 L 705.00 311.30 L 711.40 315.30 L 715.10 318.10 L 718.90 320.20 L 722.90 321.80 L 727.00 323.00 L 731.20 323.70 L 735.50 324.00 L 742.10 324.00 L 761.80 322.10 L 762.30 331.90 L 728.40 352.70 L 750.90 363.80 L 756.20 367.00 L 761.30 370.60 L 763.00 376.10 L 764.30 381.70 L 766.40 393.20 L 753.40 396.70 L 715.20 409.00 L 722.40 410.20 L 736.60 413.50 L 750.30 418.10 L 757.00 421.00 L 763.50 424.20 L 769.80 427.80 L 776.00 431.90 L 773.90 438.80 L 771.50 445.50 L 768.60 452.10 L 765.40 458.50 L 759.00 460.30 L 747.90 462.60 L 739.00 462.90 L 734.70 462.30 L 730.40 461.10 L 715.90 455.00 L 695.20 447.50 L 679.50 442.50 L 663.60 438.00 L 631.60 429.80 L 628.90 421.90 L 643.50 421.60 L 658.20 421.80 L 702.00 423.20 L 716.70 423.30 L 709.40 420.80 L 702.10 418.70 L 694.70 417.10 L 679.70 415.00 L 660.60 414.10 L 626.40 414.40 L 621.40 396.70 L 657.10 391.60 L 680.90 389.50 L 693.00 389.20 L 694.80 381.00 L 669.30 383.50 L 643.90 386.60 L 631.30 388.80 L 618.70 391.40 L 616.20 386.60 L 613.40 382.20 L 610.10 378.20 L 606.50 374.50 L 602.60 371.10 L 598.40 368.10 L 593.90 365.40 L 589.20 363.10 L 584.30 361.20 L 579.30 359.70 L 574.20 358.60 L 569.00 357.90 L 564.80 359.90 L 560.90 362.50 L 541.00 352.70 L 529.10 347.30 L 524.00 345.50 L 518.80 344.10 L 513.60 343.20 L 502.90 342.20 L 494.80 342.20 L 462.00 344.50 L 454.00 344.80 L 446.60 342.90 L 439.30 340.40 L 425.10 334.70 L 425.30 318.90 L 424.90 298.30 L 423.70 284.70 L 422.50 277.90 L 420.50 270.90 L 418.20 263.90 L 412.90 250.20 L 416.60 247.30 L 419.80 244.00 L 422.50 240.40 L 424.20 237.50 L 425.40 234.40 L 426.30 231.10 L 426.80 227.50 L 412.70 215.30 L 410.20 210.00 L 407.30 205.10 L 400.50 195.90 L 409.90 194.20 L 432.80 189.30 L 444.40 187.30 L 467.60 184.30 L 479.30 183.20 L 481.30 158.00 L 471.90 159.90 L 462.60 162.20 L 446.60 167.30 L 433.40 173.10 L 407.40 186.30 L 408.10 166.70 L 385.00 159.60 L 389.40 156.50 L 393.90 153.90 L 398.40 151.70 L 403.00 149.80 L 409.40 147.90 L 415.80 146.50 L 422.40 145.50 L 435.90 144.80 L 442.70 144.80 L 483.40 146.70 L 482.50 139.20 L 481.00 131.90 L 479.00 124.90 L 476.40 117.90 L 470.10 104.50 L 458.90 85.10 Z M 515.50 162.50 L 518.80 176.30 L 520.10 179.60 L 521.70 182.80 L 525.10 184.00 L 528.40 184.80 L 531.90 185.20 L 537.10 185.30 L 547.70 184.90 L 558.70 185.10 L 564.40 185.90 L 570.00 187.10 L 586.80 191.40 L 583.70 187.30 L 580.30 183.60 L 576.60 180.20 L 572.70 177.20 L 567.20 173.50 L 561.30 170.40 L 555.10 167.80 L 548.70 165.70 L 542.10 164.10 L 535.50 163.00 L 528.70 162.30 L 522.10 162.20 L 515.50 162.50 Z M 582.50 246.50 L 579.00 250.20 L 575.90 254.10 L 573.40 258.30 L 571.20 262.70 L 567.70 272.10 L 563.30 286.40 L 563.90 297.30 L 564.60 303.30 L 565.70 309.20 L 568.10 316.70 L 569.70 320.00 L 571.70 323.10 L 574.00 325.60 L 576.80 327.80 L 579.00 329.00 L 581.60 329.80 L 601.70 332.60 L 629.50 335.00 L 636.40 336.20 L 643.20 337.80 L 648.30 339.80 L 653.20 342.20 L 662.50 348.00 L 671.40 354.30 L 674.10 348.60 L 676.20 342.80 L 677.80 336.90 L 679.60 324.80 L 679.90 318.70 L 679.80 309.50 L 679.20 300.20 L 676.90 281.80 L 682.90 280.70 L 688.60 279.10 L 694.20 277.10 L 699.70 274.70 L 704.80 271.80 L 709.50 268.40 L 712.80 265.50 L 715.90 262.30 L 718.60 258.80 L 721.10 254.90 L 706.90 262.90 L 699.60 266.50 L 692.10 269.60 L 686.90 271.30 L 681.70 272.60 L 676.20 273.60 L 667.00 261.90 L 662.10 256.30 L 653.20 247.70 L 645.30 241.90 L 641.10 239.50 L 636.60 237.40 L 631.90 235.70 L 623.20 234.10 L 618.80 233.70 L 614.30 233.60 L 605.50 234.50 L 601.20 235.50 L 597.10 236.90 L 593.10 238.60 L 589.30 240.80 L 585.80 243.40 L 582.50 246.50 Z" fill="#e5904f" fill-rule="nonzero" node-id="142" stroke="none" target-height="381.9" target-width="391" target-x="385" target-y="81"></path><path d="M 610.10 89.60 L 626.60 95.80 L 634.50 99.40 L 646.20 105.40 L 657.60 111.90 L 668.80 118.90 L 679.70 126.20 L 685.50 123.80 L 691.10 121.10 L 707.60 112.10 L 713.20 109.40 L 719.10 107.10 L 731.30 103.70 L 737.60 102.40 L 744.00 101.50 L 750.50 101.10 L 757.00 101.00 L 763.50 101.40 L 769.90 102.10 L 776.30 103.30 L 782.60 104.90 L 788.70 107.00 L 794.60 109.40 L 800.40 112.30 L 805.90 115.60 L 811.10 119.30 L 816.00 123.50 L 824.70 132.60 L 828.30 137.40 L 831.60 142.30 L 834.50 147.50 L 837.10 152.90 L 841.20 164.10 L 843.90 175.80 L 845.10 187.70 L 844.70 199.60 L 843.90 205.50 L 842.70 211.40 L 841.20 217.10 L 839.20 222.70 L 836.90 228.20 L 834.10 233.40 L 830.90 238.60 L 827.80 242.80 L 824.50 246.80 L 820.80 250.40 L 812.90 256.90 L 808.70 259.80 L 795.30 267.60 L 781.50 274.60 L 785.90 284.20 L 789.90 293.90 L 793.50 303.70 L 796.80 313.70 L 800.50 327.10 L 803.70 340.70 L 806.20 354.50 L 808.10 368.30 L 809.50 382.20 L 810.30 396.20 L 809.40 405.40 L 808.20 414.60 L 806.50 423.70 L 804.40 432.70 L 801.90 441.60 L 798.90 450.30 L 786.20 439.70 L 776.00 431.90 L 769.80 427.80 L 763.50 424.20 L 757.00 421.00 L 743.50 415.60 L 736.60 413.50 L 722.40 410.20 L 715.20 409.00 L 753.40 396.70 L 766.40 393.20 L 782.50 390.20 L 798.70 387.70 L 796.60 360.60 L 787.20 359.50 L 777.70 358.80 L 758.80 358.20 L 739.90 358.30 L 728.40 352.70 L 762.30 331.90 L 770.80 325.70 L 774.90 322.40 L 778.70 318.80 L 780.90 316.10 L 782.80 313.20 L 784.30 310.00 L 784.50 307.70 L 784.20 305.70 L 783.40 303.80 L 782.20 302.20 L 780.70 300.90 L 778.80 299.90 L 776.80 299.20 L 774.70 299.10 L 762.10 300.90 L 749.40 304.40 L 726.80 311.70 L 719.20 313.70 L 711.40 315.30 L 705.00 311.30 L 712.70 303.70 L 720.90 296.50 L 729.30 289.70 L 746.80 276.90 L 751.00 273.50 L 754.90 269.80 L 759.30 264.20 L 761.10 261.10 L 759.70 254.30 L 757.80 247.80 L 755.30 241.40 L 751.00 232.10 L 746.00 223.00 L 735.50 205.40 L 720.80 183.60 L 713.10 172.90 L 705.20 162.50 L 693.80 149.20 L 687.70 142.90 L 680.00 136.50 L 672.10 130.40 L 663.90 124.70 L 655.50 119.30 L 646.80 114.30 L 637.90 109.80 L 628.80 105.80 L 619.40 102.30 L 605.60 97.90 L 610.10 89.60 Z M 687.90 139.10 L 703.00 152.40 L 721.10 141.70 L 727.40 138.50 L 731.70 136.70 L 740.50 134.10 L 745.00 133.40 L 749.60 133.40 L 754.40 133.90 L 759.00 135.10 L 763.30 136.80 L 767.40 139.00 L 771.10 141.80 L 774.50 144.90 L 777.50 148.40 L 780.20 152.30 L 782.40 156.30 L 784.20 160.60 L 785.50 165.10 L 786.30 169.70 L 786.70 174.30 L 786.40 179.00 L 785.70 183.60 L 783.10 191.80 L 779.90 198.60 L 776.80 203.30 L 773.40 207.90 L 762.30 221.00 L 758.90 225.50 L 758.80 230.10 L 760.50 235.70 L 764.80 245.60 L 776.80 238.00 L 788.20 229.30 L 793.40 224.50 L 798.40 219.40 L 802.90 213.90 L 807.00 208.10 L 810.60 201.90 L 812.40 197.40 L 813.80 192.80 L 814.70 188.10 L 815.30 183.30 L 815.50 178.50 L 814.80 169.00 L 813.90 164.20 L 812.20 158.00 L 809.90 152.00 L 807.10 146.20 L 804.60 142.00 L 798.70 134.40 L 795.40 131.00 L 791.70 127.80 L 787.90 125.00 L 783.80 122.50 L 773.60 117.90 L 767.70 116.00 L 761.70 114.70 L 755.60 114.00 L 749.40 113.80 L 743.30 114.00 L 737.20 114.70 L 731.10 115.90 L 725.10 117.50 L 719.20 119.50 L 713.50 121.90 L 707.90 124.70 L 702.50 127.80 L 697.30 131.30 L 692.50 135.00 L 687.90 139.10 Z M 708.60 158.70 L 730.90 187.50 L 742.80 201.30 L 742.00 205.10 L 755.60 220.50 L 765.10 210.10 L 769.50 204.50 L 773.50 198.70 L 775.80 194.60 L 777.70 190.40 L 779.10 186.10 L 780.10 181.60 L 780.40 176.90 L 780.10 166.00 L 779.50 163.30 L 777.40 158.20 L 773.40 152.40 L 770.50 149.20 L 764.20 143.30 L 759.20 141.80 L 754.10 140.90 L 749.10 140.50 L 744.10 140.70 L 739.10 141.40 L 734.20 142.60 L 729.40 144.20 L 724.90 146.30 L 720.40 148.90 L 716.20 151.80 L 712.30 155.00 L 708.60 158.70 Z" fill="#2d1528" fill-rule="nonzero" node-id="144" stroke="none" target-height="360.69998" target-width="239.5" target-x="605.6" target-y="89.6"></path><path d="M 609.80 99.40 L 619.40 102.30 L 628.80 105.80 L 637.90 109.80 L 646.80 114.30 L 655.50 119.30 L 663.90 124.70 L 672.10 130.40 L 680.00 136.50 L 687.70 142.90 L 693.80 149.20 L 705.20 162.50 L 713.10 172.90 L 720.80 183.60 L 735.50 205.40 L 746.00 223.00 L 751.00 232.10 L 755.30 241.40 L 757.80 247.80 L 759.70 254.30 L 761.10 261.10 L 759.30 264.20 L 754.90 269.80 L 751.00 273.50 L 746.80 276.90 L 738.20 283.40 L 738.90 276.60 L 739.20 270.00 L 739.00 263.50 L 738.20 257.00 L 737.10 250.60 L 733.60 238.10 L 727.90 223.90 L 724.00 216.00 L 719.70 208.20 L 712.80 196.90 L 705.50 186.10 L 700.50 179.40 L 695.10 173.10 L 689.40 167.00 L 683.40 161.30 L 675.00 154.10 L 666.30 147.30 L 657.20 140.90 L 643.20 131.80 L 628.90 123.20 L 626.50 118.70 L 623.70 114.40 L 620.50 110.40 L 615.40 104.70 L 609.80 99.40 Z" fill="#cd633d" fill-rule="nonzero" node-id="146" stroke="none" target-height="184" target-width="151.29999" target-x="609.8" target-y="99.4"></path><path d="M 159.90 215.80 L 158.90 208.70 L 158.50 201.80 L 158.70 194.90 L 159.50 188.10 L 160.80 181.40 L 162.60 174.80 L 164.90 168.40 L 167.60 162.10 L 170.80 156.00 L 174.40 150.20 L 178.40 144.60 L 182.80 139.20 L 187.50 134.10 L 192.50 129.40 L 197.80 125.00 L 203.50 120.90 L 209.30 117.20 L 215.40 114.00 L 221.60 111.20 L 228.10 108.80 L 234.70 106.80 L 241.40 105.40 L 248.30 104.50 L 261.80 104.10 L 268.20 104.40 L 274.60 105.20 L 280.90 106.40 L 289.20 108.70 L 297.40 111.40 L 305.30 114.80 L 313.10 118.60 L 320.70 122.80 L 334.30 131.20 L 325.30 139.30 L 316.60 147.90 L 308.30 156.80 L 300.40 166.00 L 292.90 175.70 L 285.90 185.60 L 279.30 195.80 L 273.10 206.30 L 267.40 217.10 L 262.20 228.00 L 257.50 239.30 L 249.20 261.40 L 256.50 270.80 L 264.30 279.80 L 288.60 306.10 L 296.40 315.20 L 284.50 313.30 L 261.00 308.50 L 249.30 305.50 L 237.90 302.00 L 226.50 298.00 L 220.60 318.40 L 227.30 324.20 L 234.40 329.50 L 263.60 349.20 L 270.70 354.50 L 277.40 360.10 L 264.30 361.80 L 251.10 363.00 L 237.90 363.90 L 224.70 364.30 L 211.50 364.30 L 212.10 390.50 L 227.60 394.90 L 242.90 399.70 L 253.00 403.30 L 262.90 407.20 L 272.70 411.50 L 262.30 414.90 L 230.80 424.30 L 217.10 429.30 L 210.30 432.30 L 215.00 436.80 L 220.00 441.00 L 225.30 444.60 L 230.80 448.00 L 242.40 453.80 L 260.30 461.30 L 246.90 471.00 L 240.50 476.20 L 234.20 481.70 L 240.20 479.70 L 251.70 474.90 L 260.10 470.60 L 275.90 461.80 L 283.70 458.00 L 291.60 454.60 L 303.70 450.00 L 316.10 445.90 L 353.40 434.60 L 365.70 430.50 L 374.10 428.50 L 382.50 426.90 L 391.00 425.90 L 399.60 425.40 L 408.10 425.40 L 416.70 425.90 L 363.70 438.90 L 346.00 443.60 L 334.40 446.90 L 311.40 454.60 L 300.10 459.00 L 289.00 463.90 L 278.10 469.40 L 260.30 479.70 L 243.00 490.70 L 249.90 497.00 L 257.20 502.80 L 264.70 508.20 L 272.60 513.20 L 280.60 517.90 L 288.90 522.30 L 310.40 491.60 L 320.40 483.00 L 330.60 474.70 L 341.20 466.80 L 357.70 455.80 L 374.90 446.10 L 370.50 450.50 L 361.20 458.60 L 331.40 480.70 L 322.00 488.70 L 313.00 497.80 L 308.70 502.70 L 298.70 515.70 L 293.20 523.90 L 277.90 525.50 L 265.10 519.00 L 259.00 515.30 L 247.40 506.90 L 236.70 497.40 L 231.80 492.20 L 222.70 481.10 L 214.90 469.10 L 211.60 462.70 L 208.60 456.20 L 206.00 449.60 L 201.30 434.70 L 199.40 426.80 L 198.00 418.80 L 197.10 410.90 L 196.60 402.90 L 196.80 386.90 L 197.50 378.90 L 198.90 368.30 L 200.70 357.70 L 203.10 347.10 L 207.20 331.30 L 211.80 315.70 L 221.90 285.10 L 215.00 281.30 L 208.10 277.20 L 201.50 272.70 L 195.10 267.80 L 189.00 262.50 L 183.30 256.90 L 177.90 250.90 L 173.10 244.60 L 168.90 237.90 L 166.10 232.70 L 163.60 227.30 L 161.60 221.60 L 159.90 215.80 Z M 191.60 194.90 L 194.20 200.80 L 197.10 206.40 L 200.40 211.90 L 204.10 217.10 L 212.40 226.90 L 217.00 231.40 L 226.90 239.60 L 237.70 246.50 L 243.30 249.50 L 251.10 234.10 L 240.50 223.40 L 235.20 217.80 L 230.40 211.90 L 227.50 207.70 L 225.00 203.40 L 223.00 198.90 L 220.90 191.80 L 220.40 188.00 L 220.00 179.80 L 220.30 175.70 L 221.10 171.70 L 222.30 167.90 L 225.80 160.60 L 230.80 154.00 L 234.80 150.20 L 239.10 146.80 L 243.80 144.00 L 251.40 140.70 L 255.30 139.70 L 263.60 138.50 L 267.70 138.60 L 271.80 139.00 L 279.70 141.00 L 289.30 145.10 L 305.50 154.20 L 313.10 145.00 L 320.30 135.50 L 306.20 127.70 L 298.80 124.30 L 291.30 121.50 L 281.00 118.70 L 270.20 117.00 L 264.80 116.80 L 259.40 117.00 L 254.00 117.70 L 248.70 118.80 L 243.50 120.30 L 238.40 122.20 L 233.40 124.50 L 223.90 130.00 L 215.30 136.80 L 207.70 144.70 L 201.30 153.50 L 198.50 158.20 L 196.20 163.10 L 194.30 168.10 L 192.80 173.30 L 191.80 178.50 L 191.20 183.90 L 191.10 189.40 L 191.60 194.90 Z M 251.20 144.10 L 245.80 147.40 L 240.70 151.20 L 237.50 154.10 L 231.80 160.40 L 229.50 163.90 L 227.60 167.60 L 226.00 171.40 L 225.00 175.50 L 224.60 179.70 L 224.80 184.20 L 226.60 193.30 L 228.10 197.70 L 229.90 202.10 L 232.80 207.70 L 236.30 213.00 L 240.20 217.90 L 243.50 221.30 L 250.70 227.20 L 254.70 229.80 L 259.50 213.50 L 274.30 195.00 L 281.20 185.40 L 301.10 156.00 L 296.10 152.90 L 285.50 147.70 L 280.00 145.70 L 274.50 144.10 L 268.80 143.10 L 264.40 142.80 L 255.70 143.20 L 251.20 144.10 Z" fill="#35162a" fill-rule="nonzero" node-id="148" stroke="none" target-height="421.4" target-width="258.2" target-x="158.5" target-y="104.1"></path><path d="M 364.60 113.50 L 375.60 108.30 L 386.90 104.10 L 380.10 113.30 L 373.00 122.20 L 357.80 139.40 L 374.60 128.00 L 383.50 122.80 L 392.70 118.20 L 399.00 115.50 L 405.40 113.20 L 411.80 111.40 L 418.30 110.00 L 424.90 109.30 L 431.60 109.10 L 436.60 109.40 L 441.60 110.10 L 446.70 111.30 L 451.80 112.90 L 422.10 126.20 L 406.20 134.70 L 394.30 142.80 L 388.70 147.30 L 383.40 152.20 L 378.40 157.60 L 408.10 166.70 L 407.40 186.30 L 427.00 176.50 L 409.90 194.20 L 400.50 195.90 L 407.30 205.10 L 410.20 210.00 L 412.70 215.30 L 426.80 227.50 L 426.30 231.10 L 425.40 234.40 L 424.20 237.50 L 422.50 240.40 L 419.80 244.00 L 416.60 247.30 L 412.90 250.20 L 418.20 263.90 L 422.50 277.90 L 416.50 268.50 L 413.10 263.90 L 409.40 259.60 L 405.40 255.50 L 401.20 251.80 L 396.60 248.60 L 391.80 245.90 L 386.70 243.80 L 382.80 242.70 L 378.70 242.00 L 374.40 241.80 L 366.00 242.20 L 362.30 242.80 L 355.60 245.10 L 349.30 248.60 L 344.90 251.80 L 328.00 266.20 L 323.70 269.40 L 317.90 268.60 L 312.30 267.20 L 290.30 259.30 L 293.40 263.30 L 296.90 266.90 L 300.60 270.10 L 304.60 272.90 L 308.80 275.30 L 313.30 277.20 L 318.00 278.80 L 323.00 279.90 L 321.70 287.20 L 320.10 302.00 L 320.00 316.90 L 320.50 324.30 L 321.50 331.70 L 322.90 339.00 L 324.80 346.30 L 332.50 343.00 L 340.30 340.20 L 348.30 338.00 L 356.30 336.20 L 364.50 334.90 L 372.70 333.90 L 385.20 333.10 L 401.40 332.90 L 404.90 332.40 L 408.20 331.40 L 414.40 328.10 L 421.40 322.60 L 425.30 318.90 L 425.10 334.70 L 439.30 340.40 L 446.60 342.90 L 454.00 344.80 L 450.40 353.50 L 433.80 360.10 L 413.90 363.40 L 404.20 366.20 L 400.60 368.00 L 393.80 372.40 L 389.20 376.20 L 376.00 389.00 L 367.30 389.50 L 349.80 389.70 L 297.10 387.90 L 296.80 396.10 L 309.20 396.30 L 333.90 397.60 L 346.30 398.90 L 358.50 400.70 L 370.70 403.20 L 368.90 412.00 L 359.00 413.60 L 317.80 417.80 L 307.80 419.50 L 301.20 421.00 L 294.70 422.90 L 288.40 425.20 L 283.90 427.30 L 275.10 432.60 L 270.80 435.90 L 294.50 430.00 L 318.50 425.00 L 326.50 423.70 L 342.60 422.10 L 350.70 421.80 L 358.90 422.00 L 367.10 422.60 L 365.70 430.50 L 353.40 434.60 L 316.10 445.90 L 303.70 450.00 L 291.60 454.60 L 283.70 458.00 L 275.90 461.80 L 260.10 470.60 L 251.70 474.90 L 240.20 479.70 L 234.20 481.70 L 240.50 476.20 L 246.90 471.00 L 260.30 461.30 L 242.40 453.80 L 230.80 448.00 L 225.30 444.60 L 220.00 441.00 L 215.00 436.80 L 210.30 432.30 L 217.10 429.30 L 230.80 424.30 L 262.30 414.90 L 272.70 411.50 L 262.90 407.20 L 253.00 403.30 L 242.90 399.70 L 227.60 394.90 L 212.10 390.50 L 211.50 364.30 L 224.70 364.30 L 237.90 363.90 L 251.10 363.00 L 264.30 361.80 L 277.40 360.10 L 270.70 354.50 L 263.60 349.20 L 234.40 329.50 L 227.30 324.20 L 220.60 318.40 L 226.50 298.00 L 237.90 302.00 L 249.30 305.50 L 261.00 308.50 L 284.50 313.30 L 296.40 315.20 L 288.60 306.10 L 264.30 279.80 L 256.50 270.80 L 249.20 261.40 L 253.30 250.70 L 257.40 246.80 L 261.10 242.60 L 264.50 238.20 L 269.00 231.20 L 281.10 209.00 L 285.40 201.70 L 295.40 187.20 L 301.00 179.90 L 307.00 172.90 L 316.40 162.90 L 352.40 127.30 L 364.60 113.50 Z" fill="#e19350" fill-rule="nonzero" node-id="150" stroke="none" target-height="377.6" target-width="243.7" target-x="210.3" target-y="104.1"></path><path d="M 687.90 139.10 L 692.50 135.00 L 697.30 131.30 L 702.50 127.80 L 707.90 124.70 L 713.50 121.90 L 719.20 119.50 L 725.10 117.50 L 731.10 115.90 L 737.20 114.70 L 743.30 114.00 L 749.40 113.80 L 755.60 114.00 L 761.70 114.70 L 767.70 116.00 L 773.60 117.90 L 783.80 122.50 L 787.90 125.00 L 791.70 127.80 L 795.40 131.00 L 798.70 134.40 L 804.60 142.00 L 807.10 146.20 L 809.90 152.00 L 812.20 158.00 L 813.90 164.20 L 815.30 173.70 L 815.30 183.30 L 814.70 188.10 L 813.80 192.80 L 812.40 197.40 L 810.60 201.90 L 807.00 208.10 L 802.90 213.90 L 798.40 219.40 L 793.40 224.50 L 788.20 229.30 L 782.60 233.80 L 776.80 238.00 L 764.80 245.60 L 759.30 232.40 L 758.70 227.80 L 758.90 225.50 L 762.30 221.00 L 773.40 207.90 L 776.80 203.30 L 779.90 198.60 L 783.10 191.80 L 785.70 183.60 L 786.40 179.00 L 786.70 174.30 L 786.30 169.70 L 785.50 165.10 L 784.20 160.60 L 782.40 156.30 L 780.20 152.30 L 777.50 148.40 L 774.50 144.90 L 771.10 141.80 L 767.40 139.00 L 763.30 136.80 L 759.00 135.10 L 754.40 133.90 L 749.60 133.40 L 745.00 133.40 L 740.50 134.10 L 731.70 136.70 L 721.10 141.70 L 703.00 152.40 L 687.90 139.10 Z" fill="#d87541" fill-rule="nonzero" node-id="152" stroke="none" target-height="131.8" target-width="127.39996" target-x="687.9" target-y="113.8"></path><path d="M 191.60 194.90 L 191.10 189.40 L 191.20 183.90 L 191.80 178.50 L 192.80 173.30 L 194.30 168.10 L 196.20 163.10 L 198.50 158.20 L 201.30 153.50 L 207.70 144.70 L 215.30 136.80 L 223.90 130.00 L 233.40 124.50 L 238.40 122.20 L 243.50 120.30 L 248.70 118.80 L 254.00 117.70 L 259.40 117.00 L 264.80 116.80 L 270.20 117.00 L 281.00 118.70 L 291.30 121.50 L 298.80 124.30 L 306.20 127.70 L 320.30 135.50 L 313.10 145.00 L 305.50 154.20 L 289.30 145.10 L 279.70 141.00 L 271.80 139.00 L 267.70 138.60 L 263.60 138.50 L 255.30 139.70 L 251.40 140.70 L 243.80 144.00 L 239.10 146.80 L 234.80 150.20 L 230.80 154.00 L 225.80 160.60 L 222.30 167.90 L 221.10 171.70 L 220.30 175.70 L 220.00 179.80 L 220.40 188.00 L 220.90 191.80 L 223.00 198.90 L 225.00 203.40 L 227.50 207.70 L 230.40 211.90 L 235.20 217.80 L 240.50 223.40 L 251.10 234.10 L 243.30 249.50 L 237.70 246.50 L 226.90 239.60 L 217.00 231.40 L 212.40 226.90 L 204.10 217.10 L 200.40 211.90 L 197.10 206.40 L 194.20 200.80 L 191.60 194.90 Z" fill="#d27840" fill-rule="nonzero" node-id="154" stroke="none" target-height="132.7" target-width="129.19998" target-x="191.1" target-y="116.8"></path><path d="M 708.60 158.70 L 712.30 155.00 L 716.20 151.80 L 720.40 148.90 L 724.90 146.30 L 729.40 144.20 L 734.20 142.60 L 739.10 141.40 L 744.10 140.70 L 749.10 140.50 L 754.10 140.90 L 759.20 141.80 L 764.20 143.30 L 760.90 147.50 L 758.00 151.90 L 755.50 156.40 L 751.40 165.90 L 747.70 178.30 L 742.80 201.30 L 730.90 187.50 L 708.60 158.70 Z" fill="#c1a3a0" fill-rule="nonzero" node-id="156" stroke="none" target-height="60.800003" target-width="55.600037" target-x="708.6" target-y="140.5"></path><path d="M 251.20 144.10 L 255.70 143.20 L 264.40 142.80 L 268.80 143.10 L 274.50 144.10 L 280.00 145.70 L 285.50 147.70 L 296.10 152.90 L 301.10 156.00 L 281.20 185.40 L 274.30 195.00 L 259.50 213.50 L 268.00 178.60 L 269.80 166.70 L 270.10 158.10 L 269.50 155.90 L 268.60 154.10 L 265.70 151.00 L 260.70 148.20 L 251.20 144.10 Z" fill="#d9a49e" fill-rule="nonzero" node-id="158" stroke="none" target-height="70.7" target-width="49.90001" target-x="251.2" target-y="142.8"></path><path d="M 224.80 184.20 L 224.60 179.70 L 225.00 175.50 L 226.00 171.40 L 227.60 167.60 L 229.50 163.90 L 231.80 160.40 L 237.50 154.10 L 240.70 151.20 L 245.80 147.40 L 251.20 144.10 L 260.70 148.20 L 265.70 151.00 L 268.60 154.10 L 269.50 155.90 L 270.10 158.10 L 269.80 166.70 L 268.00 178.60 L 259.50 213.50 L 254.70 229.80 L 250.70 227.20 L 243.50 221.30 L 240.20 217.90 L 236.30 213.00 L 232.80 207.70 L 229.90 202.10 L 228.10 197.70 L 226.60 193.30 L 224.80 184.20 Z" fill="#eeded7" fill-rule="nonzero" node-id="160" stroke="none" target-height="85.7" target-width="45.5" target-x="224.6" target-y="144.1"></path><path d="M 742.80 201.30 L 747.70 178.30 L 751.40 165.90 L 755.50 156.40 L 758.00 151.90 L 760.90 147.50 L 764.20 143.30 L 770.50 149.20 L 773.40 152.40 L 777.40 158.20 L 779.50 163.30 L 780.30 168.90 L 780.20 172.00 L 780.40 176.90 L 780.10 181.60 L 779.10 186.10 L 777.70 190.40 L 775.80 194.60 L 773.50 198.70 L 769.50 204.50 L 765.10 210.10 L 755.60 220.50 L 742.00 205.10 L 742.80 201.30 Z" fill="#dbcbc8" fill-rule="nonzero" node-id="162" stroke="none" target-height="77.2" target-width="38.400024" target-x="742" target-y="143.3"></path><path d="M 427.00 176.50 L 439.90 170.00 L 453.40 164.90 L 462.60 162.20 L 471.90 159.90 L 481.30 158.00 L 479.30 183.20 L 467.60 184.30 L 444.40 187.30 L 421.30 191.60 L 409.90 194.20 L 427.00 176.50 Z" fill="#361a31" fill-rule="nonzero" node-id="164" stroke="none" target-height="36.199997" target-width="71.399994" target-x="409.9" target-y="158"></path><path d="M 515.50 162.50 L 522.10 162.20 L 528.70 162.30 L 535.50 163.00 L 542.10 164.10 L 548.70 165.70 L 555.10 167.80 L 561.30 170.40 L 567.20 173.50 L 572.70 177.20 L 576.60 180.20 L 580.30 183.60 L 583.70 187.30 L 586.80 191.40 L 570.00 187.10 L 564.40 185.90 L 558.70 185.10 L 547.70 184.90 L 537.10 185.30 L 531.90 185.20 L 528.40 184.80 L 525.10 184.00 L 521.70 182.80 L 520.10 179.60 L 518.80 176.30 L 515.50 162.50 Z" fill="#2a162f" fill-rule="nonzero" node-id="166" stroke="none" target-height="29.199997" target-width="71.29999" target-x="515.5" target-y="162.2"></path><path d="M 582.50 246.50 L 585.80 243.40 L 589.30 240.80 L 593.10 238.60 L 597.10 236.90 L 601.20 235.50 L 605.50 234.50 L 614.30 233.60 L 618.80 233.70 L 623.20 234.10 L 631.90 235.70 L 636.60 237.40 L 641.10 239.50 L 645.30 241.90 L 653.20 247.70 L 662.10 256.30 L 667.00 261.90 L 676.20 273.60 L 681.70 272.60 L 686.90 271.30 L 692.10 269.60 L 699.60 266.50 L 706.90 262.90 L 721.10 254.90 L 718.60 258.80 L 715.90 262.30 L 712.80 265.50 L 709.50 268.40 L 704.80 271.80 L 699.70 274.70 L 694.20 277.10 L 688.60 279.10 L 682.90 280.70 L 676.90 281.80 L 679.20 300.20 L 679.80 309.50 L 679.90 318.70 L 679.60 324.80 L 677.80 336.90 L 676.20 342.80 L 674.10 348.60 L 671.40 354.30 L 662.50 348.00 L 653.20 342.20 L 648.30 339.80 L 643.20 337.80 L 636.40 336.20 L 629.50 335.00 L 601.70 332.60 L 594.70 331.80 L 587.90 330.50 L 594.70 327.30 L 601.00 326.20 L 607.30 325.50 L 613.60 325.20 L 619.90 325.30 L 628.30 326.10 L 636.60 327.40 L 644.80 329.40 L 652.90 331.90 L 660.70 334.90 L 668.40 338.40 L 670.90 324.00 L 671.60 316.70 L 671.80 309.50 L 671.40 304.60 L 670.70 299.80 L 668.20 289.30 L 666.40 283.70 L 663.90 278.30 L 660.90 273.20 L 657.50 268.40 L 653.70 263.80 L 649.40 259.70 L 644.80 255.90 L 639.90 252.70 L 634.70 249.90 L 629.30 247.70 L 623.70 246.00 L 615.00 244.80 L 610.60 244.70 L 606.10 245.10 L 602.00 245.80 L 598.20 247.00 L 594.60 248.70 L 588.10 253.10 L 580.90 260.10 L 576.90 264.60 L 588.60 274.20 L 594.20 279.30 L 599.60 284.70 L 593.00 283.50 L 578.00 269.80 L 571.20 285.40 L 563.30 286.40 L 567.70 272.10 L 571.20 262.70 L 573.40 258.30 L 575.90 254.10 L 579.00 250.20 L 582.50 246.50 Z" fill="#321225" fill-rule="nonzero" node-id="168" stroke="none" target-height="120.69998" target-width="157.79999" target-x="563.3" target-y="233.6"></path><path d="M 323.70 269.40 L 328.00 266.20 L 344.90 251.80 L 349.30 248.60 L 355.60 245.10 L 362.30 242.80 L 366.00 242.20 L 374.40 241.80 L 378.70 242.00 L 382.80 242.70 L 386.70 243.80 L 391.80 245.90 L 396.60 248.60 L 401.20 251.80 L 405.40 255.50 L 409.40 259.60 L 413.10 263.90 L 419.70 273.20 L 422.50 277.90 L 423.70 284.70 L 424.50 291.50 L 425.10 305.20 L 425.30 318.90 L 417.30 326.00 L 414.40 328.10 L 408.20 331.40 L 404.90 332.40 L 401.40 332.90 L 385.20 333.10 L 372.70 333.90 L 364.50 334.90 L 356.30 336.20 L 348.30 338.00 L 340.30 340.20 L 332.50 343.00 L 324.80 346.30 L 322.90 339.00 L 321.40 331.70 L 320.50 324.30 L 320.00 316.90 L 320.10 302.00 L 321.70 287.20 L 323.00 279.90 L 318.00 278.80 L 313.30 277.20 L 308.80 275.30 L 304.60 272.90 L 300.60 270.10 L 296.90 266.90 L 293.40 263.30 L 290.30 259.30 L 312.30 267.20 L 317.90 268.60 L 323.70 269.40 Z M 339.30 272.20 L 337.00 275.60 L 333.30 282.50 L 330.80 291.20 L 329.90 296.30 L 329.50 301.50 L 329.40 309.50 L 329.90 317.40 L 331.60 333.10 L 341.50 330.40 L 351.50 328.20 L 361.60 326.60 L 369.20 325.80 L 376.80 325.50 L 384.50 325.50 L 392.20 326.10 L 388.60 317.10 L 387.40 312.40 L 386.70 307.70 L 387.00 301.30 L 388.70 295.00 L 389.90 292.30 L 391.50 289.80 L 394.30 286.30 L 397.60 283.20 L 401.10 280.40 L 412.50 272.90 L 410.50 269.50 L 405.80 263.80 L 403.10 261.50 L 399.20 258.70 L 395.10 256.50 L 390.70 254.90 L 386.10 253.70 L 381.40 253.00 L 376.50 252.90 L 371.70 253.20 L 367.00 254.00 L 362.30 255.30 L 357.80 257.00 L 353.50 259.20 L 349.40 261.80 L 345.70 264.80 L 342.30 268.30 L 339.30 272.20 Z M 399.50 283.20 L 399.20 294.80 L 408.60 290.60 L 417.80 286.00 L 414.10 283.10 L 410.20 281.80 L 406.00 281.70 L 399.50 283.20 Z" fill="#3b1929" fill-rule="nonzero" node-id="170" stroke="none" target-height="104.499985" target-width="135" target-x="290.3" target-y="241.8"></path><path d="M 576.90 264.60 L 585.10 255.80 L 588.10 253.10 L 594.60 248.70 L 598.20 247.00 L 602.00 245.80 L 606.10 245.10 L 610.60 244.70 L 619.40 245.20 L 623.70 246.00 L 629.30 247.70 L 634.70 249.90 L 639.90 252.70 L 644.80 255.90 L 649.40 259.70 L 653.70 263.80 L 657.50 268.40 L 660.90 273.20 L 663.90 278.30 L 666.40 283.70 L 668.20 289.30 L 670.70 299.80 L 671.40 304.60 L 671.80 309.50 L 671.60 316.70 L 670.90 324.00 L 668.40 338.40 L 660.70 334.90 L 652.90 331.90 L 644.80 329.40 L 636.60 327.40 L 628.30 326.10 L 619.90 325.30 L 613.60 325.20 L 607.30 325.50 L 601.00 326.20 L 594.70 327.30 L 596.80 322.80 L 598.40 318.30 L 599.50 313.60 L 600.30 308.80 L 600.70 299.20 L 600.40 291.90 L 599.60 284.70 L 594.20 279.30 L 588.60 274.20 L 576.90 264.60 Z" fill="#f8e9e6" fill-rule="nonzero" node-id="172" stroke="none" target-height="93.7" target-width="94.89996" target-x="576.9" target-y="244.7"></path><path d="M 339.30 272.20 L 342.30 268.30 L 345.70 264.80 L 349.40 261.80 L 353.50 259.20 L 357.80 257.00 L 362.30 255.30 L 367.00 254.00 L 371.70 253.20 L 376.50 252.90 L 381.40 253.00 L 386.10 253.70 L 390.70 254.90 L 395.10 256.50 L 399.20 258.70 L 403.10 261.50 L 405.80 263.80 L 410.50 269.50 L 412.50 272.90 L 401.10 280.40 L 397.60 283.20 L 394.30 286.30 L 391.50 289.80 L 389.90 292.30 L 388.70 295.00 L 387.00 301.30 L 386.70 307.70 L 387.40 312.40 L 388.60 317.10 L 392.20 326.10 L 384.50 325.50 L 376.80 325.50 L 369.20 325.80 L 361.60 326.60 L 351.50 328.20 L 341.50 330.40 L 331.60 333.10 L 329.90 317.40 L 329.40 309.50 L 329.50 301.50 L 329.90 296.30 L 330.80 291.20 L 333.30 282.50 L 337.00 275.60 L 339.30 272.20 Z" fill="#f4ecec" fill-rule="nonzero" node-id="174" stroke="none" target-height="80.20001" target-width="83.100006" target-x="329.4" target-y="252.9"></path><path d="M 563.30 286.40 L 571.20 285.40 L 593.00 283.50 L 599.60 284.70 L 600.40 291.90 L 600.70 299.20 L 600.70 304.00 L 599.50 313.60 L 598.40 318.30 L 596.80 322.80 L 594.70 327.30 L 587.90 330.50 L 584.50 330.40 L 581.60 329.80 L 579.00 329.00 L 576.80 327.80 L 574.00 325.60 L 571.70 323.10 L 569.70 320.00 L 568.10 316.70 L 565.70 309.20 L 564.60 303.30 L 563.90 297.30 L 563.30 286.40 Z" fill="#301a36" fill-rule="nonzero" node-id="176" stroke="none" target-height="47" target-width="37.400024" target-x="563.3" target-y="283.5"></path><path d="M 711.40 315.30 L 719.20 313.70 L 726.80 311.70 L 749.40 304.40 L 762.10 300.90 L 774.70 299.10 L 776.80 299.20 L 778.80 299.90 L 780.70 300.90 L 782.20 302.20 L 783.40 303.80 L 784.20 305.70 L 784.50 307.70 L 784.30 310.00 L 782.80 313.20 L 780.90 316.10 L 778.70 318.80 L 774.90 322.40 L 762.30 331.90 L 761.80 322.10 L 742.10 324.00 L 735.50 324.00 L 731.20 323.70 L 727.00 323.00 L 722.90 321.80 L 718.90 320.20 L 715.10 318.10 L 711.40 315.30 Z" fill="#cf6b3e" fill-rule="nonzero" node-id="178" stroke="none" target-height="32.799988" target-width="73.099976" target-x="711.4" target-y="299.1"></path><path d="M 844.20 316.60 L 852.70 314.10 L 861.10 311.00 L 869.30 307.40 L 877.40 303.50 L 893.20 295.10 L 893.50 297.90 L 893.30 300.50 L 892.80 302.80 L 891.80 305.00 L 890.50 306.90 L 888.90 308.60 L 886.80 310.10 L 871.00 317.80 L 857.20 323.00 L 850.10 325.00 L 842.90 326.60 L 835.60 327.80 L 828.30 328.50 L 820.90 328.70 L 822.00 326.50 L 823.40 324.70 L 825.00 323.30 L 827.80 321.60 L 831.00 320.40 L 844.20 316.60 Z" fill="#3a1d26" fill-rule="nonzero" node-id="180" stroke="none" target-height="33.600006" target-width="72.599976" target-x="820.9" target-y="295.1"></path><path d="M 113.30 323.40 L 120.60 326.00 L 146.80 337.00 L 160.40 340.90 L 168.40 342.80 L 174.70 344.90 L 179.00 347.50 L 180.80 349.20 L 182.30 351.30 L 183.60 354.00 L 159.80 350.60 L 146.30 347.80 L 136.20 344.40 L 131.40 342.20 L 127.00 339.50 L 122.90 336.30 L 120.10 333.70 L 117.60 330.70 L 115.40 327.30 L 113.30 323.40 Z" fill="#3c1f29" fill-rule="nonzero" node-id="182" stroke="none" target-height="30.600006" target-width="70.3" target-x="113.3" target-y="323.4"></path><path d="M 454.00 344.80 L 462.00 344.50 L 494.80 342.20 L 508.30 342.50 L 518.80 344.10 L 524.00 345.50 L 529.10 347.30 L 534.20 349.70 L 506.30 351.50 L 450.40 353.50 L 454.00 344.80 Z" fill="#b36e4a" fill-rule="nonzero" node-id="184" stroke="none" target-height="11.299988" target-width="83.80002" target-x="450.4" target-y="342.2"></path><path d="M 830.00 348.50 L 862.20 348.80 L 872.90 350.00 L 878.10 351.00 L 883.90 357.80 L 866.30 358.00 L 831.00 356.40 L 830.00 348.50 Z" fill="#3e212d" fill-rule="nonzero" node-id="186" stroke="none" target-height="9.5" target-width="53.900024" target-x="830" target-y="348.5"></path><path d="M 450.40 353.50 L 506.30 351.50 L 534.20 349.70 L 547.60 355.90 L 560.90 362.50 L 553.80 374.20 L 543.10 367.00 L 534.90 365.00 L 526.80 363.50 L 518.60 362.50 L 506.20 361.80 L 456.20 361.90 L 443.80 361.20 L 433.80 360.10 L 450.40 353.50 Z" fill="#dbcec1" fill-rule="nonzero" node-id="188" stroke="none" target-height="24.5" target-width="127.10004" target-x="433.8" target-y="349.7"></path><path d="M 560.90 362.50 L 564.80 359.90 L 569.00 357.90 L 574.20 358.60 L 579.30 359.70 L 584.30 361.20 L 589.20 363.10 L 593.90 365.40 L 598.40 368.10 L 602.60 371.10 L 606.50 374.50 L 610.10 378.20 L 613.40 382.20 L 616.20 386.60 L 618.70 391.40 L 612.30 392.60 L 586.60 396.30 L 580.20 397.50 L 590.50 397.90 L 600.80 397.90 L 611.10 397.50 L 621.40 396.70 L 626.40 414.40 L 606.30 417.90 L 586.50 422.40 L 599.80 435.10 L 589.00 449.10 L 584.90 453.30 L 581.90 455.70 L 578.60 457.80 L 575.00 459.50 L 569.50 461.50 L 563.90 463.00 L 558.10 463.90 L 552.20 464.20 L 546.30 464.00 L 540.50 463.20 L 534.70 461.90 L 529.20 460.00 L 524.00 457.50 L 520.20 455.20 L 516.70 452.60 L 513.40 449.70 L 510.40 446.50 L 508.00 443.20 L 506.20 439.70 L 504.80 436.10 L 503.50 430.30 L 502.70 424.40 L 501.90 412.60 L 524.10 401.70 L 531.30 397.60 L 535.80 394.60 L 540.10 391.20 L 544.10 387.60 L 547.70 383.60 L 550.90 379.20 L 560.90 362.50 Z" fill="#f1e9ea" fill-rule="nonzero" node-id="190" stroke="none" target-height="106.30002" target-width="124.50003" target-x="501.9" target-y="357.9"></path><path d="M 739.90 358.30 L 758.80 358.20 L 777.70 358.80 L 787.20 359.50 L 796.60 360.60 L 798.70 387.70 L 782.50 390.20 L 766.40 393.20 L 764.30 381.70 L 763.00 376.10 L 761.30 370.60 L 756.20 367.00 L 750.90 363.80 L 739.90 358.30 Z" fill="#c35a38" fill-rule="nonzero" node-id="192" stroke="none" target-height="35" target-width="58.799988" target-x="739.9" target-y="358.2"></path><path d="M 438.70 367.30 L 443.80 361.20 L 456.20 361.90 L 468.70 362.10 L 506.20 361.80 L 518.60 362.50 L 526.80 363.50 L 534.90 365.00 L 543.10 367.00 L 530.30 371.20 L 517.40 373.80 L 508.70 374.80 L 499.90 375.20 L 491.10 375.10 L 473.50 373.70 L 451.50 370.00 L 438.70 367.30 Z" fill="#8e4263" fill-rule="nonzero" node-id="194" stroke="none" target-height="14" target-width="104.39996" target-x="438.7" target-y="361.2"></path><path d="M 434.90 371.80 L 438.70 367.30 L 451.50 370.00 L 473.50 373.70 L 491.10 375.10 L 499.90 375.20 L 508.70 374.80 L 517.40 373.80 L 523.90 372.70 L 536.70 369.30 L 543.10 367.00 L 553.80 374.20 L 550.90 379.20 L 547.70 383.60 L 544.10 387.60 L 540.10 391.20 L 535.80 394.60 L 531.30 397.60 L 524.10 401.70 L 501.90 412.60 L 502.70 424.40 L 503.50 430.30 L 504.80 436.10 L 506.20 439.70 L 508.00 443.20 L 510.40 446.50 L 513.40 449.70 L 516.70 452.60 L 520.20 455.20 L 524.00 457.50 L 529.20 460.00 L 534.70 461.90 L 540.50 463.20 L 546.30 464.00 L 552.20 464.20 L 558.10 463.90 L 563.90 463.00 L 569.50 461.50 L 575.00 459.50 L 578.60 457.80 L 581.90 455.70 L 584.90 453.30 L 589.00 449.10 L 599.80 435.10 L 606.80 433.20 L 601.60 442.80 L 598.70 447.50 L 595.50 451.80 L 590.40 456.90 L 583.70 461.50 L 579.80 463.50 L 575.80 465.10 L 567.40 467.40 L 556.50 468.60 L 549.80 468.70 L 536.70 468.00 L 532.10 467.10 L 527.60 465.80 L 523.30 464.00 L 517.20 460.60 L 511.30 456.70 L 500.00 448.40 L 487.40 458.50 L 478.20 464.40 L 473.50 466.80 L 468.50 468.70 L 463.30 470.00 L 452.70 471.10 L 442.10 470.90 L 431.50 469.20 L 426.30 467.80 L 421.20 466.00 L 416.30 463.90 L 411.80 461.30 L 407.50 458.30 L 403.70 454.90 L 400.20 451.10 L 398.00 448.00 L 396.10 444.60 L 394.40 440.90 L 393.10 436.80 L 407.20 450.00 L 412.20 454.10 L 415.60 456.60 L 422.90 460.80 L 426.80 462.40 L 430.90 463.50 L 439.80 465.20 L 449.30 465.90 L 458.90 465.10 L 468.60 462.80 L 473.10 461.10 L 477.40 459.00 L 481.60 456.50 L 485.30 453.70 L 488.60 450.60 L 491.60 447.10 L 493.90 443.30 L 495.80 439.10 L 496.80 435.80 L 497.40 432.30 L 497.50 421.60 L 497.30 419.20 L 496.60 417.10 L 494.20 413.40 L 489.70 409.80 L 486.50 408.10 L 467.60 399.70 L 462.10 396.80 L 456.90 393.50 L 451.90 389.90 L 447.20 385.80 L 442.80 381.50 L 438.70 376.80 L 434.90 371.80 Z" fill="#3a162a" fill-rule="nonzero" node-id="196" stroke="none" target-height="104.100006" target-width="213.69998" target-x="393.1" target-y="367"></path><path d="M 119.00 382.00 L 137.40 375.80 L 150.00 372.70 L 156.40 371.70 L 162.80 371.10 L 169.20 370.90 L 175.80 371.40 L 164.00 377.90 L 151.50 383.30 L 138.60 387.40 L 131.90 388.90 L 125.30 390.00 L 118.60 390.70 L 119.00 382.00 Z" fill="#3f1a30" fill-rule="nonzero" node-id="198" stroke="none" target-height="19.800018" target-width="57.200005" target-x="118.6" target-y="370.9"></path><path d="M 297.10 387.90 L 349.80 389.70 L 367.30 389.50 L 376.00 389.00 L 373.90 398.50 L 388.50 398.60 L 395.70 399.10 L 407.70 401.00 L 417.00 403.80 L 401.60 405.00 L 386.10 404.80 L 370.70 403.20 L 358.50 400.70 L 346.30 398.90 L 333.90 397.60 L 309.20 396.30 L 296.80 396.10 L 297.10 387.90 Z" fill="#5e293b" fill-rule="nonzero" node-id="200" stroke="none" target-height="17.100006" target-width="120.20001" target-x="296.8" target-y="387.9"></path><path d="M 829.10 395.30 L 879.80 399.10 L 880.80 410.40 L 856.50 407.10 L 843.20 404.40 L 833.00 400.90 L 829.10 395.30 Z" fill="#43232e" fill-rule="nonzero" node-id="202" stroke="none" target-height="15.100006" target-width="51.700012" target-x="829.1" target-y="395.3"></path><path d="M 586.50 422.40 L 606.30 417.90 L 626.40 414.40 L 631.60 429.80 L 613.00 432.20 L 606.80 433.20 L 599.80 435.10 L 586.50 422.40 Z" fill="#b19ba2" fill-rule="nonzero" node-id="204" stroke="none" target-height="20.700012" target-width="45.099976" target-x="586.5" target-y="414.4"></path><path d="M 613.00 432.20 L 631.60 429.80 L 663.60 438.00 L 679.50 442.50 L 705.60 451.10 L 715.90 455.00 L 730.40 461.10 L 734.70 462.30 L 739.00 462.90 L 747.90 462.60 L 759.00 460.30 L 773.10 456.10 L 796.00 448.10 L 798.90 450.30 L 795.30 458.00 L 791.30 465.30 L 786.90 472.20 L 782.00 478.80 L 776.70 485.20 L 771.10 491.20 L 765.20 496.90 L 759.00 502.30 L 745.70 512.10 L 731.50 520.70 L 721.60 525.80 L 711.60 530.30 L 701.30 534.30 L 694.30 529.70 L 709.00 523.50 L 717.50 519.20 L 725.80 514.60 L 733.80 509.50 L 741.60 504.10 L 749.20 498.20 L 756.40 492.10 L 763.30 485.50 L 754.50 480.80 L 745.60 476.50 L 727.30 468.60 L 715.20 462.90 L 702.80 457.80 L 690.30 453.20 L 664.90 445.20 L 652.00 441.60 L 613.00 432.20 Z" fill="#431c27" fill-rule="nonzero" node-id="206" stroke="none" target-height="104.5" target-width="185.90002" target-x="613" target-y="429.8"></path><path d="M 776.00 431.90 L 786.20 439.70 L 796.00 448.10 L 765.40 458.50 L 768.60 452.10 L 771.50 445.50 L 773.90 438.80 L 776.00 431.90 Z" fill="#bb6539" fill-rule="nonzero" node-id="208" stroke="none" target-height="26.600006" target-width="30.599976" target-x="765.4" target-y="431.9"></path><path d="M 175.40 467.10 L 185.20 466.90 L 177.60 486.80 L 192.80 492.70 L 193.10 513.70 L 205.40 508.50 L 217.50 502.60 L 216.00 516.30 L 210.50 516.90 L 199.50 516.80 L 194.10 516.20 L 188.70 515.10 L 183.30 513.70 L 186.10 494.70 L 166.30 496.00 L 166.40 489.10 L 167.00 485.70 L 168.40 480.80 L 170.30 476.10 L 175.40 467.10 Z" fill="#513d42" fill-rule="nonzero" node-id="210" stroke="none" target-height="50.00003" target-width="51.199997" target-x="166.3" target-y="466.9"></path><path d="M 243.00 490.70 L 260.30 479.70 L 278.10 469.40 L 294.10 480.80 L 310.40 491.60 L 288.90 522.30 L 280.60 517.90 L 272.60 513.20 L 264.70 508.20 L 257.20 502.80 L 249.90 497.00 L 243.00 490.70 Z" fill="#d69681" fill-rule="nonzero" node-id="212" stroke="none" target-height="52.899994" target-width="67.399994" target-x="243" target-y="469.4"></path><path d="M 727.30 468.60 L 745.60 476.50 L 754.50 480.80 L 763.30 485.50 L 756.40 492.10 L 749.20 498.20 L 741.60 504.10 L 733.80 509.50 L 725.80 514.60 L 717.50 519.20 L 709.00 523.50 L 700.20 527.40 L 677.70 500.40 L 688.40 494.20 L 699.50 489.80 L 705.80 486.60 L 711.80 483.00 L 716.10 479.90 L 720.10 476.40 L 723.80 472.70 L 727.30 468.60 Z" fill="#c08d87" fill-rule="nonzero" node-id="214" stroke="none" target-height="58.80002" target-width="85.599976" target-x="677.7" target-y="468.6"></path><path d="M 293.20 523.90 L 304.50 507.80 L 313.00 497.80 L 317.50 493.10 L 327.60 498.70 L 338.00 503.90 L 345.00 506.90 L 352.30 509.50 L 359.70 511.70 L 375.80 515.70 L 392.00 519.00 L 408.30 521.80 L 424.70 524.00 L 441.10 525.70 L 457.60 527.00 L 490.70 528.20 L 507.30 528.30 L 532.10 527.80 L 556.90 526.80 L 570.70 525.80 L 584.40 524.20 L 598.00 522.10 L 611.50 519.40 L 624.90 516.30 L 651.50 509.00 L 677.70 500.40 L 700.20 527.40 L 683.70 533.20 L 673.00 536.40 L 662.30 539.10 L 646.00 542.60 L 580.30 554.00 L 564.00 557.30 L 576.80 557.20 L 589.50 556.70 L 590.50 565.40 L 591.10 574.20 L 590.60 586.00 L 589.80 591.80 L 590.70 574.50 L 560.30 573.80 L 514.70 573.90 L 499.50 573.60 L 487.90 573.20 L 441.40 570.20 L 429.70 569.90 L 418.10 570.10 L 406.40 570.90 L 410.50 552.80 L 426.90 553.40 L 443.20 553.60 L 459.60 553.30 L 438.70 550.20 L 375.80 541.90 L 347.90 537.50 L 334.10 534.80 L 320.40 531.70 L 306.70 528.00 L 293.20 523.90 Z" fill="#caa399" fill-rule="nonzero" node-id="216" stroke="none" target-height="98.69998" target-width="407" target-x="293.2" target-y="493.1"></path><path d="M 206.80 553.90 L 210.20 546.40 L 212.40 542.70 L 214.80 539.20 L 220.50 533.00 L 223.70 530.30 L 227.20 528.00 L 230.80 526.10 L 234.70 524.70 L 238.80 523.80 L 243.10 523.50 L 240.40 528.00 L 237.20 532.20 L 226.70 544.10 L 223.60 548.40 L 221.80 551.40 L 220.40 554.60 L 219.30 558.20 L 206.80 553.90 Z" fill="#513038" fill-rule="nonzero" node-id="218" stroke="none" target-height="34.700012" target-width="36.300003" target-x="206.8" target-y="523.5"></path><path d="M 641.50 549.20 L 666.90 543.80 L 692.30 538.80 L 693.20 547.00 L 693.70 555.20 L 693.70 563.40 L 693.30 571.70 L 691.20 547.60 L 669.00 555.40 L 655.30 552.00 L 641.50 549.20 Z" fill="#9e3f2d" fill-rule="nonzero" node-id="220" stroke="none" target-height="32.900024" target-width="52.200012" target-x="641.5" target-y="538.8"></path><path d="M 366.80 546.60 L 388.60 550.30 L 399.50 551.80 L 410.50 552.80 L 406.40 570.90 L 404.40 583.00 L 402.80 595.30 L 402.10 603.50 L 401.70 620.00 L 400.00 611.00 L 397.90 602.00 L 395.30 593.10 L 390.40 580.20 L 384.10 568.00 L 380.50 562.30 L 376.30 556.80 L 371.80 551.60 L 366.80 546.60 Z" fill="#d67946" fill-rule="nonzero" node-id="222" stroke="none" target-height="73.400024" target-width="43.700012" target-x="366.8" target-y="546.6"></path><path d="M 669.00 555.40 L 691.20 547.60 L 693.30 571.70 L 679.40 578.80 L 665.20 585.40 L 650.80 591.50 L 636.10 596.90 L 639.00 587.80 L 639.80 581.60 L 639.70 578.60 L 639.10 575.70 L 637.90 572.80 L 636.10 569.90 L 669.00 555.40 Z" fill="#e77e41" fill-rule="nonzero" node-id="224" stroke="none" target-height="49.30005" target-width="57.200012" target-x="636.1" target-y="547.6"></path><path d="M 602.40 555.20 L 641.50 549.20 L 655.30 552.00 L 669.00 555.40 L 636.10 569.90 L 603.70 582.00 L 603.30 568.60 L 602.40 555.20 Z" fill="#d66035" fill-rule="nonzero" node-id="226" stroke="none" target-height="32.799988" target-width="66.599976" target-x="602.4" target-y="549.2"></path><path d="M 589.50 556.70 L 602.40 555.20 L 603.30 568.60 L 603.70 582.00 L 593.20 620.30 L 584.90 626.00 L 590.60 586.00 L 591.00 580.10 L 591.10 574.20 L 590.50 565.40 L 589.50 556.70 Z" fill="#9d7269" fill-rule="nonzero" node-id="228" stroke="none" target-height="70.79999" target-width="18.799988" target-x="584.9" target-y="555.2"></path><path d="M 308.40 563.60 L 316.80 563.70 L 325.10 564.40 L 333.30 565.70 L 341.40 567.70 L 349.40 570.20 L 357.10 573.20 L 364.60 576.80 L 371.80 581.00 L 375.00 583.30 L 377.80 585.90 L 380.20 588.70 L 383.30 593.40 L 386.00 598.40 L 388.20 603.70 L 393.60 620.00 L 378.90 613.20 L 357.00 602.30 L 349.60 599.00 L 342.20 596.10 L 334.80 593.80 L 327.10 591.90 L 304.10 586.90 L 308.40 563.60 Z" fill="#e38e4c" fill-rule="nonzero" node-id="230" stroke="none" target-height="56.400024" target-width="89.5" target-x="304.1" target-y="563.6"></path><path d="M 603.70 582.00 L 636.10 569.90 L 637.90 572.80 L 639.10 575.70 L 639.70 578.60 L 639.60 584.70 L 639.00 587.80 L 636.10 596.90 L 628.40 599.90 L 621.00 603.30 L 613.80 607.10 L 606.80 611.20 L 593.20 620.30 L 603.70 582.00 Z" fill="#efb16c" fill-rule="nonzero" node-id="232" stroke="none" target-height="50.399963" target-width="46.5" target-x="593.2" target-y="569.9"></path><path d="M 829.90 598.30 L 840.40 593.40 L 845.90 591.40 L 851.50 589.80 L 857.20 588.70 L 862.90 588.10 L 871.60 588.30 L 880.20 590.20 L 883.60 592.40 L 886.60 595.10 L 889.30 598.20 L 891.60 601.70 L 893.40 605.30 L 894.80 609.30 L 895.70 613.30 L 896.20 617.40 L 896.20 621.50 L 895.70 625.60 L 894.60 629.40 L 893.00 633.00 L 891.40 635.60 L 889.50 637.90 L 884.60 642.00 L 876.60 644.50 L 853.80 647.80 L 847.60 649.20 L 843.20 632.90 L 840.50 624.80 L 836.00 612.90 L 829.90 598.30 Z" fill="#351628" fill-rule="nonzero" node-id="234" stroke="none" target-height="61.100037" target-width="66.29999" target-x="829.9" target-y="588.1"></path><path d="M 831.00 601.30 L 836.00 612.90 L 840.50 624.80 L 845.60 641.00 L 848.60 653.50 L 842.50 650.80 L 838.30 648.60 L 830.50 643.40 L 819.90 634.10 L 810.00 624.10 L 831.00 601.30 Z" fill="#d9773e" fill-rule="nonzero" node-id="236" stroke="none" target-height="52.200012" target-width="38.599976" target-x="810" target-y="601.3"></path><path d="M 705.10 607.30 L 714.00 611.80 L 722.40 617.10 L 722.20 619.80 L 721.50 621.90 L 720.30 623.80 L 716.80 626.90 L 700.90 634.50 L 705.10 607.30 Z" fill="#d3623d" fill-rule="nonzero" node-id="238" stroke="none" target-height="27.200012" target-width="21.5" target-x="700.9" target-y="607.3"></path><path d="M 297.80 635.90 L 300.60 632.50 L 303.50 629.60 L 306.60 627.40 L 310.00 625.50 L 313.60 624.00 L 317.30 622.90 L 323.10 621.80 L 329.10 621.20 L 335.30 621.10 L 368.80 622.00 L 379.10 623.10 L 384.00 624.40 L 387.20 625.50 L 393.30 628.80 L 397.00 634.10 L 400.30 639.60 L 409.60 656.70 L 416.60 666.90 L 420.40 671.40 L 424.50 675.50 L 431.00 681.30 L 451.30 698.20 L 459.60 706.50 L 463.40 711.00 L 447.10 714.60 L 428.10 710.20 L 414.40 734.70 L 411.60 732.00 L 408.70 729.80 L 405.60 727.90 L 402.30 726.40 L 398.90 725.40 L 395.40 724.80 L 391.90 724.70 L 388.20 725.10 L 384.40 726.00 L 378.00 727.00 L 379.40 746.10 L 381.30 765.30 L 376.90 764.50 L 372.60 763.20 L 368.60 761.60 L 364.70 759.50 L 361.00 757.20 L 357.70 754.40 L 354.60 751.30 L 342.50 735.70 L 333.70 723.30 L 328.10 714.90 L 317.50 697.60 L 312.70 688.70 L 304.00 670.50 L 323.00 668.20 L 332.50 666.70 L 341.90 664.80 L 323.40 656.70 L 313.70 651.40 L 306.60 646.10 L 303.40 643.10 L 300.50 639.70 L 297.80 635.90 Z" fill="#e7934f" fill-rule="nonzero" node-id="240" stroke="none" target-height="144.20001" target-width="165.6" target-x="297.8" target-y="621.1"></path><path d="M 595.60 630.30 L 600.30 626.20 L 602.90 624.70 L 607.10 622.90 L 611.50 621.60 L 620.80 620.20 L 629.90 619.50 L 645.30 619.10 L 691.60 619.40 L 688.00 633.80 L 686.40 638.40 L 683.40 644.20 L 681.30 646.80 L 676.80 650.40 L 672.00 653.40 L 646.30 666.30 L 638.50 671.50 L 632.90 676.90 L 641.40 678.10 L 649.90 678.80 L 667.10 679.30 L 659.00 689.50 L 654.80 694.50 L 650.20 699.20 L 646.90 701.90 L 643.30 704.30 L 639.40 706.30 L 618.20 714.90 L 607.90 719.90 L 636.40 721.50 L 634.40 732.70 L 631.50 744.20 L 629.50 749.70 L 627.00 754.80 L 625.00 758.00 L 622.70 760.90 L 620.10 763.60 L 617.10 765.80 L 613.70 767.80 L 609.80 769.40 L 608.20 760.10 L 606.00 751.00 L 602.00 739.20 L 599.50 733.50 L 599.60 738.10 L 600.80 752.40 L 600.90 757.10 L 600.30 761.70 L 599.60 764.70 L 598.40 767.50 L 596.70 770.30 L 593.30 771.50 L 589.90 772.10 L 575.70 772.80 L 579.80 746.40 L 569.80 734.70 L 562.20 727.70 L 558.00 724.80 L 553.50 722.30 L 549.40 720.80 L 545.70 718.90 L 542.30 716.70 L 539.20 714.10 L 536.50 711.20 L 534.10 708.00 L 532.30 704.50 L 531.00 700.60 L 529.60 694.70 L 536.30 690.70 L 542.70 686.30 L 548.70 681.50 L 559.90 671.00 L 572.90 656.70 L 595.60 630.30 Z" fill="#e5914d" fill-rule="nonzero" node-id="242" stroke="none" target-height="153.70001" target-width="162" target-x="529.6" target-y="619.1"></path><path d="M 706.80 647.50 L 709.50 645.50 L 712.20 644.00 L 715.00 643.00 L 720.90 642.20 L 724.00 642.40 L 728.50 643.30 L 733.10 644.60 L 741.70 648.10 L 734.60 653.00 L 727.20 657.30 L 704.50 669.50 L 697.30 674.00 L 692.70 677.40 L 688.40 681.10 L 684.40 685.30 L 691.90 684.30 L 699.50 682.80 L 721.90 677.10 L 734.40 674.60 L 744.50 673.70 L 749.50 673.80 L 754.60 674.30 L 759.80 675.40 L 723.40 698.30 L 711.80 706.60 L 704.30 712.40 L 697.20 718.80 L 690.30 725.50 L 696.20 724.90 L 707.70 722.70 L 733.10 715.60 L 741.60 713.60 L 747.30 712.60 L 753.10 711.90 L 759.00 711.70 L 760.00 719.20 L 760.00 723.00 L 759.30 726.70 L 758.50 729.10 L 757.30 731.30 L 751.40 738.40 L 741.90 747.50 L 734.20 753.70 L 710.10 771.30 L 702.30 777.40 L 694.90 783.90 L 705.50 781.50 L 716.00 778.50 L 736.70 771.50 L 757.20 763.80 L 750.20 782.30 L 747.90 786.70 L 745.20 790.70 L 743.00 793.00 L 740.50 795.10 L 737.60 796.90 L 731.50 799.90 L 712.70 808.10 L 700.50 814.00 L 692.90 818.90 L 689.30 821.80 L 697.10 821.10 L 712.60 819.00 L 735.60 814.40 L 721.90 845.70 L 694.60 848.50 L 685.50 849.70 L 667.70 853.40 L 673.50 822.70 L 676.40 801.80 L 678.00 780.80 L 678.20 770.40 L 677.90 760.00 L 677.00 749.60 L 675.60 739.40 L 673.50 729.20 L 671.50 721.70 L 669.00 714.30 L 666.10 707.00 L 662.70 699.70 L 683.50 672.50 L 690.80 663.70 L 695.90 658.10 L 706.80 647.50 Z" fill="#d8683d" fill-rule="nonzero" node-id="244" stroke="none" target-height="211.20001" target-width="97.29999" target-x="662.7" target-y="642.2"></path><path d="M 797.30 652.80 L 806.70 656.60 L 815.90 660.90 L 824.90 665.60 L 823.30 682.50 L 813.40 685.10 L 793.40 689.40 L 794.70 671.00 L 797.30 652.80 Z" fill="#c36a36" fill-rule="nonzero" node-id="246" stroke="none" target-height="36.600037" target-width="31.5" target-x="793.4" target-y="652.8"></path><path d="M 254.30 684.60 L 269.40 683.80 L 279.60 684.40 L 284.50 685.20 L 289.30 686.50 L 294.00 688.30 L 298.40 690.80 L 302.60 694.70 L 306.40 699.00 L 309.80 703.60 L 319.40 717.90 L 313.10 763.80 L 311.80 775.30 L 311.00 786.80 L 311.00 802.20 L 311.50 809.80 L 312.50 817.40 L 314.00 825.00 L 315.90 832.70 L 323.20 853.40 L 311.20 851.20 L 291.20 846.80 L 275.60 842.20 L 268.00 839.30 L 260.60 835.90 L 253.50 832.10 L 248.50 828.80 L 243.60 825.20 L 238.90 821.30 L 234.30 816.90 L 251.00 821.50 L 259.50 823.50 L 273.70 825.80 L 285.20 826.40 L 278.90 822.60 L 272.30 819.30 L 245.10 807.80 L 238.50 804.60 L 232.20 800.80 L 228.20 798.00 L 224.50 794.80 L 220.90 791.20 L 258.40 790.30 L 277.20 789.30 L 271.10 786.30 L 264.60 783.80 L 244.50 777.40 L 233.80 773.20 L 226.00 768.70 L 222.50 766.00 L 219.30 762.70 L 216.40 759.00 L 216.90 756.70 L 217.70 755.00 L 218.70 753.70 L 221.60 751.70 L 226.20 750.50 L 234.90 749.40 L 240.00 749.00 L 250.10 749.30 L 257.70 750.10 L 280.40 753.80 L 256.00 734.70 L 248.10 728.20 L 238.10 718.90 L 233.30 713.90 L 238.80 702.40 L 264.10 710.50 L 272.70 712.80 L 290.00 716.50 L 266.00 695.40 L 254.30 684.60 Z" fill="#e18c4b" fill-rule="nonzero" node-id="248" stroke="none" target-height="169.60004" target-width="106.80002" target-x="216.4" target-y="683.8"></path><path d="M 530.10 696.20 L 531.00 700.60 L 532.30 704.50 L 534.10 708.00 L 536.50 711.20 L 539.20 714.10 L 542.30 716.70 L 545.70 718.90 L 549.40 720.80 L 553.50 722.30 L 548.70 733.90 L 547.70 727.50 L 538.30 738.50 L 528.40 749.20 L 520.70 738.50 L 518.40 734.70 L 516.50 730.80 L 515.20 726.70 L 514.60 724.00 L 514.50 721.10 L 514.80 718.00 L 515.50 715.00 L 516.60 712.20 L 518.00 709.60 L 520.60 706.00 L 530.10 696.20 Z" fill="#e09f6f" fill-rule="nonzero" node-id="250" stroke="none" target-height="53" target-width="39" target-x="514.5" target-y="696.2"></path><path d="M 641.50 742.20 L 642.80 736.20 L 644.50 730.50 L 646.70 724.90 L 649.20 719.50 L 653.20 712.60 L 657.70 706.00 L 662.70 699.70 L 666.10 707.00 L 669.00 714.30 L 671.50 721.70 L 673.50 729.20 L 675.60 739.40 L 677.00 749.60 L 677.90 760.00 L 678.20 770.40 L 678.00 780.80 L 676.40 801.80 L 673.50 822.70 L 667.70 853.40 L 650.80 858.60 L 633.80 863.10 L 616.60 867.10 L 599.30 870.50 L 581.90 873.50 L 564.50 876.10 L 529.40 880.20 L 511.90 881.80 L 479.90 882.20 L 463.80 881.90 L 447.70 881.30 L 431.70 880.10 L 415.70 878.40 L 403.70 876.80 L 391.90 874.80 L 380.10 872.40 L 368.50 869.50 L 356.90 866.30 L 345.50 862.50 L 334.30 858.20 L 323.20 853.40 L 315.90 832.70 L 324.20 836.90 L 338.60 843.10 L 350.50 846.80 L 365.10 849.90 L 379.80 852.70 L 394.50 855.10 L 409.30 857.00 L 424.20 858.60 L 439.10 859.70 L 454.00 860.40 L 468.90 860.60 L 483.90 860.40 L 498.80 859.80 L 513.60 858.70 L 528.50 857.10 L 544.20 855.00 L 570.40 850.80 L 591.10 846.30 L 601.30 843.60 L 611.40 840.40 L 621.30 836.80 L 630.90 832.70 L 640.40 828.00 L 649.70 822.60 L 655.30 818.80 L 660.80 814.30 L 664.30 811.10 L 667.30 807.60 L 670.00 803.90 L 673.00 797.80 L 674.70 790.90 L 675.40 782.00 L 675.40 773.20 L 674.90 764.40 L 673.90 755.60 L 672.50 746.90 L 670.60 738.30 L 667.20 725.40 L 663.20 712.80 L 651.70 727.00 L 646.40 734.40 L 641.50 742.20 Z" fill="#cca8a3" fill-rule="nonzero" node-id="252" stroke="none" target-height="182.5" target-width="362.30002" target-x="315.9" target-y="699.7"></path><path d="M 796.70 714.60 L 806.30 710.80 L 826.20 705.50 L 827.40 726.30 L 800.70 731.40 L 796.20 723.30 L 795.40 720.50 L 795.30 718.60 L 795.70 716.70 L 796.70 714.60 Z" fill="#bf6534" fill-rule="nonzero" node-id="254" stroke="none" target-height="25.900024" target-width="32.100037" target-x="795.3" target-y="705.5"></path><path d="M 428.10 710.20 L 447.10 714.60 L 438.50 721.30 L 447.50 733.20 L 452.70 741.70 L 454.60 746.30 L 453.70 748.60 L 452.50 750.70 L 450.90 752.40 L 448.20 754.80 L 439.20 761.10 L 424.60 740.60 L 416.40 731.20 L 428.10 710.20 Z" fill="#e5c6bc" fill-rule="nonzero" node-id="256" stroke="none" target-height="50.899963" target-width="38.200012" target-x="416.4" target-y="710.2"></path><path d="M 463.40 711.00 L 464.50 730.30 L 464.60 740.00 L 460.20 737.00 L 452.30 730.30 L 445.30 722.50 L 442.20 718.30 L 447.10 714.60 L 463.40 711.00 Z" fill="#c68a73" fill-rule="nonzero" node-id="258" stroke="none" target-height="29" target-width="22.399994" target-x="442.2" target-y="711"></path><path d="M 384.40 726.00 L 388.20 725.10 L 391.90 724.70 L 395.40 724.80 L 398.90 725.40 L 402.30 726.40 L 405.60 727.90 L 408.70 729.80 L 411.60 732.00 L 414.40 734.70 L 419.10 742.50 L 423.40 750.50 L 431.30 767.00 L 418.00 769.30 L 410.50 769.50 L 404.60 768.20 L 397.80 763.30 L 392.10 757.20 L 389.80 753.80 L 387.70 750.20 L 386.10 746.50 L 384.90 742.60 L 384.00 738.60 L 383.70 734.50 L 383.80 730.30 L 384.40 726.00 Z" fill="#dfbea9" fill-rule="nonzero" node-id="260" stroke="none" target-height="44.799988" target-width="47.599976" target-x="383.7" target-y="724.7"></path><path d="M 553.50 722.30 L 558.00 724.80 L 562.20 727.70 L 566.20 731.10 L 569.80 734.70 L 576.60 742.50 L 573.60 749.70 L 570.10 756.80 L 564.70 765.70 L 561.60 769.90 L 540.60 760.70 L 544.00 747.10 L 546.10 740.50 L 553.50 722.30 Z" fill="#e4bd9f" fill-rule="nonzero" node-id="262" stroke="none" target-height="47.600037" target-width="36" target-x="540.6" target-y="722.3"></path><path d="M 800.60 738.20 L 825.30 742.10 L 821.80 755.10 L 800.10 753.80 L 800.60 738.20 Z" fill="#cc6236" fill-rule="nonzero" node-id="264" stroke="none" target-height="16.899963" target-width="25.200012" target-x="800.1" target-y="738.2"></path><path d="M 207.60 787.40 L 206.90 772.20 L 206.90 764.60 L 207.30 757.00 L 208.20 749.50 L 209.60 742.10 L 208.60 756.60 L 208.70 763.90 L 209.20 771.20 L 210.20 778.40 L 211.60 785.50 L 213.50 792.40 L 216.00 799.20 L 219.00 805.80 L 224.50 815.10 L 231.30 823.80 L 217.00 829.10 L 210.00 832.20 L 198.90 838.30 L 190.80 844.20 L 187.20 847.70 L 183.80 851.50 L 180.60 855.60 L 188.20 860.80 L 196.00 865.40 L 204.10 869.40 L 210.40 872.00 L 223.30 876.20 L 249.90 881.60 L 269.90 884.90 L 290.00 887.80 L 320.20 891.40 L 350.50 894.40 L 430.50 901.10 L 449.80 902.20 L 469.10 902.90 L 488.40 903.10 L 514.10 902.90 L 539.90 902.10 L 565.60 900.60 L 591.30 898.70 L 617.00 896.40 L 699.70 887.20 L 731.40 883.00 L 756.50 878.60 L 769.00 875.80 L 781.30 872.60 L 793.60 869.00 L 801.00 866.40 L 808.20 863.40 L 815.20 859.80 L 828.60 851.70 L 835.00 847.30 L 832.10 843.30 L 828.90 839.60 L 821.60 833.20 L 813.60 827.80 L 807.20 824.20 L 800.70 821.00 L 808.10 786.80 L 809.10 807.00 L 817.80 798.20 L 826.80 789.80 L 833.10 784.40 L 839.60 779.40 L 846.50 774.80 L 845.00 781.90 L 843.10 788.80 L 833.80 816.20 L 837.50 814.30 L 844.50 809.70 L 849.40 805.70 L 868.00 788.20 L 876.20 781.90 L 883.50 778.00 L 887.40 776.60 L 891.60 775.60 L 896.10 775.00 L 895.30 779.80 L 893.90 784.20 L 892.00 788.40 L 889.80 792.40 L 884.30 800.10 L 870.70 816.60 L 866.80 822.40 L 887.10 828.00 L 897.20 831.20 L 907.20 834.80 L 913.70 837.60 L 919.90 840.80 L 930.20 847.30 L 938.20 854.10 L 942.00 858.00 L 943.80 860.50 L 945.20 863.20 L 946.10 866.10 L 946.60 869.10 L 946.50 875.20 L 944.80 881.00 L 943.40 883.70 L 941.70 886.20 L 939.60 888.40 L 930.50 895.00 L 923.60 899.10 L 916.60 902.70 L 901.90 908.80 L 882.70 914.80 L 871.10 917.80 L 847.70 923.30 L 826.20 927.70 L 804.70 931.60 L 783.00 935.10 L 761.30 938.10 L 739.50 940.70 L 712.20 943.50 L 684.90 945.70 L 657.50 947.40 L 599.20 950.30 L 568.30 951.40 L 537.40 951.90 L 506.40 952.00 L 475.50 951.60 L 444.50 950.80 L 398.10 949.10 L 351.80 946.90 L 295.10 942.00 L 266.70 939.00 L 238.50 935.30 L 219.80 932.40 L 201.10 929.10 L 182.50 925.40 L 164.00 921.20 L 145.60 916.50 L 127.40 911.20 L 113.80 906.40 L 107.10 903.60 L 100.60 900.50 L 96.50 898.10 L 88.70 892.60 L 85.10 889.50 L 81.80 886.10 L 78.70 882.30 L 77.20 876.20 L 77.10 869.80 L 77.60 866.70 L 78.50 863.70 L 79.90 860.90 L 81.60 858.30 L 83.90 856.00 L 89.00 851.40 L 94.40 847.30 L 100.10 843.70 L 106.00 840.40 L 118.40 834.80 L 128.00 831.30 L 137.80 828.10 L 157.30 822.40 L 151.30 795.80 L 150.30 786.90 L 150.30 782.50 L 150.70 778.10 L 151.70 773.70 L 153.40 769.30 L 157.20 772.30 L 160.60 775.50 L 163.60 779.00 L 168.70 786.70 L 173.80 797.30 L 182.00 816.90 L 192.60 815.50 L 191.10 796.70 L 207.60 787.40 Z" fill="#95a383" fill-rule="nonzero" node-id="266" stroke="none" target-height="209.90002" target-width="869.5" target-x="77.1" target-y="742.1"></path><path d="M 802.40 761.80 L 815.00 765.90 L 827.60 770.40 L 822.00 779.10 L 802.80 773.60 L 802.40 761.80 Z" fill="#b54a2e" fill-rule="nonzero" node-id="268" stroke="none" target-height="17.299988" target-width="25.199951" target-x="802.4" target-y="761.8"></path><path d="M 778.50 766.50 L 785.90 769.50 L 792.50 773.70 L 796.50 777.10 L 800.20 781.00 L 803.50 785.20 L 782.30 783.30 L 764.70 782.30 L 767.70 780.30 L 770.40 778.10 L 772.80 775.50 L 775.80 771.20 L 778.50 766.50 Z" fill="#938287" fill-rule="nonzero" node-id="270" stroke="none" target-height="18.700012" target-width="38.799988" target-x="764.7" target-y="766.5"></path><path d="M 736.90 829.10 L 743.10 817.00 L 749.90 805.10 L 757.10 793.60 L 764.70 782.30 L 782.30 783.30 L 799.90 784.80 L 785.10 798.00 L 799.80 798.20 L 797.80 806.60 L 783.30 816.30 L 768.40 825.40 L 758.00 830.50 L 752.60 832.60 L 748.90 833.60 L 744.40 833.00 L 741.80 832.00 L 736.90 829.10 Z" fill="#dec2c1" fill-rule="nonzero" node-id="272" stroke="none" target-height="51.299988" target-width="63" target-x="736.9" target-y="782.3"></path><path d="M 752.60 832.60 L 758.00 830.50 L 768.40 825.40 L 783.30 816.30 L 797.80 806.60 L 795.80 811.70 L 793.40 816.40 L 790.40 820.80 L 787.00 824.70 L 783.30 828.40 L 779.10 831.70 L 770.10 837.40 L 765.20 839.80 L 757.60 842.90 L 749.90 845.40 L 742.00 847.30 L 734.40 848.80 L 736.90 829.10 L 741.80 832.00 L 744.40 833.00 L 747.10 833.60 L 748.90 833.60 L 752.60 832.60 Z" fill="#b17474" fill-rule="nonzero" node-id="274" stroke="none" target-height="42.200012" target-width="63.399963" target-x="734.4" target-y="806.6"></path><path d="M 757.10 848.80 L 762.60 847.00 L 767.90 844.70 L 773.00 842.00 L 780.30 837.30 L 787.30 832.10 L 800.70 821.00 L 807.20 824.20 L 813.60 827.80 L 821.60 833.20 L 828.90 839.60 L 832.10 843.30 L 835.00 847.20 L 822.00 855.90 L 815.20 859.80 L 808.20 863.40 L 801.00 866.40 L 793.60 869.00 L 781.30 872.60 L 769.00 875.80 L 744.00 880.90 L 718.80 884.90 L 699.70 887.20 L 642.60 893.60 L 617.00 896.40 L 591.30 898.70 L 565.60 900.60 L 539.90 902.10 L 514.10 902.90 L 488.40 903.10 L 469.10 902.90 L 449.80 902.20 L 430.50 901.10 L 411.20 899.60 L 350.50 894.40 L 320.20 891.40 L 290.00 887.80 L 269.90 884.90 L 249.90 881.60 L 230.00 877.70 L 223.30 876.20 L 210.40 872.00 L 204.10 869.40 L 196.00 865.40 L 188.20 860.80 L 180.60 855.60 L 183.80 851.50 L 187.20 847.70 L 190.80 844.20 L 198.90 838.30 L 210.00 832.20 L 217.00 829.10 L 231.30 823.80 L 236.50 828.70 L 242.00 833.00 L 247.70 837.00 L 253.70 840.50 L 266.20 846.50 L 279.40 851.20 L 288.40 853.70 L 297.50 855.80 L 314.00 858.90 L 321.30 860.70 L 371.20 876.50 L 385.80 879.90 L 410.80 883.80 L 428.50 885.90 L 446.20 887.30 L 463.90 888.20 L 481.60 888.50 L 499.30 888.30 L 517.10 887.50 L 534.80 886.20 L 552.50 884.50 L 570.10 882.20 L 587.70 879.50 L 605.20 876.40 L 622.60 872.80 L 640.00 868.90 L 674.30 860.00 L 687.90 857.10 L 705.30 855.20 L 726.20 853.80 L 736.60 852.80 L 750.30 850.60 L 757.10 848.80 Z" fill="#757c60" fill-rule="nonzero" node-id="276" stroke="none" target-height="82.099976" target-width="654.4" target-x="180.6" target-y="821"></path></svg>