<?xml version="1.0" standalone="no"?><!DOCTYPE svg PUBLIC "-//W3C//DTD SVG 1.1//EN" "http://www.w3.org/Graphics/SVG/1.1/DTD/svg11.dtd"><svg height="1024" node-id="1" sillyvg="true" template-height="1024" template-width="1024" version="1.1" viewBox="0 0 1024 1024" width="1024" xmlns="http://www.w3.org/2000/svg" xmlns:xlink="http://www.w3.org/1999/xlink"><defs node-id="79"></defs><path d="M 0.00 0.00 L 1024.00 0.00 L 1024.00 1024.00 L 0.00 1024.00 Z" fill="#ffffff" fill-rule="nonzero" node-id="81" stroke="none" target-height="1024" target-width="1024" target-x="0" target-y="0"></path><path d="M 289.20 269.90 L 290.80 266.90 L 292.60 264.50 L 294.70 262.50 L 297.10 261.10 L 299.70 260.30 L 302.40 260.00 L 304.40 260.30 L 308.50 262.00 L 310.70 263.70 L 303.60 266.10 L 289.20 269.90 Z" fill="#fdfdfd" fill-rule="nonzero" node-id="83" stroke="none" target-height="9.899994" target-width="21.5" target-x="289.2" target-y="260"></path><path d="M 500.50 292.80 L 518.40 301.60 L 527.50 305.80 L 536.70 309.50 L 542.90 311.50 L 549.30 313.20 L 556.00 314.50 L 551.90 316.10 L 547.80 317.10 L 543.60 317.50 L 539.40 317.40 L 535.20 316.90 L 531.00 315.90 L 526.90 314.40 L 519.10 310.50 L 511.90 305.40 L 505.60 299.40 L 500.50 292.80 Z" fill="#311728" fill-rule="nonzero" node-id="85" stroke="none" target-height="24.700012" target-width="55.5" target-x="500.5" target-y="292.8"></path><path d="M 666.60 208.10 L 668.10 203.00 L 670.10 198.00 L 672.50 193.30 L 675.50 188.80 L 678.80 184.70 L 682.60 181.00 L 685.70 178.50 L 692.60 174.50 L 696.40 172.90 L 706.00 173.50 L 710.90 174.10 L 715.70 175.10 L 718.80 176.00 L 724.40 178.90 L 726.80 180.80 L 729.00 183.10 L 733.30 190.00 L 735.00 194.20 L 736.20 198.60 L 736.70 203.00 L 736.70 207.50 L 736.20 212.00 L 735.30 216.40 L 733.90 220.70 L 732.00 224.90 L 729.80 228.90 L 727.20 232.70 L 724.30 236.10 L 721.00 239.50 L 717.50 242.40 L 713.50 244.80 L 709.30 246.70 L 704.90 248.10 L 700.30 249.00 L 695.60 249.40 L 691.00 249.20 L 686.40 248.60 L 681.90 247.40 L 677.70 245.60 L 673.70 243.30 L 671.90 240.70 L 669.40 235.30 L 668.20 231.00 L 667.20 221.80 L 666.60 208.10 Z M 698.10 179.10 L 691.70 181.20 L 686.20 184.70 L 683.10 187.60 L 680.30 190.90 L 677.90 194.70 L 675.90 198.60 L 674.30 202.80 L 673.10 207.20 L 671.80 215.90 L 671.60 223.80 L 672.00 227.50 L 673.00 231.20 L 674.40 234.60 L 675.70 236.60 L 679.00 240.00 L 681.10 241.30 L 683.30 242.20 L 689.50 243.60 L 693.00 244.00 L 699.80 243.80 L 704.20 242.80 L 708.40 241.20 L 712.40 239.10 L 716.10 236.50 L 719.60 233.50 L 722.70 230.10 L 725.50 226.40 L 727.90 222.50 L 729.90 218.30 L 731.40 213.90 L 732.30 209.50 L 732.80 204.90 L 732.10 200.80 L 730.90 196.90 L 729.10 193.30 L 726.90 189.90 L 724.20 186.90 L 721.20 184.20 L 717.80 182.00 L 714.20 180.30 L 710.40 179.10 L 704.40 178.40 L 698.10 179.10 Z" fill="#442031" fill-rule="nonzero" node-id="87" stroke="none" target-height="76.5" target-width="70.10004" target-x="666.6" target-y="172.9"></path><path d="M 109.40 298.00 L 115.60 300.00 L 135.30 305.00 L 143.70 307.90 L 147.60 309.70 L 151.40 311.90 L 154.80 314.60 L 157.90 317.80 L 133.20 313.60 L 117.00 309.70 L 109.00 307.00 L 109.40 298.00 Z" fill="#442031" fill-rule="nonzero" node-id="89" stroke="none" target-height="19.799988" target-width="48.899994" target-x="109" target-y="298"></path><path d="M 485.50 355.10 L 497.20 358.20 L 520.10 366.30 L 525.50 367.80 L 530.90 368.70 L 536.50 369.10 L 542.00 369.00 L 564.30 368.00 L 561.00 370.60 L 557.50 372.60 L 553.80 374.10 L 549.80 375.10 L 541.70 376.00 L 535.40 375.90 L 529.40 375.60 L 524.00 374.70 L 513.30 372.10 L 508.10 370.20 L 503.10 368.00 L 498.20 365.40 L 493.70 362.40 L 489.50 359.00 L 485.50 355.10 Z" fill="#442031" fill-rule="nonzero" node-id="91" stroke="none" target-height="20.899994" target-width="78.79999" target-x="485.5" target-y="355.1"></path><path d="M 894.40 769.20 L 902.20 767.60 L 896.30 782.00 L 892.80 789.10 L 888.80 795.80 L 885.80 800.10 L 882.40 803.90 L 878.70 807.30 L 875.70 809.60 L 872.50 811.60 L 865.00 814.70 L 871.00 807.80 L 876.50 800.70 L 881.80 793.30 L 888.70 781.60 L 894.40 769.20 Z" fill="#442031" fill-rule="nonzero" node-id="93" stroke="none" target-height="47.100037" target-width="37.200012" target-x="865" target-y="767.6"></path><path d="M 524.50 106.50 L 537.20 110.70 L 549.60 115.30 L 557.80 118.80 L 573.80 126.50 L 581.50 130.90 L 589.10 135.60 L 596.40 140.60 L 602.80 148.70 L 608.80 157.10 L 612.60 162.90 L 615.90 168.80 L 618.90 174.90 L 621.50 181.30 L 623.50 187.80 L 624.90 194.70 L 622.20 207.20 L 620.00 219.90 L 618.40 232.60 L 623.80 220.10 L 631.30 200.90 L 636.30 190.80 L 641.30 183.40 L 644.20 180.00 L 647.60 176.90 L 651.40 174.00 L 640.30 197.40 L 651.20 187.70 L 662.60 178.60 L 670.80 173.60 L 680.90 169.10 L 686.80 167.20 L 692.80 165.70 L 701.90 164.00 L 711.20 162.90 L 729.80 161.20 L 727.90 154.60 L 740.20 160.10 L 703.60 170.50 L 692.60 174.50 L 689.00 176.40 L 682.60 181.00 L 678.80 184.70 L 675.50 188.80 L 672.50 193.30 L 670.10 198.00 L 668.10 203.00 L 662.40 223.20 L 654.90 253.70 L 640.30 322.70 L 635.00 345.60 L 631.30 360.80 L 627.10 375.90 L 622.50 390.90 L 619.30 399.80 L 612.20 417.30 L 608.10 425.90 L 603.70 434.30 L 599.00 442.40 L 593.90 450.40 L 588.30 458.00 L 582.30 465.30 L 566.20 483.30 L 557.50 491.40 L 552.70 495.00 L 547.70 498.20 L 542.30 501.00 L 534.50 491.60 L 526.40 482.50 L 517.90 473.70 L 509.20 465.10 L 491.10 448.90 L 484.60 443.90 L 477.80 439.30 L 442.20 419.00 L 431.20 411.10 L 423.00 403.80 L 434.00 403.80 L 444.90 404.30 L 455.70 405.40 L 466.50 407.00 L 477.20 409.00 L 498.40 414.20 L 519.30 420.70 L 530.00 424.80 L 540.60 429.50 L 571.90 444.50 L 582.60 448.80 L 574.10 442.00 L 565.30 435.80 L 556.30 430.10 L 546.90 424.90 L 537.30 420.20 L 527.40 416.00 L 517.40 412.20 L 507.10 408.90 L 496.70 406.10 L 486.20 403.70 L 475.60 401.60 L 464.90 400.00 L 450.60 398.40 L 436.30 397.40 L 422.10 397.10 L 413.90 386.30 L 431.50 384.40 L 440.30 383.90 L 453.50 383.90 L 466.80 384.20 L 497.70 386.20 L 506.20 387.90 L 512.40 390.00 L 518.40 392.60 L 530.10 398.70 L 525.80 387.00 L 515.70 384.30 L 505.60 382.10 L 495.40 380.60 L 474.90 378.80 L 448.90 378.30 L 402.30 379.00 L 392.70 366.50 L 389.20 362.70 L 384.00 358.20 L 381.10 356.30 L 372.00 355.30 L 353.80 355.30 L 342.00 353.20 L 309.00 350.20 L 300.10 348.80 L 294.40 347.50 L 288.70 345.60 L 283.10 343.30 L 298.00 343.30 L 302.10 328.80 L 305.60 314.20 L 314.00 304.30 L 318.90 297.30 L 320.90 293.50 L 322.40 289.60 L 323.40 285.40 L 324.50 267.50 L 324.50 260.50 L 323.90 253.60 L 323.20 249.10 L 322.00 244.80 L 320.30 240.70 L 316.90 235.10 L 314.60 232.50 L 309.10 227.60 L 306.10 225.60 L 302.90 224.10 L 297.90 222.50 L 292.60 221.50 L 271.00 219.20 L 293.00 181.50 L 299.60 170.80 L 310.20 180.30 L 315.20 185.30 L 329.50 201.10 L 328.50 195.00 L 327.00 189.20 L 325.00 183.50 L 322.60 178.00 L 319.80 172.70 L 316.50 167.70 L 312.80 162.90 L 308.70 158.40 L 326.70 150.40 L 344.50 141.70 L 382.70 129.00 L 395.50 125.30 L 404.20 123.30 L 412.90 121.70 L 421.80 120.50 L 414.00 125.10 L 382.00 142.50 L 369.20 150.70 L 359.60 158.20 L 370.80 154.60 L 382.10 151.70 L 393.50 149.20 L 432.50 141.90 L 436.70 140.60 L 440.70 138.80 L 448.20 134.40 L 456.80 127.60 L 471.00 113.70 L 481.20 118.30 L 491.00 123.30 L 500.60 128.80 L 509.90 134.70 L 528.20 147.20 L 555.00 166.80 L 552.90 159.50 L 550.40 152.40 L 544.40 138.60 L 537.10 125.30 L 531.00 115.80 L 524.50 106.50 Z M 379.00 178.20 L 385.10 176.80 L 409.40 169.40 L 419.70 167.40 L 428.20 167.30 L 432.70 168.00 L 436.90 169.20 L 440.90 170.80 L 446.70 173.90 L 466.90 187.50 L 474.70 191.40 L 471.50 183.60 L 467.20 176.90 L 463.70 172.90 L 459.80 169.40 L 455.50 166.10 L 446.20 160.70 L 441.10 158.50 L 433.30 155.60 L 425.40 153.20 L 409.70 149.70 L 406.20 150.60 L 403.00 151.90 L 399.90 153.60 L 394.30 158.00 L 388.10 164.70 L 384.70 169.20 L 379.00 178.20 Z M 402.20 239.30 L 400.10 241.10 L 398.50 242.90 L 397.40 244.90 L 396.00 249.20 L 395.60 255.10 L 396.50 266.40 L 396.50 273.60 L 398.20 273.60 L 398.10 275.40 L 400.20 275.80 L 404.20 278.90 L 396.60 285.60 L 387.30 299.70 L 385.00 303.60 L 383.20 307.70 L 381.90 312.00 L 381.00 316.30 L 380.10 325.30 L 381.00 329.80 L 382.30 334.10 L 384.10 338.20 L 386.30 342.10 L 391.50 349.40 L 396.10 354.40 L 401.00 358.90 L 409.70 359.90 L 418.40 360.40 L 427.20 360.40 L 462.40 359.20 L 471.10 359.30 L 472.40 354.80 L 474.30 350.70 L 476.50 346.70 L 487.10 331.50 L 489.30 327.60 L 491.60 321.90 L 493.90 313.40 L 494.90 307.80 L 495.40 302.00 L 495.30 296.20 L 494.80 290.40 L 493.70 284.60 L 492.20 279.00 L 490.20 273.50 L 487.80 268.10 L 484.90 263.10 L 481.70 258.30 L 478.00 253.90 L 473.90 249.90 L 469.40 246.50 L 464.60 243.50 L 460.80 241.60 L 456.80 240.10 L 452.60 238.90 L 443.70 237.50 L 439.50 237.50 L 435.40 238.00 L 427.30 240.10 L 417.60 244.30 L 400.80 253.20 L 403.90 249.80 L 410.70 243.70 L 427.50 231.50 L 432.90 227.20 L 439.30 220.70 L 442.10 217.00 L 434.90 219.60 L 427.90 222.60 L 421.00 226.10 L 414.50 230.10 L 408.20 234.50 L 402.20 239.30 Z M 500.50 292.80 L 505.60 299.40 L 511.90 305.40 L 519.10 310.50 L 523.00 312.70 L 531.00 315.90 L 535.20 316.90 L 539.40 317.40 L 543.60 317.50 L 547.80 317.10 L 551.90 316.10 L 556.00 314.50 L 549.30 313.20 L 542.90 311.50 L 536.70 309.50 L 527.50 305.80 L 518.40 301.60 L 500.50 292.80 Z M 485.50 355.10 L 489.50 359.00 L 493.70 362.40 L 498.20 365.40 L 503.10 368.00 L 508.10 370.20 L 518.60 373.60 L 529.40 375.60 L 535.40 375.90 L 545.80 375.70 L 553.80 374.10 L 557.50 372.60 L 561.00 370.60 L 564.30 368.00 L 542.00 369.00 L 536.50 369.10 L 530.90 368.70 L 525.50 367.80 L 520.10 366.30 L 497.20 358.20 L 485.50 355.10 Z" fill="#e5914f" fill-rule="nonzero" node-id="95" stroke="none" target-height="394.5" target-width="469.2" target-x="271" target-y="106.5"></path><path d="M 256.10 175.60 L 255.00 170.20 L 254.40 165.00 L 254.50 160.00 L 255.00 155.00 L 256.10 150.10 L 257.60 145.40 L 259.50 140.80 L 261.80 136.30 L 267.60 128.10 L 274.70 120.80 L 278.60 117.50 L 287.10 111.90 L 296.50 107.50 L 301.30 105.90 L 311.20 103.80 L 305.50 108.30 L 299.10 111.90 L 293.10 115.90 L 287.40 120.30 L 282.10 125.20 L 277.10 130.40 L 272.60 136.00 L 268.50 141.90 L 264.90 148.10 L 261.80 154.60 L 259.30 161.30 L 257.40 168.30 L 256.10 175.60 Z" fill="#f3eae6" fill-rule="nonzero" node-id="97" stroke="none" target-height="71.8" target-width="56.80002" target-x="254.4" target-y="103.8"></path><path d="M 404.20 278.90 L 416.50 288.50 L 422.30 293.80 L 400.80 295.20 L 396.60 285.60 L 404.20 278.90 Z" fill="#f3eae6" fill-rule="nonzero" node-id="99" stroke="none" target-height="16.300018" target-width="25.699982" target-x="396.6" target-y="278.9"></path><path d="M 403.50 585.10 L 456.90 587.10 L 474.70 587.30 L 492.50 587.00 L 510.30 586.20 L 512.50 597.20 L 515.30 607.90 L 518.60 618.50 L 522.50 629.00 L 526.90 639.20 L 531.70 649.30 L 534.70 660.60 L 537.40 672.20 L 540.20 687.90 L 541.80 703.60 L 541.90 711.50 L 541.70 719.40 L 541.00 727.20 L 539.80 735.00 L 538.00 742.80 L 536.00 749.20 L 533.50 755.40 L 530.60 761.40 L 523.50 772.60 L 519.40 778.00 L 512.90 785.70 L 506.00 792.90 L 499.20 791.30 L 492.70 789.30 L 486.30 786.90 L 480.00 784.20 L 471.90 780.10 L 464.00 775.60 L 456.30 770.60 L 445.10 762.60 L 434.30 754.20 L 429.00 749.40 L 426.70 746.70 L 424.80 743.80 L 424.00 741.70 L 423.50 739.40 L 422.90 718.20 L 422.40 712.00 L 420.40 699.80 L 418.90 693.80 L 417.00 687.90 L 414.70 682.10 L 412.10 674.30 L 410.00 666.40 L 406.90 650.40 L 405.00 634.10 L 404.20 621.90 L 403.50 585.10 Z" fill="#f3eae6" fill-rule="nonzero" node-id="101" stroke="none" target-height="207.80005" target-width="138.40002" target-x="403.5" target-y="585.1"></path><path d="M 280.40 320.20 L 305.60 314.20 L 302.20 328.80 L 298.00 343.30 L 283.10 343.30 L 281.00 350.60 L 279.40 358.10 L 280.50 362.50 L 282.00 366.60 L 290.30 382.50 L 292.00 386.60 L 293.20 390.90 L 294.30 397.40 L 297.00 417.10 L 298.40 423.50 L 300.50 429.70 L 302.20 433.70 L 304.40 437.50 L 309.40 444.10 L 312.80 450.30 L 314.70 455.20 L 316.20 460.30 L 320.00 476.00 L 321.60 481.10 L 322.80 483.60 L 324.30 486.00 L 328.20 489.80 L 333.00 492.50 L 338.40 493.80 L 343.90 493.70 L 346.60 493.10 L 349.30 492.00 L 354.00 489.70 L 362.90 483.90 L 367.00 480.60 L 372.10 475.60 L 376.70 470.30 L 380.90 464.50 L 384.50 458.40 L 387.60 452.00 L 390.10 445.40 L 393.10 435.00 L 401.50 403.50 L 406.00 404.20 L 410.10 405.40 L 413.80 406.90 L 417.10 408.80 L 423.00 413.60 L 427.90 419.60 L 430.60 424.00 L 432.90 428.80 L 435.00 434.00 L 437.60 441.80 L 439.60 449.90 L 442.90 465.40 L 441.10 425.60 L 450.40 430.40 L 459.40 435.50 L 468.20 440.90 L 476.80 446.80 L 485.10 452.90 L 493.20 459.40 L 501.00 466.20 L 508.50 473.30 L 515.70 480.70 L 522.60 488.50 L 529.10 496.50 L 535.30 504.90 L 521.00 513.80 L 510.90 519.00 L 505.80 521.20 L 500.50 523.00 L 495.00 524.30 L 477.40 526.40 L 453.40 527.80 L 441.30 527.90 L 425.20 527.60 L 409.20 526.60 L 393.20 525.10 L 377.30 523.10 L 361.40 520.60 L 345.70 517.60 L 332.40 514.30 L 326.10 512.10 L 316.70 508.30 L 307.40 504.00 L 298.40 499.30 L 271.70 484.40 L 266.70 478.70 L 257.60 466.70 L 253.40 460.40 L 249.70 453.90 L 246.40 447.20 L 243.60 440.30 L 241.30 433.10 L 239.70 425.60 L 248.30 416.40 L 248.90 413.60 L 248.90 410.50 L 247.50 398.40 L 265.80 398.20 L 246.70 391.30 L 249.60 381.60 L 252.00 379.40 L 254.60 377.80 L 257.50 376.60 L 273.20 372.80 L 264.80 371.80 L 256.40 371.20 L 263.10 353.20 L 266.60 342.90 L 270.70 332.90 L 273.30 328.30 L 275.30 325.40 L 280.40 320.20 Z" fill="#f4ece9" fill-rule="nonzero" node-id="103" stroke="none" target-height="213.70001" target-width="295.59998" target-x="239.7" target-y="314.2"></path><path d="M 380.10 325.30 L 380.40 320.80 L 381.90 312.00 L 383.20 307.70 L 385.00 303.60 L 387.30 299.70 L 388.90 307.20 L 390.10 314.90 L 387.80 317.60 L 380.10 325.30 Z" fill="#c4bdbc" fill-rule="nonzero" node-id="105" stroke="none" target-height="25.599976" target-width="10" target-x="380.1" target-y="299.7"></path><path d="M 430.70 876.80 L 470.40 876.10 L 589.70 875.60 L 660.50 875.90 L 699.90 876.70 L 731.30 878.80 L 769.40 881.00 L 788.50 882.60 L 807.50 884.70 L 826.40 887.40 L 845.20 890.70 L 857.60 893.90 L 865.70 896.70 L 869.50 898.40 L 873.10 900.60 L 876.40 903.20 L 879.40 906.30 L 879.60 908.40 L 879.50 910.20 L 878.90 911.70 L 877.60 913.90 L 875.60 915.80 L 873.30 917.40 L 865.90 921.10 L 854.80 924.80 L 843.50 928.00 L 832.20 930.70 L 820.70 933.00 L 797.60 936.70 L 762.70 941.00 L 730.90 943.90 L 699.00 946.40 L 667.00 948.40 L 635.10 949.90 L 603.10 951.00 L 571.10 951.70 L 539.10 952.00 L 507.10 951.90 L 464.40 951.10 L 421.80 949.70 L 379.20 947.70 L 317.70 942.80 L 297.20 940.70 L 276.70 938.20 L 256.40 935.00 L 243.00 932.50 L 216.20 926.30 L 206.20 922.60 L 200.80 919.70 L 197.80 916.60 L 196.80 914.80 L 196.40 912.60 L 196.60 910.00 L 200.10 905.90 L 205.40 902.10 L 212.80 898.90 L 224.40 895.50 L 241.40 892.00 L 258.40 889.00 L 275.50 886.60 L 309.80 883.10 L 353.00 880.50 L 430.70 876.80 Z" fill="#c4bdbc" fill-rule="nonzero" node-id="107" stroke="none" target-height="76.400024" target-width="683.19995" target-x="196.4" target-y="875.6"></path><path d="M 742.10 78.70 L 745.90 76.30 L 749.90 74.50 L 754.00 73.20 L 758.30 72.40 L 762.60 72.00 L 771.60 72.50 L 780.50 74.40 L 787.10 76.60 L 793.50 79.20 L 805.20 85.20 L 811.70 90.00 L 818.00 95.30 L 824.10 101.10 L 829.70 107.30 L 834.80 113.90 L 839.40 120.90 L 842.50 126.30 L 845.20 131.90 L 847.50 137.60 L 849.40 143.40 L 850.80 149.40 L 851.70 155.50 L 852.20 161.60 L 852.10 167.90 L 849.50 165.10 L 845.40 158.80 L 835.90 138.40 L 831.90 130.90 L 827.40 123.60 L 822.50 116.50 L 818.50 111.40 L 814.30 106.60 L 805.00 97.80 L 799.90 93.90 L 794.60 90.40 L 788.90 87.30 L 778.60 82.90 L 774.20 81.60 L 769.70 80.60 L 762.90 79.80 L 742.10 78.70 Z" fill="#2e111f" fill-rule="nonzero" node-id="109" stroke="none" target-height="95.899994" target-width="110.10004" target-x="742.1" target-y="72"></path><path d="M 294.70 94.50 L 301.30 93.00 L 307.90 91.90 L 314.60 91.40 L 321.20 91.30 L 327.90 91.70 L 334.60 92.50 L 341.10 93.70 L 347.70 95.40 L 354.10 97.50 L 360.30 100.00 L 366.40 102.80 L 383.40 111.90 L 365.30 118.00 L 350.70 110.50 L 343.20 107.30 L 338.00 105.50 L 332.80 104.20 L 327.50 103.20 L 322.10 102.80 L 316.70 103.00 L 306.20 104.70 L 296.50 107.50 L 287.10 111.90 L 278.60 117.50 L 274.70 120.80 L 271.00 124.40 L 264.50 132.10 L 261.80 136.30 L 259.50 140.80 L 257.60 145.40 L 256.10 150.10 L 255.00 155.00 L 254.50 160.00 L 254.40 165.00 L 255.00 170.20 L 257.60 181.10 L 259.50 186.40 L 261.90 191.60 L 274.10 214.10 L 271.00 219.20 L 260.60 222.10 L 253.10 210.90 L 249.70 205.10 L 246.70 199.00 L 244.20 192.80 L 242.10 186.40 L 240.10 176.60 L 239.60 171.60 L 239.50 161.50 L 240.80 151.90 L 241.90 147.20 L 244.00 141.10 L 246.50 135.20 L 249.60 129.50 L 253.20 124.10 L 257.20 119.00 L 261.60 114.30 L 266.40 109.90 L 271.60 105.90 L 277.00 102.30 L 282.70 99.20 L 288.60 96.60 L 294.70 94.50 Z" fill="#2b1a2c" fill-rule="nonzero" node-id="111" stroke="none" target-height="130.8" target-width="143.9" target-x="239.5" target-y="91.3"></path><path d="M 402.30 100.80 L 416.40 98.40 L 430.60 96.30 L 444.90 94.60 L 459.40 93.30 L 473.90 92.50 L 488.40 92.10 L 502.80 92.10 L 517.30 92.60 L 531.80 93.70 L 546.20 95.20 L 560.40 97.20 L 574.60 99.80 L 588.70 102.90 L 602.60 106.60 L 616.30 110.90 L 629.90 115.80 L 640.60 120.10 L 651.10 124.80 L 661.40 129.90 L 671.60 135.50 L 681.60 141.50 L 686.00 141.50 L 690.30 141.20 L 703.10 139.00 L 711.70 138.20 L 716.10 138.40 L 723.40 139.30 L 730.60 140.60 L 737.80 142.40 L 744.80 144.80 L 751.50 147.60 L 758.10 151.00 L 762.70 153.90 L 767.20 157.10 L 771.40 160.60 L 775.40 164.50 L 780.40 170.20 L 785.00 176.30 L 789.20 182.80 L 792.80 189.50 L 795.80 196.50 L 798.40 203.80 L 800.30 211.20 L 801.70 218.70 L 802.50 226.30 L 802.50 237.80 L 801.00 249.10 L 799.80 254.60 L 798.10 260.10 L 796.00 265.50 L 791.10 275.10 L 788.40 279.20 L 785.30 283.00 L 780.20 288.30 L 774.60 293.20 L 762.70 302.10 L 763.50 310.70 L 767.30 336.60 L 767.90 342.40 L 768.10 348.20 L 768.00 361.80 L 767.60 369.40 L 766.70 376.90 L 765.40 384.40 L 763.20 394.20 L 760.40 404.00 L 757.10 413.60 L 751.60 427.90 L 745.50 441.80 L 742.00 447.90 L 738.10 453.70 L 729.30 464.40 L 719.60 474.30 L 711.80 481.20 L 679.20 507.60 L 671.30 514.40 L 683.20 513.90 L 697.80 511.70 L 706.50 509.80 L 723.70 505.30 L 720.90 512.60 L 718.70 520.00 L 716.90 527.50 L 715.70 535.10 L 714.90 542.80 L 714.50 550.60 L 722.60 538.00 L 724.30 547.60 L 723.20 556.10 L 722.50 564.60 L 722.50 575.90 L 723.00 581.50 L 723.90 587.10 L 725.30 592.60 L 727.20 598.00 L 748.60 598.30 L 756.30 601.20 L 734.80 605.10 L 723.90 606.60 L 658.60 613.70 L 660.60 625.60 L 663.10 637.40 L 676.30 695.40 L 678.60 702.60 L 680.30 705.70 L 681.80 707.60 L 685.70 710.70 L 691.90 711.40 L 698.10 711.60 L 716.70 711.40 L 722.90 711.70 L 731.10 712.80 L 763.30 722.30 L 752.30 766.20 L 750.80 771.50 L 747.30 779.70 L 743.30 785.40 L 740.90 787.90 L 738.00 790.10 L 734.70 792.00 L 734.00 783.20 L 733.80 774.40 L 734.10 765.60 L 735.80 739.20 L 736.10 730.40 L 735.90 721.60 L 716.90 717.30 L 714.30 742.70 L 711.60 756.60 L 708.20 767.20 L 705.90 772.30 L 703.10 777.30 L 699.80 782.10 L 698.30 774.30 L 694.80 742.60 L 693.20 734.80 L 691.80 729.80 L 689.80 724.90 L 687.40 720.10 L 676.60 747.80 L 672.30 756.80 L 669.20 762.50 L 665.60 768.10 L 661.70 773.30 L 655.10 780.50 L 651.30 783.70 L 643.10 789.60 L 639.00 791.80 L 634.60 793.50 L 630.20 794.80 L 620.90 796.30 L 613.80 796.70 L 606.60 796.60 L 592.40 795.80 L 603.50 789.70 L 614.40 783.30 L 624.90 776.30 L 635.20 769.00 L 645.10 761.10 L 654.70 752.80 L 624.40 756.40 L 607.60 757.70 L 594.20 757.20 L 587.60 756.30 L 581.10 754.80 L 574.50 752.70 L 614.40 743.70 L 622.10 741.30 L 627.20 739.30 L 637.00 734.40 L 647.90 727.70 L 653.20 724.10 L 661.30 717.20 L 666.90 710.80 L 668.70 704.20 L 669.90 690.40 L 650.60 700.40 L 640.70 705.00 L 630.70 709.10 L 623.90 711.40 L 617.00 713.30 L 609.90 714.70 L 604.60 715.40 L 593.70 715.70 L 588.10 715.30 L 611.10 699.30 L 626.00 687.80 L 632.90 681.60 L 637.20 677.20 L 644.90 667.60 L 648.20 662.40 L 651.10 656.90 L 653.70 651.00 L 654.70 648.10 L 655.20 645.20 L 655.40 642.30 L 654.90 637.90 L 653.90 633.50 L 650.60 625.20 L 645.00 628.60 L 639.70 632.40 L 624.40 645.00 L 619.20 648.90 L 611.80 653.50 L 607.80 655.40 L 597.60 659.70 L 587.20 663.40 L 576.60 666.70 L 565.90 669.50 L 555.10 671.90 L 544.20 673.80 L 554.50 663.90 L 584.90 639.00 L 592.70 631.70 L 597.70 626.60 L 602.30 621.20 L 606.60 615.30 L 567.40 596.60 L 553.60 607.90 L 546.40 613.10 L 533.80 620.80 L 523.00 625.80 L 550.80 589.20 L 559.70 576.80 L 570.90 559.60 L 576.00 550.80 L 559.30 554.20 L 542.50 557.20 L 531.20 558.80 L 519.90 559.90 L 497.90 561.00 L 487.20 561.00 L 476.60 560.50 L 466.00 559.60 L 481.80 556.80 L 513.20 554.10 L 528.80 552.30 L 544.40 549.90 L 554.70 547.90 L 564.80 545.40 L 574.90 542.40 L 594.80 535.50 L 614.50 528.10 L 627.40 522.70 L 640.10 516.80 L 652.60 510.50 L 646.10 503.30 L 639.30 496.40 L 610.80 470.20 L 597.10 456.60 L 633.00 465.50 L 652.90 471.00 L 668.30 476.50 L 675.80 479.70 L 683.20 483.40 L 690.40 487.50 L 704.90 475.70 L 700.20 468.60 L 695.20 461.90 L 689.80 455.40 L 684.10 449.20 L 672.00 437.50 L 662.30 429.30 L 648.80 418.60 L 645.40 415.50 L 639.20 408.80 L 634.00 401.30 L 643.20 401.70 L 652.30 402.60 L 661.40 404.00 L 670.40 406.00 L 679.30 408.40 L 688.00 411.30 L 696.60 414.70 L 705.00 418.60 L 713.20 422.90 L 721.10 427.70 L 728.60 432.80 L 735.90 438.40 L 738.50 432.60 L 742.80 420.80 L 745.60 408.50 L 746.50 402.20 L 738.90 398.90 L 716.30 388.10 L 708.60 384.90 L 700.80 382.20 L 695.50 380.80 L 690.00 379.80 L 684.40 379.30 L 648.50 378.00 L 630.60 376.40 L 639.80 372.20 L 649.20 368.50 L 658.70 365.20 L 687.90 356.60 L 699.40 353.80 L 714.00 351.70 L 722.80 351.10 L 758.30 349.40 L 757.30 326.40 L 744.80 326.10 L 707.00 326.20 L 690.30 325.30 L 682.00 324.40 L 673.80 323.00 L 665.70 321.00 L 657.60 318.50 L 675.80 309.20 L 727.30 286.40 L 741.10 279.60 L 749.90 274.20 L 757.80 267.50 L 761.40 263.70 L 764.60 259.60 L 767.40 255.40 L 770.00 250.90 L 772.10 246.20 L 773.80 241.30 L 775.00 236.30 L 775.70 231.10 L 776.20 225.80 L 776.20 220.60 L 775.80 215.40 L 773.90 205.10 L 770.60 195.20 L 768.30 190.50 L 763.00 181.40 L 756.40 173.30 L 752.70 169.50 L 744.70 162.90 L 740.20 160.10 L 727.90 154.60 L 721.10 153.10 L 714.30 152.20 L 707.50 151.90 L 700.60 152.20 L 693.90 153.00 L 687.20 154.50 L 680.60 156.40 L 674.30 158.90 L 668.10 162.00 L 662.20 165.50 L 656.70 169.50 L 647.60 176.90 L 644.20 180.00 L 638.60 187.00 L 634.10 194.70 L 631.30 200.90 L 621.20 226.50 L 618.40 232.60 L 620.00 219.90 L 622.20 207.20 L 624.90 194.70 L 628.80 188.40 L 633.00 182.40 L 642.50 171.20 L 652.90 160.90 L 661.30 153.80 L 670.10 147.10 L 660.30 140.90 L 650.30 135.30 L 640.00 130.10 L 629.50 125.40 L 618.80 121.20 L 596.90 113.90 L 574.70 107.90 L 581.10 115.40 L 587.10 123.30 L 590.60 128.80 L 593.70 134.60 L 596.40 140.60 L 589.10 135.60 L 581.50 130.90 L 565.90 122.50 L 549.60 115.30 L 537.20 110.70 L 524.50 106.50 L 531.00 115.80 L 537.10 125.30 L 544.40 138.60 L 550.40 152.40 L 552.90 159.50 L 555.00 166.80 L 528.20 147.20 L 509.90 134.70 L 500.60 128.80 L 491.00 123.30 L 481.20 118.30 L 471.00 113.70 L 461.70 123.10 L 451.70 131.80 L 444.50 136.80 L 436.70 140.60 L 432.50 141.90 L 428.10 142.90 L 405.00 147.00 L 382.10 151.70 L 370.80 154.60 L 359.60 158.20 L 369.20 150.70 L 382.00 142.50 L 414.00 125.10 L 421.80 120.50 L 412.90 121.70 L 404.20 123.30 L 395.50 125.30 L 382.70 129.00 L 344.50 141.70 L 404.30 109.10 L 402.30 100.80 Z M 645.20 521.30 L 639.60 543.60 L 630.00 588.50 L 627.10 599.70 L 623.80 610.70 L 630.10 611.30 L 642.60 611.20 L 648.80 610.60 L 654.90 609.50 L 661.00 607.90 L 656.90 585.40 L 654.30 562.80 L 653.60 551.40 L 653.30 540.10 L 653.60 528.70 L 654.30 517.30 L 645.20 521.30 Z M 669.80 606.10 L 692.40 604.20 L 715.00 601.80 L 711.80 594.90 L 709.20 587.90 L 706.90 580.90 L 704.10 570.00 L 701.90 559.10 L 695.90 526.00 L 693.50 515.00 L 686.70 524.90 L 681.20 535.50 L 678.20 542.90 L 675.60 550.50 L 673.60 558.30 L 672.00 566.20 L 670.80 574.20 L 670.00 582.20 L 669.60 590.30 L 669.80 606.10 Z M 605.20 541.80 L 600.20 550.30 L 595.60 559.30 L 592.90 565.40 L 590.70 571.60 L 588.80 578.00 L 587.50 584.40 L 586.80 591.00 L 586.80 597.80 L 595.60 602.40 L 604.60 606.50 L 613.90 610.20 L 617.10 569.70 L 618.60 556.20 L 620.00 547.30 L 621.70 538.50 L 624.00 529.70 L 613.60 534.30 L 610.30 536.30 L 606.70 539.60 L 605.20 541.80 Z" fill="#2e182b" fill-rule="nonzero" node-id="113" stroke="none" target-height="704.60004" target-width="458" target-x="344.5" target-y="92.1"></path><path d="M 311.20 103.80 L 316.70 103.00 L 322.10 102.80 L 327.50 103.20 L 332.80 104.20 L 338.00 105.50 L 343.20 107.30 L 350.70 110.50 L 358.00 114.20 L 346.70 120.00 L 335.10 125.00 L 320.40 116.40 L 305.50 108.30 L 311.20 103.80 Z" fill="#cb6337" fill-rule="nonzero" node-id="115" stroke="none" target-height="22.199997" target-width="52.5" target-x="305.5" target-y="102.8"></path><path d="M 372.30 106.00 L 387.30 103.60 L 402.30 100.80 L 404.30 109.10 L 391.40 116.10 L 372.30 106.00 Z" fill="#765b56" fill-rule="nonzero" node-id="117" stroke="none" target-height="15.299995" target-width="32" target-x="372.3" target-y="100.8"></path><path d="M 256.10 175.60 L 257.40 168.30 L 259.30 161.30 L 261.80 154.60 L 264.90 148.10 L 268.50 141.90 L 272.60 136.00 L 277.10 130.40 L 282.10 125.20 L 287.40 120.30 L 293.10 115.90 L 299.10 111.90 L 305.50 108.30 L 320.40 116.40 L 335.10 125.00 L 322.50 127.40 L 309.90 129.40 L 305.20 129.60 L 300.80 130.50 L 296.60 131.90 L 292.70 133.80 L 289.00 136.20 L 285.70 139.00 L 282.80 142.20 L 280.20 145.70 L 278.00 149.50 L 276.40 153.60 L 275.20 157.80 L 274.50 162.20 L 274.30 166.60 L 274.80 171.00 L 276.70 181.00 L 277.00 186.40 L 276.80 190.00 L 275.30 197.00 L 274.00 200.30 L 272.30 203.50 L 270.20 206.70 L 264.60 196.70 L 259.50 186.40 L 257.60 181.10 L 256.10 175.60 Z" fill="#eb8f52" fill-rule="nonzero" node-id="119" stroke="none" target-height="98.399994" target-width="79" target-x="256.1" target-y="108.3"></path><path d="M 574.70 107.90 L 596.90 113.90 L 607.90 117.30 L 618.80 121.20 L 629.50 125.40 L 640.00 130.10 L 650.30 135.30 L 660.30 140.90 L 670.10 147.10 L 661.30 153.80 L 652.90 160.90 L 642.50 171.20 L 633.00 182.40 L 628.80 188.40 L 624.90 194.70 L 623.50 187.80 L 621.50 181.30 L 618.90 174.90 L 615.90 168.80 L 612.60 162.90 L 608.80 157.10 L 602.80 148.70 L 596.40 140.60 L 593.70 134.60 L 590.60 128.80 L 587.10 123.30 L 581.10 115.40 L 574.70 107.90 Z" fill="#cb623b" fill-rule="nonzero" node-id="121" stroke="none" target-height="86.799995" target-width="95.39996" target-x="574.7" target-y="107.9"></path><path d="M 358.00 114.20 L 365.30 118.00 L 349.20 125.30 L 341.20 129.30 L 333.50 133.80 L 328.60 137.00 L 319.60 144.50 L 315.60 148.70 L 311.90 153.30 L 308.70 158.40 L 312.80 162.90 L 316.50 167.70 L 319.80 172.70 L 322.60 178.00 L 325.00 183.50 L 327.00 189.20 L 328.50 195.00 L 329.50 201.10 L 315.20 185.30 L 310.20 180.30 L 299.60 170.80 L 293.00 181.50 L 274.10 214.10 L 270.20 206.70 L 272.30 203.50 L 274.00 200.30 L 276.20 193.60 L 277.00 186.40 L 276.70 181.00 L 275.80 175.60 L 278.40 166.30 L 283.60 182.80 L 289.10 175.40 L 304.70 152.70 L 310.20 145.40 L 316.20 138.40 L 322.20 133.00 L 309.90 129.40 L 322.50 127.40 L 335.10 125.00 L 346.70 120.00 L 358.00 114.20 Z" fill="#471829" fill-rule="nonzero" node-id="123" stroke="none" target-height="99.90001" target-width="95.099976" target-x="270.2" target-y="114.2"></path><path d="M 365.30 118.00 L 383.40 111.90 L 391.40 116.10 L 344.50 141.70 L 317.80 154.60 L 308.70 158.40 L 311.90 153.30 L 315.60 148.70 L 319.60 144.50 L 324.00 140.60 L 333.50 133.80 L 341.20 129.30 L 349.20 125.30 L 365.30 118.00 Z" fill="#d8b98f" fill-rule="nonzero" node-id="125" stroke="none" target-height="46.499992" target-width="82.69998" target-x="308.7" target-y="111.9"></path><path d="M 275.80 175.60 L 274.80 171.00 L 274.30 166.60 L 274.50 162.20 L 275.20 157.80 L 276.40 153.60 L 278.00 149.50 L 280.20 145.70 L 282.80 142.20 L 285.70 139.00 L 289.00 136.20 L 292.70 133.80 L 296.60 131.90 L 300.80 130.50 L 305.20 129.60 L 309.90 129.40 L 322.20 133.00 L 316.20 138.40 L 305.30 137.30 L 301.70 137.40 L 299.40 137.80 L 297.20 138.60 L 295.10 139.80 L 292.30 142.10 L 287.80 147.40 L 285.00 151.80 L 282.60 156.50 L 278.40 166.30 L 275.80 175.60 Z" fill="#9d5c45" fill-rule="nonzero" node-id="127" stroke="none" target-height="46.200012" target-width="47.900024" target-x="274.3" target-y="129.4"></path><path d="M 295.10 139.80 L 297.20 138.60 L 299.40 137.80 L 301.70 137.40 L 305.30 137.30 L 316.20 138.40 L 310.20 145.40 L 304.70 152.70 L 289.10 175.40 L 283.60 182.80 L 278.40 166.30 L 282.60 156.50 L 285.00 151.80 L 287.80 147.40 L 292.30 142.10 L 295.10 139.80 Z" fill="#e19f68" fill-rule="nonzero" node-id="129" stroke="none" target-height="45.5" target-width="37.80002" target-x="278.4" target-y="137.3"></path><path d="M 379.00 178.20 L 384.70 169.20 L 388.10 164.70 L 394.30 158.00 L 399.90 153.60 L 403.00 151.90 L 406.20 150.60 L 409.70 149.70 L 425.40 153.20 L 433.30 155.60 L 441.10 158.50 L 446.20 160.70 L 455.50 166.10 L 459.80 169.40 L 463.70 172.90 L 467.20 176.90 L 471.50 183.60 L 474.70 191.40 L 466.90 187.50 L 446.70 173.90 L 440.90 170.80 L 436.90 169.20 L 432.70 168.00 L 428.20 167.30 L 419.70 167.40 L 409.40 169.40 L 385.10 176.80 L 379.00 178.20 Z" fill="#3c182e" fill-rule="nonzero" node-id="131" stroke="none" target-height="41.699997" target-width="95.70001" target-x="379" target-y="149.7"></path><path d="M 651.40 174.00 L 656.70 169.50 L 662.20 165.50 L 668.10 162.00 L 674.30 158.90 L 680.60 156.40 L 687.20 154.50 L 693.90 153.00 L 700.60 152.20 L 707.50 151.90 L 714.30 152.20 L 721.10 153.10 L 727.90 154.60 L 729.80 161.20 L 711.20 162.90 L 701.90 164.00 L 692.80 165.70 L 686.80 167.20 L 680.90 169.10 L 670.80 173.60 L 662.60 178.60 L 651.20 187.70 L 640.30 197.40 L 651.40 174.00 Z" fill="#ede2de" fill-rule="nonzero" node-id="133" stroke="none" target-height="45.5" target-width="89.5" target-x="640.3" target-y="151.9"></path><path d="M 169.90 156.00 L 177.50 155.90 L 178.40 161.90 L 179.60 167.70 L 181.30 173.30 L 185.50 184.20 L 192.20 197.30 L 206.10 220.10 L 198.70 216.90 L 192.40 212.70 L 188.60 209.20 L 185.30 205.40 L 182.20 201.10 L 179.60 196.60 L 177.30 191.80 L 175.30 186.90 L 172.40 176.60 L 171.30 171.30 L 170.30 163.50 L 169.90 156.00 Z" fill="#411e27" fill-rule="nonzero" node-id="135" stroke="none" target-height="64.20001" target-width="36.200012" target-x="169.9" target-y="155.9"></path><path d="M 740.20 160.10 L 748.80 166.10 L 752.70 169.50 L 759.90 177.20 L 765.80 185.80 L 768.30 190.50 L 772.40 200.10 L 775.10 210.20 L 775.80 215.40 L 776.20 220.60 L 776.20 225.80 L 775.00 236.30 L 773.80 241.30 L 772.10 246.20 L 770.00 250.90 L 767.40 255.40 L 764.60 259.60 L 761.40 263.70 L 754.00 271.00 L 745.60 277.00 L 741.10 279.60 L 727.40 286.40 L 675.80 309.20 L 657.60 318.50 L 665.70 321.00 L 673.80 323.00 L 682.00 324.40 L 690.30 325.30 L 707.00 326.20 L 744.80 326.10 L 757.30 326.40 L 758.30 349.40 L 722.80 351.10 L 714.00 351.70 L 699.40 353.80 L 687.90 356.60 L 658.70 365.20 L 649.20 368.50 L 639.80 372.20 L 630.60 376.40 L 648.50 378.00 L 684.40 379.30 L 690.00 379.80 L 695.50 380.80 L 700.80 382.20 L 708.60 384.90 L 716.30 388.10 L 738.90 398.90 L 746.50 402.20 L 745.60 408.50 L 742.80 420.80 L 738.50 432.60 L 735.90 438.40 L 728.60 432.80 L 721.10 427.70 L 713.20 422.90 L 705.00 418.60 L 696.60 414.70 L 688.00 411.30 L 679.30 408.40 L 670.40 406.00 L 661.40 404.00 L 652.30 402.60 L 643.20 401.70 L 634.00 401.30 L 639.20 408.80 L 645.40 415.50 L 648.80 418.60 L 662.30 429.30 L 672.00 437.50 L 684.10 449.20 L 689.80 455.40 L 695.20 461.90 L 700.20 468.60 L 704.90 475.70 L 690.40 487.50 L 683.20 483.40 L 675.80 479.70 L 668.30 476.50 L 652.90 471.00 L 633.00 465.50 L 597.10 456.60 L 610.80 470.20 L 639.30 496.40 L 646.10 503.30 L 652.60 510.50 L 640.10 516.80 L 627.40 522.70 L 614.50 528.10 L 594.80 535.50 L 574.90 542.40 L 564.80 545.40 L 554.70 547.90 L 544.40 549.90 L 528.80 552.30 L 513.20 554.10 L 481.80 556.80 L 498.60 553.80 L 502.70 552.60 L 506.40 550.80 L 508.60 549.30 L 510.60 547.30 L 512.30 544.90 L 516.50 538.00 L 528.50 516.90 L 532.80 510.10 L 537.60 503.60 L 547.70 498.20 L 552.70 495.00 L 557.50 491.40 L 561.90 487.50 L 570.40 478.90 L 582.30 465.30 L 588.30 458.00 L 593.90 450.40 L 599.00 442.40 L 603.70 434.30 L 608.10 425.90 L 612.20 417.30 L 619.30 399.80 L 622.50 390.90 L 627.10 375.90 L 631.30 360.80 L 635.00 345.60 L 640.30 322.70 L 654.90 253.70 L 658.50 238.40 L 666.60 208.10 L 667.20 221.80 L 668.20 231.00 L 669.40 235.30 L 670.50 238.10 L 673.70 243.30 L 677.70 245.60 L 681.90 247.40 L 686.40 248.60 L 691.00 249.20 L 695.60 249.40 L 700.30 249.00 L 704.90 248.10 L 709.30 246.70 L 713.50 244.80 L 717.50 242.40 L 721.00 239.50 L 727.20 232.70 L 729.80 228.90 L 732.00 224.90 L 733.90 220.70 L 735.30 216.40 L 736.20 212.00 L 736.70 207.50 L 736.70 203.00 L 736.20 198.60 L 735.00 194.20 L 733.30 190.00 L 729.00 183.10 L 726.80 180.80 L 724.40 178.90 L 721.70 177.30 L 715.70 175.10 L 710.90 174.10 L 706.00 173.50 L 696.40 172.90 L 710.90 168.30 L 740.20 160.10 Z M 718.10 270.70 L 722.90 270.10 L 727.60 268.90 L 732.00 267.20 L 738.10 263.60 L 743.50 258.70 L 731.90 259.90 L 725.60 261.40 L 721.50 263.80 L 720.00 265.60 L 718.80 267.80 L 718.10 270.70 Z" fill="#d26c3e" fill-rule="nonzero" node-id="137" stroke="none" target-height="396.69998" target-width="294.40002" target-x="481.8" target-y="160.1"></path><path d="M 698.10 179.10 L 704.40 178.40 L 710.40 179.10 L 714.20 180.30 L 717.80 182.00 L 721.20 184.20 L 724.20 186.90 L 726.90 189.90 L 729.10 193.30 L 730.90 196.90 L 732.10 200.80 L 732.80 204.90 L 732.30 209.50 L 731.40 213.90 L 729.90 218.30 L 727.90 222.50 L 725.50 226.40 L 722.70 230.10 L 719.60 233.50 L 716.10 236.50 L 712.40 239.10 L 708.40 241.20 L 704.20 242.80 L 699.80 243.80 L 693.00 244.00 L 689.50 243.60 L 683.30 242.20 L 681.10 241.30 L 677.30 238.40 L 674.40 234.60 L 673.00 231.20 L 672.00 227.50 L 671.60 223.80 L 671.80 215.90 L 673.10 207.20 L 674.30 202.80 L 675.90 198.60 L 677.90 194.70 L 680.30 190.90 L 683.10 187.60 L 686.20 184.70 L 691.70 181.20 L 698.10 179.10 Z" fill="#d5afad" fill-rule="nonzero" node-id="139" stroke="none" target-height="65.600006" target-width="61.200012" target-x="671.6" target-y="178.4"></path><path d="M 873.20 216.50 L 875.60 213.10 L 877.50 209.40 L 882.40 197.70 L 884.40 194.20 L 886.10 192.10 L 888.10 190.20 L 890.50 188.50 L 891.30 192.80 L 891.50 197.10 L 891.20 201.20 L 890.40 205.30 L 889.10 209.10 L 887.40 212.80 L 885.20 216.30 L 882.70 219.50 L 879.80 222.50 L 876.60 225.10 L 873.10 227.30 L 869.40 229.20 L 865.50 230.60 L 861.40 231.50 L 857.10 232.00 L 873.20 216.50 Z" fill="#330e17" fill-rule="nonzero" node-id="141" stroke="none" target-height="43.5" target-width="34.400024" target-x="857.1" target-y="188.5"></path><path d="M 142.30 214.20 L 151.80 214.80 L 154.30 220.00 L 157.10 224.80 L 163.70 233.80 L 171.30 242.00 L 183.90 253.40 L 179.80 253.30 L 175.90 252.90 L 172.10 252.00 L 168.40 250.70 L 161.50 247.10 L 155.20 242.20 L 150.00 236.20 L 146.00 229.40 L 144.50 225.80 L 143.30 222.00 L 142.60 218.20 L 142.30 214.20 Z" fill="#461b26" fill-rule="nonzero" node-id="143" stroke="none" target-height="39.199997" target-width="41.59999" target-x="142.3" target-y="214.2"></path><path d="M 260.60 222.10 L 271.00 219.20 L 292.60 221.50 L 297.90 222.50 L 302.90 224.10 L 306.10 225.60 L 309.10 227.60 L 314.60 232.50 L 316.90 235.10 L 320.30 240.70 L 322.00 244.80 L 323.20 249.10 L 323.90 253.60 L 324.50 260.50 L 324.50 267.50 L 323.40 285.40 L 322.40 289.60 L 320.90 293.50 L 316.60 300.90 L 314.00 304.30 L 305.60 314.20 L 280.40 320.20 L 253.00 304.20 L 245.90 311.50 L 239.10 319.10 L 232.80 327.10 L 226.80 335.30 L 261.20 358.20 L 251.70 354.70 L 223.50 343.30 L 214.50 366.90 L 224.90 368.90 L 235.30 370.20 L 245.80 371.00 L 256.40 371.20 L 264.80 371.80 L 273.20 372.80 L 257.50 376.60 L 254.60 377.80 L 252.00 379.40 L 249.60 381.60 L 246.70 391.30 L 265.80 398.20 L 247.50 398.40 L 235.80 397.40 L 240.30 394.70 L 242.10 392.80 L 243.70 390.70 L 244.90 388.50 L 245.60 386.10 L 246.00 383.50 L 245.80 380.90 L 245.20 378.20 L 238.30 375.90 L 234.70 375.30 L 212.30 374.10 L 211.80 383.70 L 211.80 393.30 L 212.20 399.60 L 214.20 412.10 L 215.90 418.20 L 218.10 424.20 L 220.70 430.10 L 234.40 423.10 L 248.30 416.40 L 239.70 425.60 L 224.30 438.80 L 227.70 446.20 L 231.60 453.40 L 235.90 460.20 L 240.60 466.80 L 245.80 473.00 L 251.40 478.80 L 260.70 486.60 L 270.90 493.40 L 288.20 505.90 L 297.10 511.70 L 306.30 517.10 L 315.80 522.00 L 325.50 526.40 L 338.90 531.70 L 379.70 545.70 L 393.20 550.60 L 406.60 555.90 L 387.80 558.90 L 386.20 576.10 L 385.10 593.30 L 384.70 610.60 L 384.80 623.50 L 385.40 636.40 L 386.40 649.30 L 387.80 662.20 L 394.90 666.60 L 401.80 671.40 L 408.40 676.50 L 414.70 682.10 L 414.50 704.90 L 414.00 712.50 L 412.50 722.50 L 411.30 727.50 L 409.40 732.90 L 406.90 738.10 L 400.90 747.90 L 394.30 757.40 L 423.00 774.10 L 437.50 782.10 L 452.20 789.70 L 467.10 796.90 L 482.30 803.60 L 492.30 806.50 L 502.50 809.00 L 512.70 811.00 L 523.00 812.50 L 533.30 813.60 L 554.20 814.50 L 564.60 814.40 L 578.50 813.80 L 592.40 812.60 L 617.20 809.30 L 650.60 804.10 L 661.80 802.90 L 673.00 802.30 L 680.40 802.30 L 687.90 802.80 L 695.30 803.80 L 700.50 805.60 L 705.30 808.00 L 709.80 810.70 L 714.10 813.80 L 722.20 820.70 L 739.60 837.70 L 745.50 843.10 L 754.00 849.50 L 758.50 852.20 L 763.20 854.50 L 768.30 856.30 L 773.80 857.70 L 770.80 831.40 L 765.20 792.10 L 763.60 779.00 L 762.50 765.80 L 761.80 752.60 L 754.90 755.80 L 763.30 722.30 L 774.40 723.20 L 778.00 723.90 L 781.40 724.90 L 784.60 726.50 L 788.30 729.60 L 792.50 735.90 L 794.70 740.10 L 798.00 748.90 L 799.50 754.90 L 800.60 761.10 L 801.30 767.50 L 801.80 777.00 L 802.60 805.60 L 802.60 824.10 L 801.70 834.30 L 799.70 842.00 L 798.10 845.60 L 796.00 849.10 L 791.00 855.00 L 788.50 857.10 L 785.80 858.80 L 779.70 861.00 L 776.50 861.60 L 771.50 862.00 L 766.50 861.70 L 761.50 860.90 L 756.90 859.80 L 748.80 854.90 L 739.70 847.60 L 719.60 827.60 L 714.40 822.80 L 708.90 818.30 L 703.10 814.30 L 698.40 812.10 L 693.70 810.40 L 688.90 809.30 L 679.10 808.40 L 666.50 809.20 L 604.10 817.70 L 590.60 819.10 L 577.20 820.00 L 563.70 820.50 L 550.20 820.50 L 536.70 820.00 L 523.30 818.90 L 513.30 817.70 L 503.40 816.00 L 493.50 814.00 L 483.60 811.50 L 467.30 805.30 L 447.60 796.00 L 401.70 770.70 L 390.10 764.60 L 374.30 757.20 L 366.30 753.90 L 356.50 750.80 L 346.70 748.20 L 336.70 746.00 L 326.60 744.20 L 316.50 743.00 L 306.40 742.30 L 300.30 742.40 L 294.40 743.00 L 288.40 744.10 L 264.80 749.70 L 255.00 750.80 L 246.90 750.30 L 244.70 749.30 L 243.00 748.00 L 240.80 744.90 L 239.60 741.10 L 239.30 737.90 L 239.00 724.60 L 230.10 690.50 L 226.20 673.00 L 224.50 658.80 L 224.30 651.70 L 224.70 644.60 L 225.60 637.40 L 227.90 630.30 L 231.60 623.80 L 233.80 620.90 L 236.40 618.40 L 239.30 616.10 L 242.30 614.20 L 245.70 612.80 L 249.20 611.80 L 252.90 611.40 L 261.30 611.30 L 265.30 611.70 L 269.10 612.60 L 276.30 615.80 L 279.70 618.00 L 299.50 632.80 L 306.60 636.70 L 345.10 650.80 L 356.70 654.70 L 372.50 659.00 L 380.50 660.80 L 380.20 651.60 L 379.30 642.50 L 377.20 624.30 L 362.30 618.40 L 318.20 599.50 L 303.30 593.40 L 288.40 587.80 L 278.30 584.50 L 268.10 581.50 L 257.70 578.90 L 253.10 577.50 L 248.80 575.60 L 244.80 573.20 L 241.10 570.40 L 237.60 567.30 L 234.50 563.70 L 231.80 559.90 L 229.50 555.80 L 227.50 551.50 L 226.00 547.10 L 225.00 542.50 L 224.10 534.80 L 224.20 531.90 L 225.70 524.80 L 228.60 516.40 L 230.60 509.40 L 231.00 506.50 L 230.90 501.00 L 231.10 498.90 L 231.70 496.90 L 233.20 494.30 L 235.30 491.80 L 245.50 483.40 L 234.70 469.60 L 224.70 455.00 L 220.20 447.30 L 216.20 439.50 L 212.60 431.50 L 209.70 423.20 L 207.30 414.80 L 206.00 408.40 L 205.10 401.90 L 204.70 395.30 L 204.80 388.60 L 205.40 381.50 L 207.60 367.60 L 211.40 353.80 L 216.40 340.60 L 222.90 327.90 L 230.60 316.10 L 239.50 305.10 L 244.50 300.00 L 249.70 295.20 L 255.30 290.70 L 254.80 280.50 L 254.90 270.30 L 255.30 263.50 L 256.30 256.80 L 257.70 250.20 L 259.10 245.40 L 260.90 240.70 L 263.20 236.10 L 265.90 231.50 L 260.60 222.10 Z M 282.10 234.00 L 278.20 236.50 L 274.80 239.30 L 272.00 242.50 L 269.60 246.00 L 267.60 249.80 L 265.90 253.80 L 263.70 262.20 L 263.00 266.60 L 262.40 273.40 L 262.40 286.80 L 263.20 296.00 L 264.00 298.60 L 265.30 300.80 L 267.00 302.80 L 271.20 306.30 L 285.90 314.40 L 284.80 294.20 L 284.70 282.90 L 285.70 274.10 L 286.70 269.80 L 288.20 265.60 L 290.20 261.50 L 291.60 259.40 L 293.00 257.80 L 294.60 256.70 L 298.30 255.30 L 303.50 255.10 L 319.70 257.60 L 318.40 253.60 L 316.70 249.80 L 314.50 246.10 L 312.00 242.70 L 309.10 239.70 L 305.80 237.10 L 302.30 234.90 L 298.60 233.40 L 294.60 232.40 L 291.60 232.10 L 288.60 232.30 L 285.40 232.90 L 282.10 234.00 Z M 289.20 269.90 L 303.60 266.10 L 310.70 263.70 L 308.50 262.00 L 304.40 260.30 L 302.40 260.00 L 299.70 260.30 L 297.10 261.10 L 294.70 262.50 L 292.60 264.50 L 290.80 266.90 L 289.20 269.90 Z M 238.20 498.80 L 247.10 504.60 L 239.40 515.30 L 232.60 526.50 L 239.70 532.00 L 237.70 533.20 L 234.50 536.10 L 232.60 539.80 L 232.00 543.90 L 232.90 547.90 L 233.90 549.80 L 237.10 553.20 L 239.60 559.30 L 243.00 564.30 L 245.90 567.00 L 249.10 569.40 L 252.60 571.30 L 256.40 572.80 L 260.30 573.90 L 264.40 574.60 L 272.80 575.00 L 277.00 574.60 L 278.60 572.60 L 283.10 575.60 L 292.70 580.90 L 300.10 584.30 L 323.00 593.30 L 325.70 584.20 L 329.80 565.70 L 334.10 537.70 L 315.00 530.00 L 285.40 515.60 L 286.30 512.20 L 281.20 507.70 L 270.10 499.60 L 252.60 488.90 L 238.20 498.80 Z M 337.40 599.20 L 376.70 617.20 L 378.50 601.70 L 379.90 586.10 L 380.80 570.50 L 381.30 554.90 L 367.80 551.60 L 360.20 569.10 L 354.10 580.20 L 350.50 585.40 L 346.60 590.30 L 342.30 594.90 L 337.40 599.20 Z M 235.80 628.90 L 238.50 634.90 L 239.60 638.10 L 240.10 641.40 L 232.10 644.30 L 232.80 669.50 L 233.60 677.80 L 234.50 683.30 L 235.80 688.80 L 239.60 700.00 L 241.10 706.00 L 245.00 730.20 L 247.60 742.20 L 256.90 746.60 L 277.10 740.70 L 280.70 739.20 L 283.80 737.30 L 286.60 734.90 L 289.20 732.20 L 291.40 729.10 L 294.30 724.10 L 296.70 718.60 L 298.80 712.90 L 303.90 696.30 L 306.20 684.60 L 307.70 672.10 L 307.80 663.70 L 306.50 655.80 L 305.30 652.20 L 303.60 648.80 L 300.10 644.20 L 295.10 640.30 L 289.00 633.00 L 285.50 629.80 L 277.80 624.20 L 273.70 621.80 L 264.90 618.20 L 260.40 616.90 L 257.00 616.50 L 253.80 616.70 L 250.80 617.40 L 245.10 620.10 L 242.50 622.00 L 238.90 625.30 L 235.80 628.90 Z M 336.70 654.00 L 335.50 675.40 L 334.70 682.50 L 332.80 691.80 L 331.40 696.40 L 328.70 703.30 L 325.50 710.00 L 318.00 722.90 L 309.90 735.50 L 328.10 737.80 L 346.50 739.30 L 353.50 712.20 L 355.30 703.00 L 356.80 690.70 L 356.90 684.60 L 356.50 678.50 L 355.50 672.40 L 353.90 666.40 L 352.30 662.90 L 349.20 659.80 L 346.90 658.40 L 336.70 654.00 Z M 381.10 704.60 L 378.40 711.70 L 375.20 718.60 L 371.60 725.40 L 359.70 745.00 L 386.60 752.60 L 390.60 743.30 L 394.20 733.50 L 396.20 726.80 L 399.10 713.30 L 399.90 706.40 L 400.00 699.60 L 399.60 692.90 L 398.90 687.80 L 397.70 682.90 L 396.00 678.00 L 393.90 673.20 L 391.60 676.30 L 389.60 679.50 L 388.00 682.90 L 386.10 688.20 L 381.10 704.60 Z M 768.40 723.80 L 767.30 731.00 L 766.80 738.30 L 767.20 752.90 L 768.40 767.50 L 773.50 810.60 L 775.60 824.90 L 778.20 839.10 L 781.20 853.20 L 784.30 851.30 L 787.00 849.00 L 788.60 847.30 L 791.00 843.50 L 792.20 839.00 L 792.50 832.50 L 794.30 819.90 L 794.70 811.60 L 793.80 806.50 L 791.50 801.90 L 789.70 799.80 L 787.40 797.90 L 791.10 792.10 L 793.40 785.90 L 794.10 781.60 L 794.30 777.20 L 793.80 772.60 L 781.40 773.20 L 784.70 770.00 L 787.50 766.70 L 790.30 761.70 L 791.90 756.20 L 792.10 753.30 L 791.90 750.10 L 778.40 748.20 L 783.40 742.90 L 788.10 737.30 L 785.30 734.40 L 782.20 731.80 L 778.90 729.50 L 768.40 723.80 Z" fill="#361a27" fill-rule="nonzero" node-id="145" stroke="none" target-height="642.8" target-width="597.89996" target-x="204.7" target-y="219.2"></path><path d="M 402.20 239.30 L 408.20 234.50 L 414.50 230.10 L 421.00 226.10 L 427.90 222.60 L 434.90 219.60 L 442.10 217.00 L 439.30 220.70 L 432.90 227.20 L 427.50 231.50 L 410.70 243.70 L 403.90 249.80 L 400.80 253.20 L 417.60 244.30 L 427.30 240.10 L 435.40 238.00 L 439.50 237.50 L 443.70 237.50 L 452.60 238.90 L 456.80 240.10 L 460.80 241.60 L 464.60 243.50 L 469.40 246.50 L 473.90 249.90 L 478.00 253.90 L 481.70 258.30 L 484.90 263.10 L 487.80 268.10 L 490.20 273.50 L 492.20 279.00 L 493.70 284.60 L 494.80 290.40 L 495.30 296.20 L 495.40 302.00 L 494.90 307.80 L 493.90 313.40 L 491.60 321.90 L 489.30 327.60 L 487.10 331.50 L 476.50 346.70 L 474.30 350.70 L 472.40 354.80 L 471.10 359.30 L 462.40 359.20 L 427.20 360.40 L 418.40 360.40 L 409.70 359.90 L 401.00 358.90 L 396.10 354.40 L 391.50 349.40 L 386.30 342.10 L 384.10 338.20 L 382.30 334.10 L 381.00 329.80 L 380.10 325.30 L 387.80 317.60 L 390.10 314.90 L 388.90 307.20 L 387.30 299.70 L 396.60 285.60 L 400.80 295.20 L 422.30 293.80 L 410.40 283.60 L 400.20 275.80 L 409.00 277.00 L 413.40 278.10 L 417.60 279.50 L 422.60 282.40 L 424.80 284.20 L 426.70 286.30 L 428.30 288.90 L 429.60 291.90 L 431.00 296.40 L 431.90 300.80 L 432.30 305.10 L 432.30 309.40 L 431.50 315.10 L 430.20 320.60 L 428.20 326.10 L 425.80 331.40 L 423.00 336.60 L 419.70 341.60 L 414.50 348.80 L 408.90 355.50 L 437.20 353.80 L 444.20 353.10 L 455.70 350.90 L 464.50 347.80 L 468.70 344.50 L 472.50 340.70 L 475.90 336.60 L 478.90 332.10 L 481.40 327.40 L 483.50 322.40 L 485.20 317.30 L 486.30 312.10 L 487.00 306.70 L 487.20 301.40 L 486.90 296.00 L 486.00 290.70 L 484.70 285.60 L 482.70 280.60 L 480.20 275.70 L 477.70 271.30 L 474.80 267.20 L 471.40 263.30 L 467.60 259.90 L 463.50 256.80 L 459.10 254.20 L 454.50 252.10 L 449.70 250.50 L 444.70 249.50 L 441.00 249.20 L 433.40 249.60 L 429.60 250.40 L 425.30 251.80 L 421.30 253.60 L 417.70 255.90 L 412.40 259.80 L 407.50 264.30 L 398.20 273.60 L 396.50 273.60 L 396.50 266.40 L 395.60 255.10 L 396.00 249.20 L 397.40 244.90 L 398.50 242.90 L 400.10 241.10 L 402.20 239.30 Z" fill="#371a27" fill-rule="nonzero" node-id="147" stroke="none" target-height="143.4" target-width="115.29999" target-x="380.1" target-y="217"></path><path d="M 282.10 234.00 L 285.40 232.90 L 288.60 232.30 L 291.60 232.10 L 294.60 232.40 L 298.60 233.40 L 302.30 234.90 L 305.80 237.10 L 309.10 239.70 L 312.00 242.70 L 314.50 246.10 L 316.70 249.80 L 318.40 253.60 L 319.70 257.60 L 303.50 255.10 L 298.30 255.30 L 294.60 256.70 L 293.00 257.80 L 291.60 259.40 L 290.20 261.50 L 288.20 265.60 L 286.70 269.80 L 285.70 274.10 L 284.70 282.90 L 284.80 294.20 L 285.90 314.40 L 271.20 306.30 L 267.00 302.80 L 265.30 300.80 L 264.00 298.60 L 263.20 296.00 L 262.40 286.80 L 262.40 273.40 L 263.00 266.60 L 263.70 262.20 L 266.00 253.80 L 267.60 249.80 L 269.60 246.00 L 272.00 242.50 L 274.80 239.30 L 278.20 236.50 L 282.10 234.00 Z" fill="#f5eeeb" fill-rule="nonzero" node-id="149" stroke="none" target-height="82.29999" target-width="57.30002" target-x="262.4" target-y="232.1"></path><path d="M 892.10 262.20 L 894.40 259.80 L 896.40 256.90 L 903.10 244.70 L 905.10 242.20 L 907.60 240.10 L 909.50 239.10 L 911.70 238.30 L 914.30 237.90 L 914.50 242.10 L 914.30 246.00 L 913.60 249.70 L 912.50 253.10 L 909.20 259.60 L 904.60 265.30 L 900.90 268.60 L 896.90 271.50 L 892.40 274.00 L 887.70 276.00 L 882.90 277.50 L 877.90 278.50 L 872.80 279.00 L 867.80 278.90 L 862.80 278.30 L 866.70 274.10 L 872.50 270.40 L 888.30 264.10 L 892.10 262.20 Z" fill="#341119" fill-rule="nonzero" node-id="151" stroke="none" target-height="41.100006" target-width="51.700012" target-x="862.8" target-y="237.9"></path><path d="M 398.20 273.60 L 407.50 264.30 L 412.40 259.80 L 417.70 255.90 L 421.30 253.60 L 425.30 251.80 L 429.60 250.40 L 433.40 249.60 L 441.00 249.20 L 444.70 249.50 L 449.70 250.50 L 454.50 252.10 L 459.10 254.20 L 463.50 256.80 L 467.60 259.90 L 471.40 263.30 L 474.80 267.20 L 477.70 271.30 L 482.70 280.60 L 484.70 285.60 L 486.00 290.70 L 486.90 296.00 L 487.20 301.40 L 487.00 306.70 L 486.30 312.10 L 485.20 317.30 L 483.50 322.40 L 481.40 327.40 L 478.90 332.10 L 475.90 336.60 L 472.50 340.70 L 468.70 344.50 L 464.50 347.80 L 455.70 350.90 L 444.20 353.10 L 437.20 353.80 L 408.90 355.50 L 414.50 348.80 L 419.70 341.60 L 423.00 336.60 L 425.80 331.40 L 428.20 326.10 L 430.20 320.60 L 431.50 315.10 L 432.30 309.40 L 432.30 305.10 L 431.90 300.80 L 431.00 296.40 L 429.60 291.90 L 428.30 288.90 L 426.70 286.30 L 424.80 284.20 L 422.60 282.40 L 417.60 279.50 L 413.40 278.10 L 409.00 277.00 L 398.10 275.40 L 398.20 273.60 Z" fill="#f6f0f1" fill-rule="nonzero" node-id="153" stroke="none" target-height="106.3" target-width="89.100006" target-x="398.1" target-y="249.2"></path><path d="M 718.10 270.70 L 718.80 267.80 L 720.00 265.60 L 721.50 263.80 L 725.60 261.40 L 731.90 259.90 L 743.50 258.70 L 738.10 263.60 L 732.00 267.20 L 727.60 268.90 L 722.90 270.10 L 718.10 270.70 Z" fill="#7c3c36" fill-rule="nonzero" node-id="155" stroke="none" target-height="12" target-width="25.400024" target-x="718.1" target-y="258.7"></path><path d="M 253.00 304.20 L 280.40 320.20 L 275.30 325.40 L 273.30 328.30 L 270.70 332.90 L 268.50 337.80 L 261.20 358.20 L 226.80 335.30 L 232.80 327.00 L 239.10 319.10 L 245.90 311.50 L 253.00 304.20 Z" fill="#cb8341" fill-rule="nonzero" node-id="157" stroke="none" target-height="54" target-width="53.59999" target-x="226.8" target-y="304.2"></path><path d="M 148.70 392.40 L 150.30 381.30 L 151.60 375.60 L 153.30 370.10 L 157.70 359.40 L 160.40 354.40 L 163.50 349.60 L 167.00 345.20 L 170.90 341.10 L 175.20 337.40 L 180.00 334.20 L 176.80 341.30 L 166.10 362.30 L 164.00 367.10 L 160.60 376.80 L 159.50 381.80 L 158.90 387.00 L 158.50 396.90 L 158.70 401.40 L 159.40 405.80 L 161.10 412.30 L 167.60 431.50 L 164.30 429.40 L 161.40 426.90 L 158.90 424.20 L 154.70 418.00 L 153.10 414.60 L 151.20 409.20 L 149.80 403.60 L 149.00 397.90 L 148.70 392.40 Z" fill="#482530" fill-rule="nonzero" node-id="159" stroke="none" target-height="97.29999" target-width="31.300003" target-x="148.7" target-y="334.2"></path><path d="M 804.70 339.00 L 813.70 340.60 L 817.20 346.00 L 820.20 351.60 L 822.80 357.30 L 824.90 363.20 L 827.90 375.40 L 829.40 387.90 L 829.70 396.30 L 829.50 404.70 L 828.90 413.20 L 820.40 415.30 L 821.00 408.70 L 821.20 395.50 L 820.70 388.90 L 819.50 380.20 L 817.70 371.60 L 815.30 363.20 L 812.40 354.90 L 808.80 346.90 L 804.70 339.00 Z" fill="#32121e" fill-rule="nonzero" node-id="161" stroke="none" target-height="76.29999" target-width="25" target-x="804.7" target-y="339"></path><path d="M 109.00 355.20 L 114.00 352.00 L 119.30 349.20 L 124.70 347.00 L 129.00 345.70 L 133.30 344.80 L 137.70 344.40 L 142.20 344.40 L 138.90 350.50 L 134.40 355.60 L 130.80 358.30 L 127.00 360.60 L 122.80 362.30 L 118.40 363.60 L 113.80 364.20 L 109.20 364.40 L 109.00 355.20 Z" fill="#461f2a" fill-rule="nonzero" node-id="163" stroke="none" target-height="20" target-width="33.199997" target-x="109" target-y="344.4"></path><path d="M 223.50 343.30 L 251.70 354.70 L 261.20 358.20 L 256.40 371.20 L 245.80 371.00 L 235.30 370.20 L 224.90 368.90 L 214.50 366.90 L 223.50 343.30 Z" fill="#d58e48" fill-rule="nonzero" node-id="165" stroke="none" target-height="27.900024" target-width="46.700012" target-x="214.5" target-y="343.3"></path><path d="M 279.40 358.10 L 281.00 350.60 L 283.10 343.30 L 288.70 345.60 L 294.40 347.50 L 300.10 348.80 L 309.00 350.20 L 342.00 353.20 L 353.80 355.30 L 351.10 359.80 L 348.00 363.90 L 344.60 367.40 L 340.80 370.60 L 336.70 373.40 L 332.40 375.80 L 323.10 379.60 L 318.30 380.90 L 308.30 382.60 L 303.30 383.10 L 303.50 394.70 L 304.00 401.10 L 305.40 405.80 L 306.60 407.90 L 308.20 409.80 L 310.40 411.60 L 319.80 418.30 L 324.70 421.40 L 329.80 424.20 L 335.10 426.50 L 340.60 428.20 L 348.20 429.20 L 364.10 428.40 L 370.10 427.70 L 379.90 425.80 L 387.50 423.20 L 390.30 419.70 L 391.20 417.80 L 392.10 414.70 L 392.60 411.40 L 392.90 398.10 L 413.50 398.10 L 409.60 386.80 L 396.80 386.10 L 384.00 384.80 L 393.10 381.60 L 402.30 379.00 L 448.90 378.30 L 464.50 378.40 L 485.20 379.50 L 495.40 380.60 L 505.60 382.10 L 515.70 384.30 L 525.80 387.00 L 530.10 398.70 L 518.40 392.60 L 512.40 390.00 L 506.20 387.90 L 502.00 386.90 L 493.30 385.80 L 466.80 384.20 L 453.50 383.90 L 440.30 383.90 L 431.50 384.40 L 413.90 386.30 L 422.10 397.10 L 436.30 397.40 L 450.60 398.40 L 464.90 400.00 L 475.60 401.60 L 486.20 403.70 L 496.70 406.10 L 507.10 408.90 L 517.40 412.20 L 527.40 416.00 L 537.30 420.20 L 546.90 424.90 L 556.30 430.10 L 565.30 435.80 L 574.10 442.00 L 582.60 448.80 L 571.90 444.50 L 540.60 429.50 L 530.00 424.80 L 519.30 420.70 L 498.40 414.20 L 477.20 409.00 L 466.50 407.00 L 455.70 405.40 L 444.90 404.30 L 434.00 403.80 L 423.00 403.80 L 431.20 411.10 L 442.20 419.00 L 449.20 423.20 L 470.70 435.10 L 484.60 443.90 L 491.10 448.90 L 500.30 456.80 L 517.90 473.70 L 526.40 482.50 L 534.50 491.60 L 542.30 501.00 L 535.30 504.90 L 529.10 496.50 L 522.60 488.50 L 515.70 480.70 L 508.50 473.30 L 501.00 466.20 L 493.20 459.40 L 485.10 452.90 L 476.80 446.80 L 468.20 440.90 L 459.40 435.50 L 450.40 430.40 L 441.10 425.60 L 442.90 465.40 L 439.60 449.90 L 437.60 441.80 L 435.00 434.00 L 432.90 428.80 L 430.60 424.00 L 427.90 419.60 L 423.00 413.60 L 417.10 408.80 L 413.80 406.90 L 410.10 405.40 L 406.00 404.20 L 401.50 403.50 L 393.10 435.00 L 390.10 445.40 L 387.60 452.00 L 384.50 458.40 L 380.90 464.50 L 376.70 470.30 L 372.10 475.60 L 367.00 480.60 L 362.90 483.90 L 354.00 489.70 L 349.30 492.00 L 346.60 493.10 L 343.90 493.70 L 341.10 494.00 L 335.70 493.30 L 330.50 491.30 L 326.10 488.00 L 324.30 486.00 L 322.80 483.60 L 321.60 481.10 L 320.00 476.00 L 316.20 460.30 L 314.70 455.20 L 312.80 450.30 L 309.40 444.10 L 304.40 437.50 L 302.20 433.70 L 300.50 429.70 L 298.40 423.50 L 297.00 417.10 L 294.30 397.40 L 293.20 390.90 L 292.00 386.60 L 290.30 382.50 L 282.00 366.60 L 280.50 362.50 L 279.40 358.10 Z M 322.20 457.90 L 323.60 467.30 L 324.80 472.10 L 326.50 476.60 L 328.10 479.50 L 329.90 481.90 L 332.00 484.00 L 335.90 486.20 L 340.90 487.10 L 344.40 486.70 L 348.30 485.70 L 352.10 484.20 L 355.80 482.10 L 360.20 478.70 L 363.40 474.70 L 364.30 472.50 L 364.90 470.30 L 364.90 467.90 L 364.30 465.50 L 363.10 462.80 L 361.10 460.20 L 359.00 458.10 L 356.70 456.70 L 351.60 454.80 L 348.70 454.50 L 344.40 454.50 L 339.80 454.90 L 322.20 457.90 Z" fill="#531f31" fill-rule="nonzero" node-id="167" stroke="none" target-height="161.6" target-width="303.19998" target-x="279.4" target-y="343.3"></path><path d="M 864.60 344.70 L 873.20 344.40 L 877.40 344.80 L 883.60 345.90 L 889.70 347.60 L 901.70 352.00 L 901.80 360.70 L 895.00 360.10 L 888.00 358.90 L 883.40 357.60 L 879.00 355.90 L 874.90 353.90 L 869.30 349.90 L 864.60 344.70 Z" fill="#432127" fill-rule="nonzero" node-id="169" stroke="none" target-height="16.300018" target-width="37.200012" target-x="864.6" target-y="344.4"></path><path d="M 353.80 355.30 L 372.00 355.30 L 376.50 355.70 L 381.10 356.30 L 384.00 358.20 L 389.20 362.70 L 392.70 366.50 L 402.30 379.00 L 393.10 381.60 L 384.00 384.80 L 396.80 386.10 L 409.60 386.80 L 413.50 398.10 L 392.90 398.10 L 392.60 411.40 L 392.10 414.70 L 391.20 417.80 L 390.30 419.70 L 387.50 423.20 L 383.70 424.60 L 376.00 426.80 L 364.10 428.40 L 352.10 429.20 L 344.30 428.90 L 340.60 428.20 L 335.10 426.50 L 329.80 424.20 L 324.70 421.40 L 315.00 415.00 L 308.20 409.80 L 306.60 407.90 L 305.40 405.80 L 304.00 401.10 L 303.70 398.60 L 303.30 383.10 L 308.30 382.60 L 318.30 380.90 L 323.10 379.60 L 332.40 375.80 L 336.70 373.40 L 340.80 370.60 L 344.60 367.40 L 348.00 363.90 L 351.10 359.80 L 353.80 355.30 Z M 343.50 417.90 L 356.90 424.70 L 365.70 410.40 L 361.60 410.60 L 353.80 412.00 L 350.10 413.40 L 346.70 415.30 L 343.50 417.90 Z" fill="#f0ebf3" fill-rule="nonzero" node-id="171" stroke="none" target-height="73.900024" target-width="110.20001" target-x="303.3" target-y="355.3"></path><path d="M 212.30 374.10 L 234.70 375.30 L 238.30 375.90 L 245.20 378.20 L 245.80 380.90 L 246.00 383.50 L 245.60 386.10 L 244.90 388.50 L 243.70 390.70 L 242.10 392.80 L 240.30 394.70 L 235.80 397.40 L 247.50 398.40 L 248.90 410.50 L 248.90 413.60 L 248.30 416.40 L 234.40 423.10 L 220.70 430.10 L 218.10 424.20 L 215.90 418.20 L 214.20 412.10 L 213.00 405.90 L 211.80 393.30 L 211.80 383.70 L 212.30 374.10 Z" fill="#d28544" fill-rule="nonzero" node-id="173" stroke="none" target-height="56" target-width="37.09999" target-x="211.8" target-y="374.1"></path><path d="M 852.20 381.00 L 860.40 381.60 L 868.70 383.70 L 876.40 387.20 L 879.90 389.50 L 883.20 392.10 L 886.20 395.00 L 888.90 398.20 L 891.10 401.60 L 892.90 405.30 L 894.20 409.20 L 895.00 413.30 L 895.10 417.70 L 887.10 417.00 L 882.90 409.50 L 880.40 406.20 L 876.20 401.50 L 871.60 397.20 L 852.20 381.00 Z" fill="#30111b" fill-rule="nonzero" node-id="175" stroke="none" target-height="36.700012" target-width="42.899963" target-x="852.2" target-y="381"></path><path d="M 343.50 417.90 L 346.70 415.30 L 350.10 413.40 L 353.80 412.00 L 361.60 410.60 L 365.70 410.40 L 356.90 424.70 L 343.50 417.90 Z" fill="#a999a6" fill-rule="nonzero" node-id="177" stroke="none" target-height="14.300018" target-width="22.200012" target-x="343.5" target-y="410.4"></path><path d="M 224.30 438.80 L 239.70 425.60 L 241.30 433.10 L 243.60 440.30 L 246.40 447.20 L 249.70 453.90 L 253.40 460.40 L 257.60 466.70 L 266.70 478.70 L 271.70 484.40 L 270.90 493.40 L 260.70 486.60 L 251.40 478.80 L 245.80 473.00 L 240.60 466.80 L 235.90 460.20 L 231.60 453.40 L 227.70 446.20 L 224.30 438.80 Z" fill="#ca9b80" fill-rule="nonzero" node-id="179" stroke="none" target-height="67.79999" target-width="47.40001" target-x="224.3" target-y="425.6"></path><path d="M 671.30 514.40 L 679.20 507.60 L 711.80 481.20 L 724.60 469.50 L 733.90 459.20 L 738.10 453.70 L 742.00 447.90 L 745.50 441.80 L 751.00 451.50 L 747.30 456.20 L 746.40 457.90 L 746.00 459.80 L 746.20 461.90 L 761.90 465.20 L 750.40 471.20 L 761.20 478.30 L 773.80 465.10 L 781.50 468.10 L 784.80 476.50 L 766.10 480.30 L 757.00 483.40 L 751.50 487.10 L 735.50 499.10 L 727.80 503.60 L 723.70 505.30 L 706.50 509.80 L 697.80 511.70 L 683.20 513.90 L 671.30 514.40 Z" fill="#f9f4f0" fill-rule="nonzero" node-id="181" stroke="none" target-height="72.60004" target-width="113.5" target-x="671.3" target-y="441.8"></path><path d="M 322.20 457.90 L 339.80 454.90 L 344.40 454.50 L 348.70 454.50 L 351.60 454.80 L 356.70 456.70 L 359.00 458.10 L 361.10 460.20 L 363.10 462.80 L 364.30 465.50 L 364.90 467.90 L 364.90 470.30 L 364.30 472.50 L 363.40 474.70 L 361.90 476.80 L 358.10 480.50 L 352.10 484.20 L 348.30 485.70 L 344.40 486.70 L 340.90 487.10 L 338.20 486.80 L 335.90 486.20 L 332.00 484.00 L 329.90 481.90 L 328.10 479.50 L 326.50 476.60 L 324.80 472.10 L 323.60 467.30 L 322.20 457.90 Z" fill="#c7718a" fill-rule="nonzero" node-id="183" stroke="none" target-height="32.600006" target-width="42.69998" target-x="322.2" target-y="454.5"></path><path d="M 746.20 461.90 L 746.00 459.80 L 746.40 457.90 L 747.30 456.20 L 751.00 451.50 L 756.10 453.60 L 761.30 455.00 L 777.40 458.20 L 782.70 459.60 L 786.30 461.70 L 789.70 465.30 L 794.50 473.20 L 798.20 478.00 L 801.40 480.40 L 808.30 483.50 L 816.10 488.30 L 821.50 493.00 L 823.80 495.80 L 825.80 498.80 L 827.40 502.20 L 829.60 508.50 L 831.10 514.90 L 832.10 521.40 L 832.50 528.00 L 832.40 534.50 L 831.70 541.10 L 830.40 547.60 L 828.70 554.00 L 826.40 560.20 L 823.70 566.20 L 820.50 572.00 L 816.80 577.50 L 811.30 584.00 L 804.80 589.40 L 800.10 592.40 L 795.10 595.00 L 789.70 597.10 L 784.30 598.70 L 778.70 600.00 L 773.10 600.80 L 767.30 601.30 L 756.30 601.20 L 748.60 598.30 L 766.70 595.50 L 775.70 593.60 L 790.30 589.50 L 801.70 585.00 L 794.50 574.20 L 807.10 572.50 L 811.00 571.00 L 812.80 569.80 L 816.80 562.30 L 820.40 554.60 L 803.80 544.20 L 823.40 542.60 L 825.10 529.70 L 811.90 518.30 L 823.10 510.30 L 817.00 499.00 L 811.30 493.90 L 808.10 491.60 L 804.80 489.90 L 802.50 489.10 L 800.10 488.70 L 797.40 488.70 L 789.80 494.10 L 782.70 500.10 L 784.40 482.90 L 778.20 484.00 L 772.20 485.40 L 766.30 487.40 L 760.70 489.90 L 755.30 492.90 L 750.20 496.30 L 743.40 502.50 L 740.40 506.00 L 737.70 509.90 L 734.60 516.30 L 732.20 523.00 L 730.10 529.80 L 724.80 550.50 L 722.60 538.00 L 714.60 550.60 L 714.90 542.80 L 715.70 535.10 L 716.90 527.50 L 718.70 520.00 L 720.90 512.60 L 723.70 505.30 L 727.80 503.60 L 735.50 499.10 L 751.50 487.10 L 757.00 483.40 L 766.10 480.30 L 784.80 476.50 L 781.50 468.10 L 773.80 465.10 L 761.20 478.30 L 750.40 471.20 L 761.90 465.20 L 746.20 461.90 Z" fill="#502532" fill-rule="nonzero" node-id="185" stroke="none" target-height="149.79999" target-width="117.900024" target-x="714.6" target-y="451.5"></path><path d="M 271.70 484.40 L 298.40 499.30 L 307.40 504.00 L 316.70 508.30 L 326.10 512.10 L 332.40 514.30 L 345.70 517.60 L 361.40 520.60 L 377.30 523.10 L 393.20 525.10 L 409.20 526.60 L 425.20 527.60 L 441.30 527.90 L 453.40 527.80 L 477.40 526.40 L 495.00 524.30 L 500.50 523.00 L 505.80 521.20 L 516.00 516.60 L 521.00 513.80 L 537.60 503.60 L 532.80 510.10 L 528.50 516.90 L 516.50 538.00 L 512.30 544.90 L 510.60 547.30 L 508.60 549.30 L 506.40 550.80 L 502.70 552.60 L 498.60 553.80 L 466.00 559.60 L 476.60 560.50 L 487.20 561.00 L 497.90 561.00 L 508.50 560.60 L 509.10 573.40 L 510.30 586.20 L 492.50 587.00 L 474.70 587.30 L 456.90 587.10 L 403.50 585.10 L 404.20 621.90 L 405.80 642.30 L 408.20 658.40 L 410.00 666.40 L 412.10 674.30 L 414.70 682.10 L 408.40 676.50 L 401.80 671.40 L 394.90 666.60 L 387.80 662.20 L 386.40 649.30 L 385.40 636.40 L 384.80 623.50 L 384.70 610.60 L 385.10 593.30 L 386.20 576.10 L 387.80 558.90 L 406.60 555.90 L 393.20 550.60 L 379.70 545.70 L 338.90 531.70 L 325.50 526.40 L 315.80 522.00 L 306.30 517.10 L 297.10 511.70 L 288.20 505.90 L 270.90 493.40 L 271.70 484.40 Z" fill="#cca7a3" fill-rule="nonzero" node-id="187" stroke="none" target-height="197.69998" target-width="266.69998" target-x="270.9" target-y="484.4"></path><path d="M 737.70 509.90 L 740.40 506.00 L 743.40 502.50 L 746.70 499.30 L 750.20 496.30 L 755.30 492.90 L 760.70 489.90 L 766.30 487.40 L 772.20 485.40 L 778.20 484.00 L 784.40 482.90 L 782.70 500.10 L 789.80 494.10 L 797.40 488.70 L 800.10 488.70 L 802.50 489.10 L 804.80 489.90 L 808.10 491.60 L 811.30 493.90 L 817.00 499.00 L 800.50 520.40 L 801.40 534.20 L 801.30 538.90 L 800.50 544.90 L 798.40 550.40 L 796.80 552.90 L 794.60 555.30 L 789.90 558.90 L 785.00 562.00 L 779.80 564.50 L 774.30 566.60 L 768.80 568.20 L 763.00 569.40 L 751.40 570.60 L 739.60 570.40 L 728.10 568.90 L 724.80 550.50 L 730.10 529.80 L 732.20 523.00 L 734.60 516.30 L 737.70 509.90 Z" fill="#f3eae7" fill-rule="nonzero" node-id="189" stroke="none" target-height="87.69998" target-width="92.20001" target-x="724.8" target-y="482.9"></path><path d="M 238.20 498.80 L 252.60 488.90 L 270.10 499.60 L 275.70 503.50 L 286.30 512.20 L 282.40 526.30 L 274.10 559.90 L 255.60 556.80 L 237.10 553.20 L 235.30 551.50 L 233.90 549.80 L 232.90 547.90 L 232.30 545.90 L 232.20 541.80 L 233.40 538.00 L 234.50 536.10 L 237.70 533.20 L 239.70 532.00 L 232.60 526.50 L 239.40 515.30 L 247.10 504.60 L 238.20 498.80 Z" fill="#eee6e4" fill-rule="nonzero" node-id="191" stroke="none" target-height="71.00003" target-width="54.09999" target-x="232.2" target-y="488.9"></path><path d="M 817.00 499.00 L 823.10 510.30 L 811.90 518.30 L 825.10 529.70 L 823.40 542.60 L 803.80 544.20 L 820.40 554.60 L 816.80 562.30 L 812.80 569.80 L 811.00 571.00 L 807.10 572.50 L 794.50 574.20 L 801.70 585.00 L 796.10 587.40 L 784.50 591.30 L 775.70 593.60 L 766.70 595.50 L 748.60 598.30 L 727.20 598.00 L 725.30 592.60 L 723.90 587.10 L 723.00 581.50 L 722.50 575.90 L 722.50 564.60 L 723.20 556.10 L 724.30 547.60 L 728.10 568.90 L 739.60 570.40 L 745.50 570.60 L 757.20 570.20 L 763.00 569.40 L 768.80 568.20 L 774.30 566.60 L 779.80 564.50 L 785.00 562.00 L 789.90 558.90 L 794.60 555.30 L 796.80 552.90 L 798.40 550.40 L 800.50 544.90 L 801.30 538.90 L 801.40 534.20 L 800.50 520.40 L 817.00 499.00 Z" fill="#ceada5" fill-rule="nonzero" node-id="193" stroke="none" target-height="99.29999" target-width="102.599976" target-x="722.5" target-y="499"></path><path d="M 279.90 537.10 L 282.40 526.30 L 285.40 515.60 L 315.00 530.00 L 296.50 551.10 L 277.00 574.60 L 279.90 537.10 Z" fill="#ad4638" fill-rule="nonzero" node-id="195" stroke="none" target-height="59" target-width="38" target-x="277" target-y="515.6"></path><path d="M 645.20 521.30 L 654.30 517.30 L 653.60 528.70 L 653.30 540.10 L 653.60 551.40 L 654.30 562.80 L 656.90 585.40 L 661.00 607.90 L 654.90 609.50 L 648.80 610.60 L 642.60 611.20 L 630.10 611.30 L 623.80 610.70 L 627.10 599.70 L 630.00 588.50 L 639.60 543.60 L 645.20 521.30 Z" fill="#df7340" fill-rule="nonzero" node-id="197" stroke="none" target-height="94" target-width="37.200012" target-x="623.8" target-y="517.3"></path><path d="M 669.80 606.10 L 669.60 590.30 L 670.00 582.20 L 670.80 574.20 L 672.00 566.20 L 673.60 558.30 L 675.60 550.50 L 678.20 542.90 L 681.20 535.50 L 686.70 524.90 L 693.50 515.00 L 695.90 526.00 L 701.90 559.10 L 704.10 570.00 L 706.90 580.90 L 709.20 587.90 L 711.80 594.90 L 715.00 601.80 L 692.40 604.20 L 669.80 606.10 Z" fill="#d96f3e" fill-rule="nonzero" node-id="199" stroke="none" target-height="91.099976" target-width="45.400024" target-x="669.6" target-y="515"></path><path d="M 315.00 530.00 L 334.10 537.70 L 329.80 565.70 L 325.70 584.20 L 323.00 593.30 L 300.10 584.30 L 292.70 580.90 L 283.10 575.60 L 278.60 572.60 L 296.50 551.10 L 315.00 530.00 Z" fill="#d7864a" fill-rule="nonzero" node-id="201" stroke="none" target-height="63.299988" target-width="55.5" target-x="278.6" target-y="530"></path><path d="M 605.20 541.80 L 606.70 539.60 L 610.30 536.30 L 613.60 534.30 L 624.00 529.70 L 621.70 538.50 L 620.00 547.30 L 618.60 556.20 L 617.10 569.70 L 613.90 610.20 L 604.60 606.50 L 595.60 602.40 L 586.80 597.80 L 586.80 591.00 L 587.50 584.40 L 588.80 578.00 L 590.70 571.60 L 592.90 565.40 L 595.60 559.30 L 600.20 550.30 L 605.20 541.80 Z" fill="#d87240" fill-rule="nonzero" node-id="203" stroke="none" target-height="80.5" target-width="37.200012" target-x="586.8" target-y="529.7"></path><path d="M 274.10 559.90 L 279.90 537.10 L 277.00 574.60 L 272.80 575.00 L 264.40 574.60 L 260.30 573.90 L 256.40 572.80 L 252.60 571.30 L 249.10 569.40 L 245.90 567.00 L 243.00 564.30 L 239.60 559.30 L 237.10 553.20 L 255.60 556.80 L 274.10 559.90 Z" fill="#c9a8a9" fill-rule="nonzero" node-id="205" stroke="none" target-height="37.900024" target-width="42.799988" target-x="237.1" target-y="537.1"></path><path d="M 508.50 560.60 L 519.90 559.90 L 531.20 558.80 L 542.50 557.20 L 559.30 554.20 L 576.00 550.80 L 570.90 559.60 L 559.70 576.80 L 550.80 589.20 L 523.00 625.80 L 533.80 620.80 L 546.40 613.10 L 553.60 607.90 L 567.40 596.60 L 606.60 615.30 L 602.30 621.20 L 597.70 626.60 L 592.70 631.70 L 584.90 639.00 L 554.50 663.90 L 544.20 673.80 L 555.10 671.90 L 565.90 669.50 L 576.60 666.70 L 587.20 663.40 L 597.60 659.70 L 607.80 655.40 L 611.80 653.50 L 619.20 648.90 L 624.40 645.00 L 639.70 632.40 L 645.00 628.60 L 650.60 625.20 L 653.90 633.50 L 654.90 637.90 L 655.40 642.30 L 655.20 645.20 L 654.70 648.10 L 653.70 651.00 L 651.10 656.90 L 648.20 662.40 L 644.90 667.60 L 637.20 677.20 L 632.90 681.60 L 626.00 687.80 L 611.10 699.30 L 588.10 715.30 L 593.70 715.70 L 604.60 715.40 L 609.90 714.70 L 617.00 713.30 L 623.90 711.40 L 630.70 709.10 L 640.70 705.00 L 650.60 700.40 L 669.90 690.40 L 668.70 704.20 L 666.90 710.80 L 664.20 714.20 L 658.20 720.10 L 653.20 724.10 L 647.90 727.70 L 637.00 734.40 L 632.10 737.00 L 622.10 741.30 L 614.40 743.70 L 606.40 745.70 L 582.40 750.80 L 574.50 752.70 L 581.10 754.80 L 587.60 756.30 L 594.20 757.20 L 607.60 757.70 L 624.40 756.40 L 654.70 752.80 L 645.10 761.10 L 635.20 769.00 L 624.90 776.30 L 614.40 783.30 L 603.50 789.70 L 592.40 795.80 L 567.50 798.10 L 568.40 785.60 L 568.60 773.20 L 568.20 760.60 L 567.50 751.20 L 566.30 741.90 L 564.80 732.70 L 562.80 723.50 L 560.40 714.50 L 557.50 705.60 L 554.10 696.90 L 541.10 668.70 L 526.90 639.20 L 522.50 629.00 L 518.60 618.50 L 515.30 607.90 L 512.50 597.20 L 510.30 586.20 L 509.10 573.40 L 508.50 560.60 Z" fill="#d56f3b" fill-rule="nonzero" node-id="207" stroke="none" target-height="247.29999" target-width="161.40002" target-x="508.5" target-y="550.8"></path><path d="M 337.40 599.20 L 342.30 594.90 L 346.60 590.30 L 350.50 585.40 L 354.10 580.20 L 360.20 569.10 L 367.80 551.60 L 381.30 554.90 L 380.80 570.50 L 379.90 586.10 L 378.50 601.70 L 376.70 617.20 L 337.40 599.20 Z" fill="#dc7f4d" fill-rule="nonzero" node-id="209" stroke="none" target-height="65.60004" target-width="43.899994" target-x="337.4" target-y="551.6"></path><path d="M 235.80 628.90 L 238.90 625.30 L 242.50 622.00 L 247.90 618.60 L 250.80 617.40 L 253.80 616.70 L 257.00 616.50 L 260.40 616.90 L 269.30 619.80 L 273.70 621.80 L 281.80 626.80 L 289.00 633.00 L 295.10 640.30 L 294.20 653.90 L 293.40 660.70 L 292.30 667.40 L 289.90 676.20 L 288.20 680.50 L 284.30 688.70 L 279.80 696.50 L 259.70 726.90 L 248.90 684.30 L 245.50 670.10 L 242.60 655.80 L 239.60 638.10 L 238.50 634.90 L 235.80 628.90 Z" fill="#efebea" fill-rule="nonzero" node-id="211" stroke="none" target-height="110.400024" target-width="59.300003" target-x="235.8" target-y="616.5"></path><path d="M 232.10 644.30 L 240.10 641.40 L 242.60 655.80 L 245.50 670.10 L 248.90 684.30 L 259.70 726.90 L 256.90 746.60 L 247.60 742.20 L 245.00 730.20 L 241.10 706.00 L 239.60 700.00 L 235.80 688.80 L 234.50 683.30 L 233.60 677.80 L 232.80 669.50 L 232.10 644.30 Z" fill="#d1a7a2" fill-rule="nonzero" node-id="213" stroke="none" target-height="105.19995" target-width="27.600006" target-x="232.1" target-y="641.4"></path><path d="M 295.10 640.30 L 300.10 644.20 L 303.60 648.80 L 305.30 652.20 L 306.50 655.80 L 307.80 663.70 L 307.70 672.10 L 306.20 684.60 L 303.90 696.30 L 298.80 712.90 L 296.70 718.60 L 294.30 724.10 L 291.40 729.10 L 289.20 732.20 L 286.60 734.90 L 283.80 737.30 L 280.70 739.20 L 277.10 740.70 L 256.90 746.60 L 259.70 726.90 L 279.80 696.50 L 284.30 688.70 L 288.20 680.50 L 289.90 676.20 L 292.30 667.40 L 293.40 660.70 L 294.20 653.90 L 295.10 640.30 Z" fill="#d59e86" fill-rule="nonzero" node-id="215" stroke="none" target-height="106.29999" target-width="50.899994" target-x="256.9" target-y="640.3"></path><path d="M 531.70 649.30 L 541.10 668.70 L 554.10 696.90 L 557.50 705.60 L 560.40 714.50 L 562.80 723.50 L 564.80 732.70 L 566.30 741.90 L 567.50 751.20 L 568.20 760.60 L 568.60 773.20 L 568.40 785.60 L 567.50 798.10 L 559.50 799.20 L 551.50 799.90 L 543.50 800.10 L 535.50 799.80 L 519.50 798.00 L 511.60 796.50 L 503.80 794.60 L 506.00 792.90 L 512.90 785.70 L 519.40 778.00 L 527.20 767.10 L 530.60 761.40 L 533.50 755.40 L 536.00 749.20 L 538.00 742.80 L 539.80 735.00 L 541.00 727.20 L 541.70 719.40 L 541.90 711.50 L 541.80 703.60 L 541.20 695.70 L 539.00 680.00 L 537.40 672.20 L 534.70 660.60 L 531.70 649.30 Z" fill="#e39653" fill-rule="nonzero" node-id="217" stroke="none" target-height="150.79999" target-width="64.79999" target-x="503.8" target-y="649.3"></path><path d="M 336.70 654.00 L 346.90 658.40 L 349.20 659.80 L 352.30 662.90 L 353.90 666.40 L 355.50 672.40 L 356.50 678.50 L 356.90 684.60 L 356.80 690.70 L 355.30 703.00 L 353.50 712.20 L 346.50 739.30 L 328.10 737.80 L 309.90 735.50 L 318.00 722.90 L 325.50 710.00 L 328.70 703.30 L 331.40 696.40 L 332.80 691.80 L 334.70 682.50 L 335.50 675.40 L 336.70 654.00 Z" fill="#dc854f" fill-rule="nonzero" node-id="219" stroke="none" target-height="85.29999" target-width="47" target-x="309.9" target-y="654"></path><path d="M 191.70 668.10 L 199.20 662.00 L 196.90 674.90 L 192.40 694.20 L 190.40 707.20 L 190.10 713.90 L 190.20 721.40 L 190.80 728.90 L 191.70 736.40 L 193.10 743.90 L 195.00 751.20 L 197.30 758.40 L 200.10 765.40 L 203.30 772.30 L 207.00 778.90 L 210.80 784.70 L 227.20 807.00 L 230.90 812.90 L 226.00 810.20 L 221.50 807.20 L 217.20 803.80 L 213.20 800.20 L 208.20 794.90 L 203.70 789.30 L 199.50 783.20 L 195.80 776.90 L 192.50 770.30 L 189.50 763.60 L 184.70 749.80 L 182.90 742.80 L 182.00 733.40 L 181.40 723.80 L 181.20 714.20 L 181.50 704.60 L 182.20 698.20 L 184.60 685.80 L 186.40 679.70 L 188.80 673.80 L 191.70 668.10 Z" fill="#3e1726" fill-rule="nonzero" node-id="221" stroke="none" target-height="150.90002" target-width="49.699997" target-x="181.2" target-y="662"></path><path d="M 861.10 667.70 L 864.40 670.80 L 870.10 677.50 L 872.50 681.20 L 875.20 686.40 L 877.50 691.80 L 879.40 697.40 L 880.80 703.20 L 881.90 709.10 L 882.90 721.10 L 882.90 726.90 L 882.30 736.60 L 881.60 740.40 L 880.40 744.00 L 878.80 747.60 L 876.90 750.80 L 874.60 753.90 L 871.90 756.70 L 868.90 759.00 L 865.60 761.10 L 873.20 736.60 L 874.20 731.60 L 874.70 724.90 L 874.20 716.80 L 872.70 707.70 L 871.00 701.00 L 864.50 681.20 L 862.60 674.50 L 861.10 667.70 Z" fill="#3e1f2b" fill-rule="nonzero" node-id="223" stroke="none" target-height="93.39996" target-width="21.800049" target-x="861.1" target-y="667.7"></path><path d="M 381.10 704.60 L 386.10 688.20 L 388.00 682.90 L 389.60 679.50 L 391.60 676.30 L 393.90 673.20 L 396.00 678.00 L 397.70 682.90 L 398.90 687.80 L 399.60 692.90 L 400.00 699.60 L 399.90 706.40 L 399.10 713.30 L 396.20 726.80 L 394.20 733.50 L 390.60 743.30 L 386.60 752.60 L 359.70 745.00 L 371.60 725.40 L 375.20 718.60 L 378.40 711.70 L 381.10 704.60 Z" fill="#de8048" fill-rule="nonzero" node-id="225" stroke="none" target-height="79.39996" target-width="40.299988" target-x="359.7" target-y="673.2"></path><path d="M 414.70 682.10 L 417.00 687.90 L 418.90 693.80 L 420.40 699.80 L 422.40 712.00 L 422.90 718.20 L 423.50 739.40 L 424.00 741.70 L 424.80 743.80 L 426.70 746.70 L 429.00 749.40 L 434.30 754.20 L 445.10 762.60 L 456.30 770.60 L 464.00 775.60 L 471.90 780.10 L 480.00 784.20 L 486.30 786.90 L 492.70 789.30 L 499.20 791.30 L 506.00 792.90 L 503.80 794.60 L 482.30 803.60 L 467.10 796.90 L 452.20 789.70 L 437.50 782.10 L 423.00 774.10 L 394.30 757.40 L 400.90 747.90 L 406.90 738.10 L 409.40 732.90 L 411.30 727.50 L 412.50 722.50 L 414.00 712.50 L 414.50 704.90 L 414.70 682.10 Z" fill="#cca29a" fill-rule="nonzero" node-id="227" stroke="none" target-height="121.5" target-width="111.70001" target-x="394.3" target-y="682.1"></path><path d="M 716.90 717.30 L 735.90 721.60 L 736.10 730.40 L 735.80 739.20 L 734.10 765.60 L 733.80 774.40 L 734.00 783.20 L 734.70 792.00 L 738.00 790.10 L 740.90 787.90 L 743.30 785.40 L 747.30 779.70 L 750.80 771.50 L 754.90 755.80 L 761.80 752.60 L 762.50 765.80 L 763.60 779.00 L 765.20 792.10 L 770.80 831.40 L 773.80 857.70 L 768.30 856.30 L 763.20 854.50 L 758.50 852.20 L 754.00 849.50 L 745.50 843.10 L 739.60 837.70 L 722.20 820.70 L 714.10 813.80 L 709.80 810.70 L 705.30 808.00 L 700.50 805.60 L 695.30 803.80 L 687.90 802.80 L 680.40 802.30 L 673.00 802.30 L 661.80 802.90 L 650.60 804.10 L 617.20 809.30 L 592.40 812.60 L 578.50 813.80 L 564.60 814.40 L 554.20 814.50 L 533.30 813.60 L 523.00 812.50 L 512.70 811.00 L 502.50 809.00 L 492.30 806.50 L 482.30 803.60 L 503.80 794.60 L 511.60 796.50 L 519.50 798.00 L 527.50 799.10 L 535.50 799.80 L 543.50 800.10 L 551.50 799.90 L 559.50 799.20 L 579.90 796.70 L 592.40 795.80 L 606.60 796.60 L 613.80 796.70 L 620.90 796.30 L 630.20 794.80 L 634.60 793.50 L 639.00 791.80 L 643.10 789.60 L 647.20 786.80 L 655.10 780.50 L 661.70 773.30 L 665.60 768.10 L 669.20 762.50 L 672.30 756.80 L 676.60 747.80 L 687.40 720.10 L 689.80 724.90 L 691.80 729.80 L 693.20 734.80 L 694.80 742.60 L 698.30 774.30 L 699.80 782.10 L 703.10 777.30 L 705.90 772.30 L 708.20 767.20 L 711.60 756.60 L 714.30 742.70 L 716.90 717.30 Z" fill="#cf6239" fill-rule="nonzero" node-id="229" stroke="none" target-height="140.40002" target-width="291.5" target-x="482.3" target-y="717.3"></path><path d="M 768.40 723.80 L 778.90 729.50 L 782.20 731.80 L 785.30 734.40 L 788.10 737.30 L 783.40 742.90 L 778.40 748.20 L 791.90 750.10 L 792.10 753.30 L 791.90 756.20 L 790.30 761.70 L 787.50 766.70 L 784.70 770.00 L 781.40 773.20 L 793.80 772.60 L 794.30 777.20 L 794.10 781.60 L 793.40 785.90 L 791.10 792.10 L 787.40 797.90 L 789.70 799.80 L 791.50 801.90 L 792.80 804.10 L 794.40 808.90 L 794.70 815.60 L 792.50 832.50 L 792.20 839.00 L 791.00 843.50 L 788.60 847.30 L 784.30 851.30 L 781.20 853.20 L 778.20 839.10 L 775.60 824.90 L 773.50 810.60 L 768.40 767.50 L 767.20 752.90 L 766.80 738.30 L 767.30 731.00 L 768.40 723.80 Z" fill="#dcb2ac" fill-rule="nonzero" node-id="231" stroke="none" target-height="129.40002" target-width="27.900024" target-x="766.8" target-y="723.8"></path></svg>