<?xml version="1.0" standalone="no"?><!DOCTYPE svg PUBLIC "-//W3C//DTD SVG 1.1//EN" "http://www.w3.org/Graphics/SVG/1.1/DTD/svg11.dtd"><svg height="1024" node-id="1" sillyvg="true" template-height="1024" template-width="1024" version="1.1" viewBox="0 0 1024 1024" width="1024" xmlns="http://www.w3.org/2000/svg" xmlns:xlink="http://www.w3.org/1999/xlink"><defs node-id="86"></defs><path d="M 0.00 0.00 L 1024.00 0.00 L 1024.00 1024.00 L 0.00 1024.00 Z" fill="#ffffff" fill-rule="nonzero" node-id="88" stroke="none" target-height="1024" target-width="1024" target-x="0" target-y="0"></path><path d="M 410.90 245.40 L 415.90 241.60 L 418.50 240.30 L 422.80 238.80 L 427.30 237.80 L 436.40 236.60 L 435.70 247.50 L 427.20 248.50 L 423.00 248.70 L 418.90 248.30 L 416.20 247.70 L 410.90 245.40 Z" fill="#fdfdfd" fill-rule="nonzero" node-id="90" stroke="none" target-height="12.099991" target-width="25.5" target-x="410.9" target-y="236.6"></path><path d="M 613.30 333.40 L 620.80 332.70 L 650.80 327.80 L 663.30 326.90 L 673.40 327.70 L 664.50 330.40 L 655.40 332.80 L 646.30 334.70 L 632.40 337.10 L 610.20 340.30 L 585.50 344.70 L 569.00 347.20 L 590.90 339.50 L 613.30 333.40 Z" fill="#311728" fill-rule="nonzero" node-id="92" stroke="none" target-height="20.300018" target-width="104.400024" target-x="569" target-y="326.9"></path><path d="M 398.20 330.30 L 407.20 327.40 L 404.60 336.90 L 440.50 342.00 L 439.90 347.30 L 408.10 343.10 L 397.50 342.00 L 398.20 330.30 Z" fill="#442031" fill-rule="nonzero" node-id="94" stroke="none" target-height="19.899994" target-width="43" target-x="397.5" target-y="327.4"></path><path d="M 307.40 349.50 L 314.80 348.30 L 322.20 347.40 L 329.60 347.10 L 340.80 347.00 L 385.60 349.50 L 396.80 349.60 L 395.80 357.30 L 322.30 355.00 L 316.10 353.60 L 311.60 351.70 L 307.40 349.50 Z" fill="#442031" fill-rule="nonzero" node-id="96" stroke="none" target-height="10.299988" target-width="89.399994" target-x="307.4" target-y="347"></path><path d="M 854.00 822.50 L 859.30 819.90 L 862.30 818.80 L 867.10 818.10 L 870.50 818.90 L 871.80 819.90 L 872.90 821.40 L 873.80 823.70 L 873.30 828.90 L 872.10 833.90 L 865.90 853.60 L 864.80 860.40 L 864.70 863.90 L 881.60 851.20 L 886.00 848.20 L 890.60 845.80 L 893.80 844.50 L 900.40 843.00 L 903.70 842.90 L 907.20 843.30 L 910.90 844.20 L 912.00 846.50 L 912.50 848.50 L 912.50 850.30 L 911.30 853.90 L 908.00 858.20 L 900.30 865.30 L 896.00 870.10 L 899.20 871.80 L 910.90 877.10 L 914.70 879.10 L 917.90 881.40 L 919.80 883.10 L 921.30 885.00 L 922.40 887.10 L 923.00 889.40 L 923.10 892.00 L 922.50 895.10 L 921.20 897.30 L 917.80 900.90 L 914.70 903.20 L 911.40 905.00 L 897.10 910.80 L 882.10 915.00 L 867.00 918.70 L 851.80 922.00 L 836.60 924.80 L 805.80 929.40 L 782.70 932.00 L 759.50 934.00 L 783.20 922.90 L 798.80 914.90 L 811.00 907.10 L 815.60 903.60 L 822.90 897.00 L 825.30 894.00 L 827.40 890.90 L 829.90 885.80 L 832.00 880.40 L 834.90 869.20 L 837.30 858.00 L 841.20 843.40 L 842.80 838.60 L 844.70 834.00 L 847.20 829.70 L 849.10 827.10 L 851.40 824.70 L 854.00 822.50 Z" fill="#96a584" fill-rule="nonzero" node-id="98" stroke="none" target-height="115.900024" target-width="163.59998" target-x="759.5" target-y="818.1"></path><path d="M 250.30 86.80 L 256.80 83.80 L 263.50 81.40 L 270.40 79.60 L 277.30 78.40 L 284.40 77.50 L 291.50 77.20 L 298.70 77.20 L 312.80 78.30 L 319.60 79.90 L 326.30 81.90 L 332.70 84.50 L 339.00 87.60 L 351.10 94.70 L 359.70 100.80 L 367.90 107.30 L 382.20 100.00 L 396.70 93.40 L 406.60 89.30 L 426.70 82.30 L 436.90 79.40 L 447.30 77.10 L 457.80 75.20 L 470.60 73.80 L 483.40 72.80 L 496.30 72.20 L 509.20 72.00 L 522.10 72.30 L 535.00 73.00 L 547.80 74.20 L 560.60 75.80 L 573.30 77.90 L 585.90 80.60 L 598.30 83.80 L 610.60 87.50 L 622.70 91.80 L 634.60 96.60 L 646.30 102.10 L 657.80 108.10 L 660.10 109.80 L 662.10 110.70 L 664.10 111.00 L 668.20 110.30 L 670.30 109.30 L 673.30 107.50 L 688.20 97.00 L 694.80 93.20 L 701.70 89.80 L 708.80 87.00 L 716.10 84.70 L 723.50 82.90 L 731.00 81.60 L 738.60 80.90 L 746.30 80.70 L 753.90 81.10 L 761.40 82.00 L 769.00 83.40 L 775.20 85.50 L 781.10 88.00 L 786.80 90.80 L 792.20 94.20 L 797.30 97.90 L 802.20 101.90 L 806.80 106.20 L 811.20 110.90 L 815.20 115.90 L 822.30 126.50 L 828.10 137.90 L 832.60 149.90 L 835.60 162.40 L 836.50 168.80 L 837.10 181.50 L 836.90 187.80 L 836.10 194.10 L 835.00 200.30 L 833.40 206.50 L 831.40 212.50 L 829.00 218.40 L 826.00 224.10 L 820.30 233.60 L 817.80 237.30 L 815.00 240.60 L 811.90 243.60 L 807.40 247.30 L 802.50 250.70 L 797.40 253.60 L 789.40 257.50 L 781.20 260.80 L 795.50 288.50 L 798.80 295.20 L 801.60 302.00 L 806.10 316.20 L 806.80 325.10 L 806.90 330.50 L 807.50 335.60 L 808.60 340.50 L 810.30 345.20 L 812.40 349.80 L 814.90 354.20 L 820.90 362.40 L 829.90 371.80 L 835.80 377.00 L 847.80 386.30 L 854.80 389.50 L 850.70 397.80 L 846.20 405.70 L 841.30 413.40 L 830.50 428.10 L 815.70 445.40 L 780.50 482.80 L 773.10 489.80 L 765.30 496.30 L 757.10 502.40 L 748.70 508.20 L 740.10 513.60 L 731.20 518.60 L 722.10 523.30 L 736.00 557.10 L 740.30 568.50 L 744.30 580.00 L 750.20 600.40 L 753.90 618.30 L 755.30 627.40 L 756.10 633.10 L 757.90 656.10 L 758.80 661.80 L 760.10 667.40 L 761.90 673.00 L 771.20 667.70 L 780.20 662.10 L 789.00 656.00 L 779.20 674.20 L 801.60 712.50 L 794.10 715.60 L 786.40 718.10 L 778.60 720.00 L 770.60 721.30 L 762.60 722.10 L 754.50 722.30 L 754.10 728.80 L 752.10 741.30 L 750.00 750.60 L 742.60 778.30 L 740.20 790.80 L 739.50 797.20 L 759.60 793.60 L 773.10 791.80 L 779.80 791.70 L 784.30 792.00 L 788.70 792.70 L 797.50 795.10 L 801.60 797.00 L 805.30 799.40 L 808.70 802.30 L 811.80 805.60 L 814.40 809.30 L 816.60 813.30 L 818.30 817.40 L 819.50 821.70 L 820.10 826.20 L 820.10 830.50 L 819.40 834.90 L 816.10 843.20 L 812.20 851.20 L 807.80 858.80 L 802.90 866.10 L 797.50 873.00 L 791.70 879.60 L 785.40 885.80 L 778.80 891.70 L 771.80 897.20 L 764.50 902.20 L 757.00 906.90 L 749.10 911.10 L 741.10 914.90 L 732.90 918.30 L 724.60 921.20 L 716.20 923.60 L 711.90 922.00 L 708.00 920.10 L 704.20 917.80 L 698.90 914.00 L 693.90 909.70 L 674.50 891.60 L 668.30 890.30 L 655.80 888.60 L 627.20 886.50 L 617.80 885.40 L 609.60 884.20 L 577.40 877.10 L 569.20 876.00 L 559.10 876.80 L 531.70 882.80 L 518.40 884.60 L 507.00 884.80 L 498.40 884.20 L 464.00 879.90 L 455.40 879.50 L 449.70 879.60 L 438.20 880.90 L 409.70 886.10 L 395.40 888.20 L 381.00 889.70 L 371.40 890.20 L 361.70 890.30 L 352.00 890.00 L 326.70 922.40 L 313.20 921.50 L 306.60 920.50 L 300.00 919.10 L 291.60 916.20 L 278.20 909.10 L 259.90 897.90 L 251.10 891.80 L 242.60 885.40 L 234.30 878.60 L 226.40 871.40 L 218.90 863.80 L 206.20 849.40 L 204.40 846.80 L 201.90 841.30 L 201.00 837.50 L 200.70 833.60 L 200.80 829.80 L 201.50 825.90 L 202.50 822.10 L 205.80 814.60 L 210.20 807.60 L 214.20 802.80 L 218.40 798.50 L 231.10 800.10 L 221.80 807.60 L 212.80 815.60 L 228.70 820.00 L 244.40 824.90 L 224.00 826.20 L 211.80 828.00 L 211.00 833.00 L 211.20 835.40 L 212.10 838.90 L 215.40 845.60 L 221.20 855.20 L 228.60 864.10 L 232.60 868.20 L 239.10 874.00 L 245.90 879.30 L 260.20 889.20 L 274.70 898.70 L 289.70 907.40 L 295.00 910.00 L 300.40 912.10 L 305.90 913.70 L 309.70 914.40 L 317.40 914.60 L 321.10 913.40 L 324.60 911.90 L 327.90 909.90 L 333.90 905.00 L 338.80 899.00 L 342.60 892.20 L 343.90 888.50 L 345.60 881.10 L 341.50 874.70 L 322.90 850.70 L 318.70 844.40 L 321.50 837.30 L 338.70 860.90 L 343.40 866.50 L 348.40 871.70 L 355.70 878.00 L 359.80 880.80 L 366.90 881.80 L 374.10 882.30 L 381.20 882.30 L 395.40 881.30 L 413.20 878.50 L 445.20 872.90 L 459.50 871.40 L 466.70 871.20 L 477.00 873.10 L 487.50 874.40 L 498.10 875.30 L 506.00 875.60 L 521.90 875.00 L 529.70 874.10 L 537.50 872.80 L 545.20 870.90 L 552.70 868.50 L 560.10 865.60 L 597.00 873.40 L 621.70 877.70 L 634.10 879.40 L 646.60 880.70 L 659.10 881.50 L 671.70 881.80 L 675.10 874.30 L 682.80 860.00 L 689.20 849.60 L 709.30 818.90 L 715.80 808.60 L 722.00 798.10 L 701.20 810.20 L 694.20 814.00 L 686.90 817.30 L 679.50 820.10 L 674.40 821.60 L 663.80 823.40 L 668.20 817.40 L 672.90 811.70 L 677.90 806.30 L 685.90 798.50 L 711.30 776.60 L 719.50 769.00 L 727.20 761.10 L 731.90 755.50 L 736.30 749.50 L 740.40 743.10 L 727.60 743.10 L 714.80 743.60 L 676.70 746.50 L 663.90 747.10 L 646.90 746.90 L 638.40 746.20 L 653.00 740.50 L 684.50 729.20 L 700.10 723.20 L 715.50 716.60 L 725.60 711.80 L 735.50 706.70 L 745.20 701.10 L 746.50 682.90 L 696.50 682.70 L 671.50 681.30 L 679.40 675.60 L 687.50 670.30 L 712.50 655.40 L 720.60 650.20 L 731.00 642.50 L 737.70 636.60 L 740.30 632.90 L 741.60 629.80 L 743.00 623.10 L 743.90 612.70 L 735.60 613.60 L 719.30 616.40 L 670.80 627.90 L 654.50 630.80 L 646.30 631.70 L 652.20 625.50 L 664.80 614.10 L 674.90 606.00 L 705.60 582.80 L 718.70 571.80 L 725.00 565.90 L 720.90 550.10 L 714.90 551.00 L 703.10 553.80 L 694.40 556.40 L 659.90 568.40 L 651.20 570.90 L 668.60 544.70 L 618.80 556.80 L 602.00 560.30 L 577.30 564.90 L 564.80 566.80 L 552.30 568.20 L 535.60 569.10 L 527.10 569.00 L 587.60 557.10 L 607.70 552.80 L 627.70 548.00 L 647.50 542.70 L 660.60 538.70 L 673.50 534.30 L 686.30 529.50 L 698.80 524.20 L 711.20 518.30 L 723.40 511.90 L 712.90 493.30 L 707.00 484.30 L 695.60 468.70 L 690.20 462.20 L 684.30 456.00 L 671.70 444.60 L 665.10 439.40 L 654.70 431.80 L 622.90 410.40 L 633.90 415.30 L 644.60 420.60 L 655.20 426.60 L 662.90 431.40 L 670.30 436.50 L 677.50 442.00 L 684.40 447.80 L 690.90 454.00 L 697.00 460.60 L 702.80 467.60 L 708.10 475.00 L 727.30 509.20 L 734.80 505.50 L 742.10 501.40 L 749.00 496.80 L 755.70 491.90 L 762.20 486.60 L 768.30 481.00 L 779.80 468.90 L 772.40 461.60 L 764.70 454.70 L 756.70 448.10 L 748.50 441.90 L 740.00 436.00 L 731.30 430.50 L 722.20 425.40 L 713.00 420.70 L 730.20 417.90 L 736.60 417.30 L 743.00 417.10 L 752.70 417.20 L 772.00 418.80 L 800.90 422.10 L 800.50 403.90 L 800.10 400.90 L 798.50 395.40 L 797.10 393.00 L 795.20 390.70 L 792.70 388.70 L 785.90 384.50 L 778.90 380.80 L 771.70 377.60 L 764.40 374.80 L 756.80 372.50 L 749.20 370.50 L 737.50 368.10 L 725.70 366.40 L 702.00 364.30 L 689.80 361.70 L 677.40 359.60 L 669.20 358.70 L 652.60 357.80 L 644.30 358.00 L 609.80 361.40 L 592.00 362.40 L 580.40 361.70 L 568.90 360.50 L 587.50 357.80 L 606.10 355.60 L 643.50 352.30 L 662.20 351.40 L 674.70 351.90 L 680.90 352.60 L 708.20 356.80 L 717.40 357.40 L 722.00 357.20 L 729.00 356.00 L 735.90 354.20 L 762.90 345.40 L 781.80 343.00 L 800.80 341.40 L 795.30 323.20 L 788.50 305.60 L 773.60 305.80 L 729.00 308.30 L 720.20 304.20 L 711.70 299.60 L 738.00 283.50 L 746.30 277.50 L 751.60 273.20 L 756.60 268.60 L 762.80 261.70 L 763.70 259.60 L 764.30 257.40 L 764.70 250.30 L 761.50 242.70 L 754.20 228.00 L 744.30 211.90 L 738.20 203.00 L 721.50 181.50 L 690.30 143.70 L 702.00 135.10 L 712.00 128.80 L 720.60 124.90 L 725.00 123.60 L 729.60 122.80 L 738.20 122.60 L 741.90 123.00 L 749.10 124.80 L 753.70 126.80 L 757.90 129.30 L 761.90 132.40 L 767.00 137.80 L 770.90 144.10 L 772.30 147.50 L 773.30 151.00 L 774.00 154.70 L 774.50 163.00 L 774.30 167.30 L 773.60 171.50 L 771.20 179.60 L 766.70 189.50 L 756.80 208.80 L 756.20 210.80 L 756.10 212.70 L 756.60 215.70 L 757.60 218.70 L 761.80 227.60 L 762.90 230.50 L 768.30 227.70 L 773.50 224.60 L 778.50 221.00 L 783.20 217.10 L 787.60 212.80 L 791.50 208.20 L 795.00 203.20 L 798.00 198.00 L 800.40 192.50 L 801.90 188.20 L 802.90 183.80 L 803.60 179.30 L 804.10 169.40 L 803.50 159.40 L 802.70 154.50 L 800.90 148.10 L 798.60 141.90 L 795.70 136.00 L 792.30 130.30 L 788.40 124.90 L 784.00 119.90 L 779.20 115.20 L 774.00 111.10 L 768.50 107.30 L 762.70 104.10 L 756.70 101.50 L 750.40 99.40 L 745.50 98.20 L 735.60 97.10 L 725.60 97.40 L 716.00 99.00 L 711.30 100.40 L 705.30 102.70 L 699.40 105.50 L 693.90 108.90 L 688.60 112.70 L 683.60 117.00 L 672.60 128.10 L 662.80 121.60 L 652.80 115.50 L 642.60 109.80 L 626.70 102.20 L 610.30 96.00 L 633.60 125.90 L 607.50 116.40 L 624.60 141.30 L 618.40 139.00 L 593.90 128.10 L 583.40 124.80 L 574.60 123.40 L 569.50 126.50 L 564.70 130.10 L 555.50 137.60 L 561.60 139.80 L 573.50 145.10 L 579.10 148.20 L 584.60 151.70 L 589.70 155.50 L 594.60 159.70 L 599.10 164.40 L 603.20 169.50 L 591.50 168.20 L 583.50 166.00 L 575.60 164.30 L 567.60 163.10 L 559.60 162.40 L 551.50 162.30 L 543.50 162.80 L 535.50 163.90 L 527.40 165.70 L 527.00 155.00 L 527.20 137.00 L 528.60 122.70 L 529.80 115.70 L 531.50 108.80 L 533.70 102.10 L 535.70 97.20 L 540.70 87.70 L 543.80 83.10 L 517.10 82.20 L 490.40 82.40 L 493.90 90.80 L 499.90 107.90 L 502.40 116.70 L 504.30 125.50 L 505.80 134.40 L 506.50 141.20 L 506.80 154.80 L 506.40 161.70 L 473.10 158.30 L 462.00 157.70 L 456.90 157.80 L 451.90 158.40 L 447.00 159.50 L 439.80 161.70 L 432.70 164.50 L 418.90 170.70 L 431.70 179.00 L 437.90 183.60 L 443.70 188.70 L 449.10 194.10 L 454.10 199.90 L 457.50 204.50 L 460.40 209.20 L 463.00 214.20 L 465.20 219.40 L 467.00 224.70 L 468.20 230.30 L 468.90 236.10 L 469.00 242.20 L 464.70 236.10 L 460.80 229.70 L 449.90 210.10 L 445.70 203.90 L 442.60 200.10 L 439.10 196.60 L 435.20 193.40 L 431.40 190.80 L 427.40 188.70 L 423.30 187.10 L 416.80 185.20 L 410.20 183.80 L 396.80 181.60 L 403.40 177.70 L 409.80 173.50 L 415.90 169.00 L 438.10 150.10 L 443.10 146.50 L 448.40 143.30 L 456.60 139.10 L 482.10 127.70 L 466.40 125.10 L 461.10 124.80 L 454.10 125.20 L 450.60 126.00 L 443.70 128.30 L 436.90 131.20 L 410.90 144.90 L 417.00 137.40 L 423.50 130.20 L 451.10 103.10 L 442.80 104.50 L 434.70 106.50 L 402.90 116.10 L 392.10 118.30 L 386.50 119.00 L 404.80 108.20 L 413.80 102.20 L 422.50 95.60 L 408.60 98.80 L 401.80 100.80 L 395.10 103.10 L 387.50 106.50 L 380.10 110.20 L 373.10 114.30 L 366.40 118.90 L 359.90 123.80 L 347.60 134.60 L 341.80 140.40 L 334.40 148.50 L 327.40 156.80 L 294.40 199.80 L 288.10 208.60 L 282.30 217.70 L 278.80 223.90 L 272.80 237.00 L 270.80 242.70 L 270.00 245.70 L 269.70 248.60 L 269.80 250.60 L 271.30 254.40 L 275.50 262.00 L 285.20 276.40 L 300.70 297.30 L 305.50 304.50 L 310.00 311.90 L 296.80 310.60 L 280.60 307.60 L 271.00 305.20 L 232.70 294.50 L 224.00 322.30 L 220.10 336.40 L 233.60 343.20 L 247.20 349.50 L 288.70 367.40 L 302.30 373.90 L 272.90 378.00 L 258.20 380.40 L 234.00 385.20 L 214.90 390.30 L 219.00 416.60 L 225.80 415.60 L 232.40 415.00 L 239.10 414.90 L 249.10 415.20 L 289.20 419.30 L 299.30 419.80 L 307.10 421.70 L 276.40 434.60 L 270.10 437.90 L 264.00 441.50 L 258.30 445.60 L 252.80 450.20 L 249.00 453.80 L 242.20 462.00 L 239.20 466.60 L 254.40 480.10 L 262.30 486.50 L 274.50 495.70 L 297.10 510.90 L 307.30 517.40 L 299.30 520.80 L 288.40 514.90 L 277.80 508.50 L 267.60 501.60 L 257.60 494.30 L 247.90 486.60 L 238.50 478.60 L 220.40 461.70 L 198.80 439.40 L 180.30 418.60 L 168.80 403.90 L 136.20 358.30 L 125.20 364.30 L 119.50 367.00 L 109.70 370.50 L 101.70 371.80 L 97.70 371.80 L 93.50 371.30 L 89.30 370.20 L 86.40 368.50 L 81.50 364.60 L 77.10 359.00 L 75.00 355.40 L 71.00 345.50 L 65.00 327.30 L 65.50 323.10 L 66.60 319.10 L 68.20 315.30 L 70.20 311.70 L 72.50 308.30 L 75.30 305.20 L 79.80 300.80 L 84.60 296.90 L 80.60 287.60 L 79.70 284.50 L 79.10 281.20 L 79.20 275.00 L 79.60 272.40 L 80.30 270.00 L 81.90 266.50 L 86.50 260.30 L 94.50 251.30 L 96.80 248.10 L 100.30 241.20 L 102.30 238.00 L 104.60 235.10 L 107.30 232.40 L 110.20 230.00 L 113.30 228.00 L 116.70 226.30 L 123.40 223.90 L 126.40 223.20 L 129.30 222.90 L 133.90 223.00 L 138.50 223.70 L 156.60 228.10 L 161.00 224.90 L 165.80 222.10 L 172.50 219.30 L 179.50 217.70 L 183.10 217.40 L 186.60 217.60 L 190.10 218.20 L 193.60 219.20 L 199.60 222.20 L 201.60 223.90 L 203.20 225.80 L 205.20 229.20 L 211.20 244.50 L 213.30 247.80 L 215.00 249.70 L 217.10 251.30 L 229.80 258.40 L 235.70 260.80 L 240.50 261.40 L 242.80 261.00 L 245.10 260.10 L 247.60 258.60 L 236.20 248.40 L 225.50 237.20 L 220.70 231.30 L 216.20 225.10 L 212.10 218.70 L 208.50 212.00 L 205.50 205.00 L 202.00 194.20 L 200.00 182.70 L 199.10 171.10 L 199.80 159.60 L 201.00 152.00 L 202.90 144.60 L 205.40 137.30 L 208.40 130.20 L 211.90 123.40 L 216.00 116.90 L 220.70 110.70 L 225.70 105.00 L 231.20 99.70 L 240.30 92.60 L 250.30 86.80 Z M 233.70 174.80 L 235.00 180.20 L 236.80 185.20 L 239.00 190.00 L 244.70 199.00 L 248.00 203.20 L 253.50 209.00 L 259.40 214.50 L 272.10 224.40 L 276.70 213.70 L 278.10 208.10 L 266.00 187.90 L 263.20 182.70 L 260.90 177.30 L 259.60 173.70 L 258.20 165.90 L 259.00 157.40 L 261.40 148.90 L 265.20 141.00 L 267.70 137.40 L 270.40 134.00 L 273.50 131.00 L 276.80 128.20 L 280.40 126.00 L 284.30 124.20 L 288.30 122.90 L 292.60 122.10 L 301.20 121.60 L 305.00 121.70 L 308.60 122.20 L 315.80 124.20 L 319.20 125.70 L 329.10 131.40 L 338.50 137.90 L 359.00 116.70 L 353.10 112.10 L 346.90 107.90 L 340.40 104.10 L 330.10 99.50 L 319.40 96.30 L 313.90 95.40 L 308.40 94.90 L 302.80 94.90 L 297.10 95.40 L 291.50 96.30 L 286.10 97.60 L 280.80 99.40 L 275.60 101.70 L 270.60 104.30 L 265.90 107.30 L 261.30 110.60 L 257.00 114.30 L 252.90 118.30 L 249.20 122.60 L 245.80 127.00 L 242.70 131.80 L 240.00 136.70 L 237.70 141.80 L 235.90 147.00 L 234.40 152.40 L 233.50 157.90 L 233.00 163.50 L 233.10 169.10 L 233.70 174.80 Z M 262.20 166.50 L 262.90 171.50 L 264.10 176.30 L 265.80 180.90 L 268.00 185.40 L 270.50 189.70 L 273.50 193.80 L 276.70 197.60 L 283.80 204.50 L 291.50 194.10 L 307.70 174.00 L 325.00 154.80 L 334.00 145.50 L 327.70 138.00 L 324.10 134.70 L 320.30 131.70 L 316.20 129.20 L 311.80 127.30 L 308.40 126.30 L 304.90 125.70 L 301.20 125.50 L 293.10 125.90 L 289.10 126.50 L 285.40 127.70 L 281.90 129.40 L 278.60 131.50 L 275.60 134.00 L 270.40 140.00 L 268.20 143.40 L 264.80 150.80 L 262.80 158.70 L 262.20 166.50 Z M 700.80 142.90 L 705.70 150.40 L 716.30 164.90 L 724.90 175.30 L 751.40 205.70 L 756.10 199.30 L 763.30 187.90 L 767.60 178.10 L 769.00 173.00 L 769.90 167.80 L 770.20 162.30 L 769.70 155.40 L 767.60 148.80 L 765.40 144.80 L 762.80 141.10 L 759.60 137.70 L 756.00 134.70 L 752.20 132.20 L 748.00 130.20 L 741.40 128.40 L 734.50 128.00 L 730.30 128.70 L 722.50 131.00 L 716.80 133.60 L 711.40 136.50 L 700.80 142.90 Z M 155.50 253.10 L 156.20 261.60 L 157.00 265.80 L 160.50 278.20 L 166.90 280.60 L 173.40 282.40 L 186.60 285.40 L 192.50 277.90 L 195.00 273.70 L 197.20 269.40 L 198.90 265.00 L 200.30 260.40 L 201.30 255.70 L 201.70 251.00 L 201.60 246.30 L 201.00 241.70 L 199.80 237.10 L 197.90 232.50 L 196.30 230.00 L 194.40 228.20 L 192.30 226.90 L 190.00 226.00 L 184.90 225.10 L 168.80 225.50 L 159.40 243.60 L 155.50 253.10 Z M 107.70 241.50 L 111.40 248.90 L 120.50 262.80 L 112.90 262.70 L 105.10 264.00 L 101.50 265.30 L 98.10 267.00 L 95.00 269.10 L 92.30 271.50 L 90.10 274.40 L 88.80 276.80 L 87.80 279.40 L 87.20 282.30 L 87.00 285.60 L 88.90 289.20 L 91.10 292.30 L 93.50 295.10 L 99.20 299.80 L 105.70 303.20 L 109.20 304.50 L 114.10 305.60 L 119.10 306.20 L 124.30 306.20 L 133.00 297.80 L 142.00 289.80 L 151.50 282.30 L 150.70 276.30 L 150.10 252.00 L 149.50 246.10 L 147.70 238.30 L 146.40 234.50 L 143.20 232.60 L 139.90 231.20 L 136.50 230.30 L 132.90 229.90 L 129.30 229.80 L 125.70 230.30 L 122.20 231.20 L 118.80 232.50 L 115.60 234.10 L 112.60 236.20 L 110.00 238.70 L 107.70 241.50 Z M 211.10 255.90 L 203.00 272.70 L 194.10 289.00 L 215.10 310.40 L 226.50 290.50 L 238.80 271.20 L 225.00 263.30 L 211.10 255.90 Z M 147.20 293.00 L 140.60 298.10 L 137.40 301.00 L 132.80 306.40 L 130.60 311.30 L 130.20 313.80 L 130.20 316.60 L 130.90 319.50 L 124.10 314.50 L 109.40 308.60 L 100.90 306.00 L 94.20 305.30 L 90.80 305.50 L 87.40 306.20 L 81.50 308.60 L 79.50 310.00 L 77.90 311.70 L 75.60 315.80 L 71.10 332.80 L 83.20 336.80 L 95.70 339.90 L 80.70 352.80 L 84.50 357.30 L 89.30 360.60 L 93.00 362.10 L 96.80 363.10 L 100.80 363.60 L 104.90 363.60 L 108.80 363.10 L 112.70 362.20 L 116.40 360.80 L 119.80 358.90 L 122.70 356.70 L 124.70 354.80 L 127.60 350.30 L 128.60 347.70 L 129.10 345.10 L 129.20 342.20 L 128.80 339.10 L 127.90 335.60 L 129.20 339.20 L 130.80 342.40 L 132.80 345.50 L 136.30 349.70 L 148.20 361.30 L 152.00 365.40 L 166.70 386.70 L 178.90 403.00 L 186.70 397.10 L 190.30 393.70 L 193.50 390.00 L 196.90 384.40 L 198.10 381.30 L 202.70 366.90 L 206.80 352.40 L 210.50 337.70 L 213.60 322.90 L 211.70 317.90 L 209.10 313.10 L 206.00 308.60 L 202.40 304.30 L 198.40 300.50 L 193.90 297.00 L 189.10 294.10 L 184.20 291.60 L 179.00 289.70 L 175.00 288.70 L 171.00 288.00 L 162.90 287.90 L 158.90 288.50 L 155.00 289.50 L 151.10 291.00 L 147.20 293.00 Z M 812.20 362.90 L 811.40 389.10 L 810.10 415.30 L 809.00 428.40 L 807.50 441.50 L 812.50 437.40 L 817.10 433.00 L 821.30 428.30 L 827.20 420.80 L 832.60 413.00 L 842.90 396.90 L 836.00 387.70 L 828.70 378.90 L 823.50 373.30 L 812.20 362.90 Z M 187.30 409.00 L 190.20 413.50 L 197.00 421.60 L 208.70 432.40 L 205.80 412.50 L 201.80 392.90 L 193.70 400.30 L 191.20 402.90 L 189.00 405.80 L 187.30 409.00 Z M 759.20 676.90 L 758.30 685.60 L 757.90 694.30 L 758.30 711.70 L 777.10 711.50 L 773.80 696.40 L 771.10 688.20 L 769.50 685.30 L 767.60 682.70 L 765.40 680.40 L 762.60 678.50 L 759.20 676.90 Z M 753.10 802.00 L 755.00 804.70 L 757.20 807.10 L 759.60 809.00 L 763.70 811.50 L 768.10 813.60 L 777.20 817.00 L 779.10 827.00 L 776.30 827.80 L 764.60 818.80 L 758.50 814.50 L 747.90 808.30 L 738.90 804.40 L 728.40 808.90 L 723.90 815.30 L 704.70 840.30 L 700.20 846.70 L 691.20 858.30 L 685.90 866.50 L 682.90 873.80 L 681.80 880.20 L 682.70 884.10 L 684.00 887.80 L 685.80 891.30 L 690.20 897.90 L 697.00 905.20 L 701.30 909.20 L 704.00 911.00 L 709.50 913.40 L 712.30 914.00 L 716.20 914.30 L 720.10 914.20 L 724.10 913.60 L 730.10 912.00 L 735.90 910.00 L 747.00 905.20 L 755.90 899.90 L 764.50 894.00 L 772.80 887.60 L 778.70 882.50 L 784.40 877.00 L 789.70 871.30 L 794.70 865.30 L 799.30 859.00 L 803.40 852.40 L 807.10 845.50 L 810.40 838.40 L 811.50 820.70 L 799.10 822.90 L 786.70 824.60 L 797.40 816.90 L 808.50 809.90 L 805.70 807.40 L 802.80 805.50 L 799.90 804.20 L 796.80 803.40 L 793.80 803.10 L 790.60 803.50 L 787.60 804.40 L 784.60 805.90 L 781.60 808.10 L 779.20 798.00 L 770.40 798.90 L 761.70 800.20 L 753.10 802.00 Z" fill="#31192a" fill-rule="nonzero" node-id="100" stroke="none" target-height="851.6" target-width="789.8" target-x="65" target-y="72"></path><path d="M 490.40 82.40 L 517.10 82.20 L 543.80 83.10 L 540.70 87.70 L 535.70 97.20 L 533.70 102.10 L 531.50 108.80 L 529.80 115.70 L 528.60 122.70 L 527.20 137.00 L 527.00 155.00 L 527.40 165.70 L 535.50 163.90 L 543.50 162.80 L 551.50 162.30 L 559.60 162.40 L 567.60 163.10 L 575.60 164.30 L 583.50 166.00 L 591.50 168.20 L 583.90 180.10 L 589.90 191.40 L 583.70 203.30 L 577.10 214.90 L 569.90 226.20 L 560.80 216.80 L 552.20 207.10 L 535.50 187.30 L 540.10 198.00 L 542.90 203.00 L 547.50 210.30 L 552.60 217.40 L 568.60 238.00 L 573.60 245.10 L 571.60 253.40 L 570.30 261.80 L 569.70 267.50 L 569.90 278.80 L 570.50 284.40 L 571.70 289.80 L 573.40 295.10 L 575.50 300.30 L 578.30 305.30 L 581.70 310.20 L 550.70 309.00 L 538.80 307.50 L 526.90 306.60 L 515.00 306.10 L 503.00 306.00 L 479.10 307.30 L 455.30 310.10 L 447.10 312.40 L 439.10 315.20 L 415.30 324.80 L 398.20 330.30 L 396.80 349.60 L 385.60 349.50 L 340.80 347.00 L 329.60 347.10 L 322.20 347.40 L 314.80 348.30 L 307.40 349.50 L 311.60 351.70 L 316.10 353.60 L 322.30 355.00 L 395.80 357.30 L 395.30 361.30 L 355.50 367.20 L 345.60 368.90 L 335.80 371.10 L 329.30 372.80 L 316.90 377.30 L 310.90 380.10 L 305.10 383.40 L 299.50 387.20 L 343.10 376.30 L 357.70 373.20 L 367.50 371.60 L 377.40 370.30 L 387.40 369.50 L 384.60 379.90 L 383.50 382.20 L 382.00 384.20 L 380.80 385.30 L 324.90 408.00 L 312.00 413.70 L 299.30 419.80 L 289.20 419.30 L 249.10 415.20 L 239.10 414.90 L 232.40 415.00 L 225.80 415.60 L 219.00 416.60 L 214.90 390.30 L 234.00 385.20 L 258.20 380.40 L 272.90 378.00 L 302.30 373.90 L 288.70 367.40 L 247.20 349.50 L 233.60 343.20 L 220.10 336.40 L 224.00 322.30 L 232.70 294.50 L 271.00 305.20 L 280.60 307.60 L 296.80 310.60 L 310.00 311.90 L 305.50 304.50 L 300.70 297.30 L 280.20 269.30 L 275.50 262.00 L 271.30 254.40 L 270.30 252.50 L 269.70 248.60 L 270.00 245.70 L 270.80 242.70 L 272.80 237.00 L 272.90 244.70 L 286.20 235.90 L 292.90 230.20 L 297.40 224.70 L 300.20 219.50 L 302.50 214.10 L 310.60 191.70 L 313.00 186.30 L 315.80 181.10 L 319.20 176.30 L 327.10 167.50 L 340.00 155.40 L 362.20 135.70 L 375.20 125.80 L 386.50 119.00 L 392.10 118.30 L 402.90 116.10 L 434.70 106.50 L 442.80 104.50 L 451.10 103.10 L 423.50 130.20 L 417.00 137.40 L 410.90 144.90 L 436.90 131.20 L 443.70 128.30 L 450.60 126.00 L 454.10 125.20 L 461.10 124.80 L 466.40 125.10 L 482.10 127.70 L 456.60 139.10 L 448.40 143.30 L 443.10 146.50 L 438.10 150.10 L 415.90 169.00 L 409.80 173.50 L 403.40 177.70 L 396.80 181.60 L 410.20 183.80 L 416.80 185.20 L 423.30 187.10 L 427.40 188.70 L 431.40 190.80 L 435.20 193.40 L 439.10 196.60 L 442.60 200.10 L 445.70 203.90 L 449.90 210.10 L 460.80 229.70 L 464.70 236.10 L 469.00 242.20 L 468.90 236.10 L 468.20 230.30 L 467.00 224.70 L 465.20 219.40 L 463.00 214.20 L 460.40 209.20 L 457.50 204.50 L 454.10 199.90 L 449.10 194.10 L 443.70 188.70 L 437.90 183.60 L 431.70 179.00 L 425.40 174.60 L 418.90 170.70 L 432.70 164.50 L 439.80 161.70 L 447.00 159.50 L 451.90 158.40 L 456.90 157.80 L 462.00 157.70 L 473.10 158.30 L 506.40 161.70 L 506.80 154.80 L 506.50 141.20 L 505.80 134.40 L 504.30 125.50 L 502.40 116.70 L 499.90 107.90 L 493.90 90.80 L 490.40 82.40 Z M 469.30 207.80 L 478.40 202.30 L 482.70 199.10 L 486.70 195.60 L 490.30 191.80 L 493.60 187.70 L 497.50 180.90 L 500.20 173.20 L 495.20 176.40 L 490.50 180.00 L 486.10 183.90 L 482.00 188.10 L 478.30 192.60 L 474.90 197.40 L 471.90 202.50 L 469.30 207.80 Z M 354.00 249.60 L 342.80 251.00 L 337.30 251.10 L 328.90 250.70 L 320.60 249.70 L 304.10 246.80 L 308.90 252.40 L 311.70 254.70 L 314.70 256.70 L 319.10 258.90 L 323.60 260.50 L 328.30 261.50 L 333.20 261.90 L 337.90 261.60 L 342.70 260.70 L 349.50 258.20 L 355.80 254.10 L 356.80 272.00 L 358.10 289.90 L 347.40 286.00 L 336.50 282.60 L 339.00 285.40 L 344.50 290.10 L 349.10 292.90 L 354.00 295.40 L 379.30 305.90 L 384.40 307.50 L 389.60 308.60 L 400.20 309.80 L 405.50 309.90 L 421.60 309.50 L 412.80 306.50 L 403.90 303.90 L 421.50 304.00 L 419.40 301.10 L 431.00 299.40 L 433.80 298.60 L 436.30 297.30 L 439.10 294.80 L 442.70 288.80 L 444.50 284.30 L 446.00 279.80 L 447.70 270.40 L 448.20 265.50 L 448.30 258.20 L 448.10 250.90 L 446.90 236.60 L 446.10 232.00 L 444.80 227.60 L 442.90 223.20 L 440.60 219.10 L 438.00 215.20 L 434.90 211.60 L 431.50 208.30 L 427.80 205.50 L 423.90 203.10 L 419.70 201.10 L 415.40 199.70 L 410.90 198.90 L 404.00 198.80 L 400.50 199.40 L 392.60 201.70 L 388.60 203.30 L 384.90 205.30 L 381.50 207.60 L 377.30 211.20 L 373.40 215.10 L 369.80 219.50 L 366.60 224.20 L 361.00 234.10 L 354.00 249.60 Z" fill="#e4904e" fill-rule="nonzero" node-id="102" stroke="none" target-height="337.59998" target-width="376.6" target-x="214.9" target-y="82.2"></path><path d="M 233.70 174.80 L 233.10 169.10 L 233.00 163.50 L 233.50 157.90 L 234.40 152.40 L 235.90 147.00 L 237.70 141.80 L 240.00 136.70 L 242.70 131.80 L 245.80 127.00 L 249.20 122.60 L 252.90 118.30 L 257.00 114.30 L 261.30 110.60 L 265.90 107.30 L 270.60 104.30 L 275.60 101.70 L 280.80 99.40 L 286.10 97.60 L 291.50 96.30 L 297.10 95.40 L 302.80 94.90 L 308.40 94.90 L 313.90 95.40 L 319.40 96.30 L 330.10 99.50 L 340.40 104.10 L 346.90 107.90 L 353.10 112.10 L 359.00 116.70 L 338.50 137.90 L 329.10 131.40 L 319.20 125.70 L 315.80 124.20 L 308.60 122.20 L 305.00 121.70 L 301.20 121.60 L 292.60 122.10 L 288.30 122.90 L 284.30 124.20 L 280.40 126.00 L 276.80 128.20 L 273.50 131.00 L 270.40 134.00 L 267.70 137.40 L 265.20 141.00 L 261.40 148.90 L 259.00 157.40 L 258.20 165.90 L 259.60 173.70 L 260.90 177.30 L 263.20 182.70 L 266.00 187.90 L 278.10 208.10 L 276.70 213.70 L 272.10 224.40 L 259.40 214.50 L 253.50 209.00 L 248.00 203.20 L 244.70 199.00 L 239.00 190.00 L 236.80 185.20 L 235.00 180.20 L 233.70 174.80 Z" fill="#d67a45" fill-rule="nonzero" node-id="104" stroke="none" target-height="129.5" target-width="126" target-x="233" target-y="94.9"></path><path d="M 395.10 103.10 L 401.80 100.80 L 408.60 98.80 L 422.50 95.60 L 413.80 102.20 L 404.80 108.20 L 395.10 103.10 Z" fill="#ad7856" fill-rule="nonzero" node-id="106" stroke="none" target-height="12.599998" target-width="27.399994" target-x="395.1" target-y="95.6"></path><path d="M 610.30 96.00 L 626.70 102.20 L 642.60 109.80 L 652.80 115.50 L 662.80 121.60 L 672.60 128.10 L 679.00 121.60 L 696.30 139.30 L 690.30 143.70 L 721.50 181.50 L 738.20 203.00 L 744.30 211.90 L 750.20 221.00 L 758.00 235.20 L 761.50 242.70 L 764.70 250.30 L 750.40 260.20 L 741.70 248.80 L 733.50 237.20 L 701.70 189.70 L 693.30 178.20 L 684.40 167.00 L 679.60 161.50 L 674.40 156.30 L 669.00 151.50 L 660.50 144.70 L 633.60 125.90 L 610.30 96.00 Z" fill="#cc653f" fill-rule="nonzero" node-id="108" stroke="none" target-height="164.20001" target-width="154.40002" target-x="610.3" target-y="96"></path><path d="M 679.00 121.60 L 683.60 117.00 L 688.60 112.70 L 693.90 108.90 L 699.40 105.50 L 705.30 102.70 L 711.30 100.40 L 716.00 99.00 L 725.60 97.40 L 730.50 97.10 L 735.60 97.10 L 745.50 98.20 L 750.40 99.40 L 756.70 101.50 L 762.70 104.10 L 768.50 107.30 L 774.00 111.10 L 779.20 115.20 L 784.00 119.90 L 788.40 124.90 L 792.30 130.30 L 795.70 136.00 L 798.60 141.90 L 800.90 148.10 L 802.70 154.50 L 804.00 164.40 L 804.10 169.40 L 803.60 179.30 L 802.90 183.80 L 801.90 188.20 L 800.40 192.50 L 798.00 198.00 L 795.00 203.20 L 791.50 208.20 L 787.60 212.80 L 783.20 217.10 L 778.50 221.00 L 773.50 224.60 L 768.30 227.70 L 762.90 230.50 L 761.80 227.60 L 757.60 218.70 L 756.60 215.70 L 756.10 212.70 L 756.20 210.80 L 756.80 208.80 L 766.70 189.50 L 771.20 179.60 L 773.60 171.50 L 774.30 167.30 L 774.50 163.00 L 774.00 154.70 L 773.30 151.00 L 772.30 147.50 L 770.90 144.10 L 767.00 137.80 L 761.90 132.40 L 757.90 129.30 L 753.70 126.80 L 749.10 124.80 L 745.50 123.70 L 738.20 122.60 L 734.40 122.60 L 729.60 122.80 L 725.00 123.60 L 720.60 124.90 L 716.20 126.70 L 707.90 131.20 L 696.30 139.30 L 679.00 121.60 Z" fill="#d77640" fill-rule="nonzero" node-id="110" stroke="none" target-height="133.4" target-width="125.099976" target-x="679" target-y="97.1"></path><path d="M 313.50 462.10 L 331.50 445.60 L 340.80 437.60 L 356.80 424.90 L 370.30 415.90 L 377.30 411.80 L 384.60 408.10 L 392.10 404.70 L 378.50 415.00 L 365.20 425.60 L 352.20 436.60 L 339.40 447.80 L 327.00 459.40 L 291.80 493.70 L 295.10 486.90 L 298.80 480.30 L 302.80 473.90 L 313.50 462.10 Z" fill="#30182d" fill-rule="nonzero" node-id="112" stroke="none" target-height="89" target-width="100.30002" target-x="291.8" target-y="404.7"></path><path d="M 320.70 165.50 L 327.40 156.80 L 334.40 148.50 L 341.80 140.40 L 353.60 129.10 L 366.40 118.90 L 373.10 114.30 L 380.10 110.20 L 387.50 106.50 L 395.10 103.10 L 404.80 108.20 L 380.80 122.20 L 369.90 129.60 L 362.20 135.70 L 354.70 142.20 L 331.30 163.40 L 323.00 171.80 L 319.20 176.30 L 315.80 181.10 L 313.00 186.30 L 308.50 197.30 L 302.50 214.10 L 300.20 219.50 L 297.40 224.70 L 295.30 227.60 L 290.40 232.60 L 281.90 239.00 L 272.90 244.70 L 272.80 237.00 L 278.80 223.90 L 282.30 217.70 L 288.10 208.60 L 294.40 199.80 L 320.70 165.50 Z" fill="#f3d9ba" fill-rule="nonzero" node-id="114" stroke="none" target-height="141.6" target-width="132" target-x="272.8" target-y="103.1"></path><path d="M 607.50 116.40 L 633.60 125.90 L 660.50 144.70 L 669.00 151.50 L 674.40 156.30 L 679.60 161.50 L 684.40 167.00 L 693.30 178.20 L 701.70 189.70 L 709.70 201.50 L 733.50 237.20 L 741.70 248.80 L 750.40 260.20 L 764.70 250.30 L 764.30 257.40 L 763.70 259.60 L 762.80 261.70 L 756.60 268.60 L 751.60 273.20 L 746.30 277.50 L 738.00 283.50 L 711.70 299.60 L 724.50 306.30 L 732.80 309.60 L 736.60 310.60 L 746.40 311.80 L 764.30 311.70 L 763.10 320.10 L 762.50 328.50 L 762.40 336.90 L 762.90 345.40 L 735.90 354.20 L 729.00 356.00 L 722.00 357.20 L 717.40 357.40 L 708.20 356.80 L 687.70 353.50 L 674.70 351.90 L 668.50 351.50 L 652.90 351.70 L 624.90 353.90 L 618.50 339.10 L 632.40 337.10 L 646.30 334.70 L 655.40 332.80 L 664.50 330.40 L 673.40 327.70 L 663.30 326.90 L 650.80 327.80 L 620.80 332.70 L 613.30 333.40 L 609.10 324.40 L 640.50 315.80 L 648.30 313.30 L 655.80 310.10 L 658.90 308.20 L 661.70 306.10 L 664.10 303.60 L 668.20 297.90 L 672.20 289.90 L 678.20 275.00 L 685.90 274.30 L 698.60 272.10 L 708.20 269.10 L 712.90 267.10 L 717.30 264.70 L 721.50 262.00 L 725.40 258.80 L 729.00 255.10 L 732.40 250.90 L 716.10 257.80 L 704.90 261.20 L 699.20 262.50 L 693.40 263.20 L 687.50 263.40 L 681.50 263.00 L 676.80 249.50 L 671.20 235.90 L 667.90 229.30 L 664.00 223.30 L 661.20 219.50 L 658.00 216.00 L 654.50 212.80 L 650.70 210.00 L 646.50 207.60 L 637.00 203.70 L 632.30 202.50 L 627.50 201.80 L 622.70 201.70 L 617.90 202.00 L 613.00 202.70 L 605.90 204.30 L 584.70 211.00 L 593.80 200.60 L 597.00 197.30 L 600.50 194.40 L 604.30 192.00 L 609.80 189.70 L 618.70 188.50 L 624.40 188.40 L 629.90 188.90 L 640.80 191.20 L 654.10 196.10 L 677.20 206.90 L 673.00 202.10 L 668.20 197.60 L 663.00 193.50 L 657.50 189.90 L 651.60 186.80 L 645.50 184.30 L 639.20 182.30 L 632.90 180.90 L 626.50 180.20 L 621.60 180.00 L 616.80 180.30 L 612.10 181.10 L 607.40 182.20 L 602.80 183.80 L 598.40 185.80 L 594.10 188.30 L 589.90 191.40 L 583.90 180.10 L 591.50 168.20 L 603.20 169.50 L 599.10 164.40 L 594.60 159.70 L 589.70 155.50 L 584.60 151.70 L 579.10 148.20 L 573.50 145.10 L 561.60 139.80 L 555.50 137.60 L 564.70 130.10 L 569.50 126.50 L 574.60 123.40 L 583.40 124.80 L 593.90 128.10 L 618.40 139.00 L 624.60 141.30 L 607.50 116.40 Z" fill="#e58746" fill-rule="nonzero" node-id="116" stroke="none" target-height="241" target-width="209.20001" target-x="555.5" target-y="116.4"></path><path d="M 262.20 166.50 L 262.80 158.70 L 264.80 150.80 L 268.20 143.40 L 270.40 140.00 L 275.60 134.00 L 278.60 131.50 L 281.90 129.40 L 285.40 127.70 L 289.10 126.50 L 293.10 125.90 L 301.20 125.50 L 304.90 125.70 L 308.40 126.30 L 311.80 127.30 L 316.20 129.20 L 320.30 131.70 L 324.10 134.70 L 327.70 138.00 L 334.00 145.50 L 325.00 154.80 L 307.70 174.00 L 291.50 194.10 L 283.80 204.50 L 276.70 197.60 L 273.50 193.80 L 270.50 189.70 L 268.00 185.40 L 265.80 180.90 L 264.10 176.30 L 262.90 171.50 L 262.20 166.50 Z M 278.20 138.40 L 276.40 149.50 L 275.80 155.10 L 275.70 160.70 L 275.90 164.30 L 276.60 167.90 L 277.70 171.30 L 279.20 174.50 L 281.30 177.70 L 284.00 180.70 L 295.80 170.50 L 299.40 166.70 L 301.50 163.90 L 303.10 161.00 L 304.30 158.00 L 304.90 153.20 L 304.70 150.50 L 304.00 147.70 L 302.90 145.00 L 301.50 142.90 L 299.80 141.20 L 295.70 138.80 L 293.30 138.10 L 289.60 137.60 L 285.70 137.50 L 278.20 138.40 Z" fill="#e0aea0" fill-rule="nonzero" node-id="118" stroke="none" target-height="79" target-width="71.79999" target-x="262.2" target-y="125.5"></path><path d="M 700.80 142.90 L 711.40 136.50 L 716.80 133.60 L 722.50 131.00 L 730.30 128.70 L 734.50 128.00 L 738.00 128.00 L 744.70 129.10 L 748.00 130.20 L 752.20 132.20 L 756.00 134.70 L 759.60 137.70 L 762.80 141.10 L 765.40 144.80 L 767.60 148.80 L 768.80 152.10 L 769.70 155.40 L 770.10 158.80 L 769.90 167.80 L 769.00 173.00 L 767.60 178.10 L 763.30 187.90 L 756.10 199.30 L 751.40 205.70 L 724.90 175.30 L 716.30 164.90 L 705.70 150.40 L 700.80 142.90 Z" fill="#dfbdb4" fill-rule="nonzero" node-id="120" stroke="none" target-height="77.7" target-width="69.29999" target-x="700.8" target-y="128"></path><path d="M 278.20 138.40 L 285.70 137.50 L 289.60 137.60 L 293.30 138.10 L 297.90 139.90 L 299.80 141.20 L 301.50 142.90 L 302.90 145.00 L 304.00 147.70 L 304.70 150.50 L 304.80 155.70 L 304.30 158.00 L 303.10 161.00 L 301.50 163.90 L 299.40 166.70 L 295.80 170.50 L 284.00 180.70 L 281.30 177.70 L 279.20 174.50 L 277.70 171.30 L 276.60 167.90 L 275.90 164.30 L 275.70 160.70 L 275.80 155.10 L 276.40 149.50 L 278.20 138.40 Z" fill="#f1eae6" fill-rule="nonzero" node-id="122" stroke="none" target-height="43.199997" target-width="29.099976" target-x="275.7" target-y="137.5"></path><path d="M 469.30 207.80 L 471.90 202.50 L 474.90 197.40 L 478.30 192.60 L 482.00 188.10 L 486.10 183.90 L 490.50 180.00 L 495.20 176.40 L 500.20 173.20 L 499.00 177.20 L 495.70 184.40 L 493.60 187.70 L 490.30 191.80 L 486.70 195.60 L 482.70 199.10 L 478.40 202.30 L 469.30 207.80 Z" fill="#763f30" fill-rule="nonzero" node-id="124" stroke="none" target-height="34.600006" target-width="30.900024" target-x="469.3" target-y="173.2"></path><path d="M 589.90 191.40 L 594.10 188.30 L 598.40 185.80 L 602.80 183.80 L 607.40 182.20 L 612.10 181.10 L 616.80 180.30 L 621.60 180.00 L 626.50 180.20 L 632.90 180.90 L 639.20 182.30 L 645.50 184.30 L 651.60 186.80 L 657.50 189.90 L 663.00 193.50 L 668.20 197.60 L 673.00 202.10 L 677.20 206.90 L 654.10 196.10 L 640.80 191.20 L 629.90 188.90 L 624.40 188.40 L 618.70 188.50 L 609.80 189.70 L 604.30 192.00 L 600.50 194.40 L 597.00 197.30 L 593.80 200.60 L 584.70 211.00 L 605.90 204.30 L 613.00 202.70 L 617.90 202.00 L 622.70 201.70 L 627.50 201.80 L 632.30 202.50 L 637.00 203.70 L 646.50 207.60 L 650.70 210.00 L 654.50 212.80 L 658.00 216.00 L 661.20 219.50 L 664.00 223.30 L 667.90 229.30 L 671.20 235.90 L 676.80 249.50 L 681.50 263.00 L 687.50 263.40 L 693.40 263.20 L 699.20 262.50 L 704.90 261.20 L 716.10 257.80 L 732.40 250.90 L 729.00 255.10 L 725.40 258.80 L 721.50 262.00 L 717.30 264.70 L 712.90 267.10 L 708.20 269.10 L 698.60 272.10 L 685.90 274.30 L 678.20 275.00 L 672.20 289.90 L 668.20 297.90 L 664.10 303.60 L 661.70 306.10 L 658.90 308.20 L 655.80 310.10 L 648.30 313.30 L 640.50 315.80 L 609.10 324.40 L 604.20 316.20 L 623.60 312.20 L 640.60 308.10 L 648.60 304.90 L 652.30 302.70 L 655.80 300.10 L 658.90 297.00 L 661.70 293.30 L 664.10 289.50 L 666.00 285.40 L 667.50 281.20 L 668.70 276.80 L 669.80 267.80 L 669.80 263.20 L 669.20 257.10 L 668.00 251.20 L 666.20 245.30 L 663.90 239.60 L 661.00 234.30 L 657.50 229.30 L 654.60 225.80 L 651.40 222.70 L 648.00 219.80 L 644.30 217.30 L 640.40 215.10 L 636.20 213.40 L 631.80 212.10 L 623.00 210.60 L 614.90 210.50 L 611.00 211.00 L 605.80 212.20 L 600.80 214.00 L 596.10 216.40 L 591.60 219.30 L 587.50 222.60 L 583.70 226.50 L 580.40 230.70 L 577.60 235.20 L 575.20 240.20 L 573.60 245.10 L 568.60 238.00 L 552.60 217.40 L 547.50 210.30 L 542.90 203.00 L 540.10 198.00 L 535.50 187.30 L 552.20 207.10 L 560.80 216.80 L 569.90 226.20 L 577.10 214.90 L 583.70 203.30 L 589.90 191.40 Z" fill="#33162b" fill-rule="nonzero" node-id="126" stroke="none" target-height="144.4" target-width="196.90002" target-x="535.5" target-y="180"></path><path d="M 354.00 249.60 L 361.00 234.10 L 363.70 229.10 L 369.90 219.50 L 373.40 215.10 L 377.30 211.20 L 381.50 207.60 L 384.90 205.30 L 388.60 203.30 L 392.60 201.70 L 400.50 199.40 L 404.00 198.80 L 410.90 198.90 L 415.40 199.70 L 419.70 201.10 L 423.90 203.10 L 427.80 205.50 L 431.50 208.30 L 434.90 211.60 L 438.00 215.20 L 440.60 219.10 L 442.90 223.20 L 444.80 227.60 L 446.10 232.00 L 446.90 236.60 L 448.10 250.90 L 448.30 258.20 L 448.20 265.50 L 447.80 270.40 L 446.00 279.80 L 444.50 284.30 L 442.70 288.80 L 440.30 293.00 L 439.10 294.80 L 436.30 297.30 L 433.80 298.60 L 431.00 299.40 L 419.40 301.10 L 415.00 295.60 L 410.90 289.40 L 408.40 285.10 L 406.40 280.70 L 404.70 276.20 L 403.60 271.60 L 403.10 266.90 L 403.20 262.30 L 403.80 258.90 L 404.80 255.50 L 409.80 245.50 L 411.50 242.80 L 413.40 240.40 L 418.10 236.50 L 425.00 233.00 L 429.50 231.50 L 438.80 229.50 L 433.20 221.60 L 430.00 217.90 L 426.40 214.60 L 423.90 212.70 L 418.30 209.90 L 415.30 209.10 L 412.00 208.70 L 408.50 208.80 L 404.30 209.20 L 400.30 210.00 L 396.60 211.10 L 393.10 212.60 L 388.60 215.20 L 384.50 218.20 L 380.70 221.70 L 377.30 225.70 L 374.30 230.00 L 371.70 234.60 L 369.50 239.50 L 367.70 244.60 L 366.30 249.80 L 365.40 255.20 L 364.80 260.50 L 364.80 265.80 L 365.10 271.10 L 366.00 276.20 L 367.30 281.00 L 369.00 284.60 L 371.10 287.80 L 373.50 290.50 L 379.20 295.10 L 382.40 297.00 L 387.60 299.30 L 393.00 301.20 L 408.40 305.10 L 421.60 309.50 L 413.60 309.80 L 400.20 309.80 L 389.60 308.60 L 384.40 307.50 L 379.30 305.90 L 354.00 295.40 L 349.10 292.90 L 344.50 290.10 L 341.60 287.90 L 336.50 282.60 L 347.40 286.00 L 358.10 289.90 L 356.80 272.00 L 355.80 254.10 L 349.50 258.20 L 342.70 260.70 L 337.90 261.60 L 333.20 261.90 L 328.30 261.50 L 323.60 260.50 L 319.10 258.90 L 314.70 256.70 L 308.90 252.40 L 304.10 246.80 L 320.60 249.70 L 328.90 250.70 L 337.30 251.10 L 342.80 251.00 L 354.00 249.60 Z M 410.90 245.40 L 416.20 247.70 L 418.90 248.30 L 423.00 248.70 L 427.20 248.50 L 435.70 247.50 L 436.40 236.60 L 427.30 237.80 L 422.80 238.80 L 418.50 240.30 L 415.90 241.60 L 410.90 245.40 Z" fill="#321728" fill-rule="nonzero" node-id="128" stroke="none" target-height="110.999985" target-width="144.19998" target-x="304.1" target-y="198.8"></path><path d="M 367.30 281.00 L 366.00 276.20 L 365.10 271.10 L 364.80 265.80 L 364.80 260.50 L 365.40 255.20 L 366.30 249.80 L 367.70 244.60 L 369.50 239.50 L 371.70 234.60 L 374.30 230.00 L 377.30 225.70 L 380.70 221.70 L 384.50 218.20 L 388.60 215.20 L 393.10 212.60 L 396.60 211.10 L 400.30 210.00 L 404.30 209.20 L 412.00 208.70 L 415.30 209.10 L 418.30 209.90 L 423.90 212.70 L 426.40 214.60 L 430.00 217.90 L 433.20 221.60 L 438.80 229.50 L 429.50 231.50 L 425.00 233.00 L 420.70 234.90 L 415.60 238.30 L 411.50 242.80 L 409.80 245.50 L 404.80 255.50 L 403.80 258.90 L 403.20 262.30 L 403.10 266.90 L 403.60 271.60 L 404.70 276.20 L 406.40 280.70 L 408.40 285.10 L 410.90 289.40 L 415.00 295.60 L 421.50 304.00 L 403.90 303.90 L 393.00 301.20 L 387.60 299.30 L 382.40 297.00 L 379.20 295.10 L 373.50 290.50 L 371.10 287.80 L 369.00 284.60 L 367.30 281.00 Z" fill="#f6f3f0" fill-rule="nonzero" node-id="130" stroke="none" target-height="95.3" target-width="74" target-x="364.8" target-y="208.7"></path><path d="M 575.20 240.20 L 577.60 235.20 L 580.40 230.70 L 583.70 226.50 L 587.50 222.60 L 591.60 219.30 L 596.10 216.40 L 600.80 214.00 L 605.80 212.20 L 611.00 211.00 L 614.90 210.50 L 623.00 210.60 L 627.20 211.20 L 631.80 212.10 L 636.20 213.40 L 640.40 215.10 L 644.30 217.30 L 648.00 219.80 L 651.40 222.70 L 654.60 225.80 L 657.50 229.30 L 661.00 234.30 L 663.90 239.60 L 666.20 245.30 L 668.00 251.20 L 669.20 257.10 L 669.80 263.20 L 669.80 267.80 L 668.70 276.80 L 667.50 281.20 L 666.00 285.40 L 664.10 289.50 L 661.70 293.30 L 658.90 297.00 L 655.80 300.10 L 652.30 302.70 L 648.60 304.90 L 640.60 308.10 L 623.60 312.20 L 606.40 310.80 L 609.20 303.00 L 611.60 294.80 L 612.70 289.20 L 613.90 278.00 L 613.90 272.30 L 613.30 266.80 L 612.10 261.40 L 610.90 257.40 L 607.30 249.80 L 603.60 244.00 L 602.20 242.40 L 600.60 241.10 L 596.90 239.50 L 594.90 239.20 L 588.30 239.10 L 575.20 240.20 Z" fill="#f5f0ee" fill-rule="nonzero" node-id="132" stroke="none" target-height="101.70001" target-width="94.599976" target-x="575.2" target-y="210.5"></path><path d="M 821.40 249.50 L 828.80 233.60 L 831.80 228.60 L 834.00 225.50 L 836.60 222.70 L 839.40 220.30 L 844.30 217.50 L 847.10 216.50 L 853.50 215.00 L 856.50 214.70 L 859.30 214.90 L 862.00 215.60 L 867.10 217.80 L 870.70 220.20 L 874.10 223.10 L 886.90 235.20 L 903.40 234.30 L 907.50 234.30 L 911.50 234.80 L 916.50 236.50 L 922.30 240.00 L 925.10 242.40 L 927.50 245.00 L 930.70 249.50 L 941.40 269.20 L 946.20 275.70 L 948.50 280.00 L 949.50 283.40 L 950.10 287.00 L 950.70 301.80 L 951.90 305.40 L 958.30 319.20 L 959.40 322.80 L 959.90 327.70 L 958.70 343.30 L 957.40 351.80 L 956.10 355.90 L 954.90 358.40 L 951.50 363.10 L 948.90 365.70 L 946.00 367.80 L 942.90 369.40 L 939.70 370.60 L 932.70 371.80 L 927.30 371.90 L 921.80 371.30 L 916.50 370.20 L 908.70 367.90 L 900.10 364.60 L 897.20 363.80 L 892.40 363.70 L 884.00 366.50 L 879.70 368.50 L 875.70 370.90 L 870.10 375.00 L 864.80 379.60 L 854.80 389.50 L 847.80 386.30 L 856.50 377.90 L 861.10 374.20 L 868.40 368.90 L 876.00 364.00 L 891.70 355.30 L 895.80 336.20 L 897.10 327.80 L 898.80 311.00 L 882.80 297.80 L 874.40 292.00 L 869.90 289.70 L 865.10 287.90 L 861.00 287.20 L 857.30 287.10 L 853.80 287.70 L 850.40 288.70 L 847.20 290.10 L 844.10 291.90 L 839.70 295.20 L 835.40 298.90 L 823.20 310.80 L 806.80 325.10 L 806.10 316.20 L 814.60 309.30 L 822.90 302.00 L 839.10 287.10 L 834.00 277.10 L 824.90 256.70 L 812.90 265.30 L 805.60 271.90 L 802.40 275.50 L 799.60 279.40 L 797.30 283.70 L 795.50 288.50 L 790.50 278.50 L 793.40 274.70 L 799.90 267.90 L 816.20 254.30 L 821.40 249.50 Z M 835.10 266.30 L 841.40 276.40 L 844.00 279.30 L 847.90 282.50 L 850.20 283.60 L 852.50 284.20 L 855.20 284.40 L 858.20 284.10 L 860.70 284.40 L 862.80 284.10 L 864.60 283.40 L 866.20 282.40 L 869.20 279.30 L 872.80 273.90 L 874.10 268.50 L 875.20 262.40 L 875.90 256.20 L 876.10 249.90 L 875.90 245.70 L 874.40 238.00 L 873.00 234.40 L 871.10 231.10 L 868.80 228.30 L 866.70 226.40 L 864.30 224.90 L 861.40 223.50 L 858.10 222.50 L 854.80 222.50 L 851.80 222.90 L 849.10 223.60 L 846.60 224.70 L 843.50 226.80 L 840.80 229.20 L 838.40 232.20 L 836.40 235.60 L 834.80 239.10 L 833.60 243.00 L 832.90 247.00 L 832.50 251.00 L 832.50 255.00 L 833.00 259.00 L 833.80 262.80 L 835.10 266.30 Z M 893.80 243.10 L 889.10 246.90 L 887.30 249.20 L 885.10 252.90 L 883.30 256.90 L 882.00 261.20 L 878.80 274.50 L 876.10 282.90 L 889.60 295.60 L 894.40 299.50 L 899.40 303.00 L 904.80 306.00 L 908.30 306.20 L 915.00 305.50 L 919.90 304.20 L 924.80 302.50 L 943.90 294.60 L 938.20 276.50 L 913.40 269.80 L 925.00 252.90 L 919.20 247.60 L 916.00 245.30 L 912.60 243.40 L 909.00 242.10 L 905.30 241.20 L 902.50 241.00 L 899.70 241.30 L 896.80 241.90 L 893.80 243.10 Z M 902.40 314.50 L 901.70 319.00 L 897.80 337.60 L 897.50 345.20 L 898.80 351.30 L 901.00 354.00 L 903.60 356.30 L 906.60 358.30 L 913.30 361.30 L 916.90 362.30 L 924.40 363.20 L 931.80 362.60 L 935.40 361.70 L 938.70 360.50 L 941.90 358.90 L 944.80 356.80 L 947.30 354.40 L 949.40 351.60 L 951.10 348.40 L 952.30 344.70 L 941.80 340.00 L 931.80 334.30 L 953.10 329.00 L 951.60 321.00 L 949.90 316.00 L 947.30 312.60 L 944.10 310.70 L 940.60 309.60 L 937.20 308.80 L 933.80 308.50 L 928.50 308.70 L 923.20 309.50 L 902.40 314.50 Z" fill="#3a2334" fill-rule="nonzero" node-id="134" stroke="none" target-height="174.8" target-width="169.40002" target-x="790.5" target-y="214.7"></path><path d="M 835.10 266.30 L 833.80 262.80 L 833.00 259.00 L 832.50 255.00 L 832.50 251.00 L 832.90 247.00 L 833.60 243.00 L 834.80 239.10 L 836.40 235.60 L 838.40 232.20 L 840.80 229.20 L 843.50 226.80 L 846.60 224.70 L 849.10 223.60 L 851.80 222.90 L 854.80 222.50 L 858.10 222.50 L 861.40 223.50 L 864.30 224.90 L 866.70 226.40 L 868.80 228.30 L 871.10 231.10 L 873.00 234.40 L 874.40 238.00 L 875.90 245.70 L 876.10 249.90 L 875.90 256.20 L 875.20 262.40 L 872.80 273.90 L 860.30 271.00 L 835.10 266.30 Z" fill="#f5ece9" fill-rule="nonzero" node-id="136" stroke="none" target-height="51.399994" target-width="43.599976" target-x="832.5" target-y="222.5"></path><path d="M 155.50 253.10 L 159.40 243.60 L 168.80 225.50 L 184.90 225.10 L 190.00 226.00 L 192.30 226.90 L 194.40 228.20 L 196.30 230.00 L 197.90 232.50 L 199.80 237.10 L 201.00 241.70 L 201.60 246.30 L 201.70 251.00 L 201.30 255.70 L 200.30 260.40 L 198.90 265.00 L 197.20 269.40 L 195.00 273.70 L 192.50 277.90 L 186.60 285.40 L 173.40 282.40 L 166.90 280.60 L 160.50 278.20 L 157.00 265.80 L 156.20 261.60 L 155.50 253.10 Z" fill="#f8f3ef" fill-rule="nonzero" node-id="138" stroke="none" target-height="60.299988" target-width="46.199997" target-x="155.5" target-y="225.1"></path><path d="M 107.70 241.50 L 110.00 238.70 L 112.60 236.20 L 115.60 234.10 L 118.80 232.50 L 122.20 231.20 L 125.70 230.30 L 129.30 229.80 L 132.90 229.90 L 136.50 230.30 L 139.90 231.20 L 143.20 232.60 L 146.40 234.50 L 147.70 238.30 L 149.50 246.10 L 150.10 252.00 L 150.70 276.30 L 151.50 282.30 L 142.00 289.80 L 133.00 297.80 L 124.30 306.20 L 119.10 306.20 L 114.10 305.60 L 109.20 304.50 L 102.40 301.70 L 96.20 297.60 L 93.50 295.10 L 91.10 292.30 L 88.90 289.20 L 87.00 285.60 L 87.20 282.30 L 87.80 279.40 L 88.80 276.80 L 90.10 274.40 L 92.30 271.50 L 95.00 269.10 L 98.10 267.00 L 101.50 265.30 L 105.10 264.00 L 112.90 262.70 L 120.50 262.80 L 111.40 248.90 L 107.70 241.50 Z" fill="#f5e6e1" fill-rule="nonzero" node-id="140" stroke="none" target-height="76.40001" target-width="64.5" target-x="87" target-y="229.8"></path><path d="M 575.20 240.20 L 591.70 239.00 L 596.90 239.50 L 600.60 241.10 L 602.20 242.40 L 603.60 244.00 L 607.30 249.80 L 609.30 253.60 L 612.10 261.40 L 613.30 266.80 L 613.90 272.30 L 613.90 278.00 L 612.70 289.20 L 611.60 294.80 L 609.20 303.00 L 606.40 310.80 L 581.70 310.20 L 578.30 305.30 L 575.50 300.30 L 573.40 295.10 L 571.70 289.80 L 570.50 284.40 L 569.90 278.80 L 569.60 273.20 L 570.30 261.80 L 571.60 253.40 L 573.60 245.10 L 575.20 240.20 Z M 578.50 258.70 L 606.00 259.10 L 602.10 250.10 L 599.30 245.50 L 596.40 243.00 L 594.60 242.20 L 592.50 241.80 L 590.00 241.90 L 586.40 244.80 L 583.20 249.40 L 578.50 258.70 Z" fill="#281728" fill-rule="nonzero" node-id="142" stroke="none" target-height="71.79999" target-width="44.30005" target-x="569.6" target-y="239"></path><path d="M 893.80 243.10 L 896.80 241.90 L 899.70 241.30 L 902.50 241.00 L 905.30 241.20 L 909.00 242.10 L 912.60 243.40 L 916.00 245.30 L 919.20 247.60 L 925.00 252.90 L 913.40 269.80 L 938.20 276.50 L 943.90 294.60 L 924.80 302.50 L 919.90 304.20 L 911.70 306.00 L 904.80 306.00 L 899.40 303.00 L 894.40 299.50 L 889.60 295.60 L 876.10 282.90 L 878.80 274.50 L 882.00 261.20 L 883.30 256.90 L 885.10 252.90 L 887.30 249.20 L 889.10 246.90 L 893.80 243.10 Z" fill="#f3e6e1" fill-rule="nonzero" node-id="144" stroke="none" target-height="65" target-width="67.80005" target-x="876.1" target-y="241"></path><path d="M 578.50 258.70 L 583.20 249.40 L 586.40 244.80 L 590.00 241.90 L 592.50 241.80 L 594.60 242.20 L 596.40 243.00 L 599.30 245.50 L 602.10 250.10 L 606.00 259.10 L 578.50 258.70 Z" fill="#ddd9d9" fill-rule="nonzero" node-id="146" stroke="none" target-height="17.300003" target-width="27.5" target-x="578.5" target-y="241.8"></path><path d="M 211.10 255.90 L 225.00 263.30 L 238.80 271.20 L 226.50 290.50 L 215.10 310.40 L 194.10 289.00 L 203.00 272.70 L 211.10 255.90 Z" fill="#f9f5f2" fill-rule="nonzero" node-id="148" stroke="none" target-height="54.5" target-width="44.699997" target-x="194.1" target-y="255.9"></path><path d="M 795.50 288.50 L 797.30 283.70 L 799.60 279.40 L 802.40 275.50 L 805.60 271.90 L 812.90 265.30 L 824.90 256.70 L 834.00 277.10 L 839.10 287.10 L 822.90 302.00 L 814.60 309.30 L 806.10 316.20 L 801.60 302.00 L 798.80 295.20 L 795.50 288.50 Z" fill="#f9f7f6" fill-rule="nonzero" node-id="150" stroke="none" target-height="59.5" target-width="43.599976" target-x="795.5" target-y="256.7"></path><path d="M 835.10 266.30 L 860.30 271.00 L 872.80 273.90 L 867.80 281.00 L 864.60 283.40 L 862.80 284.10 L 860.70 284.40 L 858.20 284.10 L 855.20 284.40 L 852.50 284.20 L 850.20 283.60 L 847.90 282.50 L 844.00 279.30 L 841.40 276.40 L 839.10 273.00 L 835.10 266.30 Z" fill="#cba2a7" fill-rule="nonzero" node-id="152" stroke="none" target-height="18.100006" target-width="37.700012" target-x="835.1" target-y="266.3"></path><path d="M 819.10 314.30 L 823.20 310.80 L 835.40 298.90 L 839.70 295.20 L 844.10 291.90 L 847.20 290.10 L 850.40 288.70 L 853.80 287.70 L 857.30 287.10 L 861.00 287.20 L 865.10 287.90 L 869.90 289.70 L 874.40 292.00 L 882.80 297.80 L 898.80 311.00 L 897.10 327.80 L 895.80 336.20 L 894.10 344.50 L 885.90 347.10 L 877.40 349.30 L 871.60 350.40 L 860.00 351.60 L 854.20 351.50 L 848.50 350.80 L 843.00 349.60 L 839.00 348.20 L 835.20 346.30 L 831.40 344.00 L 825.60 339.60 L 823.80 337.80 L 822.40 335.90 L 820.90 332.70 L 820.00 329.10 L 819.20 321.70 L 819.10 314.30 Z" fill="#f0eae7" fill-rule="nonzero" node-id="154" stroke="none" target-height="64.5" target-width="79.70001" target-x="819.1" target-y="287.1"></path><path d="M 147.20 293.00 L 151.10 291.00 L 155.00 289.50 L 158.90 288.50 L 162.90 287.90 L 171.00 288.00 L 179.00 289.70 L 184.20 291.60 L 189.10 294.10 L 193.90 297.00 L 198.40 300.50 L 202.40 304.30 L 206.00 308.60 L 209.10 313.10 L 211.70 317.90 L 213.60 322.90 L 205.00 344.30 L 202.50 349.70 L 199.60 354.60 L 197.30 357.60 L 194.80 360.30 L 192.10 362.60 L 189.00 364.50 L 185.60 365.90 L 181.60 366.90 L 175.70 365.50 L 169.80 363.70 L 164.00 361.30 L 158.40 358.40 L 153.20 355.10 L 148.30 351.30 L 144.90 348.10 L 139.10 341.10 L 136.60 337.20 L 134.50 333.20 L 132.90 328.90 L 131.70 324.30 L 130.20 316.60 L 130.20 313.80 L 130.60 311.30 L 131.50 308.80 L 134.50 304.10 L 137.40 301.00 L 140.60 298.10 L 147.20 293.00 Z" fill="#f0dfd7" fill-rule="nonzero" node-id="156" stroke="none" target-height="79" target-width="83.40001" target-x="130.2" target-y="287.9"></path><path d="M 84.00 307.60 L 87.40 306.20 L 90.80 305.50 L 94.20 305.30 L 100.90 306.00 L 109.40 308.60 L 124.10 314.50 L 127.90 335.60 L 128.80 339.10 L 129.20 342.20 L 129.10 345.10 L 128.60 347.70 L 127.60 350.30 L 124.70 354.80 L 122.70 356.70 L 119.80 358.90 L 116.40 360.80 L 112.70 362.20 L 108.80 363.10 L 104.90 363.60 L 100.80 363.60 L 96.80 363.10 L 93.00 362.10 L 89.30 360.60 L 86.80 359.10 L 82.50 355.20 L 80.70 352.80 L 95.70 339.90 L 83.20 336.80 L 71.10 332.80 L 74.70 318.20 L 76.60 313.60 L 77.90 311.70 L 79.50 310.00 L 81.50 308.60 L 84.00 307.60 Z" fill="#f4e7e3" fill-rule="nonzero" node-id="158" stroke="none" target-height="58.30002" target-width="58.1" target-x="71.1" target-y="305.3"></path><path d="M 407.20 327.40 L 415.30 324.80 L 439.10 315.20 L 447.10 312.40 L 455.30 310.10 L 467.20 308.50 L 491.00 306.50 L 503.00 306.00 L 515.00 306.10 L 526.90 306.60 L 538.80 307.50 L 550.70 309.00 L 545.40 310.80 L 534.70 313.40 L 526.50 314.80 L 518.20 315.70 L 484.90 318.20 L 461.80 316.20 L 463.30 320.80 L 465.10 325.00 L 467.40 328.80 L 473.00 335.70 L 476.30 338.70 L 481.60 342.90 L 487.30 346.70 L 511.20 360.00 L 507.40 366.50 L 503.00 373.00 L 499.70 377.20 L 492.40 384.70 L 488.40 388.20 L 484.20 391.20 L 479.80 393.80 L 475.20 396.10 L 470.40 397.80 L 465.50 399.00 L 461.70 399.50 L 453.90 399.50 L 446.80 398.40 L 444.20 397.40 L 441.90 395.90 L 438.10 392.10 L 436.50 389.70 L 432.40 382.30 L 388.50 382.60 L 389.60 368.10 L 418.20 367.30 L 427.70 366.70 L 440.20 365.10 L 446.50 363.80 L 438.00 362.70 L 420.90 361.30 L 408.10 361.00 L 395.30 361.30 L 397.50 342.00 L 408.10 343.10 L 439.90 347.30 L 440.50 342.00 L 404.60 336.90 L 407.20 327.40 Z" fill="#efe8ed" fill-rule="nonzero" node-id="160" stroke="none" target-height="93.5" target-width="162.20001" target-x="388.5" target-y="306"></path><path d="M 550.70 309.00 L 606.40 310.80 L 623.60 312.20 L 604.20 316.20 L 609.10 324.40 L 591.10 321.50 L 585.00 321.10 L 577.00 321.40 L 569.20 322.90 L 555.00 328.90 L 543.50 326.20 L 531.90 324.10 L 484.90 318.20 L 518.20 315.70 L 526.50 314.80 L 540.10 312.30 L 550.70 309.00 Z" fill="#ca8c80" fill-rule="nonzero" node-id="162" stroke="none" target-height="19.899994" target-width="138.69998" target-x="484.9" target-y="309"></path><path d="M 729.00 308.30 L 773.60 305.80 L 788.50 305.60 L 795.30 323.20 L 800.80 341.40 L 781.80 343.00 L 762.90 345.40 L 762.40 336.90 L 762.50 328.50 L 763.10 320.10 L 764.30 311.70 L 752.30 311.90 L 746.40 311.80 L 740.50 311.30 L 732.80 309.60 L 729.00 308.30 Z" fill="#cb683b" fill-rule="nonzero" node-id="164" stroke="none" target-height="39.799988" target-width="71.79999" target-x="729" target-y="305.6"></path><path d="M 902.40 314.50 L 923.20 309.50 L 928.50 308.70 L 933.80 308.50 L 937.20 308.80 L 940.60 309.60 L 945.90 311.60 L 948.50 313.80 L 949.90 316.00 L 950.90 318.40 L 953.10 329.00 L 931.80 334.30 L 941.80 340.00 L 952.30 344.70 L 951.10 348.40 L 949.40 351.60 L 947.30 354.40 L 944.80 356.80 L 941.90 358.90 L 938.70 360.50 L 935.40 361.70 L 931.80 362.60 L 928.10 363.10 L 920.60 362.90 L 913.30 361.30 L 906.60 358.30 L 903.60 356.30 L 901.00 354.00 L 898.80 351.30 L 897.50 345.20 L 897.80 337.60 L 901.70 319.00 L 902.40 314.50 Z" fill="#f0e1dd" fill-rule="nonzero" node-id="166" stroke="none" target-height="54.600006" target-width="55.599976" target-x="897.5" target-y="308.5"></path><path d="M 124.10 314.50 L 130.90 319.50 L 131.70 324.30 L 132.90 328.90 L 134.50 333.20 L 136.60 337.20 L 141.80 344.70 L 148.30 351.30 L 153.20 355.10 L 158.40 358.40 L 164.00 361.30 L 169.80 363.70 L 175.70 365.50 L 181.60 366.90 L 185.60 365.90 L 189.00 364.50 L 192.10 362.60 L 194.80 360.30 L 197.30 357.60 L 199.60 354.60 L 202.50 349.70 L 205.00 344.30 L 213.60 322.90 L 210.50 337.70 L 206.80 352.40 L 202.70 366.90 L 198.10 381.30 L 196.90 384.40 L 193.50 390.00 L 190.30 393.70 L 186.70 397.10 L 178.90 403.00 L 166.70 386.70 L 152.00 365.40 L 148.20 361.30 L 136.30 349.70 L 132.80 345.50 L 130.80 342.40 L 129.20 339.20 L 127.90 335.60 L 124.10 314.50 Z" fill="#bb8787" fill-rule="nonzero" node-id="168" stroke="none" target-height="88.5" target-width="89.50001" target-x="124.1" target-y="314.5"></path><path d="M 461.80 316.20 L 469.40 317.00 L 470.90 321.60 L 473.00 325.90 L 475.40 330.00 L 478.40 333.70 L 481.60 337.10 L 485.20 340.10 L 489.10 342.80 L 493.20 345.00 L 497.60 346.80 L 502.10 348.20 L 506.80 349.10 L 511.60 349.60 L 515.70 348.90 L 523.30 346.60 L 528.80 344.20 L 534.20 341.30 L 555.00 328.90 L 561.70 326.20 L 557.70 331.30 L 553.30 335.90 L 548.60 340.00 L 543.50 343.70 L 532.70 350.40 L 515.80 359.00 L 517.20 363.20 L 519.00 367.20 L 521.10 370.90 L 523.60 374.30 L 526.40 377.50 L 532.70 383.10 L 536.20 385.40 L 541.20 388.00 L 546.50 390.10 L 552.10 391.50 L 556.30 392.20 L 564.90 392.40 L 569.30 392.00 L 572.80 392.00 L 576.10 391.60 L 579.10 390.60 L 584.70 387.50 L 590.80 381.90 L 594.10 378.10 L 623.00 383.30 L 632.60 385.30 L 663.40 395.20 L 694.00 406.00 L 713.90 414.30 L 723.70 418.90 L 713.00 420.70 L 696.60 417.20 L 685.00 411.20 L 673.10 405.70 L 661.00 400.60 L 648.60 396.20 L 636.10 392.10 L 623.50 388.60 L 610.80 385.40 L 598.00 382.70 L 590.10 402.50 L 585.80 412.50 L 581.10 422.30 L 573.90 434.70 L 569.90 440.60 L 565.50 446.20 L 560.80 451.40 L 555.60 456.30 L 547.20 462.70 L 542.50 465.50 L 533.90 469.90 L 530.30 471.20 L 526.70 472.20 L 523.00 472.70 L 518.00 472.90 L 513.00 472.60 L 508.00 471.70 L 498.40 468.50 L 493.70 466.40 L 516.40 466.30 L 522.00 465.90 L 527.60 465.00 L 531.30 463.60 L 538.10 460.00 L 547.70 453.30 L 556.80 446.00 L 543.50 441.10 L 536.60 439.00 L 525.00 436.50 L 515.60 436.00 L 510.90 436.20 L 506.20 437.00 L 501.60 438.30 L 481.40 445.60 L 474.50 447.80 L 467.60 449.50 L 460.50 450.70 L 451.00 435.10 L 441.90 419.10 L 430.60 397.40 L 425.40 386.40 L 417.00 386.60 L 408.70 387.30 L 400.50 388.50 L 384.40 392.10 L 376.50 394.50 L 364.80 398.40 L 353.10 402.90 L 307.10 421.70 L 299.30 419.80 L 312.00 413.70 L 324.90 408.00 L 379.30 386.10 L 382.00 384.20 L 383.50 382.20 L 384.60 379.90 L 387.40 369.50 L 377.40 370.30 L 367.50 371.60 L 357.70 373.20 L 343.10 376.30 L 299.50 387.20 L 305.10 383.40 L 310.90 380.10 L 316.90 377.30 L 323.00 374.90 L 335.80 371.10 L 345.60 368.90 L 355.50 367.20 L 395.30 361.30 L 408.10 361.00 L 420.90 361.30 L 429.50 361.80 L 446.50 363.80 L 440.20 365.10 L 427.70 366.70 L 418.20 367.30 L 389.60 368.10 L 388.50 382.60 L 432.40 382.30 L 436.50 389.70 L 438.10 392.10 L 441.90 395.90 L 444.20 397.40 L 446.80 398.40 L 453.90 399.50 L 461.70 399.50 L 465.50 399.00 L 470.40 397.80 L 475.20 396.10 L 479.80 393.80 L 484.20 391.20 L 488.40 388.20 L 492.40 384.70 L 499.70 377.20 L 503.00 373.00 L 507.40 366.50 L 511.20 360.00 L 487.30 346.70 L 481.60 342.90 L 476.30 338.70 L 473.00 335.70 L 467.40 328.80 L 465.10 325.00 L 463.30 320.80 L 461.80 316.20 Z" fill="#3d1628" fill-rule="nonzero" node-id="170" stroke="none" target-height="156.69998" target-width="424.40002" target-x="299.3" target-y="316.2"></path><path d="M 806.80 325.10 L 819.10 314.30 L 819.20 321.70 L 820.00 329.10 L 820.90 332.70 L 822.40 335.90 L 823.80 337.80 L 825.60 339.60 L 831.40 344.00 L 835.20 346.30 L 839.00 348.20 L 843.00 349.60 L 848.50 350.80 L 854.20 351.50 L 860.00 351.60 L 871.60 350.40 L 885.90 347.10 L 894.10 344.50 L 891.70 355.30 L 876.00 364.00 L 868.40 368.90 L 861.10 374.20 L 856.50 377.90 L 847.80 386.30 L 835.80 377.00 L 829.90 371.80 L 820.90 362.40 L 814.90 354.20 L 812.40 349.80 L 810.30 345.20 L 808.60 340.50 L 807.50 335.60 L 806.90 330.50 L 806.80 325.10 Z" fill="#d4aca8" fill-rule="nonzero" node-id="172" stroke="none" target-height="72" target-width="87.29999" target-x="806.8" target-y="314.3"></path><path d="M 469.40 317.00 L 484.90 318.20 L 520.20 322.40 L 531.90 324.10 L 543.50 326.20 L 555.00 328.90 L 534.20 341.30 L 528.80 344.20 L 523.30 346.60 L 515.70 348.90 L 511.60 349.60 L 506.80 349.10 L 502.10 348.20 L 497.60 346.80 L 493.20 345.00 L 489.10 342.80 L 485.20 340.10 L 481.60 337.10 L 478.40 333.70 L 475.40 330.00 L 473.00 325.90 L 470.90 321.60 L 469.40 317.00 Z" fill="#ae3d58" fill-rule="nonzero" node-id="174" stroke="none" target-height="32.600006" target-width="85.600006" target-x="469.4" target-y="317"></path><path d="M 561.70 326.20 L 565.40 324.30 L 569.20 322.90 L 573.00 322.00 L 581.00 321.10 L 591.10 321.50 L 609.10 324.40 L 613.30 333.40 L 590.90 339.50 L 569.00 347.20 L 618.50 339.10 L 624.90 353.90 L 606.10 355.60 L 587.50 357.80 L 568.90 360.50 L 580.40 361.70 L 592.00 362.40 L 594.10 378.10 L 590.80 381.90 L 587.30 385.40 L 584.70 387.50 L 579.10 390.60 L 576.10 391.60 L 572.80 392.00 L 560.60 392.50 L 552.10 391.50 L 546.50 390.10 L 541.20 388.00 L 536.20 385.40 L 532.70 383.10 L 526.40 377.50 L 523.60 374.30 L 521.10 370.90 L 519.00 367.20 L 517.20 363.20 L 515.80 359.00 L 532.70 350.40 L 543.50 343.70 L 548.60 340.00 L 553.30 335.90 L 557.70 331.30 L 561.70 326.20 Z" fill="#f0e8ea" fill-rule="nonzero" node-id="176" stroke="none" target-height="71.399994" target-width="109.10004" target-x="515.8" target-y="321.1"></path><path d="M 592.00 362.40 L 609.80 361.30 L 627.60 359.70 L 632.60 385.30 L 623.00 383.30 L 594.10 378.10 L 592.00 362.40 Z" fill="#ecdfde" fill-rule="nonzero" node-id="178" stroke="none" target-height="25.599976" target-width="40.599976" target-x="592" target-y="359.7"></path><path d="M 627.60 359.70 L 636.00 358.60 L 644.30 358.00 L 652.60 357.80 L 669.20 358.70 L 677.40 359.60 L 689.80 361.70 L 702.00 364.30 L 725.70 366.40 L 737.50 368.10 L 749.20 370.50 L 756.80 372.50 L 764.40 374.80 L 771.70 377.60 L 778.90 380.80 L 785.90 384.50 L 792.70 388.70 L 795.20 390.70 L 797.10 393.00 L 798.50 395.40 L 800.10 400.90 L 800.70 408.50 L 800.90 422.10 L 772.00 418.80 L 752.70 417.20 L 743.00 417.10 L 736.60 417.30 L 723.70 418.90 L 713.90 414.30 L 694.00 406.00 L 678.80 400.40 L 663.40 395.20 L 632.60 385.30 L 627.60 359.70 Z" fill="#d97a43" fill-rule="nonzero" node-id="180" stroke="none" target-height="64.30002" target-width="173.30005" target-x="627.6" target-y="357.8"></path><path d="M 812.20 362.90 L 818.00 367.90 L 828.70 378.90 L 836.00 387.70 L 842.90 396.90 L 832.60 413.00 L 827.20 420.80 L 821.30 428.30 L 817.10 433.00 L 812.50 437.40 L 807.50 441.50 L 809.00 428.40 L 810.10 415.30 L 811.40 389.10 L 812.20 362.90 Z" fill="#d1663c" fill-rule="nonzero" node-id="182" stroke="none" target-height="78.600006" target-width="35.400024" target-x="807.5" target-y="362.9"></path><path d="M 598.00 382.70 L 610.80 385.40 L 623.50 388.60 L 636.10 392.10 L 648.60 396.20 L 661.00 400.60 L 673.10 405.70 L 685.00 411.20 L 696.60 417.20 L 708.40 431.10 L 715.40 440.90 L 721.30 451.40 L 723.70 457.00 L 725.80 462.70 L 708.10 475.00 L 702.80 467.60 L 697.00 460.60 L 690.90 454.00 L 684.40 447.80 L 677.50 442.00 L 670.30 436.50 L 662.90 431.40 L 655.20 426.60 L 644.70 420.60 L 633.90 415.30 L 622.90 410.40 L 654.70 431.80 L 671.70 444.60 L 684.30 456.00 L 690.20 462.20 L 695.60 468.70 L 700.70 475.70 L 695.50 480.60 L 690.00 485.20 L 684.40 489.30 L 672.40 496.70 L 656.60 504.70 L 627.20 517.20 L 615.10 521.90 L 602.80 526.20 L 590.30 530.00 L 577.70 533.30 L 565.00 536.20 L 552.20 538.60 L 539.40 540.50 L 526.40 541.90 L 513.40 542.80 L 500.40 543.20 L 487.40 543.00 L 474.40 542.30 L 463.30 541.00 L 452.40 539.20 L 441.50 537.00 L 430.80 534.20 L 420.20 531.00 L 409.80 527.50 L 399.40 523.40 L 389.30 519.00 L 369.50 509.10 L 359.80 503.60 L 341.10 491.50 L 332.10 485.10 L 314.80 471.40 L 327.00 459.40 L 339.40 447.80 L 352.20 436.60 L 365.20 425.60 L 378.50 415.00 L 392.10 404.70 L 384.60 408.10 L 377.30 411.80 L 370.30 415.90 L 356.80 424.90 L 340.80 437.60 L 331.50 445.60 L 313.50 462.10 L 304.70 454.60 L 300.60 450.60 L 297.00 446.20 L 297.90 435.50 L 299.70 424.90 L 353.10 402.90 L 364.80 398.40 L 376.50 394.50 L 384.40 392.10 L 400.50 388.50 L 408.70 387.30 L 417.00 386.60 L 425.40 386.40 L 430.60 397.40 L 441.90 419.10 L 451.00 435.10 L 460.50 450.70 L 467.60 449.50 L 474.50 447.80 L 481.40 445.60 L 501.60 438.30 L 506.20 437.00 L 510.90 436.20 L 515.60 436.00 L 525.00 436.50 L 536.60 439.00 L 543.50 441.10 L 556.80 446.00 L 547.70 453.30 L 538.10 460.00 L 531.30 463.60 L 527.60 465.00 L 522.00 465.90 L 516.40 466.30 L 493.70 466.40 L 498.40 468.50 L 508.00 471.70 L 513.00 472.60 L 518.00 472.90 L 523.00 472.70 L 526.70 472.20 L 530.30 471.20 L 533.90 469.90 L 542.50 465.50 L 547.20 462.70 L 555.60 456.30 L 560.80 451.40 L 565.50 446.20 L 569.90 440.60 L 573.90 434.70 L 581.10 422.30 L 585.80 412.50 L 590.10 402.50 L 598.00 382.70 Z" fill="#f4ece9" fill-rule="nonzero" node-id="184" stroke="none" target-height="160.5" target-width="428.8" target-x="297" target-y="382.7"></path><path d="M 187.30 409.00 L 189.00 405.80 L 191.20 402.90 L 193.70 400.30 L 201.80 392.90 L 205.80 412.50 L 208.70 432.40 L 197.00 421.60 L 190.20 413.50 L 187.30 409.00 Z" fill="#e7713e" fill-rule="nonzero" node-id="186" stroke="none" target-height="39.5" target-width="21.399994" target-x="187.3" target-y="392.9"></path><path d="M 696.60 417.20 L 713.00 420.70 L 722.20 425.40 L 731.30 430.50 L 740.00 436.00 L 748.50 441.90 L 756.70 448.10 L 764.70 454.70 L 772.40 461.60 L 779.80 468.90 L 768.30 481.00 L 762.20 486.60 L 755.70 491.90 L 749.00 496.80 L 742.10 501.40 L 734.80 505.50 L 727.30 509.20 L 708.10 475.00 L 725.80 462.70 L 723.70 457.00 L 721.30 451.40 L 715.40 440.90 L 708.40 431.10 L 696.60 417.20 Z" fill="#d67343" fill-rule="nonzero" node-id="188" stroke="none" target-height="92" target-width="83.20001" target-x="696.6" target-y="417.2"></path><path d="M 289.70 429.20 L 299.70 424.90 L 297.90 435.50 L 297.00 446.20 L 300.60 450.60 L 304.70 454.60 L 313.50 462.10 L 302.80 473.90 L 287.40 459.90 L 288.50 449.60 L 289.70 429.20 Z" fill="#e6b484" fill-rule="nonzero" node-id="190" stroke="none" target-height="49" target-width="26.100006" target-x="287.4" target-y="424.9"></path><path d="M 239.20 466.60 L 242.20 462.00 L 249.00 453.80 L 252.80 450.20 L 258.30 445.60 L 264.00 441.50 L 270.10 437.90 L 276.40 434.60 L 283.00 431.80 L 289.70 429.20 L 288.50 449.60 L 287.40 459.90 L 302.80 473.90 L 298.80 480.30 L 295.10 486.90 L 287.10 504.30 L 274.50 495.70 L 262.30 486.50 L 246.70 473.50 L 239.20 466.60 Z" fill="#db8652" fill-rule="nonzero" node-id="192" stroke="none" target-height="75.099976" target-width="63.59999" target-x="239.2" target-y="429.2"></path><path d="M 850.70 487.40 L 856.30 483.40 L 862.10 480.00 L 868.10 477.10 L 874.40 474.70 L 880.80 472.70 L 887.40 471.10 L 894.00 469.90 L 900.80 469.10 L 914.30 468.60 L 927.70 469.40 L 930.90 470.00 L 936.70 472.20 L 939.40 473.80 L 942.70 476.30 L 945.60 479.20 L 948.20 482.50 L 950.50 486.20 L 952.40 490.00 L 953.90 494.10 L 955.10 498.40 L 955.80 502.60 L 956.10 506.90 L 955.90 511.20 L 955.30 515.30 L 954.30 519.20 L 952.80 522.90 L 950.80 526.30 L 948.30 529.40 L 946.10 531.40 L 943.70 533.20 L 937.70 535.90 L 897.30 532.50 L 889.30 497.40 L 883.70 476.80 L 873.10 481.40 L 862.70 486.50 L 852.60 492.00 L 850.70 487.40 Z" fill="#301228" fill-rule="nonzero" node-id="194" stroke="none" target-height="67.30002" target-width="105.39996" target-x="850.7" target-y="468.6"></path><path d="M 291.80 493.70 L 314.80 471.40 L 332.10 485.10 L 341.10 491.50 L 359.80 503.60 L 379.30 514.20 L 389.30 519.00 L 399.40 523.40 L 409.80 527.50 L 420.20 531.00 L 430.80 534.20 L 441.50 537.00 L 452.40 539.20 L 463.30 541.00 L 474.40 542.30 L 487.40 543.00 L 500.40 543.20 L 513.40 542.80 L 526.40 541.90 L 539.40 540.50 L 552.20 538.60 L 565.00 536.20 L 577.70 533.30 L 590.30 530.00 L 602.80 526.20 L 615.10 521.90 L 627.20 517.20 L 646.80 509.00 L 666.10 500.10 L 672.40 496.70 L 684.40 489.30 L 690.00 485.20 L 695.50 480.60 L 700.70 475.70 L 707.00 484.30 L 712.90 493.30 L 723.40 511.90 L 711.20 518.30 L 698.80 524.20 L 686.30 529.50 L 673.50 534.30 L 660.60 538.70 L 647.50 542.70 L 627.70 548.00 L 607.70 552.80 L 587.60 557.10 L 527.10 569.00 L 544.00 568.90 L 552.30 568.20 L 564.80 566.80 L 577.30 564.90 L 602.00 560.30 L 606.30 571.20 L 611.30 585.70 L 597.20 588.00 L 583.00 589.90 L 568.80 591.40 L 554.60 592.50 L 540.40 593.10 L 522.50 593.30 L 504.70 593.00 L 486.90 592.00 L 469.10 590.50 L 451.30 588.40 L 433.70 585.70 L 416.10 582.60 L 398.60 579.00 L 408.30 562.70 L 434.00 566.10 L 447.00 567.30 L 459.90 567.80 L 453.80 565.60 L 441.20 562.10 L 431.70 560.10 L 402.80 554.80 L 393.30 552.70 L 383.80 550.20 L 373.70 547.40 L 363.80 544.10 L 354.00 540.50 L 344.40 536.40 L 331.80 530.50 L 319.40 524.20 L 307.30 517.40 L 287.10 504.30 L 291.80 493.70 Z" fill="#c9a39c" fill-rule="nonzero" node-id="196" stroke="none" target-height="121.899994" target-width="436.30002" target-x="287.1" target-y="471.4"></path><path d="M 852.60 492.00 L 862.70 486.50 L 873.10 481.40 L 883.70 476.80 L 889.30 497.40 L 891.70 507.80 L 892.60 534.30 L 874.70 537.30 L 867.10 522.30 L 852.60 492.00 Z" fill="#df8d4d" fill-rule="nonzero" node-id="198" stroke="none" target-height="60.5" target-width="40" target-x="852.6" target-y="476.8"></path><path d="M 807.90 558.20 L 809.20 551.20 L 811.00 544.30 L 813.30 537.70 L 816.20 531.30 L 819.40 525.10 L 823.00 519.10 L 831.30 507.80 L 835.90 502.40 L 843.10 494.60 L 850.70 487.40 L 859.70 507.20 L 874.70 537.30 L 892.60 534.30 L 891.70 507.80 L 897.30 532.50 L 937.70 535.90 L 930.20 537.90 L 926.30 538.50 L 920.40 538.90 L 896.50 539.20 L 887.00 540.50 L 879.90 542.90 L 876.60 544.70 L 873.30 547.00 L 866.90 553.20 L 864.20 556.70 L 862.00 560.40 L 858.80 568.30 L 857.70 572.50 L 856.60 578.90 L 856.10 585.60 L 856.10 620.00 L 855.50 628.00 L 854.40 636.00 L 852.80 643.90 L 850.70 651.70 L 848.00 659.40 L 844.90 666.80 L 841.20 674.00 L 837.10 680.80 L 829.90 690.40 L 821.60 699.00 L 817.00 702.80 L 812.20 706.40 L 807.10 709.60 L 801.60 712.50 L 797.00 704.70 L 815.80 695.20 L 812.50 688.10 L 808.80 681.20 L 802.90 672.60 L 796.00 664.90 L 792.10 661.50 L 787.80 658.40 L 792.80 648.50 L 796.00 640.70 L 798.60 632.80 L 800.60 624.80 L 802.30 616.60 L 803.60 608.30 L 805.00 595.80 L 807.90 558.20 Z M 829.60 516.60 L 817.80 537.40 L 825.00 543.00 L 831.80 548.80 L 838.30 555.00 L 844.50 561.60 L 850.40 568.50 L 864.60 545.30 L 847.50 530.40 L 829.60 516.60 Z M 811.90 570.20 L 810.90 583.70 L 810.90 592.90 L 811.50 597.30 L 813.50 602.90 L 815.00 605.50 L 817.30 607.90 L 819.80 609.90 L 822.50 611.40 L 828.40 613.60 L 836.20 615.10 L 850.60 616.20 L 850.50 607.40 L 849.90 598.70 L 847.70 581.20 L 842.00 578.50 L 830.30 574.00 L 824.30 572.30 L 818.10 571.10 L 811.90 570.20 Z M 808.80 637.10 L 799.40 649.30 L 812.80 665.10 L 826.50 680.50 L 829.70 676.30 L 835.30 667.50 L 838.90 660.60 L 842.00 653.30 L 834.00 648.60 L 825.80 644.30 L 817.40 640.50 L 808.80 637.10 Z" fill="#2a192e" fill-rule="nonzero" node-id="200" stroke="none" target-height="225.1" target-width="149.90002" target-x="787.8" target-y="487.4"></path><path d="M 168.20 500.40 L 177.60 508.30 L 186.70 516.60 L 222.50 550.30 L 223.50 552.40 L 224.00 554.40 L 223.90 556.50 L 223.20 559.70 L 217.10 572.70 L 216.30 575.80 L 213.70 582.80 L 211.60 589.90 L 210.10 597.00 L 209.00 604.20 L 208.40 611.40 L 208.20 618.70 L 209.00 633.40 L 211.50 651.60 L 213.60 662.40 L 208.50 659.00 L 204.60 654.70 L 202.60 651.50 L 201.00 647.90 L 199.70 644.10 L 198.30 638.20 L 197.30 632.10 L 196.20 620.40 L 195.80 614.40 L 195.90 608.50 L 196.40 602.70 L 197.30 596.90 L 199.10 589.30 L 201.40 581.80 L 204.20 574.50 L 207.50 567.30 L 211.20 560.40 L 215.30 553.60 L 199.20 539.40 L 193.30 535.60 L 190.00 534.20 L 184.50 535.60 L 168.10 541.20 L 160.60 542.70 L 156.80 542.90 L 151.00 541.50 L 145.40 539.70 L 134.40 535.60 L 133.30 527.00 L 138.90 528.70 L 150.40 530.90 L 156.30 531.40 L 162.10 531.50 L 167.90 531.10 L 173.60 530.30 L 179.30 528.80 L 184.90 526.90 L 175.60 514.20 L 170.30 505.20 L 168.20 500.40 Z" fill="#431b28" fill-rule="nonzero" node-id="202" stroke="none" target-height="162.00003" target-width="90.7" target-x="133.3" target-y="500.4"></path><path d="M 302.80 519.40 L 307.30 517.40 L 319.40 524.20 L 331.80 530.50 L 344.40 536.40 L 354.00 540.50 L 363.80 544.10 L 373.70 547.40 L 393.30 552.70 L 441.20 562.10 L 453.80 565.60 L 459.90 567.80 L 447.00 567.30 L 434.00 566.10 L 408.30 562.70 L 399.40 560.90 L 382.00 556.50 L 343.10 544.90 L 330.00 541.40 L 354.30 563.30 L 346.50 562.50 L 329.70 558.00 L 312.60 554.10 L 314.20 558.90 L 316.00 563.40 L 318.20 567.60 L 320.70 571.50 L 324.40 576.50 L 328.50 581.20 L 333.10 585.70 L 340.20 592.00 L 355.50 604.10 L 367.80 614.50 L 376.50 623.60 L 365.70 621.60 L 322.80 611.50 L 311.90 609.60 L 308.40 609.30 L 305.00 609.40 L 301.70 609.90 L 296.70 611.20 L 282.10 616.70 L 287.40 624.30 L 293.10 631.50 L 299.30 638.10 L 305.80 644.50 L 319.60 656.40 L 363.30 689.60 L 352.20 689.10 L 341.10 688.10 L 330.10 686.50 L 319.20 684.40 L 308.40 681.80 L 297.70 678.70 L 287.20 675.10 L 276.80 671.10 L 278.30 687.80 L 279.00 691.90 L 280.30 695.80 L 281.50 698.20 L 283.10 700.40 L 285.10 702.50 L 290.60 707.20 L 302.30 715.40 L 311.50 720.90 L 321.00 726.00 L 349.90 740.50 L 359.30 745.60 L 371.60 753.00 L 377.50 757.10 L 369.90 757.20 L 354.90 756.50 L 321.20 752.60 L 309.90 751.60 L 302.40 751.40 L 294.90 751.50 L 287.30 752.00 L 289.90 756.80 L 292.80 761.20 L 296.10 765.20 L 303.60 772.50 L 314.00 780.60 L 327.00 789.90 L 368.20 822.00 L 385.20 836.30 L 378.20 835.30 L 371.50 834.00 L 365.00 832.10 L 358.50 829.80 L 345.90 824.50 L 318.00 810.80 L 308.70 806.60 L 321.50 837.30 L 318.70 844.40 L 302.30 819.80 L 296.00 812.30 L 292.40 808.90 L 288.30 808.10 L 284.20 807.80 L 280.20 808.10 L 272.20 809.70 L 262.40 813.20 L 256.80 815.50 L 266.20 818.40 L 275.70 820.70 L 261.90 823.90 L 247.90 826.20 L 258.30 813.30 L 269.20 800.90 L 256.50 800.00 L 243.80 799.80 L 231.10 800.10 L 221.30 798.90 L 225.50 796.20 L 229.80 794.10 L 234.10 792.70 L 238.60 791.80 L 243.10 791.30 L 247.70 791.30 L 254.70 791.80 L 261.80 793.00 L 289.40 799.20 L 287.70 791.70 L 285.60 784.30 L 275.60 755.00 L 273.50 747.60 L 271.80 740.00 L 269.60 727.60 L 267.90 715.00 L 266.70 702.30 L 266.00 689.60 L 265.90 677.00 L 266.30 664.30 L 267.10 654.80 L 269.60 635.90 L 274.50 612.00 L 277.80 597.40 L 280.30 587.80 L 286.00 568.80 L 289.40 559.50 L 293.20 550.30 L 300.50 534.30 L 302.30 527.00 L 302.80 519.40 Z" fill="#34162b" fill-rule="nonzero" node-id="204" stroke="none" target-height="327" target-width="238.59999" target-x="221.3" target-y="517.4"></path><path d="M 829.60 516.60 L 847.50 530.40 L 864.60 545.30 L 850.40 568.50 L 844.50 561.60 L 838.30 555.00 L 831.80 548.80 L 825.00 543.00 L 817.80 537.40 L 829.60 516.60 Z" fill="#d4753e" fill-rule="nonzero" node-id="206" stroke="none" target-height="51.900024" target-width="46.799988" target-x="817.8" target-y="516.6"></path><path d="M 330.00 541.40 L 343.10 544.90 L 382.00 556.50 L 399.40 560.90 L 408.30 562.70 L 397.10 581.60 L 346.50 562.50 L 354.30 563.30 L 330.00 541.40 Z" fill="#d36f41" fill-rule="nonzero" node-id="208" stroke="none" target-height="40.19995" target-width="78.29999" target-x="330" target-y="541.4"></path><path d="M 602.00 560.30 L 618.80 556.80 L 668.60 544.70 L 651.20 570.90 L 659.90 568.40 L 694.40 556.40 L 703.10 553.80 L 714.90 551.00 L 720.90 550.10 L 725.00 565.90 L 718.70 571.80 L 705.60 582.80 L 674.90 606.00 L 664.80 614.10 L 652.20 625.50 L 646.30 631.70 L 654.50 630.80 L 670.80 627.90 L 719.30 616.40 L 735.60 613.60 L 743.90 612.70 L 743.00 623.10 L 741.60 629.80 L 740.30 632.90 L 737.70 636.60 L 731.00 642.50 L 720.60 650.20 L 712.50 655.40 L 687.50 670.30 L 679.40 675.60 L 671.50 681.30 L 696.50 682.70 L 746.50 682.90 L 745.20 701.10 L 735.50 706.70 L 725.60 711.80 L 715.50 716.60 L 700.10 723.20 L 684.50 729.20 L 653.00 740.50 L 653.50 726.90 L 653.40 713.40 L 652.60 699.90 L 651.40 686.40 L 649.70 673.00 L 647.60 659.60 L 643.90 639.60 L 639.70 619.70 L 630.50 580.10 L 610.30 582.30 L 602.00 560.30 Z" fill="#d4723f" fill-rule="nonzero" node-id="210" stroke="none" target-height="195.79999" target-width="144.5" target-x="602" target-y="544.7"></path><path d="M 312.60 554.10 L 329.70 558.00 L 346.50 562.50 L 397.10 581.60 L 392.30 594.30 L 388.00 607.20 L 384.30 620.40 L 381.00 633.70 L 378.30 647.10 L 376.30 660.60 L 374.80 674.20 L 373.90 687.80 L 373.60 698.80 L 373.80 709.70 L 374.40 720.50 L 375.40 731.40 L 376.80 742.20 L 378.70 752.90 L 381.10 763.50 L 383.90 774.00 L 387.20 784.40 L 391.00 794.80 L 394.90 803.10 L 399.20 811.20 L 404.00 819.10 L 409.20 826.80 L 414.90 834.10 L 421.00 841.00 L 425.90 846.00 L 431.00 850.60 L 441.90 858.90 L 447.80 862.60 L 453.80 865.90 L 460.10 868.70 L 466.70 871.20 L 452.30 872.00 L 445.20 872.90 L 402.50 880.30 L 388.30 882.00 L 381.20 882.30 L 374.10 882.30 L 366.90 881.80 L 359.80 880.80 L 352.00 875.00 L 343.40 866.50 L 334.30 855.10 L 321.50 837.30 L 308.70 806.60 L 318.00 810.80 L 345.90 824.50 L 358.50 829.80 L 365.00 832.10 L 371.50 834.00 L 378.20 835.30 L 385.20 836.30 L 368.20 822.00 L 327.00 789.90 L 314.00 780.60 L 303.60 772.50 L 296.10 765.20 L 292.80 761.20 L 289.90 756.80 L 287.30 752.00 L 294.90 751.50 L 302.40 751.40 L 309.90 751.60 L 321.20 752.60 L 354.90 756.50 L 369.90 757.20 L 377.50 757.10 L 371.60 753.00 L 359.30 745.60 L 349.90 740.50 L 321.00 726.00 L 311.50 720.90 L 302.30 715.40 L 290.60 707.20 L 285.10 702.50 L 283.10 700.40 L 281.50 698.20 L 280.30 695.80 L 279.00 691.90 L 278.30 687.80 L 276.80 671.10 L 287.20 675.10 L 297.70 678.70 L 308.40 681.80 L 319.20 684.40 L 330.10 686.50 L 341.10 688.10 L 352.20 689.10 L 363.30 689.60 L 319.60 656.40 L 305.80 644.50 L 299.30 638.10 L 293.10 631.50 L 287.40 624.30 L 282.10 616.70 L 296.70 611.20 L 301.70 609.90 L 305.00 609.40 L 308.40 609.30 L 311.90 609.60 L 322.80 611.50 L 365.70 621.60 L 376.50 623.60 L 367.80 614.50 L 355.50 604.10 L 340.20 592.00 L 333.10 585.70 L 328.50 581.20 L 324.40 576.50 L 320.70 571.50 L 318.20 567.60 L 316.00 563.40 L 314.20 558.90 L 312.60 554.10 Z" fill="#e1904f" fill-rule="nonzero" node-id="212" stroke="none" target-height="328.2" target-width="189.90002" target-x="276.8" target-y="554.1"></path><path d="M 150.20 576.20 L 155.70 572.00 L 167.40 564.50 L 173.60 561.40 L 180.10 558.90 L 186.80 556.90 L 182.70 562.80 L 178.10 568.40 L 163.70 584.40 L 159.20 590.00 L 149.90 590.20 L 150.20 576.20 Z" fill="#3c111b" fill-rule="nonzero" node-id="214" stroke="none" target-height="33.299988" target-width="36.90001" target-x="149.9" target-y="556.9"></path><path d="M 811.90 570.20 L 818.10 571.10 L 824.30 572.30 L 830.30 574.00 L 842.00 578.50 L 847.70 581.20 L 849.90 598.70 L 850.50 607.40 L 850.60 616.20 L 836.20 615.10 L 828.40 613.60 L 822.50 611.40 L 819.80 609.90 L 817.30 607.90 L 815.00 605.50 L 812.30 600.10 L 811.50 597.30 L 810.90 592.90 L 810.90 583.70 L 811.90 570.20 Z" fill="#d8713a" fill-rule="nonzero" node-id="216" stroke="none" target-height="46" target-width="39.69995" target-x="810.9" target-y="570.2"></path><path d="M 397.10 581.60 L 398.60 579.00 L 416.10 582.60 L 433.70 585.70 L 451.30 588.40 L 469.10 590.50 L 486.90 592.00 L 504.70 593.00 L 522.50 593.30 L 540.40 593.10 L 554.60 592.50 L 568.80 591.40 L 583.00 589.90 L 597.20 588.00 L 611.30 585.70 L 620.80 624.50 L 626.30 650.90 L 628.70 664.20 L 630.60 677.60 L 631.90 690.90 L 632.80 704.20 L 633.00 714.20 L 632.70 724.20 L 632.00 734.10 L 630.90 744.00 L 629.30 753.70 L 627.00 763.50 L 624.20 773.20 L 618.00 790.70 L 611.30 805.70 L 603.30 820.00 L 593.90 833.50 L 588.80 839.90 L 581.60 848.10 L 573.90 855.90 L 565.80 863.30 L 552.70 868.50 L 545.20 870.90 L 537.50 872.80 L 529.70 874.10 L 514.00 875.50 L 506.00 875.60 L 498.10 875.30 L 487.50 874.40 L 477.00 873.10 L 466.70 871.20 L 460.10 868.70 L 453.80 865.90 L 447.80 862.60 L 441.90 858.90 L 436.40 854.90 L 425.90 846.00 L 421.00 841.00 L 414.90 834.10 L 409.20 826.80 L 404.00 819.10 L 399.20 811.20 L 394.90 803.10 L 391.00 794.80 L 387.20 784.40 L 383.90 774.00 L 381.10 763.50 L 378.70 752.90 L 376.80 742.20 L 375.40 731.40 L 374.40 720.50 L 373.80 709.70 L 373.60 698.80 L 373.90 687.80 L 374.80 674.20 L 376.30 660.60 L 378.30 647.10 L 381.00 633.70 L 384.30 620.40 L 388.00 607.20 L 392.30 594.30 L 397.10 581.60 Z" fill="#f4ebe9" fill-rule="nonzero" node-id="218" stroke="none" target-height="296.59998" target-width="259.4" target-x="373.6" target-y="579"></path><path d="M 610.30 582.30 L 630.50 580.10 L 639.70 619.70 L 643.90 639.60 L 647.60 659.60 L 649.70 673.00 L 651.40 686.40 L 652.60 699.90 L 653.40 713.40 L 653.50 726.90 L 653.00 740.50 L 638.40 746.20 L 632.70 748.00 L 652.40 753.50 L 653.10 769.10 L 652.80 776.90 L 652.20 784.80 L 651.20 792.60 L 649.70 800.30 L 647.80 807.90 L 645.40 815.30 L 642.60 822.60 L 639.30 829.70 L 635.50 836.50 L 631.20 843.00 L 627.70 846.50 L 624.00 849.30 L 620.20 851.60 L 611.80 855.10 L 607.40 856.40 L 600.50 857.80 L 572.40 861.80 L 565.80 863.30 L 573.90 855.90 L 581.60 848.10 L 588.80 839.90 L 598.80 826.80 L 607.50 812.90 L 614.80 798.30 L 618.00 790.70 L 624.20 773.20 L 627.00 763.50 L 629.30 753.70 L 630.90 744.00 L 632.00 734.10 L 632.70 724.20 L 633.00 714.20 L 632.80 704.20 L 631.90 690.90 L 630.60 677.60 L 628.70 664.20 L 623.70 637.70 L 616.10 604.90 L 610.30 582.30 Z" fill="#e39752" fill-rule="nonzero" node-id="220" stroke="none" target-height="283.2" target-width="87.70001" target-x="565.8" target-y="580.1"></path><path d="M 808.80 637.10 L 817.40 640.50 L 825.80 644.30 L 834.00 648.60 L 842.00 653.30 L 838.90 660.60 L 835.30 667.50 L 829.70 676.30 L 826.50 680.50 L 812.80 665.10 L 799.40 649.30 L 808.80 637.10 Z" fill="#d0663b" fill-rule="nonzero" node-id="222" stroke="none" target-height="43.400024" target-width="42.599976" target-x="799.4" target-y="637.1"></path><path d="M 787.80 658.40 L 792.10 661.50 L 796.00 664.90 L 802.90 672.60 L 808.80 681.20 L 812.50 688.10 L 815.80 695.20 L 797.00 704.70 L 779.20 674.20 L 787.80 658.40 Z" fill="#cf6438" fill-rule="nonzero" node-id="224" stroke="none" target-height="46.299988" target-width="36.599976" target-x="779.2" target-y="658.4"></path><path d="M 759.20 676.90 L 762.60 678.50 L 765.40 680.40 L 767.60 682.70 L 771.10 688.20 L 773.80 696.40 L 777.10 711.50 L 758.30 711.70 L 757.90 694.30 L 758.30 685.60 L 759.20 676.90 Z" fill="#e0743e" fill-rule="nonzero" node-id="226" stroke="none" target-height="34.799988" target-width="19.199951" target-x="757.9" target-y="676.9"></path><path d="M 632.70 748.00 L 638.40 746.20 L 646.90 746.90 L 663.90 747.10 L 676.70 746.50 L 714.80 743.60 L 727.60 743.10 L 740.40 743.10 L 736.30 749.50 L 731.90 755.50 L 727.20 761.10 L 719.50 769.00 L 711.30 776.60 L 685.90 798.50 L 677.90 806.30 L 672.90 811.70 L 668.20 817.40 L 663.80 823.40 L 669.20 822.70 L 674.40 821.60 L 679.50 820.10 L 686.90 817.30 L 694.20 814.00 L 701.20 810.20 L 722.00 798.10 L 715.80 808.60 L 709.30 818.90 L 689.20 849.60 L 682.80 860.00 L 675.10 874.30 L 671.70 881.80 L 659.10 881.50 L 646.60 880.70 L 634.10 879.40 L 621.70 877.70 L 597.00 873.40 L 560.10 865.60 L 565.80 863.30 L 572.40 861.80 L 600.50 857.80 L 607.40 856.40 L 616.10 853.60 L 620.20 851.60 L 624.00 849.30 L 627.70 846.50 L 631.20 843.00 L 635.50 836.50 L 639.30 829.70 L 642.60 822.60 L 645.40 815.30 L 647.80 807.90 L 649.70 800.30 L 651.20 792.60 L 652.20 784.80 L 652.80 776.90 L 652.90 761.30 L 652.40 753.50 L 632.70 748.00 Z" fill="#d3703f" fill-rule="nonzero" node-id="228" stroke="none" target-height="138.70001" target-width="180.30005" target-x="560.1" target-y="743.1"></path><path d="M 231.10 800.10 L 243.80 799.80 L 256.50 800.00 L 269.20 800.90 L 258.30 813.30 L 247.90 826.20 L 230.20 825.90 L 244.40 824.90 L 228.70 820.00 L 212.80 815.60 L 221.80 807.60 L 231.10 800.10 Z" fill="#e5d2d9" fill-rule="nonzero" node-id="230" stroke="none" target-height="26.400024" target-width="56.40001" target-x="212.8" target-y="799.8"></path><path d="M 753.10 802.00 L 761.70 800.20 L 770.40 798.90 L 779.20 798.00 L 781.60 808.10 L 784.60 805.90 L 787.60 804.40 L 790.60 803.50 L 793.80 803.10 L 796.80 803.40 L 799.90 804.20 L 802.80 805.50 L 805.70 807.40 L 808.50 809.90 L 797.40 816.90 L 786.70 824.60 L 779.10 827.00 L 777.20 817.00 L 768.10 813.60 L 763.70 811.50 L 759.60 809.00 L 757.20 807.10 L 755.00 804.70 L 753.10 802.00 Z" fill="#f1d9d5" fill-rule="nonzero" node-id="232" stroke="none" target-height="29" target-width="55.400024" target-x="753.1" target-y="798"></path><path d="M 728.40 808.90 L 738.90 804.40 L 747.90 808.30 L 758.50 814.50 L 764.60 818.80 L 776.30 827.80 L 772.70 828.90 L 765.90 829.80 L 762.60 829.70 L 758.20 829.00 L 753.90 827.80 L 749.70 826.00 L 741.90 821.40 L 738.20 818.60 L 733.10 813.90 L 728.40 808.90 Z" fill="#c0807c" fill-rule="nonzero" node-id="234" stroke="none" target-height="25.399963" target-width="47.899963" target-x="728.4" target-y="804.4"></path><path d="M 256.80 815.50 L 268.20 811.00 L 276.10 808.70 L 280.20 808.10 L 284.20 807.80 L 288.30 808.10 L 292.40 808.90 L 296.00 812.30 L 302.30 819.80 L 322.90 850.70 L 336.90 868.70 L 341.50 874.70 L 345.60 881.10 L 343.90 888.50 L 342.60 892.20 L 338.80 899.00 L 333.90 905.00 L 327.90 909.90 L 324.60 911.90 L 321.10 913.40 L 317.40 914.60 L 309.70 914.40 L 305.90 913.70 L 300.40 912.10 L 295.00 910.00 L 289.70 907.40 L 274.70 898.70 L 253.00 884.40 L 245.90 879.30 L 239.10 874.00 L 232.60 868.20 L 224.80 859.80 L 221.20 855.20 L 228.10 856.70 L 234.80 858.60 L 241.40 860.90 L 251.00 864.90 L 288.80 883.30 L 298.40 887.30 L 305.00 889.70 L 311.70 891.60 L 318.60 893.20 L 321.50 883.20 L 322.10 879.90 L 322.00 875.50 L 321.40 873.20 L 318.80 866.30 L 315.90 859.50 L 312.60 853.00 L 304.90 840.40 L 293.90 825.60 L 286.90 817.20 L 275.80 820.70 L 266.20 818.40 L 256.80 815.50 Z" fill="#cca29c" fill-rule="nonzero" node-id="236" stroke="none" target-height="106.79999" target-width="124.40001" target-x="221.2" target-y="807.8"></path><path d="M 700.20 846.70 L 704.70 840.30 L 723.90 815.30 L 728.40 808.90 L 733.10 813.90 L 738.20 818.60 L 745.80 823.90 L 749.70 826.00 L 753.90 827.80 L 758.20 829.00 L 762.60 829.70 L 769.30 829.50 L 772.70 828.90 L 786.70 824.60 L 799.10 822.90 L 811.50 820.70 L 810.40 838.40 L 800.90 842.80 L 791.80 847.80 L 756.60 870.00 L 747.60 875.20 L 738.40 879.90 L 735.20 881.20 L 732.10 882.10 L 725.50 882.60 L 719.00 881.50 L 712.80 879.10 L 709.90 877.30 L 704.90 873.00 L 702.70 870.50 L 701.50 868.10 L 700.10 862.90 L 699.70 858.90 L 700.20 846.70 Z" fill="#f0eae8" fill-rule="nonzero" node-id="238" stroke="none" target-height="73.69995" target-width="111.79999" target-x="699.7" target-y="808.9"></path><path d="M 149.60 815.10 L 154.20 815.40 L 158.40 816.20 L 162.10 817.60 L 165.60 819.50 L 168.90 821.80 L 172.00 824.50 L 176.20 829.10 L 180.10 834.20 L 194.10 855.30 L 208.50 852.10 L 211.70 855.80 L 199.80 859.60 L 188.00 863.90 L 176.40 868.60 L 180.30 875.50 L 184.70 882.10 L 188.00 886.20 L 195.30 893.80 L 199.30 897.20 L 203.60 900.20 L 220.80 909.60 L 246.50 921.90 L 285.70 938.70 L 265.00 936.90 L 244.40 934.50 L 223.80 931.70 L 203.30 928.40 L 182.90 924.50 L 162.60 919.90 L 138.80 913.30 L 125.90 908.40 L 116.40 903.30 L 112.00 900.10 L 107.90 896.50 L 104.00 892.40 L 109.10 886.30 L 116.50 880.00 L 121.40 876.70 L 131.80 871.00 L 122.60 858.00 L 118.60 851.10 L 115.00 844.00 L 119.90 843.70 L 124.60 844.00 L 129.00 844.80 L 137.50 847.70 L 147.60 853.10 L 165.20 864.10 L 163.10 858.10 L 153.40 834.00 L 150.60 823.70 L 149.60 815.10 Z" fill="#96a487" fill-rule="nonzero" node-id="240" stroke="none" target-height="123.60004" target-width="181.70001" target-x="104" target-y="815.1"></path><path d="M 275.70 820.70 L 286.90 817.20 L 293.90 825.60 L 300.70 834.40 L 308.90 846.60 L 315.90 859.50 L 318.80 866.30 L 322.00 875.50 L 322.10 879.90 L 321.50 883.20 L 318.60 893.20 L 311.70 891.60 L 305.00 889.70 L 298.40 887.30 L 288.80 883.30 L 251.00 864.90 L 241.40 860.90 L 234.80 858.60 L 228.10 856.70 L 221.20 855.20 L 215.40 845.60 L 212.10 838.90 L 211.20 835.40 L 211.00 833.00 L 211.20 830.60 L 211.80 828.00 L 224.00 826.20 L 230.20 825.90 L 247.90 826.20 L 261.90 823.90 L 275.70 820.70 Z" fill="#eee5e9" fill-rule="nonzero" node-id="242" stroke="none" target-height="76" target-width="111.100006" target-x="211" target-y="817.2"></path><path d="M 716.20 923.60 L 724.60 921.20 L 732.90 918.30 L 741.10 914.90 L 749.10 911.10 L 757.00 906.90 L 764.50 902.20 L 771.80 897.20 L 778.80 891.70 L 785.40 885.80 L 791.70 879.60 L 797.50 873.00 L 802.90 866.10 L 807.80 858.80 L 812.20 851.20 L 816.10 843.20 L 819.40 834.90 L 821.80 839.20 L 827.40 847.10 L 832.20 852.70 L 837.30 858.00 L 833.60 874.90 L 832.00 880.40 L 829.90 885.80 L 827.40 890.90 L 825.30 894.00 L 822.90 897.00 L 820.10 899.80 L 815.60 903.60 L 806.20 910.40 L 798.80 914.90 L 791.10 919.10 L 759.50 934.00 L 748.80 936.90 L 743.30 937.90 L 735.00 938.80 L 726.70 939.20 L 697.50 937.20 L 727.00 927.70 L 716.20 923.60 Z" fill="#818b6a" fill-rule="nonzero" node-id="244" stroke="none" target-height="104.29999" target-width="139.79999" target-x="697.5" target-y="834.9"></path><path d="M 738.40 879.90 L 747.60 875.20 L 756.60 870.00 L 791.80 847.80 L 800.90 842.80 L 810.40 838.40 L 807.10 845.50 L 803.40 852.40 L 799.30 859.00 L 794.70 865.30 L 789.70 871.30 L 784.40 877.00 L 778.70 882.50 L 772.80 887.60 L 764.50 894.00 L 755.90 899.90 L 747.00 905.20 L 735.90 910.00 L 730.10 912.00 L 724.10 913.60 L 720.10 914.20 L 716.20 914.30 L 712.30 914.00 L 709.50 913.40 L 704.00 911.00 L 701.30 909.20 L 697.00 905.20 L 690.20 897.90 L 685.80 891.30 L 684.00 887.80 L 682.70 884.10 L 681.80 880.20 L 682.20 877.00 L 683.90 870.80 L 685.90 866.50 L 691.20 858.30 L 700.20 846.70 L 699.70 858.90 L 700.60 865.60 L 702.70 870.50 L 707.30 875.30 L 709.90 877.30 L 715.80 880.50 L 722.20 882.30 L 728.80 882.60 L 732.10 882.10 L 735.20 881.20 L 738.40 879.90 Z" fill="#cca8a9" fill-rule="nonzero" node-id="246" stroke="none" target-height="75.89996" target-width="128.60004" target-x="681.8" target-y="838.4"></path><path d="M 211.70 855.80 L 218.90 863.80 L 226.40 871.40 L 234.30 878.60 L 242.60 885.40 L 251.10 891.80 L 259.90 897.90 L 278.20 909.10 L 291.60 916.20 L 300.00 919.10 L 306.60 920.50 L 313.20 921.50 L 326.70 922.40 L 303.10 925.90 L 312.40 938.00 L 300.80 939.90 L 297.00 940.20 L 293.20 940.00 L 285.70 938.70 L 259.50 927.60 L 233.60 915.90 L 220.80 909.60 L 208.30 902.90 L 203.60 900.20 L 199.30 897.20 L 195.30 893.80 L 188.00 886.20 L 184.70 882.10 L 180.30 875.50 L 176.40 868.60 L 188.00 863.90 L 199.80 859.60 L 211.70 855.80 Z" fill="#7c8969" fill-rule="nonzero" node-id="248" stroke="none" target-height="84.400024" target-width="150.30002" target-x="176.4" target-y="855.8"></path><path d="M 524.20 884.00 L 531.70 882.80 L 559.10 876.80 L 569.20 876.00 L 577.40 877.10 L 609.60 884.20 L 617.80 885.40 L 627.20 886.50 L 655.80 888.60 L 668.30 890.30 L 674.50 891.60 L 679.50 896.00 L 693.90 909.70 L 698.90 914.00 L 704.20 917.80 L 711.90 922.00 L 719.50 925.00 L 682.30 927.10 L 645.00 928.60 L 607.60 929.70 L 570.30 930.30 L 533.00 930.30 L 495.60 929.70 L 458.30 928.60 L 409.20 926.30 L 373.80 922.80 L 362.10 921.80 L 350.30 921.20 L 342.40 921.20 L 334.60 921.60 L 326.70 922.40 L 352.00 890.00 L 361.70 890.30 L 371.40 890.20 L 381.00 889.70 L 395.40 888.20 L 409.70 886.10 L 438.20 880.90 L 449.70 879.60 L 455.40 879.50 L 464.00 879.90 L 498.40 884.20 L 507.00 884.80 L 518.40 884.60 L 524.20 884.00 Z" fill="#7a8167" fill-rule="nonzero" node-id="250" stroke="none" target-height="54.299988" target-width="392.8" target-x="326.7" target-y="876"></path><path d="M 326.70 922.40 L 334.60 921.60 L 342.40 921.20 L 350.30 921.20 L 362.10 921.80 L 373.80 922.80 L 409.20 926.30 L 458.30 928.60 L 495.60 929.70 L 533.00 930.30 L 570.30 930.30 L 607.60 929.70 L 645.00 928.60 L 682.30 927.10 L 719.50 925.00 L 727.00 927.70 L 697.50 937.20 L 726.70 939.20 L 712.60 941.50 L 698.40 943.50 L 684.20 945.00 L 662.80 946.70 L 641.30 947.80 L 598.40 949.40 L 572.20 950.90 L 546.10 951.70 L 493.80 951.90 L 441.50 951.10 L 423.90 950.00 L 370.90 947.90 L 353.30 946.90 L 335.70 945.40 L 324.00 944.00 L 312.40 942.20 L 300.80 939.90 L 312.40 938.00 L 303.10 925.90 L 326.70 922.40 Z" fill="#909f7d" fill-rule="nonzero" node-id="252" stroke="none" target-height="30.700012" target-width="426.2" target-x="300.8" target-y="921.2"></path></svg>