<?xml version="1.0" standalone="no"?><!DOCTYPE svg PUBLIC "-//W3C//DTD SVG 1.1//EN" "http://www.w3.org/Graphics/SVG/1.1/DTD/svg11.dtd"><svg height="1024" node-id="1" sillyvg="true" template-height="1024" template-width="1024" version="1.1" viewBox="0 0 1024 1024" width="1024" xmlns="http://www.w3.org/2000/svg" xmlns:xlink="http://www.w3.org/1999/xlink"><defs node-id="108"></defs><path d="M 0.00 0.00 L 1024.00 0.00 L 1024.00 1024.00 L 0.00 1024.00 Z" fill="#ffffff" fill-rule="nonzero" node-id="110" stroke="none" target-height="1024" target-width="1024" target-x="0" target-y="0"></path><path d="M 777.80 568.90 L 779.30 569.10 L 781.80 570.50 L 783.20 572.20 L 784.20 574.30 L 784.70 576.60 L 784.70 579.00 L 784.20 581.20 L 783.20 583.10 L 781.50 583.80 L 780.00 584.00 L 778.70 583.70 L 776.40 582.10 L 774.40 578.70 L 773.70 574.70 L 774.40 571.70 L 775.20 570.50 L 776.30 569.60 L 777.80 568.90 Z" fill="#fdfdfd" fill-rule="nonzero" node-id="112" stroke="none" target-height="15.099976" target-width="11" target-x="773.7" target-y="568.9"></path><path d="M 138.50 493.20 L 142.30 497.90 L 132.70 513.00 L 139.50 522.80 L 123.10 524.80 L 122.90 521.50 L 123.50 515.40 L 125.90 509.00 L 127.90 505.60 L 130.20 502.20 L 134.20 497.60 L 138.50 493.20 Z" fill="#311728" fill-rule="nonzero" node-id="114" stroke="none" target-height="31.599976" target-width="19.400002" target-x="122.9" target-y="493.2"></path><path d="M 811.50 527.40 L 817.40 529.70 L 820.30 531.30 L 822.90 533.30 L 827.20 538.00 L 828.90 540.70 L 830.10 543.60 L 830.90 546.60 L 831.10 549.70 L 830.80 552.90 L 829.80 556.20 L 817.20 556.80 L 792.00 557.10 L 789.60 541.10 L 797.50 546.10 L 806.00 549.70 L 810.40 550.90 L 814.90 551.70 L 819.50 552.00 L 824.30 551.80 L 811.50 527.40 Z" fill="#311728" fill-rule="nonzero" node-id="116" stroke="none" target-height="29.699951" target-width="41.5" target-x="789.6" target-y="527.4"></path><path d="M 107.00 381.80 L 108.50 380.40 L 110.50 379.20 L 112.80 378.50 L 116.70 378.50 L 119.30 379.50 L 120.30 380.40 L 121.00 381.60 L 121.50 383.30 L 121.00 384.80 L 120.20 386.00 L 119.10 387.10 L 116.90 388.30 L 114.40 388.90 L 111.80 389.10 L 109.40 388.70 L 108.00 388.10 L 106.30 386.30 L 106.00 385.20 L 106.10 383.70 L 107.00 381.80 Z" fill="#442031" fill-rule="nonzero" node-id="118" stroke="none" target-height="10.600006" target-width="15.5" target-x="106" target-y="378.5"></path><path d="M 843.10 431.70 L 849.30 432.20 L 855.40 433.20 L 861.30 434.60 L 867.20 436.40 L 878.70 441.10 L 887.00 445.20 L 896.50 450.50 L 897.60 451.40 L 898.30 452.40 L 898.90 454.20 L 899.10 456.20 L 898.10 464.70 L 891.40 460.20 L 884.40 456.20 L 862.80 445.30 L 855.90 441.30 L 847.20 435.20 L 843.10 431.70 Z" fill="#442031" fill-rule="nonzero" node-id="120" stroke="none" target-height="33" target-width="56" target-x="843.1" target-y="431.7"></path><path d="M 106.50 449.40 L 120.30 441.70 L 125.10 439.60 L 130.00 437.80 L 135.20 436.60 L 126.40 445.30 L 117.00 453.40 L 136.80 455.10 L 132.20 457.10 L 127.40 458.60 L 122.50 459.60 L 117.60 460.20 L 112.50 460.40 L 107.50 460.20 L 106.50 449.40 Z" fill="#442031" fill-rule="nonzero" node-id="122" stroke="none" target-height="23.799988" target-width="30.300003" target-x="106.5" target-y="436.6"></path><path d="M 587.90 442.00 L 606.50 446.80 L 644.20 454.50 L 649.30 455.80 L 654.10 457.70 L 658.70 460.10 L 662.00 462.30 L 667.70 467.60 L 670.20 470.70 L 672.50 476.70 L 666.60 473.00 L 654.40 466.60 L 648.00 463.90 L 639.40 460.80 L 630.70 458.20 L 621.70 456.10 L 612.70 454.30 L 584.90 450.30 L 556.20 446.60 L 546.70 445.00 L 537.30 442.90 L 545.80 442.20 L 554.20 441.90 L 587.90 442.00 Z" fill="#442031" fill-rule="nonzero" node-id="124" stroke="none" target-height="34.80002" target-width="135.20001" target-x="537.3" target-y="441.9"></path><path d="M 107.00 480.30 L 120.40 474.40 L 134.00 469.20 L 143.40 466.70 L 148.20 465.90 L 144.80 469.60 L 137.50 476.00 L 133.50 478.70 L 127.80 482.00 L 121.90 484.80 L 115.80 487.30 L 109.50 489.30 L 96.80 492.20 L 97.70 489.50 L 100.40 484.80 L 102.20 482.80 L 104.40 481.30 L 107.00 480.30 Z" fill="#442031" fill-rule="nonzero" node-id="126" stroke="none" target-height="26.300018" target-width="51.399994" target-x="96.8" target-y="465.9"></path><path d="M 818.80 486.30 L 822.70 488.60 L 826.20 491.20 L 829.50 494.10 L 832.50 497.40 L 835.10 500.90 L 837.30 504.70 L 839.10 508.70 L 840.30 513.00 L 840.90 517.50 L 837.70 516.10 L 834.80 514.40 L 832.20 512.50 L 829.90 510.20 L 827.10 506.80 L 824.70 503.10 L 822.70 499.10 L 821.10 494.90 L 818.80 486.30 Z" fill="#442031" fill-rule="nonzero" node-id="128" stroke="none" target-height="31.200012" target-width="22.100037" target-x="818.8" target-y="486.3"></path><path d="M 151.30 504.50 L 153.70 503.60 L 155.70 503.20 L 157.40 503.20 L 160.50 504.40 L 161.70 505.50 L 163.30 507.60 L 165.70 512.90 L 167.80 521.40 L 168.00 524.60 L 166.70 528.10 L 159.70 537.50 L 158.20 534.70 L 156.20 528.90 L 153.50 510.70 L 151.30 504.50 Z" fill="#442031" fill-rule="nonzero" node-id="130" stroke="none" target-height="34.299988" target-width="16.699997" target-x="151.3" target-y="503.2"></path><path d="M 444.20 812.10 L 461.60 818.60 L 458.50 828.30 L 441.90 830.10 L 444.20 812.10 Z" fill="#f5eae6" fill-rule="nonzero" node-id="132" stroke="none" target-height="18" target-width="19.700012" target-x="441.9" target-y="812.1"></path><path d="M 157.80 157.50 L 161.60 145.20 L 166.90 133.50 L 171.20 126.00 L 176.00 118.90 L 181.30 112.10 L 187.10 105.70 L 193.40 99.70 L 200.00 94.30 L 210.70 87.00 L 222.10 81.10 L 228.00 78.60 L 234.10 76.50 L 240.30 74.80 L 246.70 73.50 L 253.90 72.50 L 261.00 72.00 L 268.10 72.10 L 275.20 72.60 L 282.20 73.50 L 289.20 74.90 L 296.00 76.60 L 302.80 78.80 L 311.70 82.20 L 320.40 86.10 L 328.90 90.60 L 337.00 95.60 L 344.90 100.90 L 352.50 106.60 L 380.70 93.70 L 390.30 89.70 L 396.70 87.40 L 403.40 85.50 L 410.10 84.10 L 425.10 88.30 L 412.50 92.80 L 395.40 95.90 L 381.70 99.60 L 373.90 102.20 L 366.10 105.20 L 358.50 108.70 L 351.20 112.60 L 344.10 117.00 L 335.90 111.80 L 321.60 103.80 L 309.60 98.50 L 303.50 96.30 L 297.30 94.50 L 290.90 93.20 L 284.50 92.30 L 278.00 91.90 L 264.70 92.60 L 258.10 93.70 L 251.80 95.30 L 245.60 97.50 L 239.60 100.20 L 233.90 103.30 L 228.40 106.90 L 223.10 110.90 L 218.20 115.30 L 213.60 120.00 L 209.30 125.00 L 205.40 130.40 L 201.80 136.00 L 198.80 141.80 L 196.10 147.80 L 193.90 154.10 L 192.40 160.50 L 191.50 167.10 L 191.20 171.50 L 191.70 180.30 L 192.60 184.60 L 193.90 188.80 L 195.80 192.90 L 201.40 201.90 L 204.60 206.00 L 209.80 212.00 L 215.50 217.60 L 227.40 228.20 L 234.60 218.30 L 226.20 199.10 L 221.20 185.80 L 219.40 179.10 L 218.60 174.60 L 218.20 170.10 L 218.20 165.60 L 218.70 161.10 L 219.70 156.50 L 222.80 147.90 L 226.60 140.90 L 229.00 137.70 L 232.60 133.90 L 236.50 130.50 L 240.90 127.50 L 245.60 124.90 L 250.50 122.80 L 255.70 121.00 L 260.90 119.80 L 266.20 118.90 L 277.50 118.20 L 283.50 118.40 L 289.40 119.30 L 295.30 120.50 L 306.70 124.20 L 323.40 131.20 L 315.30 137.50 L 299.90 151.00 L 292.50 158.10 L 283.10 168.00 L 274.20 178.30 L 265.80 189.10 L 249.50 211.90 L 241.50 225.20 L 236.30 236.50 L 237.80 243.20 L 239.70 249.70 L 242.10 256.10 L 246.10 265.50 L 262.60 299.50 L 267.40 312.30 L 255.80 309.00 L 244.40 305.10 L 233.20 300.60 L 225.00 296.80 L 217.10 292.60 L 209.30 288.00 L 201.70 283.00 L 197.30 291.30 L 193.40 299.90 L 195.90 306.40 L 198.90 312.50 L 202.30 318.20 L 206.30 323.60 L 210.50 328.80 L 215.10 333.70 L 222.40 340.80 L 245.50 361.20 L 252.90 368.30 L 259.80 375.60 L 254.60 376.20 L 249.40 376.40 L 244.30 376.00 L 171.10 358.30 L 171.70 376.40 L 172.50 380.80 L 173.80 384.90 L 175.00 387.60 L 176.70 390.00 L 178.80 392.40 L 183.30 396.80 L 188.10 400.80 L 193.10 404.30 L 203.90 410.30 L 209.60 412.80 L 218.40 416.10 L 227.40 419.00 L 245.40 423.70 L 251.90 425.20 L 258.40 426.10 L 264.90 426.70 L 274.60 426.90 L 284.50 426.70 L 314.00 424.60 L 323.80 424.20 L 333.30 424.50 L 342.70 425.30 L 352.10 426.40 L 361.50 428.00 L 344.60 430.40 L 326.40 430.50 L 314.20 431.20 L 302.10 432.30 L 290.00 434.00 L 278.00 436.00 L 266.00 438.50 L 242.30 444.50 L 230.70 448.10 L 223.70 450.60 L 216.90 453.60 L 203.80 460.70 L 191.50 469.00 L 191.90 489.30 L 186.10 483.30 L 180.90 477.00 L 176.10 470.40 L 171.90 463.40 L 168.10 456.20 L 164.80 448.80 L 161.90 441.20 L 159.40 433.30 L 157.40 425.30 L 155.80 417.30 L 154.60 409.10 L 153.90 400.90 L 153.50 384.50 L 154.70 368.20 L 156.60 358.10 L 159.20 348.10 L 162.30 338.40 L 166.00 328.90 L 170.10 319.50 L 174.60 310.30 L 184.50 292.40 L 198.20 270.60 L 206.70 257.90 L 201.30 252.60 L 184.30 237.90 L 177.30 230.80 L 170.60 221.90 L 164.40 211.20 L 161.80 205.60 L 159.50 199.80 L 157.70 193.90 L 156.40 187.90 L 155.50 181.80 L 155.20 175.70 L 155.40 169.60 L 156.30 163.50 L 157.80 157.50 Z M 253.50 128.30 L 248.00 131.40 L 242.60 135.10 L 236.20 141.00 L 233.40 144.20 L 231.00 147.70 L 228.90 151.40 L 227.30 155.20 L 226.20 159.30 L 225.70 163.50 L 225.40 173.30 L 225.70 178.40 L 226.70 183.40 L 228.20 188.30 L 230.00 193.00 L 232.30 197.70 L 236.30 204.30 L 240.70 210.70 L 262.90 183.50 L 274.30 170.30 L 286.20 157.40 L 300.40 146.20 L 313.60 133.80 L 309.00 131.10 L 304.30 128.70 L 299.50 126.80 L 294.50 125.20 L 289.30 124.00 L 284.20 123.30 L 279.00 123.00 L 273.80 123.10 L 268.60 123.70 L 263.50 124.70 L 258.50 126.30 L 253.50 128.30 Z M 171.80 428.40 L 173.10 434.40 L 174.80 440.30 L 176.90 446.00 L 179.40 451.60 L 182.30 457.00 L 185.50 462.20 L 195.70 457.10 L 205.90 452.30 L 237.10 438.80 L 247.30 434.00 L 230.70 431.30 L 209.70 429.40 L 197.10 428.90 L 171.80 428.40 Z" fill="#35152b" fill-rule="nonzero" node-id="134" stroke="none" target-height="417.3" target-width="271.6" target-x="153.5" target-y="72"></path><path d="M 82.70 273.70 L 85.90 275.60 L 91.60 280.10 L 95.40 283.90 L 106.50 296.10 L 110.40 299.90 L 118.70 306.50 L 135.70 318.20 L 139.50 321.60 L 144.00 326.70 L 145.90 329.60 L 140.60 328.50 L 135.40 327.00 L 130.40 325.20 L 125.60 322.90 L 119.30 319.40 L 113.40 315.50 L 107.70 311.10 L 102.20 306.30 L 92.20 296.20 L 88.70 291.90 L 85.80 285.70 L 84.50 281.80 L 82.70 273.70 Z" fill="#35152b" fill-rule="nonzero" node-id="136" stroke="none" target-height="55.899994" target-width="63.199997" target-x="82.7" target-y="273.7"></path><path d="M 230.70 448.10 L 254.10 441.30 L 266.00 438.50 L 278.00 436.00 L 290.00 434.00 L 302.10 432.30 L 314.20 431.20 L 326.40 430.50 L 338.60 430.40 L 341.30 440.90 L 344.70 451.30 L 346.20 454.50 L 350.00 460.60 L 352.30 463.30 L 355.00 465.70 L 362.80 471.30 L 367.60 474.10 L 372.70 476.50 L 377.90 478.30 L 383.20 479.70 L 388.60 480.70 L 394.10 481.20 L 399.70 481.20 L 405.20 480.90 L 416.20 479.00 L 421.60 477.40 L 432.00 473.30 L 441.70 467.70 L 453.30 479.70 L 457.40 483.50 L 466.20 490.10 L 470.90 492.90 L 475.90 495.20 L 487.10 498.60 L 493.10 499.70 L 499.20 500.30 L 505.30 500.20 L 511.30 499.70 L 517.30 498.70 L 523.20 497.10 L 528.90 495.00 L 534.40 492.40 L 539.60 489.40 L 544.40 485.90 L 548.90 481.80 L 554.90 475.00 L 559.80 467.10 L 564.70 469.40 L 580.30 475.90 L 585.40 478.40 L 590.10 481.10 L 595.70 485.50 L 598.20 488.20 L 600.30 491.00 L 602.00 494.30 L 603.40 498.10 L 596.80 507.00 L 599.20 509.80 L 605.80 523.10 L 612.00 536.50 L 617.70 550.10 L 623.00 564.00 L 613.20 570.80 L 603.10 577.20 L 590.60 580.10 L 578.00 582.60 L 565.30 584.60 L 552.60 586.20 L 527.00 588.10 L 514.20 588.50 L 501.30 588.40 L 484.10 587.80 L 467.00 586.50 L 450.00 584.60 L 433.00 582.10 L 416.10 579.10 L 399.40 575.60 L 388.50 572.50 L 366.50 565.50 L 355.60 561.40 L 344.90 557.00 L 334.30 552.10 L 324.00 546.80 L 313.90 541.10 L 304.20 534.80 L 290.40 524.60 L 277.50 513.20 L 271.50 507.00 L 265.90 500.50 L 260.50 493.70 L 255.50 486.50 L 265.20 480.00 L 275.20 474.10 L 305.50 456.90 L 315.40 450.70 L 294.00 459.30 L 283.40 463.90 L 266.30 472.60 L 253.20 480.70 L 241.50 476.60 L 237.90 474.80 L 235.60 473.40 L 233.60 471.60 L 231.90 469.40 L 231.00 458.70 L 230.70 448.10 Z" fill="#f5eceb" fill-rule="nonzero" node-id="138" stroke="none" target-height="158.1" target-width="392.3" target-x="230.7" target-y="430.4"></path><path d="M 559.50 346.30 L 560.40 343.10 L 561.70 340.50 L 563.40 338.50 L 565.40 336.80 L 567.60 335.70 L 569.90 335.10 L 572.30 335.10 L 574.70 335.60 L 577.00 336.70 L 579.90 339.50 L 582.40 343.90 L 571.00 345.30 L 559.50 346.30 Z" fill="#f2ecea" fill-rule="nonzero" node-id="140" stroke="none" target-height="11.199982" target-width="22.900024" target-x="559.5" target-y="335.1"></path><path d="M 599.20 509.80 L 603.80 514.60 L 607.80 519.60 L 611.40 525.00 L 617.60 536.40 L 623.60 551.60 L 626.80 560.90 L 623.00 564.00 L 617.70 550.10 L 612.00 536.50 L 605.80 523.10 L 599.20 509.80 Z" fill="#2f1c2a" fill-rule="nonzero" node-id="142" stroke="none" target-height="54.200012" target-width="27.599976" target-x="599.2" target-y="509.8"></path><path d="M 678.30 519.20 L 686.00 515.50 L 693.40 516.60 L 700.70 518.10 L 707.90 520.00 L 718.60 523.30 L 750.10 534.70 L 752.10 535.40 L 754.00 535.60 L 755.70 535.40 L 758.20 534.50 L 760.60 533.00 L 769.40 525.60 L 774.50 535.00 L 769.80 540.80 L 759.60 551.60 L 754.10 556.60 L 746.50 562.80 L 738.60 568.70 L 730.30 574.10 L 721.80 579.10 L 713.10 583.80 L 704.20 588.20 L 709.90 595.50 L 715.20 603.10 L 720.00 611.00 L 724.30 619.10 L 728.20 627.50 L 731.50 636.10 L 734.40 644.80 L 738.20 659.30 L 740.00 670.40 L 740.70 678.70 L 741.10 687.20 L 741.20 720.90 L 773.10 730.60 L 783.50 734.30 L 790.30 737.20 L 796.90 740.50 L 803.30 744.30 L 803.90 775.90 L 824.10 772.00 L 817.90 758.70 L 811.00 745.80 L 828.30 744.70 L 836.20 769.70 L 853.20 763.00 L 847.20 754.70 L 843.80 751.00 L 840.10 747.60 L 837.30 745.70 L 831.20 742.60 L 834.50 740.00 L 837.40 737.30 L 839.90 734.30 L 842.00 731.10 L 844.30 726.60 L 846.10 721.80 L 847.30 716.70 L 848.00 711.60 L 848.20 706.30 L 848.00 701.00 L 847.40 695.80 L 845.00 685.60 L 832.80 657.30 L 830.10 650.00 L 828.10 642.60 L 827.10 637.70 L 826.50 632.50 L 826.40 620.30 L 826.90 613.30 L 827.90 606.20 L 829.20 599.20 L 830.90 592.20 L 833.10 585.50 L 835.60 578.80 L 838.60 572.30 L 841.90 566.00 L 845.70 560.10 L 849.90 554.40 L 854.40 549.00 L 859.40 544.00 L 864.70 539.40 L 870.50 535.20 L 881.30 528.90 L 886.20 526.70 L 891.20 524.90 L 896.40 523.60 L 901.60 522.80 L 906.90 522.40 L 912.30 522.50 L 917.60 523.10 L 922.80 524.10 L 925.80 525.80 L 928.10 527.80 L 929.90 530.10 L 931.30 532.70 L 932.30 535.40 L 933.00 538.50 L 933.40 543.10 L 933.30 548.00 L 932.20 557.20 L 927.80 560.30 L 923.20 563.00 L 918.40 565.40 L 903.60 571.80 L 894.10 576.80 L 894.40 571.60 L 894.30 566.40 L 893.60 561.40 L 892.60 556.40 L 889.50 546.60 L 883.70 532.30 L 858.50 550.70 L 872.30 565.70 L 877.20 570.50 L 887.50 579.40 L 884.60 583.00 L 882.20 586.70 L 880.20 590.50 L 878.60 594.50 L 876.90 600.10 L 875.90 605.80 L 875.40 611.70 L 875.70 623.50 L 876.40 629.50 L 878.10 638.30 L 880.30 646.60 L 873.50 648.60 L 866.80 651.10 L 860.40 654.00 L 854.00 657.30 L 841.90 664.80 L 846.30 672.90 L 851.10 680.90 L 854.10 681.30 L 860.10 680.90 L 878.10 676.80 L 882.10 653.90 L 884.90 661.80 L 889.20 677.90 L 893.80 702.60 L 875.00 699.00 L 856.10 696.00 L 859.50 707.50 L 860.60 710.30 L 862.10 712.70 L 864.90 715.20 L 866.80 716.20 L 871.10 717.30 L 875.50 717.90 L 893.10 718.20 L 891.90 724.70 L 890.10 730.80 L 887.80 736.70 L 884.90 742.40 L 881.60 747.80 L 877.80 752.90 L 873.60 757.70 L 869.00 762.20 L 864.10 766.30 L 858.90 770.00 L 853.40 773.30 L 847.70 776.30 L 840.20 778.40 L 832.60 780.10 L 825.00 781.50 L 817.30 782.40 L 807.00 783.10 L 796.70 783.30 L 786.40 782.90 L 776.00 782.20 L 765.70 781.10 L 739.40 777.60 L 734.00 777.10 L 728.70 777.00 L 723.30 777.40 L 720.70 779.00 L 716.30 783.00 L 713.40 786.40 L 703.00 801.60 L 700.20 805.10 L 695.80 809.10 L 693.30 810.90 L 681.60 813.70 L 666.70 815.50 L 657.60 815.90 L 621.30 816.30 L 615.90 823.90 L 606.10 836.20 L 597.50 845.00 L 592.80 849.00 L 587.80 852.60 L 582.60 855.80 L 578.50 857.90 L 569.60 861.10 L 564.80 862.20 L 565.70 858.00 L 570.50 854.30 L 575.10 851.80 L 583.60 846.20 L 587.50 842.90 L 592.30 838.30 L 596.80 833.30 L 600.90 828.00 L 608.30 816.60 L 616.40 801.60 L 620.70 792.40 L 610.70 792.60 L 600.60 792.30 L 587.40 790.80 L 580.80 789.40 L 575.90 783.40 L 584.00 778.90 L 592.40 775.00 L 601.00 771.40 L 627.10 761.70 L 631.20 759.70 L 632.70 758.30 L 634.80 755.70 L 636.40 752.80 L 641.90 740.50 L 630.20 738.60 L 618.50 737.20 L 606.80 736.20 L 571.40 734.60 L 577.90 728.00 L 587.00 721.10 L 592.90 717.40 L 604.90 710.70 L 645.90 719.10 L 640.60 686.70 L 618.90 693.60 L 591.90 700.40 L 577.20 705.00 L 571.60 707.40 L 562.30 712.40 L 555.00 718.10 L 551.60 721.40 L 547.80 712.00 L 550.20 705.60 L 552.00 699.20 L 553.40 692.60 L 554.70 679.30 L 554.80 672.50 L 554.50 662.40 L 553.70 652.40 L 551.30 636.90 L 548.50 621.40 L 532.50 621.10 L 520.00 620.30 L 495.20 617.90 L 482.80 616.10 L 521.70 615.40 L 560.60 613.80 L 580.00 612.40 L 599.30 610.30 L 612.20 608.50 L 625.00 606.30 L 637.70 603.70 L 649.00 601.10 L 660.10 597.90 L 674.70 592.80 L 681.80 589.80 L 701.80 580.20 L 714.60 573.40 L 727.20 566.00 L 722.80 559.80 L 718.10 553.90 L 712.90 548.40 L 704.70 540.70 L 696.00 533.30 L 678.30 519.20 Z M 840.90 584.50 L 835.20 599.60 L 832.40 609.90 L 830.80 620.40 L 830.70 625.70 L 831.10 631.20 L 865.60 625.70 L 867.10 614.30 L 869.10 591.50 L 840.90 584.50 Z M 676.00 615.70 L 674.10 618.30 L 669.80 622.20 L 667.40 623.60 L 663.90 625.00 L 660.20 626.00 L 656.40 626.70 L 650.40 627.00 L 632.70 626.80 L 642.00 656.10 L 644.70 665.90 L 649.30 685.90 L 651.00 696.00 L 652.30 706.10 L 653.40 721.50 L 653.30 726.50 L 652.20 736.10 L 650.80 742.40 L 648.90 748.70 L 642.90 763.90 L 630.30 790.90 L 627.80 797.00 L 623.80 809.50 L 634.90 810.10 L 646.00 810.30 L 660.90 809.70 L 675.60 807.80 L 682.90 806.20 L 690.00 804.20 L 693.60 799.90 L 696.70 795.30 L 707.80 775.40 L 713.70 765.70 L 702.20 767.70 L 668.00 774.40 L 671.70 770.50 L 679.80 763.70 L 686.30 759.20 L 706.60 746.40 L 715.10 740.00 L 719.00 736.50 L 722.60 732.80 L 725.90 728.50 L 728.90 723.90 L 723.90 723.30 L 714.10 723.00 L 706.70 723.30 L 684.60 725.30 L 677.20 725.70 L 669.80 725.50 L 673.30 722.20 L 680.80 716.40 L 686.80 712.50 L 711.60 698.10 L 717.50 694.10 L 724.80 688.00 L 728.10 684.60 L 728.00 680.90 L 726.80 669.90 L 719.90 670.30 L 706.20 672.10 L 686.00 676.40 L 666.00 681.60 L 671.70 674.60 L 677.90 667.90 L 684.30 661.60 L 711.10 637.10 L 717.50 630.60 L 711.40 617.50 L 708.10 611.00 L 704.50 604.70 L 698.80 597.00 L 695.50 593.40 L 692.90 593.90 L 690.60 594.90 L 688.70 596.30 L 686.30 599.00 L 678.40 612.80 L 676.00 615.70 Z M 556.90 620.40 L 557.40 633.40 L 558.40 646.30 L 559.70 659.10 L 565.60 652.80 L 571.80 646.90 L 578.30 641.20 L 585.00 636.00 L 594.30 629.40 L 604.00 623.30 L 614.00 617.60 L 604.40 617.10 L 594.90 617.10 L 585.40 617.50 L 571.10 618.60 L 556.90 620.40 Z M 560.60 696.90 L 571.70 691.10 L 582.60 684.80 L 596.60 675.50 L 603.30 670.40 L 609.60 665.00 L 615.60 659.20 L 621.30 653.10 L 606.00 656.80 L 598.30 659.30 L 590.70 662.40 L 585.80 664.90 L 581.20 667.60 L 576.90 670.70 L 572.90 674.10 L 569.40 677.80 L 566.30 682.00 L 564.40 685.30 L 562.80 688.90 L 561.50 692.70 L 560.60 696.90 Z M 854.20 719.40 L 848.30 737.20 L 863.00 757.60 L 868.50 753.00 L 873.50 747.70 L 874.80 745.60 L 876.40 741.40 L 876.70 739.10 L 876.50 736.70 L 875.80 734.10 L 874.00 731.60 L 869.80 727.60 L 866.10 725.20 L 854.20 719.40 Z M 730.90 767.10 L 744.50 768.10 L 747.00 767.80 L 750.00 766.60 L 752.10 764.40 L 755.50 754.20 L 756.50 747.20 L 756.50 743.80 L 756.10 740.40 L 755.20 737.20 L 753.90 734.40 L 752.00 731.80 L 750.40 730.30 L 748.30 729.00 L 745.80 727.90 L 742.90 727.20 L 740.60 729.80 L 738.70 732.60 L 737.20 735.60 L 735.50 740.60 L 734.40 745.80 L 732.00 762.10 L 730.90 767.10 Z M 773.80 736.20 L 765.20 771.70 L 786.50 775.60 L 787.30 764.40 L 787.20 758.60 L 786.70 753.00 L 785.80 749.40 L 784.60 746.10 L 782.80 743.10 L 781.20 741.10 L 779.20 739.20 L 776.80 737.60 L 773.80 736.20 Z" fill="#2f1c2a" fill-rule="nonzero" node-id="144" stroke="none" target-height="346.7" target-width="450.60004" target-x="482.8" target-y="515.5"></path><path d="M 769.60 564.30 L 775.40 564.40 L 781.10 565.00 L 784.80 565.80 L 788.40 567.00 L 791.90 568.70 L 790.70 590.90 L 778.30 592.10 L 775.90 590.50 L 774.10 588.80 L 772.70 586.80 L 770.80 582.30 L 769.90 575.90 L 769.60 564.30 Z M 777.80 568.90 L 776.30 569.60 L 775.20 570.50 L 774.40 571.70 L 773.70 574.70 L 773.80 576.30 L 774.40 578.70 L 776.40 582.10 L 778.70 583.70 L 780.00 584.00 L 781.50 583.80 L 783.20 583.10 L 784.20 581.20 L 784.70 579.00 L 784.70 576.60 L 784.20 574.30 L 783.20 572.20 L 781.80 570.50 L 779.30 569.10 L 777.80 568.90 Z" fill="#2f1c2a" fill-rule="nonzero" node-id="146" stroke="none" target-height="27.799988" target-width="22.300049" target-x="769.6" target-y="564.3"></path><path d="M 410.10 84.10 L 421.20 81.00 L 432.40 78.50 L 443.60 76.40 L 454.80 74.80 L 466.20 73.70 L 477.50 73.10 L 488.90 72.90 L 500.30 73.10 L 511.60 73.80 L 523.00 74.90 L 534.30 76.50 L 545.50 78.40 L 556.60 80.80 L 567.70 83.60 L 578.70 86.70 L 592.30 91.30 L 605.60 96.40 L 618.70 102.00 L 631.60 108.30 L 644.30 115.10 L 656.50 122.50 L 668.40 130.30 L 680.00 138.70 L 689.00 145.80 L 697.70 153.10 L 706.10 160.80 L 714.20 168.70 L 722.10 177.00 L 729.60 173.00 L 737.40 169.40 L 745.40 166.10 L 753.60 163.20 L 761.90 160.80 L 770.40 158.80 L 778.90 157.30 L 787.50 156.40 L 796.00 156.10 L 808.80 156.80 L 821.40 158.90 L 827.60 160.60 L 833.70 162.70 L 839.70 165.30 L 845.60 168.30 L 851.70 171.80 L 857.40 175.80 L 862.70 180.10 L 867.60 184.90 L 872.10 190.00 L 876.20 195.40 L 879.90 201.10 L 883.20 207.10 L 886.10 213.30 L 888.60 219.70 L 890.70 226.30 L 892.40 233.00 L 893.70 239.80 L 894.50 246.70 L 894.90 253.50 L 894.90 260.50 L 894.50 267.40 L 893.60 274.20 L 892.30 280.90 L 890.60 287.50 L 888.40 294.00 L 885.70 300.30 L 882.60 306.30 L 879.10 312.10 L 875.10 317.60 L 870.60 322.80 L 865.70 327.60 L 855.90 335.60 L 851.40 338.60 L 846.70 341.20 L 836.70 345.20 L 823.70 348.70 L 799.70 352.80 L 802.50 362.00 L 804.80 371.20 L 806.70 380.50 L 808.10 389.90 L 809.10 399.30 L 809.70 408.80 L 809.80 418.30 L 809.50 427.80 L 808.80 437.20 L 807.70 446.70 L 806.10 456.10 L 804.20 465.40 L 801.80 474.60 L 799.10 483.70 L 796.00 492.70 L 792.40 501.50 L 788.50 510.20 L 784.20 518.70 L 779.60 526.90 L 774.50 535.00 L 769.40 525.60 L 766.60 521.10 L 760.40 512.60 L 756.90 508.70 L 744.00 498.10 L 740.30 494.20 L 738.10 491.30 L 736.40 488.30 L 735.00 485.10 L 734.20 481.70 L 733.90 478.00 L 734.30 473.90 L 743.40 475.20 L 752.40 476.90 L 770.10 481.50 L 787.70 486.80 L 788.50 462.40 L 782.80 459.20 L 777.00 456.60 L 771.10 454.50 L 762.00 451.90 L 727.70 445.00 L 715.70 441.40 L 709.90 439.10 L 704.20 436.20 L 698.70 432.80 L 710.90 428.50 L 723.10 424.60 L 735.50 421.10 L 747.90 418.10 L 773.10 413.10 L 798.60 409.70 L 798.00 406.00 L 796.70 394.00 L 796.10 391.50 L 794.10 387.10 L 792.50 385.30 L 790.50 383.90 L 780.10 380.00 L 772.30 377.80 L 740.60 370.90 L 732.80 368.90 L 725.00 366.50 L 737.30 357.00 L 743.80 352.60 L 750.40 348.60 L 768.30 339.00 L 785.90 328.90 L 781.70 314.50 L 777.00 300.20 L 772.00 286.10 L 766.40 272.10 L 760.50 258.30 L 754.10 244.80 L 747.30 231.40 L 734.90 209.20 L 729.30 200.50 L 723.20 192.10 L 716.70 184.00 L 709.90 176.20 L 702.70 168.70 L 695.10 161.60 L 687.30 154.80 L 679.10 148.40 L 670.60 142.40 L 661.90 136.80 L 652.90 131.60 L 660.60 148.30 L 668.60 164.90 L 659.20 158.70 L 642.70 149.00 L 629.10 142.40 L 622.00 139.60 L 614.90 137.20 L 607.60 135.30 L 600.20 133.90 L 592.60 133.10 L 584.90 133.00 L 607.30 153.70 L 618.80 166.10 L 627.00 176.80 L 630.60 182.40 L 633.90 188.40 L 636.80 194.60 L 613.30 178.30 L 607.20 174.50 L 596.70 169.20 L 587.70 166.00 L 580.80 164.50 L 573.80 163.40 L 566.80 162.80 L 556.20 162.50 L 524.30 163.00 L 527.10 156.40 L 530.30 150.10 L 533.90 144.00 L 542.00 132.50 L 546.50 127.10 L 553.70 119.30 L 561.20 111.70 L 576.90 97.50 L 560.70 93.30 L 544.30 89.50 L 527.80 86.30 L 511.20 83.70 L 509.10 108.10 L 507.70 120.30 L 505.90 132.50 L 503.50 144.50 L 500.60 156.50 L 477.90 141.40 L 470.10 136.70 L 464.80 133.80 L 459.30 131.40 L 453.60 129.30 L 449.50 128.30 L 445.50 127.70 L 441.50 127.60 L 435.50 128.00 L 429.50 129.10 L 423.50 130.50 L 405.80 135.40 L 398.50 136.30 L 404.00 131.70 L 409.80 127.50 L 415.80 123.80 L 422.00 120.50 L 428.40 117.60 L 434.90 115.00 L 448.50 110.80 L 465.80 107.00 L 476.30 105.30 L 463.50 101.20 L 457.00 99.60 L 450.50 98.50 L 446.10 98.20 L 441.60 98.50 L 429.10 101.00 L 389.50 112.50 L 400.80 102.40 L 412.50 92.80 L 425.10 88.30 L 410.10 84.10 Z M 727.20 188.50 L 729.00 190.90 L 735.80 201.90 L 739.30 205.60 L 743.00 207.50 L 762.30 202.30 L 772.10 200.30 L 782.00 198.90 L 788.70 198.40 L 795.30 198.30 L 802.10 198.70 L 809.90 203.10 L 813.70 205.70 L 817.30 208.60 L 823.50 215.20 L 826.10 218.80 L 828.20 222.70 L 829.80 226.80 L 831.00 233.30 L 830.70 240.40 L 831.00 245.40 L 830.80 250.10 L 830.10 254.60 L 829.00 258.90 L 827.40 263.10 L 823.30 271.10 L 816.90 279.70 L 812.80 284.20 L 808.20 288.50 L 801.10 294.60 L 790.50 302.30 L 788.50 305.50 L 787.80 309.00 L 788.50 312.50 L 789.30 314.20 L 790.50 315.60 L 792.10 316.80 L 794.10 317.70 L 806.90 314.50 L 813.30 312.30 L 819.60 309.80 L 825.60 306.90 L 831.40 303.60 L 837.00 299.80 L 842.20 295.70 L 846.90 291.10 L 850.20 287.40 L 853.20 283.50 L 855.90 279.20 L 858.20 274.70 L 860.40 270.00 L 862.10 265.20 L 863.40 260.30 L 864.40 255.30 L 865.00 245.20 L 864.20 235.00 L 862.90 228.40 L 861.00 221.90 L 858.50 215.50 L 855.40 209.50 L 851.80 203.80 L 847.60 198.40 L 844.20 194.60 L 836.50 188.00 L 827.50 182.20 L 822.50 179.80 L 817.40 177.80 L 809.50 175.40 L 801.40 173.60 L 785.10 170.90 L 777.40 171.60 L 769.90 172.70 L 762.40 174.30 L 755.10 176.20 L 747.80 178.60 L 740.80 181.40 L 733.90 184.70 L 727.20 188.50 Z M 746.00 214.10 L 756.40 235.00 L 766.40 256.00 L 772.90 270.10 L 784.90 298.80 L 800.50 292.10 L 799.20 289.10 L 808.30 281.90 L 812.40 277.90 L 816.20 273.50 L 820.50 267.10 L 824.40 258.90 L 825.90 253.90 L 826.90 248.80 L 827.30 243.50 L 827.10 238.40 L 826.30 233.30 L 823.90 226.00 L 820.10 219.40 L 817.70 216.50 L 815.00 213.90 L 811.80 211.50 L 804.20 207.10 L 800.30 205.30 L 796.20 204.20 L 792.00 203.50 L 787.80 203.20 L 783.60 203.30 L 777.10 204.10 L 770.70 205.60 L 758.00 209.60 L 746.00 214.10 Z" fill="#2f1428" fill-rule="nonzero" node-id="148" stroke="none" target-height="462.1" target-width="505.40002" target-x="389.5" target-y="72.9"></path><path d="M 511.20 83.70 L 527.80 86.30 L 544.30 89.50 L 560.70 93.30 L 576.90 97.50 L 561.20 111.70 L 553.70 119.30 L 546.50 127.10 L 542.00 132.50 L 533.90 144.00 L 530.30 150.10 L 527.10 156.40 L 524.30 163.00 L 556.20 162.50 L 566.80 162.80 L 573.80 163.40 L 580.80 164.50 L 587.70 166.00 L 596.70 169.20 L 607.20 174.50 L 613.30 178.30 L 636.80 194.60 L 633.90 188.40 L 630.60 182.40 L 627.00 176.80 L 618.80 166.10 L 607.30 153.70 L 584.90 133.00 L 592.60 133.10 L 600.20 133.90 L 607.60 135.30 L 614.90 137.20 L 622.00 139.60 L 629.10 142.40 L 642.70 149.00 L 649.40 152.80 L 668.60 164.90 L 703.10 199.10 L 711.40 208.00 L 719.30 217.30 L 724.10 223.60 L 728.50 230.30 L 732.40 237.20 L 735.90 244.30 L 739.00 251.60 L 741.80 259.10 L 744.20 266.70 L 748.00 282.20 L 747.70 288.70 L 746.80 295.10 L 745.40 301.30 L 743.90 305.90 L 742.10 310.30 L 739.90 314.40 L 737.30 318.40 L 734.40 322.10 L 731.10 325.50 L 727.40 328.60 L 723.20 331.50 L 710.50 336.00 L 697.70 340.00 L 680.30 344.30 L 671.40 346.00 L 668.40 339.90 L 661.40 328.10 L 657.40 322.60 L 653.10 317.30 L 648.40 312.40 L 643.40 307.90 L 637.90 303.80 L 632.00 300.10 L 639.40 300.90 L 629.60 292.10 L 626.60 288.90 L 623.40 284.10 L 622.20 281.30 L 612.90 256.90 L 608.60 244.50 L 604.80 232.00 L 603.90 216.70 L 603.10 213.00 L 601.80 209.50 L 599.20 205.30 L 597.30 203.40 L 592.70 199.00 L 587.90 195.10 L 582.90 191.50 L 577.50 188.20 L 570.10 184.40 L 562.40 181.10 L 554.50 178.40 L 546.30 176.30 L 538.20 174.50 L 527.30 172.80 L 525.10 172.90 L 523.20 173.50 L 520.20 176.10 L 517.30 181.10 L 513.40 190.70 L 508.30 187.50 L 503.10 184.90 L 499.40 183.60 L 495.60 182.80 L 491.70 182.40 L 496.50 163.30 L 483.70 158.60 L 470.50 155.40 L 463.80 154.30 L 457.10 153.70 L 450.40 153.60 L 443.70 153.80 L 437.10 154.50 L 430.50 155.80 L 423.90 157.50 L 417.40 159.80 L 418.30 157.30 L 418.60 154.90 L 418.40 152.70 L 416.90 148.40 L 413.40 143.40 L 405.80 135.40 L 429.50 129.10 L 435.50 128.00 L 441.50 127.60 L 445.50 127.70 L 449.50 128.30 L 453.60 129.30 L 459.30 131.40 L 464.80 133.80 L 470.10 136.70 L 477.90 141.40 L 500.60 156.50 L 503.50 144.50 L 505.90 132.50 L 507.70 120.30 L 509.10 108.10 L 511.20 83.70 Z" fill="#e38d4a" fill-rule="nonzero" node-id="150" stroke="none" target-height="262.3" target-width="342.2" target-x="405.8" target-y="83.7"></path><path d="M 193.90 154.10 L 196.10 147.80 L 198.80 141.80 L 201.80 136.00 L 205.40 130.40 L 209.30 125.00 L 213.60 120.00 L 218.20 115.30 L 223.10 110.90 L 228.40 106.90 L 233.90 103.30 L 239.60 100.20 L 245.60 97.50 L 251.80 95.30 L 258.10 93.70 L 264.70 92.60 L 278.00 91.90 L 284.50 92.30 L 290.90 93.20 L 297.30 94.50 L 303.50 96.30 L 309.60 98.50 L 321.60 103.80 L 335.90 111.80 L 344.10 117.00 L 323.40 131.20 L 306.70 124.20 L 295.30 120.50 L 289.40 119.30 L 283.50 118.40 L 277.50 118.20 L 266.20 118.90 L 260.90 119.80 L 255.70 121.00 L 250.50 122.80 L 245.60 124.90 L 240.90 127.50 L 236.50 130.50 L 232.60 133.90 L 229.00 137.70 L 226.60 140.90 L 222.80 147.90 L 219.70 156.50 L 218.70 161.10 L 218.20 165.60 L 218.20 170.10 L 218.60 174.60 L 219.40 179.10 L 221.20 185.80 L 226.20 199.10 L 234.60 218.30 L 227.40 228.20 L 215.50 217.60 L 209.80 212.00 L 204.60 206.00 L 198.40 197.50 L 195.80 192.90 L 193.90 188.80 L 192.60 184.60 L 191.70 180.30 L 191.20 171.50 L 191.50 167.10 L 192.40 160.50 L 193.90 154.10 Z" fill="#d4763f" fill-rule="nonzero" node-id="152" stroke="none" target-height="136.29999" target-width="152.90001" target-x="191.2" target-y="91.9"></path><path d="M 389.80 97.40 L 401.10 94.70 L 412.50 92.80 L 400.80 102.40 L 389.50 112.50 L 429.10 101.00 L 441.60 98.50 L 446.10 98.20 L 450.50 98.50 L 457.00 99.50 L 463.50 101.20 L 476.30 105.30 L 465.80 107.00 L 448.50 110.80 L 434.90 115.00 L 428.40 117.60 L 422.00 120.50 L 415.80 123.80 L 409.80 127.50 L 404.00 131.70 L 398.50 136.30 L 405.80 135.40 L 413.40 143.40 L 415.60 146.30 L 417.80 150.50 L 418.40 152.70 L 418.60 154.90 L 418.30 157.30 L 417.40 159.80 L 410.80 165.10 L 404.60 170.80 L 398.80 177.00 L 393.40 183.50 L 414.50 174.00 L 419.90 172.00 L 425.40 170.40 L 433.00 169.30 L 436.90 169.20 L 446.30 170.20 L 457.60 173.20 L 471.10 177.70 L 482.30 180.90 L 487.00 181.80 L 495.60 182.80 L 499.40 183.60 L 503.10 184.90 L 508.30 187.50 L 513.40 190.70 L 517.90 192.70 L 527.00 195.90 L 541.30 198.90 L 563.10 202.10 L 570.20 203.50 L 577.30 205.40 L 584.20 207.90 L 587.40 209.60 L 590.30 211.60 L 592.90 214.10 L 596.30 218.20 L 604.80 232.00 L 608.60 244.50 L 612.90 256.90 L 623.40 284.10 L 626.60 288.90 L 629.60 292.10 L 639.40 300.90 L 617.80 298.90 L 610.60 298.80 L 598.70 299.60 L 589.50 301.70 L 585.00 303.20 L 580.70 305.20 L 576.50 307.70 L 572.40 310.70 L 565.00 317.70 L 558.70 325.80 L 556.00 330.10 L 553.80 334.60 L 551.80 339.40 L 550.30 344.30 L 549.20 349.20 L 548.50 354.30 L 548.40 369.00 L 549.40 378.60 L 550.10 381.80 L 552.40 387.60 L 554.00 390.30 L 556.00 392.80 L 558.40 395.10 L 566.40 399.10 L 570.50 400.50 L 576.90 402.20 L 583.50 403.30 L 603.60 405.50 L 610.20 406.50 L 616.70 407.80 L 623.00 409.80 L 627.00 411.40 L 630.90 413.50 L 634.70 416.10 L 628.00 416.80 L 614.60 417.30 L 584.30 416.80 L 574.20 417.00 L 569.00 413.00 L 563.60 409.60 L 557.90 406.80 L 552.10 404.50 L 546.10 402.60 L 539.90 401.20 L 527.30 399.30 L 511.30 398.30 L 501.80 398.20 L 493.60 386.00 L 491.10 383.40 L 488.30 381.00 L 481.10 377.90 L 473.70 375.40 L 466.10 373.30 L 441.20 368.10 L 432.50 366.40 L 417.90 364.30 L 406.30 363.80 L 400.40 364.00 L 394.60 364.70 L 388.80 365.90 L 378.70 358.40 L 381.90 354.50 L 384.60 350.50 L 387.00 346.30 L 388.90 342.00 L 391.00 336.00 L 392.60 329.80 L 393.60 323.50 L 394.20 317.00 L 394.30 310.60 L 393.90 304.10 L 393.20 297.60 L 390.90 285.00 L 388.90 280.00 L 386.40 275.30 L 383.40 270.70 L 380.10 266.50 L 376.40 262.60 L 372.30 259.00 L 367.90 255.70 L 363.30 253.00 L 358.50 250.70 L 353.40 248.90 L 348.20 247.70 L 342.90 247.00 L 338.30 247.20 L 334.00 247.90 L 329.80 249.00 L 321.80 252.40 L 312.40 258.20 L 296.60 270.20 L 286.40 250.40 L 280.90 240.70 L 274.90 231.40 L 276.40 238.70 L 278.20 246.00 L 288.70 278.20 L 289.70 285.80 L 289.80 291.60 L 289.40 309.20 L 289.70 315.00 L 290.70 320.60 L 291.70 324.20 L 293.20 327.70 L 295.20 331.30 L 297.80 335.00 L 300.70 338.20 L 304.00 341.00 L 311.20 345.60 L 315.20 347.40 L 321.40 349.70 L 327.80 351.40 L 340.60 354.10 L 352.50 360.20 L 347.40 375.80 L 343.90 384.90 L 320.20 371.70 L 303.90 364.00 L 289.10 358.60 L 276.10 355.30 L 269.30 354.20 L 276.00 360.50 L 279.60 363.20 L 285.40 366.80 L 291.40 370.00 L 310.10 378.90 L 319.90 384.40 L 327.00 389.90 L 330.20 393.10 L 333.10 396.60 L 335.80 400.70 L 324.80 399.50 L 313.90 397.90 L 303.10 395.80 L 287.00 392.10 L 271.00 387.90 L 252.90 368.30 L 245.50 361.20 L 222.40 340.80 L 215.10 333.70 L 210.50 328.80 L 206.30 323.60 L 202.30 318.20 L 198.90 312.50 L 195.90 306.40 L 193.40 299.90 L 197.30 291.30 L 201.70 283.00 L 209.30 288.00 L 217.10 292.60 L 225.00 296.80 L 233.20 300.60 L 244.40 305.10 L 255.80 309.00 L 267.40 312.30 L 262.60 299.50 L 246.10 265.50 L 242.10 256.10 L 239.70 249.70 L 237.80 243.20 L 236.30 236.50 L 238.70 230.80 L 244.50 219.80 L 254.80 204.20 L 265.80 189.10 L 267.10 197.40 L 275.00 191.30 L 282.60 184.80 L 311.50 157.50 L 324.10 146.80 L 330.70 141.90 L 361.20 120.90 L 371.20 113.60 L 377.60 108.50 L 383.80 103.10 L 389.80 97.40 Z" fill="#e39350" fill-rule="nonzero" node-id="154" stroke="none" target-height="324.5" target-width="446.00003" target-x="193.4" target-y="92.8"></path><path d="M 344.10 117.00 L 351.20 112.60 L 358.50 108.70 L 366.10 105.20 L 373.90 102.20 L 381.70 99.60 L 389.80 97.40 L 383.80 103.10 L 377.60 108.50 L 371.20 113.60 L 361.20 120.90 L 330.70 141.90 L 324.10 146.80 L 311.50 157.50 L 282.60 184.80 L 275.00 191.30 L 267.10 197.40 L 265.80 189.10 L 274.20 178.30 L 283.10 168.00 L 292.50 158.10 L 299.90 151.00 L 315.30 137.50 L 323.40 131.20 L 344.10 117.00 Z" fill="#e5c6a4" fill-rule="nonzero" node-id="156" stroke="none" target-height="99.99999" target-width="124" target-x="265.8" target-y="97.4"></path><path d="M 253.50 128.30 L 258.50 126.30 L 263.50 124.70 L 268.60 123.70 L 273.80 123.10 L 279.00 123.00 L 284.20 123.30 L 289.30 124.00 L 294.50 125.20 L 299.50 126.80 L 304.30 128.70 L 309.00 131.10 L 313.60 133.80 L 300.40 146.20 L 286.20 157.40 L 274.80 129.80 L 253.50 128.30 Z" fill="#d6a6a0" fill-rule="nonzero" node-id="158" stroke="none" target-height="34.399994" target-width="60.100006" target-x="253.5" target-y="123"></path><path d="M 225.80 168.00 L 225.70 163.50 L 226.20 159.30 L 227.30 155.20 L 228.90 151.40 L 231.00 147.70 L 233.40 144.20 L 239.30 137.90 L 242.60 135.10 L 248.00 131.40 L 253.50 128.30 L 274.80 129.80 L 286.20 157.40 L 274.30 170.30 L 262.90 183.50 L 240.70 210.70 L 236.30 204.30 L 232.30 197.70 L 230.00 193.00 L 228.20 188.30 L 226.70 183.40 L 225.70 178.40 L 225.40 173.30 L 225.80 168.00 Z" fill="#e6e1e2" fill-rule="nonzero" node-id="160" stroke="none" target-height="82.399994" target-width="60.80002" target-x="225.4" target-y="128.3"></path><path d="M 652.90 131.60 L 661.90 136.80 L 670.60 142.40 L 679.10 148.40 L 687.30 154.80 L 695.10 161.60 L 702.70 168.70 L 709.90 176.20 L 716.70 184.00 L 723.20 192.10 L 729.30 200.50 L 734.90 209.20 L 747.30 231.40 L 754.10 244.80 L 760.50 258.30 L 766.40 272.10 L 772.00 286.10 L 777.00 300.20 L 781.70 314.50 L 785.90 328.90 L 768.30 339.00 L 750.40 348.60 L 749.30 344.20 L 748.20 335.50 L 748.10 328.80 L 748.50 322.20 L 750.00 302.10 L 749.70 291.00 L 749.00 286.60 L 744.20 266.70 L 739.00 251.60 L 735.90 244.30 L 732.40 237.20 L 728.50 230.30 L 724.10 223.60 L 719.30 217.30 L 711.40 208.00 L 703.10 199.10 L 668.60 164.90 L 660.60 148.30 L 652.90 131.60 Z" fill="#cb673e" fill-rule="nonzero" node-id="162" stroke="none" target-height="217" target-width="133" target-x="652.9" target-y="131.6"></path><path d="M 417.40 159.80 L 423.90 157.50 L 430.50 155.80 L 437.10 154.50 L 443.70 153.80 L 450.40 153.60 L 457.10 153.70 L 463.80 154.30 L 470.50 155.40 L 483.70 158.60 L 496.50 163.30 L 491.70 182.40 L 487.00 181.80 L 477.80 179.80 L 457.60 173.20 L 450.90 171.20 L 441.70 169.50 L 436.90 169.20 L 429.20 169.70 L 419.90 172.00 L 409.20 176.30 L 393.40 183.50 L 398.80 177.00 L 404.60 170.80 L 410.80 165.10 L 417.40 159.80 Z" fill="#2a122d" fill-rule="nonzero" node-id="164" stroke="none" target-height="29.899994" target-width="103.100006" target-x="393.4" target-y="153.6"></path><path d="M 513.40 190.70 L 517.30 181.10 L 518.90 178.00 L 521.60 174.60 L 523.20 173.50 L 525.10 172.90 L 527.30 172.80 L 538.20 174.50 L 546.30 176.30 L 554.50 178.40 L 562.40 181.10 L 570.10 184.40 L 577.50 188.20 L 582.90 191.50 L 587.90 195.10 L 592.70 199.00 L 599.20 205.30 L 601.80 209.50 L 603.10 213.00 L 604.30 220.50 L 604.80 232.00 L 599.30 222.70 L 596.30 218.20 L 592.90 214.10 L 590.30 211.60 L 587.40 209.60 L 584.20 207.90 L 577.30 205.40 L 570.20 203.50 L 563.10 202.10 L 541.30 198.90 L 527.00 195.90 L 517.90 192.70 L 513.40 190.70 Z" fill="#2d162d" fill-rule="nonzero" node-id="166" stroke="none" target-height="59.199997" target-width="91.39996" target-x="513.4" target-y="172.8"></path><path d="M 727.20 188.50 L 733.90 184.70 L 740.80 181.40 L 747.80 178.60 L 755.10 176.20 L 762.40 174.30 L 769.90 172.70 L 777.40 171.60 L 785.10 170.90 L 795.60 187.20 L 788.00 191.80 L 802.10 198.70 L 795.30 198.30 L 788.70 198.40 L 782.00 198.90 L 772.10 200.30 L 762.30 202.30 L 743.00 207.50 L 739.30 205.60 L 735.80 201.90 L 729.00 190.90 L 727.20 188.50 Z" fill="#c76437" fill-rule="nonzero" node-id="168" stroke="none" target-height="36.600006" target-width="74.89996" target-x="727.2" target-y="170.9"></path><path d="M 785.10 170.90 L 801.40 173.60 L 809.50 175.40 L 817.40 177.80 L 822.50 179.80 L 827.50 182.20 L 836.50 188.00 L 840.50 191.10 L 847.60 198.40 L 851.80 203.80 L 855.40 209.50 L 858.50 215.50 L 861.00 221.90 L 862.90 228.40 L 864.20 235.00 L 865.00 245.20 L 864.40 255.30 L 863.40 260.30 L 862.10 265.20 L 860.40 270.00 L 855.90 279.20 L 853.20 283.50 L 850.20 287.40 L 846.90 291.10 L 842.20 295.70 L 837.00 299.80 L 831.40 303.60 L 825.60 306.90 L 819.60 309.80 L 813.30 312.30 L 806.90 314.50 L 794.10 317.70 L 792.10 316.80 L 790.50 315.60 L 789.30 314.20 L 788.50 312.50 L 787.80 309.00 L 788.50 305.50 L 790.50 302.30 L 801.10 294.60 L 808.20 288.50 L 812.80 284.20 L 816.90 279.70 L 820.70 274.90 L 825.50 267.10 L 829.00 258.90 L 830.10 254.60 L 830.80 250.10 L 831.00 245.40 L 830.70 240.40 L 831.00 233.30 L 829.80 226.80 L 828.20 222.70 L 826.10 218.80 L 823.50 215.20 L 820.50 211.80 L 817.30 208.60 L 809.90 203.10 L 802.10 198.70 L 788.00 191.80 L 795.60 187.20 L 785.10 170.90 Z" fill="#d47542" fill-rule="nonzero" node-id="170" stroke="none" target-height="146.80002" target-width="79.900024" target-x="785.1" target-y="170.9"></path><path d="M 746.00 214.10 L 758.00 209.60 L 770.70 205.60 L 777.10 204.10 L 783.60 203.30 L 787.80 203.20 L 792.00 203.50 L 796.20 204.20 L 800.30 205.30 L 804.20 207.10 L 808.20 209.40 L 777.20 217.60 L 778.30 225.90 L 779.80 234.10 L 784.00 250.20 L 789.50 266.00 L 800.50 292.10 L 784.90 298.80 L 779.00 284.40 L 766.40 256.00 L 756.40 235.00 L 746.00 214.10 Z" fill="#caa19f" fill-rule="nonzero" node-id="172" stroke="none" target-height="95.59999" target-width="62.200012" target-x="746" target-y="203.2"></path><path d="M 777.20 217.60 L 808.20 209.40 L 811.80 211.50 L 815.00 213.80 L 817.70 216.50 L 820.10 219.40 L 822.20 222.70 L 825.20 229.60 L 826.30 233.30 L 827.10 238.40 L 827.30 243.50 L 826.90 248.80 L 825.90 253.90 L 824.40 258.90 L 820.50 267.10 L 816.20 273.50 L 812.40 277.90 L 808.30 281.90 L 799.20 289.10 L 789.50 266.00 L 784.00 250.20 L 779.80 234.10 L 778.30 225.90 L 777.20 217.60 Z" fill="#dbc3c0" fill-rule="nonzero" node-id="174" stroke="none" target-height="79.70001" target-width="50.099976" target-x="777.2" target-y="209.4"></path><path d="M 492.10 397.50 L 501.80 398.20 L 520.90 398.70 L 527.30 399.30 L 539.90 401.20 L 546.10 402.60 L 552.10 404.50 L 557.90 406.80 L 563.60 409.60 L 569.00 413.00 L 574.20 417.00 L 557.50 419.00 L 549.10 420.40 L 540.90 422.30 L 535.60 424.00 L 530.40 426.10 L 525.30 428.60 L 534.50 428.00 L 562.20 425.50 L 571.50 424.90 L 580.70 424.80 L 587.90 442.00 L 554.20 441.90 L 545.80 442.20 L 537.30 442.90 L 546.70 445.00 L 556.20 446.60 L 584.90 450.30 L 594.40 451.80 L 597.20 475.80 L 558.60 460.50 L 545.50 456.40 L 538.70 454.80 L 555.90 467.60 L 544.80 477.00 L 539.10 481.40 L 533.10 485.40 L 524.90 489.40 L 516.30 491.90 L 510.30 492.80 L 504.30 493.20 L 498.30 492.90 L 492.30 492.10 L 486.40 490.80 L 480.60 488.90 L 475.00 486.40 L 469.80 483.50 L 464.80 480.00 L 458.10 474.00 L 452.50 466.90 L 450.10 462.30 L 448.60 456.30 L 448.30 452.50 L 448.70 437.10 L 468.40 432.00 L 481.50 427.70 L 487.60 424.90 L 491.50 422.70 L 498.50 417.40 L 501.60 414.20 L 504.40 410.60 L 506.90 406.40 L 492.10 397.50 Z" fill="#f5ece9" fill-rule="nonzero" node-id="176" stroke="none" target-height="95.70001" target-width="148.90002" target-x="448.3" target-y="397.5"></path><path d="M 274.90 231.40 L 280.90 240.70 L 286.40 250.40 L 296.60 270.20 L 312.40 258.20 L 317.90 254.60 L 325.70 250.50 L 329.80 249.00 L 334.00 247.90 L 338.30 247.20 L 342.90 247.00 L 348.20 247.70 L 353.40 248.90 L 358.50 250.70 L 363.30 253.00 L 367.90 255.70 L 372.30 259.00 L 376.40 262.60 L 380.10 266.50 L 383.40 270.70 L 386.40 275.30 L 388.90 280.00 L 390.90 285.00 L 392.20 291.20 L 393.90 304.10 L 394.30 310.60 L 394.20 317.00 L 393.60 323.50 L 392.60 329.80 L 391.00 336.00 L 388.90 342.00 L 387.00 346.30 L 384.60 350.50 L 381.90 354.50 L 378.70 358.40 L 352.50 360.20 L 349.70 354.80 L 345.10 343.40 L 343.50 337.50 L 342.50 331.60 L 342.10 325.60 L 342.30 321.20 L 343.00 316.70 L 344.10 312.20 L 345.80 307.70 L 355.10 312.40 L 362.20 315.10 L 365.50 315.70 L 367.70 315.70 L 369.70 315.30 L 371.60 314.60 L 373.10 313.40 L 374.60 311.60 L 375.90 309.00 L 370.90 302.50 L 365.60 296.30 L 389.80 296.90 L 388.00 291.80 L 385.70 286.80 L 382.90 282.10 L 379.80 277.50 L 376.30 273.30 L 372.50 269.40 L 368.30 265.90 L 363.90 262.80 L 359.20 260.20 L 354.20 258.10 L 348.90 256.70 L 343.40 255.80 L 339.40 256.00 L 335.60 256.60 L 328.30 258.80 L 323.80 261.10 L 319.60 263.80 L 315.60 267.00 L 312.00 270.70 L 308.80 274.60 L 306.00 278.90 L 303.70 283.50 L 301.80 288.20 L 300.30 293.20 L 299.40 298.20 L 299.10 303.30 L 299.30 308.30 L 299.80 312.10 L 302.00 319.50 L 303.60 323.10 L 305.80 326.60 L 310.90 332.80 L 315.30 336.90 L 320.20 340.60 L 340.60 354.10 L 327.80 351.40 L 321.40 349.70 L 315.20 347.40 L 311.20 345.60 L 304.00 341.00 L 300.70 338.20 L 297.80 335.00 L 295.20 331.30 L 293.20 327.70 L 291.70 324.20 L 290.70 320.60 L 289.70 315.00 L 289.40 309.20 L 289.80 291.60 L 289.70 285.80 L 288.70 278.20 L 278.20 246.00 L 276.40 238.70 L 274.90 231.40 Z" fill="#351322" fill-rule="nonzero" node-id="178" stroke="none" target-height="128.80002" target-width="119.399994" target-x="274.9" target-y="231.4"></path><path d="M 303.60 323.10 L 300.70 315.80 L 299.30 308.30 L 299.10 303.30 L 299.40 298.20 L 300.30 293.20 L 301.80 288.20 L 303.70 283.50 L 306.00 278.90 L 308.80 274.60 L 312.00 270.70 L 315.60 267.00 L 319.60 263.80 L 323.80 261.10 L 328.30 258.80 L 331.90 257.50 L 339.40 256.00 L 343.40 255.80 L 348.90 256.70 L 354.20 258.10 L 359.20 260.20 L 363.90 262.80 L 368.30 265.90 L 372.50 269.40 L 376.30 273.30 L 379.80 277.50 L 382.90 282.10 L 385.70 286.80 L 388.00 291.80 L 389.80 296.90 L 365.60 296.30 L 370.90 302.50 L 375.90 309.00 L 374.60 311.60 L 373.10 313.40 L 371.60 314.60 L 369.70 315.30 L 367.70 315.70 L 365.50 315.70 L 362.20 315.10 L 355.10 312.40 L 345.80 307.70 L 344.10 312.20 L 343.00 316.70 L 342.30 321.20 L 342.10 325.60 L 342.50 331.60 L 343.50 337.50 L 345.10 343.40 L 349.70 354.80 L 352.50 360.20 L 340.60 354.10 L 320.20 340.60 L 315.30 336.90 L 310.90 332.80 L 305.80 326.60 L 303.60 323.10 Z" fill="#f6edeb" fill-rule="nonzero" node-id="180" stroke="none" target-height="104.40001" target-width="90.69998" target-x="299.1" target-y="255.8"></path><path d="M 748.00 282.20 L 749.00 286.60 L 750.00 295.40 L 750.00 302.10 L 748.10 328.80 L 748.20 335.50 L 749.30 344.20 L 750.40 348.60 L 743.80 352.60 L 737.30 357.00 L 725.00 366.50 L 732.80 368.90 L 740.60 370.90 L 772.30 377.80 L 780.10 380.00 L 790.50 383.90 L 792.50 385.30 L 794.10 387.10 L 796.10 391.50 L 796.70 394.00 L 798.00 406.00 L 798.60 409.70 L 773.10 413.10 L 747.90 418.10 L 735.50 421.10 L 723.10 424.60 L 710.90 428.50 L 698.70 432.80 L 704.20 436.20 L 709.90 439.10 L 715.70 441.40 L 727.70 445.00 L 762.00 451.90 L 771.10 454.50 L 777.00 456.60 L 782.80 459.20 L 788.50 462.40 L 787.70 486.80 L 770.10 481.50 L 752.40 476.90 L 743.40 475.20 L 734.30 473.90 L 733.90 478.00 L 734.20 481.70 L 735.00 485.10 L 736.40 488.30 L 738.10 491.30 L 740.30 494.20 L 744.00 498.10 L 756.90 508.70 L 749.60 519.80 L 730.80 517.50 L 724.50 516.50 L 718.40 515.00 L 712.50 513.10 L 705.00 509.50 L 701.50 507.10 L 693.70 499.70 L 685.10 489.50 L 675.30 476.90 L 667.70 467.60 L 662.00 462.30 L 658.70 460.10 L 654.10 457.70 L 649.30 455.80 L 644.20 454.50 L 606.50 446.80 L 587.90 442.00 L 580.70 424.80 L 599.90 425.10 L 660.80 428.20 L 664.10 427.70 L 667.40 426.70 L 676.80 422.40 L 661.60 420.60 L 646.30 419.30 L 650.90 412.70 L 654.90 405.80 L 658.40 398.70 L 661.40 391.40 L 664.10 383.90 L 666.30 376.30 L 668.20 368.50 L 670.90 352.80 L 686.00 350.70 L 693.50 349.20 L 701.00 347.30 L 708.20 345.00 L 715.30 342.30 L 720.40 339.90 L 730.30 334.10 L 735.00 330.70 L 723.20 331.50 L 727.40 328.60 L 731.10 325.50 L 734.40 322.10 L 737.30 318.40 L 739.90 314.40 L 742.10 310.30 L 743.90 305.90 L 745.40 301.30 L 746.80 295.10 L 747.70 288.70 L 748.00 282.20 Z" fill="#df8346" fill-rule="nonzero" node-id="182" stroke="none" target-height="237.59998" target-width="217.89996" target-x="580.7" target-y="282.2"></path><path d="M 576.50 307.70 L 580.70 305.20 L 585.00 303.20 L 589.50 301.70 L 598.70 299.60 L 610.60 298.80 L 617.80 298.90 L 632.00 300.10 L 637.90 303.80 L 643.40 307.90 L 648.40 312.40 L 653.10 317.30 L 657.40 322.60 L 661.40 328.10 L 668.40 339.90 L 671.40 346.00 L 680.30 344.30 L 697.70 340.00 L 710.50 336.00 L 723.20 331.50 L 735.00 330.70 L 730.30 334.10 L 720.40 339.90 L 715.30 342.30 L 708.20 345.00 L 701.00 347.30 L 693.50 349.20 L 686.00 350.70 L 670.90 352.80 L 669.70 360.70 L 666.30 376.30 L 664.10 383.90 L 661.40 391.40 L 658.40 398.70 L 654.90 405.80 L 650.90 412.70 L 646.30 419.30 L 661.60 420.60 L 676.80 422.40 L 667.40 426.70 L 664.10 427.70 L 660.80 428.20 L 599.90 425.10 L 580.70 424.80 L 571.50 424.90 L 562.20 425.50 L 534.50 428.00 L 525.30 428.60 L 530.40 426.10 L 535.60 424.00 L 540.90 422.30 L 549.10 420.40 L 557.50 419.00 L 574.20 417.00 L 584.30 416.80 L 614.60 417.30 L 628.00 416.80 L 634.70 416.10 L 630.90 413.50 L 627.00 411.40 L 623.00 409.80 L 616.70 407.80 L 610.20 406.50 L 603.60 405.50 L 583.50 403.30 L 576.90 402.20 L 570.50 400.50 L 562.40 397.30 L 558.40 395.10 L 556.00 392.80 L 554.00 390.30 L 552.40 387.60 L 550.10 381.80 L 549.40 378.60 L 548.40 369.00 L 548.50 354.30 L 549.20 349.20 L 550.30 344.30 L 551.80 339.40 L 553.80 334.60 L 556.00 330.10 L 558.70 325.80 L 561.70 321.60 L 568.50 314.00 L 576.50 307.70 Z M 567.80 326.90 L 578.30 332.20 L 581.60 334.30 L 584.60 336.70 L 587.10 339.50 L 588.50 341.70 L 589.50 344.10 L 591.50 350.50 L 592.20 354.10 L 592.60 357.60 L 592.50 361.10 L 591.80 365.70 L 590.70 370.20 L 588.90 374.60 L 584.40 383.00 L 581.70 387.10 L 572.80 398.30 L 584.60 398.70 L 596.40 399.70 L 643.60 405.20 L 649.40 395.80 L 651.90 390.70 L 655.90 380.10 L 657.30 374.60 L 658.30 369.00 L 658.90 363.50 L 659.00 358.00 L 658.60 352.50 L 657.60 347.10 L 656.00 341.80 L 654.50 338.00 L 650.30 330.70 L 644.60 323.60 L 641.30 320.40 L 637.70 317.60 L 633.80 315.10 L 625.50 311.20 L 616.70 308.80 L 612.10 308.20 L 603.00 308.00 L 594.00 309.40 L 589.60 310.70 L 585.50 312.40 L 581.40 314.50 L 577.60 317.00 L 574.10 319.90 L 570.80 323.20 L 567.80 326.90 Z M 559.50 346.30 L 571.00 345.30 L 582.40 343.90 L 579.90 339.50 L 577.00 336.70 L 574.70 335.60 L 572.30 335.10 L 569.90 335.10 L 567.60 335.70 L 565.40 336.80 L 563.40 338.50 L 561.70 340.50 L 560.40 343.10 L 559.50 346.30 Z" fill="#351f26" fill-rule="nonzero" node-id="184" stroke="none" target-height="129.80002" target-width="209.70001" target-x="525.3" target-y="298.8"></path><path d="M 567.80 326.90 L 570.80 323.20 L 574.10 319.90 L 577.60 317.00 L 581.40 314.50 L 585.50 312.40 L 589.60 310.70 L 594.00 309.40 L 598.50 308.50 L 607.60 307.90 L 616.70 308.80 L 625.50 311.20 L 633.80 315.10 L 637.70 317.60 L 641.30 320.40 L 644.60 323.60 L 650.30 330.70 L 652.60 334.30 L 656.00 341.80 L 657.60 347.10 L 658.60 352.50 L 659.00 358.00 L 658.90 363.50 L 658.30 369.00 L 657.30 374.60 L 655.90 380.10 L 651.90 390.70 L 649.40 395.80 L 643.60 405.20 L 596.40 399.70 L 584.60 398.70 L 572.80 398.30 L 581.70 387.10 L 584.40 383.00 L 588.90 374.60 L 590.70 370.20 L 591.80 365.70 L 592.50 361.10 L 592.60 357.60 L 592.20 354.10 L 591.50 350.50 L 589.50 344.10 L 588.50 341.70 L 587.10 339.50 L 584.60 336.70 L 581.60 334.30 L 578.30 332.20 L 567.80 326.90 Z" fill="#f3f0ef" fill-rule="nonzero" node-id="186" stroke="none" target-height="97.30002" target-width="91.20001" target-x="567.8" target-y="307.9"></path><path d="M 78.60 342.60 L 82.00 339.80 L 85.60 337.70 L 89.30 336.20 L 93.20 335.30 L 97.30 334.80 L 101.50 334.80 L 109.80 336.10 L 114.00 337.30 L 118.00 338.90 L 125.80 342.70 L 131.10 346.20 L 135.80 349.90 L 116.50 349.00 L 106.90 348.30 L 97.30 347.20 L 91.00 346.10 L 84.80 344.50 L 78.60 342.60 Z" fill="#471d31" fill-rule="nonzero" node-id="188" stroke="none" target-height="15.100006" target-width="57.200005" target-x="78.6" target-y="334.8"></path><path d="M 269.30 354.20 L 276.10 355.30 L 289.10 358.60 L 303.90 364.00 L 320.20 371.70 L 343.90 384.90 L 357.10 393.50 L 339.40 400.50 L 354.80 407.30 L 369.90 414.90 L 353.20 412.50 L 320.10 405.50 L 322.90 420.20 L 317.20 415.90 L 311.20 412.10 L 305.00 409.00 L 298.60 406.30 L 292.00 404.00 L 285.30 402.20 L 275.00 400.00 L 264.50 398.30 L 243.60 395.80 L 257.20 391.30 L 271.00 387.90 L 287.00 392.10 L 303.10 395.80 L 313.90 397.90 L 324.80 399.50 L 335.80 400.70 L 333.10 396.60 L 330.20 393.10 L 327.00 389.90 L 319.90 384.40 L 310.10 378.90 L 291.40 370.00 L 285.40 366.80 L 279.60 363.20 L 276.00 360.50 L 269.30 354.20 Z" fill="#95584e" fill-rule="nonzero" node-id="190" stroke="none" target-height="66" target-width="126.29999" target-x="243.6" target-y="354.2"></path><path d="M 98.70 361.90 L 125.20 362.20 L 126.20 370.60 L 98.00 370.80 L 98.70 361.90 Z" fill="#452736" fill-rule="nonzero" node-id="192" stroke="none" target-height="8.899994" target-width="28.199997" target-x="98" target-y="361.9"></path><path d="M 171.10 358.30 L 244.30 376.00 L 249.40 376.40 L 254.60 376.20 L 259.80 375.60 L 271.00 387.90 L 257.20 391.30 L 243.60 395.80 L 264.50 398.30 L 275.00 400.00 L 285.30 402.20 L 292.00 404.00 L 298.60 406.30 L 305.00 409.00 L 311.20 412.10 L 317.20 415.90 L 322.90 420.20 L 323.80 424.20 L 314.00 424.60 L 284.50 426.70 L 274.60 426.90 L 264.90 426.70 L 258.40 426.10 L 251.90 425.20 L 236.50 421.50 L 218.40 416.10 L 209.60 412.80 L 203.90 410.30 L 193.10 404.30 L 188.10 400.80 L 183.30 396.80 L 176.70 390.00 L 175.00 387.60 L 173.80 384.90 L 172.50 380.80 L 171.70 376.40 L 171.40 371.80 L 171.10 358.30 Z" fill="#db8c4d" fill-rule="nonzero" node-id="194" stroke="none" target-height="68.600006" target-width="152.69998" target-x="171.1" target-y="358.3"></path><path d="M 352.50 360.20 L 378.70 358.40 L 388.80 365.90 L 389.40 380.60 L 384.30 367.60 L 365.80 371.40 L 347.40 375.80 L 352.50 360.20 Z" fill="#dbb095" fill-rule="nonzero" node-id="196" stroke="none" target-height="22.200012" target-width="42" target-x="347.4" target-y="358.4"></path><path d="M 369.10 627.80 L 386.30 635.20 L 404.20 642.30 L 416.40 646.70 L 428.60 650.70 L 450.40 656.60 L 469.20 660.20 L 478.70 661.40 L 488.20 662.20 L 497.60 662.50 L 507.00 662.30 L 516.50 661.60 L 523.90 660.60 L 531.40 659.20 L 538.80 657.30 L 546.20 655.10 L 553.70 652.40 L 554.50 662.40 L 554.80 672.50 L 554.20 686.00 L 553.40 692.60 L 552.00 699.20 L 550.20 705.60 L 547.80 712.00 L 543.60 719.00 L 539.10 725.70 L 534.20 732.20 L 529.00 738.50 L 523.40 744.30 L 517.50 749.80 L 511.20 754.90 L 504.50 759.50 L 497.40 763.60 L 488.30 764.20 L 479.20 765.30 L 451.90 769.50 L 442.80 770.60 L 433.70 771.30 L 424.50 771.30 L 398.80 758.80 L 393.00 755.20 L 387.50 751.20 L 382.30 746.90 L 377.40 742.20 L 371.10 735.60 L 365.40 728.70 L 360.10 721.30 L 362.50 694.00 L 364.40 666.60 L 369.10 627.80 Z" fill="#f4ede9" fill-rule="nonzero" node-id="198" stroke="none" target-height="143.5" target-width="194.69998" target-x="360.1" target-y="627.8"></path><path d="M 388.80 365.90 L 394.60 364.70 L 400.40 364.00 L 406.30 363.80 L 417.90 364.30 L 423.70 365.00 L 441.20 368.10 L 466.10 373.30 L 473.70 375.40 L 481.10 377.90 L 488.30 381.00 L 479.20 380.90 L 470.00 380.20 L 442.30 377.10 L 433.10 376.40 L 427.00 376.20 L 414.90 376.80 L 408.90 377.70 L 403.00 379.00 L 397.00 380.90 L 392.60 389.00 L 389.40 380.60 L 388.80 365.90 Z" fill="#c96e58" fill-rule="nonzero" node-id="200" stroke="none" target-height="25.200012" target-width="99.5" target-x="388.8" target-y="363.8"></path><path d="M 347.40 375.80 L 365.80 371.40 L 384.30 367.60 L 392.60 389.00 L 395.50 394.50 L 398.80 399.50 L 402.50 404.10 L 411.00 412.40 L 415.60 416.20 L 444.80 437.30 L 443.80 446.80 L 442.10 453.10 L 439.20 458.80 L 437.30 461.30 L 434.90 463.60 L 431.00 466.50 L 426.80 468.90 L 422.50 471.00 L 418.00 472.60 L 408.60 474.60 L 399.00 475.20 L 394.10 474.90 L 384.70 473.20 L 375.50 470.10 L 371.20 468.00 L 363.20 462.90 L 359.60 459.90 L 356.30 456.50 L 353.30 452.90 L 350.70 448.90 L 348.50 444.80 L 346.70 440.30 L 345.40 435.50 L 344.60 430.40 L 361.50 428.00 L 352.10 426.40 L 342.70 425.30 L 333.30 424.50 L 323.80 424.20 L 320.10 405.50 L 353.20 412.50 L 369.90 414.90 L 354.80 407.30 L 339.40 400.50 L 357.10 393.50 L 343.90 384.90 L 347.40 375.80 Z" fill="#f4ebea" fill-rule="nonzero" node-id="202" stroke="none" target-height="107.600006" target-width="124.69998" target-x="320.1" target-y="367.6"></path><path d="M 397.00 380.90 L 403.00 379.00 L 408.90 377.70 L 414.90 376.80 L 427.00 376.20 L 442.30 377.10 L 470.00 380.20 L 479.20 380.90 L 488.30 381.00 L 491.10 383.40 L 493.60 386.00 L 501.80 398.20 L 492.10 397.50 L 468.50 392.70 L 444.70 388.30 L 420.90 384.40 L 397.00 380.90 Z" fill="#ded0cf" fill-rule="nonzero" node-id="204" stroke="none" target-height="22" target-width="104.79999" target-x="397" target-y="376.2"></path><path d="M 392.60 389.00 L 397.00 380.90 L 420.90 384.40 L 444.70 388.30 L 468.50 392.70 L 492.10 397.50 L 506.90 406.40 L 504.40 410.60 L 501.60 414.20 L 498.50 417.40 L 491.50 422.70 L 487.60 424.90 L 481.50 427.70 L 475.00 430.00 L 468.40 432.00 L 448.70 437.10 L 448.30 452.50 L 448.60 456.30 L 450.10 462.30 L 452.50 466.90 L 458.10 474.00 L 464.80 480.00 L 469.80 483.50 L 475.00 486.40 L 480.60 488.90 L 486.40 490.80 L 492.30 492.10 L 498.30 492.90 L 504.30 493.20 L 510.30 492.80 L 516.30 491.90 L 520.70 490.80 L 529.00 487.50 L 533.10 485.40 L 539.10 481.40 L 544.80 477.00 L 555.90 467.60 L 538.80 454.80 L 545.50 456.40 L 558.60 460.50 L 587.50 472.10 L 627.40 487.60 L 642.40 493.90 L 657.20 500.60 L 671.70 507.80 L 686.00 515.50 L 678.30 519.20 L 634.70 498.60 L 626.30 495.10 L 617.70 492.00 L 608.90 489.40 L 615.90 497.60 L 623.20 505.60 L 653.50 536.20 L 660.80 544.20 L 667.70 552.50 L 672.30 561.40 L 677.50 570.00 L 688.80 586.60 L 681.80 589.80 L 673.10 574.20 L 663.80 559.10 L 657.40 550.40 L 650.70 541.90 L 643.60 533.80 L 636.20 526.00 L 628.40 518.50 L 620.40 511.40 L 612.10 504.60 L 603.40 498.10 L 602.00 494.30 L 600.30 491.00 L 598.20 488.20 L 593.10 483.20 L 585.40 478.40 L 559.80 467.10 L 557.50 471.20 L 552.00 478.60 L 548.90 481.80 L 544.40 485.90 L 539.60 489.40 L 534.40 492.40 L 528.90 495.00 L 523.20 497.10 L 517.30 498.70 L 511.30 499.70 L 505.30 500.20 L 499.20 500.30 L 493.10 499.70 L 487.10 498.60 L 475.90 495.20 L 470.90 492.90 L 466.20 490.10 L 457.40 483.50 L 453.30 479.70 L 441.70 467.70 L 432.00 473.30 L 421.60 477.40 L 416.20 479.00 L 405.20 480.90 L 399.70 481.20 L 394.10 481.20 L 388.60 480.70 L 383.20 479.70 L 377.90 478.30 L 372.70 476.50 L 367.60 474.10 L 362.80 471.30 L 355.00 465.70 L 352.30 463.30 L 350.00 460.60 L 346.20 454.50 L 344.70 451.30 L 341.30 440.90 L 338.60 430.40 L 344.60 430.40 L 345.40 435.50 L 346.70 440.30 L 348.50 444.80 L 350.70 448.90 L 353.30 452.90 L 356.30 456.50 L 359.60 459.90 L 363.20 462.90 L 371.20 468.00 L 380.00 471.80 L 389.40 474.20 L 399.00 475.20 L 408.60 474.60 L 418.00 472.60 L 422.50 471.00 L 426.80 468.90 L 431.00 466.50 L 434.90 463.60 L 437.30 461.30 L 439.20 458.80 L 442.10 453.10 L 443.80 446.80 L 444.80 437.30 L 422.80 421.60 L 411.00 412.40 L 402.50 404.10 L 398.80 399.50 L 395.50 394.50 L 392.60 389.00 Z" fill="#3b1b28" fill-rule="nonzero" node-id="206" stroke="none" target-height="208.9" target-width="350.19998" target-x="338.6" target-y="380.9"></path><path d="M 839.40 405.50 L 849.30 404.70 L 859.10 403.30 L 868.80 401.40 L 878.30 399.00 L 887.70 396.10 L 897.00 392.80 L 906.20 389.00 L 915.20 384.90 L 914.50 388.40 L 913.40 391.50 L 911.80 394.30 L 909.80 396.70 L 907.50 398.90 L 904.80 400.80 L 900.50 403.20 L 895.90 405.20 L 881.10 409.70 L 870.20 411.50 L 862.00 412.10 L 837.10 412.30 L 839.40 405.50 Z" fill="#44262f" fill-rule="nonzero" node-id="208" stroke="none" target-height="27.399994" target-width="78.10004" target-x="837.1" target-y="384.9"></path><path d="M 96.60 402.60 L 101.70 401.30 L 112.10 400.00 L 128.00 400.00 L 130.20 407.30 L 122.70 408.20 L 115.30 409.60 L 85.90 416.60 L 78.50 417.90 L 71.00 418.60 L 72.00 415.80 L 73.30 413.50 L 74.90 411.50 L 78.90 408.50 L 84.90 405.90 L 96.60 402.60 Z" fill="#422432" fill-rule="nonzero" node-id="210" stroke="none" target-height="18.600006" target-width="59.199997" target-x="71" target-y="400"></path><path d="M 171.80 428.40 L 197.10 428.90 L 209.70 429.40 L 230.70 431.30 L 247.30 434.00 L 237.10 438.80 L 205.90 452.30 L 195.70 457.10 L 185.50 462.20 L 182.30 457.00 L 179.40 451.60 L 176.90 446.00 L 174.80 440.30 L 173.10 434.40 L 171.80 428.40 Z" fill="#dc824a" fill-rule="nonzero" node-id="212" stroke="none" target-height="33.80002" target-width="75.5" target-x="171.8" target-y="428.4"></path><path d="M 191.50 469.00 L 197.50 464.70 L 210.20 457.00 L 216.90 453.60 L 223.70 450.60 L 230.70 448.10 L 231.00 458.70 L 231.90 469.40 L 233.60 471.60 L 235.60 473.40 L 237.90 474.80 L 241.50 476.60 L 253.20 480.70 L 244.60 487.70 L 240.70 491.60 L 237.10 495.80 L 233.80 500.20 L 225.80 513.70 L 200.60 489.50 L 191.80 481.90 L 191.50 469.00 Z" fill="#cf8862" fill-rule="nonzero" node-id="214" stroke="none" target-height="65.600006" target-width="61.699997" target-x="191.5" target-y="448.1"></path><path d="M 253.20 480.70 L 266.30 472.60 L 283.40 463.90 L 294.00 459.30 L 315.40 450.70 L 305.50 456.90 L 275.20 474.10 L 265.20 480.00 L 247.10 492.30 L 230.90 505.00 L 233.80 500.20 L 237.10 495.80 L 240.70 491.60 L 248.80 484.10 L 253.20 480.70 Z" fill="#2f1c2d" fill-rule="nonzero" node-id="216" stroke="none" target-height="54.299988" target-width="84.5" target-x="230.9" target-y="450.7"></path><path d="M 594.40 451.80 L 603.60 452.90 L 621.70 456.10 L 630.70 458.20 L 639.40 460.80 L 648.00 463.90 L 654.40 466.60 L 666.60 473.00 L 672.50 476.70 L 670.20 470.70 L 675.30 476.90 L 685.10 489.50 L 693.70 499.70 L 701.50 507.10 L 705.00 509.50 L 712.50 513.10 L 718.40 515.00 L 724.50 516.50 L 730.80 517.50 L 749.60 519.80 L 756.90 508.70 L 763.60 516.80 L 769.40 525.60 L 760.60 533.00 L 758.20 534.50 L 755.70 535.40 L 754.00 535.60 L 752.10 535.40 L 718.60 523.30 L 707.90 520.00 L 700.70 518.10 L 693.40 516.60 L 686.00 515.50 L 671.70 507.80 L 657.20 500.60 L 642.40 493.90 L 627.40 487.60 L 597.20 475.80 L 594.40 451.80 Z" fill="#d97643" fill-rule="nonzero" node-id="218" stroke="none" target-height="83.79999" target-width="175" target-x="594.4" target-y="451.8"></path><path d="M 835.10 452.90 L 840.50 454.10 L 845.70 455.80 L 850.60 458.20 L 857.50 462.70 L 863.40 468.50 L 864.40 473.60 L 864.80 478.70 L 864.90 499.60 L 859.60 499.40 L 854.40 498.70 L 849.30 497.40 L 844.40 495.50 L 839.80 493.10 L 835.50 490.20 L 829.80 484.90 L 827.40 481.80 L 825.20 478.30 L 847.50 486.30 L 858.90 489.70 L 858.50 485.60 L 857.70 481.90 L 856.30 478.60 L 854.50 475.40 L 850.10 469.60 L 838.50 457.30 L 835.10 452.90 Z" fill="#492538" fill-rule="nonzero" node-id="220" stroke="none" target-height="46.700012" target-width="39.700012" target-x="825.2" target-y="452.9"></path><path d="M 191.80 481.90 L 200.60 489.50 L 225.80 513.70 L 241.10 526.30 L 257.30 537.80 L 268.40 544.80 L 279.90 551.50 L 291.50 557.80 L 309.20 566.90 L 327.00 575.50 L 337.30 580.10 L 358.10 588.10 L 374.10 593.30 L 438.50 611.90 L 454.50 617.00 L 440.80 618.40 L 382.50 603.20 L 370.90 599.90 L 356.90 595.10 L 343.00 589.90 L 355.40 645.30 L 357.30 656.50 L 358.80 667.70 L 359.60 679.10 L 334.30 646.50 L 325.00 636.30 L 316.80 628.90 L 315.80 636.90 L 315.50 640.90 L 315.60 644.90 L 316.70 650.10 L 317.90 652.60 L 321.90 660.60 L 330.80 676.10 L 360.10 721.30 L 365.40 728.70 L 371.10 735.60 L 377.40 742.20 L 382.30 746.90 L 387.50 751.20 L 393.00 755.20 L 398.80 758.80 L 407.70 784.70 L 417.10 810.50 L 429.60 805.20 L 435.60 802.20 L 444.40 797.10 L 497.40 763.60 L 504.50 759.50 L 511.20 754.90 L 517.50 749.80 L 523.40 744.30 L 529.00 738.50 L 534.20 732.20 L 539.10 725.70 L 543.60 719.00 L 547.80 712.00 L 551.60 721.40 L 542.30 734.60 L 532.00 746.80 L 526.30 752.50 L 520.40 757.80 L 514.10 762.70 L 507.50 767.20 L 493.10 776.00 L 469.90 788.90 L 464.90 792.00 L 455.60 798.90 L 451.40 802.80 L 447.60 807.20 L 444.20 812.10 L 441.90 830.10 L 458.50 828.30 L 463.80 828.20 L 450.50 840.60 L 466.90 854.10 L 487.20 837.20 L 494.90 840.40 L 477.30 857.70 L 481.30 858.80 L 485.10 859.50 L 488.70 859.60 L 492.20 859.30 L 496.90 858.30 L 501.40 856.70 L 505.80 854.40 L 509.90 851.70 L 517.70 845.20 L 501.10 830.60 L 509.30 833.80 L 539.30 846.70 L 527.20 853.80 L 515.70 861.70 L 524.10 861.80 L 540.80 861.00 L 565.70 858.00 L 564.00 866.00 L 553.70 866.90 L 533.10 867.90 L 502.10 867.70 L 471.20 866.80 L 461.10 858.40 L 451.20 849.70 L 438.70 837.40 L 432.80 830.90 L 439.90 807.70 L 420.80 816.80 L 383.40 836.60 L 378.00 839.00 L 372.40 841.00 L 366.80 842.60 L 358.30 844.30 L 332.00 847.60 L 323.30 848.90 L 314.70 850.60 L 296.80 841.60 L 294.00 839.90 L 289.10 835.70 L 287.10 833.30 L 285.50 830.40 L 284.30 827.10 L 280.40 813.90 L 267.40 765.80 L 265.90 757.50 L 264.90 749.20 L 264.10 732.50 L 264.70 711.50 L 265.60 699.00 L 267.30 693.10 L 271.70 681.60 L 275.60 673.30 L 288.40 648.70 L 236.20 666.90 L 214.40 673.80 L 210.00 674.70 L 205.60 675.10 L 201.30 675.10 L 196.90 674.60 L 188.30 672.70 L 184.10 671.10 L 178.70 668.60 L 173.60 665.50 L 168.70 661.90 L 164.30 657.80 L 160.20 653.40 L 156.70 648.60 L 152.30 640.80 L 149.30 632.60 L 148.40 628.30 L 147.90 624.00 L 147.80 619.50 L 148.20 615.00 L 149.50 611.50 L 151.10 608.30 L 155.20 602.80 L 158.50 599.60 L 162.10 596.80 L 166.10 594.20 L 172.40 590.70 L 179.00 587.70 L 200.10 578.40 L 208.40 575.10 L 216.90 572.30 L 229.70 568.60 L 268.70 558.70 L 260.90 550.80 L 256.60 547.30 L 240.90 536.80 L 230.20 528.90 L 223.20 523.40 L 209.90 511.60 L 203.70 505.30 L 197.70 498.70 L 192.10 491.90 L 191.80 481.90 Z M 232.60 574.90 L 263.80 645.40 L 277.70 640.50 L 291.40 635.10 L 278.40 613.50 L 272.20 602.40 L 266.50 591.20 L 261.10 579.70 L 256.40 568.00 L 244.40 571.30 L 232.60 574.90 Z M 291.40 570.60 L 295.40 577.90 L 299.70 584.80 L 304.40 591.60 L 314.70 604.50 L 320.30 610.50 L 329.80 588.40 L 323.90 584.40 L 317.80 580.80 L 311.50 577.60 L 305.00 574.80 L 298.30 572.50 L 291.40 570.60 Z M 181.60 594.10 L 176.00 597.20 L 167.00 603.30 L 160.70 609.10 L 158.00 612.40 L 155.60 616.00 L 153.60 620.10 L 174.20 621.40 L 157.00 635.40 L 164.60 646.90 L 175.40 642.90 L 186.40 639.20 L 170.00 652.80 L 177.80 658.20 L 185.90 663.10 L 190.20 665.10 L 194.80 666.70 L 200.00 667.00 L 205.20 666.90 L 210.30 666.20 L 217.90 664.50 L 240.20 657.20 L 250.60 653.00 L 236.50 632.50 L 215.90 601.40 L 207.30 589.30 L 205.80 588.10 L 204.20 587.30 L 200.70 586.90 L 198.80 587.20 L 196.00 588.10 L 184.30 593.30 L 181.60 594.10 Z M 271.70 713.40 L 291.60 720.40 L 281.90 726.50 L 272.00 732.30 L 272.00 737.20 L 272.50 741.90 L 273.40 746.50 L 275.20 753.40 L 282.30 773.70 L 284.30 780.60 L 287.50 796.40 L 289.30 801.00 L 291.80 804.00 L 290.80 807.60 L 290.20 811.30 L 290.20 814.90 L 290.70 818.50 L 291.60 821.80 L 293.00 825.00 L 294.80 827.90 L 297.10 830.30 L 299.80 832.40 L 304.60 834.50 L 310.40 835.30 L 315.60 832.10 L 321.40 835.60 L 324.50 836.90 L 329.30 838.20 L 334.30 838.90 L 344.50 839.50 L 339.50 822.50 L 341.50 824.80 L 352.00 833.70 L 353.90 835.00 L 357.80 836.60 L 359.80 836.90 L 362.10 836.70 L 366.60 835.60 L 368.10 835.00 L 369.90 832.90 L 370.80 829.90 L 370.70 819.90 L 375.70 824.40 L 378.60 826.40 L 381.50 827.90 L 383.50 828.50 L 385.40 828.60 L 387.20 828.20 L 388.90 827.40 L 390.50 825.80 L 392.20 823.20 L 406.20 814.60 L 403.70 801.50 L 402.90 799.40 L 401.80 797.60 L 400.30 795.90 L 396.00 780.60 L 394.30 775.50 L 392.10 770.70 L 389.50 766.10 L 387.50 763.30 L 385.20 760.70 L 367.10 744.10 L 352.20 729.70 L 307.70 685.90 L 292.40 671.70 L 288.10 676.00 L 284.30 680.60 L 280.90 685.40 L 278.00 690.60 L 275.60 695.90 L 273.80 701.50 L 272.50 707.30 L 271.70 713.40 Z" fill="#331d29" fill-rule="nonzero" node-id="222" stroke="none" target-height="386.00003" target-width="417.90002" target-x="147.8" target-y="481.9"></path><path d="M 230.90 505.00 L 238.90 498.50 L 255.50 486.50 L 260.50 493.70 L 265.90 500.50 L 271.50 507.00 L 277.50 513.20 L 283.80 519.00 L 297.20 529.90 L 304.20 534.80 L 313.90 541.10 L 324.00 546.80 L 334.30 552.10 L 344.90 557.00 L 355.60 561.40 L 377.50 569.20 L 399.40 575.60 L 416.10 579.10 L 433.00 582.10 L 450.00 584.60 L 467.00 586.50 L 484.10 587.80 L 501.30 588.40 L 514.20 588.50 L 539.80 587.40 L 552.60 586.20 L 565.30 584.60 L 578.00 582.60 L 590.60 580.10 L 603.10 577.20 L 636.40 570.90 L 652.80 566.70 L 648.30 575.60 L 644.40 584.80 L 637.70 603.70 L 625.00 606.30 L 612.20 608.50 L 599.30 610.30 L 580.00 612.40 L 560.60 613.80 L 541.20 614.80 L 482.80 616.10 L 495.20 617.90 L 507.60 619.30 L 532.50 621.10 L 526.10 626.90 L 523.90 628.40 L 520.40 629.50 L 505.30 629.30 L 483.30 628.10 L 466.00 625.60 L 457.50 623.80 L 449.10 621.40 L 440.80 618.40 L 454.50 617.00 L 438.50 611.90 L 374.10 593.30 L 358.10 588.10 L 337.30 580.10 L 327.00 575.50 L 309.20 566.90 L 291.50 557.80 L 279.90 551.50 L 268.40 544.80 L 257.30 537.80 L 241.10 526.30 L 225.80 513.70 L 230.90 505.00 Z" fill="#cca69a" fill-rule="nonzero" node-id="224" stroke="none" target-height="143" target-width="427" target-x="225.8" target-y="486.5"></path><path d="M 136.60 490.80 L 146.40 492.60 L 151.30 504.50 L 153.50 510.70 L 139.50 522.80 L 132.70 513.00 L 142.30 497.90 L 136.60 490.80 Z" fill="#c3b4b8" fill-rule="nonzero" node-id="226" stroke="none" target-height="32" target-width="20.800003" target-x="132.7" target-y="490.8"></path><path d="M 608.90 489.40 L 617.70 492.00 L 626.30 495.10 L 634.70 498.60 L 659.50 510.40 L 661.90 517.20 L 665.70 531.10 L 666.90 538.10 L 667.60 545.20 L 667.70 552.50 L 660.80 544.20 L 653.50 536.20 L 623.20 505.60 L 615.90 497.60 L 608.90 489.40 Z" fill="#ebd6b6" fill-rule="nonzero" node-id="228" stroke="none" target-height="63.100006" target-width="58.799988" target-x="608.9" target-y="489.4"></path><path d="M 603.40 498.10 L 612.10 504.60 L 620.40 511.40 L 628.40 518.50 L 636.20 526.00 L 643.60 533.80 L 650.70 541.90 L 657.40 550.40 L 663.80 559.10 L 652.80 566.70 L 636.40 570.90 L 603.10 577.20 L 613.20 570.80 L 623.00 564.00 L 626.80 560.90 L 620.20 542.40 L 614.70 530.60 L 611.40 525.00 L 607.80 519.60 L 603.80 514.60 L 596.80 507.00 L 603.40 498.10 Z" fill="#ece2de" fill-rule="nonzero" node-id="230" stroke="none" target-height="79.100006" target-width="67" target-x="596.8" target-y="498.1"></path><path d="M 659.50 510.40 L 678.30 519.20 L 696.00 533.30 L 704.70 540.70 L 712.90 548.40 L 718.10 553.90 L 722.80 559.80 L 727.20 566.00 L 714.60 573.40 L 701.80 580.20 L 688.80 586.60 L 677.50 570.00 L 672.30 561.40 L 667.70 552.50 L 667.60 545.20 L 666.90 538.10 L 665.70 531.10 L 661.90 517.20 L 659.50 510.40 Z" fill="#d37c4c" fill-rule="nonzero" node-id="232" stroke="none" target-height="76.19998" target-width="67.70001" target-x="659.5" target-y="510.4"></path><path d="M 858.50 550.70 L 883.70 532.30 L 889.50 546.60 L 892.60 556.40 L 893.60 561.40 L 894.30 566.40 L 894.40 571.60 L 894.10 576.80 L 887.50 579.40 L 882.20 575.10 L 872.30 565.70 L 858.50 550.70 Z" fill="#d9713c" fill-rule="nonzero" node-id="234" stroke="none" target-height="47.100037" target-width="35.900024" target-x="858.5" target-y="532.3"></path><path d="M 663.80 559.10 L 673.10 574.20 L 681.80 589.80 L 667.40 595.50 L 660.10 597.90 L 649.00 601.10 L 637.70 603.70 L 644.40 584.80 L 648.30 575.60 L 652.80 566.70 L 663.80 559.10 Z" fill="#c5866f" fill-rule="nonzero" node-id="236" stroke="none" target-height="44.600037" target-width="44.099976" target-x="637.7" target-y="559.1"></path><path d="M 232.60 574.90 L 244.40 571.30 L 256.40 568.00 L 261.10 579.70 L 266.50 591.20 L 272.20 602.40 L 278.40 613.50 L 291.40 635.10 L 277.70 640.50 L 263.80 645.40 L 232.60 574.90 Z" fill="#df8553" fill-rule="nonzero" node-id="238" stroke="none" target-height="77.400024" target-width="58.799988" target-x="232.6" target-y="568"></path><path d="M 291.40 570.60 L 298.30 572.50 L 305.00 574.80 L 311.50 577.60 L 317.80 580.80 L 323.90 584.40 L 329.80 588.40 L 320.30 610.50 L 314.70 604.50 L 304.40 591.60 L 299.70 584.80 L 295.40 577.90 L 291.40 570.60 Z" fill="#ce6f3e" fill-rule="nonzero" node-id="240" stroke="none" target-height="39.900024" target-width="38.399994" target-x="291.4" target-y="570.6"></path><path d="M 840.90 584.50 L 869.10 591.50 L 867.10 614.30 L 865.60 625.70 L 831.10 631.20 L 830.70 625.70 L 830.80 620.40 L 832.40 609.90 L 835.20 599.60 L 840.90 584.50 Z" fill="#cf5836" fill-rule="nonzero" node-id="242" stroke="none" target-height="46.700012" target-width="38.399963" target-x="830.7" target-y="584.5"></path><path d="M 181.60 594.10 L 184.30 593.30 L 196.00 588.10 L 198.80 587.20 L 200.70 586.90 L 204.20 587.30 L 205.80 588.10 L 207.30 589.30 L 215.90 601.40 L 236.50 632.50 L 250.60 653.00 L 240.20 657.20 L 235.40 648.70 L 230.20 640.60 L 224.60 632.70 L 218.50 625.20 L 212.00 618.10 L 205.00 611.30 L 199.50 606.60 L 187.80 598.00 L 181.60 594.10 Z" fill="#d99773" fill-rule="nonzero" node-id="244" stroke="none" target-height="70.29999" target-width="69" target-x="181.6" target-y="586.9"></path><path d="M 343.00 589.90 L 356.90 595.10 L 370.90 599.90 L 368.70 610.90 L 365.50 633.10 L 364.60 644.20 L 364.20 655.40 L 364.40 666.60 L 362.50 694.00 L 360.10 721.30 L 330.80 676.10 L 321.90 660.60 L 317.90 652.60 L 316.00 647.50 L 315.50 640.90 L 316.80 628.90 L 325.00 636.30 L 334.30 646.50 L 359.60 679.10 L 358.80 667.70 L 357.30 656.50 L 355.40 645.30 L 343.00 589.90 Z" fill="#d67942" fill-rule="nonzero" node-id="246" stroke="none" target-height="131.39996" target-width="55.399994" target-x="315.5" target-y="589.9"></path><path d="M 676.00 615.70 L 678.40 612.80 L 686.30 599.00 L 688.70 596.30 L 690.60 594.90 L 692.90 593.90 L 695.50 593.40 L 698.80 597.00 L 704.50 604.70 L 708.10 611.00 L 711.40 617.50 L 717.50 630.60 L 711.10 637.10 L 684.30 661.60 L 677.90 667.90 L 671.70 674.60 L 666.00 681.60 L 696.10 674.00 L 706.20 672.10 L 719.90 670.30 L 726.80 669.90 L 727.70 677.20 L 728.10 684.60 L 721.20 691.20 L 711.60 698.10 L 686.80 712.50 L 680.80 716.40 L 673.30 722.20 L 669.80 725.50 L 677.20 725.70 L 684.60 725.30 L 706.70 723.30 L 714.10 723.00 L 723.90 723.30 L 728.90 723.90 L 725.90 728.50 L 722.60 732.80 L 719.00 736.50 L 715.10 740.10 L 706.60 746.40 L 686.30 759.20 L 679.80 763.70 L 671.70 770.50 L 668.00 774.40 L 702.20 767.70 L 713.70 765.70 L 707.80 775.40 L 699.60 790.40 L 693.60 799.90 L 690.00 804.20 L 682.90 806.20 L 675.60 807.80 L 668.30 808.90 L 653.50 810.10 L 646.00 810.30 L 634.90 810.10 L 623.80 809.50 L 627.80 797.00 L 630.30 790.90 L 642.90 763.90 L 648.90 748.70 L 650.80 742.40 L 652.20 736.10 L 653.30 726.50 L 653.40 721.50 L 652.30 706.10 L 651.00 696.00 L 649.30 685.90 L 644.70 665.90 L 642.00 656.10 L 632.70 626.80 L 650.40 627.00 L 656.40 626.70 L 660.20 626.00 L 663.90 625.00 L 667.40 623.60 L 669.80 622.20 L 672.00 620.40 L 674.10 618.30 L 676.00 615.70 Z" fill="#d46c3a" fill-rule="nonzero" node-id="248" stroke="none" target-height="216.89996" target-width="105.10004" target-x="623.8" target-y="593.4"></path><path d="M 153.60 620.10 L 155.60 616.00 L 158.00 612.40 L 160.70 609.10 L 163.70 606.10 L 170.50 600.70 L 181.60 594.10 L 187.80 598.00 L 199.50 606.60 L 205.00 611.30 L 212.00 618.10 L 218.50 625.20 L 224.60 632.70 L 230.20 640.60 L 235.40 648.70 L 240.20 657.20 L 217.90 664.50 L 210.30 666.20 L 205.20 666.90 L 200.00 667.00 L 194.80 666.70 L 190.20 665.10 L 185.90 663.10 L 177.80 658.20 L 170.00 652.80 L 186.40 639.20 L 175.40 642.90 L 164.60 646.90 L 157.00 635.40 L 174.20 621.40 L 153.60 620.10 Z" fill="#f2e6dc" fill-rule="nonzero" node-id="250" stroke="none" target-height="72.900024" target-width="86.59999" target-x="153.6" target-y="594.1"></path><path d="M 370.90 599.90 L 382.50 603.20 L 440.80 618.40 L 449.10 621.40 L 457.50 623.80 L 466.00 625.60 L 474.60 627.00 L 492.10 628.70 L 505.30 629.30 L 520.40 629.50 L 523.90 628.40 L 526.10 626.90 L 532.50 621.10 L 548.50 621.40 L 551.30 636.90 L 553.70 652.40 L 546.20 655.10 L 538.80 657.30 L 531.40 659.20 L 523.90 660.60 L 516.50 661.60 L 507.00 662.30 L 497.60 662.50 L 488.20 662.20 L 478.70 661.40 L 469.20 660.20 L 450.40 656.60 L 428.60 650.70 L 416.40 646.70 L 404.20 642.30 L 386.30 635.20 L 369.10 627.80 L 364.40 666.60 L 364.20 655.40 L 364.60 644.20 L 365.50 633.10 L 368.70 610.90 L 370.90 599.90 Z" fill="#d1aea4" fill-rule="nonzero" node-id="252" stroke="none" target-height="66.69995" target-width="189.5" target-x="364.2" target-y="599.9"></path><path d="M 556.90 620.40 L 571.10 618.60 L 585.40 617.50 L 594.90 617.10 L 604.40 617.10 L 614.00 617.60 L 604.00 623.30 L 594.30 629.40 L 585.00 636.00 L 578.30 641.20 L 571.80 646.90 L 565.60 652.80 L 559.70 659.10 L 558.40 646.30 L 557.40 633.40 L 556.90 620.40 Z" fill="#d77b47" fill-rule="nonzero" node-id="254" stroke="none" target-height="42" target-width="57.099976" target-x="556.9" target-y="617.1"></path><path d="M 880.30 646.60 L 883.20 645.80 L 882.10 653.90 L 878.10 676.80 L 860.10 680.90 L 854.10 681.30 L 851.10 680.90 L 846.30 672.90 L 841.90 664.80 L 847.90 660.90 L 860.40 654.00 L 866.80 651.10 L 873.50 648.60 L 880.30 646.60 Z" fill="#c85a2f" fill-rule="nonzero" node-id="256" stroke="none" target-height="35.5" target-width="41.299988" target-x="841.9" target-y="645.8"></path><path d="M 560.60 696.90 L 561.50 692.70 L 562.80 688.90 L 564.40 685.30 L 566.30 682.00 L 569.40 677.80 L 572.90 674.10 L 576.90 670.70 L 581.20 667.60 L 585.80 664.90 L 590.70 662.40 L 598.30 659.30 L 606.00 656.80 L 621.30 653.10 L 615.60 659.20 L 609.60 665.00 L 603.30 670.40 L 596.60 675.50 L 582.60 684.80 L 571.70 691.10 L 560.60 696.90 Z" fill="#e37d42" fill-rule="nonzero" node-id="258" stroke="none" target-height="43.80005" target-width="60.700012" target-x="560.6" target-y="653.1"></path><path d="M 271.70 713.40 L 272.50 707.30 L 273.80 701.50 L 275.60 695.90 L 278.00 690.60 L 280.90 685.40 L 284.30 680.60 L 288.10 676.00 L 292.40 671.70 L 307.70 685.90 L 367.10 744.10 L 385.20 760.70 L 389.50 766.10 L 392.10 770.70 L 394.30 775.50 L 396.00 780.60 L 400.30 795.90 L 391.40 791.20 L 382.30 786.80 L 376.80 787.30 L 371.60 788.20 L 366.60 789.70 L 357.00 793.90 L 345.60 800.70 L 339.10 805.30 L 341.50 824.80 L 336.00 818.30 L 332.20 814.40 L 328.10 811.00 L 323.70 807.90 L 319.00 805.30 L 314.10 803.00 L 315.60 832.10 L 310.40 835.30 L 308.90 829.20 L 306.80 823.40 L 303.10 816.10 L 300.80 812.70 L 298.20 809.50 L 290.40 802.60 L 288.40 799.20 L 287.50 796.40 L 284.30 780.60 L 282.30 773.70 L 275.20 753.40 L 273.40 746.50 L 272.50 741.90 L 272.00 737.20 L 272.00 732.30 L 281.90 726.50 L 291.60 720.40 L 271.70 713.40 Z" fill="#e29751" fill-rule="nonzero" node-id="260" stroke="none" target-height="163.59998" target-width="128.59998" target-x="271.7" target-y="671.7"></path><path d="M 618.90 693.60 L 640.60 686.70 L 645.90 719.10 L 604.90 710.70 L 616.20 702.60 L 627.00 693.90 L 618.90 693.60 Z" fill="#c9653c" fill-rule="nonzero" node-id="262" stroke="none" target-height="32.399963" target-width="41" target-x="604.9" target-y="686.7"></path><path d="M 551.60 721.40 L 555.00 718.10 L 562.30 712.40 L 571.60 707.40 L 577.20 705.00 L 591.90 700.40 L 618.90 693.60 L 627.00 693.90 L 616.20 702.60 L 604.90 710.70 L 592.90 717.40 L 587.00 721.10 L 581.50 725.10 L 574.60 731.20 L 571.40 734.60 L 606.80 736.20 L 618.50 737.20 L 630.20 738.60 L 641.90 740.50 L 636.40 752.80 L 634.80 755.70 L 632.70 758.30 L 629.30 760.80 L 601.00 771.40 L 592.40 775.00 L 584.00 778.90 L 575.90 783.40 L 590.50 801.80 L 585.60 808.30 L 580.30 814.40 L 574.60 820.00 L 568.50 825.10 L 562.10 829.80 L 555.30 834.10 L 548.30 838.00 L 541.00 841.40 L 533.50 844.40 L 517.40 837.20 L 501.10 830.60 L 517.70 845.20 L 513.90 848.70 L 505.80 854.40 L 501.40 856.70 L 496.90 858.30 L 492.20 859.30 L 488.70 859.60 L 485.10 859.50 L 481.30 858.80 L 477.30 857.70 L 494.90 840.40 L 475.60 832.50 L 463.80 828.20 L 458.50 828.30 L 461.60 818.60 L 444.20 812.10 L 447.60 807.20 L 451.40 802.80 L 455.60 798.90 L 460.10 795.30 L 469.90 788.90 L 493.10 776.00 L 507.50 767.20 L 514.10 762.70 L 520.40 757.80 L 526.30 752.50 L 532.00 746.80 L 537.30 740.80 L 547.10 728.10 L 551.60 721.40 Z" fill="#e18e4e" fill-rule="nonzero" node-id="264" stroke="none" target-height="166" target-width="197.70001" target-x="444.2" target-y="693.6"></path><path d="M 856.10 696.00 L 875.00 699.00 L 893.80 702.60 L 893.10 718.20 L 879.90 718.20 L 871.10 717.30 L 866.80 716.20 L 864.90 715.20 L 862.10 712.70 L 860.60 710.30 L 859.50 707.50 L 856.10 696.00 Z" fill="#bf552c" fill-rule="nonzero" node-id="266" stroke="none" target-height="22.200012" target-width="37.700012" target-x="856.1" target-y="696"></path><path d="M 258.10 758.10 L 259.90 750.50 L 260.30 746.60 L 260.60 740.70 L 260.60 722.50 L 260.90 716.50 L 261.70 710.50 L 262.60 706.60 L 265.60 699.00 L 264.70 711.50 L 264.10 732.50 L 264.90 749.20 L 265.90 757.50 L 267.40 765.80 L 269.50 773.90 L 280.40 813.90 L 284.30 827.10 L 285.50 830.40 L 287.10 833.30 L 289.10 835.70 L 291.40 837.90 L 296.80 841.60 L 314.70 850.60 L 310.40 852.20 L 291.40 850.90 L 281.90 849.90 L 266.20 847.40 L 254.00 844.20 L 248.00 842.10 L 242.20 839.70 L 231.50 834.50 L 226.50 832.70 L 221.30 831.30 L 216.10 830.40 L 210.70 829.90 L 200.00 830.00 L 194.60 830.70 L 187.50 832.10 L 180.70 834.00 L 174.00 836.40 L 174.00 838.80 L 174.40 840.70 L 175.10 842.30 L 176.30 843.60 L 177.80 844.80 L 179.90 845.70 L 186.30 847.40 L 192.90 848.50 L 199.60 849.20 L 219.70 850.40 L 226.40 851.10 L 232.90 852.30 L 241.30 854.90 L 252.20 859.90 L 266.10 865.20 L 273.30 867.30 L 280.50 868.90 L 351.50 879.20 L 372.70 881.90 L 386.90 883.30 L 401.20 884.30 L 415.40 884.90 L 475.90 885.50 L 496.10 885.20 L 516.30 884.50 L 536.40 883.20 L 607.60 874.70 L 655.00 868.00 L 684.10 863.30 L 695.10 862.50 L 728.60 863.60 L 734.10 863.60 L 745.10 862.50 L 750.50 861.50 L 755.80 859.90 L 763.00 857.10 L 764.50 856.10 L 767.50 852.80 L 768.80 850.40 L 773.00 839.90 L 780.00 837.30 L 783.70 840.30 L 787.60 842.70 L 791.60 844.50 L 795.90 845.70 L 800.30 846.40 L 804.80 846.60 L 809.20 846.30 L 813.60 845.50 L 817.90 844.20 L 822.00 842.50 L 825.90 840.30 L 829.60 837.60 L 832.90 834.60 L 835.80 831.10 L 838.30 827.20 L 845.50 825.00 L 852.50 822.50 L 859.40 819.60 L 866.10 816.30 L 872.50 812.50 L 878.60 808.40 L 884.50 803.80 L 890.00 798.70 L 895.10 793.20 L 903.20 795.60 L 911.20 798.30 L 919.00 801.50 L 926.60 805.00 L 934.10 809.00 L 941.30 813.40 L 948.10 818.20 L 954.70 823.50 L 958.20 827.00 L 961.50 831.00 L 964.50 835.30 L 966.80 839.80 L 968.10 843.00 L 968.90 846.20 L 969.30 849.50 L 969.20 852.80 L 968.60 856.10 L 967.40 859.50 L 965.20 864.00 L 962.50 868.10 L 959.50 871.90 L 956.20 875.40 L 948.60 881.60 L 942.40 885.70 L 935.90 889.40 L 922.80 896.00 L 909.40 901.30 L 895.90 906.10 L 882.20 910.40 L 868.40 914.30 L 849.90 919.00 L 831.20 923.10 L 812.40 926.60 L 774.50 932.60 L 733.50 938.10 L 711.40 940.70 L 689.30 942.80 L 656.00 945.30 L 622.70 947.30 L 556.00 951.00 L 525.20 951.70 L 494.40 952.00 L 463.60 951.80 L 432.80 951.00 L 402.00 949.70 L 371.30 947.80 L 348.30 945.90 L 302.40 941.10 L 257.50 935.10 L 235.50 931.80 L 213.50 928.10 L 191.60 923.80 L 177.10 920.60 L 148.50 913.00 L 134.40 908.60 L 120.40 903.70 L 106.60 898.20 L 92.70 891.50 L 85.80 887.90 L 74.80 881.00 L 67.00 874.40 L 63.40 870.80 L 60.20 866.80 L 57.40 862.40 L 55.60 858.90 L 54.60 855.40 L 54.10 851.90 L 54.10 848.30 L 54.50 844.80 L 55.50 841.20 L 58.40 834.50 L 60.30 831.30 L 63.60 826.80 L 67.30 822.90 L 71.70 819.00 L 76.30 815.50 L 81.00 812.40 L 88.50 808.20 L 96.30 804.40 L 120.00 793.70 L 127.70 789.80 L 107.70 761.30 L 110.50 759.80 L 113.00 758.90 L 117.70 758.30 L 120.70 758.60 L 123.60 759.40 L 126.50 760.70 L 130.60 763.30 L 147.00 776.40 L 151.30 778.90 L 154.30 780.10 L 157.40 780.80 L 160.60 781.10 L 158.30 775.20 L 149.80 758.00 L 147.30 752.20 L 145.40 746.30 L 144.60 742.20 L 144.20 737.90 L 144.40 733.50 L 148.40 734.70 L 152.10 736.20 L 155.50 738.10 L 161.70 742.70 L 168.40 749.70 L 182.90 768.60 L 186.80 773.00 L 189.80 773.10 L 192.70 772.60 L 210.60 766.80 L 217.30 765.30 L 244.70 761.40 L 251.50 760.00 L 258.10 758.10 Z M 197.40 801.30 L 200.00 804.30 L 202.90 806.80 L 205.80 808.80 L 212.40 811.60 L 215.90 812.50 L 221.40 813.30 L 227.00 813.70 L 249.40 813.30 L 250.70 801.80 L 232.90 800.40 L 215.10 799.70 L 203.30 800.50 L 197.40 801.30 Z M 124.80 826.50 L 131.20 828.20 L 137.70 829.50 L 149.30 830.80 L 159.20 830.40 L 166.00 829.60 L 167.60 829.10 L 170.60 827.20 L 172.50 824.50 L 173.00 823.00 L 173.00 821.30 L 172.50 819.50 L 168.60 817.90 L 164.50 816.70 L 160.30 815.90 L 156.10 815.50 L 147.60 815.90 L 143.40 816.70 L 139.30 817.90 L 135.30 819.40 L 131.60 821.40 L 128.10 823.80 L 124.80 826.50 Z M 83.50 840.70 L 88.60 850.50 L 90.30 852.60 L 92.30 854.30 L 95.60 855.50 L 97.70 855.70 L 104.10 855.50 L 107.60 855.10 L 113.00 853.30 L 116.20 850.90 L 117.30 849.30 L 117.90 847.30 L 118.00 844.80 L 114.50 842.60 L 110.90 841.10 L 107.10 840.10 L 103.20 839.50 L 95.30 839.40 L 83.50 840.70 Z M 561.10 899.40 L 565.20 901.70 L 569.40 903.50 L 573.70 904.60 L 582.50 905.60 L 587.00 905.60 L 593.80 905.00 L 600.70 904.00 L 618.80 900.70 L 623.20 899.30 L 627.50 897.30 L 630.40 895.40 L 633.10 893.30 L 635.50 890.70 L 637.70 887.70 L 614.10 887.20 L 598.00 887.40 L 590.10 888.20 L 584.90 889.10 L 575.00 891.90 L 570.20 893.90 L 565.60 896.40 L 561.10 899.40 Z M 688.50 895.40 L 689.60 906.20 L 694.80 907.60 L 699.90 908.40 L 705.10 908.80 L 715.30 908.20 L 720.50 907.40 L 728.10 905.60 L 735.70 903.40 L 750.40 898.20 L 748.80 888.60 L 742.00 887.70 L 735.20 887.40 L 728.40 887.40 L 721.70 888.00 L 708.20 890.00 L 698.30 892.40 L 688.50 895.40 Z M 472.00 912.70 L 471.70 915.00 L 471.90 916.80 L 472.60 918.20 L 474.90 920.50 L 476.60 921.30 L 482.30 922.80 L 487.90 923.50 L 491.30 923.50 L 494.60 923.10 L 497.80 922.30 L 502.30 920.40 L 506.70 917.90 L 514.80 912.10 L 507.80 910.30 L 500.60 909.10 L 490.90 908.70 L 486.10 909.00 L 481.30 909.80 L 476.60 911.00 L 472.00 912.70 Z" fill="#91a181" fill-rule="nonzero" node-id="268" stroke="none" target-height="253" target-width="915.2" target-x="54.1" target-y="699"></path><path d="M 854.20 719.40 L 866.10 725.20 L 869.80 727.60 L 874.00 731.60 L 875.80 734.10 L 876.50 736.70 L 876.70 739.10 L 875.70 743.60 L 873.50 747.70 L 871.20 750.40 L 863.00 757.60 L 848.30 737.20 L 854.20 719.40 Z" fill="#c0512e" fill-rule="nonzero" node-id="270" stroke="none" target-height="38.19995" target-width="28.400024" target-x="848.3" target-y="719.4"></path><path d="M 730.90 767.10 L 732.00 762.10 L 734.40 745.80 L 735.50 740.60 L 737.20 735.60 L 738.70 732.60 L 740.60 729.80 L 742.90 727.20 L 745.80 727.90 L 748.30 729.00 L 750.40 730.30 L 752.00 731.80 L 753.90 734.40 L 755.20 737.20 L 756.10 740.40 L 756.50 747.20 L 756.20 750.70 L 754.50 757.50 L 752.10 764.40 L 751.20 765.60 L 748.60 767.30 L 744.50 768.10 L 730.90 767.10 Z" fill="#c65833" fill-rule="nonzero" node-id="272" stroke="none" target-height="40.899963" target-width="25.599976" target-x="730.9" target-y="727.2"></path><path d="M 773.80 736.20 L 776.80 737.60 L 779.20 739.20 L 781.20 741.10 L 782.80 743.10 L 784.60 746.10 L 785.80 749.40 L 786.70 753.00 L 787.20 758.60 L 787.30 764.40 L 786.50 775.60 L 765.20 771.70 L 773.80 736.20 Z" fill="#c2522f" fill-rule="nonzero" node-id="274" stroke="none" target-height="39.399963" target-width="22.099976" target-x="765.2" target-y="736.2"></path><path d="M 827.10 740.50 L 834.40 744.00 L 840.10 747.60 L 843.80 751.00 L 847.20 754.70 L 853.20 763.00 L 836.20 769.70 L 827.10 740.50 Z" fill="#b94e2a" fill-rule="nonzero" node-id="276" stroke="none" target-height="29.200012" target-width="26.100037" target-x="827.1" target-y="740.5"></path><path d="M 803.30 744.30 L 811.00 745.80 L 817.90 758.70 L 824.10 772.00 L 803.90 775.90 L 803.30 744.30 Z" fill="#c6562d" fill-rule="nonzero" node-id="278" stroke="none" target-height="31.600037" target-width="20.799988" target-x="803.3" target-y="744.3"></path><path d="M 398.80 758.80 L 424.50 771.30 L 431.90 775.90 L 439.00 780.90 L 452.90 791.60 L 444.40 797.10 L 435.60 802.20 L 423.40 808.00 L 417.10 810.50 L 407.70 784.70 L 398.80 758.80 Z" fill="#cf8d86" fill-rule="nonzero" node-id="280" stroke="none" target-height="51.700012" target-width="54.100006" target-x="398.8" target-y="758.8"></path><path d="M 424.50 771.30 L 433.70 771.30 L 442.80 770.60 L 451.90 769.50 L 479.20 765.30 L 488.30 764.20 L 497.40 763.60 L 452.90 791.60 L 439.00 780.90 L 431.90 775.90 L 424.50 771.30 Z" fill="#e3cdcf" fill-rule="nonzero" node-id="282" stroke="none" target-height="28" target-width="72.899994" target-x="424.5" target-y="763.6"></path><path d="M 723.30 777.40 L 728.70 777.00 L 734.00 777.10 L 739.40 777.60 L 765.70 781.10 L 776.00 782.20 L 786.40 782.90 L 796.70 783.30 L 807.00 783.10 L 817.30 782.40 L 825.00 781.50 L 832.60 780.10 L 840.20 778.40 L 847.70 776.30 L 859.40 780.90 L 895.10 793.20 L 890.00 798.70 L 884.50 803.80 L 878.60 808.40 L 872.50 812.50 L 866.10 816.30 L 859.40 819.60 L 852.50 822.50 L 845.50 825.00 L 838.30 827.20 L 828.30 827.10 L 818.30 827.50 L 805.20 829.10 L 798.70 830.40 L 792.40 832.20 L 773.00 839.90 L 756.70 842.00 L 697.30 851.10 L 686.40 852.20 L 656.80 854.40 L 638.20 856.10 L 591.70 862.00 L 564.00 866.00 L 564.80 862.20 L 574.20 859.60 L 582.60 855.80 L 587.80 852.60 L 592.80 849.00 L 597.50 845.00 L 606.10 836.20 L 610.20 831.30 L 621.30 816.30 L 657.60 815.90 L 666.70 815.50 L 681.60 813.70 L 693.30 810.90 L 695.80 809.10 L 700.20 805.10 L 703.00 801.60 L 713.40 786.40 L 716.30 783.00 L 720.70 779.00 L 723.30 777.40 Z M 726.60 806.90 L 728.30 821.40 L 735.40 821.20 L 743.80 820.60 L 748.00 819.80 L 751.60 818.60 L 753.80 817.50 L 755.50 816.20 L 756.90 814.60 L 757.80 812.80 L 758.10 810.60 L 757.90 807.80 L 750.10 807.00 L 742.20 806.80 L 726.60 806.90 Z" fill="#7d876b" fill-rule="nonzero" node-id="284" stroke="none" target-height="89.70001" target-width="331.09998" target-x="564" target-y="776.3"></path><path d="M 339.10 805.30 L 352.30 796.50 L 361.70 791.60 L 366.60 789.70 L 371.60 788.20 L 376.80 787.30 L 382.30 786.80 L 387.80 804.90 L 392.20 823.20 L 390.50 825.80 L 388.90 827.40 L 387.20 828.20 L 385.40 828.60 L 383.50 828.50 L 381.50 827.90 L 378.60 826.40 L 375.70 824.40 L 370.70 819.90 L 370.80 829.90 L 370.50 831.50 L 369.10 834.10 L 368.10 835.00 L 366.60 835.60 L 362.10 836.70 L 359.80 836.90 L 357.80 836.60 L 353.90 835.00 L 352.00 833.70 L 341.50 824.80 L 339.10 805.30 Z" fill="#d2beb9" fill-rule="nonzero" node-id="286" stroke="none" target-height="50.100037" target-width="53.100006" target-x="339.1" target-y="786.8"></path><path d="M 382.30 786.80 L 391.40 791.20 L 400.30 795.90 L 401.80 797.60 L 403.70 801.50 L 406.20 814.60 L 392.20 823.20 L 387.80 804.90 L 382.30 786.80 Z" fill="#c4937f" fill-rule="nonzero" node-id="288" stroke="none" target-height="36.400024" target-width="23.900024" target-x="382.3" target-y="786.8"></path><path d="M 580.80 789.40 L 587.40 790.80 L 600.70 792.30 L 610.70 792.60 L 620.70 792.40 L 616.40 801.60 L 608.30 816.60 L 600.90 828.00 L 596.80 833.30 L 592.30 838.30 L 587.50 842.90 L 583.60 846.20 L 575.10 851.80 L 570.50 854.30 L 576.70 836.20 L 539.30 846.70 L 533.50 844.40 L 541.00 841.40 L 548.30 838.00 L 555.30 834.10 L 562.10 829.80 L 568.50 825.10 L 574.60 820.00 L 580.30 814.40 L 585.60 808.30 L 590.50 801.80 L 580.80 789.40 Z" fill="#d6613c" fill-rule="nonzero" node-id="290" stroke="none" target-height="64.89996" target-width="87.20001" target-x="533.5" target-y="789.4"></path><path d="M 197.40 801.30 L 203.30 800.50 L 215.10 799.70 L 232.90 800.40 L 250.70 801.80 L 249.40 813.30 L 227.00 813.70 L 221.40 813.30 L 215.90 812.50 L 209.10 810.30 L 205.80 808.80 L 202.90 806.80 L 200.00 804.30 L 197.40 801.30 Z" fill="#f9f8f5" fill-rule="nonzero" node-id="292" stroke="none" target-height="14" target-width="53.300003" target-x="197.4" target-y="799.7"></path><path d="M 291.80 804.00 L 295.20 806.70 L 298.20 809.50 L 303.10 816.10 L 306.80 823.40 L 308.90 829.20 L 310.40 835.30 L 304.60 834.50 L 299.80 832.40 L 297.10 830.30 L 294.80 827.90 L 293.00 825.00 L 291.60 821.80 L 290.70 818.50 L 290.20 814.90 L 290.20 811.30 L 290.80 807.60 L 291.80 804.00 Z" fill="#caa398" fill-rule="nonzero" node-id="294" stroke="none" target-height="31.299988" target-width="20.199982" target-x="290.2" target-y="804"></path><path d="M 314.10 803.00 L 319.00 805.30 L 323.70 807.90 L 328.10 811.00 L 332.20 814.40 L 336.00 818.30 L 339.50 822.50 L 344.50 839.50 L 334.30 838.90 L 329.30 838.20 L 324.50 836.90 L 321.40 835.60 L 315.60 832.10 L 314.10 803.00 Z" fill="#ccb0a3" fill-rule="nonzero" node-id="296" stroke="none" target-height="36.5" target-width="30.399994" target-x="314.1" target-y="803"></path><path d="M 726.60 806.90 L 742.20 806.80 L 750.10 807.00 L 757.90 807.80 L 758.10 810.60 L 757.80 812.80 L 756.90 814.60 L 755.50 816.20 L 753.80 817.50 L 751.60 818.60 L 748.00 819.80 L 743.80 820.60 L 735.40 821.20 L 728.30 821.40 L 726.60 806.90 Z" fill="#e8e8e6" fill-rule="nonzero" node-id="298" stroke="none" target-height="14.600037" target-width="31.5" target-x="726.6" target-y="806.8"></path><path d="M 383.40 836.60 L 420.80 816.80 L 439.90 807.70 L 432.80 830.90 L 438.70 837.40 L 451.20 849.70 L 461.10 858.40 L 471.20 866.80 L 410.50 865.40 L 376.80 863.40 L 350.10 860.30 L 336.80 858.10 L 323.60 855.40 L 310.40 852.20 L 314.70 850.60 L 323.30 848.90 L 358.30 844.30 L 366.80 842.60 L 372.50 841.00 L 378.00 839.00 L 383.40 836.60 Z" fill="#89956e" fill-rule="nonzero" node-id="300" stroke="none" target-height="59.099976" target-width="160.80002" target-x="310.4" target-y="807.7"></path><path d="M 124.80 826.50 L 128.10 823.80 L 131.60 821.40 L 135.30 819.40 L 139.30 817.90 L 143.40 816.70 L 147.60 815.90 L 156.10 815.50 L 160.30 815.90 L 164.50 816.70 L 168.60 817.90 L 172.50 819.50 L 173.00 821.30 L 173.00 823.00 L 171.70 826.00 L 169.20 828.30 L 166.00 829.60 L 154.30 830.80 L 144.30 830.40 L 137.70 829.50 L 131.20 828.20 L 124.80 826.50 Z" fill="#f6f7f4" fill-rule="nonzero" node-id="302" stroke="none" target-height="15.299988" target-width="48.199997" target-x="124.8" target-y="815.5"></path><path d="M 463.80 828.20 L 475.60 832.50 L 487.20 837.20 L 466.90 854.10 L 450.50 840.60 L 463.80 828.20 Z" fill="#e8a96a" fill-rule="nonzero" node-id="304" stroke="none" target-height="25.899963" target-width="36.700012" target-x="450.5" target-y="828.2"></path><path d="M 780.00 837.30 L 786.20 834.50 L 792.40 832.20 L 798.70 830.40 L 805.20 829.10 L 818.30 827.50 L 828.30 827.10 L 838.30 827.20 L 835.80 831.10 L 832.90 834.60 L 829.60 837.60 L 825.90 840.30 L 822.00 842.50 L 817.90 844.20 L 813.60 845.50 L 809.20 846.30 L 804.80 846.60 L 800.30 846.40 L 795.90 845.70 L 791.60 844.50 L 787.60 842.70 L 783.70 840.30 L 780.00 837.30 Z" fill="#f8f8f7" fill-rule="nonzero" node-id="306" stroke="none" target-height="19.5" target-width="58.299988" target-x="780" target-y="827.1"></path><path d="M 174.00 836.40 L 180.70 834.00 L 187.50 832.10 L 194.60 830.70 L 200.00 830.00 L 210.70 829.90 L 216.10 830.40 L 221.30 831.30 L 226.50 832.70 L 231.50 834.50 L 242.20 839.70 L 248.00 842.10 L 254.00 844.20 L 266.20 847.40 L 281.90 849.90 L 291.40 850.90 L 310.40 852.20 L 323.60 855.40 L 336.80 858.10 L 350.10 860.30 L 363.40 862.00 L 390.30 864.40 L 410.50 865.40 L 517.60 868.00 L 543.40 867.60 L 564.00 866.00 L 591.70 862.00 L 638.20 856.10 L 656.80 854.40 L 686.40 852.20 L 697.30 851.10 L 756.70 842.00 L 773.00 839.90 L 768.80 850.40 L 767.50 852.80 L 764.50 856.10 L 763.00 857.10 L 755.80 859.90 L 750.50 861.50 L 745.10 862.50 L 734.10 863.60 L 728.60 863.60 L 703.50 862.60 L 689.60 862.70 L 684.10 863.30 L 631.30 871.50 L 607.60 874.70 L 536.40 883.20 L 516.30 884.50 L 496.10 885.20 L 455.80 885.40 L 415.40 884.90 L 401.20 884.30 L 386.90 883.30 L 372.70 881.90 L 351.50 879.20 L 280.50 868.90 L 273.30 867.30 L 266.10 865.20 L 252.20 859.90 L 241.30 854.90 L 232.90 852.30 L 226.40 851.10 L 219.70 850.40 L 199.60 849.20 L 192.90 848.50 L 186.30 847.40 L 179.90 845.70 L 177.80 844.80 L 176.30 843.60 L 175.10 842.30 L 174.40 840.70 L 174.00 838.80 L 174.00 836.40 Z" fill="#fafaf9" fill-rule="nonzero" node-id="308" stroke="none" target-height="55.5" target-width="599" target-x="174" target-y="829.9"></path><path d="M 539.30 846.70 L 576.70 836.20 L 570.50 854.30 L 565.70 858.00 L 540.80 861.00 L 532.40 861.60 L 515.70 861.70 L 527.20 853.80 L 539.30 846.70 Z" fill="#efcc83" fill-rule="nonzero" node-id="310" stroke="none" target-height="25.5" target-width="61" target-x="515.7" target-y="836.2"></path><path d="M 83.50 840.70 L 95.30 839.40 L 103.20 839.50 L 107.10 840.10 L 110.90 841.10 L 114.50 842.60 L 118.00 844.80 L 117.90 847.30 L 117.30 849.30 L 116.20 850.90 L 113.00 853.30 L 107.60 855.10 L 104.10 855.50 L 95.60 855.50 L 92.30 854.30 L 90.30 852.60 L 87.10 848.20 L 83.50 840.70 Z" fill="#f2f2ef" fill-rule="nonzero" node-id="312" stroke="none" target-height="16.099976" target-width="34.5" target-x="83.5" target-y="839.4"></path><path d="M 561.10 899.40 L 565.60 896.40 L 570.20 893.90 L 575.00 891.90 L 584.90 889.10 L 590.10 888.20 L 598.00 887.40 L 606.00 887.10 L 637.70 887.70 L 635.50 890.70 L 633.10 893.30 L 630.40 895.40 L 627.50 897.30 L 623.20 899.30 L 618.80 900.70 L 600.70 904.00 L 593.80 905.00 L 587.00 905.60 L 578.00 905.30 L 573.70 904.60 L 569.40 903.50 L 565.20 901.70 L 561.10 899.40 Z" fill="#f5f6f7" fill-rule="nonzero" node-id="314" stroke="none" target-height="18.5" target-width="76.60004" target-x="561.1" target-y="887.1"></path><path d="M 688.50 895.40 L 698.30 892.40 L 708.20 890.00 L 714.90 888.80 L 728.40 887.40 L 735.20 887.40 L 742.00 887.70 L 748.80 888.60 L 750.40 898.20 L 735.70 903.40 L 728.10 905.60 L 720.50 907.40 L 715.30 908.20 L 705.10 908.80 L 699.90 908.40 L 694.80 907.60 L 689.60 906.20 L 688.50 895.40 Z" fill="#fbfbfb" fill-rule="nonzero" node-id="316" stroke="none" target-height="21.399963" target-width="61.900024" target-x="688.5" target-y="887.4"></path><path d="M 472.00 912.70 L 476.60 911.00 L 481.30 909.80 L 486.10 909.00 L 490.90 908.70 L 500.60 909.10 L 507.80 910.30 L 514.80 912.10 L 506.70 917.90 L 502.30 920.40 L 497.80 922.30 L 494.60 923.10 L 491.30 923.50 L 487.90 923.50 L 482.30 922.80 L 479.40 922.20 L 474.90 920.50 L 472.60 918.20 L 471.90 916.80 L 471.70 915.00 L 472.00 912.70 Z" fill="#f4f5f6" fill-rule="nonzero" node-id="318" stroke="none" target-height="14.799988" target-width="43.099976" target-x="471.7" target-y="908.7"></path></svg>